<?xml version="1.0" encoding="utf-8" standalone="no"?>
<!DOCTYPE svg PUBLIC "-//W3C//DTD SVG 1.1//EN"
  "http://www.w3.org/Graphics/SVG/1.1/DTD/svg11.dtd">
<!-- Created with matplotlib (https://matplotlib.org/) -->
<svg height="576pt" version="1.1" viewBox="0 0 864 576" width="864pt" xmlns="http://www.w3.org/2000/svg" xmlns:xlink="http://www.w3.org/1999/xlink">
 <defs>
  <style type="text/css">
*{stroke-linecap:butt;stroke-linejoin:round;}
  </style>
 </defs>
 <g id="figure_1">
  <g id="patch_1">
   <path d="M 0 576 
L 864 576 
L 864 0 
L 0 0 
z
" style="fill:#ffffff;"/>
  </g>
  <g id="axes_1">
   <g id="patch_2">
    <path d="M 108 512.64 
L 777.6 512.64 
L 777.6 69.12 
L 108 69.12 
z
" style="fill:#ffffff;"/>
   </g>
   <g id="matplotlib.axis_1">
    <g id="xtick_1">
     <g id="line2d_1">
      <path clip-path="url(#pd678d40ce4)" d="M 138.436364 512.64 
L 138.436364 69.12 
" style="fill:none;stroke:#b0b0b0;stroke-linecap:square;stroke-width:0.8;"/>
     </g>
     <g id="line2d_2">
      <defs>
       <path d="M 0 0 
L 0 3.5 
" id="me280b67ca0" style="stroke:#000000;stroke-width:0.8;"/>
      </defs>
      <g>
       <use style="stroke:#000000;stroke-width:0.8;" x="138.436364" xlink:href="#me280b67ca0" y="512.64"/>
      </g>
     </g>
     <g id="text_1">
      <!-- 0 -->
      <defs>
       <path d="M 31.78125 66.40625 
Q 24.171875 66.40625 20.328125 58.90625 
Q 16.5 51.421875 16.5 36.375 
Q 16.5 21.390625 20.328125 13.890625 
Q 24.171875 6.390625 31.78125 6.390625 
Q 39.453125 6.390625 43.28125 13.890625 
Q 47.125 21.390625 47.125 36.375 
Q 47.125 51.421875 43.28125 58.90625 
Q 39.453125 66.40625 31.78125 66.40625 
z
M 31.78125 74.21875 
Q 44.046875 74.21875 50.515625 64.515625 
Q 56.984375 54.828125 56.984375 36.375 
Q 56.984375 17.96875 50.515625 8.265625 
Q 44.046875 -1.421875 31.78125 -1.421875 
Q 19.53125 -1.421875 13.0625 8.265625 
Q 6.59375 17.96875 6.59375 36.375 
Q 6.59375 54.828125 13.0625 64.515625 
Q 19.53125 74.21875 31.78125 74.21875 
z
" id="DejaVuSans-48"/>
      </defs>
      <g transform="translate(135.255114 527.238438)scale(0.1 -0.1)">
       <use xlink:href="#DejaVuSans-48"/>
      </g>
     </g>
    </g>
    <g id="xtick_2">
     <g id="line2d_3">
      <path clip-path="url(#pd678d40ce4)" d="M 260.181818 512.64 
L 260.181818 69.12 
" style="fill:none;stroke:#b0b0b0;stroke-linecap:square;stroke-width:0.8;"/>
     </g>
     <g id="line2d_4">
      <g>
       <use style="stroke:#000000;stroke-width:0.8;" x="260.181818" xlink:href="#me280b67ca0" y="512.64"/>
      </g>
     </g>
     <g id="text_2">
      <!-- 50000 -->
      <defs>
       <path d="M 10.796875 72.90625 
L 49.515625 72.90625 
L 49.515625 64.59375 
L 19.828125 64.59375 
L 19.828125 46.734375 
Q 21.96875 47.46875 24.109375 47.828125 
Q 26.265625 48.1875 28.421875 48.1875 
Q 40.625 48.1875 47.75 41.5 
Q 54.890625 34.8125 54.890625 23.390625 
Q 54.890625 11.625 47.5625 5.09375 
Q 40.234375 -1.421875 26.90625 -1.421875 
Q 22.3125 -1.421875 17.546875 -0.640625 
Q 12.796875 0.140625 7.71875 1.703125 
L 7.71875 11.625 
Q 12.109375 9.234375 16.796875 8.0625 
Q 21.484375 6.890625 26.703125 6.890625 
Q 35.15625 6.890625 40.078125 11.328125 
Q 45.015625 15.765625 45.015625 23.390625 
Q 45.015625 31 40.078125 35.4375 
Q 35.15625 39.890625 26.703125 39.890625 
Q 22.75 39.890625 18.8125 39.015625 
Q 14.890625 38.140625 10.796875 36.28125 
z
" id="DejaVuSans-53"/>
      </defs>
      <g transform="translate(244.275568 527.238438)scale(0.1 -0.1)">
       <use xlink:href="#DejaVuSans-53"/>
       <use x="63.623047" xlink:href="#DejaVuSans-48"/>
       <use x="127.246094" xlink:href="#DejaVuSans-48"/>
       <use x="190.869141" xlink:href="#DejaVuSans-48"/>
       <use x="254.492188" xlink:href="#DejaVuSans-48"/>
      </g>
     </g>
    </g>
    <g id="xtick_3">
     <g id="line2d_5">
      <path clip-path="url(#pd678d40ce4)" d="M 381.927273 512.64 
L 381.927273 69.12 
" style="fill:none;stroke:#b0b0b0;stroke-linecap:square;stroke-width:0.8;"/>
     </g>
     <g id="line2d_6">
      <g>
       <use style="stroke:#000000;stroke-width:0.8;" x="381.927273" xlink:href="#me280b67ca0" y="512.64"/>
      </g>
     </g>
     <g id="text_3">
      <!-- 100000 -->
      <defs>
       <path d="M 12.40625 8.296875 
L 28.515625 8.296875 
L 28.515625 63.921875 
L 10.984375 60.40625 
L 10.984375 69.390625 
L 28.421875 72.90625 
L 38.28125 72.90625 
L 38.28125 8.296875 
L 54.390625 8.296875 
L 54.390625 0 
L 12.40625 0 
z
" id="DejaVuSans-49"/>
      </defs>
      <g transform="translate(362.839773 527.238438)scale(0.1 -0.1)">
       <use xlink:href="#DejaVuSans-49"/>
       <use x="63.623047" xlink:href="#DejaVuSans-48"/>
       <use x="127.246094" xlink:href="#DejaVuSans-48"/>
       <use x="190.869141" xlink:href="#DejaVuSans-48"/>
       <use x="254.492188" xlink:href="#DejaVuSans-48"/>
       <use x="318.115234" xlink:href="#DejaVuSans-48"/>
      </g>
     </g>
    </g>
    <g id="xtick_4">
     <g id="line2d_7">
      <path clip-path="url(#pd678d40ce4)" d="M 503.672727 512.64 
L 503.672727 69.12 
" style="fill:none;stroke:#b0b0b0;stroke-linecap:square;stroke-width:0.8;"/>
     </g>
     <g id="line2d_8">
      <g>
       <use style="stroke:#000000;stroke-width:0.8;" x="503.672727" xlink:href="#me280b67ca0" y="512.64"/>
      </g>
     </g>
     <g id="text_4">
      <!-- 150000 -->
      <g transform="translate(484.585227 527.238438)scale(0.1 -0.1)">
       <use xlink:href="#DejaVuSans-49"/>
       <use x="63.623047" xlink:href="#DejaVuSans-53"/>
       <use x="127.246094" xlink:href="#DejaVuSans-48"/>
       <use x="190.869141" xlink:href="#DejaVuSans-48"/>
       <use x="254.492188" xlink:href="#DejaVuSans-48"/>
       <use x="318.115234" xlink:href="#DejaVuSans-48"/>
      </g>
     </g>
    </g>
    <g id="xtick_5">
     <g id="line2d_9">
      <path clip-path="url(#pd678d40ce4)" d="M 625.418182 512.64 
L 625.418182 69.12 
" style="fill:none;stroke:#b0b0b0;stroke-linecap:square;stroke-width:0.8;"/>
     </g>
     <g id="line2d_10">
      <g>
       <use style="stroke:#000000;stroke-width:0.8;" x="625.418182" xlink:href="#me280b67ca0" y="512.64"/>
      </g>
     </g>
     <g id="text_5">
      <!-- 200000 -->
      <defs>
       <path d="M 19.1875 8.296875 
L 53.609375 8.296875 
L 53.609375 0 
L 7.328125 0 
L 7.328125 8.296875 
Q 12.9375 14.109375 22.625 23.890625 
Q 32.328125 33.6875 34.8125 36.53125 
Q 39.546875 41.84375 41.421875 45.53125 
Q 43.3125 49.21875 43.3125 52.78125 
Q 43.3125 58.59375 39.234375 62.25 
Q 35.15625 65.921875 28.609375 65.921875 
Q 23.96875 65.921875 18.8125 64.3125 
Q 13.671875 62.703125 7.8125 59.421875 
L 7.8125 69.390625 
Q 13.765625 71.78125 18.9375 73 
Q 24.125 74.21875 28.421875 74.21875 
Q 39.75 74.21875 46.484375 68.546875 
Q 53.21875 62.890625 53.21875 53.421875 
Q 53.21875 48.921875 51.53125 44.890625 
Q 49.859375 40.875 45.40625 35.40625 
Q 44.1875 33.984375 37.640625 27.21875 
Q 31.109375 20.453125 19.1875 8.296875 
z
" id="DejaVuSans-50"/>
      </defs>
      <g transform="translate(606.330682 527.238438)scale(0.1 -0.1)">
       <use xlink:href="#DejaVuSans-50"/>
       <use x="63.623047" xlink:href="#DejaVuSans-48"/>
       <use x="127.246094" xlink:href="#DejaVuSans-48"/>
       <use x="190.869141" xlink:href="#DejaVuSans-48"/>
       <use x="254.492188" xlink:href="#DejaVuSans-48"/>
       <use x="318.115234" xlink:href="#DejaVuSans-48"/>
      </g>
     </g>
    </g>
    <g id="xtick_6">
     <g id="line2d_11">
      <path clip-path="url(#pd678d40ce4)" d="M 747.163636 512.64 
L 747.163636 69.12 
" style="fill:none;stroke:#b0b0b0;stroke-linecap:square;stroke-width:0.8;"/>
     </g>
     <g id="line2d_12">
      <g>
       <use style="stroke:#000000;stroke-width:0.8;" x="747.163636" xlink:href="#me280b67ca0" y="512.64"/>
      </g>
     </g>
     <g id="text_6">
      <!-- 250000 -->
      <g transform="translate(728.076136 527.238438)scale(0.1 -0.1)">
       <use xlink:href="#DejaVuSans-50"/>
       <use x="63.623047" xlink:href="#DejaVuSans-53"/>
       <use x="127.246094" xlink:href="#DejaVuSans-48"/>
       <use x="190.869141" xlink:href="#DejaVuSans-48"/>
       <use x="254.492188" xlink:href="#DejaVuSans-48"/>
       <use x="318.115234" xlink:href="#DejaVuSans-48"/>
      </g>
     </g>
    </g>
    <g id="text_7">
     <!-- Quota [m] -->
     <defs>
      <path d="M 39.40625 66.21875 
Q 28.65625 66.21875 22.328125 58.203125 
Q 16.015625 50.203125 16.015625 36.375 
Q 16.015625 22.609375 22.328125 14.59375 
Q 28.65625 6.59375 39.40625 6.59375 
Q 50.140625 6.59375 56.421875 14.59375 
Q 62.703125 22.609375 62.703125 36.375 
Q 62.703125 50.203125 56.421875 58.203125 
Q 50.140625 66.21875 39.40625 66.21875 
z
M 53.21875 1.3125 
L 66.21875 -12.890625 
L 54.296875 -12.890625 
L 43.5 -1.21875 
Q 41.890625 -1.3125 41.03125 -1.359375 
Q 40.1875 -1.421875 39.40625 -1.421875 
Q 24.03125 -1.421875 14.8125 8.859375 
Q 5.609375 19.140625 5.609375 36.375 
Q 5.609375 53.65625 14.8125 63.9375 
Q 24.03125 74.21875 39.40625 74.21875 
Q 54.734375 74.21875 63.90625 63.9375 
Q 73.09375 53.65625 73.09375 36.375 
Q 73.09375 23.6875 67.984375 14.640625 
Q 62.890625 5.609375 53.21875 1.3125 
z
" id="DejaVuSans-81"/>
      <path d="M 8.5 21.578125 
L 8.5 54.6875 
L 17.484375 54.6875 
L 17.484375 21.921875 
Q 17.484375 14.15625 20.5 10.265625 
Q 23.53125 6.390625 29.59375 6.390625 
Q 36.859375 6.390625 41.078125 11.03125 
Q 45.3125 15.671875 45.3125 23.6875 
L 45.3125 54.6875 
L 54.296875 54.6875 
L 54.296875 0 
L 45.3125 0 
L 45.3125 8.40625 
Q 42.046875 3.421875 37.71875 1 
Q 33.40625 -1.421875 27.6875 -1.421875 
Q 18.265625 -1.421875 13.375 4.4375 
Q 8.5 10.296875 8.5 21.578125 
z
M 31.109375 56 
z
" id="DejaVuSans-117"/>
      <path d="M 30.609375 48.390625 
Q 23.390625 48.390625 19.1875 42.75 
Q 14.984375 37.109375 14.984375 27.296875 
Q 14.984375 17.484375 19.15625 11.84375 
Q 23.34375 6.203125 30.609375 6.203125 
Q 37.796875 6.203125 41.984375 11.859375 
Q 46.1875 17.53125 46.1875 27.296875 
Q 46.1875 37.015625 41.984375 42.703125 
Q 37.796875 48.390625 30.609375 48.390625 
z
M 30.609375 56 
Q 42.328125 56 49.015625 48.375 
Q 55.71875 40.765625 55.71875 27.296875 
Q 55.71875 13.875 49.015625 6.21875 
Q 42.328125 -1.421875 30.609375 -1.421875 
Q 18.84375 -1.421875 12.171875 6.21875 
Q 5.515625 13.875 5.515625 27.296875 
Q 5.515625 40.765625 12.171875 48.375 
Q 18.84375 56 30.609375 56 
z
" id="DejaVuSans-111"/>
      <path d="M 18.3125 70.21875 
L 18.3125 54.6875 
L 36.8125 54.6875 
L 36.8125 47.703125 
L 18.3125 47.703125 
L 18.3125 18.015625 
Q 18.3125 11.328125 20.140625 9.421875 
Q 21.96875 7.515625 27.59375 7.515625 
L 36.8125 7.515625 
L 36.8125 0 
L 27.59375 0 
Q 17.1875 0 13.234375 3.875 
Q 9.28125 7.765625 9.28125 18.015625 
L 9.28125 47.703125 
L 2.6875 47.703125 
L 2.6875 54.6875 
L 9.28125 54.6875 
L 9.28125 70.21875 
z
" id="DejaVuSans-116"/>
      <path d="M 34.28125 27.484375 
Q 23.390625 27.484375 19.1875 25 
Q 14.984375 22.515625 14.984375 16.5 
Q 14.984375 11.71875 18.140625 8.90625 
Q 21.296875 6.109375 26.703125 6.109375 
Q 34.1875 6.109375 38.703125 11.40625 
Q 43.21875 16.703125 43.21875 25.484375 
L 43.21875 27.484375 
z
M 52.203125 31.203125 
L 52.203125 0 
L 43.21875 0 
L 43.21875 8.296875 
Q 40.140625 3.328125 35.546875 0.953125 
Q 30.953125 -1.421875 24.3125 -1.421875 
Q 15.921875 -1.421875 10.953125 3.296875 
Q 6 8.015625 6 15.921875 
Q 6 25.140625 12.171875 29.828125 
Q 18.359375 34.515625 30.609375 34.515625 
L 43.21875 34.515625 
L 43.21875 35.40625 
Q 43.21875 41.609375 39.140625 45 
Q 35.0625 48.390625 27.6875 48.390625 
Q 23 48.390625 18.546875 47.265625 
Q 14.109375 46.140625 10.015625 43.890625 
L 10.015625 52.203125 
Q 14.9375 54.109375 19.578125 55.046875 
Q 24.21875 56 28.609375 56 
Q 40.484375 56 46.34375 49.84375 
Q 52.203125 43.703125 52.203125 31.203125 
z
" id="DejaVuSans-97"/>
      <path id="DejaVuSans-32"/>
      <path d="M 8.59375 75.984375 
L 29.296875 75.984375 
L 29.296875 69 
L 17.578125 69 
L 17.578125 -6.203125 
L 29.296875 -6.203125 
L 29.296875 -13.1875 
L 8.59375 -13.1875 
z
" id="DejaVuSans-91"/>
      <path d="M 52 44.1875 
Q 55.375 50.25 60.0625 53.125 
Q 64.75 56 71.09375 56 
Q 79.640625 56 84.28125 50.015625 
Q 88.921875 44.046875 88.921875 33.015625 
L 88.921875 0 
L 79.890625 0 
L 79.890625 32.71875 
Q 79.890625 40.578125 77.09375 44.375 
Q 74.3125 48.1875 68.609375 48.1875 
Q 61.625 48.1875 57.5625 43.546875 
Q 53.515625 38.921875 53.515625 30.90625 
L 53.515625 0 
L 44.484375 0 
L 44.484375 32.71875 
Q 44.484375 40.625 41.703125 44.40625 
Q 38.921875 48.1875 33.109375 48.1875 
Q 26.21875 48.1875 22.15625 43.53125 
Q 18.109375 38.875 18.109375 30.90625 
L 18.109375 0 
L 9.078125 0 
L 9.078125 54.6875 
L 18.109375 54.6875 
L 18.109375 46.1875 
Q 21.1875 51.21875 25.484375 53.609375 
Q 29.78125 56 35.6875 56 
Q 41.65625 56 45.828125 52.96875 
Q 50 49.953125 52 44.1875 
z
" id="DejaVuSans-109"/>
      <path d="M 30.421875 75.984375 
L 30.421875 -13.1875 
L 9.71875 -13.1875 
L 9.71875 -6.203125 
L 21.390625 -6.203125 
L 21.390625 69 
L 9.71875 69 
L 9.71875 75.984375 
z
" id="DejaVuSans-93"/>
     </defs>
     <g transform="translate(417.250781 540.916563)scale(0.1 -0.1)">
      <use xlink:href="#DejaVuSans-81"/>
      <use x="78.710938" xlink:href="#DejaVuSans-117"/>
      <use x="142.089844" xlink:href="#DejaVuSans-111"/>
      <use x="203.271484" xlink:href="#DejaVuSans-116"/>
      <use x="242.480469" xlink:href="#DejaVuSans-97"/>
      <use x="303.759766" xlink:href="#DejaVuSans-32"/>
      <use x="335.546875" xlink:href="#DejaVuSans-91"/>
      <use x="374.560547" xlink:href="#DejaVuSans-109"/>
      <use x="471.972656" xlink:href="#DejaVuSans-93"/>
     </g>
    </g>
   </g>
   <g id="matplotlib.axis_2">
    <g id="ytick_1">
     <g id="line2d_13">
      <path clip-path="url(#pd678d40ce4)" d="M 108 460.779846 
L 777.6 460.779846 
" style="fill:none;stroke:#b0b0b0;stroke-linecap:square;stroke-width:0.8;"/>
     </g>
     <g id="line2d_14">
      <defs>
       <path d="M 0 0 
L -3.5 0 
" id="m15f5571dce" style="stroke:#000000;stroke-width:0.8;"/>
      </defs>
      <g>
       <use style="stroke:#000000;stroke-width:0.8;" x="108" xlink:href="#m15f5571dce" y="460.779846"/>
      </g>
     </g>
     <g id="text_8">
      <!-- 1.5 -->
      <defs>
       <path d="M 10.6875 12.40625 
L 21 12.40625 
L 21 0 
L 10.6875 0 
z
" id="DejaVuSans-46"/>
      </defs>
      <g transform="translate(85.096875 464.579065)scale(0.1 -0.1)">
       <use xlink:href="#DejaVuSans-49"/>
       <use x="63.623047" xlink:href="#DejaVuSans-46"/>
       <use x="95.410156" xlink:href="#DejaVuSans-53"/>
      </g>
     </g>
    </g>
    <g id="ytick_2">
     <g id="line2d_15">
      <path clip-path="url(#pd678d40ce4)" d="M 108 393.20436 
L 777.6 393.20436 
" style="fill:none;stroke:#b0b0b0;stroke-linecap:square;stroke-width:0.8;"/>
     </g>
     <g id="line2d_16">
      <g>
       <use style="stroke:#000000;stroke-width:0.8;" x="108" xlink:href="#m15f5571dce" y="393.20436"/>
      </g>
     </g>
     <g id="text_9">
      <!-- 1.6 -->
      <defs>
       <path d="M 33.015625 40.375 
Q 26.375 40.375 22.484375 35.828125 
Q 18.609375 31.296875 18.609375 23.390625 
Q 18.609375 15.53125 22.484375 10.953125 
Q 26.375 6.390625 33.015625 6.390625 
Q 39.65625 6.390625 43.53125 10.953125 
Q 47.40625 15.53125 47.40625 23.390625 
Q 47.40625 31.296875 43.53125 35.828125 
Q 39.65625 40.375 33.015625 40.375 
z
M 52.59375 71.296875 
L 52.59375 62.3125 
Q 48.875 64.0625 45.09375 64.984375 
Q 41.3125 65.921875 37.59375 65.921875 
Q 27.828125 65.921875 22.671875 59.328125 
Q 17.53125 52.734375 16.796875 39.40625 
Q 19.671875 43.65625 24.015625 45.921875 
Q 28.375 48.1875 33.59375 48.1875 
Q 44.578125 48.1875 50.953125 41.515625 
Q 57.328125 34.859375 57.328125 23.390625 
Q 57.328125 12.15625 50.6875 5.359375 
Q 44.046875 -1.421875 33.015625 -1.421875 
Q 20.359375 -1.421875 13.671875 8.265625 
Q 6.984375 17.96875 6.984375 36.375 
Q 6.984375 53.65625 15.1875 63.9375 
Q 23.390625 74.21875 37.203125 74.21875 
Q 40.921875 74.21875 44.703125 73.484375 
Q 48.484375 72.75 52.59375 71.296875 
z
" id="DejaVuSans-54"/>
      </defs>
      <g transform="translate(85.096875 397.003579)scale(0.1 -0.1)">
       <use xlink:href="#DejaVuSans-49"/>
       <use x="63.623047" xlink:href="#DejaVuSans-46"/>
       <use x="95.410156" xlink:href="#DejaVuSans-54"/>
      </g>
     </g>
    </g>
    <g id="ytick_3">
     <g id="line2d_17">
      <path clip-path="url(#pd678d40ce4)" d="M 108 325.628874 
L 777.6 325.628874 
" style="fill:none;stroke:#b0b0b0;stroke-linecap:square;stroke-width:0.8;"/>
     </g>
     <g id="line2d_18">
      <g>
       <use style="stroke:#000000;stroke-width:0.8;" x="108" xlink:href="#m15f5571dce" y="325.628874"/>
      </g>
     </g>
     <g id="text_10">
      <!-- 1.7 -->
      <defs>
       <path d="M 8.203125 72.90625 
L 55.078125 72.90625 
L 55.078125 68.703125 
L 28.609375 0 
L 18.3125 0 
L 43.21875 64.59375 
L 8.203125 64.59375 
z
" id="DejaVuSans-55"/>
      </defs>
      <g transform="translate(85.096875 329.428093)scale(0.1 -0.1)">
       <use xlink:href="#DejaVuSans-49"/>
       <use x="63.623047" xlink:href="#DejaVuSans-46"/>
       <use x="95.410156" xlink:href="#DejaVuSans-55"/>
      </g>
     </g>
    </g>
    <g id="ytick_4">
     <g id="line2d_19">
      <path clip-path="url(#pd678d40ce4)" d="M 108 258.053388 
L 777.6 258.053388 
" style="fill:none;stroke:#b0b0b0;stroke-linecap:square;stroke-width:0.8;"/>
     </g>
     <g id="line2d_20">
      <g>
       <use style="stroke:#000000;stroke-width:0.8;" x="108" xlink:href="#m15f5571dce" y="258.053388"/>
      </g>
     </g>
     <g id="text_11">
      <!-- 1.8 -->
      <defs>
       <path d="M 31.78125 34.625 
Q 24.75 34.625 20.71875 30.859375 
Q 16.703125 27.09375 16.703125 20.515625 
Q 16.703125 13.921875 20.71875 10.15625 
Q 24.75 6.390625 31.78125 6.390625 
Q 38.8125 6.390625 42.859375 10.171875 
Q 46.921875 13.96875 46.921875 20.515625 
Q 46.921875 27.09375 42.890625 30.859375 
Q 38.875 34.625 31.78125 34.625 
z
M 21.921875 38.8125 
Q 15.578125 40.375 12.03125 44.71875 
Q 8.5 49.078125 8.5 55.328125 
Q 8.5 64.0625 14.71875 69.140625 
Q 20.953125 74.21875 31.78125 74.21875 
Q 42.671875 74.21875 48.875 69.140625 
Q 55.078125 64.0625 55.078125 55.328125 
Q 55.078125 49.078125 51.53125 44.71875 
Q 48 40.375 41.703125 38.8125 
Q 48.828125 37.15625 52.796875 32.3125 
Q 56.78125 27.484375 56.78125 20.515625 
Q 56.78125 9.90625 50.3125 4.234375 
Q 43.84375 -1.421875 31.78125 -1.421875 
Q 19.734375 -1.421875 13.25 4.234375 
Q 6.78125 9.90625 6.78125 20.515625 
Q 6.78125 27.484375 10.78125 32.3125 
Q 14.796875 37.15625 21.921875 38.8125 
z
M 18.3125 54.390625 
Q 18.3125 48.734375 21.84375 45.5625 
Q 25.390625 42.390625 31.78125 42.390625 
Q 38.140625 42.390625 41.71875 45.5625 
Q 45.3125 48.734375 45.3125 54.390625 
Q 45.3125 60.0625 41.71875 63.234375 
Q 38.140625 66.40625 31.78125 66.40625 
Q 25.390625 66.40625 21.84375 63.234375 
Q 18.3125 60.0625 18.3125 54.390625 
z
" id="DejaVuSans-56"/>
      </defs>
      <g transform="translate(85.096875 261.852607)scale(0.1 -0.1)">
       <use xlink:href="#DejaVuSans-49"/>
       <use x="63.623047" xlink:href="#DejaVuSans-46"/>
       <use x="95.410156" xlink:href="#DejaVuSans-56"/>
      </g>
     </g>
    </g>
    <g id="ytick_5">
     <g id="line2d_21">
      <path clip-path="url(#pd678d40ce4)" d="M 108 190.477902 
L 777.6 190.477902 
" style="fill:none;stroke:#b0b0b0;stroke-linecap:square;stroke-width:0.8;"/>
     </g>
     <g id="line2d_22">
      <g>
       <use style="stroke:#000000;stroke-width:0.8;" x="108" xlink:href="#m15f5571dce" y="190.477902"/>
      </g>
     </g>
     <g id="text_12">
      <!-- 1.9 -->
      <defs>
       <path d="M 10.984375 1.515625 
L 10.984375 10.5 
Q 14.703125 8.734375 18.5 7.8125 
Q 22.3125 6.890625 25.984375 6.890625 
Q 35.75 6.890625 40.890625 13.453125 
Q 46.046875 20.015625 46.78125 33.40625 
Q 43.953125 29.203125 39.59375 26.953125 
Q 35.25 24.703125 29.984375 24.703125 
Q 19.046875 24.703125 12.671875 31.3125 
Q 6.296875 37.9375 6.296875 49.421875 
Q 6.296875 60.640625 12.9375 67.421875 
Q 19.578125 74.21875 30.609375 74.21875 
Q 43.265625 74.21875 49.921875 64.515625 
Q 56.59375 54.828125 56.59375 36.375 
Q 56.59375 19.140625 48.40625 8.859375 
Q 40.234375 -1.421875 26.421875 -1.421875 
Q 22.703125 -1.421875 18.890625 -0.6875 
Q 15.09375 0.046875 10.984375 1.515625 
z
M 30.609375 32.421875 
Q 37.25 32.421875 41.125 36.953125 
Q 45.015625 41.5 45.015625 49.421875 
Q 45.015625 57.28125 41.125 61.84375 
Q 37.25 66.40625 30.609375 66.40625 
Q 23.96875 66.40625 20.09375 61.84375 
Q 16.21875 57.28125 16.21875 49.421875 
Q 16.21875 41.5 20.09375 36.953125 
Q 23.96875 32.421875 30.609375 32.421875 
z
" id="DejaVuSans-57"/>
      </defs>
      <g transform="translate(85.096875 194.277121)scale(0.1 -0.1)">
       <use xlink:href="#DejaVuSans-49"/>
       <use x="63.623047" xlink:href="#DejaVuSans-46"/>
       <use x="95.410156" xlink:href="#DejaVuSans-57"/>
      </g>
     </g>
    </g>
    <g id="ytick_6">
     <g id="line2d_23">
      <path clip-path="url(#pd678d40ce4)" d="M 108 122.902416 
L 777.6 122.902416 
" style="fill:none;stroke:#b0b0b0;stroke-linecap:square;stroke-width:0.8;"/>
     </g>
     <g id="line2d_24">
      <g>
       <use style="stroke:#000000;stroke-width:0.8;" x="108" xlink:href="#m15f5571dce" y="122.902416"/>
      </g>
     </g>
     <g id="text_13">
      <!-- 2.0 -->
      <g transform="translate(85.096875 126.701635)scale(0.1 -0.1)">
       <use xlink:href="#DejaVuSans-50"/>
       <use x="63.623047" xlink:href="#DejaVuSans-46"/>
       <use x="95.410156" xlink:href="#DejaVuSans-48"/>
      </g>
     </g>
    </g>
    <g id="text_14">
     <!-- Coefficiente di spinta [-] -->
     <defs>
      <path d="M 64.40625 67.28125 
L 64.40625 56.890625 
Q 59.421875 61.53125 53.78125 63.8125 
Q 48.140625 66.109375 41.796875 66.109375 
Q 29.296875 66.109375 22.65625 58.46875 
Q 16.015625 50.828125 16.015625 36.375 
Q 16.015625 21.96875 22.65625 14.328125 
Q 29.296875 6.6875 41.796875 6.6875 
Q 48.140625 6.6875 53.78125 8.984375 
Q 59.421875 11.28125 64.40625 15.921875 
L 64.40625 5.609375 
Q 59.234375 2.09375 53.4375 0.328125 
Q 47.65625 -1.421875 41.21875 -1.421875 
Q 24.65625 -1.421875 15.125 8.703125 
Q 5.609375 18.84375 5.609375 36.375 
Q 5.609375 53.953125 15.125 64.078125 
Q 24.65625 74.21875 41.21875 74.21875 
Q 47.75 74.21875 53.53125 72.484375 
Q 59.328125 70.75 64.40625 67.28125 
z
" id="DejaVuSans-67"/>
      <path d="M 56.203125 29.59375 
L 56.203125 25.203125 
L 14.890625 25.203125 
Q 15.484375 15.921875 20.484375 11.0625 
Q 25.484375 6.203125 34.421875 6.203125 
Q 39.59375 6.203125 44.453125 7.46875 
Q 49.3125 8.734375 54.109375 11.28125 
L 54.109375 2.78125 
Q 49.265625 0.734375 44.1875 -0.34375 
Q 39.109375 -1.421875 33.890625 -1.421875 
Q 20.796875 -1.421875 13.15625 6.1875 
Q 5.515625 13.8125 5.515625 26.8125 
Q 5.515625 40.234375 12.765625 48.109375 
Q 20.015625 56 32.328125 56 
Q 43.359375 56 49.78125 48.890625 
Q 56.203125 41.796875 56.203125 29.59375 
z
M 47.21875 32.234375 
Q 47.125 39.59375 43.09375 43.984375 
Q 39.0625 48.390625 32.421875 48.390625 
Q 24.90625 48.390625 20.390625 44.140625 
Q 15.875 39.890625 15.1875 32.171875 
z
" id="DejaVuSans-101"/>
      <path d="M 37.109375 75.984375 
L 37.109375 68.5 
L 28.515625 68.5 
Q 23.6875 68.5 21.796875 66.546875 
Q 19.921875 64.59375 19.921875 59.515625 
L 19.921875 54.6875 
L 34.71875 54.6875 
L 34.71875 47.703125 
L 19.921875 47.703125 
L 19.921875 0 
L 10.890625 0 
L 10.890625 47.703125 
L 2.296875 47.703125 
L 2.296875 54.6875 
L 10.890625 54.6875 
L 10.890625 58.5 
Q 10.890625 67.625 15.140625 71.796875 
Q 19.390625 75.984375 28.609375 75.984375 
z
" id="DejaVuSans-102"/>
      <path d="M 9.421875 54.6875 
L 18.40625 54.6875 
L 18.40625 0 
L 9.421875 0 
z
M 9.421875 75.984375 
L 18.40625 75.984375 
L 18.40625 64.59375 
L 9.421875 64.59375 
z
" id="DejaVuSans-105"/>
      <path d="M 48.78125 52.59375 
L 48.78125 44.1875 
Q 44.96875 46.296875 41.140625 47.34375 
Q 37.3125 48.390625 33.40625 48.390625 
Q 24.65625 48.390625 19.8125 42.84375 
Q 14.984375 37.3125 14.984375 27.296875 
Q 14.984375 17.28125 19.8125 11.734375 
Q 24.65625 6.203125 33.40625 6.203125 
Q 37.3125 6.203125 41.140625 7.25 
Q 44.96875 8.296875 48.78125 10.40625 
L 48.78125 2.09375 
Q 45.015625 0.34375 40.984375 -0.53125 
Q 36.96875 -1.421875 32.421875 -1.421875 
Q 20.0625 -1.421875 12.78125 6.34375 
Q 5.515625 14.109375 5.515625 27.296875 
Q 5.515625 40.671875 12.859375 48.328125 
Q 20.21875 56 33.015625 56 
Q 37.15625 56 41.109375 55.140625 
Q 45.0625 54.296875 48.78125 52.59375 
z
" id="DejaVuSans-99"/>
      <path d="M 54.890625 33.015625 
L 54.890625 0 
L 45.90625 0 
L 45.90625 32.71875 
Q 45.90625 40.484375 42.875 44.328125 
Q 39.84375 48.1875 33.796875 48.1875 
Q 26.515625 48.1875 22.3125 43.546875 
Q 18.109375 38.921875 18.109375 30.90625 
L 18.109375 0 
L 9.078125 0 
L 9.078125 54.6875 
L 18.109375 54.6875 
L 18.109375 46.1875 
Q 21.34375 51.125 25.703125 53.5625 
Q 30.078125 56 35.796875 56 
Q 45.21875 56 50.046875 50.171875 
Q 54.890625 44.34375 54.890625 33.015625 
z
" id="DejaVuSans-110"/>
      <path d="M 45.40625 46.390625 
L 45.40625 75.984375 
L 54.390625 75.984375 
L 54.390625 0 
L 45.40625 0 
L 45.40625 8.203125 
Q 42.578125 3.328125 38.25 0.953125 
Q 33.9375 -1.421875 27.875 -1.421875 
Q 17.96875 -1.421875 11.734375 6.484375 
Q 5.515625 14.40625 5.515625 27.296875 
Q 5.515625 40.1875 11.734375 48.09375 
Q 17.96875 56 27.875 56 
Q 33.9375 56 38.25 53.625 
Q 42.578125 51.265625 45.40625 46.390625 
z
M 14.796875 27.296875 
Q 14.796875 17.390625 18.875 11.75 
Q 22.953125 6.109375 30.078125 6.109375 
Q 37.203125 6.109375 41.296875 11.75 
Q 45.40625 17.390625 45.40625 27.296875 
Q 45.40625 37.203125 41.296875 42.84375 
Q 37.203125 48.484375 30.078125 48.484375 
Q 22.953125 48.484375 18.875 42.84375 
Q 14.796875 37.203125 14.796875 27.296875 
z
" id="DejaVuSans-100"/>
      <path d="M 44.28125 53.078125 
L 44.28125 44.578125 
Q 40.484375 46.53125 36.375 47.5 
Q 32.28125 48.484375 27.875 48.484375 
Q 21.1875 48.484375 17.84375 46.4375 
Q 14.5 44.390625 14.5 40.28125 
Q 14.5 37.15625 16.890625 35.375 
Q 19.28125 33.59375 26.515625 31.984375 
L 29.59375 31.296875 
Q 39.15625 29.25 43.1875 25.515625 
Q 47.21875 21.78125 47.21875 15.09375 
Q 47.21875 7.46875 41.1875 3.015625 
Q 35.15625 -1.421875 24.609375 -1.421875 
Q 20.21875 -1.421875 15.453125 -0.5625 
Q 10.6875 0.296875 5.421875 2 
L 5.421875 11.28125 
Q 10.40625 8.6875 15.234375 7.390625 
Q 20.0625 6.109375 24.8125 6.109375 
Q 31.15625 6.109375 34.5625 8.28125 
Q 37.984375 10.453125 37.984375 14.40625 
Q 37.984375 18.0625 35.515625 20.015625 
Q 33.0625 21.96875 24.703125 23.78125 
L 21.578125 24.515625 
Q 13.234375 26.265625 9.515625 29.90625 
Q 5.8125 33.546875 5.8125 39.890625 
Q 5.8125 47.609375 11.28125 51.796875 
Q 16.75 56 26.8125 56 
Q 31.78125 56 36.171875 55.265625 
Q 40.578125 54.546875 44.28125 53.078125 
z
" id="DejaVuSans-115"/>
      <path d="M 18.109375 8.203125 
L 18.109375 -20.796875 
L 9.078125 -20.796875 
L 9.078125 54.6875 
L 18.109375 54.6875 
L 18.109375 46.390625 
Q 20.953125 51.265625 25.265625 53.625 
Q 29.59375 56 35.59375 56 
Q 45.5625 56 51.78125 48.09375 
Q 58.015625 40.1875 58.015625 27.296875 
Q 58.015625 14.40625 51.78125 6.484375 
Q 45.5625 -1.421875 35.59375 -1.421875 
Q 29.59375 -1.421875 25.265625 0.953125 
Q 20.953125 3.328125 18.109375 8.203125 
z
M 48.6875 27.296875 
Q 48.6875 37.203125 44.609375 42.84375 
Q 40.53125 48.484375 33.40625 48.484375 
Q 26.265625 48.484375 22.1875 42.84375 
Q 18.109375 37.203125 18.109375 27.296875 
Q 18.109375 17.390625 22.1875 11.75 
Q 26.265625 6.109375 33.40625 6.109375 
Q 40.53125 6.109375 44.609375 11.75 
Q 48.6875 17.390625 48.6875 27.296875 
z
" id="DejaVuSans-112"/>
      <path d="M 4.890625 31.390625 
L 31.203125 31.390625 
L 31.203125 23.390625 
L 4.890625 23.390625 
z
" id="DejaVuSans-45"/>
     </defs>
     <g transform="translate(79.017187 351.233906)rotate(-90)scale(0.1 -0.1)">
      <use xlink:href="#DejaVuSans-67"/>
      <use x="69.824219" xlink:href="#DejaVuSans-111"/>
      <use x="131.005859" xlink:href="#DejaVuSans-101"/>
      <use x="192.529297" xlink:href="#DejaVuSans-102"/>
      <use x="227.734375" xlink:href="#DejaVuSans-102"/>
      <use x="262.939453" xlink:href="#DejaVuSans-105"/>
      <use x="290.722656" xlink:href="#DejaVuSans-99"/>
      <use x="345.703125" xlink:href="#DejaVuSans-105"/>
      <use x="373.486328" xlink:href="#DejaVuSans-101"/>
      <use x="435.009766" xlink:href="#DejaVuSans-110"/>
      <use x="498.388672" xlink:href="#DejaVuSans-116"/>
      <use x="537.597656" xlink:href="#DejaVuSans-101"/>
      <use x="599.121094" xlink:href="#DejaVuSans-32"/>
      <use x="630.908203" xlink:href="#DejaVuSans-100"/>
      <use x="694.384766" xlink:href="#DejaVuSans-105"/>
      <use x="722.167969" xlink:href="#DejaVuSans-32"/>
      <use x="753.955078" xlink:href="#DejaVuSans-115"/>
      <use x="806.054688" xlink:href="#DejaVuSans-112"/>
      <use x="869.53125" xlink:href="#DejaVuSans-105"/>
      <use x="897.314453" xlink:href="#DejaVuSans-110"/>
      <use x="960.693359" xlink:href="#DejaVuSans-116"/>
      <use x="999.902344" xlink:href="#DejaVuSans-97"/>
      <use x="1061.181641" xlink:href="#DejaVuSans-32"/>
      <use x="1092.96875" xlink:href="#DejaVuSans-91"/>
      <use x="1131.982422" xlink:href="#DejaVuSans-45"/>
      <use x="1168.066406" xlink:href="#DejaVuSans-93"/>
     </g>
    </g>
   </g>
   <g id="line2d_25">
    <path clip-path="url(#pd678d40ce4)" d="M 138.436364 492.48 
L 142.315002 433.797973 
L 146.19364 386.571072 
L 150.072278 348.285032 
L 153.950916 317.034871 
L 157.829554 291.364129 
L 161.708192 270.149785 
L 165.58683 251.516186 
L 169.465468 228.069864 
L 173.344106 209.831376 
L 177.222744 195.643972 
L 181.101382 184.607836 
L 184.98002 176.023017 
L 188.858658 169.345034 
L 192.737296 164.150348 
L 196.615934 160.109491 
L 200.494572 156.966178 
L 204.37321 154.52105 
L 208.251848 152.619026 
L 212.130486 151.139476 
L 216.009124 149.988558 
L 219.887762 149.09328 
L 223.7664 148.396858 
L 227.645038 147.855124 
L 231.523676 147.433718 
L 235.402314 147.105914 
L 239.280952 146.850921 
L 243.15959 146.652566 
L 247.038228 146.498269 
L 250.916866 146.378245 
L 254.795504 146.284879 
L 258.674142 146.212252 
L 262.55278 146.155757 
L 266.431418 146.11181 
L 270.310056 146.077625 
L 274.188694 146.051032 
L 278.067332 146.030347 
L 281.94597 146.014256 
L 285.824608 146.001739 
L 289.703246 145.992002 
L 293.581884 145.984428 
L 297.460522 145.978536 
L 301.33916 145.973953 
L 305.217798 145.970388 
L 309.096436 145.967615 
L 312.975074 145.965458 
L 316.853712 145.96378 
L 320.73235 145.962474 
L 324.610988 145.961459 
L 328.489626 145.960669 
L 332.368264 145.960055 
L 336.246902 145.959577 
L 340.12554 145.959205 
L 344.004179 145.958916 
L 347.882817 145.958691 
L 351.761455 145.958516 
L 355.640093 145.958379 
L 359.518731 145.958274 
L 363.397369 145.958191 
L 367.276007 145.958127 
L 371.154645 145.958077 
L 375.033283 145.958039 
L 378.911921 145.958008 
L 382.790559 145.957985 
L 386.669197 145.957967 
L 390.547835 145.957952 
L 394.426473 145.957941 
L 398.305111 145.957933 
L 402.183749 145.957926 
L 406.062387 145.957921 
L 409.941025 145.957917 
L 413.819663 145.957914 
L 417.698301 145.957911 
L 421.576939 145.957909 
L 425.455577 145.957908 
L 429.334215 145.957907 
L 433.212853 145.957906 
L 437.091491 145.957905 
L 440.970129 145.957905 
L 444.848767 145.957904 
L 448.727405 145.957904 
L 452.606043 145.957904 
L 456.484681 145.957903 
L 460.363319 145.957903 
L 464.241957 145.957903 
L 468.120595 145.957903 
L 471.999233 145.957903 
L 475.877871 145.957903 
L 479.756509 145.957903 
L 483.635147 145.957903 
L 487.513785 145.957903 
L 491.392423 145.957903 
L 495.271061 145.957903 
L 499.149699 145.957903 
L 503.028337 145.957903 
L 506.906975 145.957903 
L 510.785613 145.957903 
L 514.664251 145.957903 
L 518.542889 145.957903 
L 522.421527 145.957903 
" style="fill:none;stroke:#cc3300;stroke-linecap:square;stroke-width:1.5;"/>
   </g>
   <g id="line2d_26">
    <path clip-path="url(#pd678d40ce4)" d="M 522.421527 136.44431 
L 524.69165 136.44431 
L 526.961772 136.44431 
L 529.231894 136.44431 
L 531.502017 136.44431 
L 533.772139 136.44431 
L 536.042261 136.44431 
L 538.312383 136.44431 
L 540.582506 136.44431 
L 542.852628 136.44431 
L 545.12275 136.44431 
L 547.392873 136.44431 
L 549.662995 136.44431 
L 551.933117 136.44431 
L 554.20324 136.44431 
L 556.473362 136.44431 
L 558.743484 136.44431 
L 561.013607 136.44431 
L 563.283729 136.44431 
L 565.553851 136.44431 
L 567.823974 136.44431 
L 570.094096 136.44431 
L 572.364218 136.44431 
L 574.63434 136.44431 
L 576.904463 136.44431 
L 579.174585 136.44431 
L 581.444707 136.44431 
L 583.71483 136.44431 
L 585.984952 136.44431 
L 588.255074 136.44431 
L 590.525197 136.44431 
L 592.795319 136.44431 
L 595.065441 136.44431 
L 597.335564 136.44431 
L 599.605686 136.44431 
L 601.875808 136.44431 
L 604.145931 136.44431 
L 606.416053 136.44431 
L 608.686175 136.44431 
L 610.956298 136.44431 
L 613.22642 136.44431 
L 615.496542 136.44431 
L 617.766664 136.44431 
L 620.036787 136.44431 
L 622.306909 136.44431 
L 624.577031 136.44431 
L 626.847154 136.44431 
L 629.117276 136.44431 
L 631.387398 136.44431 
L 633.657521 136.44431 
L 635.927643 136.44431 
L 638.197765 136.44431 
L 640.467888 136.44431 
L 642.73801 136.44431 
L 645.008132 136.44431 
L 647.278255 136.44431 
L 649.548377 136.44431 
L 651.818499 136.44431 
L 654.088621 136.44431 
L 656.358744 136.44431 
L 658.628866 136.44431 
L 660.898988 136.44431 
L 663.169111 136.44431 
L 665.439233 136.44431 
L 667.709355 136.44431 
L 669.979478 136.44431 
L 672.2496 136.44431 
L 674.519722 136.44431 
L 676.789845 136.44431 
L 679.059967 136.44431 
L 681.330089 136.44431 
L 683.600212 136.44431 
L 685.870334 136.44431 
L 688.140456 136.44431 
L 690.410579 136.44431 
L 692.680701 136.44431 
L 694.950823 136.44431 
L 697.220945 136.44431 
L 699.491068 136.44431 
L 701.76119 136.44431 
L 704.031312 136.44431 
L 706.301435 136.44431 
L 708.571557 136.44431 
L 710.841679 136.44431 
L 713.111802 136.44431 
L 715.381924 136.44431 
L 717.652046 136.44431 
L 719.922169 136.44431 
L 722.192291 136.44431 
L 724.462413 136.44431 
L 726.732536 136.44431 
L 729.002658 136.44431 
L 731.27278 136.44431 
L 733.542902 136.44431 
L 735.813025 136.44431 
L 738.083147 136.44431 
L 740.353269 136.44431 
L 742.623392 136.44431 
L 744.893514 136.44431 
L 747.163636 136.44431 
" style="fill:none;stroke:#cc3300;stroke-dasharray:9.6,2.4,1.5,2.4;stroke-dashoffset:0;stroke-width:1.5;"/>
   </g>
   <g id="line2d_27">
    <path clip-path="url(#pd678d40ce4)" d="M 138.436364 346.395839 
L 140.699107 336.107528 
L 142.961851 327.059689 
L 145.224595 319.082151 
L 147.487339 312.030808 
L 149.750083 305.783227 
L 152.012826 300.235058 
L 154.27557 295.297092 
L 156.538314 290.892844 
L 158.801058 286.956548 
L 161.063802 283.431506 
L 163.326545 280.268706 
L 165.589289 277.135553 
L 167.852033 273.000942 
L 170.114777 269.429897 
L 172.377521 266.3456 
L 174.640264 263.681705 
L 176.903008 261.380911 
L 179.165752 259.393725 
L 181.428496 257.6774 
L 183.69124 256.195018 
L 185.953983 254.914691 
L 188.216727 253.808878 
L 190.479471 252.853791 
L 192.742215 252.028887 
L 195.004959 251.316421 
L 197.267702 250.701068 
L 199.530446 250.169589 
L 201.79319 249.710553 
L 204.055934 249.314086 
L 206.318678 248.971659 
L 208.581421 248.675906 
L 210.844165 248.420465 
L 213.106909 248.199842 
L 215.369653 248.009291 
L 217.632397 247.844713 
L 219.89514 247.702568 
L 222.157884 247.579797 
L 224.420628 247.473761 
L 226.683372 247.382178 
L 228.946116 247.303078 
L 231.20886 247.23476 
L 233.471603 247.175754 
L 235.734347 247.12479 
L 237.997091 247.080773 
L 240.259835 247.042756 
L 242.522579 247.009921 
L 244.785322 246.981561 
L 247.048066 246.957067 
L 249.31081 246.935911 
L 251.573554 246.917639 
L 253.836298 246.901858 
L 256.099041 246.888228 
L 258.361785 246.876455 
L 260.624529 246.866288 
L 262.887273 246.857506 
L 265.150017 246.849921 
L 267.41276 246.84337 
L 269.675504 246.837712 
L 271.938248 246.832825 
L 274.200992 246.828604 
L 276.463736 246.824958 
L 278.726479 246.82181 
L 280.989223 246.819091 
L 283.251967 246.816742 
L 285.514711 246.814713 
L 287.777455 246.812961 
L 290.040198 246.811448 
L 292.302942 246.810141 
L 294.565686 246.809012 
L 296.82843 246.808037 
L 299.091174 246.807195 
L 301.353917 246.806468 
L 303.616661 246.805839 
L 305.879405 246.805297 
L 308.142149 246.804828 
L 310.404893 246.804423 
L 312.667636 246.804074 
L 314.93038 246.803772 
L 317.193124 246.803511 
L 319.455868 246.803286 
L 321.718612 246.803091 
L 323.981355 246.802923 
L 326.244099 246.802778 
L 328.506843 246.802653 
L 330.769587 246.802545 
L 333.032331 246.802451 
L 335.295074 246.802371 
L 337.557818 246.802301 
L 339.820562 246.802241 
L 342.083306 246.802189 
L 344.34605 246.802144 
L 346.608793 246.802105 
L 348.871537 246.802071 
L 351.134281 246.802042 
L 353.397025 246.802017 
L 355.659769 246.801996 
L 357.922512 246.801977 
L 360.185256 246.801961 
L 362.448 246.801947 
" style="fill:none;stroke:#009900;stroke-linecap:square;stroke-width:1.5;"/>
   </g>
   <g id="line2d_28">
    <path clip-path="url(#pd678d40ce4)" d="M 138.436364 346.395839 
L 139.961256 339.317016 
L 141.486149 332.829033 
L 143.011041 326.875449 
L 144.535934 321.405876 
L 146.060826 316.375265 
L 147.585719 311.743274 
L 149.110612 307.47373 
L 150.635504 303.534145 
L 152.160397 299.895306 
L 153.685289 296.530907 
L 155.210182 293.417228 
L 156.735074 290.532855 
L 158.259967 287.858429 
L 159.78486 285.376432 
L 161.309752 283.070988 
L 162.834645 280.927695 
L 164.359537 278.933473 
L 165.88443 276.561284 
L 167.409322 273.762937 
L 168.934215 271.227724 
L 170.459107 268.930904 
L 171.984 266.850059 
L 173.508893 264.96488 
L 175.033785 263.256969 
L 176.558678 261.709657 
L 178.08357 260.307843 
L 179.608463 259.037844 
L 181.133355 257.887266 
L 182.658248 256.84488 
L 184.18314 255.900511 
L 185.708033 255.044944 
L 187.232926 254.269828 
L 188.757818 253.567597 
L 190.282711 252.931399 
L 191.807603 252.355025 
L 193.332496 251.832848 
L 194.857388 251.359772 
L 196.382281 250.931181 
L 197.907174 250.542891 
L 199.432066 250.191113 
L 200.956959 249.872414 
L 202.481851 249.583683 
L 204.006744 249.322101 
L 205.531636 249.085117 
L 207.056529 248.870417 
L 208.581421 248.675906 
L 210.106314 248.499685 
L 211.631207 248.340034 
L 213.156099 248.195396 
L 214.680992 248.064359 
L 216.205884 247.945643 
L 217.730777 247.83809 
L 219.255669 247.740651 
L 220.780562 247.652374 
L 222.305455 247.572398 
L 223.830347 247.499943 
L 225.35524 247.4343 
L 226.880132 247.37483 
L 228.405025 247.320953 
L 229.929917 247.272141 
L 231.45481 247.227919 
L 232.979702 247.187856 
L 234.504595 247.15156 
L 236.029488 247.118676 
L 237.55438 247.088885 
L 239.079273 247.061896 
L 240.604165 247.037444 
L 242.129058 247.015291 
L 243.65395 246.995222 
L 245.178843 246.977039 
L 246.703736 246.960567 
L 248.228628 246.945643 
L 249.753521 246.932123 
L 251.278413 246.919874 
L 252.803306 246.908776 
L 254.328198 246.898723 
L 255.853091 246.889614 
L 257.377983 246.881363 
L 258.902876 246.873887 
L 260.427769 246.867114 
L 261.952661 246.860978 
L 263.477554 246.855419 
L 265.002446 246.850382 
L 266.527339 246.845819 
L 268.052231 246.841686 
L 269.577124 246.837941 
L 271.102017 246.834548 
L 272.626909 246.831474 
L 274.151802 246.828689 
L 275.676694 246.826166 
L 277.201587 246.823881 
L 278.726479 246.82181 
L 280.251372 246.819934 
L 281.776264 246.818234 
L 283.301157 246.816694 
L 284.82605 246.815299 
L 286.350942 246.814036 
L 287.875835 246.812891 
L 289.400727 246.811853 
" style="fill:none;stroke:#009900;stroke-dasharray:5.55,2.4;stroke-dashoffset:0;stroke-width:1.5;"/>
   </g>
   <g id="line2d_29">
    <path clip-path="url(#pd678d40ce4)" d="M 362.448 89.280909 
L 366.334017 89.280707 
L 370.220033 89.28055 
L 374.10605 89.280427 
L 377.992066 89.280332 
L 381.878083 89.280258 
L 385.764099 89.280201 
L 389.650116 89.280156 
L 393.536132 89.280121 
L 397.422149 89.280094 
L 401.308165 89.280073 
L 405.194182 89.280057 
L 409.080198 89.280044 
L 412.966215 89.280035 
L 416.852231 89.280027 
L 420.738248 89.280021 
L 424.624264 89.280016 
L 428.510281 89.280013 
L 432.396298 89.28001 
L 436.282314 89.280008 
L 440.168331 89.280006 
L 444.054347 89.280005 
L 447.940364 89.280004 
L 451.82638 89.280003 
L 455.712397 89.280002 
L 459.598413 89.280002 
L 463.48443 89.280001 
L 467.370446 89.280001 
L 471.256463 89.280001 
L 475.142479 89.280001 
L 479.028496 89.28 
L 482.914512 89.28 
L 486.800529 89.28 
L 490.686545 89.28 
L 494.572562 89.28 
L 498.458579 89.28 
L 502.344595 89.28 
L 506.230612 89.28 
L 510.116628 89.28 
L 514.002645 89.28 
L 517.888661 89.28 
L 521.774678 89.28 
L 525.660694 89.28 
L 529.546711 89.28 
L 533.432727 89.28 
L 537.318744 89.28 
L 541.20476 89.28 
L 545.090777 89.28 
L 548.976793 89.28 
L 552.86281 89.28 
L 556.748826 89.28 
L 560.634843 89.28 
L 564.52086 89.28 
L 568.406876 89.28 
L 572.292893 89.28 
L 576.178909 89.28 
L 580.064926 89.28 
L 583.950942 89.28 
L 587.836959 89.28 
L 591.722975 89.28 
L 595.608992 89.28 
L 599.495008 89.28 
L 603.381025 89.28 
L 607.267041 89.28 
L 611.153058 89.28 
L 615.039074 89.28 
L 618.925091 89.28 
L 622.811107 89.28 
L 626.697124 89.28 
L 630.58314 89.28 
L 634.469157 89.28 
L 638.355174 89.28 
L 642.24119 89.28 
L 646.127207 89.28 
L 650.013223 89.28 
L 653.89924 89.28 
L 657.785256 89.28 
L 661.671273 89.28 
L 665.557289 89.28 
L 669.443306 89.28 
L 673.329322 89.28 
L 677.215339 89.28 
L 681.101355 89.28 
L 684.987372 89.28 
L 688.873388 89.28 
L 692.759405 89.28 
L 696.645421 89.28 
L 700.531438 89.28 
L 704.417455 89.28 
L 708.303471 89.28 
L 712.189488 89.28 
L 716.075504 89.28 
L 719.961521 89.28 
L 723.847537 89.28 
L 727.733554 89.28 
L 731.61957 89.28 
L 735.505587 89.28 
L 739.391603 89.28 
L 743.27762 89.28 
L 747.163636 89.28 
" style="fill:none;stroke:#009900;stroke-dasharray:9.6,2.4,1.5,2.4;stroke-dashoffset:0;stroke-width:1.5;"/>
   </g>
   <g id="line2d_30">
    <path clip-path="url(#pd678d40ce4)" d="M 138.436364 406.18599 
L 140.035041 394.548177 
L 141.633719 383.925972 
L 143.232397 374.217996 
L 144.831074 365.334233 
L 146.429752 357.194611 
L 148.02843 349.727794 
L 149.627107 342.870125 
L 151.225785 336.564712 
L 152.824463 330.760629 
L 154.42314 325.412228 
L 156.021818 320.478531 
L 157.620496 315.922702 
L 159.219174 311.711582 
L 160.817851 307.815282 
L 162.416529 304.206829 
L 164.015207 300.861846 
L 165.613884 297.272535 
L 167.212562 292.591878 
L 168.81124 288.371567 
L 170.409917 284.566329 
L 172.008595 281.135339 
L 173.607273 278.04179 
L 175.20595 275.252495 
L 176.804628 272.73753 
L 178.403306 270.469914 
L 180.001983 268.42532 
L 181.600661 266.581814 
L 183.199339 264.919619 
L 184.798017 263.420902 
L 186.396694 262.069586 
L 187.995372 260.851172 
L 189.59405 259.752591 
L 191.192727 258.762057 
L 192.791405 257.868942 
L 194.390083 257.063666 
L 195.98876 256.33759 
L 197.587438 255.682924 
L 199.186116 255.092645 
L 200.784793 254.560421 
L 202.383471 254.080541 
L 203.982149 253.647858 
L 205.580826 253.25773 
L 207.179504 252.905971 
L 208.778182 252.588808 
L 210.37686 252.302839 
L 211.975537 252.044994 
L 213.574215 251.812509 
L 215.172893 251.602889 
L 216.77157 251.413886 
L 218.370248 251.243471 
L 219.968926 251.089817 
L 221.567603 250.951274 
L 223.166281 250.826358 
L 224.764959 250.713727 
L 226.363636 250.612173 
L 227.962314 250.520608 
L 229.560992 250.438048 
L 231.159669 250.363607 
L 232.758347 250.296488 
L 234.357025 250.235971 
L 235.955702 250.181405 
L 237.55438 250.132206 
L 239.153058 250.087845 
L 240.751736 250.047848 
L 242.350413 250.011784 
L 243.949091 249.979267 
L 245.547769 249.949949 
L 247.146446 249.923513 
L 248.745124 249.899678 
L 250.343802 249.878187 
L 251.942479 249.85881 
L 253.541157 249.841338 
L 255.139835 249.825585 
L 256.738512 249.811381 
L 258.33719 249.798574 
L 259.935868 249.787026 
L 261.534545 249.776615 
L 263.133223 249.767227 
L 264.731901 249.758763 
L 266.330579 249.751131 
L 267.929256 249.74425 
L 269.527934 249.738045 
L 271.126612 249.732451 
L 272.725289 249.727407 
L 274.323967 249.722859 
L 275.922645 249.718758 
L 277.521322 249.715061 
L 279.12 249.711727 
L 280.718678 249.708721 
L 282.317355 249.706011 
L 283.916033 249.703567 
L 285.514711 249.701364 
L 287.113388 249.699377 
L 288.712066 249.697586 
L 290.310744 249.695971 
L 291.909421 249.694514 
L 293.508099 249.693201 
L 295.106777 249.692017 
L 296.705455 249.69095 
" style="fill:none;stroke:#003399;stroke-linecap:square;stroke-width:1.5;"/>
   </g>
   <g id="line2d_31">
    <path clip-path="url(#pd678d40ce4)" d="M 296.705455 212.081746 
L 299.410909 212.078149 
L 302.116364 212.07513 
L 304.821818 212.072596 
L 307.527273 212.070469 
L 310.232727 212.068684 
L 312.938182 212.067186 
L 315.643636 212.065929 
L 318.349091 212.064873 
L 321.054545 212.063988 
L 323.76 212.063245 
L 326.465455 212.062621 
L 329.170909 212.062097 
L 331.876364 212.061658 
L 334.581818 212.061289 
L 337.287273 212.060979 
L 339.992727 212.060719 
L 342.698182 212.060501 
L 345.403636 212.060318 
L 348.109091 212.060165 
L 350.814545 212.060036 
L 353.52 212.059928 
L 356.225455 212.059837 
L 358.930909 212.059761 
L 361.636364 212.059697 
L 364.341818 212.059643 
L 367.047273 212.059598 
L 369.752727 212.05956 
L 372.458182 212.059529 
L 375.163636 212.059502 
L 377.869091 212.05948 
L 380.574545 212.059461 
L 383.28 212.059445 
L 385.985455 212.059432 
L 388.690909 212.059421 
L 391.396364 212.059411 
L 394.101818 212.059404 
L 396.807273 212.059397 
L 399.512727 212.059392 
L 402.218182 212.059387 
L 404.923636 212.059383 
L 407.629091 212.05938 
L 410.334545 212.059377 
L 413.04 212.059375 
L 415.745455 212.059373 
L 418.450909 212.059371 
L 421.156364 212.05937 
L 423.861818 212.059369 
L 426.567273 212.059368 
L 429.272727 212.059367 
L 431.978182 212.059366 
L 434.683636 212.059366 
L 437.389091 212.059365 
L 440.094545 212.059365 
L 442.8 212.059365 
L 445.505455 212.059364 
L 448.210909 212.059364 
L 450.916364 212.059364 
L 453.621818 212.059364 
L 456.327273 212.059364 
L 459.032727 212.059363 
L 461.738182 212.059363 
L 464.443636 212.059363 
L 467.149091 212.059363 
L 469.854545 212.059363 
L 472.56 212.059363 
L 475.265455 212.059363 
L 477.970909 212.059363 
L 480.676364 212.059363 
L 483.381818 212.059363 
L 486.087273 212.059363 
L 488.792727 212.059363 
L 491.498182 212.059363 
L 494.203636 212.059363 
L 496.909091 212.059363 
L 499.614545 212.059363 
L 502.32 212.059363 
L 505.025455 212.059363 
L 507.730909 212.059363 
L 510.436364 212.059363 
L 513.141818 212.059363 
L 515.847273 212.059363 
L 518.552727 212.059363 
L 521.258182 212.059363 
L 523.963636 212.059363 
L 526.669091 212.059363 
L 529.374545 212.059363 
L 532.08 212.059363 
L 534.785455 212.059363 
L 537.490909 212.059363 
L 540.196364 212.059363 
L 542.901818 212.059363 
L 545.607273 212.059363 
L 548.312727 212.059363 
L 551.018182 212.059363 
L 553.723636 212.059363 
L 556.429091 212.059363 
L 559.134545 212.059363 
L 561.84 212.059363 
L 564.545455 212.059363 
" style="fill:none;stroke:#003399;stroke-dasharray:5.55,2.4;stroke-dashoffset:0;stroke-width:1.5;"/>
   </g>
   <g id="line2d_32">
    <path clip-path="url(#pd678d40ce4)" d="M 564.545455 212.059363 
L 564.791405 212.059363 
L 565.037355 212.059363 
L 565.283306 212.059363 
L 565.529256 212.059363 
L 565.775207 212.059363 
L 566.021157 212.059363 
L 566.267107 212.059363 
L 566.513058 212.059363 
L 566.759008 212.059363 
L 567.004959 212.059363 
L 567.250909 212.059363 
L 567.49686 212.059363 
L 567.74281 212.059363 
L 567.98876 212.059363 
L 568.234711 212.059363 
L 568.480661 212.059363 
L 568.726612 212.059363 
L 568.972562 212.059363 
L 569.218512 212.059363 
L 569.464463 212.059363 
L 569.710413 212.059363 
L 569.956364 212.059363 
L 570.202314 212.059363 
L 570.448264 212.059363 
L 570.694215 212.059363 
L 570.940165 212.059363 
L 571.186116 212.059363 
L 571.432066 212.059363 
L 571.678017 212.059363 
L 571.923967 212.059363 
L 572.169917 212.059363 
L 572.415868 212.059363 
L 572.661818 212.059363 
L 572.907769 212.059363 
L 573.153719 212.059363 
L 573.399669 212.059363 
L 573.64562 212.059363 
L 573.89157 212.059363 
L 574.137521 212.059363 
L 574.383471 212.059363 
L 574.629421 212.059363 
L 574.875372 212.059363 
L 575.121322 212.059363 
L 575.367273 212.059363 
L 575.613223 212.059363 
L 575.859174 212.059363 
L 576.105124 212.059363 
L 576.351074 212.059363 
L 576.597025 212.059363 
L 576.842975 212.059363 
L 577.088926 212.059363 
L 577.334876 212.059363 
L 577.580826 212.059363 
L 577.826777 212.059363 
L 578.072727 212.059363 
L 578.318678 212.059363 
L 578.564628 212.059363 
L 578.810579 212.059363 
L 579.056529 212.059363 
L 579.302479 212.059363 
L 579.54843 212.059363 
L 579.79438 212.059363 
L 580.040331 212.059363 
L 580.286281 212.059363 
L 580.532231 212.059363 
L 580.778182 212.059363 
L 581.024132 212.059363 
L 581.270083 212.059363 
L 581.516033 212.059363 
L 581.761983 212.059363 
L 582.007934 212.059363 
L 582.253884 212.059363 
L 582.499835 212.059363 
L 582.745785 212.059363 
L 582.991736 212.059363 
L 583.237686 212.059363 
L 583.483636 212.059363 
L 583.729587 212.059363 
L 583.975537 212.059363 
L 584.221488 212.059363 
L 584.467438 212.059363 
L 584.713388 212.059363 
L 584.959339 212.059363 
L 585.205289 212.059363 
L 585.45124 212.059363 
L 585.69719 212.059363 
L 585.94314 212.059363 
L 586.189091 212.059363 
L 586.435041 212.059363 
L 586.680992 212.059363 
L 586.926942 212.059363 
L 587.172893 212.059363 
L 587.418843 212.059363 
L 587.664793 212.059363 
L 587.910744 212.059363 
L 588.156694 212.059363 
L 588.402645 212.059363 
L 588.648595 212.059363 
L 588.894545 212.059363 
" style="fill:none;stroke:#003399;stroke-dasharray:9.6,2.4,1.5,2.4;stroke-dashoffset:0;stroke-width:1.5;"/>
   </g>
   <g id="line2d_33">
    <path clip-path="url(#pd678d40ce4)" d="M 588.894545 212.059363 
L 590.493223 212.059363 
L 592.091901 212.059363 
L 593.690579 212.059363 
L 595.289256 212.059363 
L 596.887934 212.059363 
L 598.486612 212.059363 
L 600.085289 212.059363 
L 601.683967 212.059363 
L 603.282645 212.059363 
L 604.881322 212.059363 
L 606.48 212.059363 
L 608.078678 212.059363 
L 609.677355 212.059363 
L 611.276033 212.059363 
L 612.874711 212.059363 
L 614.473388 212.059363 
L 616.072066 212.059363 
L 617.670744 212.059363 
L 619.269421 212.059363 
L 620.868099 212.059363 
L 622.466777 212.059363 
L 624.065455 212.059363 
L 625.664132 212.059363 
L 627.26281 212.059363 
L 628.861488 212.059363 
L 630.460165 212.059363 
L 632.058843 212.059363 
L 633.657521 212.059363 
L 635.256198 212.059363 
L 636.854876 212.059363 
L 638.453554 212.059363 
L 640.052231 212.059363 
L 641.650909 212.059363 
L 643.249587 212.059363 
L 644.848264 212.059363 
L 646.446942 212.059363 
L 648.04562 212.059363 
L 649.644298 212.059363 
L 651.242975 212.059363 
L 652.841653 212.059363 
L 654.440331 212.059363 
L 656.039008 212.059363 
L 657.637686 212.059363 
L 659.236364 212.059363 
L 660.835041 212.059363 
L 662.433719 212.059363 
L 664.032397 212.059363 
L 665.631074 212.059363 
L 667.229752 212.059363 
L 668.82843 212.059363 
L 670.427107 212.059363 
L 672.025785 212.059363 
L 673.624463 212.059363 
L 675.22314 212.059363 
L 676.821818 212.059363 
L 678.420496 212.059363 
L 680.019174 212.059363 
L 681.617851 212.059363 
L 683.216529 212.059363 
L 684.815207 212.059363 
L 686.413884 212.059363 
L 688.012562 212.059363 
L 689.61124 212.059363 
L 691.209917 212.059363 
L 692.808595 212.059363 
L 694.407273 212.059363 
L 696.00595 212.059363 
L 697.604628 212.059363 
L 699.203306 212.059363 
L 700.801983 212.059363 
L 702.400661 212.059363 
L 703.999339 212.059363 
L 705.598017 212.059363 
L 707.196694 212.059363 
L 708.795372 212.059363 
L 710.39405 212.059363 
L 711.992727 212.059363 
L 713.591405 212.059363 
L 715.190083 212.059363 
L 716.78876 212.059363 
L 718.387438 212.059363 
L 719.986116 212.059363 
L 721.584793 212.059363 
L 723.183471 212.059363 
L 724.782149 212.059363 
L 726.380826 212.059363 
L 727.979504 212.059363 
L 729.578182 212.059363 
L 731.17686 212.059363 
L 732.775537 212.059363 
L 734.374215 212.059363 
L 735.972893 212.059363 
L 737.57157 212.059363 
L 739.170248 212.059363 
L 740.768926 212.059363 
L 742.367603 212.059363 
L 743.966281 212.059363 
L 745.564959 212.059363 
L 747.163636 212.059363 
" style="fill:none;stroke:#003399;stroke-dasharray:1.5,2.475;stroke-dashoffset:0;stroke-width:1.5;"/>
   </g>
   <g id="patch_3">
    <path d="M 108 512.64 
L 108 69.12 
" style="fill:none;stroke:#000000;stroke-linecap:square;stroke-linejoin:miter;stroke-width:0.8;"/>
   </g>
   <g id="patch_4">
    <path d="M 777.6 512.64 
L 777.6 69.12 
" style="fill:none;stroke:#000000;stroke-linecap:square;stroke-linejoin:miter;stroke-width:0.8;"/>
   </g>
   <g id="patch_5">
    <path d="M 108 512.64 
L 777.6 512.64 
" style="fill:none;stroke:#000000;stroke-linecap:square;stroke-linejoin:miter;stroke-width:0.8;"/>
   </g>
   <g id="patch_6">
    <path d="M 108 69.12 
L 777.6 69.12 
" style="fill:none;stroke:#000000;stroke-linecap:square;stroke-linejoin:miter;stroke-width:0.8;"/>
   </g>
   <g id="legend_1">
    <g id="patch_7">
     <path d="M 581.735937 507.64 
L 770.6 507.64 
Q 772.6 507.64 772.6 505.64 
L 772.6 374.536875 
Q 772.6 372.536875 770.6 372.536875 
L 581.735937 372.536875 
Q 579.735937 372.536875 579.735937 374.536875 
L 579.735937 505.64 
Q 579.735937 507.64 581.735937 507.64 
z
" style="fill:#ffffff;opacity:0.8;stroke:#cccccc;stroke-linejoin:miter;"/>
    </g>
    <g id="line2d_34">
     <path d="M 583.735937 380.635313 
L 603.735937 380.635313 
" style="fill:none;stroke:#cc3300;stroke-linecap:square;stroke-width:1.5;"/>
    </g>
    <g id="line2d_35"/>
    <g id="text_15">
     <!-- Ariane 5 ECA - Core stage -->
     <defs>
      <path d="M 34.1875 63.1875 
L 20.796875 26.90625 
L 47.609375 26.90625 
z
M 28.609375 72.90625 
L 39.796875 72.90625 
L 67.578125 0 
L 57.328125 0 
L 50.6875 18.703125 
L 17.828125 18.703125 
L 11.1875 0 
L 0.78125 0 
z
" id="DejaVuSans-65"/>
      <path d="M 41.109375 46.296875 
Q 39.59375 47.171875 37.8125 47.578125 
Q 36.03125 48 33.890625 48 
Q 26.265625 48 22.1875 43.046875 
Q 18.109375 38.09375 18.109375 28.8125 
L 18.109375 0 
L 9.078125 0 
L 9.078125 54.6875 
L 18.109375 54.6875 
L 18.109375 46.1875 
Q 20.953125 51.171875 25.484375 53.578125 
Q 30.03125 56 36.53125 56 
Q 37.453125 56 38.578125 55.875 
Q 39.703125 55.765625 41.0625 55.515625 
z
" id="DejaVuSans-114"/>
      <path d="M 9.8125 72.90625 
L 55.90625 72.90625 
L 55.90625 64.59375 
L 19.671875 64.59375 
L 19.671875 43.015625 
L 54.390625 43.015625 
L 54.390625 34.71875 
L 19.671875 34.71875 
L 19.671875 8.296875 
L 56.78125 8.296875 
L 56.78125 0 
L 9.8125 0 
z
" id="DejaVuSans-69"/>
      <path d="M 45.40625 27.984375 
Q 45.40625 37.75 41.375 43.109375 
Q 37.359375 48.484375 30.078125 48.484375 
Q 22.859375 48.484375 18.828125 43.109375 
Q 14.796875 37.75 14.796875 27.984375 
Q 14.796875 18.265625 18.828125 12.890625 
Q 22.859375 7.515625 30.078125 7.515625 
Q 37.359375 7.515625 41.375 12.890625 
Q 45.40625 18.265625 45.40625 27.984375 
z
M 54.390625 6.78125 
Q 54.390625 -7.171875 48.1875 -13.984375 
Q 42 -20.796875 29.203125 -20.796875 
Q 24.46875 -20.796875 20.265625 -20.09375 
Q 16.0625 -19.390625 12.109375 -17.921875 
L 12.109375 -9.1875 
Q 16.0625 -11.328125 19.921875 -12.34375 
Q 23.78125 -13.375 27.78125 -13.375 
Q 36.625 -13.375 41.015625 -8.765625 
Q 45.40625 -4.15625 45.40625 5.171875 
L 45.40625 9.625 
Q 42.625 4.78125 38.28125 2.390625 
Q 33.9375 0 27.875 0 
Q 17.828125 0 11.671875 7.65625 
Q 5.515625 15.328125 5.515625 27.984375 
Q 5.515625 40.671875 11.671875 48.328125 
Q 17.828125 56 27.875 56 
Q 33.9375 56 38.28125 53.609375 
Q 42.625 51.21875 45.40625 46.390625 
L 45.40625 54.6875 
L 54.390625 54.6875 
z
" id="DejaVuSans-103"/>
     </defs>
     <g transform="translate(611.735937 384.135313)scale(0.1 -0.1)">
      <use xlink:href="#DejaVuSans-65"/>
      <use x="68.408203" xlink:href="#DejaVuSans-114"/>
      <use x="109.521484" xlink:href="#DejaVuSans-105"/>
      <use x="137.304688" xlink:href="#DejaVuSans-97"/>
      <use x="198.583984" xlink:href="#DejaVuSans-110"/>
      <use x="261.962891" xlink:href="#DejaVuSans-101"/>
      <use x="323.486328" xlink:href="#DejaVuSans-32"/>
      <use x="355.273438" xlink:href="#DejaVuSans-53"/>
      <use x="418.896484" xlink:href="#DejaVuSans-32"/>
      <use x="450.683594" xlink:href="#DejaVuSans-69"/>
      <use x="513.867188" xlink:href="#DejaVuSans-67"/>
      <use x="583.691406" xlink:href="#DejaVuSans-65"/>
      <use x="652.099609" xlink:href="#DejaVuSans-32"/>
      <use x="683.886719" xlink:href="#DejaVuSans-45"/>
      <use x="719.970703" xlink:href="#DejaVuSans-32"/>
      <use x="751.757812" xlink:href="#DejaVuSans-67"/>
      <use x="821.582031" xlink:href="#DejaVuSans-111"/>
      <use x="882.763672" xlink:href="#DejaVuSans-114"/>
      <use x="921.626953" xlink:href="#DejaVuSans-101"/>
      <use x="983.150391" xlink:href="#DejaVuSans-32"/>
      <use x="1014.9375" xlink:href="#DejaVuSans-115"/>
      <use x="1067.037109" xlink:href="#DejaVuSans-116"/>
      <use x="1106.246094" xlink:href="#DejaVuSans-97"/>
      <use x="1167.525391" xlink:href="#DejaVuSans-103"/>
      <use x="1231.001953" xlink:href="#DejaVuSans-101"/>
     </g>
    </g>
    <g id="line2d_36">
     <path d="M 583.735937 395.313438 
L 603.735937 395.313438 
" style="fill:none;stroke:#cc3300;stroke-dasharray:9.6,2.4,1.5,2.4;stroke-dashoffset:0;stroke-width:1.5;"/>
    </g>
    <g id="line2d_37"/>
    <g id="text_16">
     <!-- Ariane 5 ECA - Second stage -->
     <defs>
      <path d="M 53.515625 70.515625 
L 53.515625 60.890625 
Q 47.90625 63.578125 42.921875 64.890625 
Q 37.9375 66.21875 33.296875 66.21875 
Q 25.25 66.21875 20.875 63.09375 
Q 16.5 59.96875 16.5 54.203125 
Q 16.5 49.359375 19.40625 46.890625 
Q 22.3125 44.4375 30.421875 42.921875 
L 36.375 41.703125 
Q 47.40625 39.59375 52.65625 34.296875 
Q 57.90625 29 57.90625 20.125 
Q 57.90625 9.515625 50.796875 4.046875 
Q 43.703125 -1.421875 29.984375 -1.421875 
Q 24.8125 -1.421875 18.96875 -0.25 
Q 13.140625 0.921875 6.890625 3.21875 
L 6.890625 13.375 
Q 12.890625 10.015625 18.65625 8.296875 
Q 24.421875 6.59375 29.984375 6.59375 
Q 38.421875 6.59375 43.015625 9.90625 
Q 47.609375 13.234375 47.609375 19.390625 
Q 47.609375 24.75 44.3125 27.78125 
Q 41.015625 30.8125 33.5 32.328125 
L 27.484375 33.5 
Q 16.453125 35.6875 11.515625 40.375 
Q 6.59375 45.0625 6.59375 53.421875 
Q 6.59375 63.09375 13.40625 68.65625 
Q 20.21875 74.21875 32.171875 74.21875 
Q 37.3125 74.21875 42.625 73.28125 
Q 47.953125 72.359375 53.515625 70.515625 
z
" id="DejaVuSans-83"/>
     </defs>
     <g transform="translate(611.735937 398.813438)scale(0.1 -0.1)">
      <use xlink:href="#DejaVuSans-65"/>
      <use x="68.408203" xlink:href="#DejaVuSans-114"/>
      <use x="109.521484" xlink:href="#DejaVuSans-105"/>
      <use x="137.304688" xlink:href="#DejaVuSans-97"/>
      <use x="198.583984" xlink:href="#DejaVuSans-110"/>
      <use x="261.962891" xlink:href="#DejaVuSans-101"/>
      <use x="323.486328" xlink:href="#DejaVuSans-32"/>
      <use x="355.273438" xlink:href="#DejaVuSans-53"/>
      <use x="418.896484" xlink:href="#DejaVuSans-32"/>
      <use x="450.683594" xlink:href="#DejaVuSans-69"/>
      <use x="513.867188" xlink:href="#DejaVuSans-67"/>
      <use x="583.691406" xlink:href="#DejaVuSans-65"/>
      <use x="652.099609" xlink:href="#DejaVuSans-32"/>
      <use x="683.886719" xlink:href="#DejaVuSans-45"/>
      <use x="719.970703" xlink:href="#DejaVuSans-32"/>
      <use x="751.757812" xlink:href="#DejaVuSans-83"/>
      <use x="815.234375" xlink:href="#DejaVuSans-101"/>
      <use x="876.757812" xlink:href="#DejaVuSans-99"/>
      <use x="931.738281" xlink:href="#DejaVuSans-111"/>
      <use x="992.919922" xlink:href="#DejaVuSans-110"/>
      <use x="1056.298828" xlink:href="#DejaVuSans-100"/>
      <use x="1119.775391" xlink:href="#DejaVuSans-32"/>
      <use x="1151.5625" xlink:href="#DejaVuSans-115"/>
      <use x="1203.662109" xlink:href="#DejaVuSans-116"/>
      <use x="1242.871094" xlink:href="#DejaVuSans-97"/>
      <use x="1304.150391" xlink:href="#DejaVuSans-103"/>
      <use x="1367.626953" xlink:href="#DejaVuSans-101"/>
     </g>
    </g>
    <g id="line2d_38">
     <path d="M 583.735937 409.991563 
L 603.735937 409.991563 
" style="fill:none;stroke:#009900;stroke-linecap:square;stroke-width:1.5;"/>
    </g>
    <g id="line2d_39"/>
    <g id="text_17">
     <!-- Falcon Heavy - Core Stage -->
     <defs>
      <path d="M 9.8125 72.90625 
L 51.703125 72.90625 
L 51.703125 64.59375 
L 19.671875 64.59375 
L 19.671875 43.109375 
L 48.578125 43.109375 
L 48.578125 34.8125 
L 19.671875 34.8125 
L 19.671875 0 
L 9.8125 0 
z
" id="DejaVuSans-70"/>
      <path d="M 9.421875 75.984375 
L 18.40625 75.984375 
L 18.40625 0 
L 9.421875 0 
z
" id="DejaVuSans-108"/>
      <path d="M 9.8125 72.90625 
L 19.671875 72.90625 
L 19.671875 43.015625 
L 55.515625 43.015625 
L 55.515625 72.90625 
L 65.375 72.90625 
L 65.375 0 
L 55.515625 0 
L 55.515625 34.71875 
L 19.671875 34.71875 
L 19.671875 0 
L 9.8125 0 
z
" id="DejaVuSans-72"/>
      <path d="M 2.984375 54.6875 
L 12.5 54.6875 
L 29.59375 8.796875 
L 46.6875 54.6875 
L 56.203125 54.6875 
L 35.6875 0 
L 23.484375 0 
z
" id="DejaVuSans-118"/>
      <path d="M 32.171875 -5.078125 
Q 28.375 -14.84375 24.75 -17.8125 
Q 21.140625 -20.796875 15.09375 -20.796875 
L 7.90625 -20.796875 
L 7.90625 -13.28125 
L 13.1875 -13.28125 
Q 16.890625 -13.28125 18.9375 -11.515625 
Q 21 -9.765625 23.484375 -3.21875 
L 25.09375 0.875 
L 2.984375 54.6875 
L 12.5 54.6875 
L 29.59375 11.921875 
L 46.6875 54.6875 
L 56.203125 54.6875 
z
" id="DejaVuSans-121"/>
     </defs>
     <g transform="translate(611.735937 413.491563)scale(0.1 -0.1)">
      <use xlink:href="#DejaVuSans-70"/>
      <use x="48.394531" xlink:href="#DejaVuSans-97"/>
      <use x="109.673828" xlink:href="#DejaVuSans-108"/>
      <use x="137.457031" xlink:href="#DejaVuSans-99"/>
      <use x="192.4375" xlink:href="#DejaVuSans-111"/>
      <use x="253.619141" xlink:href="#DejaVuSans-110"/>
      <use x="316.998047" xlink:href="#DejaVuSans-32"/>
      <use x="348.785156" xlink:href="#DejaVuSans-72"/>
      <use x="423.980469" xlink:href="#DejaVuSans-101"/>
      <use x="485.503906" xlink:href="#DejaVuSans-97"/>
      <use x="546.783203" xlink:href="#DejaVuSans-118"/>
      <use x="605.962891" xlink:href="#DejaVuSans-121"/>
      <use x="665.142578" xlink:href="#DejaVuSans-32"/>
      <use x="696.929688" xlink:href="#DejaVuSans-45"/>
      <use x="733.013672" xlink:href="#DejaVuSans-32"/>
      <use x="764.800781" xlink:href="#DejaVuSans-67"/>
      <use x="834.625" xlink:href="#DejaVuSans-111"/>
      <use x="895.806641" xlink:href="#DejaVuSans-114"/>
      <use x="934.669922" xlink:href="#DejaVuSans-101"/>
      <use x="996.193359" xlink:href="#DejaVuSans-32"/>
      <use x="1027.980469" xlink:href="#DejaVuSans-83"/>
      <use x="1091.457031" xlink:href="#DejaVuSans-116"/>
      <use x="1130.666016" xlink:href="#DejaVuSans-97"/>
      <use x="1191.945312" xlink:href="#DejaVuSans-103"/>
      <use x="1255.421875" xlink:href="#DejaVuSans-101"/>
     </g>
    </g>
    <g id="line2d_40">
     <path d="M 583.735937 424.669688 
L 603.735937 424.669688 
" style="fill:none;stroke:#009900;stroke-dasharray:5.55,2.4;stroke-dashoffset:0;stroke-width:1.5;"/>
    </g>
    <g id="line2d_41"/>
    <g id="text_18">
     <!-- Falcon Heavy - Boosters -->
     <defs>
      <path d="M 19.671875 34.8125 
L 19.671875 8.109375 
L 35.5 8.109375 
Q 43.453125 8.109375 47.28125 11.40625 
Q 51.125 14.703125 51.125 21.484375 
Q 51.125 28.328125 47.28125 31.5625 
Q 43.453125 34.8125 35.5 34.8125 
z
M 19.671875 64.796875 
L 19.671875 42.828125 
L 34.28125 42.828125 
Q 41.5 42.828125 45.03125 45.53125 
Q 48.578125 48.25 48.578125 53.8125 
Q 48.578125 59.328125 45.03125 62.0625 
Q 41.5 64.796875 34.28125 64.796875 
z
M 9.8125 72.90625 
L 35.015625 72.90625 
Q 46.296875 72.90625 52.390625 68.21875 
Q 58.5 63.53125 58.5 54.890625 
Q 58.5 48.1875 55.375 44.234375 
Q 52.25 40.28125 46.1875 39.3125 
Q 53.46875 37.75 57.5 32.78125 
Q 61.53125 27.828125 61.53125 20.40625 
Q 61.53125 10.640625 54.890625 5.3125 
Q 48.25 0 35.984375 0 
L 9.8125 0 
z
" id="DejaVuSans-66"/>
     </defs>
     <g transform="translate(611.735937 428.169688)scale(0.1 -0.1)">
      <use xlink:href="#DejaVuSans-70"/>
      <use x="48.394531" xlink:href="#DejaVuSans-97"/>
      <use x="109.673828" xlink:href="#DejaVuSans-108"/>
      <use x="137.457031" xlink:href="#DejaVuSans-99"/>
      <use x="192.4375" xlink:href="#DejaVuSans-111"/>
      <use x="253.619141" xlink:href="#DejaVuSans-110"/>
      <use x="316.998047" xlink:href="#DejaVuSans-32"/>
      <use x="348.785156" xlink:href="#DejaVuSans-72"/>
      <use x="423.980469" xlink:href="#DejaVuSans-101"/>
      <use x="485.503906" xlink:href="#DejaVuSans-97"/>
      <use x="546.783203" xlink:href="#DejaVuSans-118"/>
      <use x="605.962891" xlink:href="#DejaVuSans-121"/>
      <use x="665.142578" xlink:href="#DejaVuSans-32"/>
      <use x="696.929688" xlink:href="#DejaVuSans-45"/>
      <use x="733.013672" xlink:href="#DejaVuSans-32"/>
      <use x="764.800781" xlink:href="#DejaVuSans-66"/>
      <use x="833.404297" xlink:href="#DejaVuSans-111"/>
      <use x="894.585938" xlink:href="#DejaVuSans-111"/>
      <use x="955.767578" xlink:href="#DejaVuSans-115"/>
      <use x="1007.867188" xlink:href="#DejaVuSans-116"/>
      <use x="1047.076172" xlink:href="#DejaVuSans-101"/>
      <use x="1108.599609" xlink:href="#DejaVuSans-114"/>
      <use x="1149.712891" xlink:href="#DejaVuSans-115"/>
     </g>
    </g>
    <g id="line2d_42">
     <path d="M 583.735937 439.347813 
L 603.735937 439.347813 
" style="fill:none;stroke:#009900;stroke-dasharray:9.6,2.4,1.5,2.4;stroke-dashoffset:0;stroke-width:1.5;"/>
    </g>
    <g id="line2d_43"/>
    <g id="text_19">
     <!-- Falcon Heavy - Second Stage -->
     <g transform="translate(611.735937 442.847813)scale(0.1 -0.1)">
      <use xlink:href="#DejaVuSans-70"/>
      <use x="48.394531" xlink:href="#DejaVuSans-97"/>
      <use x="109.673828" xlink:href="#DejaVuSans-108"/>
      <use x="137.457031" xlink:href="#DejaVuSans-99"/>
      <use x="192.4375" xlink:href="#DejaVuSans-111"/>
      <use x="253.619141" xlink:href="#DejaVuSans-110"/>
      <use x="316.998047" xlink:href="#DejaVuSans-32"/>
      <use x="348.785156" xlink:href="#DejaVuSans-72"/>
      <use x="423.980469" xlink:href="#DejaVuSans-101"/>
      <use x="485.503906" xlink:href="#DejaVuSans-97"/>
      <use x="546.783203" xlink:href="#DejaVuSans-118"/>
      <use x="605.962891" xlink:href="#DejaVuSans-121"/>
      <use x="665.142578" xlink:href="#DejaVuSans-32"/>
      <use x="696.929688" xlink:href="#DejaVuSans-45"/>
      <use x="733.013672" xlink:href="#DejaVuSans-32"/>
      <use x="764.800781" xlink:href="#DejaVuSans-83"/>
      <use x="828.277344" xlink:href="#DejaVuSans-101"/>
      <use x="889.800781" xlink:href="#DejaVuSans-99"/>
      <use x="944.78125" xlink:href="#DejaVuSans-111"/>
      <use x="1005.962891" xlink:href="#DejaVuSans-110"/>
      <use x="1069.341797" xlink:href="#DejaVuSans-100"/>
      <use x="1132.818359" xlink:href="#DejaVuSans-32"/>
      <use x="1164.605469" xlink:href="#DejaVuSans-83"/>
      <use x="1228.082031" xlink:href="#DejaVuSans-116"/>
      <use x="1267.291016" xlink:href="#DejaVuSans-97"/>
      <use x="1328.570312" xlink:href="#DejaVuSans-103"/>
      <use x="1392.046875" xlink:href="#DejaVuSans-101"/>
     </g>
    </g>
    <g id="line2d_44">
     <path d="M 583.735937 454.025938 
L 603.735937 454.025938 
" style="fill:none;stroke:#003399;stroke-linecap:square;stroke-width:1.5;"/>
    </g>
    <g id="line2d_45"/>
    <g id="text_20">
     <!-- Saturn V - 1st Stage -->
     <defs>
      <path d="M 28.609375 0 
L 0.78125 72.90625 
L 11.078125 72.90625 
L 34.1875 11.53125 
L 57.328125 72.90625 
L 67.578125 72.90625 
L 39.796875 0 
z
" id="DejaVuSans-86"/>
     </defs>
     <g transform="translate(611.735937 457.525938)scale(0.1 -0.1)">
      <use xlink:href="#DejaVuSans-83"/>
      <use x="63.476562" xlink:href="#DejaVuSans-97"/>
      <use x="124.755859" xlink:href="#DejaVuSans-116"/>
      <use x="163.964844" xlink:href="#DejaVuSans-117"/>
      <use x="227.34375" xlink:href="#DejaVuSans-114"/>
      <use x="266.707031" xlink:href="#DejaVuSans-110"/>
      <use x="330.085938" xlink:href="#DejaVuSans-32"/>
      <use x="361.873047" xlink:href="#DejaVuSans-86"/>
      <use x="430.28125" xlink:href="#DejaVuSans-32"/>
      <use x="462.068359" xlink:href="#DejaVuSans-45"/>
      <use x="498.152344" xlink:href="#DejaVuSans-32"/>
      <use x="529.939453" xlink:href="#DejaVuSans-49"/>
      <use x="593.5625" xlink:href="#DejaVuSans-115"/>
      <use x="645.662109" xlink:href="#DejaVuSans-116"/>
      <use x="684.871094" xlink:href="#DejaVuSans-32"/>
      <use x="716.658203" xlink:href="#DejaVuSans-83"/>
      <use x="780.134766" xlink:href="#DejaVuSans-116"/>
      <use x="819.34375" xlink:href="#DejaVuSans-97"/>
      <use x="880.623047" xlink:href="#DejaVuSans-103"/>
      <use x="944.099609" xlink:href="#DejaVuSans-101"/>
     </g>
    </g>
    <g id="line2d_46">
     <path d="M 583.735937 468.704063 
L 603.735937 468.704063 
" style="fill:none;stroke:#003399;stroke-dasharray:5.55,2.4;stroke-dashoffset:0;stroke-width:1.5;"/>
    </g>
    <g id="line2d_47"/>
    <g id="text_21">
     <!-- Saturn V - 2nd Stage -->
     <g transform="translate(611.735937 472.204063)scale(0.1 -0.1)">
      <use xlink:href="#DejaVuSans-83"/>
      <use x="63.476562" xlink:href="#DejaVuSans-97"/>
      <use x="124.755859" xlink:href="#DejaVuSans-116"/>
      <use x="163.964844" xlink:href="#DejaVuSans-117"/>
      <use x="227.34375" xlink:href="#DejaVuSans-114"/>
      <use x="266.707031" xlink:href="#DejaVuSans-110"/>
      <use x="330.085938" xlink:href="#DejaVuSans-32"/>
      <use x="361.873047" xlink:href="#DejaVuSans-86"/>
      <use x="430.28125" xlink:href="#DejaVuSans-32"/>
      <use x="462.068359" xlink:href="#DejaVuSans-45"/>
      <use x="498.152344" xlink:href="#DejaVuSans-32"/>
      <use x="529.939453" xlink:href="#DejaVuSans-50"/>
      <use x="593.5625" xlink:href="#DejaVuSans-110"/>
      <use x="656.941406" xlink:href="#DejaVuSans-100"/>
      <use x="720.417969" xlink:href="#DejaVuSans-32"/>
      <use x="752.205078" xlink:href="#DejaVuSans-83"/>
      <use x="815.681641" xlink:href="#DejaVuSans-116"/>
      <use x="854.890625" xlink:href="#DejaVuSans-97"/>
      <use x="916.169922" xlink:href="#DejaVuSans-103"/>
      <use x="979.646484" xlink:href="#DejaVuSans-101"/>
     </g>
    </g>
    <g id="line2d_48">
     <path d="M 583.735937 483.382188 
L 603.735937 483.382188 
" style="fill:none;stroke:#003399;stroke-dasharray:9.6,2.4,1.5,2.4;stroke-dashoffset:0;stroke-width:1.5;"/>
    </g>
    <g id="line2d_49"/>
    <g id="text_22">
     <!-- Saturn V - 3rd Stage - 1st burn -->
     <defs>
      <path d="M 40.578125 39.3125 
Q 47.65625 37.796875 51.625 33 
Q 55.609375 28.21875 55.609375 21.1875 
Q 55.609375 10.40625 48.1875 4.484375 
Q 40.765625 -1.421875 27.09375 -1.421875 
Q 22.515625 -1.421875 17.65625 -0.515625 
Q 12.796875 0.390625 7.625 2.203125 
L 7.625 11.71875 
Q 11.71875 9.328125 16.59375 8.109375 
Q 21.484375 6.890625 26.8125 6.890625 
Q 36.078125 6.890625 40.9375 10.546875 
Q 45.796875 14.203125 45.796875 21.1875 
Q 45.796875 27.640625 41.28125 31.265625 
Q 36.765625 34.90625 28.71875 34.90625 
L 20.21875 34.90625 
L 20.21875 43.015625 
L 29.109375 43.015625 
Q 36.375 43.015625 40.234375 45.921875 
Q 44.09375 48.828125 44.09375 54.296875 
Q 44.09375 59.90625 40.109375 62.90625 
Q 36.140625 65.921875 28.71875 65.921875 
Q 24.65625 65.921875 20.015625 65.03125 
Q 15.375 64.15625 9.8125 62.3125 
L 9.8125 71.09375 
Q 15.4375 72.65625 20.34375 73.4375 
Q 25.25 74.21875 29.59375 74.21875 
Q 40.828125 74.21875 47.359375 69.109375 
Q 53.90625 64.015625 53.90625 55.328125 
Q 53.90625 49.265625 50.4375 45.09375 
Q 46.96875 40.921875 40.578125 39.3125 
z
" id="DejaVuSans-51"/>
      <path d="M 48.6875 27.296875 
Q 48.6875 37.203125 44.609375 42.84375 
Q 40.53125 48.484375 33.40625 48.484375 
Q 26.265625 48.484375 22.1875 42.84375 
Q 18.109375 37.203125 18.109375 27.296875 
Q 18.109375 17.390625 22.1875 11.75 
Q 26.265625 6.109375 33.40625 6.109375 
Q 40.53125 6.109375 44.609375 11.75 
Q 48.6875 17.390625 48.6875 27.296875 
z
M 18.109375 46.390625 
Q 20.953125 51.265625 25.265625 53.625 
Q 29.59375 56 35.59375 56 
Q 45.5625 56 51.78125 48.09375 
Q 58.015625 40.1875 58.015625 27.296875 
Q 58.015625 14.40625 51.78125 6.484375 
Q 45.5625 -1.421875 35.59375 -1.421875 
Q 29.59375 -1.421875 25.265625 0.953125 
Q 20.953125 3.328125 18.109375 8.203125 
L 18.109375 0 
L 9.078125 0 
L 9.078125 75.984375 
L 18.109375 75.984375 
z
" id="DejaVuSans-98"/>
     </defs>
     <g transform="translate(611.735937 486.882188)scale(0.1 -0.1)">
      <use xlink:href="#DejaVuSans-83"/>
      <use x="63.476562" xlink:href="#DejaVuSans-97"/>
      <use x="124.755859" xlink:href="#DejaVuSans-116"/>
      <use x="163.964844" xlink:href="#DejaVuSans-117"/>
      <use x="227.34375" xlink:href="#DejaVuSans-114"/>
      <use x="266.707031" xlink:href="#DejaVuSans-110"/>
      <use x="330.085938" xlink:href="#DejaVuSans-32"/>
      <use x="361.873047" xlink:href="#DejaVuSans-86"/>
      <use x="430.28125" xlink:href="#DejaVuSans-32"/>
      <use x="462.068359" xlink:href="#DejaVuSans-45"/>
      <use x="498.152344" xlink:href="#DejaVuSans-32"/>
      <use x="529.939453" xlink:href="#DejaVuSans-51"/>
      <use x="593.5625" xlink:href="#DejaVuSans-114"/>
      <use x="632.925781" xlink:href="#DejaVuSans-100"/>
      <use x="696.402344" xlink:href="#DejaVuSans-32"/>
      <use x="728.189453" xlink:href="#DejaVuSans-83"/>
      <use x="791.666016" xlink:href="#DejaVuSans-116"/>
      <use x="830.875" xlink:href="#DejaVuSans-97"/>
      <use x="892.154297" xlink:href="#DejaVuSans-103"/>
      <use x="955.630859" xlink:href="#DejaVuSans-101"/>
      <use x="1017.154297" xlink:href="#DejaVuSans-32"/>
      <use x="1048.941406" xlink:href="#DejaVuSans-45"/>
      <use x="1085.025391" xlink:href="#DejaVuSans-32"/>
      <use x="1116.8125" xlink:href="#DejaVuSans-49"/>
      <use x="1180.435547" xlink:href="#DejaVuSans-115"/>
      <use x="1232.535156" xlink:href="#DejaVuSans-116"/>
      <use x="1271.744141" xlink:href="#DejaVuSans-32"/>
      <use x="1303.53125" xlink:href="#DejaVuSans-98"/>
      <use x="1367.007812" xlink:href="#DejaVuSans-117"/>
      <use x="1430.386719" xlink:href="#DejaVuSans-114"/>
      <use x="1469.75" xlink:href="#DejaVuSans-110"/>
     </g>
    </g>
    <g id="line2d_50">
     <path d="M 583.735937 498.060313 
L 603.735937 498.060313 
" style="fill:none;stroke:#003399;stroke-dasharray:1.5,2.475;stroke-dashoffset:0;stroke-width:1.5;"/>
    </g>
    <g id="line2d_51"/>
    <g id="text_23">
     <!-- Saturn V - 3rd Stage - 2nd burn -->
     <g transform="translate(611.735937 501.560313)scale(0.1 -0.1)">
      <use xlink:href="#DejaVuSans-83"/>
      <use x="63.476562" xlink:href="#DejaVuSans-97"/>
      <use x="124.755859" xlink:href="#DejaVuSans-116"/>
      <use x="163.964844" xlink:href="#DejaVuSans-117"/>
      <use x="227.34375" xlink:href="#DejaVuSans-114"/>
      <use x="266.707031" xlink:href="#DejaVuSans-110"/>
      <use x="330.085938" xlink:href="#DejaVuSans-32"/>
      <use x="361.873047" xlink:href="#DejaVuSans-86"/>
      <use x="430.28125" xlink:href="#DejaVuSans-32"/>
      <use x="462.068359" xlink:href="#DejaVuSans-45"/>
      <use x="498.152344" xlink:href="#DejaVuSans-32"/>
      <use x="529.939453" xlink:href="#DejaVuSans-51"/>
      <use x="593.5625" xlink:href="#DejaVuSans-114"/>
      <use x="632.925781" xlink:href="#DejaVuSans-100"/>
      <use x="696.402344" xlink:href="#DejaVuSans-32"/>
      <use x="728.189453" xlink:href="#DejaVuSans-83"/>
      <use x="791.666016" xlink:href="#DejaVuSans-116"/>
      <use x="830.875" xlink:href="#DejaVuSans-97"/>
      <use x="892.154297" xlink:href="#DejaVuSans-103"/>
      <use x="955.630859" xlink:href="#DejaVuSans-101"/>
      <use x="1017.154297" xlink:href="#DejaVuSans-32"/>
      <use x="1048.941406" xlink:href="#DejaVuSans-45"/>
      <use x="1085.025391" xlink:href="#DejaVuSans-32"/>
      <use x="1116.8125" xlink:href="#DejaVuSans-50"/>
      <use x="1180.435547" xlink:href="#DejaVuSans-110"/>
      <use x="1243.814453" xlink:href="#DejaVuSans-100"/>
      <use x="1307.291016" xlink:href="#DejaVuSans-32"/>
      <use x="1339.078125" xlink:href="#DejaVuSans-98"/>
      <use x="1402.554688" xlink:href="#DejaVuSans-117"/>
      <use x="1465.933594" xlink:href="#DejaVuSans-114"/>
      <use x="1505.296875" xlink:href="#DejaVuSans-110"/>
     </g>
    </g>
   </g>
  </g>
 </g>
 <defs>
  <clipPath id="pd678d40ce4">
   <rect height="443.52" width="669.6" x="108" y="69.12"/>
  </clipPath>
 </defs>
</svg>
