<?xml version="1.0" encoding="utf-8" standalone="no"?>
<!DOCTYPE svg PUBLIC "-//W3C//DTD SVG 1.1//EN"
  "http://www.w3.org/Graphics/SVG/1.1/DTD/svg11.dtd">
<!-- Created with matplotlib (https://matplotlib.org/) -->
<svg height="576pt" version="1.1" viewBox="0 0 864 576" width="864pt" xmlns="http://www.w3.org/2000/svg" xmlns:xlink="http://www.w3.org/1999/xlink">
 <defs>
  <style type="text/css">
*{stroke-linecap:butt;stroke-linejoin:round;}
  </style>
 </defs>
 <g id="figure_1">
  <g id="patch_1">
   <path d="M 0 576 
L 864 576 
L 864 0 
L 0 0 
z
" style="fill:#ffffff;"/>
  </g>
  <g id="axes_1">
   <g id="patch_2">
    <path d="M 108 512.64 
L 777.6 512.64 
L 777.6 69.12 
L 108 69.12 
z
" style="fill:#ffffff;"/>
   </g>
   <g id="matplotlib.axis_1">
    <g id="xtick_1">
     <g id="line2d_1">
      <path clip-path="url(#p07da6d36f3)" d="M 138.436364 512.64 
L 138.436364 69.12 
" style="fill:none;stroke:#b0b0b0;stroke-linecap:square;stroke-width:0.8;"/>
     </g>
     <g id="line2d_2">
      <defs>
       <path d="M 0 0 
L 0 3.5 
" id="m8b63be01cd" style="stroke:#000000;stroke-width:0.8;"/>
      </defs>
      <g>
       <use style="stroke:#000000;stroke-width:0.8;" x="138.436364" xlink:href="#m8b63be01cd" y="512.64"/>
      </g>
     </g>
     <g id="text_1">
      <!-- 0 -->
      <defs>
       <path d="M 31.78125 66.40625 
Q 24.171875 66.40625 20.328125 58.90625 
Q 16.5 51.421875 16.5 36.375 
Q 16.5 21.390625 20.328125 13.890625 
Q 24.171875 6.390625 31.78125 6.390625 
Q 39.453125 6.390625 43.28125 13.890625 
Q 47.125 21.390625 47.125 36.375 
Q 47.125 51.421875 43.28125 58.90625 
Q 39.453125 66.40625 31.78125 66.40625 
z
M 31.78125 74.21875 
Q 44.046875 74.21875 50.515625 64.515625 
Q 56.984375 54.828125 56.984375 36.375 
Q 56.984375 17.96875 50.515625 8.265625 
Q 44.046875 -1.421875 31.78125 -1.421875 
Q 19.53125 -1.421875 13.0625 8.265625 
Q 6.59375 17.96875 6.59375 36.375 
Q 6.59375 54.828125 13.0625 64.515625 
Q 19.53125 74.21875 31.78125 74.21875 
z
" id="DejaVuSans-48"/>
      </defs>
      <g transform="translate(135.255114 527.238438)scale(0.1 -0.1)">
       <use xlink:href="#DejaVuSans-48"/>
      </g>
     </g>
    </g>
    <g id="xtick_2">
     <g id="line2d_3">
      <path clip-path="url(#p07da6d36f3)" d="M 260.181818 512.64 
L 260.181818 69.12 
" style="fill:none;stroke:#b0b0b0;stroke-linecap:square;stroke-width:0.8;"/>
     </g>
     <g id="line2d_4">
      <g>
       <use style="stroke:#000000;stroke-width:0.8;" x="260.181818" xlink:href="#m8b63be01cd" y="512.64"/>
      </g>
     </g>
     <g id="text_2">
      <!-- 50000 -->
      <defs>
       <path d="M 10.796875 72.90625 
L 49.515625 72.90625 
L 49.515625 64.59375 
L 19.828125 64.59375 
L 19.828125 46.734375 
Q 21.96875 47.46875 24.109375 47.828125 
Q 26.265625 48.1875 28.421875 48.1875 
Q 40.625 48.1875 47.75 41.5 
Q 54.890625 34.8125 54.890625 23.390625 
Q 54.890625 11.625 47.5625 5.09375 
Q 40.234375 -1.421875 26.90625 -1.421875 
Q 22.3125 -1.421875 17.546875 -0.640625 
Q 12.796875 0.140625 7.71875 1.703125 
L 7.71875 11.625 
Q 12.109375 9.234375 16.796875 8.0625 
Q 21.484375 6.890625 26.703125 6.890625 
Q 35.15625 6.890625 40.078125 11.328125 
Q 45.015625 15.765625 45.015625 23.390625 
Q 45.015625 31 40.078125 35.4375 
Q 35.15625 39.890625 26.703125 39.890625 
Q 22.75 39.890625 18.8125 39.015625 
Q 14.890625 38.140625 10.796875 36.28125 
z
" id="DejaVuSans-53"/>
      </defs>
      <g transform="translate(244.275568 527.238438)scale(0.1 -0.1)">
       <use xlink:href="#DejaVuSans-53"/>
       <use x="63.623047" xlink:href="#DejaVuSans-48"/>
       <use x="127.246094" xlink:href="#DejaVuSans-48"/>
       <use x="190.869141" xlink:href="#DejaVuSans-48"/>
       <use x="254.492188" xlink:href="#DejaVuSans-48"/>
      </g>
     </g>
    </g>
    <g id="xtick_3">
     <g id="line2d_5">
      <path clip-path="url(#p07da6d36f3)" d="M 381.927273 512.64 
L 381.927273 69.12 
" style="fill:none;stroke:#b0b0b0;stroke-linecap:square;stroke-width:0.8;"/>
     </g>
     <g id="line2d_6">
      <g>
       <use style="stroke:#000000;stroke-width:0.8;" x="381.927273" xlink:href="#m8b63be01cd" y="512.64"/>
      </g>
     </g>
     <g id="text_3">
      <!-- 100000 -->
      <defs>
       <path d="M 12.40625 8.296875 
L 28.515625 8.296875 
L 28.515625 63.921875 
L 10.984375 60.40625 
L 10.984375 69.390625 
L 28.421875 72.90625 
L 38.28125 72.90625 
L 38.28125 8.296875 
L 54.390625 8.296875 
L 54.390625 0 
L 12.40625 0 
z
" id="DejaVuSans-49"/>
      </defs>
      <g transform="translate(362.839773 527.238438)scale(0.1 -0.1)">
       <use xlink:href="#DejaVuSans-49"/>
       <use x="63.623047" xlink:href="#DejaVuSans-48"/>
       <use x="127.246094" xlink:href="#DejaVuSans-48"/>
       <use x="190.869141" xlink:href="#DejaVuSans-48"/>
       <use x="254.492188" xlink:href="#DejaVuSans-48"/>
       <use x="318.115234" xlink:href="#DejaVuSans-48"/>
      </g>
     </g>
    </g>
    <g id="xtick_4">
     <g id="line2d_7">
      <path clip-path="url(#p07da6d36f3)" d="M 503.672727 512.64 
L 503.672727 69.12 
" style="fill:none;stroke:#b0b0b0;stroke-linecap:square;stroke-width:0.8;"/>
     </g>
     <g id="line2d_8">
      <g>
       <use style="stroke:#000000;stroke-width:0.8;" x="503.672727" xlink:href="#m8b63be01cd" y="512.64"/>
      </g>
     </g>
     <g id="text_4">
      <!-- 150000 -->
      <g transform="translate(484.585227 527.238438)scale(0.1 -0.1)">
       <use xlink:href="#DejaVuSans-49"/>
       <use x="63.623047" xlink:href="#DejaVuSans-53"/>
       <use x="127.246094" xlink:href="#DejaVuSans-48"/>
       <use x="190.869141" xlink:href="#DejaVuSans-48"/>
       <use x="254.492188" xlink:href="#DejaVuSans-48"/>
       <use x="318.115234" xlink:href="#DejaVuSans-48"/>
      </g>
     </g>
    </g>
    <g id="xtick_5">
     <g id="line2d_9">
      <path clip-path="url(#p07da6d36f3)" d="M 625.418182 512.64 
L 625.418182 69.12 
" style="fill:none;stroke:#b0b0b0;stroke-linecap:square;stroke-width:0.8;"/>
     </g>
     <g id="line2d_10">
      <g>
       <use style="stroke:#000000;stroke-width:0.8;" x="625.418182" xlink:href="#m8b63be01cd" y="512.64"/>
      </g>
     </g>
     <g id="text_5">
      <!-- 200000 -->
      <defs>
       <path d="M 19.1875 8.296875 
L 53.609375 8.296875 
L 53.609375 0 
L 7.328125 0 
L 7.328125 8.296875 
Q 12.9375 14.109375 22.625 23.890625 
Q 32.328125 33.6875 34.8125 36.53125 
Q 39.546875 41.84375 41.421875 45.53125 
Q 43.3125 49.21875 43.3125 52.78125 
Q 43.3125 58.59375 39.234375 62.25 
Q 35.15625 65.921875 28.609375 65.921875 
Q 23.96875 65.921875 18.8125 64.3125 
Q 13.671875 62.703125 7.8125 59.421875 
L 7.8125 69.390625 
Q 13.765625 71.78125 18.9375 73 
Q 24.125 74.21875 28.421875 74.21875 
Q 39.75 74.21875 46.484375 68.546875 
Q 53.21875 62.890625 53.21875 53.421875 
Q 53.21875 48.921875 51.53125 44.890625 
Q 49.859375 40.875 45.40625 35.40625 
Q 44.1875 33.984375 37.640625 27.21875 
Q 31.109375 20.453125 19.1875 8.296875 
z
" id="DejaVuSans-50"/>
      </defs>
      <g transform="translate(606.330682 527.238438)scale(0.1 -0.1)">
       <use xlink:href="#DejaVuSans-50"/>
       <use x="63.623047" xlink:href="#DejaVuSans-48"/>
       <use x="127.246094" xlink:href="#DejaVuSans-48"/>
       <use x="190.869141" xlink:href="#DejaVuSans-48"/>
       <use x="254.492188" xlink:href="#DejaVuSans-48"/>
       <use x="318.115234" xlink:href="#DejaVuSans-48"/>
      </g>
     </g>
    </g>
    <g id="xtick_6">
     <g id="line2d_11">
      <path clip-path="url(#p07da6d36f3)" d="M 747.163636 512.64 
L 747.163636 69.12 
" style="fill:none;stroke:#b0b0b0;stroke-linecap:square;stroke-width:0.8;"/>
     </g>
     <g id="line2d_12">
      <g>
       <use style="stroke:#000000;stroke-width:0.8;" x="747.163636" xlink:href="#m8b63be01cd" y="512.64"/>
      </g>
     </g>
     <g id="text_6">
      <!-- 250000 -->
      <g transform="translate(728.076136 527.238438)scale(0.1 -0.1)">
       <use xlink:href="#DejaVuSans-50"/>
       <use x="63.623047" xlink:href="#DejaVuSans-53"/>
       <use x="127.246094" xlink:href="#DejaVuSans-48"/>
       <use x="190.869141" xlink:href="#DejaVuSans-48"/>
       <use x="254.492188" xlink:href="#DejaVuSans-48"/>
       <use x="318.115234" xlink:href="#DejaVuSans-48"/>
      </g>
     </g>
    </g>
    <g id="text_7">
     <!-- Quota [m] -->
     <defs>
      <path d="M 39.40625 66.21875 
Q 28.65625 66.21875 22.328125 58.203125 
Q 16.015625 50.203125 16.015625 36.375 
Q 16.015625 22.609375 22.328125 14.59375 
Q 28.65625 6.59375 39.40625 6.59375 
Q 50.140625 6.59375 56.421875 14.59375 
Q 62.703125 22.609375 62.703125 36.375 
Q 62.703125 50.203125 56.421875 58.203125 
Q 50.140625 66.21875 39.40625 66.21875 
z
M 53.21875 1.3125 
L 66.21875 -12.890625 
L 54.296875 -12.890625 
L 43.5 -1.21875 
Q 41.890625 -1.3125 41.03125 -1.359375 
Q 40.1875 -1.421875 39.40625 -1.421875 
Q 24.03125 -1.421875 14.8125 8.859375 
Q 5.609375 19.140625 5.609375 36.375 
Q 5.609375 53.65625 14.8125 63.9375 
Q 24.03125 74.21875 39.40625 74.21875 
Q 54.734375 74.21875 63.90625 63.9375 
Q 73.09375 53.65625 73.09375 36.375 
Q 73.09375 23.6875 67.984375 14.640625 
Q 62.890625 5.609375 53.21875 1.3125 
z
" id="DejaVuSans-81"/>
      <path d="M 8.5 21.578125 
L 8.5 54.6875 
L 17.484375 54.6875 
L 17.484375 21.921875 
Q 17.484375 14.15625 20.5 10.265625 
Q 23.53125 6.390625 29.59375 6.390625 
Q 36.859375 6.390625 41.078125 11.03125 
Q 45.3125 15.671875 45.3125 23.6875 
L 45.3125 54.6875 
L 54.296875 54.6875 
L 54.296875 0 
L 45.3125 0 
L 45.3125 8.40625 
Q 42.046875 3.421875 37.71875 1 
Q 33.40625 -1.421875 27.6875 -1.421875 
Q 18.265625 -1.421875 13.375 4.4375 
Q 8.5 10.296875 8.5 21.578125 
z
M 31.109375 56 
z
" id="DejaVuSans-117"/>
      <path d="M 30.609375 48.390625 
Q 23.390625 48.390625 19.1875 42.75 
Q 14.984375 37.109375 14.984375 27.296875 
Q 14.984375 17.484375 19.15625 11.84375 
Q 23.34375 6.203125 30.609375 6.203125 
Q 37.796875 6.203125 41.984375 11.859375 
Q 46.1875 17.53125 46.1875 27.296875 
Q 46.1875 37.015625 41.984375 42.703125 
Q 37.796875 48.390625 30.609375 48.390625 
z
M 30.609375 56 
Q 42.328125 56 49.015625 48.375 
Q 55.71875 40.765625 55.71875 27.296875 
Q 55.71875 13.875 49.015625 6.21875 
Q 42.328125 -1.421875 30.609375 -1.421875 
Q 18.84375 -1.421875 12.171875 6.21875 
Q 5.515625 13.875 5.515625 27.296875 
Q 5.515625 40.765625 12.171875 48.375 
Q 18.84375 56 30.609375 56 
z
" id="DejaVuSans-111"/>
      <path d="M 18.3125 70.21875 
L 18.3125 54.6875 
L 36.8125 54.6875 
L 36.8125 47.703125 
L 18.3125 47.703125 
L 18.3125 18.015625 
Q 18.3125 11.328125 20.140625 9.421875 
Q 21.96875 7.515625 27.59375 7.515625 
L 36.8125 7.515625 
L 36.8125 0 
L 27.59375 0 
Q 17.1875 0 13.234375 3.875 
Q 9.28125 7.765625 9.28125 18.015625 
L 9.28125 47.703125 
L 2.6875 47.703125 
L 2.6875 54.6875 
L 9.28125 54.6875 
L 9.28125 70.21875 
z
" id="DejaVuSans-116"/>
      <path d="M 34.28125 27.484375 
Q 23.390625 27.484375 19.1875 25 
Q 14.984375 22.515625 14.984375 16.5 
Q 14.984375 11.71875 18.140625 8.90625 
Q 21.296875 6.109375 26.703125 6.109375 
Q 34.1875 6.109375 38.703125 11.40625 
Q 43.21875 16.703125 43.21875 25.484375 
L 43.21875 27.484375 
z
M 52.203125 31.203125 
L 52.203125 0 
L 43.21875 0 
L 43.21875 8.296875 
Q 40.140625 3.328125 35.546875 0.953125 
Q 30.953125 -1.421875 24.3125 -1.421875 
Q 15.921875 -1.421875 10.953125 3.296875 
Q 6 8.015625 6 15.921875 
Q 6 25.140625 12.171875 29.828125 
Q 18.359375 34.515625 30.609375 34.515625 
L 43.21875 34.515625 
L 43.21875 35.40625 
Q 43.21875 41.609375 39.140625 45 
Q 35.0625 48.390625 27.6875 48.390625 
Q 23 48.390625 18.546875 47.265625 
Q 14.109375 46.140625 10.015625 43.890625 
L 10.015625 52.203125 
Q 14.9375 54.109375 19.578125 55.046875 
Q 24.21875 56 28.609375 56 
Q 40.484375 56 46.34375 49.84375 
Q 52.203125 43.703125 52.203125 31.203125 
z
" id="DejaVuSans-97"/>
      <path id="DejaVuSans-32"/>
      <path d="M 8.59375 75.984375 
L 29.296875 75.984375 
L 29.296875 69 
L 17.578125 69 
L 17.578125 -6.203125 
L 29.296875 -6.203125 
L 29.296875 -13.1875 
L 8.59375 -13.1875 
z
" id="DejaVuSans-91"/>
      <path d="M 52 44.1875 
Q 55.375 50.25 60.0625 53.125 
Q 64.75 56 71.09375 56 
Q 79.640625 56 84.28125 50.015625 
Q 88.921875 44.046875 88.921875 33.015625 
L 88.921875 0 
L 79.890625 0 
L 79.890625 32.71875 
Q 79.890625 40.578125 77.09375 44.375 
Q 74.3125 48.1875 68.609375 48.1875 
Q 61.625 48.1875 57.5625 43.546875 
Q 53.515625 38.921875 53.515625 30.90625 
L 53.515625 0 
L 44.484375 0 
L 44.484375 32.71875 
Q 44.484375 40.625 41.703125 44.40625 
Q 38.921875 48.1875 33.109375 48.1875 
Q 26.21875 48.1875 22.15625 43.53125 
Q 18.109375 38.875 18.109375 30.90625 
L 18.109375 0 
L 9.078125 0 
L 9.078125 54.6875 
L 18.109375 54.6875 
L 18.109375 46.1875 
Q 21.1875 51.21875 25.484375 53.609375 
Q 29.78125 56 35.6875 56 
Q 41.65625 56 45.828125 52.96875 
Q 50 49.953125 52 44.1875 
z
" id="DejaVuSans-109"/>
      <path d="M 30.421875 75.984375 
L 30.421875 -13.1875 
L 9.71875 -13.1875 
L 9.71875 -6.203125 
L 21.390625 -6.203125 
L 21.390625 69 
L 9.71875 69 
L 9.71875 75.984375 
z
" id="DejaVuSans-93"/>
     </defs>
     <g transform="translate(417.250781 540.916563)scale(0.1 -0.1)">
      <use xlink:href="#DejaVuSans-81"/>
      <use x="78.710938" xlink:href="#DejaVuSans-117"/>
      <use x="142.089844" xlink:href="#DejaVuSans-111"/>
      <use x="203.271484" xlink:href="#DejaVuSans-116"/>
      <use x="242.480469" xlink:href="#DejaVuSans-97"/>
      <use x="303.759766" xlink:href="#DejaVuSans-32"/>
      <use x="335.546875" xlink:href="#DejaVuSans-91"/>
      <use x="374.560547" xlink:href="#DejaVuSans-109"/>
      <use x="471.972656" xlink:href="#DejaVuSans-93"/>
     </g>
    </g>
   </g>
   <g id="matplotlib.axis_2">
    <g id="ytick_1">
     <g id="line2d_13">
      <path clip-path="url(#p07da6d36f3)" d="M 108 476.046233 
L 777.6 476.046233 
" style="fill:none;stroke:#b0b0b0;stroke-linecap:square;stroke-width:0.8;"/>
     </g>
     <g id="line2d_14">
      <defs>
       <path d="M 0 0 
L -3.5 0 
" id="mdb519c1318" style="stroke:#000000;stroke-width:0.8;"/>
      </defs>
      <g>
       <use style="stroke:#000000;stroke-width:0.8;" x="108" xlink:href="#mdb519c1318" y="476.046233"/>
      </g>
     </g>
     <g id="text_8">
      <!-- 1.5 -->
      <defs>
       <path d="M 10.6875 12.40625 
L 21 12.40625 
L 21 0 
L 10.6875 0 
z
" id="DejaVuSans-46"/>
      </defs>
      <g transform="translate(85.096875 479.845452)scale(0.1 -0.1)">
       <use xlink:href="#DejaVuSans-49"/>
       <use x="63.623047" xlink:href="#DejaVuSans-46"/>
       <use x="95.410156" xlink:href="#DejaVuSans-53"/>
      </g>
     </g>
    </g>
    <g id="ytick_2">
     <g id="line2d_15">
      <path clip-path="url(#p07da6d36f3)" d="M 108 408.155831 
L 777.6 408.155831 
" style="fill:none;stroke:#b0b0b0;stroke-linecap:square;stroke-width:0.8;"/>
     </g>
     <g id="line2d_16">
      <g>
       <use style="stroke:#000000;stroke-width:0.8;" x="108" xlink:href="#mdb519c1318" y="408.155831"/>
      </g>
     </g>
     <g id="text_9">
      <!-- 1.6 -->
      <defs>
       <path d="M 33.015625 40.375 
Q 26.375 40.375 22.484375 35.828125 
Q 18.609375 31.296875 18.609375 23.390625 
Q 18.609375 15.53125 22.484375 10.953125 
Q 26.375 6.390625 33.015625 6.390625 
Q 39.65625 6.390625 43.53125 10.953125 
Q 47.40625 15.53125 47.40625 23.390625 
Q 47.40625 31.296875 43.53125 35.828125 
Q 39.65625 40.375 33.015625 40.375 
z
M 52.59375 71.296875 
L 52.59375 62.3125 
Q 48.875 64.0625 45.09375 64.984375 
Q 41.3125 65.921875 37.59375 65.921875 
Q 27.828125 65.921875 22.671875 59.328125 
Q 17.53125 52.734375 16.796875 39.40625 
Q 19.671875 43.65625 24.015625 45.921875 
Q 28.375 48.1875 33.59375 48.1875 
Q 44.578125 48.1875 50.953125 41.515625 
Q 57.328125 34.859375 57.328125 23.390625 
Q 57.328125 12.15625 50.6875 5.359375 
Q 44.046875 -1.421875 33.015625 -1.421875 
Q 20.359375 -1.421875 13.671875 8.265625 
Q 6.984375 17.96875 6.984375 36.375 
Q 6.984375 53.65625 15.1875 63.9375 
Q 23.390625 74.21875 37.203125 74.21875 
Q 40.921875 74.21875 44.703125 73.484375 
Q 48.484375 72.75 52.59375 71.296875 
z
" id="DejaVuSans-54"/>
      </defs>
      <g transform="translate(85.096875 411.95505)scale(0.1 -0.1)">
       <use xlink:href="#DejaVuSans-49"/>
       <use x="63.623047" xlink:href="#DejaVuSans-46"/>
       <use x="95.410156" xlink:href="#DejaVuSans-54"/>
      </g>
     </g>
    </g>
    <g id="ytick_3">
     <g id="line2d_17">
      <path clip-path="url(#p07da6d36f3)" d="M 108 340.265429 
L 777.6 340.265429 
" style="fill:none;stroke:#b0b0b0;stroke-linecap:square;stroke-width:0.8;"/>
     </g>
     <g id="line2d_18">
      <g>
       <use style="stroke:#000000;stroke-width:0.8;" x="108" xlink:href="#mdb519c1318" y="340.265429"/>
      </g>
     </g>
     <g id="text_10">
      <!-- 1.7 -->
      <defs>
       <path d="M 8.203125 72.90625 
L 55.078125 72.90625 
L 55.078125 68.703125 
L 28.609375 0 
L 18.3125 0 
L 43.21875 64.59375 
L 8.203125 64.59375 
z
" id="DejaVuSans-55"/>
      </defs>
      <g transform="translate(85.096875 344.064648)scale(0.1 -0.1)">
       <use xlink:href="#DejaVuSans-49"/>
       <use x="63.623047" xlink:href="#DejaVuSans-46"/>
       <use x="95.410156" xlink:href="#DejaVuSans-55"/>
      </g>
     </g>
    </g>
    <g id="ytick_4">
     <g id="line2d_19">
      <path clip-path="url(#p07da6d36f3)" d="M 108 272.375027 
L 777.6 272.375027 
" style="fill:none;stroke:#b0b0b0;stroke-linecap:square;stroke-width:0.8;"/>
     </g>
     <g id="line2d_20">
      <g>
       <use style="stroke:#000000;stroke-width:0.8;" x="108" xlink:href="#mdb519c1318" y="272.375027"/>
      </g>
     </g>
     <g id="text_11">
      <!-- 1.8 -->
      <defs>
       <path d="M 31.78125 34.625 
Q 24.75 34.625 20.71875 30.859375 
Q 16.703125 27.09375 16.703125 20.515625 
Q 16.703125 13.921875 20.71875 10.15625 
Q 24.75 6.390625 31.78125 6.390625 
Q 38.8125 6.390625 42.859375 10.171875 
Q 46.921875 13.96875 46.921875 20.515625 
Q 46.921875 27.09375 42.890625 30.859375 
Q 38.875 34.625 31.78125 34.625 
z
M 21.921875 38.8125 
Q 15.578125 40.375 12.03125 44.71875 
Q 8.5 49.078125 8.5 55.328125 
Q 8.5 64.0625 14.71875 69.140625 
Q 20.953125 74.21875 31.78125 74.21875 
Q 42.671875 74.21875 48.875 69.140625 
Q 55.078125 64.0625 55.078125 55.328125 
Q 55.078125 49.078125 51.53125 44.71875 
Q 48 40.375 41.703125 38.8125 
Q 48.828125 37.15625 52.796875 32.3125 
Q 56.78125 27.484375 56.78125 20.515625 
Q 56.78125 9.90625 50.3125 4.234375 
Q 43.84375 -1.421875 31.78125 -1.421875 
Q 19.734375 -1.421875 13.25 4.234375 
Q 6.78125 9.90625 6.78125 20.515625 
Q 6.78125 27.484375 10.78125 32.3125 
Q 14.796875 37.15625 21.921875 38.8125 
z
M 18.3125 54.390625 
Q 18.3125 48.734375 21.84375 45.5625 
Q 25.390625 42.390625 31.78125 42.390625 
Q 38.140625 42.390625 41.71875 45.5625 
Q 45.3125 48.734375 45.3125 54.390625 
Q 45.3125 60.0625 41.71875 63.234375 
Q 38.140625 66.40625 31.78125 66.40625 
Q 25.390625 66.40625 21.84375 63.234375 
Q 18.3125 60.0625 18.3125 54.390625 
z
" id="DejaVuSans-56"/>
      </defs>
      <g transform="translate(85.096875 276.174246)scale(0.1 -0.1)">
       <use xlink:href="#DejaVuSans-49"/>
       <use x="63.623047" xlink:href="#DejaVuSans-46"/>
       <use x="95.410156" xlink:href="#DejaVuSans-56"/>
      </g>
     </g>
    </g>
    <g id="ytick_5">
     <g id="line2d_21">
      <path clip-path="url(#p07da6d36f3)" d="M 108 204.484625 
L 777.6 204.484625 
" style="fill:none;stroke:#b0b0b0;stroke-linecap:square;stroke-width:0.8;"/>
     </g>
     <g id="line2d_22">
      <g>
       <use style="stroke:#000000;stroke-width:0.8;" x="108" xlink:href="#mdb519c1318" y="204.484625"/>
      </g>
     </g>
     <g id="text_12">
      <!-- 1.9 -->
      <defs>
       <path d="M 10.984375 1.515625 
L 10.984375 10.5 
Q 14.703125 8.734375 18.5 7.8125 
Q 22.3125 6.890625 25.984375 6.890625 
Q 35.75 6.890625 40.890625 13.453125 
Q 46.046875 20.015625 46.78125 33.40625 
Q 43.953125 29.203125 39.59375 26.953125 
Q 35.25 24.703125 29.984375 24.703125 
Q 19.046875 24.703125 12.671875 31.3125 
Q 6.296875 37.9375 6.296875 49.421875 
Q 6.296875 60.640625 12.9375 67.421875 
Q 19.578125 74.21875 30.609375 74.21875 
Q 43.265625 74.21875 49.921875 64.515625 
Q 56.59375 54.828125 56.59375 36.375 
Q 56.59375 19.140625 48.40625 8.859375 
Q 40.234375 -1.421875 26.421875 -1.421875 
Q 22.703125 -1.421875 18.890625 -0.6875 
Q 15.09375 0.046875 10.984375 1.515625 
z
M 30.609375 32.421875 
Q 37.25 32.421875 41.125 36.953125 
Q 45.015625 41.5 45.015625 49.421875 
Q 45.015625 57.28125 41.125 61.84375 
Q 37.25 66.40625 30.609375 66.40625 
Q 23.96875 66.40625 20.09375 61.84375 
Q 16.21875 57.28125 16.21875 49.421875 
Q 16.21875 41.5 20.09375 36.953125 
Q 23.96875 32.421875 30.609375 32.421875 
z
" id="DejaVuSans-57"/>
      </defs>
      <g transform="translate(85.096875 208.283844)scale(0.1 -0.1)">
       <use xlink:href="#DejaVuSans-49"/>
       <use x="63.623047" xlink:href="#DejaVuSans-46"/>
       <use x="95.410156" xlink:href="#DejaVuSans-57"/>
      </g>
     </g>
    </g>
    <g id="ytick_6">
     <g id="line2d_23">
      <path clip-path="url(#p07da6d36f3)" d="M 108 136.594223 
L 777.6 136.594223 
" style="fill:none;stroke:#b0b0b0;stroke-linecap:square;stroke-width:0.8;"/>
     </g>
     <g id="line2d_24">
      <g>
       <use style="stroke:#000000;stroke-width:0.8;" x="108" xlink:href="#mdb519c1318" y="136.594223"/>
      </g>
     </g>
     <g id="text_13">
      <!-- 2.0 -->
      <g transform="translate(85.096875 140.393442)scale(0.1 -0.1)">
       <use xlink:href="#DejaVuSans-50"/>
       <use x="63.623047" xlink:href="#DejaVuSans-46"/>
       <use x="95.410156" xlink:href="#DejaVuSans-48"/>
      </g>
     </g>
    </g>
    <g id="text_14">
     <!-- Coefficiente di spinta [-] -->
     <defs>
      <path d="M 64.40625 67.28125 
L 64.40625 56.890625 
Q 59.421875 61.53125 53.78125 63.8125 
Q 48.140625 66.109375 41.796875 66.109375 
Q 29.296875 66.109375 22.65625 58.46875 
Q 16.015625 50.828125 16.015625 36.375 
Q 16.015625 21.96875 22.65625 14.328125 
Q 29.296875 6.6875 41.796875 6.6875 
Q 48.140625 6.6875 53.78125 8.984375 
Q 59.421875 11.28125 64.40625 15.921875 
L 64.40625 5.609375 
Q 59.234375 2.09375 53.4375 0.328125 
Q 47.65625 -1.421875 41.21875 -1.421875 
Q 24.65625 -1.421875 15.125 8.703125 
Q 5.609375 18.84375 5.609375 36.375 
Q 5.609375 53.953125 15.125 64.078125 
Q 24.65625 74.21875 41.21875 74.21875 
Q 47.75 74.21875 53.53125 72.484375 
Q 59.328125 70.75 64.40625 67.28125 
z
" id="DejaVuSans-67"/>
      <path d="M 56.203125 29.59375 
L 56.203125 25.203125 
L 14.890625 25.203125 
Q 15.484375 15.921875 20.484375 11.0625 
Q 25.484375 6.203125 34.421875 6.203125 
Q 39.59375 6.203125 44.453125 7.46875 
Q 49.3125 8.734375 54.109375 11.28125 
L 54.109375 2.78125 
Q 49.265625 0.734375 44.1875 -0.34375 
Q 39.109375 -1.421875 33.890625 -1.421875 
Q 20.796875 -1.421875 13.15625 6.1875 
Q 5.515625 13.8125 5.515625 26.8125 
Q 5.515625 40.234375 12.765625 48.109375 
Q 20.015625 56 32.328125 56 
Q 43.359375 56 49.78125 48.890625 
Q 56.203125 41.796875 56.203125 29.59375 
z
M 47.21875 32.234375 
Q 47.125 39.59375 43.09375 43.984375 
Q 39.0625 48.390625 32.421875 48.390625 
Q 24.90625 48.390625 20.390625 44.140625 
Q 15.875 39.890625 15.1875 32.171875 
z
" id="DejaVuSans-101"/>
      <path d="M 37.109375 75.984375 
L 37.109375 68.5 
L 28.515625 68.5 
Q 23.6875 68.5 21.796875 66.546875 
Q 19.921875 64.59375 19.921875 59.515625 
L 19.921875 54.6875 
L 34.71875 54.6875 
L 34.71875 47.703125 
L 19.921875 47.703125 
L 19.921875 0 
L 10.890625 0 
L 10.890625 47.703125 
L 2.296875 47.703125 
L 2.296875 54.6875 
L 10.890625 54.6875 
L 10.890625 58.5 
Q 10.890625 67.625 15.140625 71.796875 
Q 19.390625 75.984375 28.609375 75.984375 
z
" id="DejaVuSans-102"/>
      <path d="M 9.421875 54.6875 
L 18.40625 54.6875 
L 18.40625 0 
L 9.421875 0 
z
M 9.421875 75.984375 
L 18.40625 75.984375 
L 18.40625 64.59375 
L 9.421875 64.59375 
z
" id="DejaVuSans-105"/>
      <path d="M 48.78125 52.59375 
L 48.78125 44.1875 
Q 44.96875 46.296875 41.140625 47.34375 
Q 37.3125 48.390625 33.40625 48.390625 
Q 24.65625 48.390625 19.8125 42.84375 
Q 14.984375 37.3125 14.984375 27.296875 
Q 14.984375 17.28125 19.8125 11.734375 
Q 24.65625 6.203125 33.40625 6.203125 
Q 37.3125 6.203125 41.140625 7.25 
Q 44.96875 8.296875 48.78125 10.40625 
L 48.78125 2.09375 
Q 45.015625 0.34375 40.984375 -0.53125 
Q 36.96875 -1.421875 32.421875 -1.421875 
Q 20.0625 -1.421875 12.78125 6.34375 
Q 5.515625 14.109375 5.515625 27.296875 
Q 5.515625 40.671875 12.859375 48.328125 
Q 20.21875 56 33.015625 56 
Q 37.15625 56 41.109375 55.140625 
Q 45.0625 54.296875 48.78125 52.59375 
z
" id="DejaVuSans-99"/>
      <path d="M 54.890625 33.015625 
L 54.890625 0 
L 45.90625 0 
L 45.90625 32.71875 
Q 45.90625 40.484375 42.875 44.328125 
Q 39.84375 48.1875 33.796875 48.1875 
Q 26.515625 48.1875 22.3125 43.546875 
Q 18.109375 38.921875 18.109375 30.90625 
L 18.109375 0 
L 9.078125 0 
L 9.078125 54.6875 
L 18.109375 54.6875 
L 18.109375 46.1875 
Q 21.34375 51.125 25.703125 53.5625 
Q 30.078125 56 35.796875 56 
Q 45.21875 56 50.046875 50.171875 
Q 54.890625 44.34375 54.890625 33.015625 
z
" id="DejaVuSans-110"/>
      <path d="M 45.40625 46.390625 
L 45.40625 75.984375 
L 54.390625 75.984375 
L 54.390625 0 
L 45.40625 0 
L 45.40625 8.203125 
Q 42.578125 3.328125 38.25 0.953125 
Q 33.9375 -1.421875 27.875 -1.421875 
Q 17.96875 -1.421875 11.734375 6.484375 
Q 5.515625 14.40625 5.515625 27.296875 
Q 5.515625 40.1875 11.734375 48.09375 
Q 17.96875 56 27.875 56 
Q 33.9375 56 38.25 53.625 
Q 42.578125 51.265625 45.40625 46.390625 
z
M 14.796875 27.296875 
Q 14.796875 17.390625 18.875 11.75 
Q 22.953125 6.109375 30.078125 6.109375 
Q 37.203125 6.109375 41.296875 11.75 
Q 45.40625 17.390625 45.40625 27.296875 
Q 45.40625 37.203125 41.296875 42.84375 
Q 37.203125 48.484375 30.078125 48.484375 
Q 22.953125 48.484375 18.875 42.84375 
Q 14.796875 37.203125 14.796875 27.296875 
z
" id="DejaVuSans-100"/>
      <path d="M 44.28125 53.078125 
L 44.28125 44.578125 
Q 40.484375 46.53125 36.375 47.5 
Q 32.28125 48.484375 27.875 48.484375 
Q 21.1875 48.484375 17.84375 46.4375 
Q 14.5 44.390625 14.5 40.28125 
Q 14.5 37.15625 16.890625 35.375 
Q 19.28125 33.59375 26.515625 31.984375 
L 29.59375 31.296875 
Q 39.15625 29.25 43.1875 25.515625 
Q 47.21875 21.78125 47.21875 15.09375 
Q 47.21875 7.46875 41.1875 3.015625 
Q 35.15625 -1.421875 24.609375 -1.421875 
Q 20.21875 -1.421875 15.453125 -0.5625 
Q 10.6875 0.296875 5.421875 2 
L 5.421875 11.28125 
Q 10.40625 8.6875 15.234375 7.390625 
Q 20.0625 6.109375 24.8125 6.109375 
Q 31.15625 6.109375 34.5625 8.28125 
Q 37.984375 10.453125 37.984375 14.40625 
Q 37.984375 18.0625 35.515625 20.015625 
Q 33.0625 21.96875 24.703125 23.78125 
L 21.578125 24.515625 
Q 13.234375 26.265625 9.515625 29.90625 
Q 5.8125 33.546875 5.8125 39.890625 
Q 5.8125 47.609375 11.28125 51.796875 
Q 16.75 56 26.8125 56 
Q 31.78125 56 36.171875 55.265625 
Q 40.578125 54.546875 44.28125 53.078125 
z
" id="DejaVuSans-115"/>
      <path d="M 18.109375 8.203125 
L 18.109375 -20.796875 
L 9.078125 -20.796875 
L 9.078125 54.6875 
L 18.109375 54.6875 
L 18.109375 46.390625 
Q 20.953125 51.265625 25.265625 53.625 
Q 29.59375 56 35.59375 56 
Q 45.5625 56 51.78125 48.09375 
Q 58.015625 40.1875 58.015625 27.296875 
Q 58.015625 14.40625 51.78125 6.484375 
Q 45.5625 -1.421875 35.59375 -1.421875 
Q 29.59375 -1.421875 25.265625 0.953125 
Q 20.953125 3.328125 18.109375 8.203125 
z
M 48.6875 27.296875 
Q 48.6875 37.203125 44.609375 42.84375 
Q 40.53125 48.484375 33.40625 48.484375 
Q 26.265625 48.484375 22.1875 42.84375 
Q 18.109375 37.203125 18.109375 27.296875 
Q 18.109375 17.390625 22.1875 11.75 
Q 26.265625 6.109375 33.40625 6.109375 
Q 40.53125 6.109375 44.609375 11.75 
Q 48.6875 17.390625 48.6875 27.296875 
z
" id="DejaVuSans-112"/>
      <path d="M 4.890625 31.390625 
L 31.203125 31.390625 
L 31.203125 23.390625 
L 4.890625 23.390625 
z
" id="DejaVuSans-45"/>
     </defs>
     <g transform="translate(79.017187 351.233906)rotate(-90)scale(0.1 -0.1)">
      <use xlink:href="#DejaVuSans-67"/>
      <use x="69.824219" xlink:href="#DejaVuSans-111"/>
      <use x="131.005859" xlink:href="#DejaVuSans-101"/>
      <use x="192.529297" xlink:href="#DejaVuSans-102"/>
      <use x="227.734375" xlink:href="#DejaVuSans-102"/>
      <use x="262.939453" xlink:href="#DejaVuSans-105"/>
      <use x="290.722656" xlink:href="#DejaVuSans-99"/>
      <use x="345.703125" xlink:href="#DejaVuSans-105"/>
      <use x="373.486328" xlink:href="#DejaVuSans-101"/>
      <use x="435.009766" xlink:href="#DejaVuSans-110"/>
      <use x="498.388672" xlink:href="#DejaVuSans-116"/>
      <use x="537.597656" xlink:href="#DejaVuSans-101"/>
      <use x="599.121094" xlink:href="#DejaVuSans-32"/>
      <use x="630.908203" xlink:href="#DejaVuSans-100"/>
      <use x="694.384766" xlink:href="#DejaVuSans-105"/>
      <use x="722.167969" xlink:href="#DejaVuSans-32"/>
      <use x="753.955078" xlink:href="#DejaVuSans-115"/>
      <use x="806.054688" xlink:href="#DejaVuSans-112"/>
      <use x="869.53125" xlink:href="#DejaVuSans-105"/>
      <use x="897.314453" xlink:href="#DejaVuSans-110"/>
      <use x="960.693359" xlink:href="#DejaVuSans-116"/>
      <use x="999.902344" xlink:href="#DejaVuSans-97"/>
      <use x="1061.181641" xlink:href="#DejaVuSans-32"/>
      <use x="1092.96875" xlink:href="#DejaVuSans-91"/>
      <use x="1131.982422" xlink:href="#DejaVuSans-45"/>
      <use x="1168.066406" xlink:href="#DejaVuSans-93"/>
     </g>
    </g>
   </g>
   <g id="line2d_25">
    <path clip-path="url(#p07da6d36f3)" d="M 138.436364 492.48 
L 142.315002 433.524502 
L 146.19364 386.077514 
L 150.072278 347.613053 
L 153.950916 316.21726 
L 157.829554 290.426887 
L 161.708192 269.113679 
L 165.58683 250.393244 
L 169.465468 226.837657 
L 173.344106 208.514174 
L 177.222744 194.260654 
L 181.101382 183.173087 
L 184.98002 174.54826 
L 188.858658 167.839157 
L 192.737296 162.620262 
L 196.615934 158.560574 
L 200.494572 155.402613 
L 204.37321 152.946089 
L 208.251848 151.035202 
L 212.130486 149.548757 
L 216.009124 148.392476 
L 219.887762 147.493025 
L 223.7664 146.793358 
L 227.645038 146.2491 
L 231.523676 145.82573 
L 235.402314 145.496398 
L 239.280952 145.240217 
L 243.15959 145.040937 
L 247.038228 144.885921 
L 250.916866 144.765337 
L 254.795504 144.671537 
L 258.674142 144.598571 
L 262.55278 144.541813 
L 266.431418 144.497661 
L 270.310056 144.463316 
L 274.188694 144.4366 
L 278.067332 144.415818 
L 281.94597 144.399652 
L 285.824608 144.387077 
L 289.703246 144.377295 
L 293.581884 144.369685 
L 297.460522 144.363766 
L 301.33916 144.359162 
L 305.217798 144.35558 
L 309.096436 144.352794 
L 312.975074 144.350627 
L 316.853712 144.348941 
L 320.73235 144.347629 
L 324.610988 144.346609 
L 328.489626 144.345816 
L 332.368264 144.345198 
L 336.246902 144.344718 
L 340.12554 144.344345 
L 344.004179 144.344054 
L 347.882817 144.343828 
L 351.761455 144.343652 
L 355.640093 144.343516 
L 359.518731 144.343409 
L 363.397369 144.343326 
L 367.276007 144.343262 
L 371.154645 144.343212 
L 375.033283 144.343173 
L 378.911921 144.343143 
L 382.790559 144.343119 
L 386.669197 144.343101 
L 390.547835 144.343087 
L 394.426473 144.343075 
L 398.305111 144.343067 
L 402.183749 144.34306 
L 406.062387 144.343055 
L 409.941025 144.343051 
L 413.819663 144.343048 
L 417.698301 144.343045 
L 421.576939 144.343043 
L 425.455577 144.343042 
L 429.334215 144.343041 
L 433.212853 144.34304 
L 437.091491 144.343039 
L 440.970129 144.343038 
L 444.848767 144.343038 
L 448.727405 144.343038 
L 452.606043 144.343037 
L 456.484681 144.343037 
L 460.363319 144.343037 
L 464.241957 144.343037 
L 468.120595 144.343037 
L 471.999233 144.343037 
L 475.877871 144.343037 
L 479.756509 144.343037 
L 483.635147 144.343037 
L 487.513785 144.343037 
L 491.392423 144.343037 
L 495.271061 144.343037 
L 499.149699 144.343037 
L 503.028337 144.343037 
L 506.906975 144.343037 
L 510.785613 144.343037 
L 514.664251 144.343037 
L 518.542889 144.343037 
L 522.421527 144.343037 
" style="fill:none;stroke:#cc3300;stroke-linecap:square;stroke-width:1.5;"/>
   </g>
   <g id="line2d_26">
    <path clip-path="url(#p07da6d36f3)" d="M 522.421527 137.195555 
L 524.69165 137.195555 
L 526.961772 137.195555 
L 529.231894 137.195555 
L 531.502017 137.195555 
L 533.772139 137.195555 
L 536.042261 137.195555 
L 538.312383 137.195555 
L 540.582506 137.195555 
L 542.852628 137.195555 
L 545.12275 137.195555 
L 547.392873 137.195555 
L 549.662995 137.195555 
L 551.933117 137.195555 
L 554.20324 137.195555 
L 556.473362 137.195555 
L 558.743484 137.195555 
L 561.013607 137.195555 
L 563.283729 137.195555 
L 565.553851 137.195555 
L 567.823974 137.195555 
L 570.094096 137.195555 
L 572.364218 137.195555 
L 574.63434 137.195555 
L 576.904463 137.195555 
L 579.174585 137.195555 
L 581.444707 137.195555 
L 583.71483 137.195555 
L 585.984952 137.195555 
L 588.255074 137.195555 
L 590.525197 137.195555 
L 592.795319 137.195555 
L 595.065441 137.195555 
L 597.335564 137.195555 
L 599.605686 137.195555 
L 601.875808 137.195555 
L 604.145931 137.195555 
L 606.416053 137.195555 
L 608.686175 137.195555 
L 610.956298 137.195555 
L 613.22642 137.195555 
L 615.496542 137.195555 
L 617.766664 137.195555 
L 620.036787 137.195555 
L 622.306909 137.195555 
L 624.577031 137.195555 
L 626.847154 137.195555 
L 629.117276 137.195555 
L 631.387398 137.195555 
L 633.657521 137.195555 
L 635.927643 137.195555 
L 638.197765 137.195555 
L 640.467888 137.195555 
L 642.73801 137.195555 
L 645.008132 137.195555 
L 647.278255 137.195555 
L 649.548377 137.195555 
L 651.818499 137.195555 
L 654.088621 137.195555 
L 656.358744 137.195555 
L 658.628866 137.195555 
L 660.898988 137.195555 
L 663.169111 137.195555 
L 665.439233 137.195555 
L 667.709355 137.195555 
L 669.979478 137.195555 
L 672.2496 137.195555 
L 674.519722 137.195555 
L 676.789845 137.195555 
L 679.059967 137.195555 
L 681.330089 137.195555 
L 683.600212 137.195555 
L 685.870334 137.195555 
L 688.140456 137.195555 
L 690.410579 137.195555 
L 692.680701 137.195555 
L 694.950823 137.195555 
L 697.220945 137.195555 
L 699.491068 137.195555 
L 701.76119 137.195555 
L 704.031312 137.195555 
L 706.301435 137.195555 
L 708.571557 137.195555 
L 710.841679 137.195555 
L 713.111802 137.195555 
L 715.381924 137.195555 
L 717.652046 137.195555 
L 719.922169 137.195555 
L 722.192291 137.195555 
L 724.462413 137.195555 
L 726.732536 137.195555 
L 729.002658 137.195555 
L 731.27278 137.195555 
L 733.542902 137.195555 
L 735.813025 137.195555 
L 738.083147 137.195555 
L 740.353269 137.195555 
L 742.623392 137.195555 
L 744.893514 137.195555 
L 747.163636 137.195555 
" style="fill:none;stroke:#cc3300;stroke-dasharray:9.6,2.4,1.5,2.4;stroke-dashoffset:0;stroke-width:1.5;"/>
   </g>
   <g id="line2d_27">
    <path clip-path="url(#p07da6d36f3)" d="M 138.436364 346.025014 
L 140.699107 335.688758 
L 142.961851 326.598754 
L 145.224595 318.584038 
L 147.487339 311.499834 
L 149.750083 305.223138 
L 152.012826 299.649114 
L 154.27557 294.688137 
L 156.538314 290.263364 
L 158.801058 286.308724 
L 161.063802 282.767254 
L 163.326545 279.589715 
L 165.589289 276.44196 
L 167.852033 272.288082 
L 170.114777 268.700394 
L 172.377521 265.601724 
L 174.640264 262.925415 
L 176.903008 260.613899 
L 179.165752 258.617452 
L 181.428496 256.893129 
L 183.69124 255.403838 
L 185.953983 254.117545 
L 188.216727 253.006578 
L 190.479471 252.047041 
L 192.742215 251.218293 
L 195.004959 250.502506 
L 197.267702 249.884285 
L 199.530446 249.350329 
L 201.79319 248.889154 
L 204.055934 248.490839 
L 206.318678 248.146817 
L 208.581421 247.849685 
L 210.844165 247.593055 
L 213.106909 247.371403 
L 215.369653 247.179964 
L 217.632397 247.014619 
L 219.89514 246.871811 
L 222.157884 246.748469 
L 224.420628 246.641938 
L 226.683372 246.549929 
L 228.946116 246.47046 
L 231.20886 246.401823 
L 233.471603 246.342542 
L 235.734347 246.291341 
L 237.997091 246.247119 
L 240.259835 246.208925 
L 242.522579 246.175936 
L 244.785322 246.147445 
L 247.048066 246.122836 
L 249.31081 246.101582 
L 251.573554 246.083225 
L 253.836298 246.06737 
L 256.099041 246.053676 
L 258.361785 246.041849 
L 260.624529 246.031634 
L 262.887273 246.022811 
L 265.150017 246.015191 
L 267.41276 246.008609 
L 269.675504 246.002925 
L 271.938248 245.998015 
L 274.200992 245.993775 
L 276.463736 245.990112 
L 278.726479 245.986949 
L 280.989223 245.984217 
L 283.251967 245.981857 
L 285.514711 245.979819 
L 287.777455 245.978059 
L 290.040198 245.976539 
L 292.302942 245.975226 
L 294.565686 245.974091 
L 296.82843 245.973112 
L 299.091174 245.972266 
L 301.353917 245.971535 
L 303.616661 245.970904 
L 305.879405 245.970359 
L 308.142149 245.969888 
L 310.404893 245.969482 
L 312.667636 245.96913 
L 314.93038 245.968827 
L 317.193124 245.968565 
L 319.455868 245.968339 
L 321.718612 245.968143 
L 323.981355 245.967975 
L 326.244099 245.967829 
L 328.506843 245.967703 
L 330.769587 245.967594 
L 333.032331 245.9675 
L 335.295074 245.967419 
L 337.557818 245.967349 
L 339.820562 245.967289 
L 342.083306 245.967236 
L 344.34605 245.967191 
L 346.608793 245.967152 
L 348.871537 245.967118 
L 351.134281 245.967089 
L 353.397025 245.967064 
L 355.659769 245.967043 
L 357.922512 245.967024 
L 360.185256 245.967008 
L 362.448 245.966994 
" style="fill:none;stroke:#009900;stroke-linecap:square;stroke-width:1.5;"/>
   </g>
   <g id="line2d_28">
    <path clip-path="url(#p07da6d36f3)" d="M 138.436364 346.025014 
L 139.961256 338.913202 
L 141.486149 332.394984 
L 143.011041 326.413655 
L 144.535934 320.918593 
L 146.060826 315.864538 
L 147.585719 311.210961 
L 149.110612 306.92152 
L 150.635504 302.963575 
L 152.160397 299.307779 
L 153.685289 295.927701 
L 155.210182 292.799511 
L 156.735074 289.901696 
L 158.259967 287.214808 
L 159.78486 284.721244 
L 161.309752 282.405056 
L 162.834645 280.251775 
L 164.359537 278.24826 
L 165.88443 275.865015 
L 167.409322 273.053627 
L 168.934215 270.5066 
L 170.459107 268.199076 
L 171.984 266.108534 
L 173.508893 264.21457 
L 175.033785 262.4987 
L 176.558678 260.944177 
L 178.08357 259.53583 
L 179.608463 258.259912 
L 181.133355 257.103973 
L 182.658248 256.056728 
L 184.18314 255.107959 
L 185.708033 254.248405 
L 187.232926 253.469676 
L 188.757818 252.764173 
L 190.282711 252.125011 
L 191.807603 251.54595 
L 193.332496 251.021339 
L 194.857388 250.546059 
L 196.382281 250.115471 
L 197.907174 249.725372 
L 199.432066 249.371954 
L 200.956959 249.05177 
L 202.481851 248.761693 
L 204.006744 248.498892 
L 205.531636 248.260804 
L 207.056529 248.045103 
L 208.581421 247.849685 
L 210.106314 247.672643 
L 211.631207 247.512249 
L 213.156099 247.366937 
L 214.680992 247.235288 
L 216.205884 247.116019 
L 217.730777 247.007965 
L 219.255669 246.910072 
L 220.780562 246.821384 
L 222.305455 246.741035 
L 223.830347 246.668242 
L 225.35524 246.602294 
L 226.880132 246.542547 
L 228.405025 246.488418 
L 229.929917 246.439379 
L 231.45481 246.394951 
L 232.979702 246.354701 
L 234.504595 246.318235 
L 236.029488 246.285199 
L 237.55438 246.255269 
L 239.079273 246.228154 
L 240.604165 246.203588 
L 242.129058 246.181332 
L 243.65395 246.161169 
L 245.178843 246.142902 
L 246.703736 246.126352 
L 248.228628 246.111359 
L 249.753521 246.097776 
L 251.278413 246.08547 
L 252.803306 246.074321 
L 254.328198 246.06422 
L 255.853091 246.05507 
L 257.377983 246.046779 
L 258.902876 246.039268 
L 260.427769 246.032464 
L 261.952661 246.026299 
L 263.477554 246.020714 
L 265.002446 246.015655 
L 266.527339 246.011071 
L 268.052231 246.006918 
L 269.577124 246.003155 
L 271.102017 245.999746 
L 272.626909 245.996658 
L 274.151802 245.99386 
L 275.676694 245.991326 
L 277.201587 245.989029 
L 278.726479 245.986949 
L 280.251372 245.985064 
L 281.776264 245.983357 
L 283.301157 245.98181 
L 284.82605 245.980408 
L 286.350942 245.979138 
L 287.875835 245.977988 
L 289.400727 245.976946 
" style="fill:none;stroke:#009900;stroke-dasharray:5.55,2.4;stroke-dashoffset:0;stroke-width:1.5;"/>
   </g>
   <g id="line2d_29">
    <path clip-path="url(#p07da6d36f3)" d="M 362.448 89.280913 
L 366.334017 89.28071 
L 370.220033 89.280552 
L 374.10605 89.280429 
L 377.992066 89.280334 
L 381.878083 89.28026 
L 385.764099 89.280202 
L 389.650116 89.280157 
L 393.536132 89.280122 
L 397.422149 89.280095 
L 401.308165 89.280074 
L 405.194182 89.280057 
L 409.080198 89.280045 
L 412.966215 89.280035 
L 416.852231 89.280027 
L 420.738248 89.280021 
L 424.624264 89.280016 
L 428.510281 89.280013 
L 432.396298 89.28001 
L 436.282314 89.280008 
L 440.168331 89.280006 
L 444.054347 89.280005 
L 447.940364 89.280004 
L 451.82638 89.280003 
L 455.712397 89.280002 
L 459.598413 89.280002 
L 463.48443 89.280001 
L 467.370446 89.280001 
L 471.256463 89.280001 
L 475.142479 89.280001 
L 479.028496 89.28 
L 482.914512 89.28 
L 486.800529 89.28 
L 490.686545 89.28 
L 494.572562 89.28 
L 498.458579 89.28 
L 502.344595 89.28 
L 506.230612 89.28 
L 510.116628 89.28 
L 514.002645 89.28 
L 517.888661 89.28 
L 521.774678 89.28 
L 525.660694 89.28 
L 529.546711 89.28 
L 533.432727 89.28 
L 537.318744 89.28 
L 541.20476 89.28 
L 545.090777 89.28 
L 548.976793 89.28 
L 552.86281 89.28 
L 556.748826 89.28 
L 560.634843 89.28 
L 564.52086 89.28 
L 568.406876 89.28 
L 572.292893 89.28 
L 576.178909 89.28 
L 580.064926 89.28 
L 583.950942 89.28 
L 587.836959 89.28 
L 591.722975 89.28 
L 595.608992 89.28 
L 599.495008 89.28 
L 603.381025 89.28 
L 607.267041 89.28 
L 611.153058 89.28 
L 615.039074 89.28 
L 618.925091 89.28 
L 622.811107 89.28 
L 626.697124 89.28 
L 630.58314 89.28 
L 634.469157 89.28 
L 638.355174 89.28 
L 642.24119 89.28 
L 646.127207 89.28 
L 650.013223 89.28 
L 653.89924 89.28 
L 657.785256 89.28 
L 661.671273 89.28 
L 665.557289 89.28 
L 669.443306 89.28 
L 673.329322 89.28 
L 677.215339 89.28 
L 681.101355 89.28 
L 684.987372 89.28 
L 688.873388 89.28 
L 692.759405 89.28 
L 696.645421 89.28 
L 700.531438 89.28 
L 704.417455 89.28 
L 708.303471 89.28 
L 712.189488 89.28 
L 716.075504 89.28 
L 719.961521 89.28 
L 723.847537 89.28 
L 727.733554 89.28 
L 731.61957 89.28 
L 735.505587 89.28 
L 739.391603 89.28 
L 743.27762 89.28 
L 747.163636 89.28 
" style="fill:none;stroke:#009900;stroke-dasharray:9.6,2.4,1.5,2.4;stroke-dashoffset:0;stroke-width:1.5;"/>
   </g>
   <g id="line2d_30">
    <path clip-path="url(#p07da6d36f3)" d="M 138.436364 404.94494 
L 140.035041 393.252893 
L 141.633719 382.581185 
L 143.232397 372.827969 
L 144.831074 363.902805 
L 146.429752 355.725251 
L 148.02843 348.223637 
L 149.627107 341.33401 
L 151.225785 334.999212 
L 152.824463 329.168081 
L 154.42314 323.794755 
L 156.021818 318.838067 
L 157.620496 314.261007 
L 159.219174 310.030261 
L 160.817851 306.115804 
L 162.416529 302.490534 
L 164.015207 299.129964 
L 165.613884 295.523926 
L 167.212562 290.821455 
L 168.81124 286.581477 
L 170.409917 282.758506 
L 172.008595 279.311527 
L 173.607273 276.203562 
L 175.20595 273.401268 
L 176.804628 270.874582 
L 178.403306 268.596399 
L 180.001983 266.542277 
L 181.600661 264.69018 
L 183.199339 263.020238 
L 184.798017 261.514537 
L 186.396694 260.156923 
L 187.995372 258.932832 
L 189.59405 257.829131 
L 191.192727 256.83398 
L 192.791405 255.936704 
L 194.390083 255.127675 
L 195.98876 254.398215 
L 197.587438 253.740498 
L 199.186116 253.147468 
L 200.784793 252.612764 
L 202.383471 252.130648 
L 203.982149 251.695948 
L 205.580826 251.304002 
L 207.179504 250.950604 
L 208.778182 250.631963 
L 210.37686 250.344661 
L 211.975537 250.085615 
L 213.574215 249.852047 
L 215.172893 249.64145 
L 216.77157 249.451566 
L 218.370248 249.280356 
L 219.968926 249.125986 
L 221.567603 248.986798 
L 223.166281 248.861299 
L 224.764959 248.748144 
L 226.363636 248.646117 
L 227.962314 248.554124 
L 229.560992 248.471179 
L 231.159669 248.396392 
L 232.758347 248.328961 
L 234.357025 248.268161 
L 235.955702 248.213341 
L 237.55438 248.163912 
L 239.153058 248.119345 
L 240.751736 248.079161 
L 242.350413 248.04293 
L 243.949091 248.010261 
L 245.547769 247.980806 
L 247.146446 247.954247 
L 248.745124 247.930301 
L 250.343802 247.90871 
L 251.942479 247.889242 
L 253.541157 247.871689 
L 255.139835 247.855862 
L 256.738512 247.841592 
L 258.33719 247.828726 
L 259.935868 247.817125 
L 261.534545 247.806664 
L 263.133223 247.797233 
L 264.731901 247.788729 
L 266.330579 247.781062 
L 267.929256 247.774148 
L 269.527934 247.767915 
L 271.126612 247.762294 
L 272.725289 247.757227 
L 274.323967 247.752658 
L 275.922645 247.748538 
L 277.521322 247.744823 
L 279.12 247.741474 
L 280.718678 247.738454 
L 282.317355 247.735731 
L 283.916033 247.733276 
L 285.514711 247.731062 
L 287.113388 247.729067 
L 288.712066 247.727267 
L 290.310744 247.725644 
L 291.909421 247.724181 
L 293.508099 247.722862 
L 295.106777 247.721673 
L 296.705455 247.7206 
" style="fill:none;stroke:#003399;stroke-linecap:square;stroke-width:1.5;"/>
   </g>
   <g id="line2d_31">
    <path clip-path="url(#p07da6d36f3)" d="M 296.705455 211.052787 
L 299.410909 211.049173 
L 302.116364 211.04614 
L 304.821818 211.043594 
L 307.527273 211.041457 
L 310.232727 211.039664 
L 312.938182 211.038159 
L 315.643636 211.036896 
L 318.349091 211.035836 
L 321.054545 211.034946 
L 323.76 211.034199 
L 326.465455 211.033572 
L 329.170909 211.033046 
L 331.876364 211.032605 
L 334.581818 211.032234 
L 337.287273 211.031923 
L 339.992727 211.031662 
L 342.698182 211.031443 
L 345.403636 211.031259 
L 348.109091 211.031105 
L 350.814545 211.030976 
L 353.52 211.030867 
L 356.225455 211.030776 
L 358.930909 211.030699 
L 361.636364 211.030635 
L 364.341818 211.030581 
L 367.047273 211.030536 
L 369.752727 211.030498 
L 372.458182 211.030466 
L 375.163636 211.030439 
L 377.869091 211.030416 
L 380.574545 211.030398 
L 383.28 211.030382 
L 385.985455 211.030369 
L 388.690909 211.030357 
L 391.396364 211.030348 
L 394.101818 211.03034 
L 396.807273 211.030334 
L 399.512727 211.030328 
L 402.218182 211.030323 
L 404.923636 211.03032 
L 407.629091 211.030316 
L 410.334545 211.030314 
L 413.04 211.030311 
L 415.745455 211.030309 
L 418.450909 211.030308 
L 421.156364 211.030306 
L 423.861818 211.030305 
L 426.567273 211.030304 
L 429.272727 211.030303 
L 431.978182 211.030303 
L 434.683636 211.030302 
L 437.389091 211.030302 
L 440.094545 211.030301 
L 442.8 211.030301 
L 445.505455 211.030301 
L 448.210909 211.0303 
L 450.916364 211.0303 
L 453.621818 211.0303 
L 456.327273 211.0303 
L 459.032727 211.0303 
L 461.738182 211.0303 
L 464.443636 211.0303 
L 467.149091 211.0303 
L 469.854545 211.0303 
L 472.56 211.030299 
L 475.265455 211.030299 
L 477.970909 211.030299 
L 480.676364 211.030299 
L 483.381818 211.030299 
L 486.087273 211.030299 
L 488.792727 211.030299 
L 491.498182 211.030299 
L 494.203636 211.030299 
L 496.909091 211.030299 
L 499.614545 211.030299 
L 502.32 211.030299 
L 505.025455 211.030299 
L 507.730909 211.030299 
L 510.436364 211.030299 
L 513.141818 211.030299 
L 515.847273 211.030299 
L 518.552727 211.030299 
L 521.258182 211.030299 
L 523.963636 211.030299 
L 526.669091 211.030299 
L 529.374545 211.030299 
L 532.08 211.030299 
L 534.785455 211.030299 
L 537.490909 211.030299 
L 540.196364 211.030299 
L 542.901818 211.030299 
L 545.607273 211.030299 
L 548.312727 211.030299 
L 551.018182 211.030299 
L 553.723636 211.030299 
L 556.429091 211.030299 
L 559.134545 211.030299 
L 561.84 211.030299 
L 564.545455 211.030299 
" style="fill:none;stroke:#003399;stroke-dasharray:5.55,2.4;stroke-dashoffset:0;stroke-width:1.5;"/>
   </g>
   <g id="line2d_32">
    <path clip-path="url(#p07da6d36f3)" d="M 564.545455 211.030299 
L 564.791405 211.030299 
L 565.037355 211.030299 
L 565.283306 211.030299 
L 565.529256 211.030299 
L 565.775207 211.030299 
L 566.021157 211.030299 
L 566.267107 211.030299 
L 566.513058 211.030299 
L 566.759008 211.030299 
L 567.004959 211.030299 
L 567.250909 211.030299 
L 567.49686 211.030299 
L 567.74281 211.030299 
L 567.98876 211.030299 
L 568.234711 211.030299 
L 568.480661 211.030299 
L 568.726612 211.030299 
L 568.972562 211.030299 
L 569.218512 211.030299 
L 569.464463 211.030299 
L 569.710413 211.030299 
L 569.956364 211.030299 
L 570.202314 211.030299 
L 570.448264 211.030299 
L 570.694215 211.030299 
L 570.940165 211.030299 
L 571.186116 211.030299 
L 571.432066 211.030299 
L 571.678017 211.030299 
L 571.923967 211.030299 
L 572.169917 211.030299 
L 572.415868 211.030299 
L 572.661818 211.030299 
L 572.907769 211.030299 
L 573.153719 211.030299 
L 573.399669 211.030299 
L 573.64562 211.030299 
L 573.89157 211.030299 
L 574.137521 211.030299 
L 574.383471 211.030299 
L 574.629421 211.030299 
L 574.875372 211.030299 
L 575.121322 211.030299 
L 575.367273 211.030299 
L 575.613223 211.030299 
L 575.859174 211.030299 
L 576.105124 211.030299 
L 576.351074 211.030299 
L 576.597025 211.030299 
L 576.842975 211.030299 
L 577.088926 211.030299 
L 577.334876 211.030299 
L 577.580826 211.030299 
L 577.826777 211.030299 
L 578.072727 211.030299 
L 578.318678 211.030299 
L 578.564628 211.030299 
L 578.810579 211.030299 
L 579.056529 211.030299 
L 579.302479 211.030299 
L 579.54843 211.030299 
L 579.79438 211.030299 
L 580.040331 211.030299 
L 580.286281 211.030299 
L 580.532231 211.030299 
L 580.778182 211.030299 
L 581.024132 211.030299 
L 581.270083 211.030299 
L 581.516033 211.030299 
L 581.761983 211.030299 
L 582.007934 211.030299 
L 582.253884 211.030299 
L 582.499835 211.030299 
L 582.745785 211.030299 
L 582.991736 211.030299 
L 583.237686 211.030299 
L 583.483636 211.030299 
L 583.729587 211.030299 
L 583.975537 211.030299 
L 584.221488 211.030299 
L 584.467438 211.030299 
L 584.713388 211.030299 
L 584.959339 211.030299 
L 585.205289 211.030299 
L 585.45124 211.030299 
L 585.69719 211.030299 
L 585.94314 211.030299 
L 586.189091 211.030299 
L 586.435041 211.030299 
L 586.680992 211.030299 
L 586.926942 211.030299 
L 587.172893 211.030299 
L 587.418843 211.030299 
L 587.664793 211.030299 
L 587.910744 211.030299 
L 588.156694 211.030299 
L 588.402645 211.030299 
L 588.648595 211.030299 
L 588.894545 211.030299 
" style="fill:none;stroke:#003399;stroke-dasharray:9.6,2.4,1.5,2.4;stroke-dashoffset:0;stroke-width:1.5;"/>
   </g>
   <g id="line2d_33">
    <path clip-path="url(#p07da6d36f3)" d="M 588.894545 211.030299 
L 590.493223 211.030299 
L 592.091901 211.030299 
L 593.690579 211.030299 
L 595.289256 211.030299 
L 596.887934 211.030299 
L 598.486612 211.030299 
L 600.085289 211.030299 
L 601.683967 211.030299 
L 603.282645 211.030299 
L 604.881322 211.030299 
L 606.48 211.030299 
L 608.078678 211.030299 
L 609.677355 211.030299 
L 611.276033 211.030299 
L 612.874711 211.030299 
L 614.473388 211.030299 
L 616.072066 211.030299 
L 617.670744 211.030299 
L 619.269421 211.030299 
L 620.868099 211.030299 
L 622.466777 211.030299 
L 624.065455 211.030299 
L 625.664132 211.030299 
L 627.26281 211.030299 
L 628.861488 211.030299 
L 630.460165 211.030299 
L 632.058843 211.030299 
L 633.657521 211.030299 
L 635.256198 211.030299 
L 636.854876 211.030299 
L 638.453554 211.030299 
L 640.052231 211.030299 
L 641.650909 211.030299 
L 643.249587 211.030299 
L 644.848264 211.030299 
L 646.446942 211.030299 
L 648.04562 211.030299 
L 649.644298 211.030299 
L 651.242975 211.030299 
L 652.841653 211.030299 
L 654.440331 211.030299 
L 656.039008 211.030299 
L 657.637686 211.030299 
L 659.236364 211.030299 
L 660.835041 211.030299 
L 662.433719 211.030299 
L 664.032397 211.030299 
L 665.631074 211.030299 
L 667.229752 211.030299 
L 668.82843 211.030299 
L 670.427107 211.030299 
L 672.025785 211.030299 
L 673.624463 211.030299 
L 675.22314 211.030299 
L 676.821818 211.030299 
L 678.420496 211.030299 
L 680.019174 211.030299 
L 681.617851 211.030299 
L 683.216529 211.030299 
L 684.815207 211.030299 
L 686.413884 211.030299 
L 688.012562 211.030299 
L 689.61124 211.030299 
L 691.209917 211.030299 
L 692.808595 211.030299 
L 694.407273 211.030299 
L 696.00595 211.030299 
L 697.604628 211.030299 
L 699.203306 211.030299 
L 700.801983 211.030299 
L 702.400661 211.030299 
L 703.999339 211.030299 
L 705.598017 211.030299 
L 707.196694 211.030299 
L 708.795372 211.030299 
L 710.39405 211.030299 
L 711.992727 211.030299 
L 713.591405 211.030299 
L 715.190083 211.030299 
L 716.78876 211.030299 
L 718.387438 211.030299 
L 719.986116 211.030299 
L 721.584793 211.030299 
L 723.183471 211.030299 
L 724.782149 211.030299 
L 726.380826 211.030299 
L 727.979504 211.030299 
L 729.578182 211.030299 
L 731.17686 211.030299 
L 732.775537 211.030299 
L 734.374215 211.030299 
L 735.972893 211.030299 
L 737.57157 211.030299 
L 739.170248 211.030299 
L 740.768926 211.030299 
L 742.367603 211.030299 
L 743.966281 211.030299 
L 745.564959 211.030299 
L 747.163636 211.030299 
" style="fill:none;stroke:#003399;stroke-dasharray:1.5,2.475;stroke-dashoffset:0;stroke-width:1.5;"/>
   </g>
   <g id="patch_3">
    <path d="M 108 512.64 
L 108 69.12 
" style="fill:none;stroke:#000000;stroke-linecap:square;stroke-linejoin:miter;stroke-width:0.8;"/>
   </g>
   <g id="patch_4">
    <path d="M 777.6 512.64 
L 777.6 69.12 
" style="fill:none;stroke:#000000;stroke-linecap:square;stroke-linejoin:miter;stroke-width:0.8;"/>
   </g>
   <g id="patch_5">
    <path d="M 108 512.64 
L 777.6 512.64 
" style="fill:none;stroke:#000000;stroke-linecap:square;stroke-linejoin:miter;stroke-width:0.8;"/>
   </g>
   <g id="patch_6">
    <path d="M 108 69.12 
L 777.6 69.12 
" style="fill:none;stroke:#000000;stroke-linecap:square;stroke-linejoin:miter;stroke-width:0.8;"/>
   </g>
   <g id="text_15">
    <!-- Coefficiente di spinta in funzione della quota -->
    <defs>
     <path d="M 5.515625 54.6875 
L 48.1875 54.6875 
L 48.1875 46.484375 
L 14.40625 7.171875 
L 48.1875 7.171875 
L 48.1875 0 
L 4.296875 0 
L 4.296875 8.203125 
L 38.09375 47.515625 
L 5.515625 47.515625 
z
" id="DejaVuSans-122"/>
     <path d="M 9.421875 75.984375 
L 18.40625 75.984375 
L 18.40625 0 
L 9.421875 0 
z
" id="DejaVuSans-108"/>
     <path d="M 14.796875 27.296875 
Q 14.796875 17.390625 18.875 11.75 
Q 22.953125 6.109375 30.078125 6.109375 
Q 37.203125 6.109375 41.296875 11.75 
Q 45.40625 17.390625 45.40625 27.296875 
Q 45.40625 37.203125 41.296875 42.84375 
Q 37.203125 48.484375 30.078125 48.484375 
Q 22.953125 48.484375 18.875 42.84375 
Q 14.796875 37.203125 14.796875 27.296875 
z
M 45.40625 8.203125 
Q 42.578125 3.328125 38.25 0.953125 
Q 33.9375 -1.421875 27.875 -1.421875 
Q 17.96875 -1.421875 11.734375 6.484375 
Q 5.515625 14.40625 5.515625 27.296875 
Q 5.515625 40.1875 11.734375 48.09375 
Q 17.96875 56 27.875 56 
Q 33.9375 56 38.25 53.625 
Q 42.578125 51.265625 45.40625 46.390625 
L 45.40625 54.6875 
L 54.390625 54.6875 
L 54.390625 -20.796875 
L 45.40625 -20.796875 
z
" id="DejaVuSans-113"/>
    </defs>
    <g transform="translate(308.509688 63.12)scale(0.12 -0.12)">
     <use xlink:href="#DejaVuSans-67"/>
     <use x="69.824219" xlink:href="#DejaVuSans-111"/>
     <use x="131.005859" xlink:href="#DejaVuSans-101"/>
     <use x="192.529297" xlink:href="#DejaVuSans-102"/>
     <use x="227.734375" xlink:href="#DejaVuSans-102"/>
     <use x="262.939453" xlink:href="#DejaVuSans-105"/>
     <use x="290.722656" xlink:href="#DejaVuSans-99"/>
     <use x="345.703125" xlink:href="#DejaVuSans-105"/>
     <use x="373.486328" xlink:href="#DejaVuSans-101"/>
     <use x="435.009766" xlink:href="#DejaVuSans-110"/>
     <use x="498.388672" xlink:href="#DejaVuSans-116"/>
     <use x="537.597656" xlink:href="#DejaVuSans-101"/>
     <use x="599.121094" xlink:href="#DejaVuSans-32"/>
     <use x="630.908203" xlink:href="#DejaVuSans-100"/>
     <use x="694.384766" xlink:href="#DejaVuSans-105"/>
     <use x="722.167969" xlink:href="#DejaVuSans-32"/>
     <use x="753.955078" xlink:href="#DejaVuSans-115"/>
     <use x="806.054688" xlink:href="#DejaVuSans-112"/>
     <use x="869.53125" xlink:href="#DejaVuSans-105"/>
     <use x="897.314453" xlink:href="#DejaVuSans-110"/>
     <use x="960.693359" xlink:href="#DejaVuSans-116"/>
     <use x="999.902344" xlink:href="#DejaVuSans-97"/>
     <use x="1061.181641" xlink:href="#DejaVuSans-32"/>
     <use x="1092.96875" xlink:href="#DejaVuSans-105"/>
     <use x="1120.751953" xlink:href="#DejaVuSans-110"/>
     <use x="1184.130859" xlink:href="#DejaVuSans-32"/>
     <use x="1215.917969" xlink:href="#DejaVuSans-102"/>
     <use x="1251.123047" xlink:href="#DejaVuSans-117"/>
     <use x="1314.501953" xlink:href="#DejaVuSans-110"/>
     <use x="1377.880859" xlink:href="#DejaVuSans-122"/>
     <use x="1430.371094" xlink:href="#DejaVuSans-105"/>
     <use x="1458.154297" xlink:href="#DejaVuSans-111"/>
     <use x="1519.335938" xlink:href="#DejaVuSans-110"/>
     <use x="1582.714844" xlink:href="#DejaVuSans-101"/>
     <use x="1644.238281" xlink:href="#DejaVuSans-32"/>
     <use x="1676.025391" xlink:href="#DejaVuSans-100"/>
     <use x="1739.501953" xlink:href="#DejaVuSans-101"/>
     <use x="1801.025391" xlink:href="#DejaVuSans-108"/>
     <use x="1828.808594" xlink:href="#DejaVuSans-108"/>
     <use x="1856.591797" xlink:href="#DejaVuSans-97"/>
     <use x="1917.871094" xlink:href="#DejaVuSans-32"/>
     <use x="1949.658203" xlink:href="#DejaVuSans-113"/>
     <use x="2013.134766" xlink:href="#DejaVuSans-117"/>
     <use x="2076.513672" xlink:href="#DejaVuSans-111"/>
     <use x="2137.695312" xlink:href="#DejaVuSans-116"/>
     <use x="2176.904297" xlink:href="#DejaVuSans-97"/>
    </g>
   </g>
   <g id="legend_1">
    <g id="patch_7">
     <path d="M 581.735937 507.64 
L 770.6 507.64 
Q 772.6 507.64 772.6 505.64 
L 772.6 374.536875 
Q 772.6 372.536875 770.6 372.536875 
L 581.735937 372.536875 
Q 579.735937 372.536875 579.735937 374.536875 
L 579.735937 505.64 
Q 579.735937 507.64 581.735937 507.64 
z
" style="fill:#ffffff;opacity:0.8;stroke:#cccccc;stroke-linejoin:miter;"/>
    </g>
    <g id="line2d_34">
     <path d="M 583.735937 380.635313 
L 603.735937 380.635313 
" style="fill:none;stroke:#cc3300;stroke-linecap:square;stroke-width:1.5;"/>
    </g>
    <g id="line2d_35"/>
    <g id="text_16">
     <!-- Ariane 5 ECA - Core stage -->
     <defs>
      <path d="M 34.1875 63.1875 
L 20.796875 26.90625 
L 47.609375 26.90625 
z
M 28.609375 72.90625 
L 39.796875 72.90625 
L 67.578125 0 
L 57.328125 0 
L 50.6875 18.703125 
L 17.828125 18.703125 
L 11.1875 0 
L 0.78125 0 
z
" id="DejaVuSans-65"/>
      <path d="M 41.109375 46.296875 
Q 39.59375 47.171875 37.8125 47.578125 
Q 36.03125 48 33.890625 48 
Q 26.265625 48 22.1875 43.046875 
Q 18.109375 38.09375 18.109375 28.8125 
L 18.109375 0 
L 9.078125 0 
L 9.078125 54.6875 
L 18.109375 54.6875 
L 18.109375 46.1875 
Q 20.953125 51.171875 25.484375 53.578125 
Q 30.03125 56 36.53125 56 
Q 37.453125 56 38.578125 55.875 
Q 39.703125 55.765625 41.0625 55.515625 
z
" id="DejaVuSans-114"/>
      <path d="M 9.8125 72.90625 
L 55.90625 72.90625 
L 55.90625 64.59375 
L 19.671875 64.59375 
L 19.671875 43.015625 
L 54.390625 43.015625 
L 54.390625 34.71875 
L 19.671875 34.71875 
L 19.671875 8.296875 
L 56.78125 8.296875 
L 56.78125 0 
L 9.8125 0 
z
" id="DejaVuSans-69"/>
      <path d="M 45.40625 27.984375 
Q 45.40625 37.75 41.375 43.109375 
Q 37.359375 48.484375 30.078125 48.484375 
Q 22.859375 48.484375 18.828125 43.109375 
Q 14.796875 37.75 14.796875 27.984375 
Q 14.796875 18.265625 18.828125 12.890625 
Q 22.859375 7.515625 30.078125 7.515625 
Q 37.359375 7.515625 41.375 12.890625 
Q 45.40625 18.265625 45.40625 27.984375 
z
M 54.390625 6.78125 
Q 54.390625 -7.171875 48.1875 -13.984375 
Q 42 -20.796875 29.203125 -20.796875 
Q 24.46875 -20.796875 20.265625 -20.09375 
Q 16.0625 -19.390625 12.109375 -17.921875 
L 12.109375 -9.1875 
Q 16.0625 -11.328125 19.921875 -12.34375 
Q 23.78125 -13.375 27.78125 -13.375 
Q 36.625 -13.375 41.015625 -8.765625 
Q 45.40625 -4.15625 45.40625 5.171875 
L 45.40625 9.625 
Q 42.625 4.78125 38.28125 2.390625 
Q 33.9375 0 27.875 0 
Q 17.828125 0 11.671875 7.65625 
Q 5.515625 15.328125 5.515625 27.984375 
Q 5.515625 40.671875 11.671875 48.328125 
Q 17.828125 56 27.875 56 
Q 33.9375 56 38.28125 53.609375 
Q 42.625 51.21875 45.40625 46.390625 
L 45.40625 54.6875 
L 54.390625 54.6875 
z
" id="DejaVuSans-103"/>
     </defs>
     <g transform="translate(611.735937 384.135313)scale(0.1 -0.1)">
      <use xlink:href="#DejaVuSans-65"/>
      <use x="68.408203" xlink:href="#DejaVuSans-114"/>
      <use x="109.521484" xlink:href="#DejaVuSans-105"/>
      <use x="137.304688" xlink:href="#DejaVuSans-97"/>
      <use x="198.583984" xlink:href="#DejaVuSans-110"/>
      <use x="261.962891" xlink:href="#DejaVuSans-101"/>
      <use x="323.486328" xlink:href="#DejaVuSans-32"/>
      <use x="355.273438" xlink:href="#DejaVuSans-53"/>
      <use x="418.896484" xlink:href="#DejaVuSans-32"/>
      <use x="450.683594" xlink:href="#DejaVuSans-69"/>
      <use x="513.867188" xlink:href="#DejaVuSans-67"/>
      <use x="583.691406" xlink:href="#DejaVuSans-65"/>
      <use x="652.099609" xlink:href="#DejaVuSans-32"/>
      <use x="683.886719" xlink:href="#DejaVuSans-45"/>
      <use x="719.970703" xlink:href="#DejaVuSans-32"/>
      <use x="751.757812" xlink:href="#DejaVuSans-67"/>
      <use x="821.582031" xlink:href="#DejaVuSans-111"/>
      <use x="882.763672" xlink:href="#DejaVuSans-114"/>
      <use x="921.626953" xlink:href="#DejaVuSans-101"/>
      <use x="983.150391" xlink:href="#DejaVuSans-32"/>
      <use x="1014.9375" xlink:href="#DejaVuSans-115"/>
      <use x="1067.037109" xlink:href="#DejaVuSans-116"/>
      <use x="1106.246094" xlink:href="#DejaVuSans-97"/>
      <use x="1167.525391" xlink:href="#DejaVuSans-103"/>
      <use x="1231.001953" xlink:href="#DejaVuSans-101"/>
     </g>
    </g>
    <g id="line2d_36">
     <path d="M 583.735937 395.313438 
L 603.735937 395.313438 
" style="fill:none;stroke:#cc3300;stroke-dasharray:9.6,2.4,1.5,2.4;stroke-dashoffset:0;stroke-width:1.5;"/>
    </g>
    <g id="line2d_37"/>
    <g id="text_17">
     <!-- Ariane 5 ECA - Second stage -->
     <defs>
      <path d="M 53.515625 70.515625 
L 53.515625 60.890625 
Q 47.90625 63.578125 42.921875 64.890625 
Q 37.9375 66.21875 33.296875 66.21875 
Q 25.25 66.21875 20.875 63.09375 
Q 16.5 59.96875 16.5 54.203125 
Q 16.5 49.359375 19.40625 46.890625 
Q 22.3125 44.4375 30.421875 42.921875 
L 36.375 41.703125 
Q 47.40625 39.59375 52.65625 34.296875 
Q 57.90625 29 57.90625 20.125 
Q 57.90625 9.515625 50.796875 4.046875 
Q 43.703125 -1.421875 29.984375 -1.421875 
Q 24.8125 -1.421875 18.96875 -0.25 
Q 13.140625 0.921875 6.890625 3.21875 
L 6.890625 13.375 
Q 12.890625 10.015625 18.65625 8.296875 
Q 24.421875 6.59375 29.984375 6.59375 
Q 38.421875 6.59375 43.015625 9.90625 
Q 47.609375 13.234375 47.609375 19.390625 
Q 47.609375 24.75 44.3125 27.78125 
Q 41.015625 30.8125 33.5 32.328125 
L 27.484375 33.5 
Q 16.453125 35.6875 11.515625 40.375 
Q 6.59375 45.0625 6.59375 53.421875 
Q 6.59375 63.09375 13.40625 68.65625 
Q 20.21875 74.21875 32.171875 74.21875 
Q 37.3125 74.21875 42.625 73.28125 
Q 47.953125 72.359375 53.515625 70.515625 
z
" id="DejaVuSans-83"/>
     </defs>
     <g transform="translate(611.735937 398.813438)scale(0.1 -0.1)">
      <use xlink:href="#DejaVuSans-65"/>
      <use x="68.408203" xlink:href="#DejaVuSans-114"/>
      <use x="109.521484" xlink:href="#DejaVuSans-105"/>
      <use x="137.304688" xlink:href="#DejaVuSans-97"/>
      <use x="198.583984" xlink:href="#DejaVuSans-110"/>
      <use x="261.962891" xlink:href="#DejaVuSans-101"/>
      <use x="323.486328" xlink:href="#DejaVuSans-32"/>
      <use x="355.273438" xlink:href="#DejaVuSans-53"/>
      <use x="418.896484" xlink:href="#DejaVuSans-32"/>
      <use x="450.683594" xlink:href="#DejaVuSans-69"/>
      <use x="513.867188" xlink:href="#DejaVuSans-67"/>
      <use x="583.691406" xlink:href="#DejaVuSans-65"/>
      <use x="652.099609" xlink:href="#DejaVuSans-32"/>
      <use x="683.886719" xlink:href="#DejaVuSans-45"/>
      <use x="719.970703" xlink:href="#DejaVuSans-32"/>
      <use x="751.757812" xlink:href="#DejaVuSans-83"/>
      <use x="815.234375" xlink:href="#DejaVuSans-101"/>
      <use x="876.757812" xlink:href="#DejaVuSans-99"/>
      <use x="931.738281" xlink:href="#DejaVuSans-111"/>
      <use x="992.919922" xlink:href="#DejaVuSans-110"/>
      <use x="1056.298828" xlink:href="#DejaVuSans-100"/>
      <use x="1119.775391" xlink:href="#DejaVuSans-32"/>
      <use x="1151.5625" xlink:href="#DejaVuSans-115"/>
      <use x="1203.662109" xlink:href="#DejaVuSans-116"/>
      <use x="1242.871094" xlink:href="#DejaVuSans-97"/>
      <use x="1304.150391" xlink:href="#DejaVuSans-103"/>
      <use x="1367.626953" xlink:href="#DejaVuSans-101"/>
     </g>
    </g>
    <g id="line2d_38">
     <path d="M 583.735937 409.991563 
L 603.735937 409.991563 
" style="fill:none;stroke:#009900;stroke-linecap:square;stroke-width:1.5;"/>
    </g>
    <g id="line2d_39"/>
    <g id="text_18">
     <!-- Falcon Heavy - Core Stage -->
     <defs>
      <path d="M 9.8125 72.90625 
L 51.703125 72.90625 
L 51.703125 64.59375 
L 19.671875 64.59375 
L 19.671875 43.109375 
L 48.578125 43.109375 
L 48.578125 34.8125 
L 19.671875 34.8125 
L 19.671875 0 
L 9.8125 0 
z
" id="DejaVuSans-70"/>
      <path d="M 9.8125 72.90625 
L 19.671875 72.90625 
L 19.671875 43.015625 
L 55.515625 43.015625 
L 55.515625 72.90625 
L 65.375 72.90625 
L 65.375 0 
L 55.515625 0 
L 55.515625 34.71875 
L 19.671875 34.71875 
L 19.671875 0 
L 9.8125 0 
z
" id="DejaVuSans-72"/>
      <path d="M 2.984375 54.6875 
L 12.5 54.6875 
L 29.59375 8.796875 
L 46.6875 54.6875 
L 56.203125 54.6875 
L 35.6875 0 
L 23.484375 0 
z
" id="DejaVuSans-118"/>
      <path d="M 32.171875 -5.078125 
Q 28.375 -14.84375 24.75 -17.8125 
Q 21.140625 -20.796875 15.09375 -20.796875 
L 7.90625 -20.796875 
L 7.90625 -13.28125 
L 13.1875 -13.28125 
Q 16.890625 -13.28125 18.9375 -11.515625 
Q 21 -9.765625 23.484375 -3.21875 
L 25.09375 0.875 
L 2.984375 54.6875 
L 12.5 54.6875 
L 29.59375 11.921875 
L 46.6875 54.6875 
L 56.203125 54.6875 
z
" id="DejaVuSans-121"/>
     </defs>
     <g transform="translate(611.735937 413.491563)scale(0.1 -0.1)">
      <use xlink:href="#DejaVuSans-70"/>
      <use x="48.394531" xlink:href="#DejaVuSans-97"/>
      <use x="109.673828" xlink:href="#DejaVuSans-108"/>
      <use x="137.457031" xlink:href="#DejaVuSans-99"/>
      <use x="192.4375" xlink:href="#DejaVuSans-111"/>
      <use x="253.619141" xlink:href="#DejaVuSans-110"/>
      <use x="316.998047" xlink:href="#DejaVuSans-32"/>
      <use x="348.785156" xlink:href="#DejaVuSans-72"/>
      <use x="423.980469" xlink:href="#DejaVuSans-101"/>
      <use x="485.503906" xlink:href="#DejaVuSans-97"/>
      <use x="546.783203" xlink:href="#DejaVuSans-118"/>
      <use x="605.962891" xlink:href="#DejaVuSans-121"/>
      <use x="665.142578" xlink:href="#DejaVuSans-32"/>
      <use x="696.929688" xlink:href="#DejaVuSans-45"/>
      <use x="733.013672" xlink:href="#DejaVuSans-32"/>
      <use x="764.800781" xlink:href="#DejaVuSans-67"/>
      <use x="834.625" xlink:href="#DejaVuSans-111"/>
      <use x="895.806641" xlink:href="#DejaVuSans-114"/>
      <use x="934.669922" xlink:href="#DejaVuSans-101"/>
      <use x="996.193359" xlink:href="#DejaVuSans-32"/>
      <use x="1027.980469" xlink:href="#DejaVuSans-83"/>
      <use x="1091.457031" xlink:href="#DejaVuSans-116"/>
      <use x="1130.666016" xlink:href="#DejaVuSans-97"/>
      <use x="1191.945312" xlink:href="#DejaVuSans-103"/>
      <use x="1255.421875" xlink:href="#DejaVuSans-101"/>
     </g>
    </g>
    <g id="line2d_40">
     <path d="M 583.735937 424.669688 
L 603.735937 424.669688 
" style="fill:none;stroke:#009900;stroke-dasharray:5.55,2.4;stroke-dashoffset:0;stroke-width:1.5;"/>
    </g>
    <g id="line2d_41"/>
    <g id="text_19">
     <!-- Falcon Heavy - Boosters -->
     <defs>
      <path d="M 19.671875 34.8125 
L 19.671875 8.109375 
L 35.5 8.109375 
Q 43.453125 8.109375 47.28125 11.40625 
Q 51.125 14.703125 51.125 21.484375 
Q 51.125 28.328125 47.28125 31.5625 
Q 43.453125 34.8125 35.5 34.8125 
z
M 19.671875 64.796875 
L 19.671875 42.828125 
L 34.28125 42.828125 
Q 41.5 42.828125 45.03125 45.53125 
Q 48.578125 48.25 48.578125 53.8125 
Q 48.578125 59.328125 45.03125 62.0625 
Q 41.5 64.796875 34.28125 64.796875 
z
M 9.8125 72.90625 
L 35.015625 72.90625 
Q 46.296875 72.90625 52.390625 68.21875 
Q 58.5 63.53125 58.5 54.890625 
Q 58.5 48.1875 55.375 44.234375 
Q 52.25 40.28125 46.1875 39.3125 
Q 53.46875 37.75 57.5 32.78125 
Q 61.53125 27.828125 61.53125 20.40625 
Q 61.53125 10.640625 54.890625 5.3125 
Q 48.25 0 35.984375 0 
L 9.8125 0 
z
" id="DejaVuSans-66"/>
     </defs>
     <g transform="translate(611.735937 428.169688)scale(0.1 -0.1)">
      <use xlink:href="#DejaVuSans-70"/>
      <use x="48.394531" xlink:href="#DejaVuSans-97"/>
      <use x="109.673828" xlink:href="#DejaVuSans-108"/>
      <use x="137.457031" xlink:href="#DejaVuSans-99"/>
      <use x="192.4375" xlink:href="#DejaVuSans-111"/>
      <use x="253.619141" xlink:href="#DejaVuSans-110"/>
      <use x="316.998047" xlink:href="#DejaVuSans-32"/>
      <use x="348.785156" xlink:href="#DejaVuSans-72"/>
      <use x="423.980469" xlink:href="#DejaVuSans-101"/>
      <use x="485.503906" xlink:href="#DejaVuSans-97"/>
      <use x="546.783203" xlink:href="#DejaVuSans-118"/>
      <use x="605.962891" xlink:href="#DejaVuSans-121"/>
      <use x="665.142578" xlink:href="#DejaVuSans-32"/>
      <use x="696.929688" xlink:href="#DejaVuSans-45"/>
      <use x="733.013672" xlink:href="#DejaVuSans-32"/>
      <use x="764.800781" xlink:href="#DejaVuSans-66"/>
      <use x="833.404297" xlink:href="#DejaVuSans-111"/>
      <use x="894.585938" xlink:href="#DejaVuSans-111"/>
      <use x="955.767578" xlink:href="#DejaVuSans-115"/>
      <use x="1007.867188" xlink:href="#DejaVuSans-116"/>
      <use x="1047.076172" xlink:href="#DejaVuSans-101"/>
      <use x="1108.599609" xlink:href="#DejaVuSans-114"/>
      <use x="1149.712891" xlink:href="#DejaVuSans-115"/>
     </g>
    </g>
    <g id="line2d_42">
     <path d="M 583.735937 439.347813 
L 603.735937 439.347813 
" style="fill:none;stroke:#009900;stroke-dasharray:9.6,2.4,1.5,2.4;stroke-dashoffset:0;stroke-width:1.5;"/>
    </g>
    <g id="line2d_43"/>
    <g id="text_20">
     <!-- Falcon Heavy - Second Stage -->
     <g transform="translate(611.735937 442.847813)scale(0.1 -0.1)">
      <use xlink:href="#DejaVuSans-70"/>
      <use x="48.394531" xlink:href="#DejaVuSans-97"/>
      <use x="109.673828" xlink:href="#DejaVuSans-108"/>
      <use x="137.457031" xlink:href="#DejaVuSans-99"/>
      <use x="192.4375" xlink:href="#DejaVuSans-111"/>
      <use x="253.619141" xlink:href="#DejaVuSans-110"/>
      <use x="316.998047" xlink:href="#DejaVuSans-32"/>
      <use x="348.785156" xlink:href="#DejaVuSans-72"/>
      <use x="423.980469" xlink:href="#DejaVuSans-101"/>
      <use x="485.503906" xlink:href="#DejaVuSans-97"/>
      <use x="546.783203" xlink:href="#DejaVuSans-118"/>
      <use x="605.962891" xlink:href="#DejaVuSans-121"/>
      <use x="665.142578" xlink:href="#DejaVuSans-32"/>
      <use x="696.929688" xlink:href="#DejaVuSans-45"/>
      <use x="733.013672" xlink:href="#DejaVuSans-32"/>
      <use x="764.800781" xlink:href="#DejaVuSans-83"/>
      <use x="828.277344" xlink:href="#DejaVuSans-101"/>
      <use x="889.800781" xlink:href="#DejaVuSans-99"/>
      <use x="944.78125" xlink:href="#DejaVuSans-111"/>
      <use x="1005.962891" xlink:href="#DejaVuSans-110"/>
      <use x="1069.341797" xlink:href="#DejaVuSans-100"/>
      <use x="1132.818359" xlink:href="#DejaVuSans-32"/>
      <use x="1164.605469" xlink:href="#DejaVuSans-83"/>
      <use x="1228.082031" xlink:href="#DejaVuSans-116"/>
      <use x="1267.291016" xlink:href="#DejaVuSans-97"/>
      <use x="1328.570312" xlink:href="#DejaVuSans-103"/>
      <use x="1392.046875" xlink:href="#DejaVuSans-101"/>
     </g>
    </g>
    <g id="line2d_44">
     <path d="M 583.735937 454.025938 
L 603.735937 454.025938 
" style="fill:none;stroke:#003399;stroke-linecap:square;stroke-width:1.5;"/>
    </g>
    <g id="line2d_45"/>
    <g id="text_21">
     <!-- Saturn V - 1st Stage -->
     <defs>
      <path d="M 28.609375 0 
L 0.78125 72.90625 
L 11.078125 72.90625 
L 34.1875 11.53125 
L 57.328125 72.90625 
L 67.578125 72.90625 
L 39.796875 0 
z
" id="DejaVuSans-86"/>
     </defs>
     <g transform="translate(611.735937 457.525938)scale(0.1 -0.1)">
      <use xlink:href="#DejaVuSans-83"/>
      <use x="63.476562" xlink:href="#DejaVuSans-97"/>
      <use x="124.755859" xlink:href="#DejaVuSans-116"/>
      <use x="163.964844" xlink:href="#DejaVuSans-117"/>
      <use x="227.34375" xlink:href="#DejaVuSans-114"/>
      <use x="266.707031" xlink:href="#DejaVuSans-110"/>
      <use x="330.085938" xlink:href="#DejaVuSans-32"/>
      <use x="361.873047" xlink:href="#DejaVuSans-86"/>
      <use x="430.28125" xlink:href="#DejaVuSans-32"/>
      <use x="462.068359" xlink:href="#DejaVuSans-45"/>
      <use x="498.152344" xlink:href="#DejaVuSans-32"/>
      <use x="529.939453" xlink:href="#DejaVuSans-49"/>
      <use x="593.5625" xlink:href="#DejaVuSans-115"/>
      <use x="645.662109" xlink:href="#DejaVuSans-116"/>
      <use x="684.871094" xlink:href="#DejaVuSans-32"/>
      <use x="716.658203" xlink:href="#DejaVuSans-83"/>
      <use x="780.134766" xlink:href="#DejaVuSans-116"/>
      <use x="819.34375" xlink:href="#DejaVuSans-97"/>
      <use x="880.623047" xlink:href="#DejaVuSans-103"/>
      <use x="944.099609" xlink:href="#DejaVuSans-101"/>
     </g>
    </g>
    <g id="line2d_46">
     <path d="M 583.735937 468.704063 
L 603.735937 468.704063 
" style="fill:none;stroke:#003399;stroke-dasharray:5.55,2.4;stroke-dashoffset:0;stroke-width:1.5;"/>
    </g>
    <g id="line2d_47"/>
    <g id="text_22">
     <!-- Saturn V - 2nd Stage -->
     <g transform="translate(611.735937 472.204063)scale(0.1 -0.1)">
      <use xlink:href="#DejaVuSans-83"/>
      <use x="63.476562" xlink:href="#DejaVuSans-97"/>
      <use x="124.755859" xlink:href="#DejaVuSans-116"/>
      <use x="163.964844" xlink:href="#DejaVuSans-117"/>
      <use x="227.34375" xlink:href="#DejaVuSans-114"/>
      <use x="266.707031" xlink:href="#DejaVuSans-110"/>
      <use x="330.085938" xlink:href="#DejaVuSans-32"/>
      <use x="361.873047" xlink:href="#DejaVuSans-86"/>
      <use x="430.28125" xlink:href="#DejaVuSans-32"/>
      <use x="462.068359" xlink:href="#DejaVuSans-45"/>
      <use x="498.152344" xlink:href="#DejaVuSans-32"/>
      <use x="529.939453" xlink:href="#DejaVuSans-50"/>
      <use x="593.5625" xlink:href="#DejaVuSans-110"/>
      <use x="656.941406" xlink:href="#DejaVuSans-100"/>
      <use x="720.417969" xlink:href="#DejaVuSans-32"/>
      <use x="752.205078" xlink:href="#DejaVuSans-83"/>
      <use x="815.681641" xlink:href="#DejaVuSans-116"/>
      <use x="854.890625" xlink:href="#DejaVuSans-97"/>
      <use x="916.169922" xlink:href="#DejaVuSans-103"/>
      <use x="979.646484" xlink:href="#DejaVuSans-101"/>
     </g>
    </g>
    <g id="line2d_48">
     <path d="M 583.735937 483.382188 
L 603.735937 483.382188 
" style="fill:none;stroke:#003399;stroke-dasharray:9.6,2.4,1.5,2.4;stroke-dashoffset:0;stroke-width:1.5;"/>
    </g>
    <g id="line2d_49"/>
    <g id="text_23">
     <!-- Saturn V - 3rd Stage - 1st burn -->
     <defs>
      <path d="M 40.578125 39.3125 
Q 47.65625 37.796875 51.625 33 
Q 55.609375 28.21875 55.609375 21.1875 
Q 55.609375 10.40625 48.1875 4.484375 
Q 40.765625 -1.421875 27.09375 -1.421875 
Q 22.515625 -1.421875 17.65625 -0.515625 
Q 12.796875 0.390625 7.625 2.203125 
L 7.625 11.71875 
Q 11.71875 9.328125 16.59375 8.109375 
Q 21.484375 6.890625 26.8125 6.890625 
Q 36.078125 6.890625 40.9375 10.546875 
Q 45.796875 14.203125 45.796875 21.1875 
Q 45.796875 27.640625 41.28125 31.265625 
Q 36.765625 34.90625 28.71875 34.90625 
L 20.21875 34.90625 
L 20.21875 43.015625 
L 29.109375 43.015625 
Q 36.375 43.015625 40.234375 45.921875 
Q 44.09375 48.828125 44.09375 54.296875 
Q 44.09375 59.90625 40.109375 62.90625 
Q 36.140625 65.921875 28.71875 65.921875 
Q 24.65625 65.921875 20.015625 65.03125 
Q 15.375 64.15625 9.8125 62.3125 
L 9.8125 71.09375 
Q 15.4375 72.65625 20.34375 73.4375 
Q 25.25 74.21875 29.59375 74.21875 
Q 40.828125 74.21875 47.359375 69.109375 
Q 53.90625 64.015625 53.90625 55.328125 
Q 53.90625 49.265625 50.4375 45.09375 
Q 46.96875 40.921875 40.578125 39.3125 
z
" id="DejaVuSans-51"/>
      <path d="M 48.6875 27.296875 
Q 48.6875 37.203125 44.609375 42.84375 
Q 40.53125 48.484375 33.40625 48.484375 
Q 26.265625 48.484375 22.1875 42.84375 
Q 18.109375 37.203125 18.109375 27.296875 
Q 18.109375 17.390625 22.1875 11.75 
Q 26.265625 6.109375 33.40625 6.109375 
Q 40.53125 6.109375 44.609375 11.75 
Q 48.6875 17.390625 48.6875 27.296875 
z
M 18.109375 46.390625 
Q 20.953125 51.265625 25.265625 53.625 
Q 29.59375 56 35.59375 56 
Q 45.5625 56 51.78125 48.09375 
Q 58.015625 40.1875 58.015625 27.296875 
Q 58.015625 14.40625 51.78125 6.484375 
Q 45.5625 -1.421875 35.59375 -1.421875 
Q 29.59375 -1.421875 25.265625 0.953125 
Q 20.953125 3.328125 18.109375 8.203125 
L 18.109375 0 
L 9.078125 0 
L 9.078125 75.984375 
L 18.109375 75.984375 
z
" id="DejaVuSans-98"/>
     </defs>
     <g transform="translate(611.735937 486.882188)scale(0.1 -0.1)">
      <use xlink:href="#DejaVuSans-83"/>
      <use x="63.476562" xlink:href="#DejaVuSans-97"/>
      <use x="124.755859" xlink:href="#DejaVuSans-116"/>
      <use x="163.964844" xlink:href="#DejaVuSans-117"/>
      <use x="227.34375" xlink:href="#DejaVuSans-114"/>
      <use x="266.707031" xlink:href="#DejaVuSans-110"/>
      <use x="330.085938" xlink:href="#DejaVuSans-32"/>
      <use x="361.873047" xlink:href="#DejaVuSans-86"/>
      <use x="430.28125" xlink:href="#DejaVuSans-32"/>
      <use x="462.068359" xlink:href="#DejaVuSans-45"/>
      <use x="498.152344" xlink:href="#DejaVuSans-32"/>
      <use x="529.939453" xlink:href="#DejaVuSans-51"/>
      <use x="593.5625" xlink:href="#DejaVuSans-114"/>
      <use x="632.925781" xlink:href="#DejaVuSans-100"/>
      <use x="696.402344" xlink:href="#DejaVuSans-32"/>
      <use x="728.189453" xlink:href="#DejaVuSans-83"/>
      <use x="791.666016" xlink:href="#DejaVuSans-116"/>
      <use x="830.875" xlink:href="#DejaVuSans-97"/>
      <use x="892.154297" xlink:href="#DejaVuSans-103"/>
      <use x="955.630859" xlink:href="#DejaVuSans-101"/>
      <use x="1017.154297" xlink:href="#DejaVuSans-32"/>
      <use x="1048.941406" xlink:href="#DejaVuSans-45"/>
      <use x="1085.025391" xlink:href="#DejaVuSans-32"/>
      <use x="1116.8125" xlink:href="#DejaVuSans-49"/>
      <use x="1180.435547" xlink:href="#DejaVuSans-115"/>
      <use x="1232.535156" xlink:href="#DejaVuSans-116"/>
      <use x="1271.744141" xlink:href="#DejaVuSans-32"/>
      <use x="1303.53125" xlink:href="#DejaVuSans-98"/>
      <use x="1367.007812" xlink:href="#DejaVuSans-117"/>
      <use x="1430.386719" xlink:href="#DejaVuSans-114"/>
      <use x="1469.75" xlink:href="#DejaVuSans-110"/>
     </g>
    </g>
    <g id="line2d_50">
     <path d="M 583.735937 498.060313 
L 603.735937 498.060313 
" style="fill:none;stroke:#003399;stroke-dasharray:1.5,2.475;stroke-dashoffset:0;stroke-width:1.5;"/>
    </g>
    <g id="line2d_51"/>
    <g id="text_24">
     <!-- Saturn V - 3rd Stage - 2nd burn -->
     <g transform="translate(611.735937 501.560313)scale(0.1 -0.1)">
      <use xlink:href="#DejaVuSans-83"/>
      <use x="63.476562" xlink:href="#DejaVuSans-97"/>
      <use x="124.755859" xlink:href="#DejaVuSans-116"/>
      <use x="163.964844" xlink:href="#DejaVuSans-117"/>
      <use x="227.34375" xlink:href="#DejaVuSans-114"/>
      <use x="266.707031" xlink:href="#DejaVuSans-110"/>
      <use x="330.085938" xlink:href="#DejaVuSans-32"/>
      <use x="361.873047" xlink:href="#DejaVuSans-86"/>
      <use x="430.28125" xlink:href="#DejaVuSans-32"/>
      <use x="462.068359" xlink:href="#DejaVuSans-45"/>
      <use x="498.152344" xlink:href="#DejaVuSans-32"/>
      <use x="529.939453" xlink:href="#DejaVuSans-51"/>
      <use x="593.5625" xlink:href="#DejaVuSans-114"/>
      <use x="632.925781" xlink:href="#DejaVuSans-100"/>
      <use x="696.402344" xlink:href="#DejaVuSans-32"/>
      <use x="728.189453" xlink:href="#DejaVuSans-83"/>
      <use x="791.666016" xlink:href="#DejaVuSans-116"/>
      <use x="830.875" xlink:href="#DejaVuSans-97"/>
      <use x="892.154297" xlink:href="#DejaVuSans-103"/>
      <use x="955.630859" xlink:href="#DejaVuSans-101"/>
      <use x="1017.154297" xlink:href="#DejaVuSans-32"/>
      <use x="1048.941406" xlink:href="#DejaVuSans-45"/>
      <use x="1085.025391" xlink:href="#DejaVuSans-32"/>
      <use x="1116.8125" xlink:href="#DejaVuSans-50"/>
      <use x="1180.435547" xlink:href="#DejaVuSans-110"/>
      <use x="1243.814453" xlink:href="#DejaVuSans-100"/>
      <use x="1307.291016" xlink:href="#DejaVuSans-32"/>
      <use x="1339.078125" xlink:href="#DejaVuSans-98"/>
      <use x="1402.554688" xlink:href="#DejaVuSans-117"/>
      <use x="1465.933594" xlink:href="#DejaVuSans-114"/>
      <use x="1505.296875" xlink:href="#DejaVuSans-110"/>
     </g>
    </g>
   </g>
  </g>
 </g>
 <defs>
  <clipPath id="p07da6d36f3">
   <rect height="443.52" width="669.6" x="108" y="69.12"/>
  </clipPath>
 </defs>
</svg>
