<?xml version="1.0" encoding="utf-8" standalone="no"?>
<!DOCTYPE svg PUBLIC "-//W3C//DTD SVG 1.1//EN"
  "http://www.w3.org/Graphics/SVG/1.1/DTD/svg11.dtd">
<!-- Created with matplotlib (https://matplotlib.org/) -->
<svg height="576pt" version="1.1" viewBox="0 0 864 576" width="864pt" xmlns="http://www.w3.org/2000/svg" xmlns:xlink="http://www.w3.org/1999/xlink">
 <defs>
  <style type="text/css">
*{stroke-linecap:butt;stroke-linejoin:round;}
  </style>
 </defs>
 <g id="figure_1">
  <g id="patch_1">
   <path d="M 0 576 
L 864 576 
L 864 0 
L 0 0 
z
" style="fill:#ffffff;"/>
  </g>
  <g id="axes_1">
   <g id="patch_2">
    <path d="M 108 512.64 
L 777.6 512.64 
L 777.6 69.12 
L 108 69.12 
z
" style="fill:#ffffff;"/>
   </g>
   <g id="matplotlib.axis_1">
    <g id="xtick_1">
     <g id="line2d_1">
      <path clip-path="url(#p2e37773611)" d="M 138.436364 512.64 
L 138.436364 69.12 
" style="fill:none;stroke:#b0b0b0;stroke-linecap:square;stroke-width:0.8;"/>
     </g>
     <g id="line2d_2">
      <defs>
       <path d="M 0 0 
L 0 3.5 
" id="m5e54545999" style="stroke:#000000;stroke-width:0.8;"/>
      </defs>
      <g>
       <use style="stroke:#000000;stroke-width:0.8;" x="138.436364" xlink:href="#m5e54545999" y="512.64"/>
      </g>
     </g>
     <g id="text_1">
      <!-- 0 -->
      <defs>
       <path d="M 31.78125 66.40625 
Q 24.171875 66.40625 20.328125 58.90625 
Q 16.5 51.421875 16.5 36.375 
Q 16.5 21.390625 20.328125 13.890625 
Q 24.171875 6.390625 31.78125 6.390625 
Q 39.453125 6.390625 43.28125 13.890625 
Q 47.125 21.390625 47.125 36.375 
Q 47.125 51.421875 43.28125 58.90625 
Q 39.453125 66.40625 31.78125 66.40625 
z
M 31.78125 74.21875 
Q 44.046875 74.21875 50.515625 64.515625 
Q 56.984375 54.828125 56.984375 36.375 
Q 56.984375 17.96875 50.515625 8.265625 
Q 44.046875 -1.421875 31.78125 -1.421875 
Q 19.53125 -1.421875 13.0625 8.265625 
Q 6.59375 17.96875 6.59375 36.375 
Q 6.59375 54.828125 13.0625 64.515625 
Q 19.53125 74.21875 31.78125 74.21875 
z
" id="DejaVuSans-48"/>
      </defs>
      <g transform="translate(135.255114 527.238438)scale(0.1 -0.1)">
       <use xlink:href="#DejaVuSans-48"/>
      </g>
     </g>
    </g>
    <g id="xtick_2">
     <g id="line2d_3">
      <path clip-path="url(#p2e37773611)" d="M 260.181818 512.64 
L 260.181818 69.12 
" style="fill:none;stroke:#b0b0b0;stroke-linecap:square;stroke-width:0.8;"/>
     </g>
     <g id="line2d_4">
      <g>
       <use style="stroke:#000000;stroke-width:0.8;" x="260.181818" xlink:href="#m5e54545999" y="512.64"/>
      </g>
     </g>
     <g id="text_2">
      <!-- 50000 -->
      <defs>
       <path d="M 10.796875 72.90625 
L 49.515625 72.90625 
L 49.515625 64.59375 
L 19.828125 64.59375 
L 19.828125 46.734375 
Q 21.96875 47.46875 24.109375 47.828125 
Q 26.265625 48.1875 28.421875 48.1875 
Q 40.625 48.1875 47.75 41.5 
Q 54.890625 34.8125 54.890625 23.390625 
Q 54.890625 11.625 47.5625 5.09375 
Q 40.234375 -1.421875 26.90625 -1.421875 
Q 22.3125 -1.421875 17.546875 -0.640625 
Q 12.796875 0.140625 7.71875 1.703125 
L 7.71875 11.625 
Q 12.109375 9.234375 16.796875 8.0625 
Q 21.484375 6.890625 26.703125 6.890625 
Q 35.15625 6.890625 40.078125 11.328125 
Q 45.015625 15.765625 45.015625 23.390625 
Q 45.015625 31 40.078125 35.4375 
Q 35.15625 39.890625 26.703125 39.890625 
Q 22.75 39.890625 18.8125 39.015625 
Q 14.890625 38.140625 10.796875 36.28125 
z
" id="DejaVuSans-53"/>
      </defs>
      <g transform="translate(244.275568 527.238438)scale(0.1 -0.1)">
       <use xlink:href="#DejaVuSans-53"/>
       <use x="63.623047" xlink:href="#DejaVuSans-48"/>
       <use x="127.246094" xlink:href="#DejaVuSans-48"/>
       <use x="190.869141" xlink:href="#DejaVuSans-48"/>
       <use x="254.492188" xlink:href="#DejaVuSans-48"/>
      </g>
     </g>
    </g>
    <g id="xtick_3">
     <g id="line2d_5">
      <path clip-path="url(#p2e37773611)" d="M 381.927273 512.64 
L 381.927273 69.12 
" style="fill:none;stroke:#b0b0b0;stroke-linecap:square;stroke-width:0.8;"/>
     </g>
     <g id="line2d_6">
      <g>
       <use style="stroke:#000000;stroke-width:0.8;" x="381.927273" xlink:href="#m5e54545999" y="512.64"/>
      </g>
     </g>
     <g id="text_3">
      <!-- 100000 -->
      <defs>
       <path d="M 12.40625 8.296875 
L 28.515625 8.296875 
L 28.515625 63.921875 
L 10.984375 60.40625 
L 10.984375 69.390625 
L 28.421875 72.90625 
L 38.28125 72.90625 
L 38.28125 8.296875 
L 54.390625 8.296875 
L 54.390625 0 
L 12.40625 0 
z
" id="DejaVuSans-49"/>
      </defs>
      <g transform="translate(362.839773 527.238438)scale(0.1 -0.1)">
       <use xlink:href="#DejaVuSans-49"/>
       <use x="63.623047" xlink:href="#DejaVuSans-48"/>
       <use x="127.246094" xlink:href="#DejaVuSans-48"/>
       <use x="190.869141" xlink:href="#DejaVuSans-48"/>
       <use x="254.492188" xlink:href="#DejaVuSans-48"/>
       <use x="318.115234" xlink:href="#DejaVuSans-48"/>
      </g>
     </g>
    </g>
    <g id="xtick_4">
     <g id="line2d_7">
      <path clip-path="url(#p2e37773611)" d="M 503.672727 512.64 
L 503.672727 69.12 
" style="fill:none;stroke:#b0b0b0;stroke-linecap:square;stroke-width:0.8;"/>
     </g>
     <g id="line2d_8">
      <g>
       <use style="stroke:#000000;stroke-width:0.8;" x="503.672727" xlink:href="#m5e54545999" y="512.64"/>
      </g>
     </g>
     <g id="text_4">
      <!-- 150000 -->
      <g transform="translate(484.585227 527.238438)scale(0.1 -0.1)">
       <use xlink:href="#DejaVuSans-49"/>
       <use x="63.623047" xlink:href="#DejaVuSans-53"/>
       <use x="127.246094" xlink:href="#DejaVuSans-48"/>
       <use x="190.869141" xlink:href="#DejaVuSans-48"/>
       <use x="254.492188" xlink:href="#DejaVuSans-48"/>
       <use x="318.115234" xlink:href="#DejaVuSans-48"/>
      </g>
     </g>
    </g>
    <g id="xtick_5">
     <g id="line2d_9">
      <path clip-path="url(#p2e37773611)" d="M 625.418182 512.64 
L 625.418182 69.12 
" style="fill:none;stroke:#b0b0b0;stroke-linecap:square;stroke-width:0.8;"/>
     </g>
     <g id="line2d_10">
      <g>
       <use style="stroke:#000000;stroke-width:0.8;" x="625.418182" xlink:href="#m5e54545999" y="512.64"/>
      </g>
     </g>
     <g id="text_5">
      <!-- 200000 -->
      <defs>
       <path d="M 19.1875 8.296875 
L 53.609375 8.296875 
L 53.609375 0 
L 7.328125 0 
L 7.328125 8.296875 
Q 12.9375 14.109375 22.625 23.890625 
Q 32.328125 33.6875 34.8125 36.53125 
Q 39.546875 41.84375 41.421875 45.53125 
Q 43.3125 49.21875 43.3125 52.78125 
Q 43.3125 58.59375 39.234375 62.25 
Q 35.15625 65.921875 28.609375 65.921875 
Q 23.96875 65.921875 18.8125 64.3125 
Q 13.671875 62.703125 7.8125 59.421875 
L 7.8125 69.390625 
Q 13.765625 71.78125 18.9375 73 
Q 24.125 74.21875 28.421875 74.21875 
Q 39.75 74.21875 46.484375 68.546875 
Q 53.21875 62.890625 53.21875 53.421875 
Q 53.21875 48.921875 51.53125 44.890625 
Q 49.859375 40.875 45.40625 35.40625 
Q 44.1875 33.984375 37.640625 27.21875 
Q 31.109375 20.453125 19.1875 8.296875 
z
" id="DejaVuSans-50"/>
      </defs>
      <g transform="translate(606.330682 527.238438)scale(0.1 -0.1)">
       <use xlink:href="#DejaVuSans-50"/>
       <use x="63.623047" xlink:href="#DejaVuSans-48"/>
       <use x="127.246094" xlink:href="#DejaVuSans-48"/>
       <use x="190.869141" xlink:href="#DejaVuSans-48"/>
       <use x="254.492188" xlink:href="#DejaVuSans-48"/>
       <use x="318.115234" xlink:href="#DejaVuSans-48"/>
      </g>
     </g>
    </g>
    <g id="xtick_6">
     <g id="line2d_11">
      <path clip-path="url(#p2e37773611)" d="M 747.163636 512.64 
L 747.163636 69.12 
" style="fill:none;stroke:#b0b0b0;stroke-linecap:square;stroke-width:0.8;"/>
     </g>
     <g id="line2d_12">
      <g>
       <use style="stroke:#000000;stroke-width:0.8;" x="747.163636" xlink:href="#m5e54545999" y="512.64"/>
      </g>
     </g>
     <g id="text_6">
      <!-- 250000 -->
      <g transform="translate(728.076136 527.238438)scale(0.1 -0.1)">
       <use xlink:href="#DejaVuSans-50"/>
       <use x="63.623047" xlink:href="#DejaVuSans-53"/>
       <use x="127.246094" xlink:href="#DejaVuSans-48"/>
       <use x="190.869141" xlink:href="#DejaVuSans-48"/>
       <use x="254.492188" xlink:href="#DejaVuSans-48"/>
       <use x="318.115234" xlink:href="#DejaVuSans-48"/>
      </g>
     </g>
    </g>
    <g id="text_7">
     <!-- Quota [m] -->
     <defs>
      <path d="M 39.40625 66.21875 
Q 28.65625 66.21875 22.328125 58.203125 
Q 16.015625 50.203125 16.015625 36.375 
Q 16.015625 22.609375 22.328125 14.59375 
Q 28.65625 6.59375 39.40625 6.59375 
Q 50.140625 6.59375 56.421875 14.59375 
Q 62.703125 22.609375 62.703125 36.375 
Q 62.703125 50.203125 56.421875 58.203125 
Q 50.140625 66.21875 39.40625 66.21875 
z
M 53.21875 1.3125 
L 66.21875 -12.890625 
L 54.296875 -12.890625 
L 43.5 -1.21875 
Q 41.890625 -1.3125 41.03125 -1.359375 
Q 40.1875 -1.421875 39.40625 -1.421875 
Q 24.03125 -1.421875 14.8125 8.859375 
Q 5.609375 19.140625 5.609375 36.375 
Q 5.609375 53.65625 14.8125 63.9375 
Q 24.03125 74.21875 39.40625 74.21875 
Q 54.734375 74.21875 63.90625 63.9375 
Q 73.09375 53.65625 73.09375 36.375 
Q 73.09375 23.6875 67.984375 14.640625 
Q 62.890625 5.609375 53.21875 1.3125 
z
" id="DejaVuSans-81"/>
      <path d="M 8.5 21.578125 
L 8.5 54.6875 
L 17.484375 54.6875 
L 17.484375 21.921875 
Q 17.484375 14.15625 20.5 10.265625 
Q 23.53125 6.390625 29.59375 6.390625 
Q 36.859375 6.390625 41.078125 11.03125 
Q 45.3125 15.671875 45.3125 23.6875 
L 45.3125 54.6875 
L 54.296875 54.6875 
L 54.296875 0 
L 45.3125 0 
L 45.3125 8.40625 
Q 42.046875 3.421875 37.71875 1 
Q 33.40625 -1.421875 27.6875 -1.421875 
Q 18.265625 -1.421875 13.375 4.4375 
Q 8.5 10.296875 8.5 21.578125 
z
M 31.109375 56 
z
" id="DejaVuSans-117"/>
      <path d="M 30.609375 48.390625 
Q 23.390625 48.390625 19.1875 42.75 
Q 14.984375 37.109375 14.984375 27.296875 
Q 14.984375 17.484375 19.15625 11.84375 
Q 23.34375 6.203125 30.609375 6.203125 
Q 37.796875 6.203125 41.984375 11.859375 
Q 46.1875 17.53125 46.1875 27.296875 
Q 46.1875 37.015625 41.984375 42.703125 
Q 37.796875 48.390625 30.609375 48.390625 
z
M 30.609375 56 
Q 42.328125 56 49.015625 48.375 
Q 55.71875 40.765625 55.71875 27.296875 
Q 55.71875 13.875 49.015625 6.21875 
Q 42.328125 -1.421875 30.609375 -1.421875 
Q 18.84375 -1.421875 12.171875 6.21875 
Q 5.515625 13.875 5.515625 27.296875 
Q 5.515625 40.765625 12.171875 48.375 
Q 18.84375 56 30.609375 56 
z
" id="DejaVuSans-111"/>
      <path d="M 18.3125 70.21875 
L 18.3125 54.6875 
L 36.8125 54.6875 
L 36.8125 47.703125 
L 18.3125 47.703125 
L 18.3125 18.015625 
Q 18.3125 11.328125 20.140625 9.421875 
Q 21.96875 7.515625 27.59375 7.515625 
L 36.8125 7.515625 
L 36.8125 0 
L 27.59375 0 
Q 17.1875 0 13.234375 3.875 
Q 9.28125 7.765625 9.28125 18.015625 
L 9.28125 47.703125 
L 2.6875 47.703125 
L 2.6875 54.6875 
L 9.28125 54.6875 
L 9.28125 70.21875 
z
" id="DejaVuSans-116"/>
      <path d="M 34.28125 27.484375 
Q 23.390625 27.484375 19.1875 25 
Q 14.984375 22.515625 14.984375 16.5 
Q 14.984375 11.71875 18.140625 8.90625 
Q 21.296875 6.109375 26.703125 6.109375 
Q 34.1875 6.109375 38.703125 11.40625 
Q 43.21875 16.703125 43.21875 25.484375 
L 43.21875 27.484375 
z
M 52.203125 31.203125 
L 52.203125 0 
L 43.21875 0 
L 43.21875 8.296875 
Q 40.140625 3.328125 35.546875 0.953125 
Q 30.953125 -1.421875 24.3125 -1.421875 
Q 15.921875 -1.421875 10.953125 3.296875 
Q 6 8.015625 6 15.921875 
Q 6 25.140625 12.171875 29.828125 
Q 18.359375 34.515625 30.609375 34.515625 
L 43.21875 34.515625 
L 43.21875 35.40625 
Q 43.21875 41.609375 39.140625 45 
Q 35.0625 48.390625 27.6875 48.390625 
Q 23 48.390625 18.546875 47.265625 
Q 14.109375 46.140625 10.015625 43.890625 
L 10.015625 52.203125 
Q 14.9375 54.109375 19.578125 55.046875 
Q 24.21875 56 28.609375 56 
Q 40.484375 56 46.34375 49.84375 
Q 52.203125 43.703125 52.203125 31.203125 
z
" id="DejaVuSans-97"/>
      <path id="DejaVuSans-32"/>
      <path d="M 8.59375 75.984375 
L 29.296875 75.984375 
L 29.296875 69 
L 17.578125 69 
L 17.578125 -6.203125 
L 29.296875 -6.203125 
L 29.296875 -13.1875 
L 8.59375 -13.1875 
z
" id="DejaVuSans-91"/>
      <path d="M 52 44.1875 
Q 55.375 50.25 60.0625 53.125 
Q 64.75 56 71.09375 56 
Q 79.640625 56 84.28125 50.015625 
Q 88.921875 44.046875 88.921875 33.015625 
L 88.921875 0 
L 79.890625 0 
L 79.890625 32.71875 
Q 79.890625 40.578125 77.09375 44.375 
Q 74.3125 48.1875 68.609375 48.1875 
Q 61.625 48.1875 57.5625 43.546875 
Q 53.515625 38.921875 53.515625 30.90625 
L 53.515625 0 
L 44.484375 0 
L 44.484375 32.71875 
Q 44.484375 40.625 41.703125 44.40625 
Q 38.921875 48.1875 33.109375 48.1875 
Q 26.21875 48.1875 22.15625 43.53125 
Q 18.109375 38.875 18.109375 30.90625 
L 18.109375 0 
L 9.078125 0 
L 9.078125 54.6875 
L 18.109375 54.6875 
L 18.109375 46.1875 
Q 21.1875 51.21875 25.484375 53.609375 
Q 29.78125 56 35.6875 56 
Q 41.65625 56 45.828125 52.96875 
Q 50 49.953125 52 44.1875 
z
" id="DejaVuSans-109"/>
      <path d="M 30.421875 75.984375 
L 30.421875 -13.1875 
L 9.71875 -13.1875 
L 9.71875 -6.203125 
L 21.390625 -6.203125 
L 21.390625 69 
L 9.71875 69 
L 9.71875 75.984375 
z
" id="DejaVuSans-93"/>
     </defs>
     <g transform="translate(417.250781 540.916563)scale(0.1 -0.1)">
      <use xlink:href="#DejaVuSans-81"/>
      <use x="78.710938" xlink:href="#DejaVuSans-117"/>
      <use x="142.089844" xlink:href="#DejaVuSans-111"/>
      <use x="203.271484" xlink:href="#DejaVuSans-116"/>
      <use x="242.480469" xlink:href="#DejaVuSans-97"/>
      <use x="303.759766" xlink:href="#DejaVuSans-32"/>
      <use x="335.546875" xlink:href="#DejaVuSans-91"/>
      <use x="374.560547" xlink:href="#DejaVuSans-109"/>
      <use x="471.972656" xlink:href="#DejaVuSans-93"/>
     </g>
    </g>
   </g>
   <g id="matplotlib.axis_2">
    <g id="ytick_1">
     <g id="line2d_13">
      <path clip-path="url(#p2e37773611)" d="M 108 492.48 
L 777.6 492.48 
" style="fill:none;stroke:#b0b0b0;stroke-linecap:square;stroke-width:0.8;"/>
     </g>
     <g id="line2d_14">
      <defs>
       <path d="M 0 0 
L -3.5 0 
" id="m2b814db185" style="stroke:#000000;stroke-width:0.8;"/>
      </defs>
      <g>
       <use style="stroke:#000000;stroke-width:0.8;" x="108" xlink:href="#m2b814db185" y="492.48"/>
      </g>
     </g>
     <g id="text_8">
      <!-- 250 -->
      <g transform="translate(81.9125 496.279219)scale(0.1 -0.1)">
       <use xlink:href="#DejaVuSans-50"/>
       <use x="63.623047" xlink:href="#DejaVuSans-53"/>
       <use x="127.246094" xlink:href="#DejaVuSans-48"/>
      </g>
     </g>
    </g>
    <g id="ytick_2">
     <g id="line2d_15">
      <path clip-path="url(#p2e37773611)" d="M 108 395.858207 
L 777.6 395.858207 
" style="fill:none;stroke:#b0b0b0;stroke-linecap:square;stroke-width:0.8;"/>
     </g>
     <g id="line2d_16">
      <g>
       <use style="stroke:#000000;stroke-width:0.8;" x="108" xlink:href="#m2b814db185" y="395.858207"/>
      </g>
     </g>
     <g id="text_9">
      <!-- 300 -->
      <defs>
       <path d="M 40.578125 39.3125 
Q 47.65625 37.796875 51.625 33 
Q 55.609375 28.21875 55.609375 21.1875 
Q 55.609375 10.40625 48.1875 4.484375 
Q 40.765625 -1.421875 27.09375 -1.421875 
Q 22.515625 -1.421875 17.65625 -0.515625 
Q 12.796875 0.390625 7.625 2.203125 
L 7.625 11.71875 
Q 11.71875 9.328125 16.59375 8.109375 
Q 21.484375 6.890625 26.8125 6.890625 
Q 36.078125 6.890625 40.9375 10.546875 
Q 45.796875 14.203125 45.796875 21.1875 
Q 45.796875 27.640625 41.28125 31.265625 
Q 36.765625 34.90625 28.71875 34.90625 
L 20.21875 34.90625 
L 20.21875 43.015625 
L 29.109375 43.015625 
Q 36.375 43.015625 40.234375 45.921875 
Q 44.09375 48.828125 44.09375 54.296875 
Q 44.09375 59.90625 40.109375 62.90625 
Q 36.140625 65.921875 28.71875 65.921875 
Q 24.65625 65.921875 20.015625 65.03125 
Q 15.375 64.15625 9.8125 62.3125 
L 9.8125 71.09375 
Q 15.4375 72.65625 20.34375 73.4375 
Q 25.25 74.21875 29.59375 74.21875 
Q 40.828125 74.21875 47.359375 69.109375 
Q 53.90625 64.015625 53.90625 55.328125 
Q 53.90625 49.265625 50.4375 45.09375 
Q 46.96875 40.921875 40.578125 39.3125 
z
" id="DejaVuSans-51"/>
      </defs>
      <g transform="translate(81.9125 399.657425)scale(0.1 -0.1)">
       <use xlink:href="#DejaVuSans-51"/>
       <use x="63.623047" xlink:href="#DejaVuSans-48"/>
       <use x="127.246094" xlink:href="#DejaVuSans-48"/>
      </g>
     </g>
    </g>
    <g id="ytick_3">
     <g id="line2d_17">
      <path clip-path="url(#p2e37773611)" d="M 108 299.236413 
L 777.6 299.236413 
" style="fill:none;stroke:#b0b0b0;stroke-linecap:square;stroke-width:0.8;"/>
     </g>
     <g id="line2d_18">
      <g>
       <use style="stroke:#000000;stroke-width:0.8;" x="108" xlink:href="#m2b814db185" y="299.236413"/>
      </g>
     </g>
     <g id="text_10">
      <!-- 350 -->
      <g transform="translate(81.9125 303.035632)scale(0.1 -0.1)">
       <use xlink:href="#DejaVuSans-51"/>
       <use x="63.623047" xlink:href="#DejaVuSans-53"/>
       <use x="127.246094" xlink:href="#DejaVuSans-48"/>
      </g>
     </g>
    </g>
    <g id="ytick_4">
     <g id="line2d_19">
      <path clip-path="url(#p2e37773611)" d="M 108 202.61462 
L 777.6 202.61462 
" style="fill:none;stroke:#b0b0b0;stroke-linecap:square;stroke-width:0.8;"/>
     </g>
     <g id="line2d_20">
      <g>
       <use style="stroke:#000000;stroke-width:0.8;" x="108" xlink:href="#m2b814db185" y="202.61462"/>
      </g>
     </g>
     <g id="text_11">
      <!-- 400 -->
      <defs>
       <path d="M 37.796875 64.3125 
L 12.890625 25.390625 
L 37.796875 25.390625 
z
M 35.203125 72.90625 
L 47.609375 72.90625 
L 47.609375 25.390625 
L 58.015625 25.390625 
L 58.015625 17.1875 
L 47.609375 17.1875 
L 47.609375 0 
L 37.796875 0 
L 37.796875 17.1875 
L 4.890625 17.1875 
L 4.890625 26.703125 
z
" id="DejaVuSans-52"/>
      </defs>
      <g transform="translate(81.9125 206.413839)scale(0.1 -0.1)">
       <use xlink:href="#DejaVuSans-52"/>
       <use x="63.623047" xlink:href="#DejaVuSans-48"/>
       <use x="127.246094" xlink:href="#DejaVuSans-48"/>
      </g>
     </g>
    </g>
    <g id="ytick_5">
     <g id="line2d_21">
      <path clip-path="url(#p2e37773611)" d="M 108 105.992827 
L 777.6 105.992827 
" style="fill:none;stroke:#b0b0b0;stroke-linecap:square;stroke-width:0.8;"/>
     </g>
     <g id="line2d_22">
      <g>
       <use style="stroke:#000000;stroke-width:0.8;" x="108" xlink:href="#m2b814db185" y="105.992827"/>
      </g>
     </g>
     <g id="text_12">
      <!-- 450 -->
      <g transform="translate(81.9125 109.792045)scale(0.1 -0.1)">
       <use xlink:href="#DejaVuSans-52"/>
       <use x="63.623047" xlink:href="#DejaVuSans-53"/>
       <use x="127.246094" xlink:href="#DejaVuSans-48"/>
      </g>
     </g>
    </g>
    <g id="text_13">
     <!-- Impulso specifico [s] -->
     <defs>
      <path d="M 9.8125 72.90625 
L 19.671875 72.90625 
L 19.671875 0 
L 9.8125 0 
z
" id="DejaVuSans-73"/>
      <path d="M 18.109375 8.203125 
L 18.109375 -20.796875 
L 9.078125 -20.796875 
L 9.078125 54.6875 
L 18.109375 54.6875 
L 18.109375 46.390625 
Q 20.953125 51.265625 25.265625 53.625 
Q 29.59375 56 35.59375 56 
Q 45.5625 56 51.78125 48.09375 
Q 58.015625 40.1875 58.015625 27.296875 
Q 58.015625 14.40625 51.78125 6.484375 
Q 45.5625 -1.421875 35.59375 -1.421875 
Q 29.59375 -1.421875 25.265625 0.953125 
Q 20.953125 3.328125 18.109375 8.203125 
z
M 48.6875 27.296875 
Q 48.6875 37.203125 44.609375 42.84375 
Q 40.53125 48.484375 33.40625 48.484375 
Q 26.265625 48.484375 22.1875 42.84375 
Q 18.109375 37.203125 18.109375 27.296875 
Q 18.109375 17.390625 22.1875 11.75 
Q 26.265625 6.109375 33.40625 6.109375 
Q 40.53125 6.109375 44.609375 11.75 
Q 48.6875 17.390625 48.6875 27.296875 
z
" id="DejaVuSans-112"/>
      <path d="M 9.421875 75.984375 
L 18.40625 75.984375 
L 18.40625 0 
L 9.421875 0 
z
" id="DejaVuSans-108"/>
      <path d="M 44.28125 53.078125 
L 44.28125 44.578125 
Q 40.484375 46.53125 36.375 47.5 
Q 32.28125 48.484375 27.875 48.484375 
Q 21.1875 48.484375 17.84375 46.4375 
Q 14.5 44.390625 14.5 40.28125 
Q 14.5 37.15625 16.890625 35.375 
Q 19.28125 33.59375 26.515625 31.984375 
L 29.59375 31.296875 
Q 39.15625 29.25 43.1875 25.515625 
Q 47.21875 21.78125 47.21875 15.09375 
Q 47.21875 7.46875 41.1875 3.015625 
Q 35.15625 -1.421875 24.609375 -1.421875 
Q 20.21875 -1.421875 15.453125 -0.5625 
Q 10.6875 0.296875 5.421875 2 
L 5.421875 11.28125 
Q 10.40625 8.6875 15.234375 7.390625 
Q 20.0625 6.109375 24.8125 6.109375 
Q 31.15625 6.109375 34.5625 8.28125 
Q 37.984375 10.453125 37.984375 14.40625 
Q 37.984375 18.0625 35.515625 20.015625 
Q 33.0625 21.96875 24.703125 23.78125 
L 21.578125 24.515625 
Q 13.234375 26.265625 9.515625 29.90625 
Q 5.8125 33.546875 5.8125 39.890625 
Q 5.8125 47.609375 11.28125 51.796875 
Q 16.75 56 26.8125 56 
Q 31.78125 56 36.171875 55.265625 
Q 40.578125 54.546875 44.28125 53.078125 
z
" id="DejaVuSans-115"/>
      <path d="M 56.203125 29.59375 
L 56.203125 25.203125 
L 14.890625 25.203125 
Q 15.484375 15.921875 20.484375 11.0625 
Q 25.484375 6.203125 34.421875 6.203125 
Q 39.59375 6.203125 44.453125 7.46875 
Q 49.3125 8.734375 54.109375 11.28125 
L 54.109375 2.78125 
Q 49.265625 0.734375 44.1875 -0.34375 
Q 39.109375 -1.421875 33.890625 -1.421875 
Q 20.796875 -1.421875 13.15625 6.1875 
Q 5.515625 13.8125 5.515625 26.8125 
Q 5.515625 40.234375 12.765625 48.109375 
Q 20.015625 56 32.328125 56 
Q 43.359375 56 49.78125 48.890625 
Q 56.203125 41.796875 56.203125 29.59375 
z
M 47.21875 32.234375 
Q 47.125 39.59375 43.09375 43.984375 
Q 39.0625 48.390625 32.421875 48.390625 
Q 24.90625 48.390625 20.390625 44.140625 
Q 15.875 39.890625 15.1875 32.171875 
z
" id="DejaVuSans-101"/>
      <path d="M 48.78125 52.59375 
L 48.78125 44.1875 
Q 44.96875 46.296875 41.140625 47.34375 
Q 37.3125 48.390625 33.40625 48.390625 
Q 24.65625 48.390625 19.8125 42.84375 
Q 14.984375 37.3125 14.984375 27.296875 
Q 14.984375 17.28125 19.8125 11.734375 
Q 24.65625 6.203125 33.40625 6.203125 
Q 37.3125 6.203125 41.140625 7.25 
Q 44.96875 8.296875 48.78125 10.40625 
L 48.78125 2.09375 
Q 45.015625 0.34375 40.984375 -0.53125 
Q 36.96875 -1.421875 32.421875 -1.421875 
Q 20.0625 -1.421875 12.78125 6.34375 
Q 5.515625 14.109375 5.515625 27.296875 
Q 5.515625 40.671875 12.859375 48.328125 
Q 20.21875 56 33.015625 56 
Q 37.15625 56 41.109375 55.140625 
Q 45.0625 54.296875 48.78125 52.59375 
z
" id="DejaVuSans-99"/>
      <path d="M 9.421875 54.6875 
L 18.40625 54.6875 
L 18.40625 0 
L 9.421875 0 
z
M 9.421875 75.984375 
L 18.40625 75.984375 
L 18.40625 64.59375 
L 9.421875 64.59375 
z
" id="DejaVuSans-105"/>
      <path d="M 37.109375 75.984375 
L 37.109375 68.5 
L 28.515625 68.5 
Q 23.6875 68.5 21.796875 66.546875 
Q 19.921875 64.59375 19.921875 59.515625 
L 19.921875 54.6875 
L 34.71875 54.6875 
L 34.71875 47.703125 
L 19.921875 47.703125 
L 19.921875 0 
L 10.890625 0 
L 10.890625 47.703125 
L 2.296875 47.703125 
L 2.296875 54.6875 
L 10.890625 54.6875 
L 10.890625 58.5 
Q 10.890625 67.625 15.140625 71.796875 
Q 19.390625 75.984375 28.609375 75.984375 
z
" id="DejaVuSans-102"/>
     </defs>
     <g transform="translate(75.832812 342.257344)rotate(-90)scale(0.1 -0.1)">
      <use xlink:href="#DejaVuSans-73"/>
      <use x="29.492188" xlink:href="#DejaVuSans-109"/>
      <use x="126.904297" xlink:href="#DejaVuSans-112"/>
      <use x="190.380859" xlink:href="#DejaVuSans-117"/>
      <use x="253.759766" xlink:href="#DejaVuSans-108"/>
      <use x="281.542969" xlink:href="#DejaVuSans-115"/>
      <use x="333.642578" xlink:href="#DejaVuSans-111"/>
      <use x="394.824219" xlink:href="#DejaVuSans-32"/>
      <use x="426.611328" xlink:href="#DejaVuSans-115"/>
      <use x="478.710938" xlink:href="#DejaVuSans-112"/>
      <use x="542.1875" xlink:href="#DejaVuSans-101"/>
      <use x="603.710938" xlink:href="#DejaVuSans-99"/>
      <use x="658.691406" xlink:href="#DejaVuSans-105"/>
      <use x="686.474609" xlink:href="#DejaVuSans-102"/>
      <use x="721.679688" xlink:href="#DejaVuSans-105"/>
      <use x="749.462891" xlink:href="#DejaVuSans-99"/>
      <use x="804.443359" xlink:href="#DejaVuSans-111"/>
      <use x="865.625" xlink:href="#DejaVuSans-32"/>
      <use x="897.412109" xlink:href="#DejaVuSans-91"/>
      <use x="936.425781" xlink:href="#DejaVuSans-115"/>
      <use x="988.525391" xlink:href="#DejaVuSans-93"/>
     </g>
    </g>
   </g>
   <g id="line2d_23">
    <path clip-path="url(#p2e37773611)" d="M 138.436364 328.635602 
L 142.315002 292.381451 
L 146.19364 263.204354 
L 150.072278 239.550981 
L 153.950916 220.244422 
L 157.829554 204.384864 
L 161.708192 191.2785 
L 165.58683 179.766537 
L 169.465468 165.281242 
L 173.344106 154.013381 
L 177.222744 145.248307 
L 181.101382 138.430108 
L 184.98002 133.126349 
L 188.858658 129.000647 
L 192.737296 125.791334 
L 196.615934 123.294866 
L 200.494572 121.352906 
L 204.37321 119.842289 
L 208.251848 118.667207 
L 212.130486 117.75313 
L 216.009124 117.042086 
L 219.887762 116.488977 
L 223.7664 116.058723 
L 227.645038 115.724036 
L 231.523676 115.463688 
L 235.402314 115.261169 
L 239.280952 115.103632 
L 243.15959 114.981087 
L 247.038228 114.885762 
L 250.916866 114.81161 
L 254.795504 114.753928 
L 258.674142 114.709058 
L 262.55278 114.674155 
L 266.431418 114.647005 
L 270.310056 114.625885 
L 274.188694 114.609456 
L 278.067332 114.596676 
L 281.94597 114.586735 
L 285.824608 114.579002 
L 289.703246 114.572986 
L 293.581884 114.568307 
L 297.460522 114.564667 
L 301.33916 114.561836 
L 305.217798 114.559633 
L 309.096436 114.55792 
L 312.975074 114.556587 
L 316.853712 114.55555 
L 320.73235 114.554744 
L 324.610988 114.554117 
L 328.489626 114.553629 
L 332.368264 114.553249 
L 336.246902 114.552954 
L 340.12554 114.552724 
L 344.004179 114.552545 
L 347.882817 114.552406 
L 351.761455 114.552298 
L 355.640093 114.552214 
L 359.518731 114.552149 
L 363.397369 114.552098 
L 367.276007 114.552058 
L 371.154645 114.552027 
L 375.033283 114.552003 
L 378.911921 114.551985 
L 382.790559 114.55197 
L 386.669197 114.551959 
L 390.547835 114.55195 
L 394.426473 114.551943 
L 398.305111 114.551938 
L 402.183749 114.551934 
L 406.062387 114.551931 
L 409.941025 114.551928 
L 413.819663 114.551926 
L 417.698301 114.551925 
L 421.576939 114.551924 
L 425.455577 114.551923 
L 429.334215 114.551922 
L 433.212853 114.551922 
L 437.091491 114.551921 
L 440.970129 114.551921 
L 444.848767 114.551921 
L 448.727405 114.55192 
L 452.606043 114.55192 
L 456.484681 114.55192 
L 460.363319 114.55192 
L 464.241957 114.55192 
L 468.120595 114.55192 
L 471.999233 114.55192 
L 475.877871 114.55192 
L 479.756509 114.55192 
L 483.635147 114.55192 
L 487.513785 114.55192 
L 491.392423 114.55192 
L 495.271061 114.55192 
L 499.149699 114.55192 
L 503.028337 114.55192 
L 506.906975 114.55192 
L 510.785613 114.55192 
L 514.664251 114.55192 
L 518.542889 114.55192 
L 522.421527 114.55192 
" style="fill:none;stroke:#cc3300;stroke-linecap:square;stroke-width:1.5;"/>
   </g>
   <g id="line2d_24">
    <path clip-path="url(#p2e37773611)" d="M 138.436364 492.48 
L 140.076853 488.797962 
L 141.717342 485.445147 
L 143.357831 482.387895 
L 144.998321 479.596409 
L 146.63881 477.044261 
L 148.279299 474.707975 
L 149.919788 472.566659 
L 151.560278 470.601689 
L 153.200767 468.796442 
L 154.841256 467.136053 
L 156.481745 465.607212 
L 158.122235 464.197983 
L 159.762724 462.897646 
L 161.403213 461.696561 
L 163.043702 460.586049 
L 164.684192 459.558282 
L 166.324681 458.199003 
L 167.96517 456.784943 
L 169.60566 455.513404 
L 171.246149 454.370023 
L 172.886638 453.341881 
L 174.527127 452.417366 
L 176.167617 451.586031 
L 177.808106 450.838486 
L 179.448595 450.166285 
L 181.089084 449.561835 
L 182.729574 449.018306 
L 184.370063 448.52956 
L 186.010552 448.090073 
L 187.651041 447.694882 
L 189.291531 447.339522 
L 190.93202 447.019979 
L 192.572509 446.732642 
L 194.212998 446.474265 
L 195.853488 446.24193 
L 197.493977 446.033012 
L 199.134466 445.84515 
L 200.774955 445.676223 
L 202.415445 445.524322 
L 204.055934 445.387731 
L 205.696423 445.264906 
L 207.336912 445.154461 
L 208.977402 445.055148 
L 210.617891 444.965844 
L 212.25838 444.885542 
L 213.898869 444.813332 
L 215.539359 444.748401 
L 217.179848 444.690014 
L 218.820337 444.637512 
L 220.460826 444.590302 
L 222.101316 444.547849 
L 223.741805 444.509676 
L 225.382294 444.47535 
L 227.022783 444.444484 
L 228.663273 444.416728 
L 230.303762 444.39177 
L 231.944251 444.369328 
L 233.58474 444.349148 
L 235.22523 444.331001 
L 236.865719 444.314684 
L 238.506208 444.300011 
L 240.146698 444.286817 
L 241.787187 444.274952 
L 243.427676 444.264284 
L 245.068165 444.254691 
L 246.708655 444.246065 
L 248.349144 444.238308 
L 249.989633 444.231333 
L 251.630122 444.225061 
L 253.270612 444.219421 
L 254.911101 444.214349 
L 256.55159 444.209789 
L 258.192079 444.205688 
L 259.832569 444.202001 
L 261.473058 444.198685 
L 263.113547 444.195704 
L 264.754036 444.193023 
L 266.394526 444.190612 
L 268.035015 444.188444 
L 269.675504 444.186495 
L 271.315993 444.184742 
L 272.956483 444.183166 
L 274.596972 444.181748 
L 276.237461 444.180474 
L 277.87795 444.179328 
L 279.51844 444.178297 
L 281.158929 444.177371 
L 282.799418 444.176537 
L 284.439907 444.175788 
L 286.080397 444.175114 
L 287.720886 444.174509 
L 289.361375 444.173964 
L 291.001864 444.173474 
L 292.642354 444.173033 
L 294.282843 444.172637 
L 295.923332 444.172281 
L 297.563821 444.171961 
L 299.204311 444.171673 
L 300.8448 444.171414 
" style="fill:none;stroke:#cc3300;stroke-dasharray:5.55,2.4;stroke-dashoffset:0;stroke-width:1.5;"/>
   </g>
   <g id="line2d_25">
    <path clip-path="url(#p2e37773611)" d="M 522.421527 89.28 
L 524.69165 89.28 
L 526.961772 89.28 
L 529.231894 89.28 
L 531.502017 89.28 
L 533.772139 89.28 
L 536.042261 89.28 
L 538.312383 89.28 
L 540.582506 89.28 
L 542.852628 89.28 
L 545.12275 89.28 
L 547.392873 89.28 
L 549.662995 89.28 
L 551.933117 89.28 
L 554.20324 89.28 
L 556.473362 89.28 
L 558.743484 89.28 
L 561.013607 89.28 
L 563.283729 89.28 
L 565.553851 89.28 
L 567.823974 89.28 
L 570.094096 89.28 
L 572.364218 89.28 
L 574.63434 89.28 
L 576.904463 89.28 
L 579.174585 89.28 
L 581.444707 89.28 
L 583.71483 89.28 
L 585.984952 89.28 
L 588.255074 89.28 
L 590.525197 89.28 
L 592.795319 89.28 
L 595.065441 89.28 
L 597.335564 89.28 
L 599.605686 89.28 
L 601.875808 89.28 
L 604.145931 89.28 
L 606.416053 89.28 
L 608.686175 89.28 
L 610.956298 89.28 
L 613.22642 89.28 
L 615.496542 89.28 
L 617.766664 89.28 
L 620.036787 89.28 
L 622.306909 89.28 
L 624.577031 89.28 
L 626.847154 89.28 
L 629.117276 89.28 
L 631.387398 89.28 
L 633.657521 89.28 
L 635.927643 89.28 
L 638.197765 89.28 
L 640.467888 89.28 
L 642.73801 89.28 
L 645.008132 89.28 
L 647.278255 89.28 
L 649.548377 89.28 
L 651.818499 89.28 
L 654.088621 89.28 
L 656.358744 89.28 
L 658.628866 89.28 
L 660.898988 89.28 
L 663.169111 89.28 
L 665.439233 89.28 
L 667.709355 89.28 
L 669.979478 89.28 
L 672.2496 89.28 
L 674.519722 89.28 
L 676.789845 89.28 
L 679.059967 89.28 
L 681.330089 89.28 
L 683.600212 89.28 
L 685.870334 89.28 
L 688.140456 89.28 
L 690.410579 89.28 
L 692.680701 89.28 
L 694.950823 89.28 
L 697.220945 89.28 
L 699.491068 89.28 
L 701.76119 89.28 
L 704.031312 89.28 
L 706.301435 89.28 
L 708.571557 89.28 
L 710.841679 89.28 
L 713.111802 89.28 
L 715.381924 89.28 
L 717.652046 89.28 
L 719.922169 89.28 
L 722.192291 89.28 
L 724.462413 89.28 
L 726.732536 89.28 
L 729.002658 89.28 
L 731.27278 89.28 
L 733.542902 89.28 
L 735.813025 89.28 
L 738.083147 89.28 
L 740.353269 89.28 
L 742.623392 89.28 
L 744.893514 89.28 
L 747.163636 89.28 
" style="fill:none;stroke:#cc3300;stroke-dasharray:9.6,2.4,1.5,2.4;stroke-dashoffset:0;stroke-width:1.5;"/>
   </g>
   <g id="line2d_26">
    <path clip-path="url(#p2e37773611)" d="M 138.436364 399.323579 
L 140.699107 394.005877 
L 142.961851 389.329336 
L 145.224595 385.205999 
L 147.487339 381.561383 
L 149.750083 378.332206 
L 152.012826 375.464533 
L 154.27557 372.912255 
L 156.538314 370.635839 
L 158.801058 368.601292 
L 161.063802 366.77931 
L 163.326545 365.144558 
L 165.589289 363.525131 
L 167.852033 361.388081 
L 170.114777 359.542321 
L 172.377521 357.948146 
L 174.640264 356.571263 
L 176.903008 355.382055 
L 179.165752 354.354942 
L 181.428496 353.467828 
L 183.69124 352.701631 
L 185.953983 352.039871 
L 188.216727 351.468311 
L 190.479471 350.974657 
L 192.742215 350.54829 
L 195.004959 350.180039 
L 197.267702 349.861982 
L 199.530446 349.587278 
L 201.79319 349.350017 
L 204.055934 349.145095 
L 206.318678 348.968106 
L 208.581421 348.81524 
L 210.844165 348.683211 
L 213.106909 348.569178 
L 215.369653 348.470689 
L 217.632397 348.385623 
L 219.89514 348.312153 
L 222.157884 348.248697 
L 224.420628 348.19389 
L 226.683372 348.146553 
L 228.946116 348.105669 
L 231.20886 348.070358 
L 233.471603 348.039859 
L 235.734347 348.013518 
L 237.997091 347.990767 
L 240.259835 347.971117 
L 242.522579 347.954145 
L 244.785322 347.939487 
L 247.048066 347.926827 
L 249.31081 347.915892 
L 251.573554 347.906448 
L 253.836298 347.898291 
L 256.099041 347.891246 
L 258.361785 347.885161 
L 260.624529 347.879906 
L 262.887273 347.875367 
L 265.150017 347.871447 
L 267.41276 347.868061 
L 269.675504 347.865136 
L 271.938248 347.86261 
L 274.200992 347.860429 
L 276.463736 347.858544 
L 278.726479 347.856917 
L 280.989223 347.855511 
L 283.251967 347.854297 
L 285.514711 347.853249 
L 287.777455 347.852343 
L 290.040198 347.851561 
L 292.302942 347.850886 
L 294.565686 347.850302 
L 296.82843 347.849798 
L 299.091174 347.849363 
L 301.353917 347.848987 
L 303.616661 347.848662 
L 305.879405 347.848382 
L 308.142149 347.84814 
L 310.404893 347.84793 
L 312.667636 347.84775 
L 314.93038 347.847594 
L 317.193124 347.847459 
L 319.455868 347.847343 
L 321.718612 347.847242 
L 323.981355 347.847155 
L 326.244099 347.84708 
L 328.506843 347.847015 
L 330.769587 347.846959 
L 333.032331 347.846911 
L 335.295074 347.846869 
L 337.557818 347.846833 
L 339.820562 347.846802 
L 342.083306 347.846775 
L 344.34605 347.846752 
L 346.608793 347.846732 
L 348.871537 347.846715 
L 351.134281 347.8467 
L 353.397025 347.846687 
L 355.659769 347.846676 
L 357.922512 347.846666 
L 360.185256 347.846658 
L 362.448 347.84665 
" style="fill:none;stroke:#009900;stroke-linecap:square;stroke-width:1.5;"/>
   </g>
   <g id="line2d_27">
    <path clip-path="url(#p2e37773611)" d="M 138.436364 399.323579 
L 139.961256 395.66476 
L 141.486149 392.311327 
L 143.011041 389.234107 
L 144.535934 386.407059 
L 146.060826 383.806895 
L 147.585719 381.412766 
L 149.110612 379.205973 
L 150.635504 377.169727 
L 152.160397 375.288926 
L 153.685289 373.549975 
L 155.210182 371.940613 
L 156.735074 370.449772 
L 158.259967 369.067446 
L 159.78486 367.78458 
L 161.309752 366.592969 
L 162.834645 365.485169 
L 164.359537 364.454419 
L 165.88443 363.228309 
L 167.409322 361.781932 
L 168.934215 360.471561 
L 170.459107 359.284407 
L 171.984 358.208884 
L 173.508893 357.234495 
L 175.033785 356.35173 
L 176.558678 355.551974 
L 178.08357 354.82742 
L 179.608463 354.170998 
L 181.133355 353.576301 
L 182.658248 353.037524 
L 184.18314 352.54941 
L 185.708033 352.107195 
L 187.232926 351.706562 
L 188.757818 351.343601 
L 190.282711 351.01477 
L 191.807603 350.71686 
L 193.332496 350.446964 
L 194.857388 350.202446 
L 196.382281 349.980921 
L 197.907174 349.780226 
L 199.432066 349.598403 
L 200.956959 349.433678 
L 202.481851 349.284442 
L 204.006744 349.149238 
L 205.531636 349.026749 
L 207.056529 348.915777 
L 208.581421 348.81524 
L 210.106314 348.724157 
L 211.631207 348.641639 
L 213.156099 348.56688 
L 214.680992 348.499151 
L 216.205884 348.437791 
L 217.730777 348.3822 
L 219.255669 348.331837 
L 220.780562 348.286209 
L 222.305455 348.244872 
L 223.830347 348.207422 
L 225.35524 348.173494 
L 226.880132 348.142756 
L 228.405025 348.114908 
L 229.929917 348.089679 
L 231.45481 348.066822 
L 232.979702 348.046115 
L 234.504595 348.027354 
L 236.029488 348.010358 
L 237.55438 347.99496 
L 239.079273 347.98101 
L 240.604165 347.968371 
L 242.129058 347.956921 
L 243.65395 347.946548 
L 245.178843 347.93715 
L 246.703736 347.928636 
L 248.228628 347.920922 
L 249.753521 347.913934 
L 251.278413 347.907603 
L 252.803306 347.901867 
L 254.328198 347.896671 
L 255.853091 347.891963 
L 257.377983 347.887698 
L 258.902876 347.883834 
L 260.427769 347.880333 
L 261.952661 347.877162 
L 263.477554 347.874288 
L 265.002446 347.871685 
L 266.527339 347.869327 
L 268.052231 347.86719 
L 269.577124 347.865254 
L 271.102017 347.863501 
L 272.626909 347.861912 
L 274.151802 347.860473 
L 275.676694 347.859169 
L 277.201587 347.857987 
L 278.726479 347.856917 
L 280.251372 347.855947 
L 281.776264 347.855069 
L 283.301157 347.854273 
L 284.82605 347.853552 
L 286.350942 347.852899 
L 287.875835 347.852307 
L 289.400727 347.851771 
" style="fill:none;stroke:#009900;stroke-dasharray:5.55,2.4;stroke-dashoffset:0;stroke-width:1.5;"/>
   </g>
   <g id="line2d_28">
    <path clip-path="url(#p2e37773611)" d="M 362.448 268.811379 
L 366.334017 268.81128 
L 370.220033 268.811203 
L 374.10605 268.811142 
L 377.992066 268.811096 
L 381.878083 268.811059 
L 385.764099 268.811031 
L 389.650116 268.811009 
L 393.536132 268.810992 
L 397.422149 268.810979 
L 401.308165 268.810968 
L 405.194182 268.81096 
L 409.080198 268.810954 
L 412.966215 268.810949 
L 416.852231 268.810945 
L 420.738248 268.810942 
L 424.624264 268.81094 
L 428.510281 268.810938 
L 432.396298 268.810937 
L 436.282314 268.810936 
L 440.168331 268.810935 
L 444.054347 268.810934 
L 447.940364 268.810934 
L 451.82638 268.810933 
L 455.712397 268.810933 
L 459.598413 268.810933 
L 463.48443 268.810933 
L 467.370446 268.810933 
L 471.256463 268.810933 
L 475.142479 268.810932 
L 479.028496 268.810932 
L 482.914512 268.810932 
L 486.800529 268.810932 
L 490.686545 268.810932 
L 494.572562 268.810932 
L 498.458579 268.810932 
L 502.344595 268.810932 
L 506.230612 268.810932 
L 510.116628 268.810932 
L 514.002645 268.810932 
L 517.888661 268.810932 
L 521.774678 268.810932 
L 525.660694 268.810932 
L 529.546711 268.810932 
L 533.432727 268.810932 
L 537.318744 268.810932 
L 541.20476 268.810932 
L 545.090777 268.810932 
L 548.976793 268.810932 
L 552.86281 268.810932 
L 556.748826 268.810932 
L 560.634843 268.810932 
L 564.52086 268.810932 
L 568.406876 268.810932 
L 572.292893 268.810932 
L 576.178909 268.810932 
L 580.064926 268.810932 
L 583.950942 268.810932 
L 587.836959 268.810932 
L 591.722975 268.810932 
L 595.608992 268.810932 
L 599.495008 268.810932 
L 603.381025 268.810932 
L 607.267041 268.810932 
L 611.153058 268.810932 
L 615.039074 268.810932 
L 618.925091 268.810932 
L 622.811107 268.810932 
L 626.697124 268.810932 
L 630.58314 268.810932 
L 634.469157 268.810932 
L 638.355174 268.810932 
L 642.24119 268.810932 
L 646.127207 268.810932 
L 650.013223 268.810932 
L 653.89924 268.810932 
L 657.785256 268.810932 
L 661.671273 268.810932 
L 665.557289 268.810932 
L 669.443306 268.810932 
L 673.329322 268.810932 
L 677.215339 268.810932 
L 681.101355 268.810932 
L 684.987372 268.810932 
L 688.873388 268.810932 
L 692.759405 268.810932 
L 696.645421 268.810932 
L 700.531438 268.810932 
L 704.417455 268.810932 
L 708.303471 268.810932 
L 712.189488 268.810932 
L 716.075504 268.810932 
L 719.961521 268.810932 
L 723.847537 268.810932 
L 727.733554 268.810932 
L 731.61957 268.810932 
L 735.505587 268.810932 
L 739.391603 268.810932 
L 743.27762 268.810932 
L 747.163636 268.810932 
" style="fill:none;stroke:#009900;stroke-dasharray:9.6,2.4,1.5,2.4;stroke-dashoffset:0;stroke-width:1.5;"/>
   </g>
   <g id="line2d_29">
    <path clip-path="url(#p2e37773611)" d="M 138.436364 434.358973 
L 140.035041 428.041827 
L 141.633719 422.275964 
L 143.232397 417.006356 
L 144.831074 412.184141 
L 146.429752 407.765855 
L 148.02843 403.712775 
L 149.627107 399.990349 
L 151.225785 396.567693 
L 152.824463 393.417166 
L 154.42314 390.513989 
L 156.021818 387.835918 
L 157.620496 385.362959 
L 159.219174 383.077111 
L 160.817851 380.962152 
L 162.416529 379.003439 
L 164.015207 377.187742 
L 165.613884 375.23942 
L 167.212562 372.698702 
L 168.81124 370.407866 
L 170.409917 368.342336 
L 172.008595 366.479953 
L 173.607273 364.800737 
L 175.20595 363.286674 
L 176.804628 361.92152 
L 178.403306 360.69063 
L 180.001983 359.5808 
L 181.600661 358.580122 
L 183.199339 357.677862 
L 184.798017 356.864341 
L 186.396694 356.13083 
L 187.995372 355.46946 
L 189.59405 354.873137 
L 191.192727 354.335462 
L 192.791405 353.850669 
L 194.390083 353.413555 
L 195.98876 353.019432 
L 197.587438 352.664072 
L 199.186116 352.343661 
L 200.784793 352.054763 
L 202.383471 351.794279 
L 203.982149 351.559413 
L 205.580826 351.347647 
L 207.179504 351.156708 
L 208.778182 350.984548 
L 210.37686 350.82932 
L 211.975537 350.689359 
L 213.574215 350.563163 
L 215.172893 350.449379 
L 216.77157 350.346786 
L 218.370248 350.254282 
L 219.968926 350.170877 
L 221.567603 350.095674 
L 223.166281 350.027868 
L 224.764959 349.966731 
L 226.363636 349.911606 
L 227.962314 349.861903 
L 229.560992 349.817089 
L 231.159669 349.776682 
L 232.758347 349.740249 
L 234.357025 349.707399 
L 235.955702 349.67778 
L 237.55438 349.651074 
L 239.153058 349.626995 
L 240.751736 349.605283 
L 242.350413 349.585708 
L 243.949091 349.568057 
L 245.547769 349.552143 
L 247.146446 349.537793 
L 248.745124 349.524855 
L 250.343802 349.513189 
L 251.942479 349.502671 
L 253.541157 349.493187 
L 255.139835 349.484636 
L 256.738512 349.476926 
L 258.33719 349.469975 
L 259.935868 349.463706 
L 261.534545 349.458055 
L 263.133223 349.452959 
L 264.731901 349.448365 
L 266.330579 349.444222 
L 267.929256 349.440487 
L 269.527934 349.437119 
L 271.126612 349.434082 
L 272.725289 349.431344 
L 274.323967 349.428875 
L 275.922645 349.426649 
L 277.521322 349.424642 
L 279.12 349.422833 
L 280.718678 349.421201 
L 282.317355 349.41973 
L 283.916033 349.418404 
L 285.514711 349.417208 
L 287.113388 349.416129 
L 288.712066 349.415157 
L 290.310744 349.41428 
L 291.909421 349.41349 
L 293.508099 349.412777 
L 295.106777 349.412134 
L 296.705455 349.411555 
" style="fill:none;stroke:#003399;stroke-linecap:square;stroke-width:1.5;"/>
   </g>
   <g id="line2d_30">
    <path clip-path="url(#p2e37773611)" d="M 296.705455 139.723271 
L 299.410909 139.721018 
L 302.116364 139.719126 
L 304.821818 139.717539 
L 307.527273 139.716207 
L 310.232727 139.715089 
L 312.938182 139.714151 
L 315.643636 139.713363 
L 318.349091 139.712702 
L 321.054545 139.712147 
L 323.76 139.711682 
L 326.465455 139.711291 
L 329.170909 139.710963 
L 331.876364 139.710688 
L 334.581818 139.710457 
L 337.287273 139.710263 
L 339.992727 139.7101 
L 342.698182 139.709964 
L 345.403636 139.709849 
L 348.109091 139.709753 
L 350.814545 139.709672 
L 353.52 139.709604 
L 356.225455 139.709547 
L 358.930909 139.7095 
L 361.636364 139.70946 
L 364.341818 139.709426 
L 367.047273 139.709398 
L 369.752727 139.709374 
L 372.458182 139.709354 
L 375.163636 139.709338 
L 377.869091 139.709324 
L 380.574545 139.709312 
L 383.28 139.709302 
L 385.985455 139.709294 
L 388.690909 139.709287 
L 391.396364 139.709281 
L 394.101818 139.709276 
L 396.807273 139.709272 
L 399.512727 139.709268 
L 402.218182 139.709266 
L 404.923636 139.709263 
L 407.629091 139.709261 
L 410.334545 139.709259 
L 413.04 139.709258 
L 415.745455 139.709257 
L 418.450909 139.709256 
L 421.156364 139.709255 
L 423.861818 139.709254 
L 426.567273 139.709254 
L 429.272727 139.709253 
L 431.978182 139.709253 
L 434.683636 139.709252 
L 437.389091 139.709252 
L 440.094545 139.709252 
L 442.8 139.709252 
L 445.505455 139.709251 
L 448.210909 139.709251 
L 450.916364 139.709251 
L 453.621818 139.709251 
L 456.327273 139.709251 
L 459.032727 139.709251 
L 461.738182 139.709251 
L 464.443636 139.709251 
L 467.149091 139.709251 
L 469.854545 139.709251 
L 472.56 139.709251 
L 475.265455 139.709251 
L 477.970909 139.709251 
L 480.676364 139.709251 
L 483.381818 139.709251 
L 486.087273 139.709251 
L 488.792727 139.709251 
L 491.498182 139.709251 
L 494.203636 139.709251 
L 496.909091 139.709251 
L 499.614545 139.709251 
L 502.32 139.709251 
L 505.025455 139.709251 
L 507.730909 139.709251 
L 510.436364 139.70925 
L 513.141818 139.70925 
L 515.847273 139.70925 
L 518.552727 139.70925 
L 521.258182 139.70925 
L 523.963636 139.70925 
L 526.669091 139.70925 
L 529.374545 139.70925 
L 532.08 139.70925 
L 534.785455 139.70925 
L 537.490909 139.70925 
L 540.196364 139.70925 
L 542.901818 139.70925 
L 545.607273 139.70925 
L 548.312727 139.70925 
L 551.018182 139.70925 
L 553.723636 139.70925 
L 556.429091 139.70925 
L 559.134545 139.70925 
L 561.84 139.70925 
L 564.545455 139.70925 
" style="fill:none;stroke:#003399;stroke-dasharray:5.55,2.4;stroke-dashoffset:0;stroke-width:1.5;"/>
   </g>
   <g id="line2d_31">
    <path clip-path="url(#p2e37773611)" d="M 564.545455 139.70925 
L 564.791405 139.70925 
L 565.037355 139.70925 
L 565.283306 139.70925 
L 565.529256 139.70925 
L 565.775207 139.70925 
L 566.021157 139.70925 
L 566.267107 139.70925 
L 566.513058 139.70925 
L 566.759008 139.70925 
L 567.004959 139.70925 
L 567.250909 139.70925 
L 567.49686 139.70925 
L 567.74281 139.70925 
L 567.98876 139.70925 
L 568.234711 139.70925 
L 568.480661 139.70925 
L 568.726612 139.70925 
L 568.972562 139.70925 
L 569.218512 139.70925 
L 569.464463 139.70925 
L 569.710413 139.70925 
L 569.956364 139.70925 
L 570.202314 139.70925 
L 570.448264 139.70925 
L 570.694215 139.70925 
L 570.940165 139.70925 
L 571.186116 139.70925 
L 571.432066 139.70925 
L 571.678017 139.70925 
L 571.923967 139.70925 
L 572.169917 139.70925 
L 572.415868 139.70925 
L 572.661818 139.70925 
L 572.907769 139.70925 
L 573.153719 139.70925 
L 573.399669 139.70925 
L 573.64562 139.70925 
L 573.89157 139.70925 
L 574.137521 139.70925 
L 574.383471 139.70925 
L 574.629421 139.70925 
L 574.875372 139.70925 
L 575.121322 139.70925 
L 575.367273 139.70925 
L 575.613223 139.70925 
L 575.859174 139.70925 
L 576.105124 139.70925 
L 576.351074 139.70925 
L 576.597025 139.70925 
L 576.842975 139.70925 
L 577.088926 139.70925 
L 577.334876 139.70925 
L 577.580826 139.70925 
L 577.826777 139.70925 
L 578.072727 139.70925 
L 578.318678 139.70925 
L 578.564628 139.70925 
L 578.810579 139.70925 
L 579.056529 139.70925 
L 579.302479 139.70925 
L 579.54843 139.70925 
L 579.79438 139.70925 
L 580.040331 139.70925 
L 580.286281 139.70925 
L 580.532231 139.70925 
L 580.778182 139.70925 
L 581.024132 139.70925 
L 581.270083 139.70925 
L 581.516033 139.70925 
L 581.761983 139.70925 
L 582.007934 139.70925 
L 582.253884 139.70925 
L 582.499835 139.70925 
L 582.745785 139.70925 
L 582.991736 139.70925 
L 583.237686 139.70925 
L 583.483636 139.70925 
L 583.729587 139.70925 
L 583.975537 139.70925 
L 584.221488 139.70925 
L 584.467438 139.70925 
L 584.713388 139.70925 
L 584.959339 139.70925 
L 585.205289 139.70925 
L 585.45124 139.70925 
L 585.69719 139.70925 
L 585.94314 139.70925 
L 586.189091 139.70925 
L 586.435041 139.70925 
L 586.680992 139.70925 
L 586.926942 139.70925 
L 587.172893 139.70925 
L 587.418843 139.70925 
L 587.664793 139.70925 
L 587.910744 139.70925 
L 588.156694 139.70925 
L 588.402645 139.70925 
L 588.648595 139.70925 
L 588.894545 139.70925 
" style="fill:none;stroke:#003399;stroke-dasharray:9.6,2.4,1.5,2.4;stroke-dashoffset:0;stroke-width:1.5;"/>
   </g>
   <g id="line2d_32">
    <path clip-path="url(#p2e37773611)" d="M 588.894545 139.70925 
L 590.493223 139.70925 
L 592.091901 139.70925 
L 593.690579 139.70925 
L 595.289256 139.70925 
L 596.887934 139.70925 
L 598.486612 139.70925 
L 600.085289 139.70925 
L 601.683967 139.70925 
L 603.282645 139.70925 
L 604.881322 139.70925 
L 606.48 139.70925 
L 608.078678 139.70925 
L 609.677355 139.70925 
L 611.276033 139.70925 
L 612.874711 139.70925 
L 614.473388 139.70925 
L 616.072066 139.70925 
L 617.670744 139.70925 
L 619.269421 139.70925 
L 620.868099 139.70925 
L 622.466777 139.70925 
L 624.065455 139.70925 
L 625.664132 139.70925 
L 627.26281 139.70925 
L 628.861488 139.70925 
L 630.460165 139.70925 
L 632.058843 139.70925 
L 633.657521 139.70925 
L 635.256198 139.70925 
L 636.854876 139.70925 
L 638.453554 139.70925 
L 640.052231 139.70925 
L 641.650909 139.70925 
L 643.249587 139.70925 
L 644.848264 139.70925 
L 646.446942 139.70925 
L 648.04562 139.70925 
L 649.644298 139.70925 
L 651.242975 139.70925 
L 652.841653 139.70925 
L 654.440331 139.70925 
L 656.039008 139.70925 
L 657.637686 139.70925 
L 659.236364 139.70925 
L 660.835041 139.70925 
L 662.433719 139.70925 
L 664.032397 139.70925 
L 665.631074 139.70925 
L 667.229752 139.70925 
L 668.82843 139.70925 
L 670.427107 139.70925 
L 672.025785 139.70925 
L 673.624463 139.70925 
L 675.22314 139.70925 
L 676.821818 139.70925 
L 678.420496 139.70925 
L 680.019174 139.70925 
L 681.617851 139.70925 
L 683.216529 139.70925 
L 684.815207 139.70925 
L 686.413884 139.70925 
L 688.012562 139.70925 
L 689.61124 139.70925 
L 691.209917 139.70925 
L 692.808595 139.70925 
L 694.407273 139.70925 
L 696.00595 139.70925 
L 697.604628 139.70925 
L 699.203306 139.70925 
L 700.801983 139.70925 
L 702.400661 139.70925 
L 703.999339 139.70925 
L 705.598017 139.70925 
L 707.196694 139.70925 
L 708.795372 139.70925 
L 710.39405 139.70925 
L 711.992727 139.70925 
L 713.591405 139.70925 
L 715.190083 139.70925 
L 716.78876 139.70925 
L 718.387438 139.70925 
L 719.986116 139.70925 
L 721.584793 139.70925 
L 723.183471 139.70925 
L 724.782149 139.70925 
L 726.380826 139.70925 
L 727.979504 139.70925 
L 729.578182 139.70925 
L 731.17686 139.70925 
L 732.775537 139.70925 
L 734.374215 139.70925 
L 735.972893 139.70925 
L 737.57157 139.70925 
L 739.170248 139.70925 
L 740.768926 139.70925 
L 742.367603 139.70925 
L 743.966281 139.70925 
L 745.564959 139.70925 
L 747.163636 139.70925 
" style="fill:none;stroke:#003399;stroke-dasharray:1.5,2.475;stroke-dashoffset:0;stroke-width:1.5;"/>
   </g>
   <g id="patch_3">
    <path d="M 108 512.64 
L 108 69.12 
" style="fill:none;stroke:#000000;stroke-linecap:square;stroke-linejoin:miter;stroke-width:0.8;"/>
   </g>
   <g id="patch_4">
    <path d="M 777.6 512.64 
L 777.6 69.12 
" style="fill:none;stroke:#000000;stroke-linecap:square;stroke-linejoin:miter;stroke-width:0.8;"/>
   </g>
   <g id="patch_5">
    <path d="M 108 512.64 
L 777.6 512.64 
" style="fill:none;stroke:#000000;stroke-linecap:square;stroke-linejoin:miter;stroke-width:0.8;"/>
   </g>
   <g id="patch_6">
    <path d="M 108 69.12 
L 777.6 69.12 
" style="fill:none;stroke:#000000;stroke-linecap:square;stroke-linejoin:miter;stroke-width:0.8;"/>
   </g>
   <g id="legend_1">
    <g id="patch_7">
     <path d="M 581.735937 507.64 
L 770.6 507.64 
Q 772.6 507.64 772.6 505.64 
L 772.6 359.85875 
Q 772.6 357.85875 770.6 357.85875 
L 581.735937 357.85875 
Q 579.735937 357.85875 579.735937 359.85875 
L 579.735937 505.64 
Q 579.735937 507.64 581.735937 507.64 
z
" style="fill:#ffffff;opacity:0.8;stroke:#cccccc;stroke-linejoin:miter;"/>
    </g>
    <g id="line2d_33">
     <path d="M 583.735937 365.957188 
L 603.735937 365.957188 
" style="fill:none;stroke:#cc3300;stroke-linecap:square;stroke-width:1.5;"/>
    </g>
    <g id="line2d_34"/>
    <g id="text_14">
     <!-- Ariane 5 ECA - Core stage -->
     <defs>
      <path d="M 34.1875 63.1875 
L 20.796875 26.90625 
L 47.609375 26.90625 
z
M 28.609375 72.90625 
L 39.796875 72.90625 
L 67.578125 0 
L 57.328125 0 
L 50.6875 18.703125 
L 17.828125 18.703125 
L 11.1875 0 
L 0.78125 0 
z
" id="DejaVuSans-65"/>
      <path d="M 41.109375 46.296875 
Q 39.59375 47.171875 37.8125 47.578125 
Q 36.03125 48 33.890625 48 
Q 26.265625 48 22.1875 43.046875 
Q 18.109375 38.09375 18.109375 28.8125 
L 18.109375 0 
L 9.078125 0 
L 9.078125 54.6875 
L 18.109375 54.6875 
L 18.109375 46.1875 
Q 20.953125 51.171875 25.484375 53.578125 
Q 30.03125 56 36.53125 56 
Q 37.453125 56 38.578125 55.875 
Q 39.703125 55.765625 41.0625 55.515625 
z
" id="DejaVuSans-114"/>
      <path d="M 54.890625 33.015625 
L 54.890625 0 
L 45.90625 0 
L 45.90625 32.71875 
Q 45.90625 40.484375 42.875 44.328125 
Q 39.84375 48.1875 33.796875 48.1875 
Q 26.515625 48.1875 22.3125 43.546875 
Q 18.109375 38.921875 18.109375 30.90625 
L 18.109375 0 
L 9.078125 0 
L 9.078125 54.6875 
L 18.109375 54.6875 
L 18.109375 46.1875 
Q 21.34375 51.125 25.703125 53.5625 
Q 30.078125 56 35.796875 56 
Q 45.21875 56 50.046875 50.171875 
Q 54.890625 44.34375 54.890625 33.015625 
z
" id="DejaVuSans-110"/>
      <path d="M 9.8125 72.90625 
L 55.90625 72.90625 
L 55.90625 64.59375 
L 19.671875 64.59375 
L 19.671875 43.015625 
L 54.390625 43.015625 
L 54.390625 34.71875 
L 19.671875 34.71875 
L 19.671875 8.296875 
L 56.78125 8.296875 
L 56.78125 0 
L 9.8125 0 
z
" id="DejaVuSans-69"/>
      <path d="M 64.40625 67.28125 
L 64.40625 56.890625 
Q 59.421875 61.53125 53.78125 63.8125 
Q 48.140625 66.109375 41.796875 66.109375 
Q 29.296875 66.109375 22.65625 58.46875 
Q 16.015625 50.828125 16.015625 36.375 
Q 16.015625 21.96875 22.65625 14.328125 
Q 29.296875 6.6875 41.796875 6.6875 
Q 48.140625 6.6875 53.78125 8.984375 
Q 59.421875 11.28125 64.40625 15.921875 
L 64.40625 5.609375 
Q 59.234375 2.09375 53.4375 0.328125 
Q 47.65625 -1.421875 41.21875 -1.421875 
Q 24.65625 -1.421875 15.125 8.703125 
Q 5.609375 18.84375 5.609375 36.375 
Q 5.609375 53.953125 15.125 64.078125 
Q 24.65625 74.21875 41.21875 74.21875 
Q 47.75 74.21875 53.53125 72.484375 
Q 59.328125 70.75 64.40625 67.28125 
z
" id="DejaVuSans-67"/>
      <path d="M 4.890625 31.390625 
L 31.203125 31.390625 
L 31.203125 23.390625 
L 4.890625 23.390625 
z
" id="DejaVuSans-45"/>
      <path d="M 45.40625 27.984375 
Q 45.40625 37.75 41.375 43.109375 
Q 37.359375 48.484375 30.078125 48.484375 
Q 22.859375 48.484375 18.828125 43.109375 
Q 14.796875 37.75 14.796875 27.984375 
Q 14.796875 18.265625 18.828125 12.890625 
Q 22.859375 7.515625 30.078125 7.515625 
Q 37.359375 7.515625 41.375 12.890625 
Q 45.40625 18.265625 45.40625 27.984375 
z
M 54.390625 6.78125 
Q 54.390625 -7.171875 48.1875 -13.984375 
Q 42 -20.796875 29.203125 -20.796875 
Q 24.46875 -20.796875 20.265625 -20.09375 
Q 16.0625 -19.390625 12.109375 -17.921875 
L 12.109375 -9.1875 
Q 16.0625 -11.328125 19.921875 -12.34375 
Q 23.78125 -13.375 27.78125 -13.375 
Q 36.625 -13.375 41.015625 -8.765625 
Q 45.40625 -4.15625 45.40625 5.171875 
L 45.40625 9.625 
Q 42.625 4.78125 38.28125 2.390625 
Q 33.9375 0 27.875 0 
Q 17.828125 0 11.671875 7.65625 
Q 5.515625 15.328125 5.515625 27.984375 
Q 5.515625 40.671875 11.671875 48.328125 
Q 17.828125 56 27.875 56 
Q 33.9375 56 38.28125 53.609375 
Q 42.625 51.21875 45.40625 46.390625 
L 45.40625 54.6875 
L 54.390625 54.6875 
z
" id="DejaVuSans-103"/>
     </defs>
     <g transform="translate(611.735937 369.457188)scale(0.1 -0.1)">
      <use xlink:href="#DejaVuSans-65"/>
      <use x="68.408203" xlink:href="#DejaVuSans-114"/>
      <use x="109.521484" xlink:href="#DejaVuSans-105"/>
      <use x="137.304688" xlink:href="#DejaVuSans-97"/>
      <use x="198.583984" xlink:href="#DejaVuSans-110"/>
      <use x="261.962891" xlink:href="#DejaVuSans-101"/>
      <use x="323.486328" xlink:href="#DejaVuSans-32"/>
      <use x="355.273438" xlink:href="#DejaVuSans-53"/>
      <use x="418.896484" xlink:href="#DejaVuSans-32"/>
      <use x="450.683594" xlink:href="#DejaVuSans-69"/>
      <use x="513.867188" xlink:href="#DejaVuSans-67"/>
      <use x="583.691406" xlink:href="#DejaVuSans-65"/>
      <use x="652.099609" xlink:href="#DejaVuSans-32"/>
      <use x="683.886719" xlink:href="#DejaVuSans-45"/>
      <use x="719.970703" xlink:href="#DejaVuSans-32"/>
      <use x="751.757812" xlink:href="#DejaVuSans-67"/>
      <use x="821.582031" xlink:href="#DejaVuSans-111"/>
      <use x="882.763672" xlink:href="#DejaVuSans-114"/>
      <use x="921.626953" xlink:href="#DejaVuSans-101"/>
      <use x="983.150391" xlink:href="#DejaVuSans-32"/>
      <use x="1014.9375" xlink:href="#DejaVuSans-115"/>
      <use x="1067.037109" xlink:href="#DejaVuSans-116"/>
      <use x="1106.246094" xlink:href="#DejaVuSans-97"/>
      <use x="1167.525391" xlink:href="#DejaVuSans-103"/>
      <use x="1231.001953" xlink:href="#DejaVuSans-101"/>
     </g>
    </g>
    <g id="line2d_35">
     <path d="M 583.735937 380.635313 
L 603.735937 380.635313 
" style="fill:none;stroke:#cc3300;stroke-dasharray:5.55,2.4;stroke-dashoffset:0;stroke-width:1.5;"/>
    </g>
    <g id="line2d_36"/>
    <g id="text_15">
     <!-- Ariane 5 ECA - Boosters -->
     <defs>
      <path d="M 19.671875 34.8125 
L 19.671875 8.109375 
L 35.5 8.109375 
Q 43.453125 8.109375 47.28125 11.40625 
Q 51.125 14.703125 51.125 21.484375 
Q 51.125 28.328125 47.28125 31.5625 
Q 43.453125 34.8125 35.5 34.8125 
z
M 19.671875 64.796875 
L 19.671875 42.828125 
L 34.28125 42.828125 
Q 41.5 42.828125 45.03125 45.53125 
Q 48.578125 48.25 48.578125 53.8125 
Q 48.578125 59.328125 45.03125 62.0625 
Q 41.5 64.796875 34.28125 64.796875 
z
M 9.8125 72.90625 
L 35.015625 72.90625 
Q 46.296875 72.90625 52.390625 68.21875 
Q 58.5 63.53125 58.5 54.890625 
Q 58.5 48.1875 55.375 44.234375 
Q 52.25 40.28125 46.1875 39.3125 
Q 53.46875 37.75 57.5 32.78125 
Q 61.53125 27.828125 61.53125 20.40625 
Q 61.53125 10.640625 54.890625 5.3125 
Q 48.25 0 35.984375 0 
L 9.8125 0 
z
" id="DejaVuSans-66"/>
     </defs>
     <g transform="translate(611.735937 384.135313)scale(0.1 -0.1)">
      <use xlink:href="#DejaVuSans-65"/>
      <use x="68.408203" xlink:href="#DejaVuSans-114"/>
      <use x="109.521484" xlink:href="#DejaVuSans-105"/>
      <use x="137.304688" xlink:href="#DejaVuSans-97"/>
      <use x="198.583984" xlink:href="#DejaVuSans-110"/>
      <use x="261.962891" xlink:href="#DejaVuSans-101"/>
      <use x="323.486328" xlink:href="#DejaVuSans-32"/>
      <use x="355.273438" xlink:href="#DejaVuSans-53"/>
      <use x="418.896484" xlink:href="#DejaVuSans-32"/>
      <use x="450.683594" xlink:href="#DejaVuSans-69"/>
      <use x="513.867188" xlink:href="#DejaVuSans-67"/>
      <use x="583.691406" xlink:href="#DejaVuSans-65"/>
      <use x="652.099609" xlink:href="#DejaVuSans-32"/>
      <use x="683.886719" xlink:href="#DejaVuSans-45"/>
      <use x="719.970703" xlink:href="#DejaVuSans-32"/>
      <use x="751.757812" xlink:href="#DejaVuSans-66"/>
      <use x="820.361328" xlink:href="#DejaVuSans-111"/>
      <use x="881.542969" xlink:href="#DejaVuSans-111"/>
      <use x="942.724609" xlink:href="#DejaVuSans-115"/>
      <use x="994.824219" xlink:href="#DejaVuSans-116"/>
      <use x="1034.033203" xlink:href="#DejaVuSans-101"/>
      <use x="1095.556641" xlink:href="#DejaVuSans-114"/>
      <use x="1136.669922" xlink:href="#DejaVuSans-115"/>
     </g>
    </g>
    <g id="line2d_37">
     <path d="M 583.735937 395.313438 
L 603.735937 395.313438 
" style="fill:none;stroke:#cc3300;stroke-dasharray:9.6,2.4,1.5,2.4;stroke-dashoffset:0;stroke-width:1.5;"/>
    </g>
    <g id="line2d_38"/>
    <g id="text_16">
     <!-- Ariane 5 ECA - Second stage -->
     <defs>
      <path d="M 53.515625 70.515625 
L 53.515625 60.890625 
Q 47.90625 63.578125 42.921875 64.890625 
Q 37.9375 66.21875 33.296875 66.21875 
Q 25.25 66.21875 20.875 63.09375 
Q 16.5 59.96875 16.5 54.203125 
Q 16.5 49.359375 19.40625 46.890625 
Q 22.3125 44.4375 30.421875 42.921875 
L 36.375 41.703125 
Q 47.40625 39.59375 52.65625 34.296875 
Q 57.90625 29 57.90625 20.125 
Q 57.90625 9.515625 50.796875 4.046875 
Q 43.703125 -1.421875 29.984375 -1.421875 
Q 24.8125 -1.421875 18.96875 -0.25 
Q 13.140625 0.921875 6.890625 3.21875 
L 6.890625 13.375 
Q 12.890625 10.015625 18.65625 8.296875 
Q 24.421875 6.59375 29.984375 6.59375 
Q 38.421875 6.59375 43.015625 9.90625 
Q 47.609375 13.234375 47.609375 19.390625 
Q 47.609375 24.75 44.3125 27.78125 
Q 41.015625 30.8125 33.5 32.328125 
L 27.484375 33.5 
Q 16.453125 35.6875 11.515625 40.375 
Q 6.59375 45.0625 6.59375 53.421875 
Q 6.59375 63.09375 13.40625 68.65625 
Q 20.21875 74.21875 32.171875 74.21875 
Q 37.3125 74.21875 42.625 73.28125 
Q 47.953125 72.359375 53.515625 70.515625 
z
" id="DejaVuSans-83"/>
      <path d="M 45.40625 46.390625 
L 45.40625 75.984375 
L 54.390625 75.984375 
L 54.390625 0 
L 45.40625 0 
L 45.40625 8.203125 
Q 42.578125 3.328125 38.25 0.953125 
Q 33.9375 -1.421875 27.875 -1.421875 
Q 17.96875 -1.421875 11.734375 6.484375 
Q 5.515625 14.40625 5.515625 27.296875 
Q 5.515625 40.1875 11.734375 48.09375 
Q 17.96875 56 27.875 56 
Q 33.9375 56 38.25 53.625 
Q 42.578125 51.265625 45.40625 46.390625 
z
M 14.796875 27.296875 
Q 14.796875 17.390625 18.875 11.75 
Q 22.953125 6.109375 30.078125 6.109375 
Q 37.203125 6.109375 41.296875 11.75 
Q 45.40625 17.390625 45.40625 27.296875 
Q 45.40625 37.203125 41.296875 42.84375 
Q 37.203125 48.484375 30.078125 48.484375 
Q 22.953125 48.484375 18.875 42.84375 
Q 14.796875 37.203125 14.796875 27.296875 
z
" id="DejaVuSans-100"/>
     </defs>
     <g transform="translate(611.735937 398.813438)scale(0.1 -0.1)">
      <use xlink:href="#DejaVuSans-65"/>
      <use x="68.408203" xlink:href="#DejaVuSans-114"/>
      <use x="109.521484" xlink:href="#DejaVuSans-105"/>
      <use x="137.304688" xlink:href="#DejaVuSans-97"/>
      <use x="198.583984" xlink:href="#DejaVuSans-110"/>
      <use x="261.962891" xlink:href="#DejaVuSans-101"/>
      <use x="323.486328" xlink:href="#DejaVuSans-32"/>
      <use x="355.273438" xlink:href="#DejaVuSans-53"/>
      <use x="418.896484" xlink:href="#DejaVuSans-32"/>
      <use x="450.683594" xlink:href="#DejaVuSans-69"/>
      <use x="513.867188" xlink:href="#DejaVuSans-67"/>
      <use x="583.691406" xlink:href="#DejaVuSans-65"/>
      <use x="652.099609" xlink:href="#DejaVuSans-32"/>
      <use x="683.886719" xlink:href="#DejaVuSans-45"/>
      <use x="719.970703" xlink:href="#DejaVuSans-32"/>
      <use x="751.757812" xlink:href="#DejaVuSans-83"/>
      <use x="815.234375" xlink:href="#DejaVuSans-101"/>
      <use x="876.757812" xlink:href="#DejaVuSans-99"/>
      <use x="931.738281" xlink:href="#DejaVuSans-111"/>
      <use x="992.919922" xlink:href="#DejaVuSans-110"/>
      <use x="1056.298828" xlink:href="#DejaVuSans-100"/>
      <use x="1119.775391" xlink:href="#DejaVuSans-32"/>
      <use x="1151.5625" xlink:href="#DejaVuSans-115"/>
      <use x="1203.662109" xlink:href="#DejaVuSans-116"/>
      <use x="1242.871094" xlink:href="#DejaVuSans-97"/>
      <use x="1304.150391" xlink:href="#DejaVuSans-103"/>
      <use x="1367.626953" xlink:href="#DejaVuSans-101"/>
     </g>
    </g>
    <g id="line2d_39">
     <path d="M 583.735937 409.991563 
L 603.735937 409.991563 
" style="fill:none;stroke:#009900;stroke-linecap:square;stroke-width:1.5;"/>
    </g>
    <g id="line2d_40"/>
    <g id="text_17">
     <!-- Falcon Heavy - Core Stage -->
     <defs>
      <path d="M 9.8125 72.90625 
L 51.703125 72.90625 
L 51.703125 64.59375 
L 19.671875 64.59375 
L 19.671875 43.109375 
L 48.578125 43.109375 
L 48.578125 34.8125 
L 19.671875 34.8125 
L 19.671875 0 
L 9.8125 0 
z
" id="DejaVuSans-70"/>
      <path d="M 9.8125 72.90625 
L 19.671875 72.90625 
L 19.671875 43.015625 
L 55.515625 43.015625 
L 55.515625 72.90625 
L 65.375 72.90625 
L 65.375 0 
L 55.515625 0 
L 55.515625 34.71875 
L 19.671875 34.71875 
L 19.671875 0 
L 9.8125 0 
z
" id="DejaVuSans-72"/>
      <path d="M 2.984375 54.6875 
L 12.5 54.6875 
L 29.59375 8.796875 
L 46.6875 54.6875 
L 56.203125 54.6875 
L 35.6875 0 
L 23.484375 0 
z
" id="DejaVuSans-118"/>
      <path d="M 32.171875 -5.078125 
Q 28.375 -14.84375 24.75 -17.8125 
Q 21.140625 -20.796875 15.09375 -20.796875 
L 7.90625 -20.796875 
L 7.90625 -13.28125 
L 13.1875 -13.28125 
Q 16.890625 -13.28125 18.9375 -11.515625 
Q 21 -9.765625 23.484375 -3.21875 
L 25.09375 0.875 
L 2.984375 54.6875 
L 12.5 54.6875 
L 29.59375 11.921875 
L 46.6875 54.6875 
L 56.203125 54.6875 
z
" id="DejaVuSans-121"/>
     </defs>
     <g transform="translate(611.735937 413.491563)scale(0.1 -0.1)">
      <use xlink:href="#DejaVuSans-70"/>
      <use x="48.394531" xlink:href="#DejaVuSans-97"/>
      <use x="109.673828" xlink:href="#DejaVuSans-108"/>
      <use x="137.457031" xlink:href="#DejaVuSans-99"/>
      <use x="192.4375" xlink:href="#DejaVuSans-111"/>
      <use x="253.619141" xlink:href="#DejaVuSans-110"/>
      <use x="316.998047" xlink:href="#DejaVuSans-32"/>
      <use x="348.785156" xlink:href="#DejaVuSans-72"/>
      <use x="423.980469" xlink:href="#DejaVuSans-101"/>
      <use x="485.503906" xlink:href="#DejaVuSans-97"/>
      <use x="546.783203" xlink:href="#DejaVuSans-118"/>
      <use x="605.962891" xlink:href="#DejaVuSans-121"/>
      <use x="665.142578" xlink:href="#DejaVuSans-32"/>
      <use x="696.929688" xlink:href="#DejaVuSans-45"/>
      <use x="733.013672" xlink:href="#DejaVuSans-32"/>
      <use x="764.800781" xlink:href="#DejaVuSans-67"/>
      <use x="834.625" xlink:href="#DejaVuSans-111"/>
      <use x="895.806641" xlink:href="#DejaVuSans-114"/>
      <use x="934.669922" xlink:href="#DejaVuSans-101"/>
      <use x="996.193359" xlink:href="#DejaVuSans-32"/>
      <use x="1027.980469" xlink:href="#DejaVuSans-83"/>
      <use x="1091.457031" xlink:href="#DejaVuSans-116"/>
      <use x="1130.666016" xlink:href="#DejaVuSans-97"/>
      <use x="1191.945312" xlink:href="#DejaVuSans-103"/>
      <use x="1255.421875" xlink:href="#DejaVuSans-101"/>
     </g>
    </g>
    <g id="line2d_41">
     <path d="M 583.735937 424.669688 
L 603.735937 424.669688 
" style="fill:none;stroke:#009900;stroke-dasharray:5.55,2.4;stroke-dashoffset:0;stroke-width:1.5;"/>
    </g>
    <g id="line2d_42"/>
    <g id="text_18">
     <!-- Falcon Heavy - Boosters -->
     <g transform="translate(611.735937 428.169688)scale(0.1 -0.1)">
      <use xlink:href="#DejaVuSans-70"/>
      <use x="48.394531" xlink:href="#DejaVuSans-97"/>
      <use x="109.673828" xlink:href="#DejaVuSans-108"/>
      <use x="137.457031" xlink:href="#DejaVuSans-99"/>
      <use x="192.4375" xlink:href="#DejaVuSans-111"/>
      <use x="253.619141" xlink:href="#DejaVuSans-110"/>
      <use x="316.998047" xlink:href="#DejaVuSans-32"/>
      <use x="348.785156" xlink:href="#DejaVuSans-72"/>
      <use x="423.980469" xlink:href="#DejaVuSans-101"/>
      <use x="485.503906" xlink:href="#DejaVuSans-97"/>
      <use x="546.783203" xlink:href="#DejaVuSans-118"/>
      <use x="605.962891" xlink:href="#DejaVuSans-121"/>
      <use x="665.142578" xlink:href="#DejaVuSans-32"/>
      <use x="696.929688" xlink:href="#DejaVuSans-45"/>
      <use x="733.013672" xlink:href="#DejaVuSans-32"/>
      <use x="764.800781" xlink:href="#DejaVuSans-66"/>
      <use x="833.404297" xlink:href="#DejaVuSans-111"/>
      <use x="894.585938" xlink:href="#DejaVuSans-111"/>
      <use x="955.767578" xlink:href="#DejaVuSans-115"/>
      <use x="1007.867188" xlink:href="#DejaVuSans-116"/>
      <use x="1047.076172" xlink:href="#DejaVuSans-101"/>
      <use x="1108.599609" xlink:href="#DejaVuSans-114"/>
      <use x="1149.712891" xlink:href="#DejaVuSans-115"/>
     </g>
    </g>
    <g id="line2d_43">
     <path d="M 583.735937 439.347813 
L 603.735937 439.347813 
" style="fill:none;stroke:#009900;stroke-dasharray:9.6,2.4,1.5,2.4;stroke-dashoffset:0;stroke-width:1.5;"/>
    </g>
    <g id="line2d_44"/>
    <g id="text_19">
     <!-- Falcon Heavy - Second Stage -->
     <g transform="translate(611.735937 442.847813)scale(0.1 -0.1)">
      <use xlink:href="#DejaVuSans-70"/>
      <use x="48.394531" xlink:href="#DejaVuSans-97"/>
      <use x="109.673828" xlink:href="#DejaVuSans-108"/>
      <use x="137.457031" xlink:href="#DejaVuSans-99"/>
      <use x="192.4375" xlink:href="#DejaVuSans-111"/>
      <use x="253.619141" xlink:href="#DejaVuSans-110"/>
      <use x="316.998047" xlink:href="#DejaVuSans-32"/>
      <use x="348.785156" xlink:href="#DejaVuSans-72"/>
      <use x="423.980469" xlink:href="#DejaVuSans-101"/>
      <use x="485.503906" xlink:href="#DejaVuSans-97"/>
      <use x="546.783203" xlink:href="#DejaVuSans-118"/>
      <use x="605.962891" xlink:href="#DejaVuSans-121"/>
      <use x="665.142578" xlink:href="#DejaVuSans-32"/>
      <use x="696.929688" xlink:href="#DejaVuSans-45"/>
      <use x="733.013672" xlink:href="#DejaVuSans-32"/>
      <use x="764.800781" xlink:href="#DejaVuSans-83"/>
      <use x="828.277344" xlink:href="#DejaVuSans-101"/>
      <use x="889.800781" xlink:href="#DejaVuSans-99"/>
      <use x="944.78125" xlink:href="#DejaVuSans-111"/>
      <use x="1005.962891" xlink:href="#DejaVuSans-110"/>
      <use x="1069.341797" xlink:href="#DejaVuSans-100"/>
      <use x="1132.818359" xlink:href="#DejaVuSans-32"/>
      <use x="1164.605469" xlink:href="#DejaVuSans-83"/>
      <use x="1228.082031" xlink:href="#DejaVuSans-116"/>
      <use x="1267.291016" xlink:href="#DejaVuSans-97"/>
      <use x="1328.570312" xlink:href="#DejaVuSans-103"/>
      <use x="1392.046875" xlink:href="#DejaVuSans-101"/>
     </g>
    </g>
    <g id="line2d_45">
     <path d="M 583.735937 454.025938 
L 603.735937 454.025938 
" style="fill:none;stroke:#003399;stroke-linecap:square;stroke-width:1.5;"/>
    </g>
    <g id="line2d_46"/>
    <g id="text_20">
     <!-- Saturn V - 1st Stage -->
     <defs>
      <path d="M 28.609375 0 
L 0.78125 72.90625 
L 11.078125 72.90625 
L 34.1875 11.53125 
L 57.328125 72.90625 
L 67.578125 72.90625 
L 39.796875 0 
z
" id="DejaVuSans-86"/>
     </defs>
     <g transform="translate(611.735937 457.525938)scale(0.1 -0.1)">
      <use xlink:href="#DejaVuSans-83"/>
      <use x="63.476562" xlink:href="#DejaVuSans-97"/>
      <use x="124.755859" xlink:href="#DejaVuSans-116"/>
      <use x="163.964844" xlink:href="#DejaVuSans-117"/>
      <use x="227.34375" xlink:href="#DejaVuSans-114"/>
      <use x="266.707031" xlink:href="#DejaVuSans-110"/>
      <use x="330.085938" xlink:href="#DejaVuSans-32"/>
      <use x="361.873047" xlink:href="#DejaVuSans-86"/>
      <use x="430.28125" xlink:href="#DejaVuSans-32"/>
      <use x="462.068359" xlink:href="#DejaVuSans-45"/>
      <use x="498.152344" xlink:href="#DejaVuSans-32"/>
      <use x="529.939453" xlink:href="#DejaVuSans-49"/>
      <use x="593.5625" xlink:href="#DejaVuSans-115"/>
      <use x="645.662109" xlink:href="#DejaVuSans-116"/>
      <use x="684.871094" xlink:href="#DejaVuSans-32"/>
      <use x="716.658203" xlink:href="#DejaVuSans-83"/>
      <use x="780.134766" xlink:href="#DejaVuSans-116"/>
      <use x="819.34375" xlink:href="#DejaVuSans-97"/>
      <use x="880.623047" xlink:href="#DejaVuSans-103"/>
      <use x="944.099609" xlink:href="#DejaVuSans-101"/>
     </g>
    </g>
    <g id="line2d_47">
     <path d="M 583.735937 468.704063 
L 603.735937 468.704063 
" style="fill:none;stroke:#003399;stroke-dasharray:5.55,2.4;stroke-dashoffset:0;stroke-width:1.5;"/>
    </g>
    <g id="line2d_48"/>
    <g id="text_21">
     <!-- Saturn V - 2nd Stage -->
     <g transform="translate(611.735937 472.204063)scale(0.1 -0.1)">
      <use xlink:href="#DejaVuSans-83"/>
      <use x="63.476562" xlink:href="#DejaVuSans-97"/>
      <use x="124.755859" xlink:href="#DejaVuSans-116"/>
      <use x="163.964844" xlink:href="#DejaVuSans-117"/>
      <use x="227.34375" xlink:href="#DejaVuSans-114"/>
      <use x="266.707031" xlink:href="#DejaVuSans-110"/>
      <use x="330.085938" xlink:href="#DejaVuSans-32"/>
      <use x="361.873047" xlink:href="#DejaVuSans-86"/>
      <use x="430.28125" xlink:href="#DejaVuSans-32"/>
      <use x="462.068359" xlink:href="#DejaVuSans-45"/>
      <use x="498.152344" xlink:href="#DejaVuSans-32"/>
      <use x="529.939453" xlink:href="#DejaVuSans-50"/>
      <use x="593.5625" xlink:href="#DejaVuSans-110"/>
      <use x="656.941406" xlink:href="#DejaVuSans-100"/>
      <use x="720.417969" xlink:href="#DejaVuSans-32"/>
      <use x="752.205078" xlink:href="#DejaVuSans-83"/>
      <use x="815.681641" xlink:href="#DejaVuSans-116"/>
      <use x="854.890625" xlink:href="#DejaVuSans-97"/>
      <use x="916.169922" xlink:href="#DejaVuSans-103"/>
      <use x="979.646484" xlink:href="#DejaVuSans-101"/>
     </g>
    </g>
    <g id="line2d_49">
     <path d="M 583.735937 483.382188 
L 603.735937 483.382188 
" style="fill:none;stroke:#003399;stroke-dasharray:9.6,2.4,1.5,2.4;stroke-dashoffset:0;stroke-width:1.5;"/>
    </g>
    <g id="line2d_50"/>
    <g id="text_22">
     <!-- Saturn V - 3rd Stage - 1st burn -->
     <defs>
      <path d="M 48.6875 27.296875 
Q 48.6875 37.203125 44.609375 42.84375 
Q 40.53125 48.484375 33.40625 48.484375 
Q 26.265625 48.484375 22.1875 42.84375 
Q 18.109375 37.203125 18.109375 27.296875 
Q 18.109375 17.390625 22.1875 11.75 
Q 26.265625 6.109375 33.40625 6.109375 
Q 40.53125 6.109375 44.609375 11.75 
Q 48.6875 17.390625 48.6875 27.296875 
z
M 18.109375 46.390625 
Q 20.953125 51.265625 25.265625 53.625 
Q 29.59375 56 35.59375 56 
Q 45.5625 56 51.78125 48.09375 
Q 58.015625 40.1875 58.015625 27.296875 
Q 58.015625 14.40625 51.78125 6.484375 
Q 45.5625 -1.421875 35.59375 -1.421875 
Q 29.59375 -1.421875 25.265625 0.953125 
Q 20.953125 3.328125 18.109375 8.203125 
L 18.109375 0 
L 9.078125 0 
L 9.078125 75.984375 
L 18.109375 75.984375 
z
" id="DejaVuSans-98"/>
     </defs>
     <g transform="translate(611.735937 486.882188)scale(0.1 -0.1)">
      <use xlink:href="#DejaVuSans-83"/>
      <use x="63.476562" xlink:href="#DejaVuSans-97"/>
      <use x="124.755859" xlink:href="#DejaVuSans-116"/>
      <use x="163.964844" xlink:href="#DejaVuSans-117"/>
      <use x="227.34375" xlink:href="#DejaVuSans-114"/>
      <use x="266.707031" xlink:href="#DejaVuSans-110"/>
      <use x="330.085938" xlink:href="#DejaVuSans-32"/>
      <use x="361.873047" xlink:href="#DejaVuSans-86"/>
      <use x="430.28125" xlink:href="#DejaVuSans-32"/>
      <use x="462.068359" xlink:href="#DejaVuSans-45"/>
      <use x="498.152344" xlink:href="#DejaVuSans-32"/>
      <use x="529.939453" xlink:href="#DejaVuSans-51"/>
      <use x="593.5625" xlink:href="#DejaVuSans-114"/>
      <use x="632.925781" xlink:href="#DejaVuSans-100"/>
      <use x="696.402344" xlink:href="#DejaVuSans-32"/>
      <use x="728.189453" xlink:href="#DejaVuSans-83"/>
      <use x="791.666016" xlink:href="#DejaVuSans-116"/>
      <use x="830.875" xlink:href="#DejaVuSans-97"/>
      <use x="892.154297" xlink:href="#DejaVuSans-103"/>
      <use x="955.630859" xlink:href="#DejaVuSans-101"/>
      <use x="1017.154297" xlink:href="#DejaVuSans-32"/>
      <use x="1048.941406" xlink:href="#DejaVuSans-45"/>
      <use x="1085.025391" xlink:href="#DejaVuSans-32"/>
      <use x="1116.8125" xlink:href="#DejaVuSans-49"/>
      <use x="1180.435547" xlink:href="#DejaVuSans-115"/>
      <use x="1232.535156" xlink:href="#DejaVuSans-116"/>
      <use x="1271.744141" xlink:href="#DejaVuSans-32"/>
      <use x="1303.53125" xlink:href="#DejaVuSans-98"/>
      <use x="1367.007812" xlink:href="#DejaVuSans-117"/>
      <use x="1430.386719" xlink:href="#DejaVuSans-114"/>
      <use x="1469.75" xlink:href="#DejaVuSans-110"/>
     </g>
    </g>
    <g id="line2d_51">
     <path d="M 583.735937 498.060313 
L 603.735937 498.060313 
" style="fill:none;stroke:#003399;stroke-dasharray:1.5,2.475;stroke-dashoffset:0;stroke-width:1.5;"/>
    </g>
    <g id="line2d_52"/>
    <g id="text_23">
     <!-- Saturn V - 3rd Stage - 2nd burn -->
     <g transform="translate(611.735937 501.560313)scale(0.1 -0.1)">
      <use xlink:href="#DejaVuSans-83"/>
      <use x="63.476562" xlink:href="#DejaVuSans-97"/>
      <use x="124.755859" xlink:href="#DejaVuSans-116"/>
      <use x="163.964844" xlink:href="#DejaVuSans-117"/>
      <use x="227.34375" xlink:href="#DejaVuSans-114"/>
      <use x="266.707031" xlink:href="#DejaVuSans-110"/>
      <use x="330.085938" xlink:href="#DejaVuSans-32"/>
      <use x="361.873047" xlink:href="#DejaVuSans-86"/>
      <use x="430.28125" xlink:href="#DejaVuSans-32"/>
      <use x="462.068359" xlink:href="#DejaVuSans-45"/>
      <use x="498.152344" xlink:href="#DejaVuSans-32"/>
      <use x="529.939453" xlink:href="#DejaVuSans-51"/>
      <use x="593.5625" xlink:href="#DejaVuSans-114"/>
      <use x="632.925781" xlink:href="#DejaVuSans-100"/>
      <use x="696.402344" xlink:href="#DejaVuSans-32"/>
      <use x="728.189453" xlink:href="#DejaVuSans-83"/>
      <use x="791.666016" xlink:href="#DejaVuSans-116"/>
      <use x="830.875" xlink:href="#DejaVuSans-97"/>
      <use x="892.154297" xlink:href="#DejaVuSans-103"/>
      <use x="955.630859" xlink:href="#DejaVuSans-101"/>
      <use x="1017.154297" xlink:href="#DejaVuSans-32"/>
      <use x="1048.941406" xlink:href="#DejaVuSans-45"/>
      <use x="1085.025391" xlink:href="#DejaVuSans-32"/>
      <use x="1116.8125" xlink:href="#DejaVuSans-50"/>
      <use x="1180.435547" xlink:href="#DejaVuSans-110"/>
      <use x="1243.814453" xlink:href="#DejaVuSans-100"/>
      <use x="1307.291016" xlink:href="#DejaVuSans-32"/>
      <use x="1339.078125" xlink:href="#DejaVuSans-98"/>
      <use x="1402.554688" xlink:href="#DejaVuSans-117"/>
      <use x="1465.933594" xlink:href="#DejaVuSans-114"/>
      <use x="1505.296875" xlink:href="#DejaVuSans-110"/>
     </g>
    </g>
   </g>
  </g>
 </g>
 <defs>
  <clipPath id="p2e37773611">
   <rect height="443.52" width="669.6" x="108" y="69.12"/>
  </clipPath>
 </defs>
</svg>
