<?xml version="1.0" encoding="utf-8" standalone="no"?>
<!DOCTYPE svg PUBLIC "-//W3C//DTD SVG 1.1//EN"
  "http://www.w3.org/Graphics/SVG/1.1/DTD/svg11.dtd">
<!-- Created with matplotlib (https://matplotlib.org/) -->
<svg height="576pt" version="1.1" viewBox="0 0 864 576" width="864pt" xmlns="http://www.w3.org/2000/svg" xmlns:xlink="http://www.w3.org/1999/xlink">
 <defs>
  <style type="text/css">
*{stroke-linecap:butt;stroke-linejoin:round;}
  </style>
 </defs>
 <g id="figure_1">
  <g id="patch_1">
   <path d="M 0 576 
L 864 576 
L 864 0 
L 0 0 
z
" style="fill:#ffffff;"/>
  </g>
  <g id="axes_1">
   <g id="patch_2">
    <path d="M 108 512.64 
L 777.6 512.64 
L 777.6 69.12 
L 108 69.12 
z
" style="fill:#ffffff;"/>
   </g>
   <g id="matplotlib.axis_1">
    <g id="xtick_1">
     <g id="line2d_1">
      <path clip-path="url(#p4165ac09fd)" d="M 138.436364 512.64 
L 138.436364 69.12 
" style="fill:none;stroke:#b0b0b0;stroke-linecap:square;stroke-width:0.8;"/>
     </g>
     <g id="line2d_2">
      <defs>
       <path d="M 0 0 
L 0 3.5 
" id="mcd4217d905" style="stroke:#000000;stroke-width:0.8;"/>
      </defs>
      <g>
       <use style="stroke:#000000;stroke-width:0.8;" x="138.436364" xlink:href="#mcd4217d905" y="512.64"/>
      </g>
     </g>
     <g id="text_1">
      <!-- 0 -->
      <defs>
       <path d="M 31.78125 66.40625 
Q 24.171875 66.40625 20.328125 58.90625 
Q 16.5 51.421875 16.5 36.375 
Q 16.5 21.390625 20.328125 13.890625 
Q 24.171875 6.390625 31.78125 6.390625 
Q 39.453125 6.390625 43.28125 13.890625 
Q 47.125 21.390625 47.125 36.375 
Q 47.125 51.421875 43.28125 58.90625 
Q 39.453125 66.40625 31.78125 66.40625 
z
M 31.78125 74.21875 
Q 44.046875 74.21875 50.515625 64.515625 
Q 56.984375 54.828125 56.984375 36.375 
Q 56.984375 17.96875 50.515625 8.265625 
Q 44.046875 -1.421875 31.78125 -1.421875 
Q 19.53125 -1.421875 13.0625 8.265625 
Q 6.59375 17.96875 6.59375 36.375 
Q 6.59375 54.828125 13.0625 64.515625 
Q 19.53125 74.21875 31.78125 74.21875 
z
" id="DejaVuSans-48"/>
      </defs>
      <g transform="translate(135.255114 527.238438)scale(0.1 -0.1)">
       <use xlink:href="#DejaVuSans-48"/>
      </g>
     </g>
    </g>
    <g id="xtick_2">
     <g id="line2d_3">
      <path clip-path="url(#p4165ac09fd)" d="M 260.181818 512.64 
L 260.181818 69.12 
" style="fill:none;stroke:#b0b0b0;stroke-linecap:square;stroke-width:0.8;"/>
     </g>
     <g id="line2d_4">
      <g>
       <use style="stroke:#000000;stroke-width:0.8;" x="260.181818" xlink:href="#mcd4217d905" y="512.64"/>
      </g>
     </g>
     <g id="text_2">
      <!-- 50000 -->
      <defs>
       <path d="M 10.796875 72.90625 
L 49.515625 72.90625 
L 49.515625 64.59375 
L 19.828125 64.59375 
L 19.828125 46.734375 
Q 21.96875 47.46875 24.109375 47.828125 
Q 26.265625 48.1875 28.421875 48.1875 
Q 40.625 48.1875 47.75 41.5 
Q 54.890625 34.8125 54.890625 23.390625 
Q 54.890625 11.625 47.5625 5.09375 
Q 40.234375 -1.421875 26.90625 -1.421875 
Q 22.3125 -1.421875 17.546875 -0.640625 
Q 12.796875 0.140625 7.71875 1.703125 
L 7.71875 11.625 
Q 12.109375 9.234375 16.796875 8.0625 
Q 21.484375 6.890625 26.703125 6.890625 
Q 35.15625 6.890625 40.078125 11.328125 
Q 45.015625 15.765625 45.015625 23.390625 
Q 45.015625 31 40.078125 35.4375 
Q 35.15625 39.890625 26.703125 39.890625 
Q 22.75 39.890625 18.8125 39.015625 
Q 14.890625 38.140625 10.796875 36.28125 
z
" id="DejaVuSans-53"/>
      </defs>
      <g transform="translate(244.275568 527.238438)scale(0.1 -0.1)">
       <use xlink:href="#DejaVuSans-53"/>
       <use x="63.623047" xlink:href="#DejaVuSans-48"/>
       <use x="127.246094" xlink:href="#DejaVuSans-48"/>
       <use x="190.869141" xlink:href="#DejaVuSans-48"/>
       <use x="254.492188" xlink:href="#DejaVuSans-48"/>
      </g>
     </g>
    </g>
    <g id="xtick_3">
     <g id="line2d_5">
      <path clip-path="url(#p4165ac09fd)" d="M 381.927273 512.64 
L 381.927273 69.12 
" style="fill:none;stroke:#b0b0b0;stroke-linecap:square;stroke-width:0.8;"/>
     </g>
     <g id="line2d_6">
      <g>
       <use style="stroke:#000000;stroke-width:0.8;" x="381.927273" xlink:href="#mcd4217d905" y="512.64"/>
      </g>
     </g>
     <g id="text_3">
      <!-- 100000 -->
      <defs>
       <path d="M 12.40625 8.296875 
L 28.515625 8.296875 
L 28.515625 63.921875 
L 10.984375 60.40625 
L 10.984375 69.390625 
L 28.421875 72.90625 
L 38.28125 72.90625 
L 38.28125 8.296875 
L 54.390625 8.296875 
L 54.390625 0 
L 12.40625 0 
z
" id="DejaVuSans-49"/>
      </defs>
      <g transform="translate(362.839773 527.238438)scale(0.1 -0.1)">
       <use xlink:href="#DejaVuSans-49"/>
       <use x="63.623047" xlink:href="#DejaVuSans-48"/>
       <use x="127.246094" xlink:href="#DejaVuSans-48"/>
       <use x="190.869141" xlink:href="#DejaVuSans-48"/>
       <use x="254.492188" xlink:href="#DejaVuSans-48"/>
       <use x="318.115234" xlink:href="#DejaVuSans-48"/>
      </g>
     </g>
    </g>
    <g id="xtick_4">
     <g id="line2d_7">
      <path clip-path="url(#p4165ac09fd)" d="M 503.672727 512.64 
L 503.672727 69.12 
" style="fill:none;stroke:#b0b0b0;stroke-linecap:square;stroke-width:0.8;"/>
     </g>
     <g id="line2d_8">
      <g>
       <use style="stroke:#000000;stroke-width:0.8;" x="503.672727" xlink:href="#mcd4217d905" y="512.64"/>
      </g>
     </g>
     <g id="text_4">
      <!-- 150000 -->
      <g transform="translate(484.585227 527.238438)scale(0.1 -0.1)">
       <use xlink:href="#DejaVuSans-49"/>
       <use x="63.623047" xlink:href="#DejaVuSans-53"/>
       <use x="127.246094" xlink:href="#DejaVuSans-48"/>
       <use x="190.869141" xlink:href="#DejaVuSans-48"/>
       <use x="254.492188" xlink:href="#DejaVuSans-48"/>
       <use x="318.115234" xlink:href="#DejaVuSans-48"/>
      </g>
     </g>
    </g>
    <g id="xtick_5">
     <g id="line2d_9">
      <path clip-path="url(#p4165ac09fd)" d="M 625.418182 512.64 
L 625.418182 69.12 
" style="fill:none;stroke:#b0b0b0;stroke-linecap:square;stroke-width:0.8;"/>
     </g>
     <g id="line2d_10">
      <g>
       <use style="stroke:#000000;stroke-width:0.8;" x="625.418182" xlink:href="#mcd4217d905" y="512.64"/>
      </g>
     </g>
     <g id="text_5">
      <!-- 200000 -->
      <defs>
       <path d="M 19.1875 8.296875 
L 53.609375 8.296875 
L 53.609375 0 
L 7.328125 0 
L 7.328125 8.296875 
Q 12.9375 14.109375 22.625 23.890625 
Q 32.328125 33.6875 34.8125 36.53125 
Q 39.546875 41.84375 41.421875 45.53125 
Q 43.3125 49.21875 43.3125 52.78125 
Q 43.3125 58.59375 39.234375 62.25 
Q 35.15625 65.921875 28.609375 65.921875 
Q 23.96875 65.921875 18.8125 64.3125 
Q 13.671875 62.703125 7.8125 59.421875 
L 7.8125 69.390625 
Q 13.765625 71.78125 18.9375 73 
Q 24.125 74.21875 28.421875 74.21875 
Q 39.75 74.21875 46.484375 68.546875 
Q 53.21875 62.890625 53.21875 53.421875 
Q 53.21875 48.921875 51.53125 44.890625 
Q 49.859375 40.875 45.40625 35.40625 
Q 44.1875 33.984375 37.640625 27.21875 
Q 31.109375 20.453125 19.1875 8.296875 
z
" id="DejaVuSans-50"/>
      </defs>
      <g transform="translate(606.330682 527.238438)scale(0.1 -0.1)">
       <use xlink:href="#DejaVuSans-50"/>
       <use x="63.623047" xlink:href="#DejaVuSans-48"/>
       <use x="127.246094" xlink:href="#DejaVuSans-48"/>
       <use x="190.869141" xlink:href="#DejaVuSans-48"/>
       <use x="254.492188" xlink:href="#DejaVuSans-48"/>
       <use x="318.115234" xlink:href="#DejaVuSans-48"/>
      </g>
     </g>
    </g>
    <g id="xtick_6">
     <g id="line2d_11">
      <path clip-path="url(#p4165ac09fd)" d="M 747.163636 512.64 
L 747.163636 69.12 
" style="fill:none;stroke:#b0b0b0;stroke-linecap:square;stroke-width:0.8;"/>
     </g>
     <g id="line2d_12">
      <g>
       <use style="stroke:#000000;stroke-width:0.8;" x="747.163636" xlink:href="#mcd4217d905" y="512.64"/>
      </g>
     </g>
     <g id="text_6">
      <!-- 250000 -->
      <g transform="translate(728.076136 527.238438)scale(0.1 -0.1)">
       <use xlink:href="#DejaVuSans-50"/>
       <use x="63.623047" xlink:href="#DejaVuSans-53"/>
       <use x="127.246094" xlink:href="#DejaVuSans-48"/>
       <use x="190.869141" xlink:href="#DejaVuSans-48"/>
       <use x="254.492188" xlink:href="#DejaVuSans-48"/>
       <use x="318.115234" xlink:href="#DejaVuSans-48"/>
      </g>
     </g>
    </g>
    <g id="text_7">
     <!-- Quota [m] -->
     <defs>
      <path d="M 39.40625 66.21875 
Q 28.65625 66.21875 22.328125 58.203125 
Q 16.015625 50.203125 16.015625 36.375 
Q 16.015625 22.609375 22.328125 14.59375 
Q 28.65625 6.59375 39.40625 6.59375 
Q 50.140625 6.59375 56.421875 14.59375 
Q 62.703125 22.609375 62.703125 36.375 
Q 62.703125 50.203125 56.421875 58.203125 
Q 50.140625 66.21875 39.40625 66.21875 
z
M 53.21875 1.3125 
L 66.21875 -12.890625 
L 54.296875 -12.890625 
L 43.5 -1.21875 
Q 41.890625 -1.3125 41.03125 -1.359375 
Q 40.1875 -1.421875 39.40625 -1.421875 
Q 24.03125 -1.421875 14.8125 8.859375 
Q 5.609375 19.140625 5.609375 36.375 
Q 5.609375 53.65625 14.8125 63.9375 
Q 24.03125 74.21875 39.40625 74.21875 
Q 54.734375 74.21875 63.90625 63.9375 
Q 73.09375 53.65625 73.09375 36.375 
Q 73.09375 23.6875 67.984375 14.640625 
Q 62.890625 5.609375 53.21875 1.3125 
z
" id="DejaVuSans-81"/>
      <path d="M 8.5 21.578125 
L 8.5 54.6875 
L 17.484375 54.6875 
L 17.484375 21.921875 
Q 17.484375 14.15625 20.5 10.265625 
Q 23.53125 6.390625 29.59375 6.390625 
Q 36.859375 6.390625 41.078125 11.03125 
Q 45.3125 15.671875 45.3125 23.6875 
L 45.3125 54.6875 
L 54.296875 54.6875 
L 54.296875 0 
L 45.3125 0 
L 45.3125 8.40625 
Q 42.046875 3.421875 37.71875 1 
Q 33.40625 -1.421875 27.6875 -1.421875 
Q 18.265625 -1.421875 13.375 4.4375 
Q 8.5 10.296875 8.5 21.578125 
z
M 31.109375 56 
z
" id="DejaVuSans-117"/>
      <path d="M 30.609375 48.390625 
Q 23.390625 48.390625 19.1875 42.75 
Q 14.984375 37.109375 14.984375 27.296875 
Q 14.984375 17.484375 19.15625 11.84375 
Q 23.34375 6.203125 30.609375 6.203125 
Q 37.796875 6.203125 41.984375 11.859375 
Q 46.1875 17.53125 46.1875 27.296875 
Q 46.1875 37.015625 41.984375 42.703125 
Q 37.796875 48.390625 30.609375 48.390625 
z
M 30.609375 56 
Q 42.328125 56 49.015625 48.375 
Q 55.71875 40.765625 55.71875 27.296875 
Q 55.71875 13.875 49.015625 6.21875 
Q 42.328125 -1.421875 30.609375 -1.421875 
Q 18.84375 -1.421875 12.171875 6.21875 
Q 5.515625 13.875 5.515625 27.296875 
Q 5.515625 40.765625 12.171875 48.375 
Q 18.84375 56 30.609375 56 
z
" id="DejaVuSans-111"/>
      <path d="M 18.3125 70.21875 
L 18.3125 54.6875 
L 36.8125 54.6875 
L 36.8125 47.703125 
L 18.3125 47.703125 
L 18.3125 18.015625 
Q 18.3125 11.328125 20.140625 9.421875 
Q 21.96875 7.515625 27.59375 7.515625 
L 36.8125 7.515625 
L 36.8125 0 
L 27.59375 0 
Q 17.1875 0 13.234375 3.875 
Q 9.28125 7.765625 9.28125 18.015625 
L 9.28125 47.703125 
L 2.6875 47.703125 
L 2.6875 54.6875 
L 9.28125 54.6875 
L 9.28125 70.21875 
z
" id="DejaVuSans-116"/>
      <path d="M 34.28125 27.484375 
Q 23.390625 27.484375 19.1875 25 
Q 14.984375 22.515625 14.984375 16.5 
Q 14.984375 11.71875 18.140625 8.90625 
Q 21.296875 6.109375 26.703125 6.109375 
Q 34.1875 6.109375 38.703125 11.40625 
Q 43.21875 16.703125 43.21875 25.484375 
L 43.21875 27.484375 
z
M 52.203125 31.203125 
L 52.203125 0 
L 43.21875 0 
L 43.21875 8.296875 
Q 40.140625 3.328125 35.546875 0.953125 
Q 30.953125 -1.421875 24.3125 -1.421875 
Q 15.921875 -1.421875 10.953125 3.296875 
Q 6 8.015625 6 15.921875 
Q 6 25.140625 12.171875 29.828125 
Q 18.359375 34.515625 30.609375 34.515625 
L 43.21875 34.515625 
L 43.21875 35.40625 
Q 43.21875 41.609375 39.140625 45 
Q 35.0625 48.390625 27.6875 48.390625 
Q 23 48.390625 18.546875 47.265625 
Q 14.109375 46.140625 10.015625 43.890625 
L 10.015625 52.203125 
Q 14.9375 54.109375 19.578125 55.046875 
Q 24.21875 56 28.609375 56 
Q 40.484375 56 46.34375 49.84375 
Q 52.203125 43.703125 52.203125 31.203125 
z
" id="DejaVuSans-97"/>
      <path id="DejaVuSans-32"/>
      <path d="M 8.59375 75.984375 
L 29.296875 75.984375 
L 29.296875 69 
L 17.578125 69 
L 17.578125 -6.203125 
L 29.296875 -6.203125 
L 29.296875 -13.1875 
L 8.59375 -13.1875 
z
" id="DejaVuSans-91"/>
      <path d="M 52 44.1875 
Q 55.375 50.25 60.0625 53.125 
Q 64.75 56 71.09375 56 
Q 79.640625 56 84.28125 50.015625 
Q 88.921875 44.046875 88.921875 33.015625 
L 88.921875 0 
L 79.890625 0 
L 79.890625 32.71875 
Q 79.890625 40.578125 77.09375 44.375 
Q 74.3125 48.1875 68.609375 48.1875 
Q 61.625 48.1875 57.5625 43.546875 
Q 53.515625 38.921875 53.515625 30.90625 
L 53.515625 0 
L 44.484375 0 
L 44.484375 32.71875 
Q 44.484375 40.625 41.703125 44.40625 
Q 38.921875 48.1875 33.109375 48.1875 
Q 26.21875 48.1875 22.15625 43.53125 
Q 18.109375 38.875 18.109375 30.90625 
L 18.109375 0 
L 9.078125 0 
L 9.078125 54.6875 
L 18.109375 54.6875 
L 18.109375 46.1875 
Q 21.1875 51.21875 25.484375 53.609375 
Q 29.78125 56 35.6875 56 
Q 41.65625 56 45.828125 52.96875 
Q 50 49.953125 52 44.1875 
z
" id="DejaVuSans-109"/>
      <path d="M 30.421875 75.984375 
L 30.421875 -13.1875 
L 9.71875 -13.1875 
L 9.71875 -6.203125 
L 21.390625 -6.203125 
L 21.390625 69 
L 9.71875 69 
L 9.71875 75.984375 
z
" id="DejaVuSans-93"/>
     </defs>
     <g transform="translate(417.250781 540.916563)scale(0.1 -0.1)">
      <use xlink:href="#DejaVuSans-81"/>
      <use x="78.710938" xlink:href="#DejaVuSans-117"/>
      <use x="142.089844" xlink:href="#DejaVuSans-111"/>
      <use x="203.271484" xlink:href="#DejaVuSans-116"/>
      <use x="242.480469" xlink:href="#DejaVuSans-97"/>
      <use x="303.759766" xlink:href="#DejaVuSans-32"/>
      <use x="335.546875" xlink:href="#DejaVuSans-91"/>
      <use x="374.560547" xlink:href="#DejaVuSans-109"/>
      <use x="471.972656" xlink:href="#DejaVuSans-93"/>
     </g>
    </g>
   </g>
   <g id="matplotlib.axis_2">
    <g id="ytick_1">
     <g id="line2d_13">
      <path clip-path="url(#p4165ac09fd)" d="M 108 493.122792 
L 777.6 493.122792 
" style="fill:none;stroke:#b0b0b0;stroke-linecap:square;stroke-width:0.8;"/>
     </g>
     <g id="line2d_14">
      <defs>
       <path d="M 0 0 
L -3.5 0 
" id="md2dc6efabb" style="stroke:#000000;stroke-width:0.8;"/>
      </defs>
      <g>
       <use style="stroke:#000000;stroke-width:0.8;" x="108" xlink:href="#md2dc6efabb" y="493.122792"/>
      </g>
     </g>
     <g id="text_8">
      <!-- 0.0 -->
      <defs>
       <path d="M 10.6875 12.40625 
L 21 12.40625 
L 21 0 
L 10.6875 0 
z
" id="DejaVuSans-46"/>
      </defs>
      <g transform="translate(85.096875 496.92201)scale(0.1 -0.1)">
       <use xlink:href="#DejaVuSans-48"/>
       <use x="63.623047" xlink:href="#DejaVuSans-46"/>
       <use x="95.410156" xlink:href="#DejaVuSans-48"/>
      </g>
     </g>
    </g>
    <g id="ytick_2">
     <g id="line2d_15">
      <path clip-path="url(#p4165ac09fd)" d="M 108 441.451443 
L 777.6 441.451443 
" style="fill:none;stroke:#b0b0b0;stroke-linecap:square;stroke-width:0.8;"/>
     </g>
     <g id="line2d_16">
      <g>
       <use style="stroke:#000000;stroke-width:0.8;" x="108" xlink:href="#md2dc6efabb" y="441.451443"/>
      </g>
     </g>
     <g id="text_9">
      <!-- 0.5 -->
      <g transform="translate(85.096875 445.250661)scale(0.1 -0.1)">
       <use xlink:href="#DejaVuSans-48"/>
       <use x="63.623047" xlink:href="#DejaVuSans-46"/>
       <use x="95.410156" xlink:href="#DejaVuSans-53"/>
      </g>
     </g>
    </g>
    <g id="ytick_3">
     <g id="line2d_17">
      <path clip-path="url(#p4165ac09fd)" d="M 108 389.780094 
L 777.6 389.780094 
" style="fill:none;stroke:#b0b0b0;stroke-linecap:square;stroke-width:0.8;"/>
     </g>
     <g id="line2d_18">
      <g>
       <use style="stroke:#000000;stroke-width:0.8;" x="108" xlink:href="#md2dc6efabb" y="389.780094"/>
      </g>
     </g>
     <g id="text_10">
      <!-- 1.0 -->
      <g transform="translate(85.096875 393.579312)scale(0.1 -0.1)">
       <use xlink:href="#DejaVuSans-49"/>
       <use x="63.623047" xlink:href="#DejaVuSans-46"/>
       <use x="95.410156" xlink:href="#DejaVuSans-48"/>
      </g>
     </g>
    </g>
    <g id="ytick_4">
     <g id="line2d_19">
      <path clip-path="url(#p4165ac09fd)" d="M 108 338.108745 
L 777.6 338.108745 
" style="fill:none;stroke:#b0b0b0;stroke-linecap:square;stroke-width:0.8;"/>
     </g>
     <g id="line2d_20">
      <g>
       <use style="stroke:#000000;stroke-width:0.8;" x="108" xlink:href="#md2dc6efabb" y="338.108745"/>
      </g>
     </g>
     <g id="text_11">
      <!-- 1.5 -->
      <g transform="translate(85.096875 341.907963)scale(0.1 -0.1)">
       <use xlink:href="#DejaVuSans-49"/>
       <use x="63.623047" xlink:href="#DejaVuSans-46"/>
       <use x="95.410156" xlink:href="#DejaVuSans-53"/>
      </g>
     </g>
    </g>
    <g id="ytick_5">
     <g id="line2d_21">
      <path clip-path="url(#p4165ac09fd)" d="M 108 286.437396 
L 777.6 286.437396 
" style="fill:none;stroke:#b0b0b0;stroke-linecap:square;stroke-width:0.8;"/>
     </g>
     <g id="line2d_22">
      <g>
       <use style="stroke:#000000;stroke-width:0.8;" x="108" xlink:href="#md2dc6efabb" y="286.437396"/>
      </g>
     </g>
     <g id="text_12">
      <!-- 2.0 -->
      <g transform="translate(85.096875 290.236615)scale(0.1 -0.1)">
       <use xlink:href="#DejaVuSans-50"/>
       <use x="63.623047" xlink:href="#DejaVuSans-46"/>
       <use x="95.410156" xlink:href="#DejaVuSans-48"/>
      </g>
     </g>
    </g>
    <g id="ytick_6">
     <g id="line2d_23">
      <path clip-path="url(#p4165ac09fd)" d="M 108 234.766047 
L 777.6 234.766047 
" style="fill:none;stroke:#b0b0b0;stroke-linecap:square;stroke-width:0.8;"/>
     </g>
     <g id="line2d_24">
      <g>
       <use style="stroke:#000000;stroke-width:0.8;" x="108" xlink:href="#md2dc6efabb" y="234.766047"/>
      </g>
     </g>
     <g id="text_13">
      <!-- 2.5 -->
      <g transform="translate(85.096875 238.565266)scale(0.1 -0.1)">
       <use xlink:href="#DejaVuSans-50"/>
       <use x="63.623047" xlink:href="#DejaVuSans-46"/>
       <use x="95.410156" xlink:href="#DejaVuSans-53"/>
      </g>
     </g>
    </g>
    <g id="ytick_7">
     <g id="line2d_25">
      <path clip-path="url(#p4165ac09fd)" d="M 108 183.094698 
L 777.6 183.094698 
" style="fill:none;stroke:#b0b0b0;stroke-linecap:square;stroke-width:0.8;"/>
     </g>
     <g id="line2d_26">
      <g>
       <use style="stroke:#000000;stroke-width:0.8;" x="108" xlink:href="#md2dc6efabb" y="183.094698"/>
      </g>
     </g>
     <g id="text_14">
      <!-- 3.0 -->
      <defs>
       <path d="M 40.578125 39.3125 
Q 47.65625 37.796875 51.625 33 
Q 55.609375 28.21875 55.609375 21.1875 
Q 55.609375 10.40625 48.1875 4.484375 
Q 40.765625 -1.421875 27.09375 -1.421875 
Q 22.515625 -1.421875 17.65625 -0.515625 
Q 12.796875 0.390625 7.625 2.203125 
L 7.625 11.71875 
Q 11.71875 9.328125 16.59375 8.109375 
Q 21.484375 6.890625 26.8125 6.890625 
Q 36.078125 6.890625 40.9375 10.546875 
Q 45.796875 14.203125 45.796875 21.1875 
Q 45.796875 27.640625 41.28125 31.265625 
Q 36.765625 34.90625 28.71875 34.90625 
L 20.21875 34.90625 
L 20.21875 43.015625 
L 29.109375 43.015625 
Q 36.375 43.015625 40.234375 45.921875 
Q 44.09375 48.828125 44.09375 54.296875 
Q 44.09375 59.90625 40.109375 62.90625 
Q 36.140625 65.921875 28.71875 65.921875 
Q 24.65625 65.921875 20.015625 65.03125 
Q 15.375 64.15625 9.8125 62.3125 
L 9.8125 71.09375 
Q 15.4375 72.65625 20.34375 73.4375 
Q 25.25 74.21875 29.59375 74.21875 
Q 40.828125 74.21875 47.359375 69.109375 
Q 53.90625 64.015625 53.90625 55.328125 
Q 53.90625 49.265625 50.4375 45.09375 
Q 46.96875 40.921875 40.578125 39.3125 
z
" id="DejaVuSans-51"/>
      </defs>
      <g transform="translate(85.096875 186.893917)scale(0.1 -0.1)">
       <use xlink:href="#DejaVuSans-51"/>
       <use x="63.623047" xlink:href="#DejaVuSans-46"/>
       <use x="95.410156" xlink:href="#DejaVuSans-48"/>
      </g>
     </g>
    </g>
    <g id="ytick_8">
     <g id="line2d_27">
      <path clip-path="url(#p4165ac09fd)" d="M 108 131.423349 
L 777.6 131.423349 
" style="fill:none;stroke:#b0b0b0;stroke-linecap:square;stroke-width:0.8;"/>
     </g>
     <g id="line2d_28">
      <g>
       <use style="stroke:#000000;stroke-width:0.8;" x="108" xlink:href="#md2dc6efabb" y="131.423349"/>
      </g>
     </g>
     <g id="text_15">
      <!-- 3.5 -->
      <g transform="translate(85.096875 135.222568)scale(0.1 -0.1)">
       <use xlink:href="#DejaVuSans-51"/>
       <use x="63.623047" xlink:href="#DejaVuSans-46"/>
       <use x="95.410156" xlink:href="#DejaVuSans-53"/>
      </g>
     </g>
    </g>
    <g id="ytick_9">
     <g id="line2d_29">
      <path clip-path="url(#p4165ac09fd)" d="M 108 79.752 
L 777.6 79.752 
" style="fill:none;stroke:#b0b0b0;stroke-linecap:square;stroke-width:0.8;"/>
     </g>
     <g id="line2d_30">
      <g>
       <use style="stroke:#000000;stroke-width:0.8;" x="108" xlink:href="#md2dc6efabb" y="79.752"/>
      </g>
     </g>
     <g id="text_16">
      <!-- 4.0 -->
      <defs>
       <path d="M 37.796875 64.3125 
L 12.890625 25.390625 
L 37.796875 25.390625 
z
M 35.203125 72.90625 
L 47.609375 72.90625 
L 47.609375 25.390625 
L 58.015625 25.390625 
L 58.015625 17.1875 
L 47.609375 17.1875 
L 47.609375 0 
L 37.796875 0 
L 37.796875 17.1875 
L 4.890625 17.1875 
L 4.890625 26.703125 
z
" id="DejaVuSans-52"/>
      </defs>
      <g transform="translate(85.096875 83.551219)scale(0.1 -0.1)">
       <use xlink:href="#DejaVuSans-52"/>
       <use x="63.623047" xlink:href="#DejaVuSans-46"/>
       <use x="95.410156" xlink:href="#DejaVuSans-48"/>
      </g>
     </g>
    </g>
    <g id="text_17">
     <!-- Spinta [N] -->
     <defs>
      <path d="M 53.515625 70.515625 
L 53.515625 60.890625 
Q 47.90625 63.578125 42.921875 64.890625 
Q 37.9375 66.21875 33.296875 66.21875 
Q 25.25 66.21875 20.875 63.09375 
Q 16.5 59.96875 16.5 54.203125 
Q 16.5 49.359375 19.40625 46.890625 
Q 22.3125 44.4375 30.421875 42.921875 
L 36.375 41.703125 
Q 47.40625 39.59375 52.65625 34.296875 
Q 57.90625 29 57.90625 20.125 
Q 57.90625 9.515625 50.796875 4.046875 
Q 43.703125 -1.421875 29.984375 -1.421875 
Q 24.8125 -1.421875 18.96875 -0.25 
Q 13.140625 0.921875 6.890625 3.21875 
L 6.890625 13.375 
Q 12.890625 10.015625 18.65625 8.296875 
Q 24.421875 6.59375 29.984375 6.59375 
Q 38.421875 6.59375 43.015625 9.90625 
Q 47.609375 13.234375 47.609375 19.390625 
Q 47.609375 24.75 44.3125 27.78125 
Q 41.015625 30.8125 33.5 32.328125 
L 27.484375 33.5 
Q 16.453125 35.6875 11.515625 40.375 
Q 6.59375 45.0625 6.59375 53.421875 
Q 6.59375 63.09375 13.40625 68.65625 
Q 20.21875 74.21875 32.171875 74.21875 
Q 37.3125 74.21875 42.625 73.28125 
Q 47.953125 72.359375 53.515625 70.515625 
z
" id="DejaVuSans-83"/>
      <path d="M 18.109375 8.203125 
L 18.109375 -20.796875 
L 9.078125 -20.796875 
L 9.078125 54.6875 
L 18.109375 54.6875 
L 18.109375 46.390625 
Q 20.953125 51.265625 25.265625 53.625 
Q 29.59375 56 35.59375 56 
Q 45.5625 56 51.78125 48.09375 
Q 58.015625 40.1875 58.015625 27.296875 
Q 58.015625 14.40625 51.78125 6.484375 
Q 45.5625 -1.421875 35.59375 -1.421875 
Q 29.59375 -1.421875 25.265625 0.953125 
Q 20.953125 3.328125 18.109375 8.203125 
z
M 48.6875 27.296875 
Q 48.6875 37.203125 44.609375 42.84375 
Q 40.53125 48.484375 33.40625 48.484375 
Q 26.265625 48.484375 22.1875 42.84375 
Q 18.109375 37.203125 18.109375 27.296875 
Q 18.109375 17.390625 22.1875 11.75 
Q 26.265625 6.109375 33.40625 6.109375 
Q 40.53125 6.109375 44.609375 11.75 
Q 48.6875 17.390625 48.6875 27.296875 
z
" id="DejaVuSans-112"/>
      <path d="M 9.421875 54.6875 
L 18.40625 54.6875 
L 18.40625 0 
L 9.421875 0 
z
M 9.421875 75.984375 
L 18.40625 75.984375 
L 18.40625 64.59375 
L 9.421875 64.59375 
z
" id="DejaVuSans-105"/>
      <path d="M 54.890625 33.015625 
L 54.890625 0 
L 45.90625 0 
L 45.90625 32.71875 
Q 45.90625 40.484375 42.875 44.328125 
Q 39.84375 48.1875 33.796875 48.1875 
Q 26.515625 48.1875 22.3125 43.546875 
Q 18.109375 38.921875 18.109375 30.90625 
L 18.109375 0 
L 9.078125 0 
L 9.078125 54.6875 
L 18.109375 54.6875 
L 18.109375 46.1875 
Q 21.34375 51.125 25.703125 53.5625 
Q 30.078125 56 35.796875 56 
Q 45.21875 56 50.046875 50.171875 
Q 54.890625 44.34375 54.890625 33.015625 
z
" id="DejaVuSans-110"/>
      <path d="M 9.8125 72.90625 
L 23.09375 72.90625 
L 55.421875 11.921875 
L 55.421875 72.90625 
L 64.984375 72.90625 
L 64.984375 0 
L 51.703125 0 
L 19.390625 60.984375 
L 19.390625 0 
L 9.8125 0 
z
" id="DejaVuSans-78"/>
     </defs>
     <g transform="translate(79.017187 316.041719)rotate(-90)scale(0.1 -0.1)">
      <use xlink:href="#DejaVuSans-83"/>
      <use x="63.476562" xlink:href="#DejaVuSans-112"/>
      <use x="126.953125" xlink:href="#DejaVuSans-105"/>
      <use x="154.736328" xlink:href="#DejaVuSans-110"/>
      <use x="218.115234" xlink:href="#DejaVuSans-116"/>
      <use x="257.324219" xlink:href="#DejaVuSans-97"/>
      <use x="318.603516" xlink:href="#DejaVuSans-32"/>
      <use x="350.390625" xlink:href="#DejaVuSans-91"/>
      <use x="389.404297" xlink:href="#DejaVuSans-78"/>
      <use x="464.208984" xlink:href="#DejaVuSans-93"/>
     </g>
    </g>
    <g id="text_18">
     <!-- 1e7 -->
     <defs>
      <path d="M 56.203125 29.59375 
L 56.203125 25.203125 
L 14.890625 25.203125 
Q 15.484375 15.921875 20.484375 11.0625 
Q 25.484375 6.203125 34.421875 6.203125 
Q 39.59375 6.203125 44.453125 7.46875 
Q 49.3125 8.734375 54.109375 11.28125 
L 54.109375 2.78125 
Q 49.265625 0.734375 44.1875 -0.34375 
Q 39.109375 -1.421875 33.890625 -1.421875 
Q 20.796875 -1.421875 13.15625 6.1875 
Q 5.515625 13.8125 5.515625 26.8125 
Q 5.515625 40.234375 12.765625 48.109375 
Q 20.015625 56 32.328125 56 
Q 43.359375 56 49.78125 48.890625 
Q 56.203125 41.796875 56.203125 29.59375 
z
M 47.21875 32.234375 
Q 47.125 39.59375 43.09375 43.984375 
Q 39.0625 48.390625 32.421875 48.390625 
Q 24.90625 48.390625 20.390625 44.140625 
Q 15.875 39.890625 15.1875 32.171875 
z
" id="DejaVuSans-101"/>
      <path d="M 8.203125 72.90625 
L 55.078125 72.90625 
L 55.078125 68.703125 
L 28.609375 0 
L 18.3125 0 
L 43.21875 64.59375 
L 8.203125 64.59375 
z
" id="DejaVuSans-55"/>
     </defs>
     <g transform="translate(108 66.12)scale(0.1 -0.1)">
      <use xlink:href="#DejaVuSans-49"/>
      <use x="63.623047" xlink:href="#DejaVuSans-101"/>
      <use x="125.146484" xlink:href="#DejaVuSans-55"/>
     </g>
    </g>
   </g>
   <g id="line2d_31">
    <path clip-path="url(#p4165ac09fd)" d="M 138.436364 482.524597 
L 142.315002 481.939269 
L 146.19364 481.4682 
L 150.072278 481.086313 
L 153.950916 480.774606 
L 157.829554 480.518551 
L 161.708192 480.306947 
L 165.58683 480.121084 
L 169.465468 479.887217 
L 173.344106 479.705296 
L 177.222744 479.563782 
L 181.101382 479.453702 
L 184.98002 479.368072 
L 188.858658 479.301462 
L 192.737296 479.249647 
L 196.615934 479.209341 
L 200.494572 479.177988 
L 204.37321 479.153598 
L 208.251848 479.134627 
L 212.130486 479.119869 
L 216.009124 479.108389 
L 219.887762 479.099459 
L 223.7664 479.092512 
L 227.645038 479.087109 
L 231.523676 479.082905 
L 235.402314 479.079636 
L 239.280952 479.077092 
L 243.15959 479.075114 
L 247.038228 479.073575 
L 250.916866 479.072377 
L 254.795504 479.071446 
L 258.674142 479.070722 
L 262.55278 479.070158 
L 266.431418 479.06972 
L 270.310056 479.069379 
L 274.188694 479.069114 
L 278.067332 479.068907 
L 281.94597 479.068747 
L 285.824608 479.068622 
L 289.703246 479.068525 
L 293.581884 479.068449 
L 297.460522 479.06839 
L 301.33916 479.068345 
L 305.217798 479.068309 
L 309.096436 479.068282 
L 312.975074 479.06826 
L 316.853712 479.068243 
L 320.73235 479.06823 
L 324.610988 479.06822 
L 328.489626 479.068212 
L 332.368264 479.068206 
L 336.246902 479.068201 
L 340.12554 479.068198 
L 344.004179 479.068195 
L 347.882817 479.068193 
L 351.761455 479.068191 
L 355.640093 479.068189 
L 359.518731 479.068188 
L 363.397369 479.068188 
L 367.276007 479.068187 
L 371.154645 479.068186 
L 375.033283 479.068186 
L 378.911921 479.068186 
L 382.790559 479.068185 
L 386.669197 479.068185 
L 390.547835 479.068185 
L 394.426473 479.068185 
L 398.305111 479.068185 
L 402.183749 479.068185 
L 406.062387 479.068185 
L 409.941025 479.068185 
L 413.819663 479.068185 
L 417.698301 479.068185 
L 421.576939 479.068185 
L 425.455577 479.068185 
L 429.334215 479.068185 
L 433.212853 479.068185 
L 437.091491 479.068185 
L 440.970129 479.068185 
L 444.848767 479.068185 
L 448.727405 479.068185 
L 452.606043 479.068185 
L 456.484681 479.068185 
L 460.363319 479.068185 
L 464.241957 479.068185 
L 468.120595 479.068185 
L 471.999233 479.068185 
L 475.877871 479.068185 
L 479.756509 479.068185 
L 483.635147 479.068185 
L 487.513785 479.068185 
L 491.392423 479.068185 
L 495.271061 479.068185 
L 499.149699 479.068185 
L 503.028337 479.068185 
L 506.906975 479.068185 
L 510.785613 479.068185 
L 514.664251 479.068185 
L 518.542889 479.068185 
L 522.421527 479.068185 
" style="fill:none;stroke:#cc3300;stroke-linecap:square;stroke-width:1.5;"/>
   </g>
   <g id="line2d_32">
    <path clip-path="url(#p4165ac09fd)" d="M 138.436364 371.5542 
L 140.076853 370.627659 
L 141.717342 369.783963 
L 143.357831 369.014642 
L 144.998321 368.312198 
L 146.63881 367.669981 
L 148.279299 367.082082 
L 149.919788 366.543246 
L 151.560278 366.048784 
L 153.200767 365.594516 
L 154.841256 365.176699 
L 156.481745 364.791984 
L 158.122235 364.437368 
L 159.762724 364.110154 
L 161.403213 363.807916 
L 163.043702 363.528468 
L 164.684192 363.269843 
L 166.324681 362.927797 
L 167.96517 362.571966 
L 169.60566 362.251998 
L 171.246149 361.96428 
L 172.886638 361.70556 
L 174.527127 361.472917 
L 176.167617 361.263722 
L 177.808106 361.075611 
L 179.448595 360.906459 
L 181.089084 360.754357 
L 182.729574 360.617584 
L 184.370063 360.494597 
L 186.010552 360.384006 
L 187.651041 360.284561 
L 189.291531 360.195139 
L 190.93202 360.114729 
L 192.572509 360.042424 
L 194.212998 359.977407 
L 195.853488 359.918943 
L 197.493977 359.866371 
L 199.134466 359.819098 
L 200.774955 359.776589 
L 202.415445 359.738365 
L 204.055934 359.703993 
L 205.696423 359.673086 
L 207.336912 359.645294 
L 208.977402 359.620303 
L 210.617891 359.597831 
L 212.25838 359.577624 
L 213.898869 359.559453 
L 215.539359 359.543114 
L 217.179848 359.528422 
L 218.820337 359.51521 
L 220.460826 359.50333 
L 222.101316 359.492647 
L 223.741805 359.483042 
L 225.382294 359.474404 
L 227.022783 359.466637 
L 228.663273 359.459652 
L 230.303762 359.453372 
L 231.944251 359.447725 
L 233.58474 359.442646 
L 235.22523 359.43808 
L 236.865719 359.433974 
L 238.506208 359.430282 
L 240.146698 359.426962 
L 241.787187 359.423976 
L 243.427676 359.421292 
L 245.068165 359.418878 
L 246.708655 359.416707 
L 248.349144 359.414755 
L 249.989633 359.413 
L 251.630122 359.411421 
L 253.270612 359.410002 
L 254.911101 359.408726 
L 256.55159 359.407579 
L 258.192079 359.406547 
L 259.832569 359.405619 
L 261.473058 359.404784 
L 263.113547 359.404034 
L 264.754036 359.40336 
L 266.394526 359.402753 
L 268.035015 359.402207 
L 269.675504 359.401717 
L 271.315993 359.401276 
L 272.956483 359.400879 
L 274.596972 359.400522 
L 276.237461 359.400202 
L 277.87795 359.399913 
L 279.51844 359.399654 
L 281.158929 359.399421 
L 282.799418 359.399211 
L 284.439907 359.399023 
L 286.080397 359.398853 
L 287.720886 359.398701 
L 289.361375 359.398564 
L 291.001864 359.39844 
L 292.642354 359.398329 
L 294.282843 359.39823 
L 295.923332 359.39814 
L 297.563821 359.39806 
L 299.204311 359.397987 
L 300.8448 359.397922 
" style="fill:none;stroke:#cc3300;stroke-dasharray:5.55,2.4;stroke-dashoffset:0;stroke-width:1.5;"/>
   </g>
   <g id="line2d_33">
    <path clip-path="url(#p4165ac09fd)" d="M 522.421527 492.48 
L 524.69165 492.48 
L 526.961772 492.48 
L 529.231894 492.48 
L 531.502017 492.48 
L 533.772139 492.48 
L 536.042261 492.48 
L 538.312383 492.48 
L 540.582506 492.48 
L 542.852628 492.48 
L 545.12275 492.48 
L 547.392873 492.48 
L 549.662995 492.48 
L 551.933117 492.48 
L 554.20324 492.48 
L 556.473362 492.48 
L 558.743484 492.48 
L 561.013607 492.48 
L 563.283729 492.48 
L 565.553851 492.48 
L 567.823974 492.48 
L 570.094096 492.48 
L 572.364218 492.48 
L 574.63434 492.48 
L 576.904463 492.48 
L 579.174585 492.48 
L 581.444707 492.48 
L 583.71483 492.48 
L 585.984952 492.48 
L 588.255074 492.48 
L 590.525197 492.48 
L 592.795319 492.48 
L 595.065441 492.48 
L 597.335564 492.48 
L 599.605686 492.48 
L 601.875808 492.48 
L 604.145931 492.48 
L 606.416053 492.48 
L 608.686175 492.48 
L 610.956298 492.48 
L 613.22642 492.48 
L 615.496542 492.48 
L 617.766664 492.48 
L 620.036787 492.48 
L 622.306909 492.48 
L 624.577031 492.48 
L 626.847154 492.48 
L 629.117276 492.48 
L 631.387398 492.48 
L 633.657521 492.48 
L 635.927643 492.48 
L 638.197765 492.48 
L 640.467888 492.48 
L 642.73801 492.48 
L 645.008132 492.48 
L 647.278255 492.48 
L 649.548377 492.48 
L 651.818499 492.48 
L 654.088621 492.48 
L 656.358744 492.48 
L 658.628866 492.48 
L 660.898988 492.48 
L 663.169111 492.48 
L 665.439233 492.48 
L 667.709355 492.48 
L 669.979478 492.48 
L 672.2496 492.48 
L 674.519722 492.48 
L 676.789845 492.48 
L 679.059967 492.48 
L 681.330089 492.48 
L 683.600212 492.48 
L 685.870334 492.48 
L 688.140456 492.48 
L 690.410579 492.48 
L 692.680701 492.48 
L 694.950823 492.48 
L 697.220945 492.48 
L 699.491068 492.48 
L 701.76119 492.48 
L 704.031312 492.48 
L 706.301435 492.48 
L 708.571557 492.48 
L 710.841679 492.48 
L 713.111802 492.48 
L 715.381924 492.48 
L 717.652046 492.48 
L 719.922169 492.48 
L 722.192291 492.48 
L 724.462413 492.48 
L 726.732536 492.48 
L 729.002658 492.48 
L 731.27278 492.48 
L 733.542902 492.48 
L 735.813025 492.48 
L 738.083147 492.48 
L 740.353269 492.48 
L 742.623392 492.48 
L 744.893514 492.48 
L 747.163636 492.48 
" style="fill:none;stroke:#cc3300;stroke-dasharray:9.6,2.4,1.5,2.4;stroke-dashoffset:0;stroke-width:1.5;"/>
   </g>
   <g id="line2d_34">
    <path clip-path="url(#p4165ac09fd)" d="M 138.436364 414.552882 
L 140.699107 413.837496 
L 142.961851 413.208365 
L 145.224595 412.653655 
L 147.487339 412.163348 
L 149.750083 411.728929 
L 152.012826 411.343144 
L 154.27557 410.999788 
L 156.538314 410.693543 
L 158.801058 410.419837 
L 161.063802 410.174727 
L 163.326545 409.954805 
L 165.589289 409.736945 
L 167.852033 409.44945 
L 170.114777 409.201141 
L 172.377521 408.986678 
L 174.640264 408.801447 
L 176.903008 408.641464 
L 179.165752 408.503287 
L 181.428496 408.383944 
L 183.69124 408.280868 
L 185.953983 408.191842 
L 188.216727 408.114951 
L 190.479471 408.04854 
L 192.742215 407.991181 
L 195.004959 407.94164 
L 197.267702 407.898853 
L 199.530446 407.861897 
L 201.79319 407.829978 
L 204.055934 407.80241 
L 206.318678 407.7786 
L 208.581421 407.758035 
L 210.844165 407.740273 
L 213.106909 407.724933 
L 215.369653 407.711683 
L 217.632397 407.700239 
L 219.89514 407.690355 
L 222.157884 407.681818 
L 224.420628 407.674445 
L 226.683372 407.668077 
L 228.946116 407.662577 
L 231.20886 407.657827 
L 233.471603 407.653724 
L 235.734347 407.65018 
L 237.997091 407.647119 
L 240.259835 407.644476 
L 242.522579 407.642193 
L 244.785322 407.640221 
L 247.048066 407.638518 
L 249.31081 407.637047 
L 251.573554 407.635776 
L 253.836298 407.634679 
L 256.099041 407.633731 
L 258.361785 407.632912 
L 260.624529 407.632205 
L 262.887273 407.631595 
L 265.150017 407.631067 
L 267.41276 407.630612 
L 269.675504 407.630218 
L 271.938248 407.629879 
L 274.200992 407.629585 
L 276.463736 407.629332 
L 278.726479 407.629113 
L 280.989223 407.628924 
L 283.251967 407.62876 
L 285.514711 407.628619 
L 287.777455 407.628497 
L 290.040198 407.628392 
L 292.302942 407.628301 
L 294.565686 407.628223 
L 296.82843 407.628155 
L 299.091174 407.628096 
L 301.353917 407.628046 
L 303.616661 407.628002 
L 305.879405 407.627964 
L 308.142149 407.627932 
L 310.404893 407.627904 
L 312.667636 407.627879 
L 314.93038 407.627858 
L 317.193124 407.62784 
L 319.455868 407.627825 
L 321.718612 407.627811 
L 323.981355 407.627799 
L 326.244099 407.627789 
L 328.506843 407.627781 
L 330.769587 407.627773 
L 333.032331 407.627767 
L 335.295074 407.627761 
L 337.557818 407.627756 
L 339.820562 407.627752 
L 342.083306 407.627748 
L 344.34605 407.627745 
L 346.608793 407.627742 
L 348.871537 407.62774 
L 351.134281 407.627738 
L 353.397025 407.627736 
L 355.659769 407.627735 
L 357.922512 407.627734 
L 360.185256 407.627732 
L 362.448 407.627732 
" style="fill:none;stroke:#009900;stroke-linecap:square;stroke-width:1.5;"/>
   </g>
   <g id="line2d_35">
    <path clip-path="url(#p4165ac09fd)" d="M 138.436364 335.982973 
L 139.961256 334.998537 
L 141.486149 334.096267 
L 143.011041 333.268316 
L 144.535934 332.507674 
L 146.060826 331.808078 
L 147.585719 331.163918 
L 149.110612 330.570162 
L 150.635504 330.022292 
L 152.160397 329.516247 
L 153.685289 329.048368 
L 155.210182 328.615355 
L 156.735074 328.214232 
L 158.259967 327.842305 
L 159.78486 327.49714 
L 161.309752 327.176527 
L 162.834645 326.878464 
L 164.359537 326.601132 
L 165.88443 326.271236 
L 167.409322 325.882076 
L 168.934215 325.52951 
L 170.459107 325.210096 
L 171.984 324.920718 
L 173.508893 324.65855 
L 175.033785 324.421035 
L 176.558678 324.205854 
L 178.08357 324.010906 
L 179.608463 323.83429 
L 181.133355 323.674282 
L 182.658248 323.52932 
L 184.18314 323.397989 
L 185.708033 323.279007 
L 187.232926 323.171213 
L 188.757818 323.073555 
L 190.282711 322.985081 
L 191.807603 322.904926 
L 193.332496 322.832308 
L 194.857388 322.766518 
L 196.382281 322.706915 
L 197.907174 322.652916 
L 199.432066 322.603995 
L 200.956959 322.559674 
L 202.481851 322.519521 
L 204.006744 322.483144 
L 205.531636 322.450187 
L 207.056529 322.420329 
L 208.581421 322.393279 
L 210.106314 322.368772 
L 211.631207 322.34657 
L 213.156099 322.326455 
L 214.680992 322.308232 
L 216.205884 322.291723 
L 217.730777 322.276766 
L 219.255669 322.263215 
L 220.780562 322.250938 
L 222.305455 322.239816 
L 223.830347 322.22974 
L 225.35524 322.220611 
L 226.880132 322.212341 
L 228.405025 322.204848 
L 229.929917 322.19806 
L 231.45481 322.19191 
L 232.979702 322.186339 
L 234.504595 322.181291 
L 236.029488 322.176718 
L 237.55438 322.172575 
L 239.079273 322.168822 
L 240.604165 322.165421 
L 242.129058 322.162341 
L 243.65395 322.15955 
L 245.178843 322.157021 
L 246.703736 322.15473 
L 248.228628 322.152655 
L 249.753521 322.150775 
L 251.278413 322.149071 
L 252.803306 322.147528 
L 254.328198 322.14613 
L 255.853091 322.144863 
L 257.377983 322.143716 
L 258.902876 322.142676 
L 260.427769 322.141734 
L 261.952661 322.140881 
L 263.477554 322.140108 
L 265.002446 322.139407 
L 266.527339 322.138773 
L 268.052231 322.138198 
L 269.577124 322.137677 
L 271.102017 322.137205 
L 272.626909 322.136778 
L 274.151802 322.13639 
L 275.676694 322.13604 
L 277.201587 322.135722 
L 278.726479 322.135434 
L 280.251372 322.135173 
L 281.776264 322.134936 
L 283.301157 322.134722 
L 284.82605 322.134528 
L 286.350942 322.134353 
L 287.875835 322.134193 
L 289.400727 322.134049 
" style="fill:none;stroke:#009900;stroke-dasharray:5.55,2.4;stroke-dashoffset:0;stroke-width:1.5;"/>
   </g>
   <g id="line2d_36">
    <path clip-path="url(#p4165ac09fd)" d="M 362.448 483.47059 
L 366.334017 483.470588 
L 370.220033 483.470587 
L 374.10605 483.470586 
L 377.992066 483.470586 
L 381.878083 483.470585 
L 385.764099 483.470585 
L 389.650116 483.470585 
L 393.536132 483.470584 
L 397.422149 483.470584 
L 401.308165 483.470584 
L 405.194182 483.470584 
L 409.080198 483.470584 
L 412.966215 483.470584 
L 416.852231 483.470584 
L 420.738248 483.470584 
L 424.624264 483.470584 
L 428.510281 483.470584 
L 432.396298 483.470584 
L 436.282314 483.470584 
L 440.168331 483.470584 
L 444.054347 483.470584 
L 447.940364 483.470584 
L 451.82638 483.470584 
L 455.712397 483.470584 
L 459.598413 483.470584 
L 463.48443 483.470584 
L 467.370446 483.470584 
L 471.256463 483.470584 
L 475.142479 483.470584 
L 479.028496 483.470584 
L 482.914512 483.470584 
L 486.800529 483.470584 
L 490.686545 483.470584 
L 494.572562 483.470584 
L 498.458579 483.470584 
L 502.344595 483.470584 
L 506.230612 483.470584 
L 510.116628 483.470584 
L 514.002645 483.470584 
L 517.888661 483.470584 
L 521.774678 483.470584 
L 525.660694 483.470584 
L 529.546711 483.470584 
L 533.432727 483.470584 
L 537.318744 483.470584 
L 541.20476 483.470584 
L 545.090777 483.470584 
L 548.976793 483.470584 
L 552.86281 483.470584 
L 556.748826 483.470584 
L 560.634843 483.470584 
L 564.52086 483.470584 
L 568.406876 483.470584 
L 572.292893 483.470584 
L 576.178909 483.470584 
L 580.064926 483.470584 
L 583.950942 483.470584 
L 587.836959 483.470584 
L 591.722975 483.470584 
L 595.608992 483.470584 
L 599.495008 483.470584 
L 603.381025 483.470584 
L 607.267041 483.470584 
L 611.153058 483.470584 
L 615.039074 483.470584 
L 618.925091 483.470584 
L 622.811107 483.470584 
L 626.697124 483.470584 
L 630.58314 483.470584 
L 634.469157 483.470584 
L 638.355174 483.470584 
L 642.24119 483.470584 
L 646.127207 483.470584 
L 650.013223 483.470584 
L 653.89924 483.470584 
L 657.785256 483.470584 
L 661.671273 483.470584 
L 665.557289 483.470584 
L 669.443306 483.470584 
L 673.329322 483.470584 
L 677.215339 483.470584 
L 681.101355 483.470584 
L 684.987372 483.470584 
L 688.873388 483.470584 
L 692.759405 483.470584 
L 696.645421 483.470584 
L 700.531438 483.470584 
L 704.417455 483.470584 
L 708.303471 483.470584 
L 712.189488 483.470584 
L 716.075504 483.470584 
L 719.961521 483.470584 
L 723.847537 483.470584 
L 727.733554 483.470584 
L 731.61957 483.470584 
L 735.505587 483.470584 
L 739.391603 483.470584 
L 743.27762 483.470584 
L 747.163636 483.470584 
" style="fill:none;stroke:#009900;stroke-dasharray:9.6,2.4,1.5,2.4;stroke-dashoffset:0;stroke-width:1.5;"/>
   </g>
   <g id="line2d_37">
    <path clip-path="url(#p4165ac09fd)" d="M 138.436364 143.307759 
L 140.035041 139.289965 
L 141.633719 135.622794 
L 143.232397 132.271249 
L 144.831074 129.204252 
L 146.429752 126.39416 
L 148.02843 123.816344 
L 149.627107 121.448828 
L 151.225785 119.271971 
L 152.824463 117.268191 
L 154.42314 115.421729 
L 156.021818 113.718438 
L 157.620496 112.145601 
L 159.219174 110.69177 
L 160.817851 109.346626 
L 162.416529 108.100857 
L 164.015207 106.946048 
L 165.613884 105.706888 
L 167.212562 104.090955 
L 168.81124 102.633951 
L 170.409917 101.320245 
L 172.008595 100.135743 
L 173.607273 99.067738 
L 175.20595 98.104772 
L 176.804628 97.236515 
L 178.403306 96.453651 
L 180.001983 95.747784 
L 181.600661 95.111339 
L 183.199339 94.537488 
L 184.798017 94.020077 
L 186.396694 93.553554 
L 187.995372 93.132913 
L 189.59405 92.753643 
L 191.192727 92.411675 
L 192.791405 92.103339 
L 194.390083 91.825329 
L 195.98876 91.574661 
L 197.587438 91.348647 
L 199.186116 91.144861 
L 200.784793 90.961118 
L 202.383471 90.795446 
L 203.982149 90.646068 
L 205.580826 90.511382 
L 207.179504 90.389942 
L 208.778182 90.280446 
L 210.37686 90.181719 
L 211.975537 90.092701 
L 213.574215 90.012439 
L 215.172893 89.940071 
L 216.77157 89.87482 
L 218.370248 89.815987 
L 219.968926 89.762939 
L 221.567603 89.71511 
L 223.166281 89.671984 
L 224.764959 89.6331 
L 226.363636 89.59804 
L 227.962314 89.566428 
L 229.560992 89.537925 
L 231.159669 89.512226 
L 232.758347 89.489054 
L 234.357025 89.468161 
L 235.955702 89.449323 
L 237.55438 89.432337 
L 239.153058 89.417023 
L 240.751736 89.403214 
L 242.350413 89.390764 
L 243.949091 89.379538 
L 245.547769 89.369416 
L 247.146446 89.360289 
L 248.745124 89.35206 
L 250.343802 89.344641 
L 251.942479 89.337951 
L 253.541157 89.331919 
L 255.139835 89.326481 
L 256.738512 89.321577 
L 258.33719 89.317156 
L 259.935868 89.313169 
L 261.534545 89.309575 
L 263.133223 89.306334 
L 264.731901 89.303411 
L 266.330579 89.300777 
L 267.929256 89.298401 
L 269.527934 89.296259 
L 271.126612 89.294328 
L 272.725289 89.292586 
L 274.323967 89.291016 
L 275.922645 89.2896 
L 277.521322 89.288324 
L 279.12 89.287173 
L 280.718678 89.286135 
L 282.317355 89.285199 
L 283.916033 89.284356 
L 285.514711 89.283595 
L 287.113388 89.282909 
L 288.712066 89.282291 
L 290.310744 89.281733 
L 291.909421 89.281231 
L 293.508099 89.280777 
L 295.106777 89.280369 
L 296.705455 89.28 
" style="fill:none;stroke:#003399;stroke-linecap:square;stroke-width:1.5;"/>
   </g>
   <g id="line2d_38">
    <path clip-path="url(#p4165ac09fd)" d="M 296.705455 440.935595 
L 299.410909 440.935456 
L 302.116364 440.935339 
L 304.821818 440.935241 
L 307.527273 440.935159 
L 310.232727 440.93509 
L 312.938182 440.935032 
L 315.643636 440.934983 
L 318.349091 440.934942 
L 321.054545 440.934908 
L 323.76 440.934879 
L 326.465455 440.934855 
L 329.170909 440.934835 
L 331.876364 440.934818 
L 334.581818 440.934804 
L 337.287273 440.934792 
L 339.992727 440.934782 
L 342.698182 440.934773 
L 345.403636 440.934766 
L 348.109091 440.93476 
L 350.814545 440.934755 
L 353.52 440.934751 
L 356.225455 440.934747 
L 358.930909 440.934745 
L 361.636364 440.934742 
L 364.341818 440.93474 
L 367.047273 440.934738 
L 369.752727 440.934737 
L 372.458182 440.934736 
L 375.163636 440.934735 
L 377.869091 440.934734 
L 380.574545 440.934733 
L 383.28 440.934732 
L 385.985455 440.934732 
L 388.690909 440.934731 
L 391.396364 440.934731 
L 394.101818 440.934731 
L 396.807273 440.93473 
L 399.512727 440.93473 
L 402.218182 440.93473 
L 404.923636 440.93473 
L 407.629091 440.93473 
L 410.334545 440.93473 
L 413.04 440.93473 
L 415.745455 440.93473 
L 418.450909 440.934729 
L 421.156364 440.934729 
L 423.861818 440.934729 
L 426.567273 440.934729 
L 429.272727 440.934729 
L 431.978182 440.934729 
L 434.683636 440.934729 
L 437.389091 440.934729 
L 440.094545 440.934729 
L 442.8 440.934729 
L 445.505455 440.934729 
L 448.210909 440.934729 
L 450.916364 440.934729 
L 453.621818 440.934729 
L 456.327273 440.934729 
L 459.032727 440.934729 
L 461.738182 440.934729 
L 464.443636 440.934729 
L 467.149091 440.934729 
L 469.854545 440.934729 
L 472.56 440.934729 
L 475.265455 440.934729 
L 477.970909 440.934729 
L 480.676364 440.934729 
L 483.381818 440.934729 
L 486.087273 440.934729 
L 488.792727 440.934729 
L 491.498182 440.934729 
L 494.203636 440.934729 
L 496.909091 440.934729 
L 499.614545 440.934729 
L 502.32 440.934729 
L 505.025455 440.934729 
L 507.730909 440.934729 
L 510.436364 440.934729 
L 513.141818 440.934729 
L 515.847273 440.934729 
L 518.552727 440.934729 
L 521.258182 440.934729 
L 523.963636 440.934729 
L 526.669091 440.934729 
L 529.374545 440.934729 
L 532.08 440.934729 
L 534.785455 440.934729 
L 537.490909 440.934729 
L 540.196364 440.934729 
L 542.901818 440.934729 
L 545.607273 440.934729 
L 548.312727 440.934729 
L 551.018182 440.934729 
L 553.723636 440.934729 
L 556.429091 440.934729 
L 559.134545 440.934729 
L 561.84 440.934729 
L 564.545455 440.934729 
" style="fill:none;stroke:#003399;stroke-dasharray:5.55,2.4;stroke-dashoffset:0;stroke-width:1.5;"/>
   </g>
   <g id="line2d_39">
    <path clip-path="url(#p4165ac09fd)" d="M 564.545455 483.790946 
L 564.791405 483.790946 
L 565.037355 483.790946 
L 565.283306 483.790946 
L 565.529256 483.790946 
L 565.775207 483.790946 
L 566.021157 483.790946 
L 566.267107 483.790946 
L 566.513058 483.790946 
L 566.759008 483.790946 
L 567.004959 483.790946 
L 567.250909 483.790946 
L 567.49686 483.790946 
L 567.74281 483.790946 
L 567.98876 483.790946 
L 568.234711 483.790946 
L 568.480661 483.790946 
L 568.726612 483.790946 
L 568.972562 483.790946 
L 569.218512 483.790946 
L 569.464463 483.790946 
L 569.710413 483.790946 
L 569.956364 483.790946 
L 570.202314 483.790946 
L 570.448264 483.790946 
L 570.694215 483.790946 
L 570.940165 483.790946 
L 571.186116 483.790946 
L 571.432066 483.790946 
L 571.678017 483.790946 
L 571.923967 483.790946 
L 572.169917 483.790946 
L 572.415868 483.790946 
L 572.661818 483.790946 
L 572.907769 483.790946 
L 573.153719 483.790946 
L 573.399669 483.790946 
L 573.64562 483.790946 
L 573.89157 483.790946 
L 574.137521 483.790946 
L 574.383471 483.790946 
L 574.629421 483.790946 
L 574.875372 483.790946 
L 575.121322 483.790946 
L 575.367273 483.790946 
L 575.613223 483.790946 
L 575.859174 483.790946 
L 576.105124 483.790946 
L 576.351074 483.790946 
L 576.597025 483.790946 
L 576.842975 483.790946 
L 577.088926 483.790946 
L 577.334876 483.790946 
L 577.580826 483.790946 
L 577.826777 483.790946 
L 578.072727 483.790946 
L 578.318678 483.790946 
L 578.564628 483.790946 
L 578.810579 483.790946 
L 579.056529 483.790946 
L 579.302479 483.790946 
L 579.54843 483.790946 
L 579.79438 483.790946 
L 580.040331 483.790946 
L 580.286281 483.790946 
L 580.532231 483.790946 
L 580.778182 483.790946 
L 581.024132 483.790946 
L 581.270083 483.790946 
L 581.516033 483.790946 
L 581.761983 483.790946 
L 582.007934 483.790946 
L 582.253884 483.790946 
L 582.499835 483.790946 
L 582.745785 483.790946 
L 582.991736 483.790946 
L 583.237686 483.790946 
L 583.483636 483.790946 
L 583.729587 483.790946 
L 583.975537 483.790946 
L 584.221488 483.790946 
L 584.467438 483.790946 
L 584.713388 483.790946 
L 584.959339 483.790946 
L 585.205289 483.790946 
L 585.45124 483.790946 
L 585.69719 483.790946 
L 585.94314 483.790946 
L 586.189091 483.790946 
L 586.435041 483.790946 
L 586.680992 483.790946 
L 586.926942 483.790946 
L 587.172893 483.790946 
L 587.418843 483.790946 
L 587.664793 483.790946 
L 587.910744 483.790946 
L 588.156694 483.790946 
L 588.402645 483.790946 
L 588.648595 483.790946 
L 588.894545 483.790946 
" style="fill:none;stroke:#003399;stroke-dasharray:9.6,2.4,1.5,2.4;stroke-dashoffset:0;stroke-width:1.5;"/>
   </g>
   <g id="line2d_40">
    <path clip-path="url(#p4165ac09fd)" d="M 588.894545 483.790946 
L 590.493223 483.790946 
L 592.091901 483.790946 
L 593.690579 483.790946 
L 595.289256 483.790946 
L 596.887934 483.790946 
L 598.486612 483.790946 
L 600.085289 483.790946 
L 601.683967 483.790946 
L 603.282645 483.790946 
L 604.881322 483.790946 
L 606.48 483.790946 
L 608.078678 483.790946 
L 609.677355 483.790946 
L 611.276033 483.790946 
L 612.874711 483.790946 
L 614.473388 483.790946 
L 616.072066 483.790946 
L 617.670744 483.790946 
L 619.269421 483.790946 
L 620.868099 483.790946 
L 622.466777 483.790946 
L 624.065455 483.790946 
L 625.664132 483.790946 
L 627.26281 483.790946 
L 628.861488 483.790946 
L 630.460165 483.790946 
L 632.058843 483.790946 
L 633.657521 483.790946 
L 635.256198 483.790946 
L 636.854876 483.790946 
L 638.453554 483.790946 
L 640.052231 483.790946 
L 641.650909 483.790946 
L 643.249587 483.790946 
L 644.848264 483.790946 
L 646.446942 483.790946 
L 648.04562 483.790946 
L 649.644298 483.790946 
L 651.242975 483.790946 
L 652.841653 483.790946 
L 654.440331 483.790946 
L 656.039008 483.790946 
L 657.637686 483.790946 
L 659.236364 483.790946 
L 660.835041 483.790946 
L 662.433719 483.790946 
L 664.032397 483.790946 
L 665.631074 483.790946 
L 667.229752 483.790946 
L 668.82843 483.790946 
L 670.427107 483.790946 
L 672.025785 483.790946 
L 673.624463 483.790946 
L 675.22314 483.790946 
L 676.821818 483.790946 
L 678.420496 483.790946 
L 680.019174 483.790946 
L 681.617851 483.790946 
L 683.216529 483.790946 
L 684.815207 483.790946 
L 686.413884 483.790946 
L 688.012562 483.790946 
L 689.61124 483.790946 
L 691.209917 483.790946 
L 692.808595 483.790946 
L 694.407273 483.790946 
L 696.00595 483.790946 
L 697.604628 483.790946 
L 699.203306 483.790946 
L 700.801983 483.790946 
L 702.400661 483.790946 
L 703.999339 483.790946 
L 705.598017 483.790946 
L 707.196694 483.790946 
L 708.795372 483.790946 
L 710.39405 483.790946 
L 711.992727 483.790946 
L 713.591405 483.790946 
L 715.190083 483.790946 
L 716.78876 483.790946 
L 718.387438 483.790946 
L 719.986116 483.790946 
L 721.584793 483.790946 
L 723.183471 483.790946 
L 724.782149 483.790946 
L 726.380826 483.790946 
L 727.979504 483.790946 
L 729.578182 483.790946 
L 731.17686 483.790946 
L 732.775537 483.790946 
L 734.374215 483.790946 
L 735.972893 483.790946 
L 737.57157 483.790946 
L 739.170248 483.790946 
L 740.768926 483.790946 
L 742.367603 483.790946 
L 743.966281 483.790946 
L 745.564959 483.790946 
L 747.163636 483.790946 
" style="fill:none;stroke:#003399;stroke-dasharray:1.5,2.475;stroke-dashoffset:0;stroke-width:1.5;"/>
   </g>
   <g id="patch_3">
    <path d="M 108 512.64 
L 108 69.12 
" style="fill:none;stroke:#000000;stroke-linecap:square;stroke-linejoin:miter;stroke-width:0.8;"/>
   </g>
   <g id="patch_4">
    <path d="M 777.6 512.64 
L 777.6 69.12 
" style="fill:none;stroke:#000000;stroke-linecap:square;stroke-linejoin:miter;stroke-width:0.8;"/>
   </g>
   <g id="patch_5">
    <path d="M 108 512.64 
L 777.6 512.64 
" style="fill:none;stroke:#000000;stroke-linecap:square;stroke-linejoin:miter;stroke-width:0.8;"/>
   </g>
   <g id="patch_6">
    <path d="M 108 69.12 
L 777.6 69.12 
" style="fill:none;stroke:#000000;stroke-linecap:square;stroke-linejoin:miter;stroke-width:0.8;"/>
   </g>
   <g id="legend_1">
    <g id="patch_7">
     <path d="M 581.735937 223.90125 
L 770.6 223.90125 
Q 772.6 223.90125 772.6 221.90125 
L 772.6 76.12 
Q 772.6 74.12 770.6 74.12 
L 581.735937 74.12 
Q 579.735937 74.12 579.735937 76.12 
L 579.735937 221.90125 
Q 579.735937 223.90125 581.735937 223.90125 
z
" style="fill:#ffffff;opacity:0.8;stroke:#cccccc;stroke-linejoin:miter;"/>
    </g>
    <g id="line2d_41">
     <path d="M 583.735937 82.218438 
L 603.735937 82.218438 
" style="fill:none;stroke:#cc3300;stroke-linecap:square;stroke-width:1.5;"/>
    </g>
    <g id="line2d_42"/>
    <g id="text_19">
     <!-- Ariane 5 ECA - Core stage -->
     <defs>
      <path d="M 34.1875 63.1875 
L 20.796875 26.90625 
L 47.609375 26.90625 
z
M 28.609375 72.90625 
L 39.796875 72.90625 
L 67.578125 0 
L 57.328125 0 
L 50.6875 18.703125 
L 17.828125 18.703125 
L 11.1875 0 
L 0.78125 0 
z
" id="DejaVuSans-65"/>
      <path d="M 41.109375 46.296875 
Q 39.59375 47.171875 37.8125 47.578125 
Q 36.03125 48 33.890625 48 
Q 26.265625 48 22.1875 43.046875 
Q 18.109375 38.09375 18.109375 28.8125 
L 18.109375 0 
L 9.078125 0 
L 9.078125 54.6875 
L 18.109375 54.6875 
L 18.109375 46.1875 
Q 20.953125 51.171875 25.484375 53.578125 
Q 30.03125 56 36.53125 56 
Q 37.453125 56 38.578125 55.875 
Q 39.703125 55.765625 41.0625 55.515625 
z
" id="DejaVuSans-114"/>
      <path d="M 9.8125 72.90625 
L 55.90625 72.90625 
L 55.90625 64.59375 
L 19.671875 64.59375 
L 19.671875 43.015625 
L 54.390625 43.015625 
L 54.390625 34.71875 
L 19.671875 34.71875 
L 19.671875 8.296875 
L 56.78125 8.296875 
L 56.78125 0 
L 9.8125 0 
z
" id="DejaVuSans-69"/>
      <path d="M 64.40625 67.28125 
L 64.40625 56.890625 
Q 59.421875 61.53125 53.78125 63.8125 
Q 48.140625 66.109375 41.796875 66.109375 
Q 29.296875 66.109375 22.65625 58.46875 
Q 16.015625 50.828125 16.015625 36.375 
Q 16.015625 21.96875 22.65625 14.328125 
Q 29.296875 6.6875 41.796875 6.6875 
Q 48.140625 6.6875 53.78125 8.984375 
Q 59.421875 11.28125 64.40625 15.921875 
L 64.40625 5.609375 
Q 59.234375 2.09375 53.4375 0.328125 
Q 47.65625 -1.421875 41.21875 -1.421875 
Q 24.65625 -1.421875 15.125 8.703125 
Q 5.609375 18.84375 5.609375 36.375 
Q 5.609375 53.953125 15.125 64.078125 
Q 24.65625 74.21875 41.21875 74.21875 
Q 47.75 74.21875 53.53125 72.484375 
Q 59.328125 70.75 64.40625 67.28125 
z
" id="DejaVuSans-67"/>
      <path d="M 4.890625 31.390625 
L 31.203125 31.390625 
L 31.203125 23.390625 
L 4.890625 23.390625 
z
" id="DejaVuSans-45"/>
      <path d="M 44.28125 53.078125 
L 44.28125 44.578125 
Q 40.484375 46.53125 36.375 47.5 
Q 32.28125 48.484375 27.875 48.484375 
Q 21.1875 48.484375 17.84375 46.4375 
Q 14.5 44.390625 14.5 40.28125 
Q 14.5 37.15625 16.890625 35.375 
Q 19.28125 33.59375 26.515625 31.984375 
L 29.59375 31.296875 
Q 39.15625 29.25 43.1875 25.515625 
Q 47.21875 21.78125 47.21875 15.09375 
Q 47.21875 7.46875 41.1875 3.015625 
Q 35.15625 -1.421875 24.609375 -1.421875 
Q 20.21875 -1.421875 15.453125 -0.5625 
Q 10.6875 0.296875 5.421875 2 
L 5.421875 11.28125 
Q 10.40625 8.6875 15.234375 7.390625 
Q 20.0625 6.109375 24.8125 6.109375 
Q 31.15625 6.109375 34.5625 8.28125 
Q 37.984375 10.453125 37.984375 14.40625 
Q 37.984375 18.0625 35.515625 20.015625 
Q 33.0625 21.96875 24.703125 23.78125 
L 21.578125 24.515625 
Q 13.234375 26.265625 9.515625 29.90625 
Q 5.8125 33.546875 5.8125 39.890625 
Q 5.8125 47.609375 11.28125 51.796875 
Q 16.75 56 26.8125 56 
Q 31.78125 56 36.171875 55.265625 
Q 40.578125 54.546875 44.28125 53.078125 
z
" id="DejaVuSans-115"/>
      <path d="M 45.40625 27.984375 
Q 45.40625 37.75 41.375 43.109375 
Q 37.359375 48.484375 30.078125 48.484375 
Q 22.859375 48.484375 18.828125 43.109375 
Q 14.796875 37.75 14.796875 27.984375 
Q 14.796875 18.265625 18.828125 12.890625 
Q 22.859375 7.515625 30.078125 7.515625 
Q 37.359375 7.515625 41.375 12.890625 
Q 45.40625 18.265625 45.40625 27.984375 
z
M 54.390625 6.78125 
Q 54.390625 -7.171875 48.1875 -13.984375 
Q 42 -20.796875 29.203125 -20.796875 
Q 24.46875 -20.796875 20.265625 -20.09375 
Q 16.0625 -19.390625 12.109375 -17.921875 
L 12.109375 -9.1875 
Q 16.0625 -11.328125 19.921875 -12.34375 
Q 23.78125 -13.375 27.78125 -13.375 
Q 36.625 -13.375 41.015625 -8.765625 
Q 45.40625 -4.15625 45.40625 5.171875 
L 45.40625 9.625 
Q 42.625 4.78125 38.28125 2.390625 
Q 33.9375 0 27.875 0 
Q 17.828125 0 11.671875 7.65625 
Q 5.515625 15.328125 5.515625 27.984375 
Q 5.515625 40.671875 11.671875 48.328125 
Q 17.828125 56 27.875 56 
Q 33.9375 56 38.28125 53.609375 
Q 42.625 51.21875 45.40625 46.390625 
L 45.40625 54.6875 
L 54.390625 54.6875 
z
" id="DejaVuSans-103"/>
     </defs>
     <g transform="translate(611.735937 85.718438)scale(0.1 -0.1)">
      <use xlink:href="#DejaVuSans-65"/>
      <use x="68.408203" xlink:href="#DejaVuSans-114"/>
      <use x="109.521484" xlink:href="#DejaVuSans-105"/>
      <use x="137.304688" xlink:href="#DejaVuSans-97"/>
      <use x="198.583984" xlink:href="#DejaVuSans-110"/>
      <use x="261.962891" xlink:href="#DejaVuSans-101"/>
      <use x="323.486328" xlink:href="#DejaVuSans-32"/>
      <use x="355.273438" xlink:href="#DejaVuSans-53"/>
      <use x="418.896484" xlink:href="#DejaVuSans-32"/>
      <use x="450.683594" xlink:href="#DejaVuSans-69"/>
      <use x="513.867188" xlink:href="#DejaVuSans-67"/>
      <use x="583.691406" xlink:href="#DejaVuSans-65"/>
      <use x="652.099609" xlink:href="#DejaVuSans-32"/>
      <use x="683.886719" xlink:href="#DejaVuSans-45"/>
      <use x="719.970703" xlink:href="#DejaVuSans-32"/>
      <use x="751.757812" xlink:href="#DejaVuSans-67"/>
      <use x="821.582031" xlink:href="#DejaVuSans-111"/>
      <use x="882.763672" xlink:href="#DejaVuSans-114"/>
      <use x="921.626953" xlink:href="#DejaVuSans-101"/>
      <use x="983.150391" xlink:href="#DejaVuSans-32"/>
      <use x="1014.9375" xlink:href="#DejaVuSans-115"/>
      <use x="1067.037109" xlink:href="#DejaVuSans-116"/>
      <use x="1106.246094" xlink:href="#DejaVuSans-97"/>
      <use x="1167.525391" xlink:href="#DejaVuSans-103"/>
      <use x="1231.001953" xlink:href="#DejaVuSans-101"/>
     </g>
    </g>
    <g id="line2d_43">
     <path d="M 583.735937 96.896563 
L 603.735937 96.896563 
" style="fill:none;stroke:#cc3300;stroke-dasharray:5.55,2.4;stroke-dashoffset:0;stroke-width:1.5;"/>
    </g>
    <g id="line2d_44"/>
    <g id="text_20">
     <!-- Ariane 5 ECA - Boosters -->
     <defs>
      <path d="M 19.671875 34.8125 
L 19.671875 8.109375 
L 35.5 8.109375 
Q 43.453125 8.109375 47.28125 11.40625 
Q 51.125 14.703125 51.125 21.484375 
Q 51.125 28.328125 47.28125 31.5625 
Q 43.453125 34.8125 35.5 34.8125 
z
M 19.671875 64.796875 
L 19.671875 42.828125 
L 34.28125 42.828125 
Q 41.5 42.828125 45.03125 45.53125 
Q 48.578125 48.25 48.578125 53.8125 
Q 48.578125 59.328125 45.03125 62.0625 
Q 41.5 64.796875 34.28125 64.796875 
z
M 9.8125 72.90625 
L 35.015625 72.90625 
Q 46.296875 72.90625 52.390625 68.21875 
Q 58.5 63.53125 58.5 54.890625 
Q 58.5 48.1875 55.375 44.234375 
Q 52.25 40.28125 46.1875 39.3125 
Q 53.46875 37.75 57.5 32.78125 
Q 61.53125 27.828125 61.53125 20.40625 
Q 61.53125 10.640625 54.890625 5.3125 
Q 48.25 0 35.984375 0 
L 9.8125 0 
z
" id="DejaVuSans-66"/>
     </defs>
     <g transform="translate(611.735937 100.396563)scale(0.1 -0.1)">
      <use xlink:href="#DejaVuSans-65"/>
      <use x="68.408203" xlink:href="#DejaVuSans-114"/>
      <use x="109.521484" xlink:href="#DejaVuSans-105"/>
      <use x="137.304688" xlink:href="#DejaVuSans-97"/>
      <use x="198.583984" xlink:href="#DejaVuSans-110"/>
      <use x="261.962891" xlink:href="#DejaVuSans-101"/>
      <use x="323.486328" xlink:href="#DejaVuSans-32"/>
      <use x="355.273438" xlink:href="#DejaVuSans-53"/>
      <use x="418.896484" xlink:href="#DejaVuSans-32"/>
      <use x="450.683594" xlink:href="#DejaVuSans-69"/>
      <use x="513.867188" xlink:href="#DejaVuSans-67"/>
      <use x="583.691406" xlink:href="#DejaVuSans-65"/>
      <use x="652.099609" xlink:href="#DejaVuSans-32"/>
      <use x="683.886719" xlink:href="#DejaVuSans-45"/>
      <use x="719.970703" xlink:href="#DejaVuSans-32"/>
      <use x="751.757812" xlink:href="#DejaVuSans-66"/>
      <use x="820.361328" xlink:href="#DejaVuSans-111"/>
      <use x="881.542969" xlink:href="#DejaVuSans-111"/>
      <use x="942.724609" xlink:href="#DejaVuSans-115"/>
      <use x="994.824219" xlink:href="#DejaVuSans-116"/>
      <use x="1034.033203" xlink:href="#DejaVuSans-101"/>
      <use x="1095.556641" xlink:href="#DejaVuSans-114"/>
      <use x="1136.669922" xlink:href="#DejaVuSans-115"/>
     </g>
    </g>
    <g id="line2d_45">
     <path d="M 583.735937 111.574688 
L 603.735937 111.574688 
" style="fill:none;stroke:#cc3300;stroke-dasharray:9.6,2.4,1.5,2.4;stroke-dashoffset:0;stroke-width:1.5;"/>
    </g>
    <g id="line2d_46"/>
    <g id="text_21">
     <!-- Ariane 5 ECA - Second stage -->
     <defs>
      <path d="M 48.78125 52.59375 
L 48.78125 44.1875 
Q 44.96875 46.296875 41.140625 47.34375 
Q 37.3125 48.390625 33.40625 48.390625 
Q 24.65625 48.390625 19.8125 42.84375 
Q 14.984375 37.3125 14.984375 27.296875 
Q 14.984375 17.28125 19.8125 11.734375 
Q 24.65625 6.203125 33.40625 6.203125 
Q 37.3125 6.203125 41.140625 7.25 
Q 44.96875 8.296875 48.78125 10.40625 
L 48.78125 2.09375 
Q 45.015625 0.34375 40.984375 -0.53125 
Q 36.96875 -1.421875 32.421875 -1.421875 
Q 20.0625 -1.421875 12.78125 6.34375 
Q 5.515625 14.109375 5.515625 27.296875 
Q 5.515625 40.671875 12.859375 48.328125 
Q 20.21875 56 33.015625 56 
Q 37.15625 56 41.109375 55.140625 
Q 45.0625 54.296875 48.78125 52.59375 
z
" id="DejaVuSans-99"/>
      <path d="M 45.40625 46.390625 
L 45.40625 75.984375 
L 54.390625 75.984375 
L 54.390625 0 
L 45.40625 0 
L 45.40625 8.203125 
Q 42.578125 3.328125 38.25 0.953125 
Q 33.9375 -1.421875 27.875 -1.421875 
Q 17.96875 -1.421875 11.734375 6.484375 
Q 5.515625 14.40625 5.515625 27.296875 
Q 5.515625 40.1875 11.734375 48.09375 
Q 17.96875 56 27.875 56 
Q 33.9375 56 38.25 53.625 
Q 42.578125 51.265625 45.40625 46.390625 
z
M 14.796875 27.296875 
Q 14.796875 17.390625 18.875 11.75 
Q 22.953125 6.109375 30.078125 6.109375 
Q 37.203125 6.109375 41.296875 11.75 
Q 45.40625 17.390625 45.40625 27.296875 
Q 45.40625 37.203125 41.296875 42.84375 
Q 37.203125 48.484375 30.078125 48.484375 
Q 22.953125 48.484375 18.875 42.84375 
Q 14.796875 37.203125 14.796875 27.296875 
z
" id="DejaVuSans-100"/>
     </defs>
     <g transform="translate(611.735937 115.074688)scale(0.1 -0.1)">
      <use xlink:href="#DejaVuSans-65"/>
      <use x="68.408203" xlink:href="#DejaVuSans-114"/>
      <use x="109.521484" xlink:href="#DejaVuSans-105"/>
      <use x="137.304688" xlink:href="#DejaVuSans-97"/>
      <use x="198.583984" xlink:href="#DejaVuSans-110"/>
      <use x="261.962891" xlink:href="#DejaVuSans-101"/>
      <use x="323.486328" xlink:href="#DejaVuSans-32"/>
      <use x="355.273438" xlink:href="#DejaVuSans-53"/>
      <use x="418.896484" xlink:href="#DejaVuSans-32"/>
      <use x="450.683594" xlink:href="#DejaVuSans-69"/>
      <use x="513.867188" xlink:href="#DejaVuSans-67"/>
      <use x="583.691406" xlink:href="#DejaVuSans-65"/>
      <use x="652.099609" xlink:href="#DejaVuSans-32"/>
      <use x="683.886719" xlink:href="#DejaVuSans-45"/>
      <use x="719.970703" xlink:href="#DejaVuSans-32"/>
      <use x="751.757812" xlink:href="#DejaVuSans-83"/>
      <use x="815.234375" xlink:href="#DejaVuSans-101"/>
      <use x="876.757812" xlink:href="#DejaVuSans-99"/>
      <use x="931.738281" xlink:href="#DejaVuSans-111"/>
      <use x="992.919922" xlink:href="#DejaVuSans-110"/>
      <use x="1056.298828" xlink:href="#DejaVuSans-100"/>
      <use x="1119.775391" xlink:href="#DejaVuSans-32"/>
      <use x="1151.5625" xlink:href="#DejaVuSans-115"/>
      <use x="1203.662109" xlink:href="#DejaVuSans-116"/>
      <use x="1242.871094" xlink:href="#DejaVuSans-97"/>
      <use x="1304.150391" xlink:href="#DejaVuSans-103"/>
      <use x="1367.626953" xlink:href="#DejaVuSans-101"/>
     </g>
    </g>
    <g id="line2d_47">
     <path d="M 583.735937 126.252813 
L 603.735937 126.252813 
" style="fill:none;stroke:#009900;stroke-linecap:square;stroke-width:1.5;"/>
    </g>
    <g id="line2d_48"/>
    <g id="text_22">
     <!-- Falcon Heavy - Core Stage -->
     <defs>
      <path d="M 9.8125 72.90625 
L 51.703125 72.90625 
L 51.703125 64.59375 
L 19.671875 64.59375 
L 19.671875 43.109375 
L 48.578125 43.109375 
L 48.578125 34.8125 
L 19.671875 34.8125 
L 19.671875 0 
L 9.8125 0 
z
" id="DejaVuSans-70"/>
      <path d="M 9.421875 75.984375 
L 18.40625 75.984375 
L 18.40625 0 
L 9.421875 0 
z
" id="DejaVuSans-108"/>
      <path d="M 9.8125 72.90625 
L 19.671875 72.90625 
L 19.671875 43.015625 
L 55.515625 43.015625 
L 55.515625 72.90625 
L 65.375 72.90625 
L 65.375 0 
L 55.515625 0 
L 55.515625 34.71875 
L 19.671875 34.71875 
L 19.671875 0 
L 9.8125 0 
z
" id="DejaVuSans-72"/>
      <path d="M 2.984375 54.6875 
L 12.5 54.6875 
L 29.59375 8.796875 
L 46.6875 54.6875 
L 56.203125 54.6875 
L 35.6875 0 
L 23.484375 0 
z
" id="DejaVuSans-118"/>
      <path d="M 32.171875 -5.078125 
Q 28.375 -14.84375 24.75 -17.8125 
Q 21.140625 -20.796875 15.09375 -20.796875 
L 7.90625 -20.796875 
L 7.90625 -13.28125 
L 13.1875 -13.28125 
Q 16.890625 -13.28125 18.9375 -11.515625 
Q 21 -9.765625 23.484375 -3.21875 
L 25.09375 0.875 
L 2.984375 54.6875 
L 12.5 54.6875 
L 29.59375 11.921875 
L 46.6875 54.6875 
L 56.203125 54.6875 
z
" id="DejaVuSans-121"/>
     </defs>
     <g transform="translate(611.735937 129.752813)scale(0.1 -0.1)">
      <use xlink:href="#DejaVuSans-70"/>
      <use x="48.394531" xlink:href="#DejaVuSans-97"/>
      <use x="109.673828" xlink:href="#DejaVuSans-108"/>
      <use x="137.457031" xlink:href="#DejaVuSans-99"/>
      <use x="192.4375" xlink:href="#DejaVuSans-111"/>
      <use x="253.619141" xlink:href="#DejaVuSans-110"/>
      <use x="316.998047" xlink:href="#DejaVuSans-32"/>
      <use x="348.785156" xlink:href="#DejaVuSans-72"/>
      <use x="423.980469" xlink:href="#DejaVuSans-101"/>
      <use x="485.503906" xlink:href="#DejaVuSans-97"/>
      <use x="546.783203" xlink:href="#DejaVuSans-118"/>
      <use x="605.962891" xlink:href="#DejaVuSans-121"/>
      <use x="665.142578" xlink:href="#DejaVuSans-32"/>
      <use x="696.929688" xlink:href="#DejaVuSans-45"/>
      <use x="733.013672" xlink:href="#DejaVuSans-32"/>
      <use x="764.800781" xlink:href="#DejaVuSans-67"/>
      <use x="834.625" xlink:href="#DejaVuSans-111"/>
      <use x="895.806641" xlink:href="#DejaVuSans-114"/>
      <use x="934.669922" xlink:href="#DejaVuSans-101"/>
      <use x="996.193359" xlink:href="#DejaVuSans-32"/>
      <use x="1027.980469" xlink:href="#DejaVuSans-83"/>
      <use x="1091.457031" xlink:href="#DejaVuSans-116"/>
      <use x="1130.666016" xlink:href="#DejaVuSans-97"/>
      <use x="1191.945312" xlink:href="#DejaVuSans-103"/>
      <use x="1255.421875" xlink:href="#DejaVuSans-101"/>
     </g>
    </g>
    <g id="line2d_49">
     <path d="M 583.735937 140.930938 
L 603.735937 140.930938 
" style="fill:none;stroke:#009900;stroke-dasharray:5.55,2.4;stroke-dashoffset:0;stroke-width:1.5;"/>
    </g>
    <g id="line2d_50"/>
    <g id="text_23">
     <!-- Falcon Heavy - Boosters -->
     <g transform="translate(611.735937 144.430938)scale(0.1 -0.1)">
      <use xlink:href="#DejaVuSans-70"/>
      <use x="48.394531" xlink:href="#DejaVuSans-97"/>
      <use x="109.673828" xlink:href="#DejaVuSans-108"/>
      <use x="137.457031" xlink:href="#DejaVuSans-99"/>
      <use x="192.4375" xlink:href="#DejaVuSans-111"/>
      <use x="253.619141" xlink:href="#DejaVuSans-110"/>
      <use x="316.998047" xlink:href="#DejaVuSans-32"/>
      <use x="348.785156" xlink:href="#DejaVuSans-72"/>
      <use x="423.980469" xlink:href="#DejaVuSans-101"/>
      <use x="485.503906" xlink:href="#DejaVuSans-97"/>
      <use x="546.783203" xlink:href="#DejaVuSans-118"/>
      <use x="605.962891" xlink:href="#DejaVuSans-121"/>
      <use x="665.142578" xlink:href="#DejaVuSans-32"/>
      <use x="696.929688" xlink:href="#DejaVuSans-45"/>
      <use x="733.013672" xlink:href="#DejaVuSans-32"/>
      <use x="764.800781" xlink:href="#DejaVuSans-66"/>
      <use x="833.404297" xlink:href="#DejaVuSans-111"/>
      <use x="894.585938" xlink:href="#DejaVuSans-111"/>
      <use x="955.767578" xlink:href="#DejaVuSans-115"/>
      <use x="1007.867188" xlink:href="#DejaVuSans-116"/>
      <use x="1047.076172" xlink:href="#DejaVuSans-101"/>
      <use x="1108.599609" xlink:href="#DejaVuSans-114"/>
      <use x="1149.712891" xlink:href="#DejaVuSans-115"/>
     </g>
    </g>
    <g id="line2d_51">
     <path d="M 583.735937 155.609063 
L 603.735937 155.609063 
" style="fill:none;stroke:#009900;stroke-dasharray:9.6,2.4,1.5,2.4;stroke-dashoffset:0;stroke-width:1.5;"/>
    </g>
    <g id="line2d_52"/>
    <g id="text_24">
     <!-- Falcon Heavy - Second Stage -->
     <g transform="translate(611.735937 159.109063)scale(0.1 -0.1)">
      <use xlink:href="#DejaVuSans-70"/>
      <use x="48.394531" xlink:href="#DejaVuSans-97"/>
      <use x="109.673828" xlink:href="#DejaVuSans-108"/>
      <use x="137.457031" xlink:href="#DejaVuSans-99"/>
      <use x="192.4375" xlink:href="#DejaVuSans-111"/>
      <use x="253.619141" xlink:href="#DejaVuSans-110"/>
      <use x="316.998047" xlink:href="#DejaVuSans-32"/>
      <use x="348.785156" xlink:href="#DejaVuSans-72"/>
      <use x="423.980469" xlink:href="#DejaVuSans-101"/>
      <use x="485.503906" xlink:href="#DejaVuSans-97"/>
      <use x="546.783203" xlink:href="#DejaVuSans-118"/>
      <use x="605.962891" xlink:href="#DejaVuSans-121"/>
      <use x="665.142578" xlink:href="#DejaVuSans-32"/>
      <use x="696.929688" xlink:href="#DejaVuSans-45"/>
      <use x="733.013672" xlink:href="#DejaVuSans-32"/>
      <use x="764.800781" xlink:href="#DejaVuSans-83"/>
      <use x="828.277344" xlink:href="#DejaVuSans-101"/>
      <use x="889.800781" xlink:href="#DejaVuSans-99"/>
      <use x="944.78125" xlink:href="#DejaVuSans-111"/>
      <use x="1005.962891" xlink:href="#DejaVuSans-110"/>
      <use x="1069.341797" xlink:href="#DejaVuSans-100"/>
      <use x="1132.818359" xlink:href="#DejaVuSans-32"/>
      <use x="1164.605469" xlink:href="#DejaVuSans-83"/>
      <use x="1228.082031" xlink:href="#DejaVuSans-116"/>
      <use x="1267.291016" xlink:href="#DejaVuSans-97"/>
      <use x="1328.570312" xlink:href="#DejaVuSans-103"/>
      <use x="1392.046875" xlink:href="#DejaVuSans-101"/>
     </g>
    </g>
    <g id="line2d_53">
     <path d="M 583.735937 170.287188 
L 603.735937 170.287188 
" style="fill:none;stroke:#003399;stroke-linecap:square;stroke-width:1.5;"/>
    </g>
    <g id="line2d_54"/>
    <g id="text_25">
     <!-- Saturn V - 1st Stage -->
     <defs>
      <path d="M 28.609375 0 
L 0.78125 72.90625 
L 11.078125 72.90625 
L 34.1875 11.53125 
L 57.328125 72.90625 
L 67.578125 72.90625 
L 39.796875 0 
z
" id="DejaVuSans-86"/>
     </defs>
     <g transform="translate(611.735937 173.787188)scale(0.1 -0.1)">
      <use xlink:href="#DejaVuSans-83"/>
      <use x="63.476562" xlink:href="#DejaVuSans-97"/>
      <use x="124.755859" xlink:href="#DejaVuSans-116"/>
      <use x="163.964844" xlink:href="#DejaVuSans-117"/>
      <use x="227.34375" xlink:href="#DejaVuSans-114"/>
      <use x="266.707031" xlink:href="#DejaVuSans-110"/>
      <use x="330.085938" xlink:href="#DejaVuSans-32"/>
      <use x="361.873047" xlink:href="#DejaVuSans-86"/>
      <use x="430.28125" xlink:href="#DejaVuSans-32"/>
      <use x="462.068359" xlink:href="#DejaVuSans-45"/>
      <use x="498.152344" xlink:href="#DejaVuSans-32"/>
      <use x="529.939453" xlink:href="#DejaVuSans-49"/>
      <use x="593.5625" xlink:href="#DejaVuSans-115"/>
      <use x="645.662109" xlink:href="#DejaVuSans-116"/>
      <use x="684.871094" xlink:href="#DejaVuSans-32"/>
      <use x="716.658203" xlink:href="#DejaVuSans-83"/>
      <use x="780.134766" xlink:href="#DejaVuSans-116"/>
      <use x="819.34375" xlink:href="#DejaVuSans-97"/>
      <use x="880.623047" xlink:href="#DejaVuSans-103"/>
      <use x="944.099609" xlink:href="#DejaVuSans-101"/>
     </g>
    </g>
    <g id="line2d_55">
     <path d="M 583.735937 184.965313 
L 603.735937 184.965313 
" style="fill:none;stroke:#003399;stroke-dasharray:5.55,2.4;stroke-dashoffset:0;stroke-width:1.5;"/>
    </g>
    <g id="line2d_56"/>
    <g id="text_26">
     <!-- Saturn V - 2nd Stage -->
     <g transform="translate(611.735937 188.465313)scale(0.1 -0.1)">
      <use xlink:href="#DejaVuSans-83"/>
      <use x="63.476562" xlink:href="#DejaVuSans-97"/>
      <use x="124.755859" xlink:href="#DejaVuSans-116"/>
      <use x="163.964844" xlink:href="#DejaVuSans-117"/>
      <use x="227.34375" xlink:href="#DejaVuSans-114"/>
      <use x="266.707031" xlink:href="#DejaVuSans-110"/>
      <use x="330.085938" xlink:href="#DejaVuSans-32"/>
      <use x="361.873047" xlink:href="#DejaVuSans-86"/>
      <use x="430.28125" xlink:href="#DejaVuSans-32"/>
      <use x="462.068359" xlink:href="#DejaVuSans-45"/>
      <use x="498.152344" xlink:href="#DejaVuSans-32"/>
      <use x="529.939453" xlink:href="#DejaVuSans-50"/>
      <use x="593.5625" xlink:href="#DejaVuSans-110"/>
      <use x="656.941406" xlink:href="#DejaVuSans-100"/>
      <use x="720.417969" xlink:href="#DejaVuSans-32"/>
      <use x="752.205078" xlink:href="#DejaVuSans-83"/>
      <use x="815.681641" xlink:href="#DejaVuSans-116"/>
      <use x="854.890625" xlink:href="#DejaVuSans-97"/>
      <use x="916.169922" xlink:href="#DejaVuSans-103"/>
      <use x="979.646484" xlink:href="#DejaVuSans-101"/>
     </g>
    </g>
    <g id="line2d_57">
     <path d="M 583.735937 199.643438 
L 603.735937 199.643438 
" style="fill:none;stroke:#003399;stroke-dasharray:9.6,2.4,1.5,2.4;stroke-dashoffset:0;stroke-width:1.5;"/>
    </g>
    <g id="line2d_58"/>
    <g id="text_27">
     <!-- Saturn V - 3rd Stage - 1st burn -->
     <defs>
      <path d="M 48.6875 27.296875 
Q 48.6875 37.203125 44.609375 42.84375 
Q 40.53125 48.484375 33.40625 48.484375 
Q 26.265625 48.484375 22.1875 42.84375 
Q 18.109375 37.203125 18.109375 27.296875 
Q 18.109375 17.390625 22.1875 11.75 
Q 26.265625 6.109375 33.40625 6.109375 
Q 40.53125 6.109375 44.609375 11.75 
Q 48.6875 17.390625 48.6875 27.296875 
z
M 18.109375 46.390625 
Q 20.953125 51.265625 25.265625 53.625 
Q 29.59375 56 35.59375 56 
Q 45.5625 56 51.78125 48.09375 
Q 58.015625 40.1875 58.015625 27.296875 
Q 58.015625 14.40625 51.78125 6.484375 
Q 45.5625 -1.421875 35.59375 -1.421875 
Q 29.59375 -1.421875 25.265625 0.953125 
Q 20.953125 3.328125 18.109375 8.203125 
L 18.109375 0 
L 9.078125 0 
L 9.078125 75.984375 
L 18.109375 75.984375 
z
" id="DejaVuSans-98"/>
     </defs>
     <g transform="translate(611.735937 203.143438)scale(0.1 -0.1)">
      <use xlink:href="#DejaVuSans-83"/>
      <use x="63.476562" xlink:href="#DejaVuSans-97"/>
      <use x="124.755859" xlink:href="#DejaVuSans-116"/>
      <use x="163.964844" xlink:href="#DejaVuSans-117"/>
      <use x="227.34375" xlink:href="#DejaVuSans-114"/>
      <use x="266.707031" xlink:href="#DejaVuSans-110"/>
      <use x="330.085938" xlink:href="#DejaVuSans-32"/>
      <use x="361.873047" xlink:href="#DejaVuSans-86"/>
      <use x="430.28125" xlink:href="#DejaVuSans-32"/>
      <use x="462.068359" xlink:href="#DejaVuSans-45"/>
      <use x="498.152344" xlink:href="#DejaVuSans-32"/>
      <use x="529.939453" xlink:href="#DejaVuSans-51"/>
      <use x="593.5625" xlink:href="#DejaVuSans-114"/>
      <use x="632.925781" xlink:href="#DejaVuSans-100"/>
      <use x="696.402344" xlink:href="#DejaVuSans-32"/>
      <use x="728.189453" xlink:href="#DejaVuSans-83"/>
      <use x="791.666016" xlink:href="#DejaVuSans-116"/>
      <use x="830.875" xlink:href="#DejaVuSans-97"/>
      <use x="892.154297" xlink:href="#DejaVuSans-103"/>
      <use x="955.630859" xlink:href="#DejaVuSans-101"/>
      <use x="1017.154297" xlink:href="#DejaVuSans-32"/>
      <use x="1048.941406" xlink:href="#DejaVuSans-45"/>
      <use x="1085.025391" xlink:href="#DejaVuSans-32"/>
      <use x="1116.8125" xlink:href="#DejaVuSans-49"/>
      <use x="1180.435547" xlink:href="#DejaVuSans-115"/>
      <use x="1232.535156" xlink:href="#DejaVuSans-116"/>
      <use x="1271.744141" xlink:href="#DejaVuSans-32"/>
      <use x="1303.53125" xlink:href="#DejaVuSans-98"/>
      <use x="1367.007812" xlink:href="#DejaVuSans-117"/>
      <use x="1430.386719" xlink:href="#DejaVuSans-114"/>
      <use x="1469.75" xlink:href="#DejaVuSans-110"/>
     </g>
    </g>
    <g id="line2d_59">
     <path d="M 583.735937 214.321563 
L 603.735937 214.321563 
" style="fill:none;stroke:#003399;stroke-dasharray:1.5,2.475;stroke-dashoffset:0;stroke-width:1.5;"/>
    </g>
    <g id="line2d_60"/>
    <g id="text_28">
     <!-- Saturn V - 3rd Stage - 2nd burn -->
     <g transform="translate(611.735937 217.821563)scale(0.1 -0.1)">
      <use xlink:href="#DejaVuSans-83"/>
      <use x="63.476562" xlink:href="#DejaVuSans-97"/>
      <use x="124.755859" xlink:href="#DejaVuSans-116"/>
      <use x="163.964844" xlink:href="#DejaVuSans-117"/>
      <use x="227.34375" xlink:href="#DejaVuSans-114"/>
      <use x="266.707031" xlink:href="#DejaVuSans-110"/>
      <use x="330.085938" xlink:href="#DejaVuSans-32"/>
      <use x="361.873047" xlink:href="#DejaVuSans-86"/>
      <use x="430.28125" xlink:href="#DejaVuSans-32"/>
      <use x="462.068359" xlink:href="#DejaVuSans-45"/>
      <use x="498.152344" xlink:href="#DejaVuSans-32"/>
      <use x="529.939453" xlink:href="#DejaVuSans-51"/>
      <use x="593.5625" xlink:href="#DejaVuSans-114"/>
      <use x="632.925781" xlink:href="#DejaVuSans-100"/>
      <use x="696.402344" xlink:href="#DejaVuSans-32"/>
      <use x="728.189453" xlink:href="#DejaVuSans-83"/>
      <use x="791.666016" xlink:href="#DejaVuSans-116"/>
      <use x="830.875" xlink:href="#DejaVuSans-97"/>
      <use x="892.154297" xlink:href="#DejaVuSans-103"/>
      <use x="955.630859" xlink:href="#DejaVuSans-101"/>
      <use x="1017.154297" xlink:href="#DejaVuSans-32"/>
      <use x="1048.941406" xlink:href="#DejaVuSans-45"/>
      <use x="1085.025391" xlink:href="#DejaVuSans-32"/>
      <use x="1116.8125" xlink:href="#DejaVuSans-50"/>
      <use x="1180.435547" xlink:href="#DejaVuSans-110"/>
      <use x="1243.814453" xlink:href="#DejaVuSans-100"/>
      <use x="1307.291016" xlink:href="#DejaVuSans-32"/>
      <use x="1339.078125" xlink:href="#DejaVuSans-98"/>
      <use x="1402.554688" xlink:href="#DejaVuSans-117"/>
      <use x="1465.933594" xlink:href="#DejaVuSans-114"/>
      <use x="1505.296875" xlink:href="#DejaVuSans-110"/>
     </g>
    </g>
   </g>
  </g>
 </g>
 <defs>
  <clipPath id="p4165ac09fd">
   <rect height="443.52" width="669.6" x="108" y="69.12"/>
  </clipPath>
 </defs>
</svg>
