<?xml version="1.0" encoding="utf-8" standalone="no"?>
<!DOCTYPE svg PUBLIC "-//W3C//DTD SVG 1.1//EN"
  "http://www.w3.org/Graphics/SVG/1.1/DTD/svg11.dtd">
<!-- Created with matplotlib (https://matplotlib.org/) -->
<svg height="576pt" version="1.1" viewBox="0 0 1440 576" width="1440pt" xmlns="http://www.w3.org/2000/svg" xmlns:xlink="http://www.w3.org/1999/xlink">
 <defs>
  <style type="text/css">
*{stroke-linecap:butt;stroke-linejoin:round;}
  </style>
 </defs>
 <g id="figure_1">
  <g id="patch_1">
   <path d="M 0 576 
L 1440 576 
L 1440 0 
L 0 0 
z
" style="fill:#ffffff;"/>
  </g>
  <g id="axes_1">
   <g id="line2d_1">
    <path clip-path="url(#pa41b550220)" d="M 295.218772 70.797552 
L 358.011693 70.797552 
L 358.011693 107.916236 
" style="fill:none;stroke:#000000;stroke-linecap:square;stroke-width:1.5;"/>
   </g>
   <g id="line2d_2">
    <path clip-path="url(#pa41b550220)" d="M 295.218772 70.797552 
L 232.425851 70.797552 
L 232.425851 107.916236 
" style="fill:none;stroke:#000000;stroke-linecap:square;stroke-width:1.5;"/>
   </g>
   <g id="line2d_3">
    <path clip-path="url(#pa41b550220)" d="M 348.939742 129.992332 
L 349.288227 129.634271 
L 349.63097 129.27071 
L 349.967884 128.901741 
L 350.298883 128.527457 
L 350.623884 128.147952 
L 350.942805 127.763324 
L 351.255565 127.37367 
L 351.562084 126.979088 
L 351.862285 126.579677 
L 352.156092 126.17554 
L 352.443431 125.766779 
L 352.724228 125.353497 
L 352.998413 124.935798 
L 353.265916 124.51379 
L 353.526669 124.087577 
L 353.780607 123.65727 
L 354.027665 123.222975 
L 354.26778 122.784804 
L 354.500892 122.342867 
L 354.726942 121.897277 
L 354.945872 121.448146 
L 355.157627 120.995587 
L 355.362153 120.539716 
L 355.559399 120.080648 
L 355.749315 119.6185 
L 355.931851 119.153387 
L 356.106963 118.685429 
L 356.274606 118.214743 
L 356.434738 117.741449 
L 356.587317 117.265667 
L 356.732306 116.787517 
L 356.869667 116.30712 
L 356.999365 115.824598 
L 357.121369 115.340073 
L 357.235646 114.853668 
L 357.342169 114.365506 
L 357.44091 113.87571 
L 357.531843 113.384406 
L 357.614947 112.891716 
L 357.6902 112.397766 
L 357.757582 111.902682 
L 357.817078 111.406587 
L 357.868671 110.909609 
L 357.912349 110.411873 
L 357.948101 109.913504 
L 357.975917 109.41463 
L 357.995791 108.915376 
L 358.007717 108.415869 
L 358.011693 107.916236 
" style="fill:none;stroke:#000000;stroke-linecap:square;stroke-width:1.5;"/>
   </g>
   <g id="line2d_4">
    <path clip-path="url(#pa41b550220)" d="M 241.497802 129.992332 
L 241.149317 129.634271 
L 240.806574 129.27071 
L 240.46966 128.901741 
L 240.138661 128.527457 
L 239.813659 128.147952 
L 239.494738 127.763324 
L 239.181979 127.37367 
L 238.87546 126.979088 
L 238.575258 126.579677 
L 238.281451 126.17554 
L 237.994113 125.766779 
L 237.713316 125.353497 
L 237.439131 124.935798 
L 237.171628 124.51379 
L 236.910874 124.087577 
L 236.656937 123.65727 
L 236.409879 123.222975 
L 236.169763 122.784804 
L 235.936651 122.342867 
L 235.710602 121.897277 
L 235.491672 121.448146 
L 235.279917 120.995587 
L 235.07539 120.539716 
L 234.878145 120.080648 
L 234.688229 119.6185 
L 234.505692 119.153387 
L 234.33058 118.685429 
L 234.162937 118.214743 
L 234.002806 117.741449 
L 233.850227 117.265667 
L 233.705238 116.787517 
L 233.567877 116.30712 
L 233.438178 115.824598 
L 233.316175 115.340073 
L 233.201897 114.853668 
L 233.095375 114.365506 
L 232.996634 113.87571 
L 232.9057 113.384406 
L 232.822597 112.891716 
L 232.747344 112.397766 
L 232.679961 111.902682 
L 232.620466 111.406587 
L 232.568873 110.909609 
L 232.525195 110.411873 
L 232.489443 109.913504 
L 232.461627 109.41463 
L 232.441753 108.915376 
L 232.429827 108.415869 
L 232.425851 107.916236 
" style="fill:none;stroke:#000000;stroke-linecap:square;stroke-width:1.5;"/>
   </g>
   <g id="line2d_5">
    <path clip-path="url(#pa41b550220)" d="M 348.939742 129.992332 
L 347.351548 131.665724 
L 345.833352 133.402872 
L 344.387712 135.20085 
L 343.017061 137.05663 
L 341.723708 138.967085 
L 340.509832 140.928999 
L 339.377477 142.939067 
L 338.32855 144.993904 
L 337.364818 147.090049 
L 336.487904 149.223971 
L 335.699285 151.392076 
L 335.000289 153.590714 
L 334.392094 155.81618 
L 333.875723 158.064727 
L 333.452047 160.332567 
L 333.121779 162.615882 
L 332.885474 164.910824 
L 332.743533 167.21353 
L 332.696192 169.520121 
" style="fill:none;stroke:#000000;stroke-linecap:square;stroke-width:1.5;"/>
   </g>
   <g id="line2d_6">
    <path clip-path="url(#pa41b550220)" d="M 241.497802 129.992332 
L 243.085996 131.665724 
L 244.604191 133.402872 
L 246.049832 135.20085 
L 247.420483 137.05663 
L 248.713836 138.967085 
L 249.927712 140.928999 
L 251.060067 142.939067 
L 252.108993 144.993904 
L 253.072725 147.090049 
L 253.949639 149.223971 
L 254.738258 151.392076 
L 255.437254 153.590714 
L 256.04545 155.81618 
L 256.561821 158.064727 
L 256.985497 160.332567 
L 257.315765 162.615882 
L 257.552069 164.910824 
L 257.694011 167.21353 
L 257.741352 169.520121 
" style="fill:none;stroke:#000000;stroke-linecap:square;stroke-width:1.5;"/>
   </g>
   <g id="line2d_7">
    <path clip-path="url(#pa41b550220)" d="M 332.696192 169.520121 
L 332.696807 169.652764 
L 332.69865 169.785397 
L 332.701722 169.918006 
L 332.706023 170.050582 
L 332.711552 170.183112 
L 332.718308 170.315584 
L 332.726292 170.447989 
L 332.735502 170.580314 
L 332.745938 170.712548 
L 332.757598 170.84468 
L 332.770482 170.976698 
L 332.784589 171.10859 
L 332.799917 171.240347 
L 332.816466 171.371956 
L 332.834232 171.503406 
L 332.853216 171.634685 
L 332.873416 171.765783 
L 332.894829 171.896689 
L 332.917455 172.02739 
L 332.94129 172.157876 
L 332.966333 172.288136 
L 332.992582 172.418157 
L 333.020035 172.547931 
L 333.048689 172.677444 
L 333.078541 172.806686 
L 333.10959 172.935646 
L 333.141832 173.064313 
L 333.175265 173.192676 
L 333.209886 173.320723 
L 333.245691 173.448444 
L 333.282679 173.575828 
L 333.320845 173.702864 
L 333.360187 173.829541 
L 333.4007 173.955847 
L 333.442382 174.081773 
L 333.485229 174.207307 
L 333.529237 174.332439 
L 333.574403 174.457158 
L 333.620722 174.581453 
L 333.668191 174.705314 
L 333.716806 174.828729 
L 333.766562 174.951689 
L 333.817455 175.074182 
L 333.86948 175.196199 
L 333.922634 175.317728 
L 333.976912 175.43876 
L 334.032309 175.559283 
L 334.08882 175.679288 
L 334.14644 175.798765 
" style="fill:none;stroke:#000000;stroke-linecap:square;stroke-width:1.5;"/>
   </g>
   <g id="line2d_8">
    <path clip-path="url(#pa41b550220)" d="M 257.741352 169.520121 
L 257.740737 169.652764 
L 257.738894 169.785397 
L 257.735821 169.918006 
L 257.731521 170.050582 
L 257.725992 170.183112 
L 257.719235 170.315584 
L 257.711252 170.447989 
L 257.702042 170.580314 
L 257.691606 170.712548 
L 257.679945 170.84468 
L 257.667061 170.976698 
L 257.652955 171.10859 
L 257.637626 171.240347 
L 257.621078 171.371956 
L 257.603311 171.503406 
L 257.584327 171.634685 
L 257.564128 171.765783 
L 257.542714 171.896689 
L 257.520089 172.02739 
L 257.496254 172.157876 
L 257.471211 172.288136 
L 257.444962 172.418157 
L 257.417509 172.547931 
L 257.388855 172.677444 
L 257.359003 172.806686 
L 257.327954 172.935646 
L 257.295712 173.064313 
L 257.262279 173.192676 
L 257.227658 173.320723 
L 257.191852 173.448444 
L 257.154865 173.575828 
L 257.116699 173.702864 
L 257.077357 173.829541 
L 257.036844 173.955847 
L 256.995162 174.081773 
L 256.952315 174.207307 
L 256.908306 174.332439 
L 256.863141 174.457158 
L 256.816821 174.581453 
L 256.769352 174.705314 
L 256.720738 174.828729 
L 256.670982 174.951689 
L 256.620089 175.074182 
L 256.568063 175.196199 
L 256.514909 175.317728 
L 256.460632 175.43876 
L 256.405235 175.559283 
L 256.348724 175.679288 
L 256.291103 175.798765 
" style="fill:none;stroke:#000000;stroke-linecap:square;stroke-width:1.5;"/>
   </g>
   <g id="line2d_9">
    <path clip-path="url(#pa41b550220)" d="M 334.14644 175.798765 
L 337.58977 182.897272 
L 340.984 189.980112 
L 344.329131 197.047287 
L 347.625162 204.098796 
L 350.872093 211.134639 
L 354.069925 218.154816 
L 357.218657 225.159328 
L 360.31829 232.148173 
L 363.368823 239.121352 
L 366.370256 246.078865 
L 369.32259 253.020713 
L 372.225824 259.946894 
L 375.079958 266.857409 
L 377.884993 273.752259 
L 380.640928 280.631443 
L 383.347764 287.49496 
L 386.0055 294.342812 
L 388.614136 301.174998 
L 391.173673 307.991517 
L 393.68411 314.792371 
L 396.145448 321.577559 
L 398.557685 328.347081 
L 400.920824 335.100937 
L 403.234862 341.839127 
L 405.499801 348.561651 
L 407.715641 355.26851 
L 409.882381 361.959702 
L 412.000021 368.635228 
L 414.068561 375.295089 
L 416.088002 381.939283 
L 418.058344 388.567812 
L 419.979585 395.180674 
L 421.851727 401.777871 
L 423.67477 408.359401 
L 425.448713 414.925266 
L 427.173556 421.475465 
L 428.8493 428.009998 
L 430.475944 434.528865 
L 432.053488 441.032066 
L 433.581933 447.519601 
L 435.061278 453.99147 
L 436.491523 460.447673 
L 437.872669 466.88821 
L 439.204716 473.313081 
L 440.487662 479.722287 
L 441.721509 486.115826 
L 442.906257 492.493699 
L 444.041905 498.855907 
L 445.128453 505.202448 
" style="fill:none;stroke:#000000;stroke-linecap:square;stroke-width:1.5;"/>
   </g>
   <g id="line2d_10">
    <path clip-path="url(#pa41b550220)" d="M 256.291103 175.798765 
L 252.847774 182.897272 
L 249.453543 189.980112 
L 246.108413 197.047287 
L 242.812382 204.098796 
L 239.56545 211.134639 
L 236.367619 218.154816 
L 233.218886 225.159328 
L 230.119254 232.148173 
L 227.068721 239.121352 
L 224.067288 246.078865 
L 221.114954 253.020713 
L 218.21172 259.946894 
L 215.357586 266.857409 
L 212.552551 273.752259 
L 209.796615 280.631443 
L 207.08978 287.49496 
L 204.432044 294.342812 
L 201.823408 301.174998 
L 199.263871 307.991517 
L 196.753434 314.792371 
L 194.292096 321.577559 
L 191.879858 328.347081 
L 189.51672 335.100937 
L 187.202681 341.839127 
L 184.937742 348.561651 
L 182.721903 355.26851 
L 180.555163 361.959702 
L 178.437523 368.635228 
L 176.368982 375.295089 
L 174.349541 381.939283 
L 172.3792 388.567812 
L 170.457958 395.180674 
L 168.585816 401.777871 
L 166.762774 408.359401 
L 164.988831 414.925266 
L 163.263988 421.475465 
L 161.588244 428.009998 
L 159.9616 434.528865 
L 158.384056 441.032066 
L 156.855611 447.519601 
L 155.376266 453.99147 
L 153.94602 460.447673 
L 152.564874 466.88821 
L 151.232828 473.313081 
L 149.949881 479.722287 
L 148.716034 486.115826 
L 147.531287 492.493699 
L 146.395639 498.855907 
L 145.309091 505.202448 
" style="fill:none;stroke:#000000;stroke-linecap:square;stroke-width:1.5;"/>
   </g>
   <g id="line2d_11">
    <path clip-path="url(#pa41b550220)" d="M 596.786129 134.583721 
L 613.105501 134.583721 
L 613.105501 160.952657 
" style="fill:none;stroke:#000000;stroke-linecap:square;stroke-width:1.5;"/>
   </g>
   <g id="line2d_12">
    <path clip-path="url(#pa41b550220)" d="M 596.786129 134.583721 
L 580.466757 134.583721 
L 580.466757 160.952657 
" style="fill:none;stroke:#000000;stroke-linecap:square;stroke-width:1.5;"/>
   </g>
   <g id="line2d_13">
    <path clip-path="url(#pa41b550220)" d="M 610.102248 168.203152 
L 610.217526 168.08601 
L 610.330912 167.967037 
L 610.442377 167.846261 
L 610.551892 167.723714 
L 610.659428 167.599427 
L 610.764958 167.473433 
L 610.868456 167.345764 
L 610.969894 167.216452 
L 611.069246 167.085531 
L 611.166487 166.953035 
L 611.261593 166.818997 
L 611.354537 166.683452 
L 611.445297 166.546434 
L 611.533849 166.40798 
L 611.620171 166.268124 
L 611.70424 166.126902 
L 611.786035 165.984351 
L 611.865535 165.840507 
L 611.942719 165.695408 
L 612.017567 165.54909 
L 612.090061 165.401591 
L 612.160181 165.25295 
L 612.22791 165.103203 
L 612.293229 164.95239 
L 612.356124 164.80055 
L 612.416576 164.647721 
L 612.474572 164.493943 
L 612.530095 164.339255 
L 612.583131 164.183697 
L 612.633668 164.027309 
L 612.681691 163.870131 
L 612.72719 163.712204 
L 612.770151 163.553567 
L 612.810564 163.394262 
L 612.848418 163.23433 
L 612.883704 163.073812 
L 612.916413 162.912749 
L 612.946536 162.751183 
L 612.974066 162.589154 
L 612.998995 162.426705 
L 613.021318 162.263877 
L 613.041027 162.100712 
L 613.058119 161.937253 
L 613.072589 161.77354 
L 613.084433 161.609617 
L 613.093649 161.445525 
L 613.100233 161.281306 
L 613.104184 161.117002 
L 613.105501 160.952657 
" style="fill:none;stroke:#000000;stroke-linecap:square;stroke-width:1.5;"/>
   </g>
   <g id="line2d_14">
    <path clip-path="url(#pa41b550220)" d="M 583.47001 168.203152 
L 583.354732 168.08601 
L 583.241346 167.967037 
L 583.129881 167.846261 
L 583.020366 167.723714 
L 582.91283 167.599427 
L 582.8073 167.473433 
L 582.703802 167.345764 
L 582.602364 167.216452 
L 582.503012 167.085531 
L 582.40577 166.953035 
L 582.310665 166.818997 
L 582.217721 166.683452 
L 582.126961 166.546434 
L 582.038408 166.40798 
L 581.952087 166.268124 
L 581.868017 166.126902 
L 581.786223 165.984351 
L 581.706723 165.840507 
L 581.629539 165.695408 
L 581.554691 165.54909 
L 581.482197 165.401591 
L 581.412077 165.25295 
L 581.344348 165.103203 
L 581.279028 164.95239 
L 581.216134 164.80055 
L 581.155682 164.647721 
L 581.097686 164.493943 
L 581.042163 164.339255 
L 580.989127 164.183697 
L 580.93859 164.027309 
L 580.890566 163.870131 
L 580.845068 163.712204 
L 580.802107 163.553567 
L 580.761694 163.394262 
L 580.72384 163.23433 
L 580.688554 163.073812 
L 580.655845 162.912749 
L 580.625722 162.751183 
L 580.598192 162.589154 
L 580.573263 162.426705 
L 580.55094 162.263877 
L 580.53123 162.100712 
L 580.514138 161.937253 
L 580.499669 161.77354 
L 580.487824 161.609617 
L 580.478609 161.445525 
L 580.472025 161.281306 
L 580.468074 161.117002 
L 580.466757 160.952657 
" style="fill:none;stroke:#000000;stroke-linecap:square;stroke-width:1.5;"/>
   </g>
   <g id="line2d_15">
    <path clip-path="url(#pa41b550220)" d="M 610.102248 168.203152 
L 609.705119 168.617045 
L 609.325433 169.046997 
L 608.963839 169.492272 
L 608.620956 169.95211 
L 608.297368 170.425724 
L 607.993628 170.912306 
L 607.710256 171.411024 
L 607.447736 171.921027 
L 607.206515 172.441442 
L 606.987007 172.971382 
L 606.789586 173.50994 
L 606.61459 174.056196 
L 606.462317 174.609218 
L 606.333028 175.168059 
L 606.226944 175.731766 
L 606.144245 176.299376 
L 606.085073 176.869918 
L 606.04953 177.442418 
L 606.037675 178.015898 
" style="fill:none;stroke:#000000;stroke-linecap:square;stroke-width:1.5;"/>
   </g>
   <g id="line2d_16">
    <path clip-path="url(#pa41b550220)" d="M 583.47001 168.203152 
L 583.867139 168.617045 
L 584.246825 169.046997 
L 584.608418 169.492272 
L 584.951302 169.95211 
L 585.27489 170.425724 
L 585.57863 170.912306 
L 585.862002 171.411024 
L 586.124522 171.921027 
L 586.365742 172.441442 
L 586.585251 172.971382 
L 586.782671 173.50994 
L 586.957668 174.056196 
L 587.109941 174.609218 
L 587.23923 175.168059 
L 587.345314 175.731766 
L 587.428013 176.299376 
L 587.487185 176.869918 
L 587.522728 177.442418 
L 587.534583 178.015898 
" style="fill:none;stroke:#000000;stroke-linecap:square;stroke-width:1.5;"/>
   </g>
   <g id="line2d_17">
    <path clip-path="url(#pa41b550220)" d="M 606.037675 178.015898 
L 606.037934 178.058667 
L 606.03871 178.101429 
L 606.040004 178.144179 
L 606.041815 178.18691 
L 606.044143 178.229616 
L 606.046988 178.272291 
L 606.050349 178.314928 
L 606.054225 178.357521 
L 606.058617 178.400065 
L 606.063524 178.442552 
L 606.068944 178.484976 
L 606.074877 178.527332 
L 606.081322 178.569613 
L 606.088279 178.611813 
L 606.095745 178.653926 
L 606.103721 178.695945 
L 606.112205 178.737865 
L 606.121195 178.779679 
L 606.130691 178.821381 
L 606.140691 178.862965 
L 606.151193 178.904424 
L 606.162196 178.945754 
L 606.173699 178.986948 
L 606.185699 179.027999 
L 606.198195 179.068903 
L 606.211185 179.109652 
L 606.224668 179.15024 
L 606.23864 179.190663 
L 606.253101 179.230914 
L 606.268048 179.270986 
L 606.283479 179.310875 
L 606.299391 179.350574 
L 606.315783 179.390078 
L 606.332651 179.42938 
L 606.349994 179.468476 
L 606.367808 179.507359 
L 606.386092 179.546023 
L 606.404843 179.584463 
L 606.424057 179.622673 
L 606.443732 179.660649 
L 606.463866 179.698383 
L 606.484454 179.735871 
L 606.505495 179.773106 
L 606.526985 179.810085 
L 606.548921 179.846801 
L 606.571299 179.883248 
L 606.594117 179.919423 
L 606.617371 179.955318 
L 606.641058 179.990929 
" style="fill:none;stroke:#000000;stroke-linecap:square;stroke-width:1.5;"/>
   </g>
   <g id="line2d_18">
    <path clip-path="url(#pa41b550220)" d="M 587.534583 178.015898 
L 587.534324 178.058667 
L 587.533548 178.101429 
L 587.532254 178.144179 
L 587.530443 178.18691 
L 587.528115 178.229616 
L 587.52527 178.272291 
L 587.521909 178.314928 
L 587.518033 178.357521 
L 587.513641 178.400065 
L 587.508734 178.442552 
L 587.503314 178.484976 
L 587.497381 178.527332 
L 587.490936 178.569613 
L 587.483979 178.611813 
L 587.476513 178.653926 
L 587.468537 178.695945 
L 587.460053 178.737865 
L 587.451063 178.779679 
L 587.441567 178.821381 
L 587.431567 178.862965 
L 587.421065 178.904424 
L 587.410062 178.945754 
L 587.398559 178.986948 
L 587.386559 179.027999 
L 587.374063 179.068903 
L 587.361073 179.109652 
L 587.34759 179.15024 
L 587.333617 179.190663 
L 587.319157 179.230914 
L 587.30421 179.270986 
L 587.288779 179.310875 
L 587.272867 179.350574 
L 587.256475 179.390078 
L 587.239607 179.42938 
L 587.222264 179.468476 
L 587.204449 179.507359 
L 587.186166 179.546023 
L 587.167415 179.584463 
L 587.148201 179.622673 
L 587.128526 179.660649 
L 587.108392 179.698383 
L 587.087804 179.735871 
L 587.066763 179.773106 
L 587.045273 179.810085 
L 587.023337 179.846801 
L 587.000959 179.883248 
L 586.978141 179.919423 
L 586.954887 179.955318 
L 586.9312 179.990929 
" style="fill:none;stroke:#000000;stroke-linecap:square;stroke-width:1.5;"/>
   </g>
   <g id="line2d_19">
    <path clip-path="url(#pa41b550220)" d="M 606.641058 179.990929 
L 610.064218 185.138579 
L 613.437419 190.348284 
L 616.760662 195.620044 
L 620.033946 200.953859 
L 623.257271 206.349729 
L 626.430637 211.807654 
L 629.554045 217.327633 
L 632.627493 222.909668 
L 635.650983 228.553758 
L 638.624515 234.259903 
L 641.548087 240.028103 
L 644.421701 245.858358 
L 647.245356 251.750668 
L 650.019052 257.705032 
L 652.742789 263.721452 
L 655.416568 269.799927 
L 658.040387 275.940457 
L 660.614248 282.143042 
L 663.138151 288.407682 
L 665.612094 294.734376 
L 668.036079 301.123126 
L 670.410105 307.573931 
L 672.734172 314.086791 
L 675.00828 320.661706 
L 677.23243 327.298675 
L 679.406621 333.9977 
L 681.530853 340.75878 
L 683.605126 347.581915 
L 685.629441 354.467104 
L 687.603797 361.414349 
L 689.528194 368.423649 
L 691.402632 375.495004 
L 693.227111 382.628413 
L 695.001632 389.823878 
L 696.726194 397.081398 
L 698.400797 404.400972 
L 700.025441 411.782602 
L 701.600127 419.226287 
L 703.124854 426.732027 
L 704.599622 434.299821 
L 706.024431 441.929671 
L 707.399282 449.621576 
L 708.724174 457.375535 
L 709.999107 465.19155 
L 711.224081 473.06962 
L 712.399096 481.009744 
L 713.524153 489.011924 
L 714.599251 497.076159 
L 715.62439 505.202448 
" style="fill:none;stroke:#000000;stroke-linecap:square;stroke-width:1.5;"/>
   </g>
   <g id="line2d_20">
    <path clip-path="url(#pa41b550220)" d="M 586.9312 179.990929 
L 583.50804 185.138579 
L 580.134839 190.348284 
L 576.811596 195.620044 
L 573.538312 200.953859 
L 570.314987 206.349729 
L 567.141621 211.807654 
L 564.018213 217.327633 
L 560.944765 222.909668 
L 557.921275 228.553758 
L 554.947743 234.259903 
L 552.024171 240.028103 
L 549.150557 245.858358 
L 546.326902 251.750668 
L 543.553206 257.705032 
L 540.829469 263.721452 
L 538.15569 269.799927 
L 535.531871 275.940457 
L 532.95801 282.143042 
L 530.434107 288.407682 
L 527.960164 294.734376 
L 525.536179 301.123126 
L 523.162153 307.573931 
L 520.838086 314.086791 
L 518.563978 320.661706 
L 516.339828 327.298675 
L 514.165637 333.9977 
L 512.041405 340.75878 
L 509.967132 347.581915 
L 507.942817 354.467104 
L 505.968461 361.414349 
L 504.044064 368.423649 
L 502.169626 375.495004 
L 500.345147 382.628413 
L 498.570626 389.823878 
L 496.846064 397.081398 
L 495.171461 404.400972 
L 493.546816 411.782602 
L 491.972131 419.226287 
L 490.447404 426.732027 
L 488.972636 434.299821 
L 487.547827 441.929671 
L 486.172976 449.621576 
L 484.848084 457.375535 
L 483.573151 465.19155 
L 482.348177 473.06962 
L 481.173162 481.009744 
L 480.048105 489.011924 
L 478.973007 497.076159 
L 477.947868 505.202448 
" style="fill:none;stroke:#000000;stroke-linecap:square;stroke-width:1.5;"/>
   </g>
   <g id="line2d_21">
    <path clip-path="url(#pa41b550220)" d="M 833.008273 244.765922 
L 852.68378 244.765922 
L 852.68378 265.078567 
" style="fill:none;stroke:#000000;stroke-linecap:square;stroke-width:1.5;"/>
   </g>
   <g id="line2d_22">
    <path clip-path="url(#pa41b550220)" d="M 833.008273 244.765922 
L 813.332767 244.765922 
L 813.332767 265.078567 
" style="fill:none;stroke:#000000;stroke-linecap:square;stroke-width:1.5;"/>
   </g>
   <g id="line2d_23">
    <path clip-path="url(#pa41b550220)" d="M 848.963015 274.061288 
L 849.105835 273.91616 
L 849.24631 273.768762 
L 849.384405 273.619132 
L 849.520084 273.467307 
L 849.653312 273.313327 
L 849.784055 273.157232 
L 849.912279 272.999061 
L 850.037952 272.838855 
L 850.16104 272.676656 
L 850.281514 272.512504 
L 850.39934 272.346443 
L 850.514491 272.178514 
L 850.626934 272.008762 
L 850.736643 271.837229 
L 850.843588 271.66396 
L 850.947742 271.488998 
L 851.049079 271.31239 
L 851.147572 271.134181 
L 851.243196 270.954416 
L 851.335926 270.773141 
L 851.425739 270.590403 
L 851.512612 270.406249 
L 851.596522 270.220726 
L 851.677447 270.033883 
L 851.755368 269.845766 
L 851.830263 269.656425 
L 851.902114 269.465907 
L 851.970902 269.274262 
L 852.03661 269.08154 
L 852.09922 268.887789 
L 852.158717 268.693059 
L 852.215085 268.497401 
L 852.26831 268.300865 
L 852.318378 268.1035 
L 852.365277 267.905359 
L 852.408993 267.706491 
L 852.449517 267.506948 
L 852.486837 267.306781 
L 852.520944 267.106042 
L 852.551829 266.904782 
L 852.579484 266.703053 
L 852.603903 266.500906 
L 852.625078 266.298394 
L 852.643005 266.095569 
L 852.657679 265.892482 
L 852.669096 265.689187 
L 852.677253 265.485734 
L 852.682148 265.282177 
L 852.68378 265.078567 
" style="fill:none;stroke:#000000;stroke-linecap:square;stroke-width:1.5;"/>
   </g>
   <g id="line2d_24">
    <path clip-path="url(#pa41b550220)" d="M 817.053532 274.061288 
L 816.910712 273.91616 
L 816.770237 273.768762 
L 816.632142 273.619132 
L 816.496463 273.467307 
L 816.363235 273.313327 
L 816.232492 273.157232 
L 816.104268 272.999061 
L 815.978595 272.838855 
L 815.855506 272.676656 
L 815.735033 272.512504 
L 815.617206 272.346443 
L 815.502056 272.178514 
L 815.389613 272.008762 
L 815.279904 271.837229 
L 815.172959 271.66396 
L 815.068805 271.488998 
L 814.967468 271.31239 
L 814.868975 271.134181 
L 814.773351 270.954416 
L 814.680621 270.773141 
L 814.590808 270.590403 
L 814.503935 270.406249 
L 814.420025 270.220726 
L 814.3391 270.033883 
L 814.261179 269.845766 
L 814.186284 269.656425 
L 814.114433 269.465907 
L 814.045644 269.274262 
L 813.979937 269.08154 
L 813.917326 268.887789 
L 813.857829 268.693059 
L 813.801461 268.497401 
L 813.748236 268.300865 
L 813.698168 268.1035 
L 813.65127 267.905359 
L 813.607554 267.706491 
L 813.56703 267.506948 
L 813.52971 267.306781 
L 813.495603 267.106042 
L 813.464718 266.904782 
L 813.437063 266.703053 
L 813.412644 266.500906 
L 813.391468 266.298394 
L 813.373542 266.095569 
L 813.358868 265.892482 
L 813.347451 265.689187 
L 813.339294 265.485734 
L 813.334399 265.282177 
L 813.332767 265.078567 
" style="fill:none;stroke:#000000;stroke-linecap:square;stroke-width:1.5;"/>
   </g>
   <g id="line2d_25">
    <path clip-path="url(#pa41b550220)" d="M 848.963015 274.061288 
L 848.487194 274.557196 
L 848.032272 275.072344 
L 847.599028 275.605851 
L 847.188201 276.156806 
L 846.800493 276.724269 
L 846.436567 277.307268 
L 846.097044 277.904809 
L 845.782505 278.51587 
L 845.493486 279.139407 
L 845.230482 279.774355 
L 844.993941 280.41963 
L 844.784269 281.074128 
L 844.601823 281.736732 
L 844.446915 282.40631 
L 844.319809 283.081717 
L 844.220724 283.7618 
L 844.149827 284.445396 
L 844.10724 285.131339 
L 844.093037 285.818455 
" style="fill:none;stroke:#000000;stroke-linecap:square;stroke-width:1.5;"/>
   </g>
   <g id="line2d_26">
    <path clip-path="url(#pa41b550220)" d="M 817.053532 274.061288 
L 817.529353 274.557196 
L 817.984274 275.072344 
L 818.417519 275.605851 
L 818.828346 276.156806 
L 819.216053 276.724269 
L 819.57998 277.307268 
L 819.919502 277.904809 
L 820.234042 278.51587 
L 820.523061 279.139407 
L 820.786065 279.774355 
L 821.022605 280.41963 
L 821.232278 281.074128 
L 821.414724 281.736732 
L 821.569632 282.40631 
L 821.696737 283.081717 
L 821.795823 283.7618 
L 821.86672 284.445396 
L 821.909306 285.131339 
L 821.92351 285.818455 
" style="fill:none;stroke:#000000;stroke-linecap:square;stroke-width:1.5;"/>
   </g>
   <g id="line2d_27">
    <path clip-path="url(#pa41b550220)" d="M 844.093037 285.818455 
L 844.093279 285.863736 
L 844.094005 285.909012 
L 844.095216 285.954277 
L 844.09691 285.999527 
L 844.099088 286.044757 
L 844.10175 286.08996 
L 844.104895 286.135133 
L 844.108523 286.180269 
L 844.112633 286.225364 
L 844.117226 286.270412 
L 844.1223 286.315408 
L 844.127854 286.360348 
L 844.133889 286.405226 
L 844.140404 286.450037 
L 844.147397 286.494775 
L 844.154868 286.539436 
L 844.162817 286.584015 
L 844.171242 286.628506 
L 844.180142 286.672904 
L 844.189516 286.717205 
L 844.199364 286.761403 
L 844.209683 286.805493 
L 844.220474 286.84947 
L 844.231734 286.89333 
L 844.243463 286.937066 
L 844.255658 286.980675 
L 844.268319 287.02415 
L 844.281445 287.067488 
L 844.295033 287.110683 
L 844.309082 287.15373 
L 844.323591 287.196624 
L 844.338557 287.239361 
L 844.35398 287.281935 
L 844.369857 287.324342 
L 844.386187 287.366577 
L 844.402968 287.408635 
L 844.420197 287.450511 
L 844.437873 287.4922 
L 844.455994 287.533698 
L 844.474557 287.574999 
L 844.493562 287.6161 
L 844.513004 287.656995 
L 844.532883 287.69768 
L 844.553196 287.73815 
L 844.57394 287.778401 
L 844.595114 287.818427 
L 844.616714 287.858225 
L 844.638739 287.897789 
L 844.661186 287.937116 
" style="fill:none;stroke:#000000;stroke-linecap:square;stroke-width:1.5;"/>
   </g>
   <g id="line2d_28">
    <path clip-path="url(#pa41b550220)" d="M 821.92351 285.818455 
L 821.923268 285.863736 
L 821.922541 285.909012 
L 821.921331 285.954277 
L 821.919637 285.999527 
L 821.917458 286.044757 
L 821.914797 286.08996 
L 821.911652 286.135133 
L 821.908024 286.180269 
L 821.903913 286.225364 
L 821.899321 286.270412 
L 821.894247 286.315408 
L 821.888692 286.360348 
L 821.882658 286.405226 
L 821.876143 286.450037 
L 821.86915 286.494775 
L 821.861678 286.539436 
L 821.85373 286.584015 
L 821.845305 286.628506 
L 821.836405 286.672904 
L 821.827031 286.717205 
L 821.817183 286.761403 
L 821.806863 286.805493 
L 821.796073 286.84947 
L 821.784813 286.89333 
L 821.773084 286.937066 
L 821.760889 286.980675 
L 821.748227 287.02415 
L 821.735102 287.067488 
L 821.721514 287.110683 
L 821.707465 287.15373 
L 821.692956 287.196624 
L 821.677989 287.239361 
L 821.662567 287.281935 
L 821.646689 287.324342 
L 821.63036 287.366577 
L 821.613579 287.408635 
L 821.59635 287.450511 
L 821.578674 287.4922 
L 821.560553 287.533698 
L 821.541989 287.574999 
L 821.522985 287.6161 
L 821.503542 287.656995 
L 821.483664 287.69768 
L 821.463351 287.73815 
L 821.442606 287.778401 
L 821.421433 287.818427 
L 821.399832 287.858225 
L 821.377807 287.897789 
L 821.355361 287.937116 
" style="fill:none;stroke:#000000;stroke-linecap:square;stroke-width:1.5;"/>
   </g>
   <g id="line2d_29">
    <path clip-path="url(#pa41b550220)" d="M 844.661186 287.937116 
L 846.985185 291.996613 
L 849.274349 296.071714 
L 851.528681 300.162419 
L 853.748178 304.268727 
L 855.932842 308.390639 
L 858.082673 312.528155 
L 860.197669 316.681275 
L 862.277833 320.849998 
L 864.323162 325.034325 
L 866.333658 329.234255 
L 868.30932 333.44979 
L 870.250148 337.680928 
L 872.156143 341.92767 
L 874.027304 346.190015 
L 875.863632 350.467965 
L 877.665125 354.761517 
L 879.431785 359.070674 
L 881.163612 363.395434 
L 882.860605 367.735799 
L 884.522764 372.091766 
L 886.15009 376.463338 
L 887.742581 380.850513 
L 889.30024 385.253292 
L 890.823064 389.671675 
L 892.311055 394.105661 
L 893.764213 398.555251 
L 895.182536 403.020445 
L 896.566026 407.501243 
L 897.914682 411.997644 
L 899.228505 416.509649 
L 900.507494 421.037257 
L 901.751649 425.58047 
L 902.960971 430.139286 
L 904.135459 434.713706 
L 905.275114 439.303729 
L 906.379934 443.909356 
L 907.449921 448.530587 
L 908.485075 453.167422 
L 909.485395 457.81986 
L 910.450881 462.487902 
L 911.381533 467.171548 
L 912.277352 471.870798 
L 913.138337 476.585651 
L 913.964489 481.316108 
L 914.755807 486.062169 
L 915.512291 490.823833 
L 916.233941 495.601101 
L 916.920758 500.393973 
L 917.572742 505.202448 
" style="fill:none;stroke:#000000;stroke-linecap:square;stroke-width:1.5;"/>
   </g>
   <g id="line2d_30">
    <path clip-path="url(#pa41b550220)" d="M 821.355361 287.937116 
L 819.031362 291.996613 
L 816.742197 296.071714 
L 814.487866 300.162419 
L 812.268368 304.268727 
L 810.083704 308.390639 
L 807.933874 312.528155 
L 805.818877 316.681275 
L 803.738714 320.849998 
L 801.693385 325.034325 
L 799.682889 329.234255 
L 797.707227 333.44979 
L 795.766399 337.680928 
L 793.860404 341.92767 
L 791.989243 346.190015 
L 790.152915 350.467965 
L 788.351421 354.761517 
L 786.584761 359.070674 
L 784.852935 363.395434 
L 783.155942 367.735799 
L 781.493783 372.091766 
L 779.866457 376.463338 
L 778.273965 380.850513 
L 776.716307 385.253292 
L 775.193482 389.671675 
L 773.705492 394.105661 
L 772.252334 398.555251 
L 770.834011 403.020445 
L 769.450521 407.501243 
L 768.101864 411.997644 
L 766.788042 416.509649 
L 765.509053 421.037257 
L 764.264897 425.58047 
L 763.055576 430.139286 
L 761.881088 434.713706 
L 760.741433 439.303729 
L 759.636612 443.909356 
L 758.566625 448.530587 
L 757.531472 453.167422 
L 756.531152 457.81986 
L 755.565666 462.487902 
L 754.635013 467.171548 
L 753.739195 471.870798 
L 752.878209 476.585651 
L 752.052058 481.316108 
L 751.26074 486.062169 
L 750.504256 490.823833 
L 749.782605 495.601101 
L 749.095788 500.393973 
L 748.443805 505.202448 
" style="fill:none;stroke:#000000;stroke-linecap:square;stroke-width:1.5;"/>
   </g>
   <g id="line2d_31">
    <path clip-path="url(#pa41b550220)" d="M 1026.087413 274.924936 
L 1051.774582 274.924936 
L 1051.774582 295.1336 
" style="fill:none;stroke:#000000;stroke-linecap:square;stroke-width:1.5;"/>
   </g>
   <g id="line2d_32">
    <path clip-path="url(#pa41b550220)" d="M 1026.087413 274.924936 
L 1000.400244 274.924936 
L 1000.400244 295.1336 
" style="fill:none;stroke:#000000;stroke-linecap:square;stroke-width:1.5;"/>
   </g>
   <g id="line2d_33">
    <path clip-path="url(#pa41b550220)" d="M 1046.863592 306.989781 
L 1047.052098 306.798229 
L 1047.237509 306.60368 
L 1047.419779 306.406185 
L 1047.59886 306.205793 
L 1047.774706 306.002557 
L 1047.947272 305.796529 
L 1048.116513 305.587761 
L 1048.282387 305.376307 
L 1048.444851 305.162222 
L 1048.603862 304.945561 
L 1048.75938 304.726378 
L 1048.911365 304.504732 
L 1049.059778 304.280678 
L 1049.204581 304.054273 
L 1049.345736 303.825577 
L 1049.483208 303.594648 
L 1049.616961 303.361546 
L 1049.746961 303.126329 
L 1049.873174 302.889059 
L 1049.995567 302.649797 
L 1050.11411 302.408603 
L 1050.228773 302.165541 
L 1050.339524 301.920672 
L 1050.446337 301.674059 
L 1050.549183 301.425766 
L 1050.648037 301.175857 
L 1050.742872 300.924395 
L 1050.833665 300.671446 
L 1050.920391 300.417074 
L 1051.00303 300.161344 
L 1051.081559 299.904323 
L 1051.155959 299.646076 
L 1051.22621 299.38667 
L 1051.292294 299.126171 
L 1051.354194 298.864647 
L 1051.411895 298.602164 
L 1051.465382 298.33879 
L 1051.51464 298.074592 
L 1051.559657 297.809639 
L 1051.600422 297.543998 
L 1051.636924 297.277739 
L 1051.669154 297.010928 
L 1051.697103 296.743635 
L 1051.720765 296.475928 
L 1051.740132 296.207877 
L 1051.755201 295.939549 
L 1051.765968 295.671015 
L 1051.772429 295.402342 
L 1051.774582 295.1336 
" style="fill:none;stroke:#000000;stroke-linecap:square;stroke-width:1.5;"/>
   </g>
   <g id="line2d_34">
    <path clip-path="url(#pa41b550220)" d="M 1005.311235 306.989781 
L 1005.122729 306.798229 
L 1004.937317 306.60368 
L 1004.755048 306.406185 
L 1004.575967 306.205793 
L 1004.400121 306.002557 
L 1004.227555 305.796529 
L 1004.058313 305.587761 
L 1003.89244 305.376307 
L 1003.729976 305.162222 
L 1003.570965 304.945561 
L 1003.415447 304.726378 
L 1003.263462 304.504732 
L 1003.115049 304.280678 
L 1002.970246 304.054273 
L 1002.82909 303.825577 
L 1002.691619 303.594648 
L 1002.557866 303.361546 
L 1002.427866 303.126329 
L 1002.301653 302.889059 
L 1002.179259 302.649797 
L 1002.060716 302.408603 
L 1001.946054 302.165541 
L 1001.835303 301.920672 
L 1001.72849 301.674059 
L 1001.625644 301.425766 
L 1001.52679 301.175857 
L 1001.431955 300.924395 
L 1001.341162 300.671446 
L 1001.254435 300.417074 
L 1001.171797 300.161344 
L 1001.093268 299.904323 
L 1001.018868 299.646076 
L 1000.948617 299.38667 
L 1000.882533 299.126171 
L 1000.820632 298.864647 
L 1000.762931 298.602164 
L 1000.709445 298.33879 
L 1000.660187 298.074592 
L 1000.61517 297.809639 
L 1000.574405 297.543998 
L 1000.537903 297.277739 
L 1000.505673 297.010928 
L 1000.477724 296.743635 
L 1000.454062 296.475928 
L 1000.434694 296.207877 
L 1000.419625 295.939549 
L 1000.408859 295.671015 
L 1000.402398 295.402342 
L 1000.400244 295.1336 
" style="fill:none;stroke:#000000;stroke-linecap:square;stroke-width:1.5;"/>
   </g>
   <g id="line2d_35">
    <path clip-path="url(#pa41b550220)" d="M 1046.863592 306.989781 
L 1046.24398 307.63555 
L 1045.651584 308.306372 
L 1045.087415 309.001103 
L 1044.552439 309.718554 
L 1044.047568 310.4575 
L 1043.573665 311.216679 
L 1043.13154 311.994793 
L 1042.721948 312.790513 
L 1042.34559 313.60248 
L 1042.003107 314.429306 
L 1041.695086 315.269579 
L 1041.422051 316.121864 
L 1041.184471 316.984703 
L 1040.982751 317.856623 
L 1040.817234 318.736135 
L 1040.688206 319.621735 
L 1040.595884 320.511911 
L 1040.540428 321.405141 
L 1040.521932 322.2999 
" style="fill:none;stroke:#000000;stroke-linecap:square;stroke-width:1.5;"/>
   </g>
   <g id="line2d_36">
    <path clip-path="url(#pa41b550220)" d="M 1005.311235 306.989781 
L 1005.930847 307.63555 
L 1006.523243 308.306372 
L 1007.087411 309.001103 
L 1007.622388 309.718554 
L 1008.127259 310.4575 
L 1008.601162 311.216679 
L 1009.043287 311.994793 
L 1009.452878 312.790513 
L 1009.829237 313.60248 
L 1010.17172 314.429306 
L 1010.479741 315.269579 
L 1010.752775 316.121864 
L 1010.990356 316.984703 
L 1011.192076 317.856623 
L 1011.357592 318.736135 
L 1011.486621 319.621735 
L 1011.578942 320.511911 
L 1011.634398 321.405141 
L 1011.652894 322.2999 
" style="fill:none;stroke:#000000;stroke-linecap:square;stroke-width:1.5;"/>
   </g>
   <g id="line2d_37">
    <path clip-path="url(#pa41b550220)" d="M 1040.521932 322.2999 
L 1040.522248 322.358865 
L 1040.523194 322.417823 
L 1040.52477 322.476768 
L 1040.526976 322.535692 
L 1040.529813 322.594589 
L 1040.533279 322.653453 
L 1040.537374 322.712276 
L 1040.542098 322.771052 
L 1040.547451 322.829775 
L 1040.553431 322.888436 
L 1040.560038 322.94703 
L 1040.567271 323.005551 
L 1040.57513 323.06399 
L 1040.583613 323.122342 
L 1040.59272 323.180601 
L 1040.602449 323.238758 
L 1040.6128 323.296808 
L 1040.62377 323.354744 
L 1040.63536 323.41256 
L 1040.647567 323.470248 
L 1040.660391 323.527802 
L 1040.673829 323.585216 
L 1040.68788 323.642483 
L 1040.702543 323.699596 
L 1040.717816 323.75655 
L 1040.733697 323.813337 
L 1040.750184 323.86995 
L 1040.767276 323.926384 
L 1040.78497 323.982633 
L 1040.803265 324.038688 
L 1040.822159 324.094545 
L 1040.841648 324.150197 
L 1040.861731 324.205637 
L 1040.882407 324.260859 
L 1040.903671 324.315857 
L 1040.925523 324.370624 
L 1040.947958 324.425155 
L 1040.970976 324.479442 
L 1040.994573 324.53348 
L 1041.018746 324.587263 
L 1041.043494 324.640784 
L 1041.068812 324.694038 
L 1041.094698 324.747017 
L 1041.121149 324.799717 
L 1041.148162 324.852131 
L 1041.175735 324.904254 
L 1041.203863 324.956078 
L 1041.232543 325.007598 
L 1041.261773 325.058809 
" style="fill:none;stroke:#000000;stroke-linecap:square;stroke-width:1.5;"/>
   </g>
   <g id="line2d_38">
    <path clip-path="url(#pa41b550220)" d="M 1011.652894 322.2999 
L 1011.652579 322.358865 
L 1011.651633 322.417823 
L 1011.650057 322.476768 
L 1011.64785 322.535692 
L 1011.645014 322.594589 
L 1011.641548 322.653453 
L 1011.637452 322.712276 
L 1011.632728 322.771052 
L 1011.627376 322.829775 
L 1011.621396 322.888436 
L 1011.614789 322.94703 
L 1011.607555 323.005551 
L 1011.599697 323.06399 
L 1011.591213 323.122342 
L 1011.582107 323.180601 
L 1011.572378 323.238758 
L 1011.562027 323.296808 
L 1011.551056 323.354744 
L 1011.539467 323.41256 
L 1011.527259 323.470248 
L 1011.514436 323.527802 
L 1011.500998 323.585216 
L 1011.486947 323.642483 
L 1011.472284 323.699596 
L 1011.457011 323.75655 
L 1011.44113 323.813337 
L 1011.424642 323.86995 
L 1011.407551 323.926384 
L 1011.389856 323.982633 
L 1011.371561 324.038688 
L 1011.352668 324.094545 
L 1011.333179 324.150197 
L 1011.313095 324.205637 
L 1011.29242 324.260859 
L 1011.271156 324.315857 
L 1011.249304 324.370624 
L 1011.226868 324.425155 
L 1011.203851 324.479442 
L 1011.180254 324.53348 
L 1011.15608 324.587263 
L 1011.131333 324.640784 
L 1011.106015 324.694038 
L 1011.080129 324.747017 
L 1011.053678 324.799717 
L 1011.026664 324.852131 
L 1010.999092 324.904254 
L 1010.970964 324.956078 
L 1010.942284 325.007598 
L 1010.913054 325.058809 
" style="fill:none;stroke:#000000;stroke-linecap:square;stroke-width:1.5;"/>
   </g>
   <g id="line2d_39">
    <path clip-path="url(#pa41b550220)" d="M 1041.261773 325.058809 
L 1043.100936 328.272794 
L 1044.914931 331.506046 
L 1046.703758 334.758566 
L 1048.467416 338.030352 
L 1050.205905 341.321406 
L 1051.919226 344.631728 
L 1053.607379 347.961317 
L 1055.270363 351.310173 
L 1056.908179 354.678296 
L 1058.520826 358.065687 
L 1060.108305 361.472345 
L 1061.670615 364.89827 
L 1063.207757 368.343463 
L 1064.71973 371.807923 
L 1066.206535 375.291651 
L 1067.668172 378.794646 
L 1069.10464 382.316908 
L 1070.515939 385.858437 
L 1071.90207 389.419234 
L 1073.263033 392.999298 
L 1074.598827 396.59863 
L 1075.909453 400.217228 
L 1077.19491 403.855094 
L 1078.455199 407.512228 
L 1079.690319 411.188629 
L 1080.900271 414.884297 
L 1082.085055 418.599232 
L 1083.24467 422.333435 
L 1084.379116 426.086905 
L 1085.488394 429.859643 
L 1086.572504 433.651648 
L 1087.631445 437.46292 
L 1088.665218 441.293459 
L 1089.673822 445.143266 
L 1090.657257 449.01234 
L 1091.615525 452.900682 
L 1092.548624 456.80829 
L 1093.456554 460.735167 
L 1094.339316 464.68131 
L 1095.196909 468.646721 
L 1096.029334 472.631399 
L 1096.836591 476.635345 
L 1097.618679 480.658557 
L 1098.375599 484.701037 
L 1099.10735 488.762785 
L 1099.813933 492.8438 
L 1100.495347 496.944082 
L 1101.151593 501.063631 
L 1101.78267 505.202448 
" style="fill:none;stroke:#000000;stroke-linecap:square;stroke-width:1.5;"/>
   </g>
   <g id="line2d_40">
    <path clip-path="url(#pa41b550220)" d="M 1010.913054 325.058809 
L 1009.07389 328.272794 
L 1007.259895 331.506046 
L 1005.471069 334.758566 
L 1003.707411 338.030352 
L 1001.968921 341.321406 
L 1000.2556 344.631728 
L 998.567448 347.961317 
L 996.904464 351.310173 
L 995.266648 354.678296 
L 993.654001 358.065687 
L 992.066522 361.472345 
L 990.504212 364.89827 
L 988.96707 368.343463 
L 987.455096 371.807923 
L 985.968292 375.291651 
L 984.506655 378.794646 
L 983.070187 382.316908 
L 981.658887 385.858437 
L 980.272756 389.419234 
L 978.911794 392.999298 
L 977.576 396.59863 
L 976.265374 400.217228 
L 974.979917 403.855094 
L 973.719628 407.512228 
L 972.484507 411.188629 
L 971.274556 414.884297 
L 970.089772 418.599232 
L 968.930157 422.333435 
L 967.795711 426.086905 
L 966.686433 429.859643 
L 965.602323 433.651648 
L 964.543382 437.46292 
L 963.509609 441.293459 
L 962.501005 445.143266 
L 961.517569 449.01234 
L 960.559302 452.900682 
L 959.626203 456.80829 
L 958.718273 460.735167 
L 957.835511 464.68131 
L 956.977917 468.646721 
L 956.145492 472.631399 
L 955.338236 476.635345 
L 954.556148 480.658557 
L 953.799228 484.701037 
L 953.067477 488.762785 
L 952.360894 492.8438 
L 951.67948 496.944082 
L 951.023234 501.063631 
L 950.392157 505.202448 
" style="fill:none;stroke:#000000;stroke-linecap:square;stroke-width:1.5;"/>
   </g>
   <g id="line2d_41">
    <path clip-path="url(#pa41b550220)" d="M 1174.550448 370.661884 
L 1191.736883 370.661884 
L 1191.736883 398.368101 
" style="fill:none;stroke:#000000;stroke-linecap:square;stroke-width:1.5;"/>
   </g>
   <g id="line2d_42">
    <path clip-path="url(#pa41b550220)" d="M 1174.550448 370.661884 
L 1157.364013 370.661884 
L 1157.364013 398.368101 
" style="fill:none;stroke:#000000;stroke-linecap:square;stroke-width:1.5;"/>
   </g>
   <g id="line2d_43">
    <path clip-path="url(#pa41b550220)" d="M 1188.925265 405.155947 
L 1189.033188 405.04628 
L 1189.139339 404.934898 
L 1189.243691 404.821829 
L 1189.346218 404.707102 
L 1189.446892 404.590746 
L 1189.545689 404.472792 
L 1189.642582 404.353269 
L 1189.737548 404.232208 
L 1189.83056 404.109641 
L 1189.921597 403.985599 
L 1190.010633 403.860114 
L 1190.097647 403.733218 
L 1190.182616 403.604944 
L 1190.265518 403.475324 
L 1190.346331 403.344392 
L 1190.425036 403.212181 
L 1190.501612 403.078726 
L 1190.576039 402.944061 
L 1190.648297 402.808221 
L 1190.71837 402.671239 
L 1190.786237 402.533152 
L 1190.851883 402.393995 
L 1190.91529 402.253804 
L 1190.976442 402.112615 
L 1191.035323 401.970463 
L 1191.091918 401.827386 
L 1191.146213 401.68342 
L 1191.198193 401.538603 
L 1191.247846 401.392971 
L 1191.295158 401.246562 
L 1191.340117 401.099413 
L 1191.382712 400.951563 
L 1191.422931 400.803049 
L 1191.460766 400.65391 
L 1191.496205 400.504183 
L 1191.529239 400.353907 
L 1191.559861 400.203121 
L 1191.588062 400.051864 
L 1191.613835 399.900175 
L 1191.637174 399.748091 
L 1191.658072 399.595653 
L 1191.676524 399.4429 
L 1191.692525 399.289871 
L 1191.706072 399.136605 
L 1191.71716 398.983141 
L 1191.725787 398.829519 
L 1191.731951 398.675779 
L 1191.73565 398.52196 
L 1191.736883 398.368101 
" style="fill:none;stroke:#000000;stroke-linecap:square;stroke-width:1.5;"/>
   </g>
   <g id="line2d_44">
    <path clip-path="url(#pa41b550220)" d="M 1160.175631 405.155947 
L 1160.067708 405.04628 
L 1159.961557 404.934898 
L 1159.857205 404.821829 
L 1159.754678 404.707102 
L 1159.654004 404.590746 
L 1159.555207 404.472792 
L 1159.458313 404.353269 
L 1159.363348 404.232208 
L 1159.270335 404.109641 
L 1159.179299 403.985599 
L 1159.090263 403.860114 
L 1159.003249 403.733218 
L 1158.91828 403.604944 
L 1158.835378 403.475324 
L 1158.754565 403.344392 
L 1158.67586 403.212181 
L 1158.599284 403.078726 
L 1158.524857 402.944061 
L 1158.452599 402.808221 
L 1158.382526 402.671239 
L 1158.314659 402.533152 
L 1158.249013 402.393995 
L 1158.185606 402.253804 
L 1158.124454 402.112615 
L 1158.065573 401.970463 
L 1158.008978 401.827386 
L 1157.954683 401.68342 
L 1157.902703 401.538603 
L 1157.85305 401.392971 
L 1157.805738 401.246562 
L 1157.760779 401.099413 
L 1157.718184 400.951563 
L 1157.677965 400.803049 
L 1157.64013 400.65391 
L 1157.604691 400.504183 
L 1157.571657 400.353907 
L 1157.541035 400.203121 
L 1157.512834 400.051864 
L 1157.487061 399.900175 
L 1157.463722 399.748091 
L 1157.442824 399.595653 
L 1157.424372 399.4429 
L 1157.408371 399.289871 
L 1157.394824 399.136605 
L 1157.383736 398.983141 
L 1157.375109 398.829519 
L 1157.368945 398.675779 
L 1157.365246 398.52196 
L 1157.364013 398.368101 
" style="fill:none;stroke:#000000;stroke-linecap:square;stroke-width:1.5;"/>
   </g>
   <g id="line2d_45">
    <path clip-path="url(#pa41b550220)" d="M 1188.925265 405.155947 
L 1188.496563 405.602748 
L 1188.08669 406.066883 
L 1187.696348 406.547559 
L 1187.326203 407.043956 
L 1186.976888 407.555225 
L 1186.649 408.080493 
L 1186.343099 408.618862 
L 1186.059706 409.169412 
L 1185.799308 409.731203 
L 1185.562348 410.303276 
L 1185.349231 410.884652 
L 1185.160321 411.474338 
L 1184.995942 412.071328 
L 1184.856374 412.6746 
L 1184.741855 413.283125 
L 1184.652581 413.895862 
L 1184.588705 414.511765 
L 1184.550336 415.129782 
L 1184.537539 415.748856 
" style="fill:none;stroke:#000000;stroke-linecap:square;stroke-width:1.5;"/>
   </g>
   <g id="line2d_46">
    <path clip-path="url(#pa41b550220)" d="M 1160.175631 405.155947 
L 1160.604333 405.602748 
L 1161.014206 406.066883 
L 1161.404548 406.547559 
L 1161.774693 407.043956 
L 1162.124008 407.555225 
L 1162.451896 408.080493 
L 1162.757797 408.618862 
L 1163.04119 409.169412 
L 1163.301588 409.731203 
L 1163.538548 410.303276 
L 1163.751665 410.884652 
L 1163.940574 411.474338 
L 1164.104954 412.071328 
L 1164.244522 412.6746 
L 1164.359041 413.283125 
L 1164.448315 413.895862 
L 1164.512191 414.511765 
L 1164.55056 415.129782 
L 1164.563357 415.748856 
" style="fill:none;stroke:#000000;stroke-linecap:square;stroke-width:1.5;"/>
   </g>
   <g id="line2d_47">
    <path clip-path="url(#pa41b550220)" d="M 1184.537539 415.748856 
L 1184.537729 415.786928 
L 1184.538299 415.824997 
L 1184.539248 415.863058 
L 1184.540578 415.901107 
L 1184.542287 415.939141 
L 1184.544376 415.977157 
L 1184.546844 416.015149 
L 1184.549691 416.053115 
L 1184.552916 416.091051 
L 1184.556521 416.128953 
L 1184.560503 416.166817 
L 1184.564863 416.204639 
L 1184.5696 416.242416 
L 1184.574713 416.280143 
L 1184.580203 416.317818 
L 1184.586069 416.355436 
L 1184.59231 416.392994 
L 1184.598925 416.430488 
L 1184.605915 416.467913 
L 1184.613277 416.505267 
L 1184.621012 416.542546 
L 1184.629118 416.579746 
L 1184.637595 416.616862 
L 1184.646443 416.653893 
L 1184.655659 416.690833 
L 1184.665243 416.72768 
L 1184.675195 416.764429 
L 1184.685513 416.801077 
L 1184.696196 416.83762 
L 1184.707243 416.874054 
L 1184.718654 416.910377 
L 1184.730426 416.946584 
L 1184.742559 416.982672 
L 1184.755052 417.018636 
L 1184.767902 417.054475 
L 1184.78111 417.090183 
L 1184.794674 417.125758 
L 1184.808592 417.161195 
L 1184.822862 417.196492 
L 1184.837485 417.231645 
L 1184.852457 417.26665 
L 1184.867778 417.301504 
L 1184.883446 417.336203 
L 1184.89946 417.370744 
L 1184.915817 417.405124 
L 1184.932517 417.439339 
L 1184.949557 417.473385 
L 1184.966937 417.50726 
L 1184.984653 417.540959 
" style="fill:none;stroke:#000000;stroke-linecap:square;stroke-width:1.5;"/>
   </g>
   <g id="line2d_48">
    <path clip-path="url(#pa41b550220)" d="M 1164.563357 415.748856 
L 1164.563167 415.786928 
L 1164.562597 415.824997 
L 1164.561648 415.863058 
L 1164.560318 415.901107 
L 1164.558609 415.939141 
L 1164.55652 415.977157 
L 1164.554052 416.015149 
L 1164.551205 416.053115 
L 1164.54798 416.091051 
L 1164.544375 416.128953 
L 1164.540393 416.166817 
L 1164.536033 416.204639 
L 1164.531296 416.242416 
L 1164.526183 416.280143 
L 1164.520692 416.317818 
L 1164.514827 416.355436 
L 1164.508586 416.392994 
L 1164.50197 416.430488 
L 1164.494981 416.467913 
L 1164.487619 416.505267 
L 1164.479884 416.542546 
L 1164.471778 416.579746 
L 1164.463301 416.616862 
L 1164.454453 416.653893 
L 1164.445237 416.690833 
L 1164.435653 416.72768 
L 1164.425701 416.764429 
L 1164.415383 416.801077 
L 1164.4047 416.83762 
L 1164.393652 416.874054 
L 1164.382242 416.910377 
L 1164.37047 416.946584 
L 1164.358337 416.982672 
L 1164.345844 417.018636 
L 1164.332993 417.054475 
L 1164.319786 417.090183 
L 1164.306222 417.125758 
L 1164.292304 417.161195 
L 1164.278033 417.196492 
L 1164.263411 417.231645 
L 1164.248439 417.26665 
L 1164.233118 417.301504 
L 1164.21745 417.336203 
L 1164.201436 417.370744 
L 1164.185079 417.405124 
L 1164.168379 417.439339 
L 1164.151339 417.473385 
L 1164.133959 417.50726 
L 1164.116243 417.540959 
" style="fill:none;stroke:#000000;stroke-linecap:square;stroke-width:1.5;"/>
   </g>
   <g id="line2d_49">
    <path clip-path="url(#pa41b550220)" d="M 1184.984653 417.540959 
L 1185.862238 419.20364 
L 1186.728354 420.871585 
L 1187.583001 422.544793 
L 1188.426179 424.223265 
L 1189.257887 425.907001 
L 1190.078127 427.596 
L 1190.886899 429.290263 
L 1191.684201 430.98979 
L 1192.470034 432.694581 
L 1193.244398 434.404635 
L 1194.007293 436.119953 
L 1194.758719 437.840535 
L 1195.498677 439.56638 
L 1196.227165 441.297489 
L 1196.944184 443.033862 
L 1197.649735 444.775499 
L 1198.343816 446.522399 
L 1199.026428 448.274563 
L 1199.697572 450.031991 
L 1200.357247 451.794682 
L 1201.005452 453.562637 
L 1201.642189 455.335856 
L 1202.267456 457.114339 
L 1202.881255 458.898085 
L 1203.483585 460.687095 
L 1204.074446 462.481369 
L 1204.653838 464.280906 
L 1205.22176 466.085707 
L 1205.778214 467.895772 
L 1206.323199 469.711101 
L 1206.856715 471.531693 
L 1207.378762 473.357549 
L 1207.88934 475.188669 
L 1208.388449 477.025052 
L 1208.87609 478.866699 
L 1209.352261 480.71361 
L 1209.816963 482.565784 
L 1210.270196 484.423223 
L 1210.711961 486.285925 
L 1211.142256 488.15389 
L 1211.561082 490.02712 
L 1211.96844 491.905613 
L 1212.364328 493.78937 
L 1212.748748 495.67839 
L 1213.121698 497.572674 
L 1213.48318 499.472222 
L 1213.833193 501.377034 
L 1214.171736 503.287109 
L 1214.498811 505.202448 
" style="fill:none;stroke:#000000;stroke-linecap:square;stroke-width:1.5;"/>
   </g>
   <g id="line2d_50">
    <path clip-path="url(#pa41b550220)" d="M 1164.116243 417.540959 
L 1163.238658 419.20364 
L 1162.372542 420.871585 
L 1161.517895 422.544793 
L 1160.674717 424.223265 
L 1159.843008 425.907001 
L 1159.022768 427.596 
L 1158.213997 429.290263 
L 1157.416695 430.98979 
L 1156.630862 432.694581 
L 1155.856498 434.404635 
L 1155.093603 436.119953 
L 1154.342177 437.840535 
L 1153.602219 439.56638 
L 1152.873731 441.297489 
L 1152.156712 443.033862 
L 1151.451161 444.775499 
L 1150.75708 446.522399 
L 1150.074467 448.274563 
L 1149.403324 450.031991 
L 1148.743649 451.794682 
L 1148.095444 453.562637 
L 1147.458707 455.335856 
L 1146.83344 457.114339 
L 1146.219641 458.898085 
L 1145.617311 460.687095 
L 1145.02645 462.481369 
L 1144.447058 464.280906 
L 1143.879136 466.085707 
L 1143.322682 467.895772 
L 1142.777697 469.711101 
L 1142.244181 471.531693 
L 1141.722134 473.357549 
L 1141.211556 475.188669 
L 1140.712446 477.025052 
L 1140.224806 478.866699 
L 1139.748635 480.71361 
L 1139.283933 482.565784 
L 1138.8307 484.423223 
L 1138.388935 486.285925 
L 1137.95864 488.15389 
L 1137.539814 490.02712 
L 1137.132456 491.905613 
L 1136.736568 493.78937 
L 1136.352148 495.67839 
L 1135.979198 497.572674 
L 1135.617716 499.472222 
L 1135.267703 501.377034 
L 1134.92916 503.287109 
L 1134.602085 505.202448 
" style="fill:none;stroke:#000000;stroke-linecap:square;stroke-width:1.5;"/>
   </g>
   <g id="line2d_51">
    <path clip-path="url(#pa41b550220)" d="M 1285.404568 375.721905 
L 1292.784261 375.721905 
L 1292.784261 396.234771 
" style="fill:none;stroke:#000000;stroke-linecap:square;stroke-width:1.5;"/>
   </g>
   <g id="line2d_52">
    <path clip-path="url(#pa41b550220)" d="M 1285.404568 375.721905 
L 1278.024874 375.721905 
L 1278.024874 396.234771 
" style="fill:none;stroke:#000000;stroke-linecap:square;stroke-width:1.5;"/>
   </g>
   <g id="line2d_53">
    <path clip-path="url(#pa41b550220)" d="M 1291.418134 399.532893 
L 1291.470572 399.479608 
L 1291.522149 399.425489 
L 1291.572852 399.37055 
L 1291.622669 399.314805 
L 1291.671585 399.25827 
L 1291.719589 399.200957 
L 1291.766668 399.142883 
L 1291.812811 399.084061 
L 1291.858004 399.024507 
L 1291.902238 398.964237 
L 1291.945499 398.903266 
L 1291.987778 398.841608 
L 1292.029063 398.779282 
L 1292.069344 398.716301 
L 1292.10861 398.652683 
L 1292.146852 398.588444 
L 1292.184059 398.5236 
L 1292.220222 398.458168 
L 1292.255332 398.392165 
L 1292.289379 398.325607 
L 1292.322355 398.258513 
L 1292.354251 398.190898 
L 1292.38506 398.122781 
L 1292.414773 398.054179 
L 1292.443382 397.98511 
L 1292.470881 397.91559 
L 1292.497262 397.845639 
L 1292.522519 397.775275 
L 1292.546644 397.704514 
L 1292.569632 397.633376 
L 1292.591477 397.561878 
L 1292.612174 397.49004 
L 1292.631716 397.417879 
L 1292.650099 397.345414 
L 1292.667318 397.272664 
L 1292.683369 397.199647 
L 1292.698248 397.126382 
L 1292.711951 397.052888 
L 1292.724473 396.979184 
L 1292.735813 396.905289 
L 1292.745967 396.831222 
L 1292.754933 396.757001 
L 1292.762708 396.682646 
L 1292.76929 396.608176 
L 1292.774678 396.53361 
L 1292.778869 396.458967 
L 1292.781864 396.384267 
L 1292.783662 396.309529 
L 1292.784261 396.234771 
" style="fill:none;stroke:#000000;stroke-linecap:square;stroke-width:1.5;"/>
   </g>
   <g id="line2d_54">
    <path clip-path="url(#pa41b550220)" d="M 1279.391001 399.532893 
L 1279.338563 399.479608 
L 1279.286986 399.425489 
L 1279.236283 399.37055 
L 1279.186466 399.314805 
L 1279.13755 399.25827 
L 1279.089546 399.200957 
L 1279.042467 399.142883 
L 1278.996324 399.084061 
L 1278.951131 399.024507 
L 1278.906898 398.964237 
L 1278.863636 398.903266 
L 1278.821357 398.841608 
L 1278.780072 398.779282 
L 1278.739791 398.716301 
L 1278.700525 398.652683 
L 1278.662283 398.588444 
L 1278.625076 398.5236 
L 1278.588913 398.458168 
L 1278.553804 398.392165 
L 1278.519756 398.325607 
L 1278.48678 398.258513 
L 1278.454884 398.190898 
L 1278.424075 398.122781 
L 1278.394362 398.054179 
L 1278.365753 397.98511 
L 1278.338254 397.91559 
L 1278.311873 397.845639 
L 1278.286617 397.775275 
L 1278.262491 397.704514 
L 1278.239503 397.633376 
L 1278.217658 397.561878 
L 1278.196962 397.49004 
L 1278.177419 397.417879 
L 1278.159036 397.345414 
L 1278.141817 397.272664 
L 1278.125766 397.199647 
L 1278.110887 397.126382 
L 1278.097185 397.052888 
L 1278.084662 396.979184 
L 1278.073322 396.905289 
L 1278.063168 396.831222 
L 1278.054202 396.757001 
L 1278.046427 396.682646 
L 1278.039845 396.608176 
L 1278.034458 396.53361 
L 1278.030266 396.458967 
L 1278.027271 396.384267 
L 1278.025474 396.309529 
L 1278.024874 396.234771 
" style="fill:none;stroke:#000000;stroke-linecap:square;stroke-width:1.5;"/>
   </g>
   <g id="line2d_55">
    <path clip-path="url(#pa41b550220)" d="M 1291.418134 399.532893 
L 1291.23879 399.719808 
L 1291.067324 399.913974 
L 1290.904028 400.115061 
L 1290.749181 400.322724 
L 1290.603049 400.536608 
L 1290.46588 400.756349 
L 1290.337909 400.98157 
L 1290.219355 401.211888 
L 1290.110419 401.446907 
L 1290.01129 401.686228 
L 1289.922134 401.929441 
L 1289.843106 402.176131 
L 1289.774339 402.425876 
L 1289.715952 402.678249 
L 1289.668044 402.932819 
L 1289.630698 403.189152 
L 1289.603976 403.446809 
L 1289.587924 403.705351 
L 1289.582571 403.964335 
" style="fill:none;stroke:#000000;stroke-linecap:square;stroke-width:1.5;"/>
   </g>
   <g id="line2d_56">
    <path clip-path="url(#pa41b550220)" d="M 1279.391001 399.532893 
L 1279.570345 399.719808 
L 1279.741811 399.913974 
L 1279.905107 400.115061 
L 1280.059954 400.322724 
L 1280.206086 400.536608 
L 1280.343255 400.756349 
L 1280.471226 400.98157 
L 1280.58978 401.211888 
L 1280.698716 401.446907 
L 1280.797846 401.686228 
L 1280.887001 401.929441 
L 1280.966029 402.176131 
L 1281.034796 402.425876 
L 1281.093183 402.678249 
L 1281.141091 402.932819 
L 1281.178438 403.189152 
L 1281.20516 403.446809 
L 1281.221211 403.705351 
L 1281.226565 403.964335 
" style="fill:none;stroke:#000000;stroke-linecap:square;stroke-width:1.5;"/>
   </g>
   <g id="line2d_57">
    <path clip-path="url(#pa41b550220)" d="M 1289.582571 403.964335 
L 1289.582662 403.981402 
L 1289.582936 403.998467 
L 1289.583392 404.015528 
L 1289.58403 404.032583 
L 1289.584851 404.049631 
L 1289.585855 404.066669 
L 1289.58704 404.083695 
L 1289.588408 404.100707 
L 1289.589957 404.117704 
L 1289.591688 404.134683 
L 1289.5936 404.151643 
L 1289.595694 404.168582 
L 1289.597968 404.185497 
L 1289.600424 404.202386 
L 1289.60306 404.219249 
L 1289.605876 404.236082 
L 1289.608872 404.252885 
L 1289.612047 404.269654 
L 1289.615402 404.286388 
L 1289.618935 404.303086 
L 1289.622647 404.319745 
L 1289.626536 404.336363 
L 1289.630603 404.352939 
L 1289.634847 404.36947 
L 1289.639268 404.385955 
L 1289.643865 404.402391 
L 1289.648637 404.418778 
L 1289.653584 404.435113 
L 1289.658706 404.451393 
L 1289.664001 404.467618 
L 1289.66947 404.483786 
L 1289.675111 404.499894 
L 1289.680924 404.515941 
L 1289.686908 404.531925 
L 1289.693063 404.547843 
L 1289.699388 404.563696 
L 1289.705882 404.579479 
L 1289.712544 404.595192 
L 1289.719374 404.610834 
L 1289.726371 404.626401 
L 1289.733534 404.641892 
L 1289.740862 404.657306 
L 1289.748355 404.672641 
L 1289.756011 404.687895 
L 1289.76383 404.703066 
L 1289.77181 404.718152 
L 1289.779952 404.733152 
L 1289.788253 404.748065 
L 1289.796714 404.762888 
" style="fill:none;stroke:#000000;stroke-linecap:square;stroke-width:1.5;"/>
   </g>
   <g id="line2d_58">
    <path clip-path="url(#pa41b550220)" d="M 1281.226565 403.964335 
L 1281.226473 403.981402 
L 1281.2262 403.998467 
L 1281.225743 404.015528 
L 1281.225105 404.032583 
L 1281.224284 404.049631 
L 1281.22328 404.066669 
L 1281.222095 404.083695 
L 1281.220728 404.100707 
L 1281.219178 404.117704 
L 1281.217447 404.134683 
L 1281.215535 404.151643 
L 1281.213441 404.168582 
L 1281.211167 404.185497 
L 1281.208711 404.202386 
L 1281.206075 404.219249 
L 1281.203259 404.236082 
L 1281.200263 404.252885 
L 1281.197088 404.269654 
L 1281.193734 404.286388 
L 1281.1902 404.303086 
L 1281.186489 404.319745 
L 1281.182599 404.336363 
L 1281.178532 404.352939 
L 1281.174288 404.36947 
L 1281.169867 404.385955 
L 1281.16527 404.402391 
L 1281.160498 404.418778 
L 1281.155551 404.435113 
L 1281.150429 404.451393 
L 1281.145134 404.467618 
L 1281.139666 404.483786 
L 1281.134024 404.499894 
L 1281.128211 404.515941 
L 1281.122227 404.531925 
L 1281.116072 404.547843 
L 1281.109747 404.563696 
L 1281.103253 404.579479 
L 1281.096591 404.595192 
L 1281.089761 404.610834 
L 1281.082764 404.626401 
L 1281.075601 404.641892 
L 1281.068273 404.657306 
L 1281.06078 404.672641 
L 1281.053124 404.687895 
L 1281.045305 404.703066 
L 1281.037325 404.718152 
L 1281.029183 404.733152 
L 1281.020882 404.748065 
L 1281.012421 404.762888 
" style="fill:none;stroke:#000000;stroke-linecap:square;stroke-width:1.5;"/>
   </g>
   <g id="line2d_59">
    <path clip-path="url(#pa41b550220)" d="M 1289.796714 404.762888 
L 1290.870444 406.63847 
L 1291.928088 408.52131 
L 1292.969643 410.411409 
L 1293.995112 412.308767 
L 1295.004494 414.213383 
L 1295.997788 416.125258 
L 1296.974995 418.044391 
L 1297.936115 419.970782 
L 1298.881147 421.904433 
L 1299.810092 423.845342 
L 1300.72295 425.793509 
L 1301.619721 427.748935 
L 1302.500405 429.711619 
L 1303.365001 431.681562 
L 1304.21351 433.658764 
L 1305.045932 435.643224 
L 1305.862266 437.634943 
L 1306.662514 439.63392 
L 1307.446674 441.640156 
L 1308.214747 443.65365 
L 1308.966732 445.674403 
L 1309.702631 447.702414 
L 1310.422442 449.737684 
L 1311.126166 451.780212 
L 1311.813802 453.829999 
L 1312.485352 455.887045 
L 1313.140814 457.951349 
L 1313.780189 460.022911 
L 1314.403476 462.101732 
L 1315.010677 464.187812 
L 1315.60179 466.28115 
L 1316.176816 468.381747 
L 1316.735755 470.489602 
L 1317.278606 472.604716 
L 1317.80537 474.727088 
L 1318.316047 476.856719 
L 1318.810637 478.993609 
L 1319.28914 481.137757 
L 1319.751555 483.289163 
L 1320.197883 485.447828 
L 1320.628124 487.613752 
L 1321.042277 489.786934 
L 1321.440343 491.967375 
L 1321.822322 494.155074 
L 1322.188214 496.350032 
L 1322.538019 498.552248 
L 1322.871736 500.761723 
L 1323.189366 502.978456 
L 1323.490909 505.202448 
" style="fill:none;stroke:#000000;stroke-linecap:square;stroke-width:1.5;"/>
   </g>
   <g id="line2d_60">
    <path clip-path="url(#pa41b550220)" d="M 1281.012421 404.762888 
L 1279.938691 406.63847 
L 1278.881048 408.52131 
L 1277.839492 410.411409 
L 1276.814023 412.308767 
L 1275.804641 414.213383 
L 1274.811347 416.125258 
L 1273.83414 418.044391 
L 1272.87302 419.970782 
L 1271.927988 421.904433 
L 1270.999043 423.845342 
L 1270.086185 425.793509 
L 1269.189414 427.748935 
L 1268.30873 429.711619 
L 1267.444134 431.681562 
L 1266.595625 433.658764 
L 1265.763203 435.643224 
L 1264.946869 437.634943 
L 1264.146621 439.63392 
L 1263.362461 441.640156 
L 1262.594388 443.65365 
L 1261.842403 445.674403 
L 1261.106504 447.702414 
L 1260.386693 449.737684 
L 1259.682969 451.780212 
L 1258.995333 453.829999 
L 1258.323783 455.887045 
L 1257.668321 457.951349 
L 1257.028946 460.022911 
L 1256.405659 462.101732 
L 1255.798458 464.187812 
L 1255.207345 466.28115 
L 1254.632319 468.381747 
L 1254.07338 470.489602 
L 1253.530529 472.604716 
L 1253.003765 474.727088 
L 1252.493088 476.856719 
L 1251.998498 478.993609 
L 1251.519996 481.137757 
L 1251.05758 483.289163 
L 1250.611252 485.447828 
L 1250.181011 487.613752 
L 1249.766858 489.786934 
L 1249.368792 491.967375 
L 1248.986813 494.155074 
L 1248.620921 496.350032 
L 1248.271116 498.552248 
L 1247.937399 500.761723 
L 1247.619769 502.978456 
L 1247.318226 505.202448 
" style="fill:none;stroke:#000000;stroke-linecap:square;stroke-width:1.5;"/>
   </g>
   <g id="text_1">
    <!-- F-1 -->
    <defs>
     <path d="M 9.8125 72.90625 
L 51.703125 72.90625 
L 51.703125 64.59375 
L 19.671875 64.59375 
L 19.671875 43.109375 
L 48.578125 43.109375 
L 48.578125 34.8125 
L 19.671875 34.8125 
L 19.671875 0 
L 9.8125 0 
z
" id="DejaVuSans-70"/>
     <path d="M 4.890625 31.390625 
L 31.203125 31.390625 
L 31.203125 23.390625 
L 4.890625 23.390625 
z
" id="DejaVuSans-45"/>
     <path d="M 12.40625 8.296875 
L 28.515625 8.296875 
L 28.515625 63.921875 
L 10.984375 60.40625 
L 10.984375 69.390625 
L 28.421875 72.90625 
L 38.28125 72.90625 
L 38.28125 8.296875 
L 54.390625 8.296875 
L 54.390625 0 
L 12.40625 0 
z
" id="DejaVuSans-49"/>
    </defs>
    <g transform="translate(282.641272 58.802844)scale(0.16 -0.16)">
     <use xlink:href="#DejaVuSans-70"/>
     <use x="57.519531" xlink:href="#DejaVuSans-45"/>
     <use x="93.603516" xlink:href="#DejaVuSans-49"/>
    </g>
   </g>
   <g id="text_2">
    <!-- F-1 -->
    <g transform="translate(282.641272 58.802844)scale(0.16 -0.16)">
     <use xlink:href="#DejaVuSans-70"/>
     <use x="57.519531" xlink:href="#DejaVuSans-45"/>
     <use x="93.603516" xlink:href="#DejaVuSans-49"/>
    </g>
   </g>
   <g id="text_3">
    <!-- F-1 -->
    <g transform="translate(282.641272 58.802844)scale(0.16 -0.16)">
     <use xlink:href="#DejaVuSans-70"/>
     <use x="57.519531" xlink:href="#DejaVuSans-45"/>
     <use x="93.603516" xlink:href="#DejaVuSans-49"/>
    </g>
   </g>
   <g id="text_4">
    <!-- F-1 -->
    <g transform="translate(282.641272 58.802844)scale(0.16 -0.16)">
     <use xlink:href="#DejaVuSans-70"/>
     <use x="57.519531" xlink:href="#DejaVuSans-45"/>
     <use x="93.603516" xlink:href="#DejaVuSans-49"/>
    </g>
   </g>
   <g id="text_5">
    <!-- F-1 -->
    <g transform="translate(282.641272 58.802844)scale(0.16 -0.16)">
     <use xlink:href="#DejaVuSans-70"/>
     <use x="57.519531" xlink:href="#DejaVuSans-45"/>
     <use x="93.603516" xlink:href="#DejaVuSans-49"/>
    </g>
   </g>
   <g id="text_6">
    <!-- Merlin 1D+ vac -->
    <defs>
     <path d="M 9.8125 72.90625 
L 24.515625 72.90625 
L 43.109375 23.296875 
L 61.8125 72.90625 
L 76.515625 72.90625 
L 76.515625 0 
L 66.890625 0 
L 66.890625 64.015625 
L 48.09375 14.015625 
L 38.1875 14.015625 
L 19.390625 64.015625 
L 19.390625 0 
L 9.8125 0 
z
" id="DejaVuSans-77"/>
     <path d="M 56.203125 29.59375 
L 56.203125 25.203125 
L 14.890625 25.203125 
Q 15.484375 15.921875 20.484375 11.0625 
Q 25.484375 6.203125 34.421875 6.203125 
Q 39.59375 6.203125 44.453125 7.46875 
Q 49.3125 8.734375 54.109375 11.28125 
L 54.109375 2.78125 
Q 49.265625 0.734375 44.1875 -0.34375 
Q 39.109375 -1.421875 33.890625 -1.421875 
Q 20.796875 -1.421875 13.15625 6.1875 
Q 5.515625 13.8125 5.515625 26.8125 
Q 5.515625 40.234375 12.765625 48.109375 
Q 20.015625 56 32.328125 56 
Q 43.359375 56 49.78125 48.890625 
Q 56.203125 41.796875 56.203125 29.59375 
z
M 47.21875 32.234375 
Q 47.125 39.59375 43.09375 43.984375 
Q 39.0625 48.390625 32.421875 48.390625 
Q 24.90625 48.390625 20.390625 44.140625 
Q 15.875 39.890625 15.1875 32.171875 
z
" id="DejaVuSans-101"/>
     <path d="M 41.109375 46.296875 
Q 39.59375 47.171875 37.8125 47.578125 
Q 36.03125 48 33.890625 48 
Q 26.265625 48 22.1875 43.046875 
Q 18.109375 38.09375 18.109375 28.8125 
L 18.109375 0 
L 9.078125 0 
L 9.078125 54.6875 
L 18.109375 54.6875 
L 18.109375 46.1875 
Q 20.953125 51.171875 25.484375 53.578125 
Q 30.03125 56 36.53125 56 
Q 37.453125 56 38.578125 55.875 
Q 39.703125 55.765625 41.0625 55.515625 
z
" id="DejaVuSans-114"/>
     <path d="M 9.421875 75.984375 
L 18.40625 75.984375 
L 18.40625 0 
L 9.421875 0 
z
" id="DejaVuSans-108"/>
     <path d="M 9.421875 54.6875 
L 18.40625 54.6875 
L 18.40625 0 
L 9.421875 0 
z
M 9.421875 75.984375 
L 18.40625 75.984375 
L 18.40625 64.59375 
L 9.421875 64.59375 
z
" id="DejaVuSans-105"/>
     <path d="M 54.890625 33.015625 
L 54.890625 0 
L 45.90625 0 
L 45.90625 32.71875 
Q 45.90625 40.484375 42.875 44.328125 
Q 39.84375 48.1875 33.796875 48.1875 
Q 26.515625 48.1875 22.3125 43.546875 
Q 18.109375 38.921875 18.109375 30.90625 
L 18.109375 0 
L 9.078125 0 
L 9.078125 54.6875 
L 18.109375 54.6875 
L 18.109375 46.1875 
Q 21.34375 51.125 25.703125 53.5625 
Q 30.078125 56 35.796875 56 
Q 45.21875 56 50.046875 50.171875 
Q 54.890625 44.34375 54.890625 33.015625 
z
" id="DejaVuSans-110"/>
     <path id="DejaVuSans-32"/>
     <path d="M 19.671875 64.796875 
L 19.671875 8.109375 
L 31.59375 8.109375 
Q 46.6875 8.109375 53.6875 14.9375 
Q 60.6875 21.78125 60.6875 36.53125 
Q 60.6875 51.171875 53.6875 57.984375 
Q 46.6875 64.796875 31.59375 64.796875 
z
M 9.8125 72.90625 
L 30.078125 72.90625 
Q 51.265625 72.90625 61.171875 64.09375 
Q 71.09375 55.28125 71.09375 36.53125 
Q 71.09375 17.671875 61.125 8.828125 
Q 51.171875 0 30.078125 0 
L 9.8125 0 
z
" id="DejaVuSans-68"/>
     <path d="M 46 62.703125 
L 46 35.5 
L 73.1875 35.5 
L 73.1875 27.203125 
L 46 27.203125 
L 46 0 
L 37.796875 0 
L 37.796875 27.203125 
L 10.59375 27.203125 
L 10.59375 35.5 
L 37.796875 35.5 
L 37.796875 62.703125 
z
" id="DejaVuSans-43"/>
     <path d="M 2.984375 54.6875 
L 12.5 54.6875 
L 29.59375 8.796875 
L 46.6875 54.6875 
L 56.203125 54.6875 
L 35.6875 0 
L 23.484375 0 
z
" id="DejaVuSans-118"/>
     <path d="M 34.28125 27.484375 
Q 23.390625 27.484375 19.1875 25 
Q 14.984375 22.515625 14.984375 16.5 
Q 14.984375 11.71875 18.140625 8.90625 
Q 21.296875 6.109375 26.703125 6.109375 
Q 34.1875 6.109375 38.703125 11.40625 
Q 43.21875 16.703125 43.21875 25.484375 
L 43.21875 27.484375 
z
M 52.203125 31.203125 
L 52.203125 0 
L 43.21875 0 
L 43.21875 8.296875 
Q 40.140625 3.328125 35.546875 0.953125 
Q 30.953125 -1.421875 24.3125 -1.421875 
Q 15.921875 -1.421875 10.953125 3.296875 
Q 6 8.015625 6 15.921875 
Q 6 25.140625 12.171875 29.828125 
Q 18.359375 34.515625 30.609375 34.515625 
L 43.21875 34.515625 
L 43.21875 35.40625 
Q 43.21875 41.609375 39.140625 45 
Q 35.0625 48.390625 27.6875 48.390625 
Q 23 48.390625 18.546875 47.265625 
Q 14.109375 46.140625 10.015625 43.890625 
L 10.015625 52.203125 
Q 14.9375 54.109375 19.578125 55.046875 
Q 24.21875 56 28.609375 56 
Q 40.484375 56 46.34375 49.84375 
Q 52.203125 43.703125 52.203125 31.203125 
z
" id="DejaVuSans-97"/>
     <path d="M 48.78125 52.59375 
L 48.78125 44.1875 
Q 44.96875 46.296875 41.140625 47.34375 
Q 37.3125 48.390625 33.40625 48.390625 
Q 24.65625 48.390625 19.8125 42.84375 
Q 14.984375 37.3125 14.984375 27.296875 
Q 14.984375 17.28125 19.8125 11.734375 
Q 24.65625 6.203125 33.40625 6.203125 
Q 37.3125 6.203125 41.140625 7.25 
Q 44.96875 8.296875 48.78125 10.40625 
L 48.78125 2.09375 
Q 45.015625 0.34375 40.984375 -0.53125 
Q 36.96875 -1.421875 32.421875 -1.421875 
Q 20.0625 -1.421875 12.78125 6.34375 
Q 5.515625 14.109375 5.515625 27.296875 
Q 5.515625 40.671875 12.859375 48.328125 
Q 20.21875 56 33.015625 56 
Q 37.15625 56 41.109375 55.140625 
Q 45.0625 54.296875 48.78125 52.59375 
z
" id="DejaVuSans-99"/>
    </defs>
    <g transform="translate(535.082379 122.589014)scale(0.16 -0.16)">
     <use xlink:href="#DejaVuSans-77"/>
     <use x="86.279297" xlink:href="#DejaVuSans-101"/>
     <use x="147.802734" xlink:href="#DejaVuSans-114"/>
     <use x="188.916016" xlink:href="#DejaVuSans-108"/>
     <use x="216.699219" xlink:href="#DejaVuSans-105"/>
     <use x="244.482422" xlink:href="#DejaVuSans-110"/>
     <use x="307.861328" xlink:href="#DejaVuSans-32"/>
     <use x="339.648438" xlink:href="#DejaVuSans-49"/>
     <use x="403.271484" xlink:href="#DejaVuSans-68"/>
     <use x="480.273438" xlink:href="#DejaVuSans-43"/>
     <use x="564.0625" xlink:href="#DejaVuSans-32"/>
     <use x="595.849609" xlink:href="#DejaVuSans-118"/>
     <use x="655.029297" xlink:href="#DejaVuSans-97"/>
     <use x="716.308594" xlink:href="#DejaVuSans-99"/>
    </g>
   </g>
   <g id="text_7">
    <!-- Merlin 1D+ vac -->
    <g transform="translate(535.082379 122.589014)scale(0.16 -0.16)">
     <use xlink:href="#DejaVuSans-77"/>
     <use x="86.279297" xlink:href="#DejaVuSans-101"/>
     <use x="147.802734" xlink:href="#DejaVuSans-114"/>
     <use x="188.916016" xlink:href="#DejaVuSans-108"/>
     <use x="216.699219" xlink:href="#DejaVuSans-105"/>
     <use x="244.482422" xlink:href="#DejaVuSans-110"/>
     <use x="307.861328" xlink:href="#DejaVuSans-32"/>
     <use x="339.648438" xlink:href="#DejaVuSans-49"/>
     <use x="403.271484" xlink:href="#DejaVuSans-68"/>
     <use x="480.273438" xlink:href="#DejaVuSans-43"/>
     <use x="564.0625" xlink:href="#DejaVuSans-32"/>
     <use x="595.849609" xlink:href="#DejaVuSans-118"/>
     <use x="655.029297" xlink:href="#DejaVuSans-97"/>
     <use x="716.308594" xlink:href="#DejaVuSans-99"/>
    </g>
   </g>
   <g id="text_8">
    <!-- Merlin 1D+ vac -->
    <g transform="translate(535.082379 122.589014)scale(0.16 -0.16)">
     <use xlink:href="#DejaVuSans-77"/>
     <use x="86.279297" xlink:href="#DejaVuSans-101"/>
     <use x="147.802734" xlink:href="#DejaVuSans-114"/>
     <use x="188.916016" xlink:href="#DejaVuSans-108"/>
     <use x="216.699219" xlink:href="#DejaVuSans-105"/>
     <use x="244.482422" xlink:href="#DejaVuSans-110"/>
     <use x="307.861328" xlink:href="#DejaVuSans-32"/>
     <use x="339.648438" xlink:href="#DejaVuSans-49"/>
     <use x="403.271484" xlink:href="#DejaVuSans-68"/>
     <use x="480.273438" xlink:href="#DejaVuSans-43"/>
     <use x="564.0625" xlink:href="#DejaVuSans-32"/>
     <use x="595.849609" xlink:href="#DejaVuSans-118"/>
     <use x="655.029297" xlink:href="#DejaVuSans-97"/>
     <use x="716.308594" xlink:href="#DejaVuSans-99"/>
    </g>
   </g>
   <g id="text_9">
    <!-- Merlin 1D+ vac -->
    <g transform="translate(535.082379 122.589014)scale(0.16 -0.16)">
     <use xlink:href="#DejaVuSans-77"/>
     <use x="86.279297" xlink:href="#DejaVuSans-101"/>
     <use x="147.802734" xlink:href="#DejaVuSans-114"/>
     <use x="188.916016" xlink:href="#DejaVuSans-108"/>
     <use x="216.699219" xlink:href="#DejaVuSans-105"/>
     <use x="244.482422" xlink:href="#DejaVuSans-110"/>
     <use x="307.861328" xlink:href="#DejaVuSans-32"/>
     <use x="339.648438" xlink:href="#DejaVuSans-49"/>
     <use x="403.271484" xlink:href="#DejaVuSans-68"/>
     <use x="480.273438" xlink:href="#DejaVuSans-43"/>
     <use x="564.0625" xlink:href="#DejaVuSans-32"/>
     <use x="595.849609" xlink:href="#DejaVuSans-118"/>
     <use x="655.029297" xlink:href="#DejaVuSans-97"/>
     <use x="716.308594" xlink:href="#DejaVuSans-99"/>
    </g>
   </g>
   <g id="text_10">
    <!-- Merlin 1D+ vac -->
    <g transform="translate(535.082379 122.589014)scale(0.16 -0.16)">
     <use xlink:href="#DejaVuSans-77"/>
     <use x="86.279297" xlink:href="#DejaVuSans-101"/>
     <use x="147.802734" xlink:href="#DejaVuSans-114"/>
     <use x="188.916016" xlink:href="#DejaVuSans-108"/>
     <use x="216.699219" xlink:href="#DejaVuSans-105"/>
     <use x="244.482422" xlink:href="#DejaVuSans-110"/>
     <use x="307.861328" xlink:href="#DejaVuSans-32"/>
     <use x="339.648438" xlink:href="#DejaVuSans-49"/>
     <use x="403.271484" xlink:href="#DejaVuSans-68"/>
     <use x="480.273438" xlink:href="#DejaVuSans-43"/>
     <use x="564.0625" xlink:href="#DejaVuSans-32"/>
     <use x="595.849609" xlink:href="#DejaVuSans-118"/>
     <use x="655.029297" xlink:href="#DejaVuSans-97"/>
     <use x="716.308594" xlink:href="#DejaVuSans-99"/>
    </g>
   </g>
   <g id="text_11">
    <!-- Vulcain II -->
    <defs>
     <path d="M 28.609375 0 
L 0.78125 72.90625 
L 11.078125 72.90625 
L 34.1875 11.53125 
L 57.328125 72.90625 
L 67.578125 72.90625 
L 39.796875 0 
z
" id="DejaVuSans-86"/>
     <path d="M 8.5 21.578125 
L 8.5 54.6875 
L 17.484375 54.6875 
L 17.484375 21.921875 
Q 17.484375 14.15625 20.5 10.265625 
Q 23.53125 6.390625 29.59375 6.390625 
Q 36.859375 6.390625 41.078125 11.03125 
Q 45.3125 15.671875 45.3125 23.6875 
L 45.3125 54.6875 
L 54.296875 54.6875 
L 54.296875 0 
L 45.3125 0 
L 45.3125 8.40625 
Q 42.046875 3.421875 37.71875 1 
Q 33.40625 -1.421875 27.6875 -1.421875 
Q 18.265625 -1.421875 13.375 4.4375 
Q 8.5 10.296875 8.5 21.578125 
z
M 31.109375 56 
z
" id="DejaVuSans-117"/>
     <path d="M 9.8125 72.90625 
L 19.671875 72.90625 
L 19.671875 0 
L 9.8125 0 
z
" id="DejaVuSans-73"/>
    </defs>
    <g transform="translate(796.927023 232.771215)scale(0.16 -0.16)">
     <use xlink:href="#DejaVuSans-86"/>
     <use x="61.658203" xlink:href="#DejaVuSans-117"/>
     <use x="125.037109" xlink:href="#DejaVuSans-108"/>
     <use x="152.820312" xlink:href="#DejaVuSans-99"/>
     <use x="207.800781" xlink:href="#DejaVuSans-97"/>
     <use x="269.080078" xlink:href="#DejaVuSans-105"/>
     <use x="296.863281" xlink:href="#DejaVuSans-110"/>
     <use x="360.242188" xlink:href="#DejaVuSans-32"/>
     <use x="392.029297" xlink:href="#DejaVuSans-73"/>
     <use x="421.521484" xlink:href="#DejaVuSans-73"/>
    </g>
   </g>
   <g id="text_12">
    <!-- Vulcain II -->
    <g transform="translate(796.927023 232.771215)scale(0.16 -0.16)">
     <use xlink:href="#DejaVuSans-86"/>
     <use x="61.658203" xlink:href="#DejaVuSans-117"/>
     <use x="125.037109" xlink:href="#DejaVuSans-108"/>
     <use x="152.820312" xlink:href="#DejaVuSans-99"/>
     <use x="207.800781" xlink:href="#DejaVuSans-97"/>
     <use x="269.080078" xlink:href="#DejaVuSans-105"/>
     <use x="296.863281" xlink:href="#DejaVuSans-110"/>
     <use x="360.242188" xlink:href="#DejaVuSans-32"/>
     <use x="392.029297" xlink:href="#DejaVuSans-73"/>
     <use x="421.521484" xlink:href="#DejaVuSans-73"/>
    </g>
   </g>
   <g id="text_13">
    <!-- Vulcain II -->
    <g transform="translate(796.927023 232.771215)scale(0.16 -0.16)">
     <use xlink:href="#DejaVuSans-86"/>
     <use x="61.658203" xlink:href="#DejaVuSans-117"/>
     <use x="125.037109" xlink:href="#DejaVuSans-108"/>
     <use x="152.820312" xlink:href="#DejaVuSans-99"/>
     <use x="207.800781" xlink:href="#DejaVuSans-97"/>
     <use x="269.080078" xlink:href="#DejaVuSans-105"/>
     <use x="296.863281" xlink:href="#DejaVuSans-110"/>
     <use x="360.242188" xlink:href="#DejaVuSans-32"/>
     <use x="392.029297" xlink:href="#DejaVuSans-73"/>
     <use x="421.521484" xlink:href="#DejaVuSans-73"/>
    </g>
   </g>
   <g id="text_14">
    <!-- Vulcain II -->
    <g transform="translate(796.927023 232.771215)scale(0.16 -0.16)">
     <use xlink:href="#DejaVuSans-86"/>
     <use x="61.658203" xlink:href="#DejaVuSans-117"/>
     <use x="125.037109" xlink:href="#DejaVuSans-108"/>
     <use x="152.820312" xlink:href="#DejaVuSans-99"/>
     <use x="207.800781" xlink:href="#DejaVuSans-97"/>
     <use x="269.080078" xlink:href="#DejaVuSans-105"/>
     <use x="296.863281" xlink:href="#DejaVuSans-110"/>
     <use x="360.242188" xlink:href="#DejaVuSans-32"/>
     <use x="392.029297" xlink:href="#DejaVuSans-73"/>
     <use x="421.521484" xlink:href="#DejaVuSans-73"/>
    </g>
   </g>
   <g id="text_15">
    <!-- Vulcain II -->
    <g transform="translate(796.927023 232.771215)scale(0.16 -0.16)">
     <use xlink:href="#DejaVuSans-86"/>
     <use x="61.658203" xlink:href="#DejaVuSans-117"/>
     <use x="125.037109" xlink:href="#DejaVuSans-108"/>
     <use x="152.820312" xlink:href="#DejaVuSans-99"/>
     <use x="207.800781" xlink:href="#DejaVuSans-97"/>
     <use x="269.080078" xlink:href="#DejaVuSans-105"/>
     <use x="296.863281" xlink:href="#DejaVuSans-110"/>
     <use x="360.242188" xlink:href="#DejaVuSans-32"/>
     <use x="392.029297" xlink:href="#DejaVuSans-73"/>
     <use x="421.521484" xlink:href="#DejaVuSans-73"/>
    </g>
   </g>
   <g id="text_16">
    <!-- J-2 -->
    <defs>
     <path d="M 9.8125 72.90625 
L 19.671875 72.90625 
L 19.671875 5.078125 
Q 19.671875 -8.109375 14.671875 -14.0625 
Q 9.671875 -20.015625 -1.421875 -20.015625 
L -5.171875 -20.015625 
L -5.171875 -11.71875 
L -2.09375 -11.71875 
Q 4.4375 -11.71875 7.125 -8.046875 
Q 9.8125 -4.390625 9.8125 5.078125 
z
" id="DejaVuSans-74"/>
     <path d="M 19.1875 8.296875 
L 53.609375 8.296875 
L 53.609375 0 
L 7.328125 0 
L 7.328125 8.296875 
Q 12.9375 14.109375 22.625 23.890625 
Q 32.328125 33.6875 34.8125 36.53125 
Q 39.546875 41.84375 41.421875 45.53125 
Q 43.3125 49.21875 43.3125 52.78125 
Q 43.3125 58.59375 39.234375 62.25 
Q 35.15625 65.921875 28.609375 65.921875 
Q 23.96875 65.921875 18.8125 64.3125 
Q 13.671875 62.703125 7.8125 59.421875 
L 7.8125 69.390625 
Q 13.765625 71.78125 18.9375 73 
Q 24.125 74.21875 28.421875 74.21875 
Q 39.75 74.21875 46.484375 68.546875 
Q 53.21875 62.890625 53.21875 53.421875 
Q 53.21875 48.921875 51.53125 44.890625 
Q 49.859375 40.875 45.40625 35.40625 
Q 44.1875 33.984375 37.640625 27.21875 
Q 31.109375 20.453125 19.1875 8.296875 
z
" id="DejaVuSans-50"/>
    </defs>
    <g transform="translate(1016.041163 262.930229)scale(0.16 -0.16)">
     <use xlink:href="#DejaVuSans-74"/>
     <use x="25.867188" xlink:href="#DejaVuSans-45"/>
     <use x="61.951172" xlink:href="#DejaVuSans-50"/>
    </g>
   </g>
   <g id="text_17">
    <!-- J-2 -->
    <g transform="translate(1016.041163 262.930229)scale(0.16 -0.16)">
     <use xlink:href="#DejaVuSans-74"/>
     <use x="25.867188" xlink:href="#DejaVuSans-45"/>
     <use x="61.951172" xlink:href="#DejaVuSans-50"/>
    </g>
   </g>
   <g id="text_18">
    <!-- J-2 -->
    <g transform="translate(1016.041163 262.930229)scale(0.16 -0.16)">
     <use xlink:href="#DejaVuSans-74"/>
     <use x="25.867188" xlink:href="#DejaVuSans-45"/>
     <use x="61.951172" xlink:href="#DejaVuSans-50"/>
    </g>
   </g>
   <g id="text_19">
    <!-- J-2 -->
    <g transform="translate(1016.041163 262.930229)scale(0.16 -0.16)">
     <use xlink:href="#DejaVuSans-74"/>
     <use x="25.867188" xlink:href="#DejaVuSans-45"/>
     <use x="61.951172" xlink:href="#DejaVuSans-50"/>
    </g>
   </g>
   <g id="text_20">
    <!-- J-2 -->
    <g transform="translate(1016.041163 262.930229)scale(0.16 -0.16)">
     <use xlink:href="#DejaVuSans-74"/>
     <use x="25.867188" xlink:href="#DejaVuSans-45"/>
     <use x="61.951172" xlink:href="#DejaVuSans-50"/>
    </g>
   </g>
   <g id="text_21">
    <!-- Merlin 1D+ -->
    <g transform="translate(1129.425448 358.667177)scale(0.16 -0.16)">
     <use xlink:href="#DejaVuSans-77"/>
     <use x="86.279297" xlink:href="#DejaVuSans-101"/>
     <use x="147.802734" xlink:href="#DejaVuSans-114"/>
     <use x="188.916016" xlink:href="#DejaVuSans-108"/>
     <use x="216.699219" xlink:href="#DejaVuSans-105"/>
     <use x="244.482422" xlink:href="#DejaVuSans-110"/>
     <use x="307.861328" xlink:href="#DejaVuSans-32"/>
     <use x="339.648438" xlink:href="#DejaVuSans-49"/>
     <use x="403.271484" xlink:href="#DejaVuSans-68"/>
     <use x="480.273438" xlink:href="#DejaVuSans-43"/>
    </g>
   </g>
   <g id="text_22">
    <!-- Merlin 1D+ -->
    <g transform="translate(1129.425448 358.667177)scale(0.16 -0.16)">
     <use xlink:href="#DejaVuSans-77"/>
     <use x="86.279297" xlink:href="#DejaVuSans-101"/>
     <use x="147.802734" xlink:href="#DejaVuSans-114"/>
     <use x="188.916016" xlink:href="#DejaVuSans-108"/>
     <use x="216.699219" xlink:href="#DejaVuSans-105"/>
     <use x="244.482422" xlink:href="#DejaVuSans-110"/>
     <use x="307.861328" xlink:href="#DejaVuSans-32"/>
     <use x="339.648438" xlink:href="#DejaVuSans-49"/>
     <use x="403.271484" xlink:href="#DejaVuSans-68"/>
     <use x="480.273438" xlink:href="#DejaVuSans-43"/>
    </g>
   </g>
   <g id="text_23">
    <!-- Merlin 1D+ -->
    <g transform="translate(1129.425448 358.667177)scale(0.16 -0.16)">
     <use xlink:href="#DejaVuSans-77"/>
     <use x="86.279297" xlink:href="#DejaVuSans-101"/>
     <use x="147.802734" xlink:href="#DejaVuSans-114"/>
     <use x="188.916016" xlink:href="#DejaVuSans-108"/>
     <use x="216.699219" xlink:href="#DejaVuSans-105"/>
     <use x="244.482422" xlink:href="#DejaVuSans-110"/>
     <use x="307.861328" xlink:href="#DejaVuSans-32"/>
     <use x="339.648438" xlink:href="#DejaVuSans-49"/>
     <use x="403.271484" xlink:href="#DejaVuSans-68"/>
     <use x="480.273438" xlink:href="#DejaVuSans-43"/>
    </g>
   </g>
   <g id="text_24">
    <!-- Merlin 1D+ -->
    <g transform="translate(1129.425448 358.667177)scale(0.16 -0.16)">
     <use xlink:href="#DejaVuSans-77"/>
     <use x="86.279297" xlink:href="#DejaVuSans-101"/>
     <use x="147.802734" xlink:href="#DejaVuSans-114"/>
     <use x="188.916016" xlink:href="#DejaVuSans-108"/>
     <use x="216.699219" xlink:href="#DejaVuSans-105"/>
     <use x="244.482422" xlink:href="#DejaVuSans-110"/>
     <use x="307.861328" xlink:href="#DejaVuSans-32"/>
     <use x="339.648438" xlink:href="#DejaVuSans-49"/>
     <use x="403.271484" xlink:href="#DejaVuSans-68"/>
     <use x="480.273438" xlink:href="#DejaVuSans-43"/>
    </g>
   </g>
   <g id="text_25">
    <!-- Merlin 1D+ -->
    <g transform="translate(1129.425448 358.667177)scale(0.16 -0.16)">
     <use xlink:href="#DejaVuSans-77"/>
     <use x="86.279297" xlink:href="#DejaVuSans-101"/>
     <use x="147.802734" xlink:href="#DejaVuSans-114"/>
     <use x="188.916016" xlink:href="#DejaVuSans-108"/>
     <use x="216.699219" xlink:href="#DejaVuSans-105"/>
     <use x="244.482422" xlink:href="#DejaVuSans-110"/>
     <use x="307.861328" xlink:href="#DejaVuSans-32"/>
     <use x="339.648438" xlink:href="#DejaVuSans-49"/>
     <use x="403.271484" xlink:href="#DejaVuSans-68"/>
     <use x="480.273438" xlink:href="#DejaVuSans-43"/>
    </g>
   </g>
   <g id="text_26">
    <!-- HM7B -->
    <defs>
     <path d="M 9.8125 72.90625 
L 19.671875 72.90625 
L 19.671875 43.015625 
L 55.515625 43.015625 
L 55.515625 72.90625 
L 65.375 72.90625 
L 65.375 0 
L 55.515625 0 
L 55.515625 34.71875 
L 19.671875 34.71875 
L 19.671875 0 
L 9.8125 0 
z
" id="DejaVuSans-72"/>
     <path d="M 8.203125 72.90625 
L 55.078125 72.90625 
L 55.078125 68.703125 
L 28.609375 0 
L 18.3125 0 
L 43.21875 64.59375 
L 8.203125 64.59375 
z
" id="DejaVuSans-55"/>
     <path d="M 19.671875 34.8125 
L 19.671875 8.109375 
L 35.5 8.109375 
Q 43.453125 8.109375 47.28125 11.40625 
Q 51.125 14.703125 51.125 21.484375 
Q 51.125 28.328125 47.28125 31.5625 
Q 43.453125 34.8125 35.5 34.8125 
z
M 19.671875 64.796875 
L 19.671875 42.828125 
L 34.28125 42.828125 
Q 41.5 42.828125 45.03125 45.53125 
Q 48.578125 48.25 48.578125 53.8125 
Q 48.578125 59.328125 45.03125 62.0625 
Q 41.5 64.796875 34.28125 64.796875 
z
M 9.8125 72.90625 
L 35.015625 72.90625 
Q 46.296875 72.90625 52.390625 68.21875 
Q 58.5 63.53125 58.5 54.890625 
Q 58.5 48.1875 55.375 44.234375 
Q 52.25 40.28125 46.1875 39.3125 
Q 53.46875 37.75 57.5 32.78125 
Q 61.53125 27.828125 61.53125 20.40625 
Q 61.53125 10.640625 54.890625 5.3125 
Q 48.25 0 35.984375 0 
L 9.8125 0 
z
" id="DejaVuSans-66"/>
    </defs>
    <g transform="translate(1261.907068 363.727198)scale(0.16 -0.16)">
     <use xlink:href="#DejaVuSans-72"/>
     <use x="75.195312" xlink:href="#DejaVuSans-77"/>
     <use x="161.474609" xlink:href="#DejaVuSans-55"/>
     <use x="225.097656" xlink:href="#DejaVuSans-66"/>
    </g>
   </g>
   <g id="text_27">
    <!-- HM7B -->
    <g transform="translate(1261.907068 363.727198)scale(0.16 -0.16)">
     <use xlink:href="#DejaVuSans-72"/>
     <use x="75.195312" xlink:href="#DejaVuSans-77"/>
     <use x="161.474609" xlink:href="#DejaVuSans-55"/>
     <use x="225.097656" xlink:href="#DejaVuSans-66"/>
    </g>
   </g>
   <g id="text_28">
    <!-- HM7B -->
    <g transform="translate(1261.907068 363.727198)scale(0.16 -0.16)">
     <use xlink:href="#DejaVuSans-72"/>
     <use x="75.195312" xlink:href="#DejaVuSans-77"/>
     <use x="161.474609" xlink:href="#DejaVuSans-55"/>
     <use x="225.097656" xlink:href="#DejaVuSans-66"/>
    </g>
   </g>
   <g id="text_29">
    <!-- HM7B -->
    <g transform="translate(1261.907068 363.727198)scale(0.16 -0.16)">
     <use xlink:href="#DejaVuSans-72"/>
     <use x="75.195312" xlink:href="#DejaVuSans-77"/>
     <use x="161.474609" xlink:href="#DejaVuSans-55"/>
     <use x="225.097656" xlink:href="#DejaVuSans-66"/>
    </g>
   </g>
   <g id="text_30">
    <!-- HM7B -->
    <g transform="translate(1261.907068 363.727198)scale(0.16 -0.16)">
     <use xlink:href="#DejaVuSans-72"/>
     <use x="75.195312" xlink:href="#DejaVuSans-77"/>
     <use x="161.474609" xlink:href="#DejaVuSans-55"/>
     <use x="225.097656" xlink:href="#DejaVuSans-66"/>
    </g>
   </g>
  </g>
 </g>
 <defs>
  <clipPath id="pa41b550220">
   <rect height="477.845386" width="1296" x="86.4" y="49.077307"/>
  </clipPath>
 </defs>
</svg>
