<?xml version="1.0" encoding="utf-8" standalone="no"?>
<!DOCTYPE svg PUBLIC "-//W3C//DTD SVG 1.1//EN"
  "http://www.w3.org/Graphics/SVG/1.1/DTD/svg11.dtd">
<!-- Created with matplotlib (https://matplotlib.org/) -->
<svg height="576pt" version="1.1" viewBox="0 0 1440 576" width="1440pt" xmlns="http://www.w3.org/2000/svg" xmlns:xlink="http://www.w3.org/1999/xlink">
 <defs>
  <style type="text/css">
*{stroke-linecap:butt;stroke-linejoin:round;}
  </style>
 </defs>
 <g id="figure_1">
  <g id="patch_1">
   <path d="M 0 576 
L 1440 576 
L 1440 0 
L 0 0 
z
" style="fill:#ffffff;"/>
  </g>
  <g id="axes_1">
   <g id="line2d_1">
    <path clip-path="url(#p15ec12cf53)" d="M 294.799436 68.635368 
L 359.073344 68.635368 
L 359.073344 107.675758 
" style="fill:none;stroke:#000000;stroke-linecap:square;stroke-width:1.5;"/>
   </g>
   <g id="line2d_2">
    <path clip-path="url(#p15ec12cf53)" d="M 294.799436 68.635368 
L 230.525527 68.635368 
L 230.525527 107.675758 
" style="fill:none;stroke:#000000;stroke-linecap:square;stroke-width:1.5;"/>
   </g>
   <g id="line2d_3">
    <path clip-path="url(#p15ec12cf53)" d="M 348.591288 132.981681 
L 348.993636 132.572831 
L 349.389381 132.157585 
L 349.778418 131.736049 
L 350.16065 131.308332 
L 350.535977 130.874543 
L 350.904303 130.434794 
L 351.265534 129.989199 
L 351.619576 129.53787 
L 351.966339 129.080926 
L 352.305734 128.618482 
L 352.637673 128.150658 
L 352.962071 127.677573 
L 353.278845 127.19935 
L 353.587913 126.716111 
L 353.889196 126.227981 
L 354.182617 125.735084 
L 354.468101 125.237548 
L 354.745573 124.7355 
L 355.014963 124.229069 
L 355.276201 123.718385 
L 355.52922 123.20358 
L 355.773956 122.684786 
L 356.010345 122.162136 
L 356.238327 121.635764 
L 356.457843 121.105806 
L 356.668836 120.572397 
L 356.871253 120.035676 
L 357.065042 119.495778 
L 357.250152 118.952844 
L 357.426537 118.407013 
L 357.59415 117.858425 
L 357.752949 117.307221 
L 357.902894 116.753543 
L 358.043944 116.197532 
L 358.176065 115.639333 
L 358.299222 115.079087 
L 358.413384 114.516939 
L 358.518521 113.953034 
L 358.614606 113.387516 
L 358.701615 112.82053 
L 358.779526 112.252223 
L 358.848317 111.68274 
L 358.907972 111.112228 
L 358.958475 110.540833 
L 358.999814 109.968702 
L 359.031977 109.395981 
L 359.054957 108.822819 
L 359.068747 108.249362 
L 359.073344 107.675758 
" style="fill:none;stroke:#000000;stroke-linecap:square;stroke-width:1.5;"/>
   </g>
   <g id="line2d_4">
    <path clip-path="url(#p15ec12cf53)" d="M 241.007584 132.981681 
L 240.605235 132.572831 
L 240.209491 132.157585 
L 239.820453 131.736049 
L 239.438222 131.308332 
L 239.062895 130.874543 
L 238.694568 130.434794 
L 238.333338 129.989199 
L 237.979296 129.53787 
L 237.632533 129.080926 
L 237.293138 128.618482 
L 236.961199 128.150658 
L 236.636801 127.677573 
L 236.320027 127.19935 
L 236.010959 126.716111 
L 235.709675 126.227981 
L 235.416254 125.735084 
L 235.130771 125.237548 
L 234.853299 124.7355 
L 234.583909 124.229069 
L 234.322671 123.718385 
L 234.069651 123.20358 
L 233.824916 122.684786 
L 233.588527 122.162136 
L 233.360545 121.635764 
L 233.141029 121.105806 
L 232.930035 120.572397 
L 232.727618 120.035676 
L 232.533829 119.495778 
L 232.348719 118.952844 
L 232.172335 118.407013 
L 232.004721 117.858425 
L 231.845922 117.307221 
L 231.695978 116.753543 
L 231.554927 116.197532 
L 231.422807 115.639333 
L 231.299649 115.079087 
L 231.185488 114.516939 
L 231.080351 113.953034 
L 230.984265 113.387516 
L 230.897256 112.82053 
L 230.819346 112.252223 
L 230.750554 111.68274 
L 230.690899 111.112228 
L 230.640396 110.540833 
L 230.599057 109.968702 
L 230.566894 109.395981 
L 230.543914 108.822819 
L 230.530124 108.249362 
L 230.525527 107.675758 
" style="fill:none;stroke:#000000;stroke-linecap:square;stroke-width:1.5;"/>
   </g>
   <g id="line2d_5">
    <path clip-path="url(#p15ec12cf53)" d="M 348.591288 132.981681 
L 346.987043 134.653649 
L 345.453264 136.390484 
L 343.992569 138.189219 
L 342.607454 140.04678 
L 341.300287 141.959994 
L 340.073299 143.925593 
L 338.928588 145.940218 
L 337.86811 148.000427 
L 336.893675 150.1027 
L 336.006949 152.243446 
L 335.209447 154.419007 
L 334.502531 156.625666 
L 333.887409 158.859654 
L 333.365132 161.117153 
L 332.936592 163.394307 
L 332.602522 165.687225 
L 332.363491 167.99199 
L 332.21991 170.304663 
L 332.172022 172.621295 
" style="fill:none;stroke:#000000;stroke-linecap:square;stroke-width:1.5;"/>
   </g>
   <g id="line2d_6">
    <path clip-path="url(#p15ec12cf53)" d="M 241.007584 132.981681 
L 242.611828 134.653649 
L 244.145608 136.390484 
L 245.606303 138.189219 
L 246.991417 140.04678 
L 248.298585 141.959994 
L 249.525572 143.925593 
L 250.670283 145.940218 
L 251.730762 148.000427 
L 252.705197 150.1027 
L 253.591923 152.243446 
L 254.389425 154.419007 
L 255.096341 156.625666 
L 255.711463 158.859654 
L 256.23374 161.117153 
L 256.662279 163.394307 
L 256.99635 165.687225 
L 257.23538 167.99199 
L 257.378962 170.304663 
L 257.42685 172.621295 
" style="fill:none;stroke:#000000;stroke-linecap:square;stroke-width:1.5;"/>
   </g>
   <g id="line2d_7">
    <path clip-path="url(#p15ec12cf53)" d="M 332.172022 172.621295 
L 332.172635 172.753568 
L 332.174473 172.885829 
L 332.177537 173.018068 
L 332.181825 173.150272 
L 332.187339 173.282431 
L 332.194076 173.414534 
L 332.202038 173.546568 
L 332.211222 173.678523 
L 332.221629 173.810387 
L 332.233256 173.942149 
L 332.246104 174.073797 
L 332.260172 174.205321 
L 332.275457 174.336709 
L 332.291959 174.46795 
L 332.309676 174.599032 
L 332.328607 174.729945 
L 332.34875 174.860676 
L 332.370104 174.991215 
L 332.392666 175.121551 
L 332.416434 175.251672 
L 332.441407 175.381567 
L 332.467583 175.511225 
L 332.494959 175.640635 
L 332.523532 175.769786 
L 332.553301 175.898667 
L 332.584263 176.027266 
L 332.616415 176.155573 
L 332.649755 176.283577 
L 332.684279 176.411266 
L 332.719984 176.53863 
L 332.756868 176.665658 
L 332.794928 176.792338 
L 332.834159 176.91866 
L 332.874559 177.044614 
L 332.916125 177.170187 
L 332.958852 177.29537 
L 333.002737 177.420152 
L 333.047776 177.544522 
L 333.093966 177.66847 
L 333.141302 177.791984 
L 333.189781 177.915054 
L 333.239397 178.03767 
L 333.290148 178.15982 
L 333.342028 178.281496 
L 333.395033 178.402685 
L 333.449159 178.523378 
L 333.504401 178.643565 
L 333.560754 178.763234 
L 333.618213 178.882376 
" style="fill:none;stroke:#000000;stroke-linecap:square;stroke-width:1.5;"/>
   </g>
   <g id="line2d_8">
    <path clip-path="url(#p15ec12cf53)" d="M 257.42685 172.621295 
L 257.426237 172.753568 
L 257.424398 172.885829 
L 257.421335 173.018068 
L 257.417046 173.150272 
L 257.411533 173.282431 
L 257.404795 173.414534 
L 257.396834 173.546568 
L 257.387649 173.678523 
L 257.377243 173.810387 
L 257.365615 173.942149 
L 257.352767 174.073797 
L 257.3387 174.205321 
L 257.323415 174.336709 
L 257.306913 174.46795 
L 257.289195 174.599032 
L 257.270264 174.729945 
L 257.250121 174.860676 
L 257.228768 174.991215 
L 257.206206 175.121551 
L 257.182437 175.251672 
L 257.157464 175.381567 
L 257.131289 175.511225 
L 257.103913 175.640635 
L 257.075339 175.769786 
L 257.04557 175.898667 
L 257.014608 176.027266 
L 256.982456 176.155573 
L 256.949117 176.283577 
L 256.914593 176.411266 
L 256.878887 176.53863 
L 256.842003 176.665658 
L 256.803944 176.792338 
L 256.764712 176.91866 
L 256.724312 177.044614 
L 256.682747 177.170187 
L 256.64002 177.29537 
L 256.596135 177.420152 
L 256.551095 177.544522 
L 256.504905 177.66847 
L 256.457569 177.791984 
L 256.409091 177.915054 
L 256.359474 178.03767 
L 256.308724 178.15982 
L 256.256843 178.281496 
L 256.203838 178.402685 
L 256.149712 178.523378 
L 256.09447 178.643565 
L 256.038117 178.763234 
L 255.980658 178.882376 
" style="fill:none;stroke:#000000;stroke-linecap:square;stroke-width:1.5;"/>
   </g>
   <g id="line2d_9">
    <path clip-path="url(#p15ec12cf53)" d="M 333.618213 178.882376 
L 337.051911 185.961027 
L 340.436647 193.024055 
L 343.772421 200.071461 
L 347.059232 207.103245 
L 350.297081 214.119407 
L 353.485967 221.119947 
L 356.625891 228.104865 
L 359.716854 235.07416 
L 362.758853 242.027834 
L 365.751891 248.965885 
L 368.695966 255.888314 
L 371.591079 262.795121 
L 374.43723 269.686306 
L 377.234418 276.561869 
L 379.982644 283.42181 
L 382.681908 290.266128 
L 385.33221 297.094825 
L 387.933549 303.907899 
L 390.485926 310.705351 
L 392.989341 317.487182 
L 395.443793 324.25339 
L 397.849284 331.003975 
L 400.205812 337.738939 
L 402.513377 344.458281 
L 404.771981 351.162 
L 406.981622 357.850098 
L 409.142301 364.522573 
L 411.254017 371.179426 
L 413.316772 377.820657 
L 415.330564 384.446266 
L 417.295393 391.056253 
L 419.211261 397.650618 
L 421.078166 404.22936 
L 422.896109 410.792481 
L 424.66509 417.339979 
L 426.385108 423.871855 
L 428.056164 430.388109 
L 429.678258 436.888741 
L 431.25139 443.373751 
L 432.775559 449.843139 
L 434.250766 456.296904 
L 435.677011 462.735048 
L 437.054293 469.157569 
L 438.382614 475.564468 
L 439.661972 481.955745 
L 440.892367 488.3314 
L 442.073801 494.691433 
L 443.206272 501.035844 
L 444.289781 507.364632 
" style="fill:none;stroke:#000000;stroke-linecap:square;stroke-width:1.5;"/>
   </g>
   <g id="line2d_10">
    <path clip-path="url(#p15ec12cf53)" d="M 255.980658 178.882376 
L 252.54696 185.961027 
L 249.162224 193.024055 
L 245.826451 200.071461 
L 242.53964 207.103245 
L 239.301791 214.119407 
L 236.112904 221.119947 
L 232.97298 228.104865 
L 229.882018 235.07416 
L 226.840018 242.027834 
L 223.846981 248.965885 
L 220.902905 255.888314 
L 218.007792 262.795121 
L 215.161642 269.686306 
L 212.364453 276.561869 
L 209.616227 283.42181 
L 206.916963 290.266128 
L 204.266662 297.094825 
L 201.665322 303.907899 
L 199.112945 310.705351 
L 196.609531 317.487182 
L 194.155078 324.25339 
L 191.749588 331.003975 
L 189.39306 337.738939 
L 187.085494 344.458281 
L 184.826891 351.162 
L 182.61725 357.850098 
L 180.456571 364.522573 
L 178.344854 371.179426 
L 176.2821 377.820657 
L 174.268308 384.446266 
L 172.303478 391.056253 
L 170.387611 397.650618 
L 168.520705 404.22936 
L 166.702762 410.792481 
L 164.933782 417.339979 
L 163.213763 423.871855 
L 161.542707 430.388109 
L 159.920613 436.888741 
L 158.347482 443.373751 
L 156.823312 449.843139 
L 155.348105 456.296904 
L 153.921861 462.735048 
L 152.544578 469.157569 
L 151.216258 475.564468 
L 149.9369 481.955745 
L 148.706504 488.3314 
L 147.525071 494.691433 
L 146.3926 501.035844 
L 145.309091 507.364632 
" style="fill:none;stroke:#000000;stroke-linecap:square;stroke-width:1.5;"/>
   </g>
   <g id="line2d_11">
    <path clip-path="url(#p15ec12cf53)" d="M 596.188882 136.472007 
L 612.59692 136.472007 
L 612.59692 162.724301 
" style="fill:none;stroke:#000000;stroke-linecap:square;stroke-width:1.5;"/>
   </g>
   <g id="line2d_12">
    <path clip-path="url(#p15ec12cf53)" d="M 596.188882 136.472007 
L 579.780845 136.472007 
L 579.780845 162.724301 
" style="fill:none;stroke:#000000;stroke-linecap:square;stroke-width:1.5;"/>
   </g>
   <g id="line2d_13">
    <path clip-path="url(#p15ec12cf53)" d="M 609.51271 170.170243 
L 609.631096 170.049944 
L 609.747539 169.927763 
L 609.862008 169.803731 
L 609.974475 169.677881 
L 610.08491 169.550244 
L 610.193285 169.420854 
L 610.299572 169.289743 
L 610.403745 169.156946 
L 610.505775 169.022496 
L 610.605638 168.886428 
L 610.703306 168.748776 
L 610.798756 168.609577 
L 610.891963 168.468866 
L 610.982902 168.32668 
L 611.071551 168.183054 
L 611.157887 168.038025 
L 611.241886 167.891631 
L 611.323529 167.74391 
L 611.402793 167.5949 
L 611.479659 167.444638 
L 611.554107 167.293163 
L 611.626117 167.140514 
L 611.695672 166.986731 
L 611.762753 166.831853 
L 611.827342 166.67592 
L 611.889424 166.518971 
L 611.948983 166.361048 
L 612.006003 166.20219 
L 612.060469 166.042439 
L 612.112368 165.881835 
L 612.161686 165.72042 
L 612.208411 165.558235 
L 612.25253 165.395323 
L 612.294032 165.231724 
L 612.332907 165.06748 
L 612.369144 164.902635 
L 612.402735 164.737231 
L 612.43367 164.571309 
L 612.461942 164.404912 
L 612.487543 164.238084 
L 612.510467 164.070867 
L 612.530708 163.903304 
L 612.548261 163.735438 
L 612.563121 163.567313 
L 612.575285 163.398971 
L 612.584748 163.230455 
L 612.59151 163.061809 
L 612.595567 162.893077 
L 612.59692 162.724301 
" style="fill:none;stroke:#000000;stroke-linecap:square;stroke-width:1.5;"/>
   </g>
   <g id="line2d_14">
    <path clip-path="url(#p15ec12cf53)" d="M 582.865055 170.170243 
L 582.746669 170.049944 
L 582.630226 169.927763 
L 582.515757 169.803731 
L 582.40329 169.677881 
L 582.292855 169.550244 
L 582.18448 169.420854 
L 582.078192 169.289743 
L 581.97402 169.156946 
L 581.871989 169.022496 
L 581.772127 168.886428 
L 581.674458 168.748776 
L 581.579008 168.609577 
L 581.485802 168.468866 
L 581.394862 168.32668 
L 581.306213 168.183054 
L 581.219878 168.038025 
L 581.135878 167.891631 
L 581.054236 167.74391 
L 580.974971 167.5949 
L 580.898105 167.444638 
L 580.823658 167.293163 
L 580.751647 167.140514 
L 580.682093 166.986731 
L 580.615012 166.831853 
L 580.550422 166.67592 
L 580.48834 166.518971 
L 580.428782 166.361048 
L 580.371762 166.20219 
L 580.317296 166.042439 
L 580.265397 165.881835 
L 580.216079 165.72042 
L 580.169354 165.558235 
L 580.125235 165.395323 
L 580.083733 165.231724 
L 580.044858 165.06748 
L 580.00862 164.902635 
L 579.97503 164.737231 
L 579.944095 164.571309 
L 579.915823 164.404912 
L 579.890221 164.238084 
L 579.867297 164.070867 
L 579.847056 163.903304 
L 579.829504 163.735438 
L 579.814644 163.567313 
L 579.80248 163.398971 
L 579.793017 163.230455 
L 579.786255 163.061809 
L 579.782198 162.893077 
L 579.780845 162.724301 
" style="fill:none;stroke:#000000;stroke-linecap:square;stroke-width:1.5;"/>
   </g>
   <g id="line2d_15">
    <path clip-path="url(#p15ec12cf53)" d="M 609.51271 170.170243 
L 609.115351 170.584376 
L 608.735446 171.014577 
L 608.373643 171.46011 
L 608.030561 171.920213 
L 607.706785 172.394102 
L 607.40287 172.880965 
L 607.119334 173.379972 
L 606.856661 173.89027 
L 606.615301 174.410987 
L 606.395666 174.941233 
L 606.198131 175.480103 
L 606.023033 176.026676 
L 605.870672 176.580017 
L 605.741308 177.139182 
L 605.635162 177.703216 
L 605.552416 178.271154 
L 605.49321 178.842027 
L 605.457646 179.414858 
L 605.445784 179.98867 
" style="fill:none;stroke:#000000;stroke-linecap:square;stroke-width:1.5;"/>
   </g>
   <g id="line2d_16">
    <path clip-path="url(#p15ec12cf53)" d="M 582.865055 170.170243 
L 583.262414 170.584376 
L 583.642319 171.014577 
L 584.004122 171.46011 
L 584.347204 171.920213 
L 584.67098 172.394102 
L 584.974895 172.880965 
L 585.258431 173.379972 
L 585.521103 173.89027 
L 585.762463 174.410987 
L 585.982099 174.941233 
L 586.179634 175.480103 
L 586.354731 176.026676 
L 586.507092 176.580017 
L 586.636456 177.139182 
L 586.742602 177.703216 
L 586.825349 178.271154 
L 586.884555 178.842027 
L 586.920119 179.414858 
L 586.93198 179.98867 
" style="fill:none;stroke:#000000;stroke-linecap:square;stroke-width:1.5;"/>
   </g>
   <g id="line2d_17">
    <path clip-path="url(#p15ec12cf53)" d="M 605.445784 179.98867 
L 605.446043 180.031463 
L 605.44682 180.07425 
L 605.448115 180.117025 
L 605.449927 180.159781 
L 605.452256 180.202512 
L 605.455102 180.245211 
L 605.458465 180.287873 
L 605.462344 180.330491 
L 605.466739 180.373059 
L 605.471648 180.415571 
L 605.477071 180.45802 
L 605.483008 180.5004 
L 605.489457 180.542706 
L 605.496417 180.58493 
L 605.503888 180.627067 
L 605.511869 180.669111 
L 605.520357 180.711055 
L 605.529353 180.752893 
L 605.538854 180.794619 
L 605.54886 180.836227 
L 605.559368 180.877711 
L 605.570378 180.919065 
L 605.581887 180.960282 
L 605.593894 181.001357 
L 605.606397 181.042284 
L 605.619395 181.083057 
L 605.632885 181.123669 
L 605.646866 181.164115 
L 605.661335 181.204389 
L 605.676291 181.244485 
L 605.69173 181.284397 
L 605.707652 181.324119 
L 605.724053 181.363646 
L 605.740931 181.402971 
L 605.758284 181.442089 
L 605.776109 181.480994 
L 605.794403 181.519681 
L 605.813165 181.558143 
L 605.83239 181.596376 
L 605.852077 181.634373 
L 605.872222 181.672129 
L 605.892822 181.709638 
L 605.913875 181.746896 
L 605.935377 181.783896 
L 605.957326 181.820633 
L 605.979717 181.857101 
L 606.002549 181.893296 
L 606.025816 181.929213 
L 606.049516 181.964845 
" style="fill:none;stroke:#000000;stroke-linecap:square;stroke-width:1.5;"/>
   </g>
   <g id="line2d_18">
    <path clip-path="url(#p15ec12cf53)" d="M 586.93198 179.98867 
L 586.931722 180.031463 
L 586.930945 180.07425 
L 586.92965 180.117025 
L 586.927838 180.159781 
L 586.925509 180.202512 
L 586.922662 180.245211 
L 586.919299 180.287873 
L 586.915421 180.330491 
L 586.911026 180.373059 
L 586.906117 180.415571 
L 586.900694 180.45802 
L 586.894757 180.5004 
L 586.888308 180.542706 
L 586.881348 180.58493 
L 586.873876 180.627067 
L 586.865896 180.669111 
L 586.857407 180.711055 
L 586.848412 180.752893 
L 586.838911 180.794619 
L 586.828905 180.836227 
L 586.818397 180.877711 
L 586.807387 180.919065 
L 586.795878 180.960282 
L 586.783871 181.001357 
L 586.771367 181.042284 
L 586.75837 181.083057 
L 586.744879 181.123669 
L 586.730899 181.164115 
L 586.71643 181.204389 
L 586.701474 181.244485 
L 586.686034 181.284397 
L 586.670113 181.324119 
L 586.653712 181.363646 
L 586.636834 181.402971 
L 586.619481 181.442089 
L 586.601656 181.480994 
L 586.583361 181.519681 
L 586.5646 181.558143 
L 586.545375 181.596376 
L 586.525688 181.634373 
L 586.505543 181.672129 
L 586.484942 181.709638 
L 586.46389 181.746896 
L 586.442387 181.783896 
L 586.420439 181.820633 
L 586.398047 181.857101 
L 586.375216 181.893296 
L 586.351949 181.929213 
L 586.328248 181.964845 
" style="fill:none;stroke:#000000;stroke-linecap:square;stroke-width:1.5;"/>
   </g>
   <g id="line2d_19">
    <path clip-path="url(#p15ec12cf53)" d="M 606.049516 181.964845 
L 609.474658 187.115474 
L 612.849812 192.328195 
L 616.174979 197.603007 
L 619.450158 202.93991 
L 622.675349 208.338903 
L 625.850552 213.799988 
L 628.975768 219.323163 
L 632.050996 224.90843 
L 635.076236 230.555787 
L 638.051489 236.265235 
L 640.976754 242.036774 
L 643.852031 247.870405 
L 646.67732 253.766125 
L 649.452622 259.723937 
L 652.177936 265.74384 
L 654.853263 271.825834 
L 657.478602 277.969919 
L 660.053953 284.176094 
L 662.579316 290.444361 
L 665.054692 296.774718 
L 667.48008 303.167166 
L 669.85548 309.621706 
L 672.180893 316.138336 
L 674.456317 322.717057 
L 676.681755 329.357869 
L 678.857204 336.060772 
L 680.982666 342.825766 
L 683.05814 349.65285 
L 685.083627 356.542026 
L 687.059125 363.493293 
L 688.984636 370.50665 
L 690.86016 377.582099 
L 692.685696 384.719638 
L 694.461244 391.919268 
L 696.186804 399.180989 
L 697.862376 406.504801 
L 699.487961 413.890704 
L 701.063559 421.338698 
L 702.589168 428.848783 
L 704.06479 436.420959 
L 705.490424 444.055226 
L 706.86607 451.751583 
L 708.191729 459.510032 
L 709.4674 467.330571 
L 710.693084 475.213202 
L 711.868779 483.157923 
L 712.994487 491.164735 
L 714.070208 499.233638 
L 715.09594 507.364632 
" style="fill:none;stroke:#000000;stroke-linecap:square;stroke-width:1.5;"/>
   </g>
   <g id="line2d_20">
    <path clip-path="url(#p15ec12cf53)" d="M 586.328248 181.964845 
L 582.903106 187.115474 
L 579.527952 192.328195 
L 576.202786 197.603007 
L 572.927607 202.93991 
L 569.702416 208.338903 
L 566.527213 213.799988 
L 563.401997 219.323163 
L 560.326769 224.90843 
L 557.301529 230.555787 
L 554.326276 236.265235 
L 551.401011 242.036774 
L 548.525734 247.870405 
L 545.700444 253.766125 
L 542.925143 259.723937 
L 540.199828 265.74384 
L 537.524502 271.825834 
L 534.899163 277.969919 
L 532.323812 284.176094 
L 529.798449 290.444361 
L 527.323073 296.774718 
L 524.897685 303.167166 
L 522.522285 309.621706 
L 520.196872 316.138336 
L 517.921447 322.717057 
L 515.69601 329.357869 
L 513.52056 336.060772 
L 511.395099 342.825766 
L 509.319625 349.65285 
L 507.294138 356.542026 
L 505.318639 363.493293 
L 503.393128 370.50665 
L 501.517605 377.582099 
L 499.692069 384.719638 
L 497.916521 391.919268 
L 496.190961 399.180989 
L 494.515388 406.504801 
L 492.889803 413.890704 
L 491.314206 421.338698 
L 489.788597 428.848783 
L 488.312975 436.420959 
L 486.887341 444.055226 
L 485.511694 451.751583 
L 484.186035 459.510032 
L 482.910364 467.330571 
L 481.684681 475.213202 
L 480.508985 483.157923 
L 479.383277 491.164735 
L 478.307557 499.233638 
L 477.281825 507.364632 
" style="fill:none;stroke:#000000;stroke-linecap:square;stroke-width:1.5;"/>
   </g>
   <g id="line2d_21">
    <path clip-path="url(#p15ec12cf53)" d="M 832.633172 246.835698 
L 852.417458 246.835698 
L 852.417458 267.02205 
" style="fill:none;stroke:#000000;stroke-linecap:square;stroke-width:1.5;"/>
   </g>
   <g id="line2d_22">
    <path clip-path="url(#p15ec12cf53)" d="M 832.633172 246.835698 
L 812.848885 246.835698 
L 812.848885 267.02205 
" style="fill:none;stroke:#000000;stroke-linecap:square;stroke-width:1.5;"/>
   </g>
   <g id="line2d_23">
    <path clip-path="url(#p15ec12cf53)" d="M 848.584275 276.276172 
L 848.73141 276.12666 
L 848.87613 275.974808 
L 849.018397 275.820657 
L 849.158176 275.664245 
L 849.295429 275.505613 
L 849.430122 275.344801 
L 849.56222 275.181851 
L 849.69169 275.016805 
L 849.818498 274.849705 
L 849.942611 274.680594 
L 850.063998 274.509515 
L 850.182627 274.336513 
L 850.298468 274.161632 
L 850.411491 273.984916 
L 850.521668 273.806412 
L 850.628969 273.626165 
L 850.733367 273.444221 
L 850.834836 273.260627 
L 850.933349 273.07543 
L 851.028881 272.888678 
L 851.121408 272.700419 
L 851.210905 272.510701 
L 851.29735 272.319573 
L 851.380721 272.127084 
L 851.460996 271.933284 
L 851.538154 271.738222 
L 851.612176 271.541948 
L 851.683042 271.344513 
L 851.750735 271.145968 
L 851.815237 270.946363 
L 851.876532 270.74575 
L 851.934603 270.54418 
L 851.989436 270.341705 
L 852.041017 270.138378 
L 852.089332 269.93425 
L 852.13437 269.729373 
L 852.176117 269.523802 
L 852.214565 269.317587 
L 852.249702 269.110783 
L 852.281521 268.903442 
L 852.310012 268.695618 
L 852.335168 268.487364 
L 852.356983 268.278733 
L 852.375452 268.069779 
L 852.390569 267.860557 
L 852.402331 267.651119 
L 852.410734 267.441519 
L 852.415777 267.231812 
L 852.417458 267.02205 
" style="fill:none;stroke:#000000;stroke-linecap:square;stroke-width:1.5;"/>
   </g>
   <g id="line2d_24">
    <path clip-path="url(#p15ec12cf53)" d="M 816.682068 276.276172 
L 816.534933 276.12666 
L 816.390213 275.974808 
L 816.247946 275.820657 
L 816.108168 275.664245 
L 815.970914 275.505613 
L 815.836221 275.344801 
L 815.704123 275.181851 
L 815.574653 275.016805 
L 815.447845 274.849705 
L 815.323732 274.680594 
L 815.202346 274.509515 
L 815.083716 274.336513 
L 814.967875 274.161632 
L 814.854852 273.984916 
L 814.744676 273.806412 
L 814.637375 273.626165 
L 814.532976 273.444221 
L 814.431508 273.260627 
L 814.332994 273.07543 
L 814.237462 272.888678 
L 814.144936 272.700419 
L 814.055438 272.510701 
L 813.968993 272.319573 
L 813.885622 272.127084 
L 813.805348 271.933284 
L 813.728189 271.738222 
L 813.654168 271.541948 
L 813.583301 271.344513 
L 813.515608 271.145968 
L 813.451106 270.946363 
L 813.389811 270.74575 
L 813.33174 270.54418 
L 813.276907 270.341705 
L 813.225326 270.138378 
L 813.177011 269.93425 
L 813.131974 269.729373 
L 813.090226 269.523802 
L 813.051778 269.317587 
L 813.016641 269.110783 
L 812.984823 268.903442 
L 812.956332 268.695618 
L 812.931175 268.487364 
L 812.90936 268.278733 
L 812.890891 268.069779 
L 812.875774 267.860557 
L 812.864012 267.651119 
L 812.855609 267.441519 
L 812.850566 267.231812 
L 812.848885 267.02205 
" style="fill:none;stroke:#000000;stroke-linecap:square;stroke-width:1.5;"/>
   </g>
   <g id="line2d_25">
    <path clip-path="url(#p15ec12cf53)" d="M 848.584275 276.276172 
L 848.108563 276.771967 
L 847.653745 277.286998 
L 847.2206 277.820383 
L 846.809866 278.371213 
L 846.422247 278.938546 
L 846.058404 279.521412 
L 845.718958 280.118817 
L 845.40449 280.729738 
L 845.115538 281.353133 
L 844.852593 281.987937 
L 844.616107 282.633064 
L 844.406482 283.287414 
L 844.224078 283.949867 
L 844.069205 284.619291 
L 843.942129 285.294545 
L 843.843066 285.974472 
L 843.772185 286.657913 
L 843.729608 287.343699 
L 843.715408 288.030659 
" style="fill:none;stroke:#000000;stroke-linecap:square;stroke-width:1.5;"/>
   </g>
   <g id="line2d_26">
    <path clip-path="url(#p15ec12cf53)" d="M 816.682068 276.276172 
L 817.15778 276.771967 
L 817.612598 277.286998 
L 818.045744 277.820383 
L 818.456477 278.371213 
L 818.844096 278.938546 
L 819.207939 279.521412 
L 819.547385 280.118817 
L 819.861853 280.729738 
L 820.150806 281.353133 
L 820.41375 281.987937 
L 820.650236 282.633064 
L 820.859861 283.287414 
L 821.042265 283.949867 
L 821.197138 284.619291 
L 821.324215 285.294545 
L 821.423278 285.974472 
L 821.494158 286.657913 
L 821.536735 287.343699 
L 821.550936 288.030659 
" style="fill:none;stroke:#000000;stroke-linecap:square;stroke-width:1.5;"/>
   </g>
   <g id="line2d_27">
    <path clip-path="url(#p15ec12cf53)" d="M 843.715408 288.030659 
L 843.71565 288.07593 
L 843.716376 288.121195 
L 843.717586 288.16645 
L 843.71928 288.21169 
L 843.721458 288.256909 
L 843.724119 288.302102 
L 843.727263 288.347264 
L 843.73089 288.39239 
L 843.735 288.437475 
L 843.739591 288.482513 
L 843.744664 288.527499 
L 843.750217 288.572428 
L 843.756251 288.617296 
L 843.762764 288.662096 
L 843.769756 288.706825 
L 843.777225 288.751475 
L 843.785172 288.796044 
L 843.793595 288.840525 
L 843.802493 288.884913 
L 843.811865 288.929204 
L 843.82171 288.973392 
L 843.832028 289.017472 
L 843.842816 289.061439 
L 843.854073 289.105288 
L 843.865799 289.149015 
L 843.877992 289.192613 
L 843.89065 289.236079 
L 843.903773 289.279407 
L 843.917358 289.322592 
L 843.931404 289.365629 
L 843.945909 289.408514 
L 843.960872 289.451241 
L 843.976292 289.493806 
L 843.992165 289.536203 
L 844.008491 289.578428 
L 844.025268 289.620476 
L 844.042493 289.662342 
L 844.060165 289.704022 
L 844.078282 289.74551 
L 844.096841 289.786803 
L 844.115841 289.827894 
L 844.135279 289.86878 
L 844.155154 289.909456 
L 844.175462 289.949916 
L 844.196202 289.990158 
L 844.21737 290.030175 
L 844.238966 290.069964 
L 844.260986 290.109519 
L 844.283427 290.148837 
" style="fill:none;stroke:#000000;stroke-linecap:square;stroke-width:1.5;"/>
   </g>
   <g id="line2d_28">
    <path clip-path="url(#p15ec12cf53)" d="M 821.550936 288.030659 
L 821.550693 288.07593 
L 821.549967 288.121195 
L 821.548757 288.16645 
L 821.547063 288.21169 
L 821.544885 288.256909 
L 821.542224 288.302102 
L 821.53908 288.347264 
L 821.535453 288.39239 
L 821.531343 288.437475 
L 821.526752 288.482513 
L 821.521679 288.527499 
L 821.516126 288.572428 
L 821.510092 288.617296 
L 821.503579 288.662096 
L 821.496588 288.706825 
L 821.489118 288.751475 
L 821.481171 288.796044 
L 821.472748 288.840525 
L 821.46385 288.884913 
L 821.454478 288.929204 
L 821.444633 288.973392 
L 821.434316 289.017472 
L 821.423528 289.061439 
L 821.41227 289.105288 
L 821.400544 289.149015 
L 821.388351 289.192613 
L 821.375693 289.236079 
L 821.362571 289.279407 
L 821.348986 289.322592 
L 821.33494 289.365629 
L 821.320434 289.408514 
L 821.305471 289.451241 
L 821.290052 289.493806 
L 821.274178 289.536203 
L 821.257852 289.578428 
L 821.241075 289.620476 
L 821.22385 289.662342 
L 821.206178 289.704022 
L 821.188061 289.74551 
L 821.169502 289.786803 
L 821.150502 289.827894 
L 821.131064 289.86878 
L 821.111189 289.909456 
L 821.090881 289.949916 
L 821.070142 289.990158 
L 821.048973 290.030175 
L 821.027377 290.069964 
L 821.005358 290.109519 
L 820.982916 290.148837 
" style="fill:none;stroke:#000000;stroke-linecap:square;stroke-width:1.5;"/>
   </g>
   <g id="line2d_29">
    <path clip-path="url(#p15ec12cf53)" d="M 844.283427 290.148837 
L 846.606896 294.207408 
L 848.895539 298.28158 
L 851.149356 302.371352 
L 853.368348 306.476724 
L 855.552514 310.597697 
L 857.701854 314.734269 
L 859.816369 318.886442 
L 861.896057 323.054214 
L 863.94092 327.237587 
L 865.950958 331.43656 
L 867.926169 335.651134 
L 869.866555 339.881307 
L 871.772115 344.127081 
L 873.64285 348.388454 
L 875.478759 352.665428 
L 877.279842 356.958002 
L 879.046099 361.266176 
L 880.777531 365.589951 
L 882.474137 369.929325 
L 884.135917 374.2843 
L 885.762872 378.654875 
L 887.355 383.04105 
L 888.912303 387.442825 
L 890.434781 391.8602 
L 891.922432 396.293175 
L 893.375258 400.741751 
L 894.793259 405.205927 
L 896.176433 409.685703 
L 897.524782 414.181079 
L 898.838305 418.692055 
L 900.117003 423.218631 
L 901.360874 427.760808 
L 902.56992 432.318584 
L 903.74414 436.891961 
L 904.883535 441.480938 
L 905.988104 446.085515 
L 907.057847 450.705693 
L 908.092764 455.34147 
L 909.092856 459.992848 
L 910.058122 464.659825 
L 910.988562 469.342403 
L 911.884177 474.040581 
L 912.744966 478.75436 
L 913.570929 483.483738 
L 914.362066 488.228717 
L 915.118378 492.989295 
L 915.839864 497.765474 
L 916.526525 502.557253 
L 917.178359 507.364632 
" style="fill:none;stroke:#000000;stroke-linecap:square;stroke-width:1.5;"/>
   </g>
   <g id="line2d_30">
    <path clip-path="url(#p15ec12cf53)" d="M 820.982916 290.148837 
L 818.659447 294.207408 
L 816.370804 298.28158 
L 814.116987 302.371352 
L 811.897995 306.476724 
L 809.713829 310.597697 
L 807.564489 314.734269 
L 805.449975 318.886442 
L 803.370286 323.054214 
L 801.325423 327.237587 
L 799.315386 331.43656 
L 797.340174 335.651134 
L 795.399788 339.881307 
L 793.494228 344.127081 
L 791.623493 348.388454 
L 789.787585 352.665428 
L 787.986501 356.958002 
L 786.220244 361.266176 
L 784.488812 365.589951 
L 782.792207 369.929325 
L 781.130426 374.2843 
L 779.503472 378.654875 
L 777.911343 383.04105 
L 776.35404 387.442825 
L 774.831563 391.8602 
L 773.343911 396.293175 
L 771.891085 400.741751 
L 770.473085 405.205927 
L 769.08991 409.685703 
L 767.741561 414.181079 
L 766.428038 418.692055 
L 765.149341 423.218631 
L 763.905469 427.760808 
L 762.696423 432.318584 
L 761.522203 436.891961 
L 760.382808 441.480938 
L 759.278239 446.085515 
L 758.208496 450.705693 
L 757.173579 455.34147 
L 756.173487 459.992848 
L 755.208221 464.659825 
L 754.277781 469.342403 
L 753.382166 474.040581 
L 752.521377 478.75436 
L 751.695414 483.483738 
L 750.904277 488.228717 
L 750.147965 492.989295 
L 749.426479 497.765474 
L 748.739819 502.557253 
L 748.087984 507.364632 
" style="fill:none;stroke:#000000;stroke-linecap:square;stroke-width:1.5;"/>
   </g>
   <g id="line2d_31">
    <path clip-path="url(#p15ec12cf53)" d="M 1025.837873 276.928699 
L 1051.66839 276.928699 
L 1051.66839 297.004061 
" style="fill:none;stroke:#000000;stroke-linecap:square;stroke-width:1.5;"/>
   </g>
   <g id="line2d_32">
    <path clip-path="url(#p15ec12cf53)" d="M 1025.837873 276.928699 
L 1000.007356 276.928699 
L 1000.007356 297.004061 
" style="fill:none;stroke:#000000;stroke-linecap:square;stroke-width:1.5;"/>
   </g>
   <g id="line2d_33">
    <path clip-path="url(#p15ec12cf53)" d="M 1046.606425 309.224726 
L 1046.800726 309.027285 
L 1046.991838 308.826755 
L 1047.179711 308.623188 
L 1047.364297 308.416636 
L 1047.545549 308.207152 
L 1047.72342 307.99479 
L 1047.897864 307.779604 
L 1048.068837 307.56165 
L 1048.236295 307.340984 
L 1048.400194 307.117662 
L 1048.560493 306.891741 
L 1048.717151 306.663281 
L 1048.870126 306.432339 
L 1049.019381 306.198974 
L 1049.164876 305.963248 
L 1049.306574 305.72522 
L 1049.444439 305.484951 
L 1049.578435 305.242503 
L 1049.708528 304.997939 
L 1049.834684 304.751321 
L 1049.956871 304.502713 
L 1050.075059 304.252178 
L 1050.189215 303.999782 
L 1050.299311 303.745588 
L 1050.405319 303.489662 
L 1050.507212 303.232069 
L 1050.604962 302.972877 
L 1050.698546 302.712152 
L 1050.787939 302.44996 
L 1050.873118 302.186368 
L 1050.954062 301.921446 
L 1051.030749 301.65526 
L 1051.103159 301.387879 
L 1051.171275 301.119372 
L 1051.235078 300.849808 
L 1051.294553 300.579255 
L 1051.349684 300.307785 
L 1051.400456 300.035465 
L 1051.446857 299.762367 
L 1051.488876 299.48856 
L 1051.5265 299.214114 
L 1051.55972 298.939101 
L 1051.588529 298.663591 
L 1051.612918 298.387655 
L 1051.632881 298.111363 
L 1051.648413 297.834786 
L 1051.65951 297.557996 
L 1051.66617 297.281064 
L 1051.66839 297.004061 
" style="fill:none;stroke:#000000;stroke-linecap:square;stroke-width:1.5;"/>
   </g>
   <g id="line2d_34">
    <path clip-path="url(#p15ec12cf53)" d="M 1005.069322 309.224726 
L 1004.87502 309.027285 
L 1004.683909 308.826755 
L 1004.496036 308.623188 
L 1004.31145 308.416636 
L 1004.130198 308.207152 
L 1003.952327 307.99479 
L 1003.777882 307.779604 
L 1003.606909 307.56165 
L 1003.439451 307.340984 
L 1003.275552 307.117662 
L 1003.115253 306.891741 
L 1002.958595 306.663281 
L 1002.80562 306.432339 
L 1002.656365 306.198974 
L 1002.51087 305.963248 
L 1002.369172 305.72522 
L 1002.231308 305.484951 
L 1002.097312 305.242503 
L 1001.967219 304.997939 
L 1001.841062 304.751321 
L 1001.718875 304.502713 
L 1001.600688 304.252178 
L 1001.486531 303.999782 
L 1001.376435 303.745588 
L 1001.270427 303.489662 
L 1001.168535 303.232069 
L 1001.070784 302.972877 
L 1000.9772 302.712152 
L 1000.887807 302.44996 
L 1000.802628 302.186368 
L 1000.721685 301.921446 
L 1000.644998 301.65526 
L 1000.572587 301.387879 
L 1000.504471 301.119372 
L 1000.440668 300.849808 
L 1000.381193 300.579255 
L 1000.326063 300.307785 
L 1000.27529 300.035465 
L 1000.228889 299.762367 
L 1000.186871 299.48856 
L 1000.149246 299.214114 
L 1000.116026 298.939101 
L 1000.087217 298.663591 
L 1000.062828 298.387655 
L 1000.042865 298.111363 
L 1000.027333 297.834786 
L 1000.016236 297.557996 
L 1000.009576 297.281064 
L 1000.007356 297.004061 
" style="fill:none;stroke:#000000;stroke-linecap:square;stroke-width:1.5;"/>
   </g>
   <g id="line2d_35">
    <path clip-path="url(#p15ec12cf53)" d="M 1046.606425 309.224726 
L 1045.98704 309.870258 
L 1045.394862 310.540834 
L 1044.830901 311.235309 
L 1044.29612 311.952497 
L 1043.791435 312.691172 
L 1043.317706 313.450072 
L 1042.875743 314.2279 
L 1042.466302 315.023329 
L 1042.090081 315.834997 
L 1041.747724 316.66152 
L 1041.439816 317.501485 
L 1041.166882 318.353456 
L 1040.929389 319.215979 
L 1040.727742 320.087579 
L 1040.562287 320.966768 
L 1040.433306 321.852043 
L 1040.341018 322.741892 
L 1040.285583 323.634794 
L 1040.267094 324.529225 
" style="fill:none;stroke:#000000;stroke-linecap:square;stroke-width:1.5;"/>
   </g>
   <g id="line2d_36">
    <path clip-path="url(#p15ec12cf53)" d="M 1005.069322 309.224726 
L 1005.688706 309.870258 
L 1006.280884 310.540834 
L 1006.844846 311.235309 
L 1007.379626 311.952497 
L 1007.884312 312.691172 
L 1008.35804 313.450072 
L 1008.800003 314.2279 
L 1009.209444 315.023329 
L 1009.585665 315.834997 
L 1009.928022 316.66152 
L 1010.23593 317.501485 
L 1010.508864 318.353456 
L 1010.746357 319.215979 
L 1010.948004 320.087579 
L 1011.113459 320.966768 
L 1011.242441 321.852043 
L 1011.334728 322.741892 
L 1011.390164 323.634794 
L 1011.408653 324.529225 
" style="fill:none;stroke:#000000;stroke-linecap:square;stroke-width:1.5;"/>
   </g>
   <g id="line2d_37">
    <path clip-path="url(#p15ec12cf53)" d="M 1040.267094 324.529225 
L 1040.267409 324.588168 
L 1040.268354 324.647105 
L 1040.26993 324.706028 
L 1040.272135 324.76493 
L 1040.274971 324.823806 
L 1040.278436 324.882648 
L 1040.28253 324.94145 
L 1040.287252 325.000204 
L 1040.292603 325.058905 
L 1040.298581 325.117545 
L 1040.305185 325.176118 
L 1040.312416 325.234616 
L 1040.320272 325.293034 
L 1040.328752 325.351365 
L 1040.337855 325.409602 
L 1040.347581 325.467738 
L 1040.357927 325.525767 
L 1040.368894 325.583682 
L 1040.380479 325.641476 
L 1040.392682 325.699143 
L 1040.405501 325.756676 
L 1040.418934 325.814069 
L 1040.43298 325.871315 
L 1040.447638 325.928407 
L 1040.462905 325.98534 
L 1040.47878 326.042106 
L 1040.495262 326.098699 
L 1040.512347 326.155112 
L 1040.530035 326.21134 
L 1040.548323 326.267375 
L 1040.567209 326.323211 
L 1040.586692 326.378842 
L 1040.606768 326.434262 
L 1040.627435 326.489464 
L 1040.648692 326.544441 
L 1040.670536 326.599189 
L 1040.692963 326.653699 
L 1040.715972 326.707967 
L 1040.739561 326.761985 
L 1040.763725 326.815748 
L 1040.788463 326.86925 
L 1040.813772 326.922484 
L 1040.839649 326.975444 
L 1040.86609 327.028124 
L 1040.893094 327.080519 
L 1040.920656 327.132622 
L 1040.948773 327.184427 
L 1040.977443 327.235929 
L 1041.006663 327.287121 
" style="fill:none;stroke:#000000;stroke-linecap:square;stroke-width:1.5;"/>
   </g>
   <g id="line2d_38">
    <path clip-path="url(#p15ec12cf53)" d="M 1011.408653 324.529225 
L 1011.408338 324.588168 
L 1011.407392 324.647105 
L 1011.405816 324.706028 
L 1011.403611 324.76493 
L 1011.400775 324.823806 
L 1011.39731 324.882648 
L 1011.393217 324.94145 
L 1011.388494 325.000204 
L 1011.383144 325.058905 
L 1011.377166 325.117545 
L 1011.370561 325.176118 
L 1011.36333 325.234616 
L 1011.355475 325.293034 
L 1011.346994 325.351365 
L 1011.337891 325.409602 
L 1011.328166 325.467738 
L 1011.317819 325.525767 
L 1011.306852 325.583682 
L 1011.295267 325.641476 
L 1011.283064 325.699143 
L 1011.270245 325.756676 
L 1011.256812 325.814069 
L 1011.242766 325.871315 
L 1011.228108 325.928407 
L 1011.212841 325.98534 
L 1011.196966 326.042106 
L 1011.180485 326.098699 
L 1011.163399 326.155112 
L 1011.145711 326.21134 
L 1011.127423 326.267375 
L 1011.108537 326.323211 
L 1011.089055 326.378842 
L 1011.068978 326.434262 
L 1011.048311 326.489464 
L 1011.027054 326.544441 
L 1011.005211 326.599189 
L 1010.982783 326.653699 
L 1010.959774 326.707967 
L 1010.936186 326.761985 
L 1010.912021 326.815748 
L 1010.887283 326.86925 
L 1010.861974 326.922484 
L 1010.836097 326.975444 
L 1010.809656 327.028124 
L 1010.782653 327.080519 
L 1010.755091 327.132622 
L 1010.726973 327.184427 
L 1010.698303 327.235929 
L 1010.669084 327.287121 
" style="fill:none;stroke:#000000;stroke-linecap:square;stroke-width:1.5;"/>
   </g>
   <g id="line2d_39">
    <path clip-path="url(#p15ec12cf53)" d="M 1041.006663 327.287121 
L 1042.845151 330.499926 
L 1044.65848 333.731991 
L 1046.44665 336.983317 
L 1048.20966 340.253903 
L 1049.947511 343.543749 
L 1051.660204 346.852855 
L 1053.347737 350.181221 
L 1055.01011 353.528848 
L 1056.647325 356.895735 
L 1058.25938 360.281883 
L 1059.846276 363.68729 
L 1061.408013 367.111958 
L 1062.94459 370.555886 
L 1064.456009 374.019074 
L 1065.942268 377.501523 
L 1067.403368 381.003232 
L 1068.839308 384.524201 
L 1070.25009 388.064431 
L 1071.635712 391.62392 
L 1072.996175 395.20267 
L 1074.331479 398.80068 
L 1075.641624 402.417951 
L 1076.926609 406.054482 
L 1078.186435 409.710273 
L 1079.421102 413.385324 
L 1080.63061 417.079635 
L 1081.814959 420.793207 
L 1082.974148 424.526039 
L 1084.108178 428.278131 
L 1085.217049 432.049484 
L 1086.30076 435.840097 
L 1087.359313 439.64997 
L 1088.392706 443.479103 
L 1089.40094 447.327497 
L 1090.384015 451.195151 
L 1091.34193 455.082065 
L 1092.274687 458.988239 
L 1093.182284 462.913674 
L 1094.064722 466.858369 
L 1094.922 470.822324 
L 1095.75412 474.805539 
L 1096.56108 478.808015 
L 1097.342881 482.829751 
L 1098.099523 486.870747 
L 1098.831005 490.931004 
L 1099.537328 495.010521 
L 1100.218493 499.109298 
L 1100.874497 503.227335 
L 1101.505343 507.364632 
" style="fill:none;stroke:#000000;stroke-linecap:square;stroke-width:1.5;"/>
   </g>
   <g id="line2d_40">
    <path clip-path="url(#p15ec12cf53)" d="M 1010.669084 327.287121 
L 1008.830595 330.499926 
L 1007.017266 333.731991 
L 1005.229097 336.983317 
L 1003.466086 340.253903 
L 1001.728235 343.543749 
L 1000.015543 346.852855 
L 998.32801 350.181221 
L 996.665636 353.528848 
L 995.028422 356.895735 
L 993.416366 360.281883 
L 991.82947 363.68729 
L 990.267733 367.111958 
L 988.731156 370.555886 
L 987.219738 374.019074 
L 985.733478 377.501523 
L 984.272378 381.003232 
L 982.836438 384.524201 
L 981.425656 388.064431 
L 980.040034 391.62392 
L 978.679571 395.20267 
L 977.344267 398.80068 
L 976.034122 402.417951 
L 974.749137 406.054482 
L 973.489311 409.710273 
L 972.254644 413.385324 
L 971.045136 417.079635 
L 969.860788 420.793207 
L 968.701598 424.526039 
L 967.567568 428.278131 
L 966.458698 432.049484 
L 965.374986 435.840097 
L 964.316433 439.64997 
L 963.28304 443.479103 
L 962.274806 447.327497 
L 961.291732 451.195151 
L 960.333816 455.082065 
L 959.40106 458.988239 
L 958.493463 462.913674 
L 957.611025 466.858369 
L 956.753746 470.822324 
L 955.921627 474.805539 
L 955.114666 478.808015 
L 954.332865 482.829751 
L 953.576224 486.870747 
L 952.844741 490.931004 
L 952.138418 495.010521 
L 951.457254 499.109298 
L 950.801249 503.227335 
L 950.170403 507.364632 
" style="fill:none;stroke:#000000;stroke-linecap:square;stroke-width:1.5;"/>
   </g>
   <g id="line2d_41">
    <path clip-path="url(#p15ec12cf53)" d="M 1174.387902 372.924155 
L 1191.663403 372.924155 
L 1191.663403 400.409882 
" style="fill:none;stroke:#000000;stroke-linecap:square;stroke-width:1.5;"/>
   </g>
   <g id="line2d_42">
    <path clip-path="url(#p15ec12cf53)" d="M 1174.387902 372.924155 
L 1157.112401 372.924155 
L 1157.112401 400.409882 
" style="fill:none;stroke:#000000;stroke-linecap:square;stroke-width:1.5;"/>
   </g>
   <g id="line2d_43">
    <path clip-path="url(#p15ec12cf53)" d="M 1188.741904 407.463005 
L 1188.854044 407.349053 
L 1188.964344 407.233317 
L 1189.072774 407.115829 
L 1189.179308 406.996618 
L 1189.283917 406.875715 
L 1189.386574 406.753151 
L 1189.487255 406.628957 
L 1189.585931 406.503166 
L 1189.682579 406.375808 
L 1189.777173 406.246919 
L 1189.869689 406.116529 
L 1189.960104 405.984674 
L 1190.048393 405.851386 
L 1190.134535 405.716701 
L 1190.218507 405.580652 
L 1190.300288 405.443275 
L 1190.379856 405.304604 
L 1190.457191 405.164676 
L 1190.532274 405.023527 
L 1190.605085 404.881192 
L 1190.675605 404.737708 
L 1190.743816 404.593113 
L 1190.809701 404.447443 
L 1190.873243 404.300735 
L 1190.934425 404.153028 
L 1190.993232 404.00436 
L 1191.049649 403.854768 
L 1191.103661 403.704291 
L 1191.155254 403.552967 
L 1191.204414 403.400836 
L 1191.251131 403.247937 
L 1191.29539 403.094308 
L 1191.337182 402.93999 
L 1191.376495 402.785022 
L 1191.413319 402.629444 
L 1191.447644 402.473295 
L 1191.479463 402.316617 
L 1191.508766 402.159448 
L 1191.535546 402.00183 
L 1191.559797 401.843803 
L 1191.581512 401.685408 
L 1191.600685 401.526685 
L 1191.617312 401.367675 
L 1191.631388 401.208419 
L 1191.642909 401.048958 
L 1191.651874 400.889332 
L 1191.658278 400.729584 
L 1191.662122 400.569753 
L 1191.663403 400.409882 
" style="fill:none;stroke:#000000;stroke-linecap:square;stroke-width:1.5;"/>
   </g>
   <g id="line2d_44">
    <path clip-path="url(#p15ec12cf53)" d="M 1160.0339 407.463005 
L 1159.92176 407.349053 
L 1159.81146 407.233317 
L 1159.70303 407.115829 
L 1159.596497 406.996618 
L 1159.491888 406.875715 
L 1159.38923 406.753151 
L 1159.28855 406.628957 
L 1159.189873 406.503166 
L 1159.093225 406.375808 
L 1158.998631 406.246919 
L 1158.906115 406.116529 
L 1158.8157 405.984674 
L 1158.727411 405.851386 
L 1158.641269 405.716701 
L 1158.557297 405.580652 
L 1158.475517 405.443275 
L 1158.395948 405.304604 
L 1158.318613 405.164676 
L 1158.24353 405.023527 
L 1158.170719 404.881192 
L 1158.100199 404.737708 
L 1158.031988 404.593113 
L 1157.966103 404.447443 
L 1157.902561 404.300735 
L 1157.841379 404.153028 
L 1157.782572 404.00436 
L 1157.726155 403.854768 
L 1157.672144 403.704291 
L 1157.620551 403.552967 
L 1157.57139 403.400836 
L 1157.524674 403.247937 
L 1157.480414 403.094308 
L 1157.438622 402.93999 
L 1157.39931 402.785022 
L 1157.362486 402.629444 
L 1157.32816 402.473295 
L 1157.296341 402.316617 
L 1157.267038 402.159448 
L 1157.240258 402.00183 
L 1157.216007 401.843803 
L 1157.194292 401.685408 
L 1157.175119 401.526685 
L 1157.158493 401.367675 
L 1157.144417 401.208419 
L 1157.132895 401.048958 
L 1157.123931 400.889332 
L 1157.117526 400.729584 
L 1157.113682 400.569753 
L 1157.112401 400.409882 
" style="fill:none;stroke:#000000;stroke-linecap:square;stroke-width:1.5;"/>
   </g>
   <g id="line2d_45">
    <path clip-path="url(#p15ec12cf53)" d="M 1188.741904 407.463005 
L 1188.313822 407.909159 
L 1187.904543 408.372622 
L 1187.514766 408.852602 
L 1187.145157 409.34828 
L 1186.796348 409.858809 
L 1186.468935 410.383316 
L 1186.163476 410.920905 
L 1185.880494 411.470658 
L 1185.620473 412.031636 
L 1185.383856 412.60288 
L 1185.171048 413.183414 
L 1184.982412 413.772247 
L 1184.818271 414.368372 
L 1184.678904 414.97077 
L 1184.564551 415.578414 
L 1184.475407 416.190264 
L 1184.411623 416.805275 
L 1184.373309 417.422397 
L 1184.360531 418.040575 
" style="fill:none;stroke:#000000;stroke-linecap:square;stroke-width:1.5;"/>
   </g>
   <g id="line2d_46">
    <path clip-path="url(#p15ec12cf53)" d="M 1160.0339 407.463005 
L 1160.461982 407.909159 
L 1160.871261 408.372622 
L 1161.261038 408.852602 
L 1161.630647 409.34828 
L 1161.979456 409.858809 
L 1162.306869 410.383316 
L 1162.612328 410.920905 
L 1162.89531 411.470658 
L 1163.155331 412.031636 
L 1163.391948 412.60288 
L 1163.604757 413.183414 
L 1163.793392 413.772247 
L 1163.957534 414.368372 
L 1164.0969 414.97077 
L 1164.211253 415.578414 
L 1164.300397 416.190264 
L 1164.364181 416.805275 
L 1164.402495 417.422397 
L 1164.415273 418.040575 
" style="fill:none;stroke:#000000;stroke-linecap:square;stroke-width:1.5;"/>
   </g>
   <g id="line2d_47">
    <path clip-path="url(#p15ec12cf53)" d="M 1184.360531 418.040575 
L 1184.360721 418.078592 
L 1184.36129 418.116605 
L 1184.362238 418.154611 
L 1184.363566 418.192605 
L 1184.365272 418.230585 
L 1184.367358 418.268545 
L 1184.369822 418.306483 
L 1184.372665 418.344394 
L 1184.375886 418.382275 
L 1184.379485 418.420121 
L 1184.383462 418.45793 
L 1184.387815 418.495698 
L 1184.392545 418.53342 
L 1184.397652 418.571093 
L 1184.403134 418.608713 
L 1184.408991 418.646277 
L 1184.415223 418.68378 
L 1184.421829 418.721219 
L 1184.428808 418.758591 
L 1184.43616 418.795891 
L 1184.443883 418.833115 
L 1184.451978 418.870261 
L 1184.460443 418.907324 
L 1184.469277 418.944301 
L 1184.47848 418.981188 
L 1184.488051 419.017981 
L 1184.497988 419.054677 
L 1184.508291 419.091272 
L 1184.518959 419.127762 
L 1184.52999 419.164144 
L 1184.541384 419.200414 
L 1184.553139 419.236568 
L 1184.565254 419.272604 
L 1184.577729 419.308517 
L 1184.590561 419.344303 
L 1184.60375 419.37996 
L 1184.617294 419.415483 
L 1184.631191 419.450869 
L 1184.645441 419.486115 
L 1184.660043 419.521217 
L 1184.674993 419.556171 
L 1184.690292 419.590974 
L 1184.705938 419.625623 
L 1184.721928 419.660115 
L 1184.738262 419.694445 
L 1184.754937 419.72861 
L 1184.771953 419.762607 
L 1184.789307 419.796432 
L 1184.806998 419.830083 
" style="fill:none;stroke:#000000;stroke-linecap:square;stroke-width:1.5;"/>
   </g>
   <g id="line2d_48">
    <path clip-path="url(#p15ec12cf53)" d="M 1164.415273 418.040575 
L 1164.415084 418.078592 
L 1164.414515 418.116605 
L 1164.413566 418.154611 
L 1164.412239 418.192605 
L 1164.410532 418.230585 
L 1164.408446 418.268545 
L 1164.405982 418.306483 
L 1164.403139 418.344394 
L 1164.399918 418.382275 
L 1164.396319 418.420121 
L 1164.392343 418.45793 
L 1164.387989 418.495698 
L 1164.383259 418.53342 
L 1164.378152 418.571093 
L 1164.37267 418.608713 
L 1164.366813 418.646277 
L 1164.360581 418.68378 
L 1164.353975 418.721219 
L 1164.346996 418.758591 
L 1164.339645 418.795891 
L 1164.331921 418.833115 
L 1164.323827 418.870261 
L 1164.315362 418.907324 
L 1164.306527 418.944301 
L 1164.297324 418.981188 
L 1164.287754 419.017981 
L 1164.277816 419.054677 
L 1164.267513 419.091272 
L 1164.256846 419.127762 
L 1164.245814 419.164144 
L 1164.23442 419.200414 
L 1164.222665 419.236568 
L 1164.21055 419.272604 
L 1164.198075 419.308517 
L 1164.185243 419.344303 
L 1164.172054 419.37996 
L 1164.158511 419.415483 
L 1164.144613 419.450869 
L 1164.130363 419.486115 
L 1164.115762 419.521217 
L 1164.100811 419.556171 
L 1164.085512 419.590974 
L 1164.069867 419.625623 
L 1164.053876 419.660115 
L 1164.037542 419.694445 
L 1164.020867 419.72861 
L 1164.003851 419.762607 
L 1163.986497 419.796432 
L 1163.968806 419.830083 
" style="fill:none;stroke:#000000;stroke-linecap:square;stroke-width:1.5;"/>
   </g>
   <g id="line2d_49">
    <path clip-path="url(#p15ec12cf53)" d="M 1184.806998 419.830083 
L 1185.683312 421.490356 
L 1186.548173 423.155886 
L 1187.401583 424.826671 
L 1188.24354 426.502712 
L 1189.074044 428.18401 
L 1189.893097 429.870564 
L 1190.700696 431.562373 
L 1191.496844 433.259439 
L 1192.281539 434.961761 
L 1193.054782 436.669339 
L 1193.816572 438.382173 
L 1194.56691 440.100263 
L 1195.305796 441.82361 
L 1196.03323 443.552212 
L 1196.749211 445.286071 
L 1197.453739 447.025185 
L 1198.146816 448.769556 
L 1198.82844 450.519183 
L 1199.498611 452.274065 
L 1200.157331 454.034204 
L 1200.804598 455.799599 
L 1201.440412 457.57025 
L 1202.064775 459.346158 
L 1202.677684 461.127321 
L 1203.279142 462.91374 
L 1203.869147 464.705416 
L 1204.4477 466.502347 
L 1205.0148 468.304535 
L 1205.570449 470.111979 
L 1206.114644 471.924679 
L 1206.647388 473.742634 
L 1207.168679 475.565846 
L 1207.678518 477.394315 
L 1208.176904 479.228039 
L 1208.663838 481.067019 
L 1209.13932 482.911255 
L 1209.603349 484.760748 
L 1210.055926 486.615496 
L 1210.49705 488.475501 
L 1210.926723 490.340762 
L 1211.344943 492.211279 
L 1211.75171 494.087052 
L 1212.147025 495.968081 
L 1212.530888 497.854366 
L 1212.903299 499.745907 
L 1213.264257 501.642704 
L 1213.613763 503.544757 
L 1213.951816 505.452067 
L 1214.278417 507.364632 
" style="fill:none;stroke:#000000;stroke-linecap:square;stroke-width:1.5;"/>
   </g>
   <g id="line2d_50">
    <path clip-path="url(#p15ec12cf53)" d="M 1163.968806 419.830083 
L 1163.092492 421.490356 
L 1162.227631 423.155886 
L 1161.374221 424.826671 
L 1160.532265 426.502712 
L 1159.70176 428.18401 
L 1158.882708 429.870564 
L 1158.075108 431.562373 
L 1157.27896 433.259439 
L 1156.494265 434.961761 
L 1155.721022 436.669339 
L 1154.959232 438.382173 
L 1154.208894 440.100263 
L 1153.470008 441.82361 
L 1152.742575 443.552212 
L 1152.026593 445.286071 
L 1151.322065 447.025185 
L 1150.628988 448.769556 
L 1149.947364 450.519183 
L 1149.277193 452.274065 
L 1148.618473 454.034204 
L 1147.971207 455.799599 
L 1147.335392 457.57025 
L 1146.71103 459.346158 
L 1146.09812 461.127321 
L 1145.496662 462.91374 
L 1144.906657 464.705416 
L 1144.328104 466.502347 
L 1143.761004 468.304535 
L 1143.205356 470.111979 
L 1142.66116 471.924679 
L 1142.128416 473.742634 
L 1141.607125 475.565846 
L 1141.097287 477.394315 
L 1140.5989 479.228039 
L 1140.111966 481.067019 
L 1139.636485 482.911255 
L 1139.172455 484.760748 
L 1138.719878 486.615496 
L 1138.278754 488.475501 
L 1137.849081 490.340762 
L 1137.430862 492.211279 
L 1137.024094 494.087052 
L 1136.628779 495.968081 
L 1136.244916 497.854366 
L 1135.872506 499.745907 
L 1135.511547 501.642704 
L 1135.162042 503.544757 
L 1134.823988 505.452067 
L 1134.497387 507.364632 
" style="fill:none;stroke:#000000;stroke-linecap:square;stroke-width:1.5;"/>
   </g>
   <g id="line2d_51">
    <path clip-path="url(#p15ec12cf53)" d="M 1285.380685 377.819412 
L 1292.800637 377.819412 
L 1292.800637 398.242603 
" style="fill:none;stroke:#000000;stroke-linecap:square;stroke-width:1.5;"/>
   </g>
   <g id="line2d_52">
    <path clip-path="url(#p15ec12cf53)" d="M 1285.380685 377.819412 
L 1277.960733 377.819412 
L 1277.960733 398.242603 
" style="fill:none;stroke:#000000;stroke-linecap:square;stroke-width:1.5;"/>
   </g>
   <g id="line2d_53">
    <path clip-path="url(#p15ec12cf53)" d="M 1291.398022 401.628816 
L 1291.451861 401.574107 
L 1291.504816 401.518543 
L 1291.556873 401.462136 
L 1291.60802 401.404903 
L 1291.658243 401.346857 
L 1291.707529 401.288014 
L 1291.755866 401.228389 
L 1291.803241 401.167996 
L 1291.849641 401.106852 
L 1291.895056 401.044971 
L 1291.939473 400.982371 
L 1291.982881 400.919067 
L 1292.025269 400.855076 
L 1292.066626 400.790413 
L 1292.106941 400.725096 
L 1292.146204 400.659141 
L 1292.184405 400.592565 
L 1292.221534 400.525385 
L 1292.257581 400.457619 
L 1292.292537 400.389284 
L 1292.326394 400.320398 
L 1292.359143 400.250977 
L 1292.390774 400.181041 
L 1292.421281 400.110606 
L 1292.450654 400.039692 
L 1292.478888 399.968316 
L 1292.505973 399.896497 
L 1292.531904 399.824253 
L 1292.556674 399.751602 
L 1292.580276 399.678564 
L 1292.602705 399.605157 
L 1292.623954 399.5314 
L 1292.644018 399.457311 
L 1292.662892 399.382911 
L 1292.680571 399.308218 
L 1292.697051 399.23325 
L 1292.712327 399.158029 
L 1292.726396 399.082572 
L 1292.739253 399.006899 
L 1292.750896 398.931031 
L 1292.761321 398.854985 
L 1292.770526 398.778782 
L 1292.778509 398.702441 
L 1292.785267 398.625982 
L 1292.790798 398.549424 
L 1292.795102 398.472788 
L 1292.798177 398.396092 
L 1292.800022 398.319358 
L 1292.800637 398.242603 
" style="fill:none;stroke:#000000;stroke-linecap:square;stroke-width:1.5;"/>
   </g>
   <g id="line2d_54">
    <path clip-path="url(#p15ec12cf53)" d="M 1279.363348 401.628816 
L 1279.309509 401.574107 
L 1279.256554 401.518543 
L 1279.204497 401.462136 
L 1279.15335 401.404903 
L 1279.103127 401.346857 
L 1279.053841 401.288014 
L 1279.005504 401.228389 
L 1278.95813 401.167996 
L 1278.911729 401.106852 
L 1278.866314 401.044971 
L 1278.821897 400.982371 
L 1278.778489 400.919067 
L 1278.736101 400.855076 
L 1278.694744 400.790413 
L 1278.654429 400.725096 
L 1278.615166 400.659141 
L 1278.576965 400.592565 
L 1278.539837 400.525385 
L 1278.503789 400.457619 
L 1278.468833 400.389284 
L 1278.434976 400.320398 
L 1278.402228 400.250977 
L 1278.370596 400.181041 
L 1278.34009 400.110606 
L 1278.310716 400.039692 
L 1278.282483 399.968316 
L 1278.255397 399.896497 
L 1278.229466 399.824253 
L 1278.204696 399.751602 
L 1278.181094 399.678564 
L 1278.158665 399.605157 
L 1278.137416 399.5314 
L 1278.117352 399.457311 
L 1278.098478 399.382911 
L 1278.080799 399.308218 
L 1278.064319 399.23325 
L 1278.049043 399.158029 
L 1278.034974 399.082572 
L 1278.022117 399.006899 
L 1278.010474 398.931031 
L 1278.000049 398.854985 
L 1277.990844 398.778782 
L 1277.982861 398.702441 
L 1277.976104 398.625982 
L 1277.970572 398.549424 
L 1277.966268 398.472788 
L 1277.963193 398.396092 
L 1277.961348 398.319358 
L 1277.960733 398.242603 
" style="fill:none;stroke:#000000;stroke-linecap:square;stroke-width:1.5;"/>
   </g>
   <g id="line2d_55">
    <path clip-path="url(#p15ec12cf53)" d="M 1291.398022 401.628816 
L 1291.218566 401.815848 
L 1291.046992 402.010136 
L 1290.883594 402.211348 
L 1290.72865 402.419142 
L 1290.582426 402.63316 
L 1290.445171 402.853039 
L 1290.31712 403.078401 
L 1290.198491 403.308863 
L 1290.089488 403.54403 
L 1289.990296 403.783501 
L 1289.901084 404.026867 
L 1289.822006 404.273711 
L 1289.753197 404.523613 
L 1289.694773 404.776144 
L 1289.646835 405.030874 
L 1289.609465 405.287368 
L 1289.582726 405.545186 
L 1289.566665 405.80389 
L 1289.561308 406.063036 
" style="fill:none;stroke:#000000;stroke-linecap:square;stroke-width:1.5;"/>
   </g>
   <g id="line2d_56">
    <path clip-path="url(#p15ec12cf53)" d="M 1279.363348 401.628816 
L 1279.542804 401.815848 
L 1279.714378 402.010136 
L 1279.877776 402.211348 
L 1280.03272 402.419142 
L 1280.178944 402.63316 
L 1280.316199 402.853039 
L 1280.44425 403.078401 
L 1280.562879 403.308863 
L 1280.671882 403.54403 
L 1280.771074 403.783501 
L 1280.860286 404.026867 
L 1280.939364 404.273711 
L 1281.008173 404.523613 
L 1281.066597 404.776144 
L 1281.114535 405.030874 
L 1281.151905 405.287368 
L 1281.178644 405.545186 
L 1281.194705 405.80389 
L 1281.200062 406.063036 
" style="fill:none;stroke:#000000;stroke-linecap:square;stroke-width:1.5;"/>
   </g>
   <g id="line2d_57">
    <path clip-path="url(#p15ec12cf53)" d="M 1289.561308 406.063036 
L 1289.561399 406.080114 
L 1289.561673 406.09719 
L 1289.56213 406.114262 
L 1289.562769 406.131328 
L 1289.56359 406.148386 
L 1289.564594 406.165434 
L 1289.56578 406.182471 
L 1289.567149 406.199494 
L 1289.568699 406.216502 
L 1289.570431 406.233492 
L 1289.572344 406.250462 
L 1289.574439 406.267411 
L 1289.576715 406.284337 
L 1289.579172 406.301237 
L 1289.58181 406.31811 
L 1289.584628 406.334954 
L 1289.587626 406.351767 
L 1289.590803 406.368547 
L 1289.59416 406.385292 
L 1289.597695 406.402 
L 1289.601409 406.418669 
L 1289.605301 406.435298 
L 1289.609371 406.451884 
L 1289.613618 406.468425 
L 1289.618041 406.484921 
L 1289.622641 406.501368 
L 1289.627416 406.517764 
L 1289.632366 406.534109 
L 1289.637491 406.5504 
L 1289.642789 406.566636 
L 1289.648261 406.582813 
L 1289.653906 406.598931 
L 1289.659723 406.614988 
L 1289.665711 406.630982 
L 1289.67187 406.646911 
L 1289.678198 406.662773 
L 1289.684696 406.678566 
L 1289.691363 406.69429 
L 1289.698197 406.70994 
L 1289.705199 406.725517 
L 1289.712366 406.741019 
L 1289.719699 406.756442 
L 1289.727196 406.771787 
L 1289.734857 406.78705 
L 1289.742681 406.80223 
L 1289.750667 406.817326 
L 1289.758813 406.832336 
L 1289.76712 406.847258 
L 1289.775586 406.86209 
" style="fill:none;stroke:#000000;stroke-linecap:square;stroke-width:1.5;"/>
   </g>
   <g id="line2d_58">
    <path clip-path="url(#p15ec12cf53)" d="M 1281.200062 406.063036 
L 1281.199971 406.080114 
L 1281.199697 406.09719 
L 1281.19924 406.114262 
L 1281.198601 406.131328 
L 1281.19778 406.148386 
L 1281.196776 406.165434 
L 1281.19559 406.182471 
L 1281.194222 406.199494 
L 1281.192671 406.216502 
L 1281.190939 406.233492 
L 1281.189026 406.250462 
L 1281.186931 406.267411 
L 1281.184655 406.284337 
L 1281.182198 406.301237 
L 1281.17956 406.31811 
L 1281.176742 406.334954 
L 1281.173745 406.351767 
L 1281.170567 406.368547 
L 1281.167211 406.385292 
L 1281.163675 406.402 
L 1281.159961 406.418669 
L 1281.156069 406.435298 
L 1281.151999 406.451884 
L 1281.147753 406.468425 
L 1281.143329 406.484921 
L 1281.13873 406.501368 
L 1281.133954 406.517764 
L 1281.129004 406.534109 
L 1281.123879 406.5504 
L 1281.118581 406.566636 
L 1281.113109 406.582813 
L 1281.107464 406.598931 
L 1281.101647 406.614988 
L 1281.095659 406.630982 
L 1281.0895 406.646911 
L 1281.083172 406.662773 
L 1281.076674 406.678566 
L 1281.070007 406.69429 
L 1281.063173 406.70994 
L 1281.056172 406.725517 
L 1281.049004 406.741019 
L 1281.041671 406.756442 
L 1281.034174 406.771787 
L 1281.026513 406.78705 
L 1281.018689 406.80223 
L 1281.010704 406.817326 
L 1281.002557 406.832336 
L 1280.99425 406.847258 
L 1280.985785 406.86209 
" style="fill:none;stroke:#000000;stroke-linecap:square;stroke-width:1.5;"/>
   </g>
   <g id="line2d_59">
    <path clip-path="url(#p15ec12cf53)" d="M 1289.775586 406.86209 
L 1290.849989 408.738848 
L 1291.908296 410.622869 
L 1292.950505 412.514153 
L 1293.976617 414.412701 
L 1294.986631 416.318511 
L 1295.980548 418.231585 
L 1296.958368 420.151921 
L 1297.92009 422.079521 
L 1298.865715 424.014384 
L 1299.795243 425.95651 
L 1300.708673 427.905899 
L 1301.606007 429.862551 
L 1302.487242 431.826466 
L 1303.352381 433.797644 
L 1304.201422 435.776086 
L 1305.034366 437.76179 
L 1305.851212 439.754758 
L 1306.651961 441.754988 
L 1307.436613 443.762482 
L 1308.205168 445.777239 
L 1308.957625 447.799259 
L 1309.693985 449.828542 
L 1310.414247 451.865088 
L 1311.118412 453.908897 
L 1311.80648 455.959969 
L 1312.478451 458.018305 
L 1313.134324 460.083903 
L 1313.7741 462.156765 
L 1314.397778 464.23689 
L 1315.005359 466.324277 
L 1315.596843 468.418928 
L 1316.17223 470.520842 
L 1316.731519 472.630019 
L 1317.274711 474.746459 
L 1317.801805 476.870163 
L 1318.312802 479.001129 
L 1318.807702 481.139358 
L 1319.286505 483.284851 
L 1319.74921 485.437606 
L 1320.195818 487.597625 
L 1320.626328 489.764907 
L 1321.040742 491.939452 
L 1321.439058 494.12126 
L 1321.821276 496.310331 
L 1322.187397 498.506665 
L 1322.537421 500.710262 
L 1322.871348 502.921122 
L 1323.189177 505.139246 
L 1323.490909 507.364632 
" style="fill:none;stroke:#000000;stroke-linecap:square;stroke-width:1.5;"/>
   </g>
   <g id="line2d_60">
    <path clip-path="url(#p15ec12cf53)" d="M 1280.985785 406.86209 
L 1279.911381 408.738848 
L 1278.853074 410.622869 
L 1277.810865 412.514153 
L 1276.784754 414.412701 
L 1275.774739 416.318511 
L 1274.780822 418.231585 
L 1273.803002 420.151921 
L 1272.84128 422.079521 
L 1271.895655 424.014384 
L 1270.966127 425.95651 
L 1270.052697 427.905899 
L 1269.155364 429.862551 
L 1268.274128 431.826466 
L 1267.408989 433.797644 
L 1266.559948 435.776086 
L 1265.727004 437.76179 
L 1264.910158 439.754758 
L 1264.109409 441.754988 
L 1263.324757 443.762482 
L 1262.556203 445.777239 
L 1261.803745 447.799259 
L 1261.067386 449.828542 
L 1260.347123 451.865088 
L 1259.642958 453.908897 
L 1258.95489 455.959969 
L 1258.28292 458.018305 
L 1257.627046 460.083903 
L 1256.987271 462.156765 
L 1256.363592 464.23689 
L 1255.756011 466.324277 
L 1255.164527 468.418928 
L 1254.589141 470.520842 
L 1254.029851 472.630019 
L 1253.486659 474.746459 
L 1252.959565 476.870163 
L 1252.448568 479.001129 
L 1251.953668 481.139358 
L 1251.474865 483.284851 
L 1251.01216 485.437606 
L 1250.565552 487.597625 
L 1250.135042 489.764907 
L 1249.720628 491.939452 
L 1249.322313 494.12126 
L 1248.940094 496.310331 
L 1248.573973 498.506665 
L 1248.223949 500.710262 
L 1247.890022 502.921122 
L 1247.572193 505.139246 
L 1247.270461 507.364632 
" style="fill:none;stroke:#000000;stroke-linecap:square;stroke-width:1.5;"/>
   </g>
   <g id="text_1">
    <!-- F-1 -->
    <defs>
     <path d="M 9.8125 72.90625 
L 51.703125 72.90625 
L 51.703125 64.59375 
L 19.671875 64.59375 
L 19.671875 43.109375 
L 48.578125 43.109375 
L 48.578125 34.8125 
L 19.671875 34.8125 
L 19.671875 0 
L 9.8125 0 
z
" id="DejaVuSans-70"/>
     <path d="M 4.890625 31.390625 
L 31.203125 31.390625 
L 31.203125 23.390625 
L 4.890625 23.390625 
z
" id="DejaVuSans-45"/>
     <path d="M 12.40625 8.296875 
L 28.515625 8.296875 
L 28.515625 63.921875 
L 10.984375 60.40625 
L 10.984375 69.390625 
L 28.421875 72.90625 
L 38.28125 72.90625 
L 38.28125 8.296875 
L 54.390625 8.296875 
L 54.390625 0 
L 12.40625 0 
z
" id="DejaVuSans-49"/>
    </defs>
    <g transform="translate(282.221936 56.554346)scale(0.16 -0.16)">
     <use xlink:href="#DejaVuSans-70"/>
     <use x="57.519531" xlink:href="#DejaVuSans-45"/>
     <use x="93.603516" xlink:href="#DejaVuSans-49"/>
    </g>
   </g>
   <g id="text_2">
    <!-- F-1 -->
    <g transform="translate(282.221936 56.554346)scale(0.16 -0.16)">
     <use xlink:href="#DejaVuSans-70"/>
     <use x="57.519531" xlink:href="#DejaVuSans-45"/>
     <use x="93.603516" xlink:href="#DejaVuSans-49"/>
    </g>
   </g>
   <g id="text_3">
    <!-- F-1 -->
    <g transform="translate(282.221936 56.554346)scale(0.16 -0.16)">
     <use xlink:href="#DejaVuSans-70"/>
     <use x="57.519531" xlink:href="#DejaVuSans-45"/>
     <use x="93.603516" xlink:href="#DejaVuSans-49"/>
    </g>
   </g>
   <g id="text_4">
    <!-- F-1 -->
    <g transform="translate(282.221936 56.554346)scale(0.16 -0.16)">
     <use xlink:href="#DejaVuSans-70"/>
     <use x="57.519531" xlink:href="#DejaVuSans-45"/>
     <use x="93.603516" xlink:href="#DejaVuSans-49"/>
    </g>
   </g>
   <g id="text_5">
    <!-- F-1 -->
    <g transform="translate(282.221936 56.554346)scale(0.16 -0.16)">
     <use xlink:href="#DejaVuSans-70"/>
     <use x="57.519531" xlink:href="#DejaVuSans-45"/>
     <use x="93.603516" xlink:href="#DejaVuSans-49"/>
    </g>
   </g>
   <g id="text_6">
    <!-- Merlin 1D+ vac -->
    <defs>
     <path d="M 9.8125 72.90625 
L 24.515625 72.90625 
L 43.109375 23.296875 
L 61.8125 72.90625 
L 76.515625 72.90625 
L 76.515625 0 
L 66.890625 0 
L 66.890625 64.015625 
L 48.09375 14.015625 
L 38.1875 14.015625 
L 19.390625 64.015625 
L 19.390625 0 
L 9.8125 0 
z
" id="DejaVuSans-77"/>
     <path d="M 56.203125 29.59375 
L 56.203125 25.203125 
L 14.890625 25.203125 
Q 15.484375 15.921875 20.484375 11.0625 
Q 25.484375 6.203125 34.421875 6.203125 
Q 39.59375 6.203125 44.453125 7.46875 
Q 49.3125 8.734375 54.109375 11.28125 
L 54.109375 2.78125 
Q 49.265625 0.734375 44.1875 -0.34375 
Q 39.109375 -1.421875 33.890625 -1.421875 
Q 20.796875 -1.421875 13.15625 6.1875 
Q 5.515625 13.8125 5.515625 26.8125 
Q 5.515625 40.234375 12.765625 48.109375 
Q 20.015625 56 32.328125 56 
Q 43.359375 56 49.78125 48.890625 
Q 56.203125 41.796875 56.203125 29.59375 
z
M 47.21875 32.234375 
Q 47.125 39.59375 43.09375 43.984375 
Q 39.0625 48.390625 32.421875 48.390625 
Q 24.90625 48.390625 20.390625 44.140625 
Q 15.875 39.890625 15.1875 32.171875 
z
" id="DejaVuSans-101"/>
     <path d="M 41.109375 46.296875 
Q 39.59375 47.171875 37.8125 47.578125 
Q 36.03125 48 33.890625 48 
Q 26.265625 48 22.1875 43.046875 
Q 18.109375 38.09375 18.109375 28.8125 
L 18.109375 0 
L 9.078125 0 
L 9.078125 54.6875 
L 18.109375 54.6875 
L 18.109375 46.1875 
Q 20.953125 51.171875 25.484375 53.578125 
Q 30.03125 56 36.53125 56 
Q 37.453125 56 38.578125 55.875 
Q 39.703125 55.765625 41.0625 55.515625 
z
" id="DejaVuSans-114"/>
     <path d="M 9.421875 75.984375 
L 18.40625 75.984375 
L 18.40625 0 
L 9.421875 0 
z
" id="DejaVuSans-108"/>
     <path d="M 9.421875 54.6875 
L 18.40625 54.6875 
L 18.40625 0 
L 9.421875 0 
z
M 9.421875 75.984375 
L 18.40625 75.984375 
L 18.40625 64.59375 
L 9.421875 64.59375 
z
" id="DejaVuSans-105"/>
     <path d="M 54.890625 33.015625 
L 54.890625 0 
L 45.90625 0 
L 45.90625 32.71875 
Q 45.90625 40.484375 42.875 44.328125 
Q 39.84375 48.1875 33.796875 48.1875 
Q 26.515625 48.1875 22.3125 43.546875 
Q 18.109375 38.921875 18.109375 30.90625 
L 18.109375 0 
L 9.078125 0 
L 9.078125 54.6875 
L 18.109375 54.6875 
L 18.109375 46.1875 
Q 21.34375 51.125 25.703125 53.5625 
Q 30.078125 56 35.796875 56 
Q 45.21875 56 50.046875 50.171875 
Q 54.890625 44.34375 54.890625 33.015625 
z
" id="DejaVuSans-110"/>
     <path id="DejaVuSans-32"/>
     <path d="M 19.671875 64.796875 
L 19.671875 8.109375 
L 31.59375 8.109375 
Q 46.6875 8.109375 53.6875 14.9375 
Q 60.6875 21.78125 60.6875 36.53125 
Q 60.6875 51.171875 53.6875 57.984375 
Q 46.6875 64.796875 31.59375 64.796875 
z
M 9.8125 72.90625 
L 30.078125 72.90625 
Q 51.265625 72.90625 61.171875 64.09375 
Q 71.09375 55.28125 71.09375 36.53125 
Q 71.09375 17.671875 61.125 8.828125 
Q 51.171875 0 30.078125 0 
L 9.8125 0 
z
" id="DejaVuSans-68"/>
     <path d="M 46 62.703125 
L 46 35.5 
L 73.1875 35.5 
L 73.1875 27.203125 
L 46 27.203125 
L 46 0 
L 37.796875 0 
L 37.796875 27.203125 
L 10.59375 27.203125 
L 10.59375 35.5 
L 37.796875 35.5 
L 37.796875 62.703125 
z
" id="DejaVuSans-43"/>
     <path d="M 2.984375 54.6875 
L 12.5 54.6875 
L 29.59375 8.796875 
L 46.6875 54.6875 
L 56.203125 54.6875 
L 35.6875 0 
L 23.484375 0 
z
" id="DejaVuSans-118"/>
     <path d="M 34.28125 27.484375 
Q 23.390625 27.484375 19.1875 25 
Q 14.984375 22.515625 14.984375 16.5 
Q 14.984375 11.71875 18.140625 8.90625 
Q 21.296875 6.109375 26.703125 6.109375 
Q 34.1875 6.109375 38.703125 11.40625 
Q 43.21875 16.703125 43.21875 25.484375 
L 43.21875 27.484375 
z
M 52.203125 31.203125 
L 52.203125 0 
L 43.21875 0 
L 43.21875 8.296875 
Q 40.140625 3.328125 35.546875 0.953125 
Q 30.953125 -1.421875 24.3125 -1.421875 
Q 15.921875 -1.421875 10.953125 3.296875 
Q 6 8.015625 6 15.921875 
Q 6 25.140625 12.171875 29.828125 
Q 18.359375 34.515625 30.609375 34.515625 
L 43.21875 34.515625 
L 43.21875 35.40625 
Q 43.21875 41.609375 39.140625 45 
Q 35.0625 48.390625 27.6875 48.390625 
Q 23 48.390625 18.546875 47.265625 
Q 14.109375 46.140625 10.015625 43.890625 
L 10.015625 52.203125 
Q 14.9375 54.109375 19.578125 55.046875 
Q 24.21875 56 28.609375 56 
Q 40.484375 56 46.34375 49.84375 
Q 52.203125 43.703125 52.203125 31.203125 
z
" id="DejaVuSans-97"/>
     <path d="M 48.78125 52.59375 
L 48.78125 44.1875 
Q 44.96875 46.296875 41.140625 47.34375 
Q 37.3125 48.390625 33.40625 48.390625 
Q 24.65625 48.390625 19.8125 42.84375 
Q 14.984375 37.3125 14.984375 27.296875 
Q 14.984375 17.28125 19.8125 11.734375 
Q 24.65625 6.203125 33.40625 6.203125 
Q 37.3125 6.203125 41.140625 7.25 
Q 44.96875 8.296875 48.78125 10.40625 
L 48.78125 2.09375 
Q 45.015625 0.34375 40.984375 -0.53125 
Q 36.96875 -1.421875 32.421875 -1.421875 
Q 20.0625 -1.421875 12.78125 6.34375 
Q 5.515625 14.109375 5.515625 27.296875 
Q 5.515625 40.671875 12.859375 48.328125 
Q 20.21875 56 33.015625 56 
Q 37.15625 56 41.109375 55.140625 
Q 45.0625 54.296875 48.78125 52.59375 
z
" id="DejaVuSans-99"/>
    </defs>
    <g transform="translate(534.485132 124.390985)scale(0.16 -0.16)">
     <use xlink:href="#DejaVuSans-77"/>
     <use x="86.279297" xlink:href="#DejaVuSans-101"/>
     <use x="147.802734" xlink:href="#DejaVuSans-114"/>
     <use x="188.916016" xlink:href="#DejaVuSans-108"/>
     <use x="216.699219" xlink:href="#DejaVuSans-105"/>
     <use x="244.482422" xlink:href="#DejaVuSans-110"/>
     <use x="307.861328" xlink:href="#DejaVuSans-32"/>
     <use x="339.648438" xlink:href="#DejaVuSans-49"/>
     <use x="403.271484" xlink:href="#DejaVuSans-68"/>
     <use x="480.273438" xlink:href="#DejaVuSans-43"/>
     <use x="564.0625" xlink:href="#DejaVuSans-32"/>
     <use x="595.849609" xlink:href="#DejaVuSans-118"/>
     <use x="655.029297" xlink:href="#DejaVuSans-97"/>
     <use x="716.308594" xlink:href="#DejaVuSans-99"/>
    </g>
   </g>
   <g id="text_7">
    <!-- Merlin 1D+ vac -->
    <g transform="translate(534.485132 124.390985)scale(0.16 -0.16)">
     <use xlink:href="#DejaVuSans-77"/>
     <use x="86.279297" xlink:href="#DejaVuSans-101"/>
     <use x="147.802734" xlink:href="#DejaVuSans-114"/>
     <use x="188.916016" xlink:href="#DejaVuSans-108"/>
     <use x="216.699219" xlink:href="#DejaVuSans-105"/>
     <use x="244.482422" xlink:href="#DejaVuSans-110"/>
     <use x="307.861328" xlink:href="#DejaVuSans-32"/>
     <use x="339.648438" xlink:href="#DejaVuSans-49"/>
     <use x="403.271484" xlink:href="#DejaVuSans-68"/>
     <use x="480.273438" xlink:href="#DejaVuSans-43"/>
     <use x="564.0625" xlink:href="#DejaVuSans-32"/>
     <use x="595.849609" xlink:href="#DejaVuSans-118"/>
     <use x="655.029297" xlink:href="#DejaVuSans-97"/>
     <use x="716.308594" xlink:href="#DejaVuSans-99"/>
    </g>
   </g>
   <g id="text_8">
    <!-- Merlin 1D+ vac -->
    <g transform="translate(534.485132 124.390985)scale(0.16 -0.16)">
     <use xlink:href="#DejaVuSans-77"/>
     <use x="86.279297" xlink:href="#DejaVuSans-101"/>
     <use x="147.802734" xlink:href="#DejaVuSans-114"/>
     <use x="188.916016" xlink:href="#DejaVuSans-108"/>
     <use x="216.699219" xlink:href="#DejaVuSans-105"/>
     <use x="244.482422" xlink:href="#DejaVuSans-110"/>
     <use x="307.861328" xlink:href="#DejaVuSans-32"/>
     <use x="339.648438" xlink:href="#DejaVuSans-49"/>
     <use x="403.271484" xlink:href="#DejaVuSans-68"/>
     <use x="480.273438" xlink:href="#DejaVuSans-43"/>
     <use x="564.0625" xlink:href="#DejaVuSans-32"/>
     <use x="595.849609" xlink:href="#DejaVuSans-118"/>
     <use x="655.029297" xlink:href="#DejaVuSans-97"/>
     <use x="716.308594" xlink:href="#DejaVuSans-99"/>
    </g>
   </g>
   <g id="text_9">
    <!-- Merlin 1D+ vac -->
    <g transform="translate(534.485132 124.390985)scale(0.16 -0.16)">
     <use xlink:href="#DejaVuSans-77"/>
     <use x="86.279297" xlink:href="#DejaVuSans-101"/>
     <use x="147.802734" xlink:href="#DejaVuSans-114"/>
     <use x="188.916016" xlink:href="#DejaVuSans-108"/>
     <use x="216.699219" xlink:href="#DejaVuSans-105"/>
     <use x="244.482422" xlink:href="#DejaVuSans-110"/>
     <use x="307.861328" xlink:href="#DejaVuSans-32"/>
     <use x="339.648438" xlink:href="#DejaVuSans-49"/>
     <use x="403.271484" xlink:href="#DejaVuSans-68"/>
     <use x="480.273438" xlink:href="#DejaVuSans-43"/>
     <use x="564.0625" xlink:href="#DejaVuSans-32"/>
     <use x="595.849609" xlink:href="#DejaVuSans-118"/>
     <use x="655.029297" xlink:href="#DejaVuSans-97"/>
     <use x="716.308594" xlink:href="#DejaVuSans-99"/>
    </g>
   </g>
   <g id="text_10">
    <!-- Merlin 1D+ vac -->
    <g transform="translate(534.485132 124.390985)scale(0.16 -0.16)">
     <use xlink:href="#DejaVuSans-77"/>
     <use x="86.279297" xlink:href="#DejaVuSans-101"/>
     <use x="147.802734" xlink:href="#DejaVuSans-114"/>
     <use x="188.916016" xlink:href="#DejaVuSans-108"/>
     <use x="216.699219" xlink:href="#DejaVuSans-105"/>
     <use x="244.482422" xlink:href="#DejaVuSans-110"/>
     <use x="307.861328" xlink:href="#DejaVuSans-32"/>
     <use x="339.648438" xlink:href="#DejaVuSans-49"/>
     <use x="403.271484" xlink:href="#DejaVuSans-68"/>
     <use x="480.273438" xlink:href="#DejaVuSans-43"/>
     <use x="564.0625" xlink:href="#DejaVuSans-32"/>
     <use x="595.849609" xlink:href="#DejaVuSans-118"/>
     <use x="655.029297" xlink:href="#DejaVuSans-97"/>
     <use x="716.308594" xlink:href="#DejaVuSans-99"/>
    </g>
   </g>
   <g id="text_11">
    <!-- Vulcain II -->
    <defs>
     <path d="M 28.609375 0 
L 0.78125 72.90625 
L 11.078125 72.90625 
L 34.1875 11.53125 
L 57.328125 72.90625 
L 67.578125 72.90625 
L 39.796875 0 
z
" id="DejaVuSans-86"/>
     <path d="M 8.5 21.578125 
L 8.5 54.6875 
L 17.484375 54.6875 
L 17.484375 21.921875 
Q 17.484375 14.15625 20.5 10.265625 
Q 23.53125 6.390625 29.59375 6.390625 
Q 36.859375 6.390625 41.078125 11.03125 
Q 45.3125 15.671875 45.3125 23.6875 
L 45.3125 54.6875 
L 54.296875 54.6875 
L 54.296875 0 
L 45.3125 0 
L 45.3125 8.40625 
Q 42.046875 3.421875 37.71875 1 
Q 33.40625 -1.421875 27.6875 -1.421875 
Q 18.265625 -1.421875 13.375 4.4375 
Q 8.5 10.296875 8.5 21.578125 
z
M 31.109375 56 
z
" id="DejaVuSans-117"/>
     <path d="M 9.8125 72.90625 
L 19.671875 72.90625 
L 19.671875 0 
L 9.8125 0 
z
" id="DejaVuSans-73"/>
    </defs>
    <g transform="translate(796.551922 234.754677)scale(0.16 -0.16)">
     <use xlink:href="#DejaVuSans-86"/>
     <use x="61.658203" xlink:href="#DejaVuSans-117"/>
     <use x="125.037109" xlink:href="#DejaVuSans-108"/>
     <use x="152.820312" xlink:href="#DejaVuSans-99"/>
     <use x="207.800781" xlink:href="#DejaVuSans-97"/>
     <use x="269.080078" xlink:href="#DejaVuSans-105"/>
     <use x="296.863281" xlink:href="#DejaVuSans-110"/>
     <use x="360.242188" xlink:href="#DejaVuSans-32"/>
     <use x="392.029297" xlink:href="#DejaVuSans-73"/>
     <use x="421.521484" xlink:href="#DejaVuSans-73"/>
    </g>
   </g>
   <g id="text_12">
    <!-- Vulcain II -->
    <g transform="translate(796.551922 234.754677)scale(0.16 -0.16)">
     <use xlink:href="#DejaVuSans-86"/>
     <use x="61.658203" xlink:href="#DejaVuSans-117"/>
     <use x="125.037109" xlink:href="#DejaVuSans-108"/>
     <use x="152.820312" xlink:href="#DejaVuSans-99"/>
     <use x="207.800781" xlink:href="#DejaVuSans-97"/>
     <use x="269.080078" xlink:href="#DejaVuSans-105"/>
     <use x="296.863281" xlink:href="#DejaVuSans-110"/>
     <use x="360.242188" xlink:href="#DejaVuSans-32"/>
     <use x="392.029297" xlink:href="#DejaVuSans-73"/>
     <use x="421.521484" xlink:href="#DejaVuSans-73"/>
    </g>
   </g>
   <g id="text_13">
    <!-- Vulcain II -->
    <g transform="translate(796.551922 234.754677)scale(0.16 -0.16)">
     <use xlink:href="#DejaVuSans-86"/>
     <use x="61.658203" xlink:href="#DejaVuSans-117"/>
     <use x="125.037109" xlink:href="#DejaVuSans-108"/>
     <use x="152.820312" xlink:href="#DejaVuSans-99"/>
     <use x="207.800781" xlink:href="#DejaVuSans-97"/>
     <use x="269.080078" xlink:href="#DejaVuSans-105"/>
     <use x="296.863281" xlink:href="#DejaVuSans-110"/>
     <use x="360.242188" xlink:href="#DejaVuSans-32"/>
     <use x="392.029297" xlink:href="#DejaVuSans-73"/>
     <use x="421.521484" xlink:href="#DejaVuSans-73"/>
    </g>
   </g>
   <g id="text_14">
    <!-- Vulcain II -->
    <g transform="translate(796.551922 234.754677)scale(0.16 -0.16)">
     <use xlink:href="#DejaVuSans-86"/>
     <use x="61.658203" xlink:href="#DejaVuSans-117"/>
     <use x="125.037109" xlink:href="#DejaVuSans-108"/>
     <use x="152.820312" xlink:href="#DejaVuSans-99"/>
     <use x="207.800781" xlink:href="#DejaVuSans-97"/>
     <use x="269.080078" xlink:href="#DejaVuSans-105"/>
     <use x="296.863281" xlink:href="#DejaVuSans-110"/>
     <use x="360.242188" xlink:href="#DejaVuSans-32"/>
     <use x="392.029297" xlink:href="#DejaVuSans-73"/>
     <use x="421.521484" xlink:href="#DejaVuSans-73"/>
    </g>
   </g>
   <g id="text_15">
    <!-- Vulcain II -->
    <g transform="translate(796.551922 234.754677)scale(0.16 -0.16)">
     <use xlink:href="#DejaVuSans-86"/>
     <use x="61.658203" xlink:href="#DejaVuSans-117"/>
     <use x="125.037109" xlink:href="#DejaVuSans-108"/>
     <use x="152.820312" xlink:href="#DejaVuSans-99"/>
     <use x="207.800781" xlink:href="#DejaVuSans-97"/>
     <use x="269.080078" xlink:href="#DejaVuSans-105"/>
     <use x="296.863281" xlink:href="#DejaVuSans-110"/>
     <use x="360.242188" xlink:href="#DejaVuSans-32"/>
     <use x="392.029297" xlink:href="#DejaVuSans-73"/>
     <use x="421.521484" xlink:href="#DejaVuSans-73"/>
    </g>
   </g>
   <g id="text_16">
    <!-- J-2 -->
    <defs>
     <path d="M 9.8125 72.90625 
L 19.671875 72.90625 
L 19.671875 5.078125 
Q 19.671875 -8.109375 14.671875 -14.0625 
Q 9.671875 -20.015625 -1.421875 -20.015625 
L -5.171875 -20.015625 
L -5.171875 -11.71875 
L -2.09375 -11.71875 
Q 4.4375 -11.71875 7.125 -8.046875 
Q 9.8125 -4.390625 9.8125 5.078125 
z
" id="DejaVuSans-74"/>
     <path d="M 19.1875 8.296875 
L 53.609375 8.296875 
L 53.609375 0 
L 7.328125 0 
L 7.328125 8.296875 
Q 12.9375 14.109375 22.625 23.890625 
Q 32.328125 33.6875 34.8125 36.53125 
Q 39.546875 41.84375 41.421875 45.53125 
Q 43.3125 49.21875 43.3125 52.78125 
Q 43.3125 58.59375 39.234375 62.25 
Q 35.15625 65.921875 28.609375 65.921875 
Q 23.96875 65.921875 18.8125 64.3125 
Q 13.671875 62.703125 7.8125 59.421875 
L 7.8125 69.390625 
Q 13.765625 71.78125 18.9375 73 
Q 24.125 74.21875 28.421875 74.21875 
Q 39.75 74.21875 46.484375 68.546875 
Q 53.21875 62.890625 53.21875 53.421875 
Q 53.21875 48.921875 51.53125 44.890625 
Q 49.859375 40.875 45.40625 35.40625 
Q 44.1875 33.984375 37.640625 27.21875 
Q 31.109375 20.453125 19.1875 8.296875 
z
" id="DejaVuSans-50"/>
    </defs>
    <g transform="translate(1015.791623 264.847677)scale(0.16 -0.16)">
     <use xlink:href="#DejaVuSans-74"/>
     <use x="25.867188" xlink:href="#DejaVuSans-45"/>
     <use x="61.951172" xlink:href="#DejaVuSans-50"/>
    </g>
   </g>
   <g id="text_17">
    <!-- J-2 -->
    <g transform="translate(1015.791623 264.847677)scale(0.16 -0.16)">
     <use xlink:href="#DejaVuSans-74"/>
     <use x="25.867188" xlink:href="#DejaVuSans-45"/>
     <use x="61.951172" xlink:href="#DejaVuSans-50"/>
    </g>
   </g>
   <g id="text_18">
    <!-- J-2 -->
    <g transform="translate(1015.791623 264.847677)scale(0.16 -0.16)">
     <use xlink:href="#DejaVuSans-74"/>
     <use x="25.867188" xlink:href="#DejaVuSans-45"/>
     <use x="61.951172" xlink:href="#DejaVuSans-50"/>
    </g>
   </g>
   <g id="text_19">
    <!-- J-2 -->
    <g transform="translate(1015.791623 264.847677)scale(0.16 -0.16)">
     <use xlink:href="#DejaVuSans-74"/>
     <use x="25.867188" xlink:href="#DejaVuSans-45"/>
     <use x="61.951172" xlink:href="#DejaVuSans-50"/>
    </g>
   </g>
   <g id="text_20">
    <!-- J-2 -->
    <g transform="translate(1015.791623 264.847677)scale(0.16 -0.16)">
     <use xlink:href="#DejaVuSans-74"/>
     <use x="25.867188" xlink:href="#DejaVuSans-45"/>
     <use x="61.951172" xlink:href="#DejaVuSans-50"/>
    </g>
   </g>
   <g id="text_21">
    <!-- Merlin 1D+ -->
    <g transform="translate(1129.262902 360.843133)scale(0.16 -0.16)">
     <use xlink:href="#DejaVuSans-77"/>
     <use x="86.279297" xlink:href="#DejaVuSans-101"/>
     <use x="147.802734" xlink:href="#DejaVuSans-114"/>
     <use x="188.916016" xlink:href="#DejaVuSans-108"/>
     <use x="216.699219" xlink:href="#DejaVuSans-105"/>
     <use x="244.482422" xlink:href="#DejaVuSans-110"/>
     <use x="307.861328" xlink:href="#DejaVuSans-32"/>
     <use x="339.648438" xlink:href="#DejaVuSans-49"/>
     <use x="403.271484" xlink:href="#DejaVuSans-68"/>
     <use x="480.273438" xlink:href="#DejaVuSans-43"/>
    </g>
   </g>
   <g id="text_22">
    <!-- Merlin 1D+ -->
    <g transform="translate(1129.262902 360.843133)scale(0.16 -0.16)">
     <use xlink:href="#DejaVuSans-77"/>
     <use x="86.279297" xlink:href="#DejaVuSans-101"/>
     <use x="147.802734" xlink:href="#DejaVuSans-114"/>
     <use x="188.916016" xlink:href="#DejaVuSans-108"/>
     <use x="216.699219" xlink:href="#DejaVuSans-105"/>
     <use x="244.482422" xlink:href="#DejaVuSans-110"/>
     <use x="307.861328" xlink:href="#DejaVuSans-32"/>
     <use x="339.648438" xlink:href="#DejaVuSans-49"/>
     <use x="403.271484" xlink:href="#DejaVuSans-68"/>
     <use x="480.273438" xlink:href="#DejaVuSans-43"/>
    </g>
   </g>
   <g id="text_23">
    <!-- Merlin 1D+ -->
    <g transform="translate(1129.262902 360.843133)scale(0.16 -0.16)">
     <use xlink:href="#DejaVuSans-77"/>
     <use x="86.279297" xlink:href="#DejaVuSans-101"/>
     <use x="147.802734" xlink:href="#DejaVuSans-114"/>
     <use x="188.916016" xlink:href="#DejaVuSans-108"/>
     <use x="216.699219" xlink:href="#DejaVuSans-105"/>
     <use x="244.482422" xlink:href="#DejaVuSans-110"/>
     <use x="307.861328" xlink:href="#DejaVuSans-32"/>
     <use x="339.648438" xlink:href="#DejaVuSans-49"/>
     <use x="403.271484" xlink:href="#DejaVuSans-68"/>
     <use x="480.273438" xlink:href="#DejaVuSans-43"/>
    </g>
   </g>
   <g id="text_24">
    <!-- Merlin 1D+ -->
    <g transform="translate(1129.262902 360.843133)scale(0.16 -0.16)">
     <use xlink:href="#DejaVuSans-77"/>
     <use x="86.279297" xlink:href="#DejaVuSans-101"/>
     <use x="147.802734" xlink:href="#DejaVuSans-114"/>
     <use x="188.916016" xlink:href="#DejaVuSans-108"/>
     <use x="216.699219" xlink:href="#DejaVuSans-105"/>
     <use x="244.482422" xlink:href="#DejaVuSans-110"/>
     <use x="307.861328" xlink:href="#DejaVuSans-32"/>
     <use x="339.648438" xlink:href="#DejaVuSans-49"/>
     <use x="403.271484" xlink:href="#DejaVuSans-68"/>
     <use x="480.273438" xlink:href="#DejaVuSans-43"/>
    </g>
   </g>
   <g id="text_25">
    <!-- Merlin 1D+ -->
    <g transform="translate(1129.262902 360.843133)scale(0.16 -0.16)">
     <use xlink:href="#DejaVuSans-77"/>
     <use x="86.279297" xlink:href="#DejaVuSans-101"/>
     <use x="147.802734" xlink:href="#DejaVuSans-114"/>
     <use x="188.916016" xlink:href="#DejaVuSans-108"/>
     <use x="216.699219" xlink:href="#DejaVuSans-105"/>
     <use x="244.482422" xlink:href="#DejaVuSans-110"/>
     <use x="307.861328" xlink:href="#DejaVuSans-32"/>
     <use x="339.648438" xlink:href="#DejaVuSans-49"/>
     <use x="403.271484" xlink:href="#DejaVuSans-68"/>
     <use x="480.273438" xlink:href="#DejaVuSans-43"/>
    </g>
   </g>
   <g id="text_26">
    <!-- HM7B -->
    <defs>
     <path d="M 9.8125 72.90625 
L 19.671875 72.90625 
L 19.671875 43.015625 
L 55.515625 43.015625 
L 55.515625 72.90625 
L 65.375 72.90625 
L 65.375 0 
L 55.515625 0 
L 55.515625 34.71875 
L 19.671875 34.71875 
L 19.671875 0 
L 9.8125 0 
z
" id="DejaVuSans-72"/>
     <path d="M 8.203125 72.90625 
L 55.078125 72.90625 
L 55.078125 68.703125 
L 28.609375 0 
L 18.3125 0 
L 43.21875 64.59375 
L 8.203125 64.59375 
z
" id="DejaVuSans-55"/>
     <path d="M 19.671875 34.8125 
L 19.671875 8.109375 
L 35.5 8.109375 
Q 43.453125 8.109375 47.28125 11.40625 
Q 51.125 14.703125 51.125 21.484375 
Q 51.125 28.328125 47.28125 31.5625 
Q 43.453125 34.8125 35.5 34.8125 
z
M 19.671875 64.796875 
L 19.671875 42.828125 
L 34.28125 42.828125 
Q 41.5 42.828125 45.03125 45.53125 
Q 48.578125 48.25 48.578125 53.8125 
Q 48.578125 59.328125 45.03125 62.0625 
Q 41.5 64.796875 34.28125 64.796875 
z
M 9.8125 72.90625 
L 35.015625 72.90625 
Q 46.296875 72.90625 52.390625 68.21875 
Q 58.5 63.53125 58.5 54.890625 
Q 58.5 48.1875 55.375 44.234375 
Q 52.25 40.28125 46.1875 39.3125 
Q 53.46875 37.75 57.5 32.78125 
Q 61.53125 27.828125 61.53125 20.40625 
Q 61.53125 10.640625 54.890625 5.3125 
Q 48.25 0 35.984375 0 
L 9.8125 0 
z
" id="DejaVuSans-66"/>
    </defs>
    <g transform="translate(1261.883185 365.738391)scale(0.16 -0.16)">
     <use xlink:href="#DejaVuSans-72"/>
     <use x="75.195312" xlink:href="#DejaVuSans-77"/>
     <use x="161.474609" xlink:href="#DejaVuSans-55"/>
     <use x="225.097656" xlink:href="#DejaVuSans-66"/>
    </g>
   </g>
   <g id="text_27">
    <!-- HM7B -->
    <g transform="translate(1261.883185 365.738391)scale(0.16 -0.16)">
     <use xlink:href="#DejaVuSans-72"/>
     <use x="75.195312" xlink:href="#DejaVuSans-77"/>
     <use x="161.474609" xlink:href="#DejaVuSans-55"/>
     <use x="225.097656" xlink:href="#DejaVuSans-66"/>
    </g>
   </g>
   <g id="text_28">
    <!-- HM7B -->
    <g transform="translate(1261.883185 365.738391)scale(0.16 -0.16)">
     <use xlink:href="#DejaVuSans-72"/>
     <use x="75.195312" xlink:href="#DejaVuSans-77"/>
     <use x="161.474609" xlink:href="#DejaVuSans-55"/>
     <use x="225.097656" xlink:href="#DejaVuSans-66"/>
    </g>
   </g>
   <g id="text_29">
    <!-- HM7B -->
    <g transform="translate(1261.883185 365.738391)scale(0.16 -0.16)">
     <use xlink:href="#DejaVuSans-72"/>
     <use x="75.195312" xlink:href="#DejaVuSans-77"/>
     <use x="161.474609" xlink:href="#DejaVuSans-55"/>
     <use x="225.097656" xlink:href="#DejaVuSans-66"/>
    </g>
   </g>
   <g id="text_30">
    <!-- HM7B -->
    <g transform="translate(1261.883185 365.738391)scale(0.16 -0.16)">
     <use xlink:href="#DejaVuSans-72"/>
     <use x="75.195312" xlink:href="#DejaVuSans-77"/>
     <use x="161.474609" xlink:href="#DejaVuSans-55"/>
     <use x="225.097656" xlink:href="#DejaVuSans-66"/>
    </g>
   </g>
  </g>
 </g>
 <defs>
  <clipPath id="p15ec12cf53">
   <rect height="482.602191" width="1296" x="86.4" y="46.698904"/>
  </clipPath>
 </defs>
</svg>
