<?xml version="1.0" encoding="utf-8" standalone="no"?>
<!DOCTYPE svg PUBLIC "-//W3C//DTD SVG 1.1//EN"
  "http://www.w3.org/Graphics/SVG/1.1/DTD/svg11.dtd">
<!-- Created with matplotlib (https://matplotlib.org/) -->
<svg height="720pt" version="1.1" viewBox="0 0 504 720" width="504pt" xmlns="http://www.w3.org/2000/svg" xmlns:xlink="http://www.w3.org/1999/xlink">
 <defs>
  <style type="text/css">
*{stroke-linecap:butt;stroke-linejoin:round;}
  </style>
 </defs>
 <g id="figure_1">
  <g id="patch_1">
   <path d="M 0 720 
L 504 720 
L 504 0 
L 0 0 
z
" style="fill:#ffffff;"/>
  </g>
  <g id="axes_1">
   <g id="patch_2">
    <path d="M 33.420345 684 
L 480.659655 684 
L 480.659655 36 
L 33.420345 36 
z
" style="fill:#ffffff;"/>
   </g>
   <g id="matplotlib.axis_1">
    <g id="xtick_1">
     <g id="line2d_1">
      <path clip-path="url(#p36b09f065a)" d="M 34.51006 684 
L 34.51006 36 
" style="fill:none;stroke:#b0b0b0;stroke-linecap:square;stroke-width:0.8;"/>
     </g>
     <g id="line2d_2">
      <defs>
       <path d="M 0 0 
L 0 3.5 
" id="mafd11ca525" style="stroke:#000000;stroke-width:0.8;"/>
      </defs>
      <g>
       <use style="stroke:#000000;stroke-width:0.8;" x="34.51006" xlink:href="#mafd11ca525" y="684"/>
      </g>
     </g>
     <g id="text_1">
      <!-- −2.0 -->
      <defs>
       <path d="M 10.59375 35.5 
L 73.1875 35.5 
L 73.1875 27.203125 
L 10.59375 27.203125 
z
" id="DejaVuSans-8722"/>
       <path d="M 19.1875 8.296875 
L 53.609375 8.296875 
L 53.609375 0 
L 7.328125 0 
L 7.328125 8.296875 
Q 12.9375 14.109375 22.625 23.890625 
Q 32.328125 33.6875 34.8125 36.53125 
Q 39.546875 41.84375 41.421875 45.53125 
Q 43.3125 49.21875 43.3125 52.78125 
Q 43.3125 58.59375 39.234375 62.25 
Q 35.15625 65.921875 28.609375 65.921875 
Q 23.96875 65.921875 18.8125 64.3125 
Q 13.671875 62.703125 7.8125 59.421875 
L 7.8125 69.390625 
Q 13.765625 71.78125 18.9375 73 
Q 24.125 74.21875 28.421875 74.21875 
Q 39.75 74.21875 46.484375 68.546875 
Q 53.21875 62.890625 53.21875 53.421875 
Q 53.21875 48.921875 51.53125 44.890625 
Q 49.859375 40.875 45.40625 35.40625 
Q 44.1875 33.984375 37.640625 27.21875 
Q 31.109375 20.453125 19.1875 8.296875 
z
" id="DejaVuSans-50"/>
       <path d="M 10.6875 12.40625 
L 21 12.40625 
L 21 0 
L 10.6875 0 
z
" id="DejaVuSans-46"/>
       <path d="M 31.78125 66.40625 
Q 24.171875 66.40625 20.328125 58.90625 
Q 16.5 51.421875 16.5 36.375 
Q 16.5 21.390625 20.328125 13.890625 
Q 24.171875 6.390625 31.78125 6.390625 
Q 39.453125 6.390625 43.28125 13.890625 
Q 47.125 21.390625 47.125 36.375 
Q 47.125 51.421875 43.28125 58.90625 
Q 39.453125 66.40625 31.78125 66.40625 
z
M 31.78125 74.21875 
Q 44.046875 74.21875 50.515625 64.515625 
Q 56.984375 54.828125 56.984375 36.375 
Q 56.984375 17.96875 50.515625 8.265625 
Q 44.046875 -1.421875 31.78125 -1.421875 
Q 19.53125 -1.421875 13.0625 8.265625 
Q 6.59375 17.96875 6.59375 36.375 
Q 6.59375 54.828125 13.0625 64.515625 
Q 19.53125 74.21875 31.78125 74.21875 
z
" id="DejaVuSans-48"/>
      </defs>
      <g transform="translate(22.368654 698.598438)scale(0.1 -0.1)">
       <use xlink:href="#DejaVuSans-8722"/>
       <use x="83.789062" xlink:href="#DejaVuSans-50"/>
       <use x="147.412109" xlink:href="#DejaVuSans-46"/>
       <use x="179.199219" xlink:href="#DejaVuSans-48"/>
      </g>
     </g>
    </g>
    <g id="xtick_2">
     <g id="line2d_3">
      <path clip-path="url(#p36b09f065a)" d="M 90.142545 684 
L 90.142545 36 
" style="fill:none;stroke:#b0b0b0;stroke-linecap:square;stroke-width:0.8;"/>
     </g>
     <g id="line2d_4">
      <g>
       <use style="stroke:#000000;stroke-width:0.8;" x="90.142545" xlink:href="#mafd11ca525" y="684"/>
      </g>
     </g>
     <g id="text_2">
      <!-- −1.5 -->
      <defs>
       <path d="M 12.40625 8.296875 
L 28.515625 8.296875 
L 28.515625 63.921875 
L 10.984375 60.40625 
L 10.984375 69.390625 
L 28.421875 72.90625 
L 38.28125 72.90625 
L 38.28125 8.296875 
L 54.390625 8.296875 
L 54.390625 0 
L 12.40625 0 
z
" id="DejaVuSans-49"/>
       <path d="M 10.796875 72.90625 
L 49.515625 72.90625 
L 49.515625 64.59375 
L 19.828125 64.59375 
L 19.828125 46.734375 
Q 21.96875 47.46875 24.109375 47.828125 
Q 26.265625 48.1875 28.421875 48.1875 
Q 40.625 48.1875 47.75 41.5 
Q 54.890625 34.8125 54.890625 23.390625 
Q 54.890625 11.625 47.5625 5.09375 
Q 40.234375 -1.421875 26.90625 -1.421875 
Q 22.3125 -1.421875 17.546875 -0.640625 
Q 12.796875 0.140625 7.71875 1.703125 
L 7.71875 11.625 
Q 12.109375 9.234375 16.796875 8.0625 
Q 21.484375 6.890625 26.703125 6.890625 
Q 35.15625 6.890625 40.078125 11.328125 
Q 45.015625 15.765625 45.015625 23.390625 
Q 45.015625 31 40.078125 35.4375 
Q 35.15625 39.890625 26.703125 39.890625 
Q 22.75 39.890625 18.8125 39.015625 
Q 14.890625 38.140625 10.796875 36.28125 
z
" id="DejaVuSans-53"/>
      </defs>
      <g transform="translate(78.001139 698.598438)scale(0.1 -0.1)">
       <use xlink:href="#DejaVuSans-8722"/>
       <use x="83.789062" xlink:href="#DejaVuSans-49"/>
       <use x="147.412109" xlink:href="#DejaVuSans-46"/>
       <use x="179.199219" xlink:href="#DejaVuSans-53"/>
      </g>
     </g>
    </g>
    <g id="xtick_3">
     <g id="line2d_5">
      <path clip-path="url(#p36b09f065a)" d="M 145.77503 684 
L 145.77503 36 
" style="fill:none;stroke:#b0b0b0;stroke-linecap:square;stroke-width:0.8;"/>
     </g>
     <g id="line2d_6">
      <g>
       <use style="stroke:#000000;stroke-width:0.8;" x="145.77503" xlink:href="#mafd11ca525" y="684"/>
      </g>
     </g>
     <g id="text_3">
      <!-- −1.0 -->
      <g transform="translate(133.633624 698.598438)scale(0.1 -0.1)">
       <use xlink:href="#DejaVuSans-8722"/>
       <use x="83.789062" xlink:href="#DejaVuSans-49"/>
       <use x="147.412109" xlink:href="#DejaVuSans-46"/>
       <use x="179.199219" xlink:href="#DejaVuSans-48"/>
      </g>
     </g>
    </g>
    <g id="xtick_4">
     <g id="line2d_7">
      <path clip-path="url(#p36b09f065a)" d="M 201.407515 684 
L 201.407515 36 
" style="fill:none;stroke:#b0b0b0;stroke-linecap:square;stroke-width:0.8;"/>
     </g>
     <g id="line2d_8">
      <g>
       <use style="stroke:#000000;stroke-width:0.8;" x="201.407515" xlink:href="#mafd11ca525" y="684"/>
      </g>
     </g>
     <g id="text_4">
      <!-- −0.5 -->
      <g transform="translate(189.266109 698.598438)scale(0.1 -0.1)">
       <use xlink:href="#DejaVuSans-8722"/>
       <use x="83.789062" xlink:href="#DejaVuSans-48"/>
       <use x="147.412109" xlink:href="#DejaVuSans-46"/>
       <use x="179.199219" xlink:href="#DejaVuSans-53"/>
      </g>
     </g>
    </g>
    <g id="xtick_5">
     <g id="line2d_9">
      <path clip-path="url(#p36b09f065a)" d="M 257.04 684 
L 257.04 36 
" style="fill:none;stroke:#b0b0b0;stroke-linecap:square;stroke-width:0.8;"/>
     </g>
     <g id="line2d_10">
      <g>
       <use style="stroke:#000000;stroke-width:0.8;" x="257.04" xlink:href="#mafd11ca525" y="684"/>
      </g>
     </g>
     <g id="text_5">
      <!-- 0.0 -->
      <g transform="translate(249.088438 698.598438)scale(0.1 -0.1)">
       <use xlink:href="#DejaVuSans-48"/>
       <use x="63.623047" xlink:href="#DejaVuSans-46"/>
       <use x="95.410156" xlink:href="#DejaVuSans-48"/>
      </g>
     </g>
    </g>
    <g id="xtick_6">
     <g id="line2d_11">
      <path clip-path="url(#p36b09f065a)" d="M 312.672485 684 
L 312.672485 36 
" style="fill:none;stroke:#b0b0b0;stroke-linecap:square;stroke-width:0.8;"/>
     </g>
     <g id="line2d_12">
      <g>
       <use style="stroke:#000000;stroke-width:0.8;" x="312.672485" xlink:href="#mafd11ca525" y="684"/>
      </g>
     </g>
     <g id="text_6">
      <!-- 0.5 -->
      <g transform="translate(304.720922 698.598438)scale(0.1 -0.1)">
       <use xlink:href="#DejaVuSans-48"/>
       <use x="63.623047" xlink:href="#DejaVuSans-46"/>
       <use x="95.410156" xlink:href="#DejaVuSans-53"/>
      </g>
     </g>
    </g>
    <g id="xtick_7">
     <g id="line2d_13">
      <path clip-path="url(#p36b09f065a)" d="M 368.30497 684 
L 368.30497 36 
" style="fill:none;stroke:#b0b0b0;stroke-linecap:square;stroke-width:0.8;"/>
     </g>
     <g id="line2d_14">
      <g>
       <use style="stroke:#000000;stroke-width:0.8;" x="368.30497" xlink:href="#mafd11ca525" y="684"/>
      </g>
     </g>
     <g id="text_7">
      <!-- 1.0 -->
      <g transform="translate(360.353407 698.598438)scale(0.1 -0.1)">
       <use xlink:href="#DejaVuSans-49"/>
       <use x="63.623047" xlink:href="#DejaVuSans-46"/>
       <use x="95.410156" xlink:href="#DejaVuSans-48"/>
      </g>
     </g>
    </g>
    <g id="xtick_8">
     <g id="line2d_15">
      <path clip-path="url(#p36b09f065a)" d="M 423.937455 684 
L 423.937455 36 
" style="fill:none;stroke:#b0b0b0;stroke-linecap:square;stroke-width:0.8;"/>
     </g>
     <g id="line2d_16">
      <g>
       <use style="stroke:#000000;stroke-width:0.8;" x="423.937455" xlink:href="#mafd11ca525" y="684"/>
      </g>
     </g>
     <g id="text_8">
      <!-- 1.5 -->
      <g transform="translate(415.985892 698.598438)scale(0.1 -0.1)">
       <use xlink:href="#DejaVuSans-49"/>
       <use x="63.623047" xlink:href="#DejaVuSans-46"/>
       <use x="95.410156" xlink:href="#DejaVuSans-53"/>
      </g>
     </g>
    </g>
    <g id="xtick_9">
     <g id="line2d_17">
      <path clip-path="url(#p36b09f065a)" d="M 479.56994 684 
L 479.56994 36 
" style="fill:none;stroke:#b0b0b0;stroke-linecap:square;stroke-width:0.8;"/>
     </g>
     <g id="line2d_18">
      <g>
       <use style="stroke:#000000;stroke-width:0.8;" x="479.56994" xlink:href="#mafd11ca525" y="684"/>
      </g>
     </g>
     <g id="text_9">
      <!-- 2.0 -->
      <g transform="translate(471.618377 698.598438)scale(0.1 -0.1)">
       <use xlink:href="#DejaVuSans-50"/>
       <use x="63.623047" xlink:href="#DejaVuSans-46"/>
       <use x="95.410156" xlink:href="#DejaVuSans-48"/>
      </g>
     </g>
    </g>
    <g id="text_10">
     <!-- m -->
     <defs>
      <path d="M 52 44.1875 
Q 55.375 50.25 60.0625 53.125 
Q 64.75 56 71.09375 56 
Q 79.640625 56 84.28125 50.015625 
Q 88.921875 44.046875 88.921875 33.015625 
L 88.921875 0 
L 79.890625 0 
L 79.890625 32.71875 
Q 79.890625 40.578125 77.09375 44.375 
Q 74.3125 48.1875 68.609375 48.1875 
Q 61.625 48.1875 57.5625 43.546875 
Q 53.515625 38.921875 53.515625 30.90625 
L 53.515625 0 
L 44.484375 0 
L 44.484375 32.71875 
Q 44.484375 40.625 41.703125 44.40625 
Q 38.921875 48.1875 33.109375 48.1875 
Q 26.21875 48.1875 22.15625 43.53125 
Q 18.109375 38.875 18.109375 30.90625 
L 18.109375 0 
L 9.078125 0 
L 9.078125 54.6875 
L 18.109375 54.6875 
L 18.109375 46.1875 
Q 21.1875 51.21875 25.484375 53.609375 
Q 29.78125 56 35.6875 56 
Q 41.65625 56 45.828125 52.96875 
Q 50 49.953125 52 44.1875 
z
" id="DejaVuSans-109"/>
     </defs>
     <g transform="translate(252.169688 712.276562)scale(0.1 -0.1)">
      <use xlink:href="#DejaVuSans-109"/>
     </g>
    </g>
   </g>
   <g id="matplotlib.axis_2">
    <g id="ytick_1">
     <g id="line2d_19">
      <path clip-path="url(#p36b09f065a)" d="M 33.420345 644.390835 
L 480.659655 644.390835 
" style="fill:none;stroke:#b0b0b0;stroke-linecap:square;stroke-width:0.8;"/>
     </g>
     <g id="line2d_20">
      <defs>
       <path d="M 0 0 
L -3.5 0 
" id="mee686d237c" style="stroke:#000000;stroke-width:0.8;"/>
      </defs>
      <g>
       <use style="stroke:#000000;stroke-width:0.8;" x="33.420345" xlink:href="#mee686d237c" y="644.390835"/>
      </g>
     </g>
     <g id="text_11">
      <!-- −4 -->
      <defs>
       <path d="M 37.796875 64.3125 
L 12.890625 25.390625 
L 37.796875 25.390625 
z
M 35.203125 72.90625 
L 47.609375 72.90625 
L 47.609375 25.390625 
L 58.015625 25.390625 
L 58.015625 17.1875 
L 47.609375 17.1875 
L 47.609375 0 
L 37.796875 0 
L 37.796875 17.1875 
L 4.890625 17.1875 
L 4.890625 26.703125 
z
" id="DejaVuSans-52"/>
      </defs>
      <g transform="translate(11.678157 648.190054)scale(0.1 -0.1)">
       <use xlink:href="#DejaVuSans-8722"/>
       <use x="83.789062" xlink:href="#DejaVuSans-52"/>
      </g>
     </g>
    </g>
    <g id="ytick_2">
     <g id="line2d_21">
      <path clip-path="url(#p36b09f065a)" d="M 33.420345 533.125865 
L 480.659655 533.125865 
" style="fill:none;stroke:#b0b0b0;stroke-linecap:square;stroke-width:0.8;"/>
     </g>
     <g id="line2d_22">
      <g>
       <use style="stroke:#000000;stroke-width:0.8;" x="33.420345" xlink:href="#mee686d237c" y="533.125865"/>
      </g>
     </g>
     <g id="text_12">
      <!-- −3 -->
      <defs>
       <path d="M 40.578125 39.3125 
Q 47.65625 37.796875 51.625 33 
Q 55.609375 28.21875 55.609375 21.1875 
Q 55.609375 10.40625 48.1875 4.484375 
Q 40.765625 -1.421875 27.09375 -1.421875 
Q 22.515625 -1.421875 17.65625 -0.515625 
Q 12.796875 0.390625 7.625 2.203125 
L 7.625 11.71875 
Q 11.71875 9.328125 16.59375 8.109375 
Q 21.484375 6.890625 26.8125 6.890625 
Q 36.078125 6.890625 40.9375 10.546875 
Q 45.796875 14.203125 45.796875 21.1875 
Q 45.796875 27.640625 41.28125 31.265625 
Q 36.765625 34.90625 28.71875 34.90625 
L 20.21875 34.90625 
L 20.21875 43.015625 
L 29.109375 43.015625 
Q 36.375 43.015625 40.234375 45.921875 
Q 44.09375 48.828125 44.09375 54.296875 
Q 44.09375 59.90625 40.109375 62.90625 
Q 36.140625 65.921875 28.71875 65.921875 
Q 24.65625 65.921875 20.015625 65.03125 
Q 15.375 64.15625 9.8125 62.3125 
L 9.8125 71.09375 
Q 15.4375 72.65625 20.34375 73.4375 
Q 25.25 74.21875 29.59375 74.21875 
Q 40.828125 74.21875 47.359375 69.109375 
Q 53.90625 64.015625 53.90625 55.328125 
Q 53.90625 49.265625 50.4375 45.09375 
Q 46.96875 40.921875 40.578125 39.3125 
z
" id="DejaVuSans-51"/>
      </defs>
      <g transform="translate(11.678157 536.925084)scale(0.1 -0.1)">
       <use xlink:href="#DejaVuSans-8722"/>
       <use x="83.789062" xlink:href="#DejaVuSans-51"/>
      </g>
     </g>
    </g>
    <g id="ytick_3">
     <g id="line2d_23">
      <path clip-path="url(#p36b09f065a)" d="M 33.420345 421.860895 
L 480.659655 421.860895 
" style="fill:none;stroke:#b0b0b0;stroke-linecap:square;stroke-width:0.8;"/>
     </g>
     <g id="line2d_24">
      <g>
       <use style="stroke:#000000;stroke-width:0.8;" x="33.420345" xlink:href="#mee686d237c" y="421.860895"/>
      </g>
     </g>
     <g id="text_13">
      <!-- −2 -->
      <g transform="translate(11.678157 425.660114)scale(0.1 -0.1)">
       <use xlink:href="#DejaVuSans-8722"/>
       <use x="83.789062" xlink:href="#DejaVuSans-50"/>
      </g>
     </g>
    </g>
    <g id="ytick_4">
     <g id="line2d_25">
      <path clip-path="url(#p36b09f065a)" d="M 33.420345 310.595925 
L 480.659655 310.595925 
" style="fill:none;stroke:#b0b0b0;stroke-linecap:square;stroke-width:0.8;"/>
     </g>
     <g id="line2d_26">
      <g>
       <use style="stroke:#000000;stroke-width:0.8;" x="33.420345" xlink:href="#mee686d237c" y="310.595925"/>
      </g>
     </g>
     <g id="text_14">
      <!-- −1 -->
      <g transform="translate(11.678157 314.395144)scale(0.1 -0.1)">
       <use xlink:href="#DejaVuSans-8722"/>
       <use x="83.789062" xlink:href="#DejaVuSans-49"/>
      </g>
     </g>
    </g>
    <g id="ytick_5">
     <g id="line2d_27">
      <path clip-path="url(#p36b09f065a)" d="M 33.420345 199.330955 
L 480.659655 199.330955 
" style="fill:none;stroke:#b0b0b0;stroke-linecap:square;stroke-width:0.8;"/>
     </g>
     <g id="line2d_28">
      <g>
       <use style="stroke:#000000;stroke-width:0.8;" x="33.420345" xlink:href="#mee686d237c" y="199.330955"/>
      </g>
     </g>
     <g id="text_15">
      <!-- 0 -->
      <g transform="translate(20.057845 203.130174)scale(0.1 -0.1)">
       <use xlink:href="#DejaVuSans-48"/>
      </g>
     </g>
    </g>
    <g id="ytick_6">
     <g id="line2d_29">
      <path clip-path="url(#p36b09f065a)" d="M 33.420345 88.065985 
L 480.659655 88.065985 
" style="fill:none;stroke:#b0b0b0;stroke-linecap:square;stroke-width:0.8;"/>
     </g>
     <g id="line2d_30">
      <g>
       <use style="stroke:#000000;stroke-width:0.8;" x="33.420345" xlink:href="#mee686d237c" y="88.065985"/>
      </g>
     </g>
     <g id="text_16">
      <!-- 1 -->
      <g transform="translate(20.057845 91.865204)scale(0.1 -0.1)">
       <use xlink:href="#DejaVuSans-49"/>
      </g>
     </g>
    </g>
    <g id="text_17">
     <!-- m -->
     <g transform="translate(5.59847 364.870313)rotate(-90)scale(0.1 -0.1)">
      <use xlink:href="#DejaVuSans-109"/>
     </g>
    </g>
   </g>
   <g id="line2d_31">
    <path clip-path="url(#p36b09f065a)" d="M 342.192674 115.790717 
L 171.887326 115.790717 
" style="fill:none;stroke:#ffa500;stroke-dasharray:5.55,2.4;stroke-dashoffset:0;stroke-width:1.5;"/>
   </g>
   <g id="line2d_32">
    <path clip-path="url(#p36b09f065a)" d="M 307.862649 199.330955 
L 206.217351 199.330955 
" style="fill:none;stroke:#808080;stroke-dasharray:5.55,2.4;stroke-dashoffset:0;stroke-width:1.5;"/>
   </g>
   <g id="line2d_33">
    <path clip-path="url(#p36b09f065a)" d="M 257.04 65.454545 
L 342.192674 65.454545 
L 342.192674 115.790717 
" style="fill:none;stroke:#000000;stroke-linecap:square;stroke-width:1.5;"/>
   </g>
   <g id="line2d_34">
    <path clip-path="url(#p36b09f065a)" d="M 257.04 65.454545 
L 171.887326 65.454545 
L 171.887326 115.790717 
" style="fill:none;stroke:#000000;stroke-linecap:square;stroke-width:1.5;"/>
   </g>
   <g id="line2d_35">
    <path clip-path="url(#p36b09f065a)" d="M 329.890318 145.727827 
L 330.362894 145.242266 
L 330.827684 144.749246 
L 331.284568 144.248891 
L 331.733432 143.741329 
L 332.174163 143.226688 
L 332.606647 142.705099 
L 333.030776 142.176694 
L 333.446443 141.641606 
L 333.853542 141.099971 
L 334.25197 140.551926 
L 334.641626 139.99761 
L 335.022412 139.437163 
L 335.39423 138.870728 
L 335.756988 138.298447 
L 336.110592 137.720466 
L 336.454954 137.136931 
L 336.789986 136.54799 
L 337.115603 135.953792 
L 337.431723 135.354487 
L 337.738266 134.750227 
L 338.035154 134.141166 
L 338.322313 133.527458 
L 338.599668 132.909257 
L 338.867151 132.286721 
L 339.124693 131.660007 
L 339.372228 131.029274 
L 339.609696 130.394682 
L 339.837034 129.756391 
L 340.054186 129.114563 
L 340.261097 128.469361 
L 340.457714 127.820947 
L 340.643988 127.169487 
L 340.81987 126.515145 
L 340.985318 125.858087 
L 341.140288 125.198479 
L 341.284742 124.536489 
L 341.418643 123.872284 
L 341.541957 123.206032 
L 341.654653 122.537902 
L 341.756702 121.868063 
L 341.848079 121.196685 
L 341.92876 120.523938 
L 341.998725 119.849992 
L 342.057956 119.175018 
L 342.106438 118.499187 
L 342.144159 117.82267 
L 342.17111 117.145639 
L 342.187283 116.468264 
L 342.192674 115.790717 
" style="fill:none;stroke:#000000;stroke-linecap:square;stroke-width:1.5;"/>
   </g>
   <g id="line2d_36">
    <path clip-path="url(#p36b09f065a)" d="M 184.189682 145.727827 
L 183.717106 145.242266 
L 183.252316 144.749246 
L 182.795432 144.248891 
L 182.346568 143.741329 
L 181.905837 143.226688 
L 181.473353 142.705099 
L 181.049224 142.176694 
L 180.633557 141.641606 
L 180.226458 141.099971 
L 179.82803 140.551926 
L 179.438374 139.99761 
L 179.057588 139.437163 
L 178.68577 138.870728 
L 178.323012 138.298447 
L 177.969408 137.720466 
L 177.625046 137.136931 
L 177.290014 136.54799 
L 176.964397 135.953792 
L 176.648277 135.354487 
L 176.341734 134.750227 
L 176.044846 134.141166 
L 175.757687 133.527458 
L 175.480332 132.909257 
L 175.212849 132.286721 
L 174.955307 131.660007 
L 174.707772 131.029274 
L 174.470304 130.394682 
L 174.242966 129.756391 
L 174.025814 129.114563 
L 173.818903 128.469361 
L 173.622286 127.820947 
L 173.436012 127.169487 
L 173.26013 126.515145 
L 173.094682 125.858087 
L 172.939712 125.198479 
L 172.795258 124.536489 
L 172.661357 123.872284 
L 172.538043 123.206032 
L 172.425347 122.537902 
L 172.323298 121.868063 
L 172.231921 121.196685 
L 172.15124 120.523938 
L 172.081275 119.849992 
L 172.022044 119.175018 
L 171.973562 118.499187 
L 171.935841 117.82267 
L 171.90889 117.145639 
L 171.892717 116.468264 
L 171.887326 115.790717 
" style="fill:none;stroke:#000000;stroke-linecap:square;stroke-width:1.5;"/>
   </g>
   <g id="line2d_37">
    <path clip-path="url(#p36b09f065a)" d="M 329.890318 145.727827 
L 327.736589 147.997093 
L 325.677783 150.352818 
L 323.717369 152.791032 
L 321.858646 155.307631 
L 320.104748 157.898376 
L 318.458626 160.558902 
L 316.923054 163.28473 
L 315.500618 166.071267 
L 314.193713 168.913822 
L 313.004541 171.807607 
L 311.935105 174.747747 
L 310.987206 177.729291 
L 310.16244 180.747217 
L 309.462196 183.796442 
L 308.887654 186.871832 
L 308.439781 189.968205 
L 308.119332 193.080347 
L 307.926847 196.203017 
L 307.862649 199.330955 
" style="fill:none;stroke:#000000;stroke-linecap:square;stroke-width:1.5;"/>
   </g>
   <g id="line2d_38">
    <path clip-path="url(#p36b09f065a)" d="M 184.189682 145.727827 
L 186.343411 147.997093 
L 188.402217 150.352818 
L 190.362631 152.791032 
L 192.221354 155.307631 
L 193.975252 157.898376 
L 195.621374 160.558902 
L 197.156946 163.28473 
L 198.579382 166.071267 
L 199.886287 168.913822 
L 201.075459 171.807607 
L 202.144895 174.747747 
L 203.092794 177.729291 
L 203.91756 180.747217 
L 204.617804 183.796442 
L 205.192346 186.871832 
L 205.640219 189.968205 
L 205.960668 193.080347 
L 206.153153 196.203017 
L 206.217351 199.330955 
" style="fill:none;stroke:#000000;stroke-linecap:square;stroke-width:1.5;"/>
   </g>
   <g id="line2d_39">
    <path clip-path="url(#p36b09f065a)" d="M 307.862649 199.330955 
L 307.863482 199.510832 
L 307.865982 199.690693 
L 307.870148 199.870523 
L 307.87598 200.050307 
L 307.883478 200.230029 
L 307.892641 200.409673 
L 307.903467 200.589226 
L 307.915957 200.76867 
L 307.930109 200.947991 
L 307.945921 201.127173 
L 307.963393 201.3062 
L 307.982523 201.485059 
L 308.003309 201.663732 
L 308.02575 201.842205 
L 308.049844 202.020462 
L 308.075588 202.198489 
L 308.10298 202.376269 
L 308.132018 202.553788 
L 308.1627 202.731031 
L 308.195023 202.907981 
L 308.228984 203.084625 
L 308.26458 203.260946 
L 308.301808 203.436929 
L 308.340665 203.612561 
L 308.381148 203.787824 
L 308.423252 203.962706 
L 308.466975 204.137189 
L 308.512313 204.31126 
L 308.559262 204.484903 
L 308.607818 204.658104 
L 308.657976 204.830848 
L 308.709733 205.00312 
L 308.763083 205.174904 
L 308.818023 205.346187 
L 308.874548 205.516954 
L 308.932652 205.687189 
L 308.992331 205.856879 
L 309.05358 206.026008 
L 309.116393 206.194563 
L 309.180765 206.362529 
L 309.24669 206.529891 
L 309.314163 206.696635 
L 309.383179 206.862747 
L 309.45373 207.028212 
L 309.525811 207.193016 
L 309.599417 207.357146 
L 309.67454 207.520586 
L 309.751173 207.683324 
L 309.829312 207.845344 
" style="fill:none;stroke:#000000;stroke-linecap:square;stroke-width:1.5;"/>
   </g>
   <g id="line2d_40">
    <path clip-path="url(#p36b09f065a)" d="M 206.217351 199.330955 
L 206.216518 199.510832 
L 206.214018 199.690693 
L 206.209852 199.870523 
L 206.20402 200.050307 
L 206.196522 200.230029 
L 206.187359 200.409673 
L 206.176533 200.589226 
L 206.164043 200.76867 
L 206.149891 200.947991 
L 206.134079 201.127173 
L 206.116607 201.3062 
L 206.097477 201.485059 
L 206.076691 201.663732 
L 206.05425 201.842205 
L 206.030156 202.020462 
L 206.004412 202.198489 
L 205.97702 202.376269 
L 205.947982 202.553788 
L 205.9173 202.731031 
L 205.884977 202.907981 
L 205.851016 203.084625 
L 205.81542 203.260946 
L 205.778192 203.436929 
L 205.739335 203.612561 
L 205.698852 203.787824 
L 205.656748 203.962706 
L 205.613025 204.137189 
L 205.567687 204.31126 
L 205.520738 204.484903 
L 205.472182 204.658104 
L 205.422024 204.830848 
L 205.370267 205.00312 
L 205.316917 205.174904 
L 205.261977 205.346187 
L 205.205452 205.516954 
L 205.147348 205.687189 
L 205.087669 205.856879 
L 205.02642 206.026008 
L 204.963607 206.194563 
L 204.899235 206.362529 
L 204.83331 206.529891 
L 204.765837 206.696635 
L 204.696821 206.862747 
L 204.62627 207.028212 
L 204.554189 207.193016 
L 204.480583 207.357146 
L 204.40546 207.520586 
L 204.328827 207.683324 
L 204.250688 207.845344 
" style="fill:none;stroke:#000000;stroke-linecap:square;stroke-width:1.5;"/>
   </g>
   <g id="line2d_41">
    <path clip-path="url(#p36b09f065a)" d="M 309.829312 207.845344 
L 314.498767 217.471538 
L 319.101639 227.076488 
L 323.637928 236.660193 
L 328.107634 246.222654 
L 332.510756 255.76387 
L 336.847294 265.283842 
L 341.117249 274.78257 
L 345.320621 284.260053 
L 349.45741 293.716292 
L 353.527615 303.151287 
L 357.531237 312.565037 
L 361.468275 321.957543 
L 365.338731 331.328804 
L 369.142602 340.678821 
L 372.879891 350.007594 
L 376.550596 359.315122 
L 380.154717 368.601406 
L 383.692256 377.866445 
L 387.163211 387.11024 
L 390.567582 396.332791 
L 393.905371 405.534097 
L 397.176575 414.714159 
L 400.381197 423.872977 
L 403.519235 433.01055 
L 406.59069 442.126879 
L 409.595561 451.221963 
L 412.533849 460.295803 
L 415.405554 469.348399 
L 418.210675 478.37975 
L 420.949213 487.389857 
L 423.621168 496.37872 
L 426.226539 505.346338 
L 428.765327 514.292711 
L 431.237531 523.217841 
L 433.643153 532.121726 
L 435.98219 541.004366 
L 438.254645 549.865762 
L 440.460516 558.705914 
L 442.599804 567.524822 
L 444.672508 576.322485 
L 446.678629 585.098903 
L 448.618167 593.854077 
L 450.491121 602.588007 
L 452.297492 611.300693 
L 454.037279 619.992134 
L 455.710483 628.662331 
L 457.317104 637.311283 
L 458.857142 645.938991 
L 460.330596 654.545455 
" style="fill:none;stroke:#000000;stroke-linecap:square;stroke-width:1.5;"/>
   </g>
   <g id="line2d_42">
    <path clip-path="url(#p36b09f065a)" d="M 204.250688 207.845344 
L 199.581233 217.471538 
L 194.978361 227.076488 
L 190.442072 236.660193 
L 185.972366 246.222654 
L 181.569244 255.76387 
L 177.232706 265.283842 
L 172.962751 274.78257 
L 168.759379 284.260053 
L 164.62259 293.716292 
L 160.552385 303.151287 
L 156.548763 312.565037 
L 152.611725 321.957543 
L 148.741269 331.328804 
L 144.937398 340.678821 
L 141.200109 350.007594 
L 137.529404 359.315122 
L 133.925283 368.601406 
L 130.387744 377.866445 
L 126.916789 387.11024 
L 123.512418 396.332791 
L 120.174629 405.534097 
L 116.903425 414.714159 
L 113.698803 423.872977 
L 110.560765 433.01055 
L 107.48931 442.126879 
L 104.484439 451.221963 
L 101.546151 460.295803 
L 98.674446 469.348399 
L 95.869325 478.37975 
L 93.130787 487.389857 
L 90.458832 496.37872 
L 87.853461 505.346338 
L 85.314673 514.292711 
L 82.842469 523.217841 
L 80.436847 532.121726 
L 78.09781 541.004366 
L 75.825355 549.865762 
L 73.619484 558.705914 
L 71.480196 567.524822 
L 69.407492 576.322485 
L 67.401371 585.098903 
L 65.461833 593.854077 
L 63.588879 602.588007 
L 61.782508 611.300693 
L 60.042721 619.992134 
L 58.369517 628.662331 
L 56.762896 637.311283 
L 55.222858 645.938991 
L 53.749404 654.545455 
" style="fill:none;stroke:#000000;stroke-linecap:square;stroke-width:1.5;"/>
   </g>
   <g id="patch_3">
    <path d="M 33.420345 684 
L 33.420345 36 
" style="fill:none;stroke:#000000;stroke-linecap:square;stroke-linejoin:miter;stroke-width:0.8;"/>
   </g>
   <g id="patch_4">
    <path d="M 480.659655 684 
L 480.659655 36 
" style="fill:none;stroke:#000000;stroke-linecap:square;stroke-linejoin:miter;stroke-width:0.8;"/>
   </g>
   <g id="patch_5">
    <path d="M 33.420345 684 
L 480.659655 684 
" style="fill:none;stroke:#000000;stroke-linecap:square;stroke-linejoin:miter;stroke-width:0.8;"/>
   </g>
   <g id="patch_6">
    <path d="M 33.420345 36 
L 480.659655 36 
" style="fill:none;stroke:#000000;stroke-linecap:square;stroke-linejoin:miter;stroke-width:0.8;"/>
   </g>
  </g>
 </g>
 <defs>
  <clipPath id="p36b09f065a">
   <rect height="648" width="447.239311" x="33.420345" y="36"/>
  </clipPath>
 </defs>
</svg>
