<?xml version="1.0" encoding="utf-8" standalone="no"?>
<!DOCTYPE svg PUBLIC "-//W3C//DTD SVG 1.1//EN"
  "http://www.w3.org/Graphics/SVG/1.1/DTD/svg11.dtd">
<!-- Created with matplotlib (https://matplotlib.org/) -->
<svg height="720pt" version="1.1" viewBox="0 0 504 720" width="504pt" xmlns="http://www.w3.org/2000/svg" xmlns:xlink="http://www.w3.org/1999/xlink">
 <defs>
  <style type="text/css">
*{stroke-linecap:butt;stroke-linejoin:round;}
  </style>
 </defs>
 <g id="figure_1">
  <g id="patch_1">
   <path d="M 0 720 
L 504 720 
L 504 0 
L 0 0 
z
" style="fill:#ffffff;"/>
  </g>
  <g id="axes_1">
   <g id="patch_2">
    <path d="M 36.243825 684 
L 477.836175 684 
L 477.836175 36 
L 36.243825 36 
z
" style="fill:#ffffff;"/>
   </g>
   <g id="matplotlib.axis_1">
    <g id="xtick_1">
     <g id="line2d_1">
      <path clip-path="url(#pfe19dbe549)" d="M 90.918362 684 
L 90.918362 36 
" style="fill:none;stroke:#b0b0b0;stroke-linecap:square;stroke-width:0.8;"/>
     </g>
     <g id="line2d_2">
      <defs>
       <path d="M 0 0 
L 0 3.5 
" id="m8e409b4696" style="stroke:#000000;stroke-width:0.8;"/>
      </defs>
      <g>
       <use style="stroke:#000000;stroke-width:0.8;" x="90.918362" xlink:href="#m8e409b4696" y="684"/>
      </g>
     </g>
     <g id="text_1">
      <!-- −1.5 -->
      <defs>
       <path d="M 10.59375 35.5 
L 73.1875 35.5 
L 73.1875 27.203125 
L 10.59375 27.203125 
z
" id="DejaVuSans-8722"/>
       <path d="M 12.40625 8.296875 
L 28.515625 8.296875 
L 28.515625 63.921875 
L 10.984375 60.40625 
L 10.984375 69.390625 
L 28.421875 72.90625 
L 38.28125 72.90625 
L 38.28125 8.296875 
L 54.390625 8.296875 
L 54.390625 0 
L 12.40625 0 
z
" id="DejaVuSans-49"/>
       <path d="M 10.6875 12.40625 
L 21 12.40625 
L 21 0 
L 10.6875 0 
z
" id="DejaVuSans-46"/>
       <path d="M 10.796875 72.90625 
L 49.515625 72.90625 
L 49.515625 64.59375 
L 19.828125 64.59375 
L 19.828125 46.734375 
Q 21.96875 47.46875 24.109375 47.828125 
Q 26.265625 48.1875 28.421875 48.1875 
Q 40.625 48.1875 47.75 41.5 
Q 54.890625 34.8125 54.890625 23.390625 
Q 54.890625 11.625 47.5625 5.09375 
Q 40.234375 -1.421875 26.90625 -1.421875 
Q 22.3125 -1.421875 17.546875 -0.640625 
Q 12.796875 0.140625 7.71875 1.703125 
L 7.71875 11.625 
Q 12.109375 9.234375 16.796875 8.0625 
Q 21.484375 6.890625 26.703125 6.890625 
Q 35.15625 6.890625 40.078125 11.328125 
Q 45.015625 15.765625 45.015625 23.390625 
Q 45.015625 31 40.078125 35.4375 
Q 35.15625 39.890625 26.703125 39.890625 
Q 22.75 39.890625 18.8125 39.015625 
Q 14.890625 38.140625 10.796875 36.28125 
z
" id="DejaVuSans-53"/>
      </defs>
      <g transform="translate(78.776955 698.598438)scale(0.1 -0.1)">
       <use xlink:href="#DejaVuSans-8722"/>
       <use x="83.789062" xlink:href="#DejaVuSans-49"/>
       <use x="147.412109" xlink:href="#DejaVuSans-46"/>
       <use x="179.199219" xlink:href="#DejaVuSans-53"/>
      </g>
     </g>
    </g>
    <g id="xtick_2">
     <g id="line2d_3">
      <path clip-path="url(#pfe19dbe549)" d="M 146.292241 684 
L 146.292241 36 
" style="fill:none;stroke:#b0b0b0;stroke-linecap:square;stroke-width:0.8;"/>
     </g>
     <g id="line2d_4">
      <g>
       <use style="stroke:#000000;stroke-width:0.8;" x="146.292241" xlink:href="#m8e409b4696" y="684"/>
      </g>
     </g>
     <g id="text_2">
      <!-- −1.0 -->
      <defs>
       <path d="M 31.78125 66.40625 
Q 24.171875 66.40625 20.328125 58.90625 
Q 16.5 51.421875 16.5 36.375 
Q 16.5 21.390625 20.328125 13.890625 
Q 24.171875 6.390625 31.78125 6.390625 
Q 39.453125 6.390625 43.28125 13.890625 
Q 47.125 21.390625 47.125 36.375 
Q 47.125 51.421875 43.28125 58.90625 
Q 39.453125 66.40625 31.78125 66.40625 
z
M 31.78125 74.21875 
Q 44.046875 74.21875 50.515625 64.515625 
Q 56.984375 54.828125 56.984375 36.375 
Q 56.984375 17.96875 50.515625 8.265625 
Q 44.046875 -1.421875 31.78125 -1.421875 
Q 19.53125 -1.421875 13.0625 8.265625 
Q 6.59375 17.96875 6.59375 36.375 
Q 6.59375 54.828125 13.0625 64.515625 
Q 19.53125 74.21875 31.78125 74.21875 
z
" id="DejaVuSans-48"/>
      </defs>
      <g transform="translate(134.150835 698.598438)scale(0.1 -0.1)">
       <use xlink:href="#DejaVuSans-8722"/>
       <use x="83.789062" xlink:href="#DejaVuSans-49"/>
       <use x="147.412109" xlink:href="#DejaVuSans-46"/>
       <use x="179.199219" xlink:href="#DejaVuSans-48"/>
      </g>
     </g>
    </g>
    <g id="xtick_3">
     <g id="line2d_5">
      <path clip-path="url(#pfe19dbe549)" d="M 201.666121 684 
L 201.666121 36 
" style="fill:none;stroke:#b0b0b0;stroke-linecap:square;stroke-width:0.8;"/>
     </g>
     <g id="line2d_6">
      <g>
       <use style="stroke:#000000;stroke-width:0.8;" x="201.666121" xlink:href="#m8e409b4696" y="684"/>
      </g>
     </g>
     <g id="text_3">
      <!-- −0.5 -->
      <g transform="translate(189.524714 698.598438)scale(0.1 -0.1)">
       <use xlink:href="#DejaVuSans-8722"/>
       <use x="83.789062" xlink:href="#DejaVuSans-48"/>
       <use x="147.412109" xlink:href="#DejaVuSans-46"/>
       <use x="179.199219" xlink:href="#DejaVuSans-53"/>
      </g>
     </g>
    </g>
    <g id="xtick_4">
     <g id="line2d_7">
      <path clip-path="url(#pfe19dbe549)" d="M 257.04 684 
L 257.04 36 
" style="fill:none;stroke:#b0b0b0;stroke-linecap:square;stroke-width:0.8;"/>
     </g>
     <g id="line2d_8">
      <g>
       <use style="stroke:#000000;stroke-width:0.8;" x="257.04" xlink:href="#m8e409b4696" y="684"/>
      </g>
     </g>
     <g id="text_4">
      <!-- 0.0 -->
      <g transform="translate(249.088438 698.598438)scale(0.1 -0.1)">
       <use xlink:href="#DejaVuSans-48"/>
       <use x="63.623047" xlink:href="#DejaVuSans-46"/>
       <use x="95.410156" xlink:href="#DejaVuSans-48"/>
      </g>
     </g>
    </g>
    <g id="xtick_5">
     <g id="line2d_9">
      <path clip-path="url(#pfe19dbe549)" d="M 312.413879 684 
L 312.413879 36 
" style="fill:none;stroke:#b0b0b0;stroke-linecap:square;stroke-width:0.8;"/>
     </g>
     <g id="line2d_10">
      <g>
       <use style="stroke:#000000;stroke-width:0.8;" x="312.413879" xlink:href="#m8e409b4696" y="684"/>
      </g>
     </g>
     <g id="text_5">
      <!-- 0.5 -->
      <g transform="translate(304.462317 698.598438)scale(0.1 -0.1)">
       <use xlink:href="#DejaVuSans-48"/>
       <use x="63.623047" xlink:href="#DejaVuSans-46"/>
       <use x="95.410156" xlink:href="#DejaVuSans-53"/>
      </g>
     </g>
    </g>
    <g id="xtick_6">
     <g id="line2d_11">
      <path clip-path="url(#pfe19dbe549)" d="M 367.787759 684 
L 367.787759 36 
" style="fill:none;stroke:#b0b0b0;stroke-linecap:square;stroke-width:0.8;"/>
     </g>
     <g id="line2d_12">
      <g>
       <use style="stroke:#000000;stroke-width:0.8;" x="367.787759" xlink:href="#m8e409b4696" y="684"/>
      </g>
     </g>
     <g id="text_6">
      <!-- 1.0 -->
      <g transform="translate(359.836196 698.598438)scale(0.1 -0.1)">
       <use xlink:href="#DejaVuSans-49"/>
       <use x="63.623047" xlink:href="#DejaVuSans-46"/>
       <use x="95.410156" xlink:href="#DejaVuSans-48"/>
      </g>
     </g>
    </g>
    <g id="xtick_7">
     <g id="line2d_13">
      <path clip-path="url(#pfe19dbe549)" d="M 423.161638 684 
L 423.161638 36 
" style="fill:none;stroke:#b0b0b0;stroke-linecap:square;stroke-width:0.8;"/>
     </g>
     <g id="line2d_14">
      <g>
       <use style="stroke:#000000;stroke-width:0.8;" x="423.161638" xlink:href="#m8e409b4696" y="684"/>
      </g>
     </g>
     <g id="text_7">
      <!-- 1.5 -->
      <g transform="translate(415.210076 698.598438)scale(0.1 -0.1)">
       <use xlink:href="#DejaVuSans-49"/>
       <use x="63.623047" xlink:href="#DejaVuSans-46"/>
       <use x="95.410156" xlink:href="#DejaVuSans-53"/>
      </g>
     </g>
    </g>
    <g id="text_8">
     <!-- m -->
     <defs>
      <path d="M 52 44.1875 
Q 55.375 50.25 60.0625 53.125 
Q 64.75 56 71.09375 56 
Q 79.640625 56 84.28125 50.015625 
Q 88.921875 44.046875 88.921875 33.015625 
L 88.921875 0 
L 79.890625 0 
L 79.890625 32.71875 
Q 79.890625 40.578125 77.09375 44.375 
Q 74.3125 48.1875 68.609375 48.1875 
Q 61.625 48.1875 57.5625 43.546875 
Q 53.515625 38.921875 53.515625 30.90625 
L 53.515625 0 
L 44.484375 0 
L 44.484375 32.71875 
Q 44.484375 40.625 41.703125 44.40625 
Q 38.921875 48.1875 33.109375 48.1875 
Q 26.21875 48.1875 22.15625 43.53125 
Q 18.109375 38.875 18.109375 30.90625 
L 18.109375 0 
L 9.078125 0 
L 9.078125 54.6875 
L 18.109375 54.6875 
L 18.109375 46.1875 
Q 21.1875 51.21875 25.484375 53.609375 
Q 29.78125 56 35.6875 56 
Q 41.65625 56 45.828125 52.96875 
Q 50 49.953125 52 44.1875 
z
" id="DejaVuSans-109"/>
     </defs>
     <g transform="translate(252.169688 712.276562)scale(0.1 -0.1)">
      <use xlink:href="#DejaVuSans-109"/>
     </g>
    </g>
   </g>
   <g id="matplotlib.axis_2">
    <g id="ytick_1">
     <g id="line2d_15">
      <path clip-path="url(#pfe19dbe549)" d="M 36.243825 648.069649 
L 477.836175 648.069649 
" style="fill:none;stroke:#b0b0b0;stroke-linecap:square;stroke-width:0.8;"/>
     </g>
     <g id="line2d_16">
      <defs>
       <path d="M 0 0 
L -3.5 0 
" id="m1ae30a12bf" style="stroke:#000000;stroke-width:0.8;"/>
      </defs>
      <g>
       <use style="stroke:#000000;stroke-width:0.8;" x="36.243825" xlink:href="#m1ae30a12bf" y="648.069649"/>
      </g>
     </g>
     <g id="text_9">
      <!-- −4 -->
      <defs>
       <path d="M 37.796875 64.3125 
L 12.890625 25.390625 
L 37.796875 25.390625 
z
M 35.203125 72.90625 
L 47.609375 72.90625 
L 47.609375 25.390625 
L 58.015625 25.390625 
L 58.015625 17.1875 
L 47.609375 17.1875 
L 47.609375 0 
L 37.796875 0 
L 37.796875 17.1875 
L 4.890625 17.1875 
L 4.890625 26.703125 
z
" id="DejaVuSans-52"/>
      </defs>
      <g transform="translate(14.501638 651.868867)scale(0.1 -0.1)">
       <use xlink:href="#DejaVuSans-8722"/>
       <use x="83.789062" xlink:href="#DejaVuSans-52"/>
      </g>
     </g>
    </g>
    <g id="ytick_2">
     <g id="line2d_17">
      <path clip-path="url(#pfe19dbe549)" d="M 36.243825 537.32189 
L 477.836175 537.32189 
" style="fill:none;stroke:#b0b0b0;stroke-linecap:square;stroke-width:0.8;"/>
     </g>
     <g id="line2d_18">
      <g>
       <use style="stroke:#000000;stroke-width:0.8;" x="36.243825" xlink:href="#m1ae30a12bf" y="537.32189"/>
      </g>
     </g>
     <g id="text_10">
      <!-- −3 -->
      <defs>
       <path d="M 40.578125 39.3125 
Q 47.65625 37.796875 51.625 33 
Q 55.609375 28.21875 55.609375 21.1875 
Q 55.609375 10.40625 48.1875 4.484375 
Q 40.765625 -1.421875 27.09375 -1.421875 
Q 22.515625 -1.421875 17.65625 -0.515625 
Q 12.796875 0.390625 7.625 2.203125 
L 7.625 11.71875 
Q 11.71875 9.328125 16.59375 8.109375 
Q 21.484375 6.890625 26.8125 6.890625 
Q 36.078125 6.890625 40.9375 10.546875 
Q 45.796875 14.203125 45.796875 21.1875 
Q 45.796875 27.640625 41.28125 31.265625 
Q 36.765625 34.90625 28.71875 34.90625 
L 20.21875 34.90625 
L 20.21875 43.015625 
L 29.109375 43.015625 
Q 36.375 43.015625 40.234375 45.921875 
Q 44.09375 48.828125 44.09375 54.296875 
Q 44.09375 59.90625 40.109375 62.90625 
Q 36.140625 65.921875 28.71875 65.921875 
Q 24.65625 65.921875 20.015625 65.03125 
Q 15.375 64.15625 9.8125 62.3125 
L 9.8125 71.09375 
Q 15.4375 72.65625 20.34375 73.4375 
Q 25.25 74.21875 29.59375 74.21875 
Q 40.828125 74.21875 47.359375 69.109375 
Q 53.90625 64.015625 53.90625 55.328125 
Q 53.90625 49.265625 50.4375 45.09375 
Q 46.96875 40.921875 40.578125 39.3125 
z
" id="DejaVuSans-51"/>
      </defs>
      <g transform="translate(14.501638 541.121109)scale(0.1 -0.1)">
       <use xlink:href="#DejaVuSans-8722"/>
       <use x="83.789062" xlink:href="#DejaVuSans-51"/>
      </g>
     </g>
    </g>
    <g id="ytick_3">
     <g id="line2d_19">
      <path clip-path="url(#pfe19dbe549)" d="M 36.243825 426.574131 
L 477.836175 426.574131 
" style="fill:none;stroke:#b0b0b0;stroke-linecap:square;stroke-width:0.8;"/>
     </g>
     <g id="line2d_20">
      <g>
       <use style="stroke:#000000;stroke-width:0.8;" x="36.243825" xlink:href="#m1ae30a12bf" y="426.574131"/>
      </g>
     </g>
     <g id="text_11">
      <!-- −2 -->
      <defs>
       <path d="M 19.1875 8.296875 
L 53.609375 8.296875 
L 53.609375 0 
L 7.328125 0 
L 7.328125 8.296875 
Q 12.9375 14.109375 22.625 23.890625 
Q 32.328125 33.6875 34.8125 36.53125 
Q 39.546875 41.84375 41.421875 45.53125 
Q 43.3125 49.21875 43.3125 52.78125 
Q 43.3125 58.59375 39.234375 62.25 
Q 35.15625 65.921875 28.609375 65.921875 
Q 23.96875 65.921875 18.8125 64.3125 
Q 13.671875 62.703125 7.8125 59.421875 
L 7.8125 69.390625 
Q 13.765625 71.78125 18.9375 73 
Q 24.125 74.21875 28.421875 74.21875 
Q 39.75 74.21875 46.484375 68.546875 
Q 53.21875 62.890625 53.21875 53.421875 
Q 53.21875 48.921875 51.53125 44.890625 
Q 49.859375 40.875 45.40625 35.40625 
Q 44.1875 33.984375 37.640625 27.21875 
Q 31.109375 20.453125 19.1875 8.296875 
z
" id="DejaVuSans-50"/>
      </defs>
      <g transform="translate(14.501638 430.37335)scale(0.1 -0.1)">
       <use xlink:href="#DejaVuSans-8722"/>
       <use x="83.789062" xlink:href="#DejaVuSans-50"/>
      </g>
     </g>
    </g>
    <g id="ytick_4">
     <g id="line2d_21">
      <path clip-path="url(#pfe19dbe549)" d="M 36.243825 315.826372 
L 477.836175 315.826372 
" style="fill:none;stroke:#b0b0b0;stroke-linecap:square;stroke-width:0.8;"/>
     </g>
     <g id="line2d_22">
      <g>
       <use style="stroke:#000000;stroke-width:0.8;" x="36.243825" xlink:href="#m1ae30a12bf" y="315.826372"/>
      </g>
     </g>
     <g id="text_12">
      <!-- −1 -->
      <g transform="translate(14.501638 319.625591)scale(0.1 -0.1)">
       <use xlink:href="#DejaVuSans-8722"/>
       <use x="83.789062" xlink:href="#DejaVuSans-49"/>
      </g>
     </g>
    </g>
    <g id="ytick_5">
     <g id="line2d_23">
      <path clip-path="url(#pfe19dbe549)" d="M 36.243825 205.078613 
L 477.836175 205.078613 
" style="fill:none;stroke:#b0b0b0;stroke-linecap:square;stroke-width:0.8;"/>
     </g>
     <g id="line2d_24">
      <g>
       <use style="stroke:#000000;stroke-width:0.8;" x="36.243825" xlink:href="#m1ae30a12bf" y="205.078613"/>
      </g>
     </g>
     <g id="text_13">
      <!-- 0 -->
      <g transform="translate(22.881325 208.877832)scale(0.1 -0.1)">
       <use xlink:href="#DejaVuSans-48"/>
      </g>
     </g>
    </g>
    <g id="ytick_6">
     <g id="line2d_25">
      <path clip-path="url(#pfe19dbe549)" d="M 36.243825 94.330854 
L 477.836175 94.330854 
" style="fill:none;stroke:#b0b0b0;stroke-linecap:square;stroke-width:0.8;"/>
     </g>
     <g id="line2d_26">
      <g>
       <use style="stroke:#000000;stroke-width:0.8;" x="36.243825" xlink:href="#m1ae30a12bf" y="94.330854"/>
      </g>
     </g>
     <g id="text_14">
      <!-- 1 -->
      <g transform="translate(22.881325 98.130073)scale(0.1 -0.1)">
       <use xlink:href="#DejaVuSans-49"/>
      </g>
     </g>
    </g>
    <g id="text_15">
     <!-- m -->
     <g transform="translate(8.42195 364.870313)rotate(-90)scale(0.1 -0.1)">
      <use xlink:href="#DejaVuSans-109"/>
     </g>
    </g>
   </g>
   <g id="line2d_27">
    <path clip-path="url(#pfe19dbe549)" d="M 343.341914 117.874889 
L 170.738086 117.874889 
" style="fill:none;stroke:#ffa500;stroke-dasharray:5.55,2.4;stroke-dashoffset:0;stroke-width:1.5;"/>
   </g>
   <g id="line2d_28">
    <path clip-path="url(#pfe19dbe549)" d="M 307.220949 205.078613 
L 206.859051 205.078613 
" style="fill:none;stroke:#808080;stroke-dasharray:5.55,2.4;stroke-dashoffset:0;stroke-width:1.5;"/>
   </g>
   <g id="line2d_29">
    <path clip-path="url(#pfe19dbe549)" d="M 257.04 65.454545 
L 343.341914 65.454545 
L 343.341914 117.874889 
" style="fill:none;stroke:#000000;stroke-linecap:square;stroke-width:1.5;"/>
   </g>
   <g id="line2d_30">
    <path clip-path="url(#pfe19dbe549)" d="M 257.04 65.454545 
L 170.738086 65.454545 
L 170.738086 117.874889 
" style="fill:none;stroke:#000000;stroke-linecap:square;stroke-width:1.5;"/>
   </g>
   <g id="line2d_31">
    <path clip-path="url(#pfe19dbe549)" d="M 329.267438 151.853679 
L 329.80768 151.304708 
L 330.339054 150.747148 
L 330.861424 150.181143 
L 331.374654 149.606838 
L 331.878613 149.024381 
L 332.373172 148.433921 
L 332.858204 147.83561 
L 333.333584 147.229603 
L 333.79919 146.616054 
L 334.254902 145.995121 
L 334.700603 145.366963 
L 335.13618 144.731743 
L 335.561519 144.089623 
L 335.976511 143.440768 
L 336.381051 142.785345 
L 336.775033 142.123522 
L 337.158357 141.45547 
L 337.530925 140.78136 
L 337.89264 140.101365 
L 338.24341 139.415659 
L 338.583145 138.72442 
L 338.911756 138.027824 
L 339.229161 137.326051 
L 339.535277 136.61928 
L 339.830025 135.907694 
L 340.113331 135.191476 
L 340.385121 134.470808 
L 340.645325 133.745877 
L 340.893876 133.016868 
L 341.130711 132.28397 
L 341.355769 131.547369 
L 341.568992 130.807256 
L 341.770325 130.06382 
L 341.959717 129.317253 
L 342.137118 128.567747 
L 342.302484 127.815493 
L 342.455771 127.060686 
L 342.596941 126.303518 
L 342.725957 125.544185 
L 342.842786 124.782882 
L 342.947397 124.019805 
L 343.039765 123.255148 
L 343.119865 122.489109 
L 343.187677 121.721885 
L 343.243183 120.953673 
L 343.28637 120.184669 
L 343.317225 119.415072 
L 343.335741 118.64508 
L 343.341914 117.874889 
" style="fill:none;stroke:#000000;stroke-linecap:square;stroke-width:1.5;"/>
   </g>
   <g id="line2d_32">
    <path clip-path="url(#pfe19dbe549)" d="M 184.812562 151.853679 
L 184.27232 151.304708 
L 183.740946 150.747148 
L 183.218576 150.181143 
L 182.705346 149.606838 
L 182.201387 149.024381 
L 181.706828 148.433921 
L 181.221796 147.83561 
L 180.746416 147.229603 
L 180.28081 146.616054 
L 179.825098 145.995121 
L 179.379397 145.366963 
L 178.94382 144.731743 
L 178.518481 144.089623 
L 178.103489 143.440768 
L 177.698949 142.785345 
L 177.304967 142.123522 
L 176.921643 141.45547 
L 176.549075 140.78136 
L 176.18736 140.101365 
L 175.83659 139.415659 
L 175.496855 138.72442 
L 175.168244 138.027824 
L 174.850839 137.326051 
L 174.544723 136.61928 
L 174.249975 135.907694 
L 173.966669 135.191476 
L 173.694879 134.470808 
L 173.434675 133.745877 
L 173.186124 133.016868 
L 172.949289 132.28397 
L 172.724231 131.547369 
L 172.511008 130.807256 
L 172.309675 130.06382 
L 172.120283 129.317253 
L 171.942882 128.567747 
L 171.777516 127.815493 
L 171.624229 127.060686 
L 171.483059 126.303518 
L 171.354043 125.544185 
L 171.237214 124.782882 
L 171.132603 124.019805 
L 171.040235 123.255148 
L 170.960135 122.489109 
L 170.892323 121.721885 
L 170.836817 120.953673 
L 170.79363 120.184669 
L 170.762775 119.415072 
L 170.744259 118.64508 
L 170.738086 117.874889 
" style="fill:none;stroke:#000000;stroke-linecap:square;stroke-width:1.5;"/>
   </g>
   <g id="line2d_33">
    <path clip-path="url(#pfe19dbe549)" d="M 329.267438 151.853679 
L 327.113386 154.098665 
L 325.053948 156.43075 
L 323.092643 158.845948 
L 321.232821 161.340134 
L 319.47766 163.909047 
L 317.830158 166.548297 
L 316.293131 169.253375 
L 314.869204 172.019661 
L 313.56081 174.842427 
L 312.370185 177.716851 
L 311.299362 180.638022 
L 310.350171 183.600949 
L 309.524234 186.600571 
L 308.822962 189.631762 
L 308.247553 192.689344 
L 307.79899 195.768093 
L 307.478039 198.862748 
L 307.285249 201.968023 
L 307.220949 205.078613 
" style="fill:none;stroke:#000000;stroke-linecap:square;stroke-width:1.5;"/>
   </g>
   <g id="line2d_34">
    <path clip-path="url(#pfe19dbe549)" d="M 184.812562 151.853679 
L 186.966614 154.098665 
L 189.026052 156.43075 
L 190.987357 158.845948 
L 192.847179 161.340134 
L 194.60234 163.909047 
L 196.249842 166.548297 
L 197.786869 169.253375 
L 199.210796 172.019661 
L 200.51919 174.842427 
L 201.709815 177.716851 
L 202.780638 180.638022 
L 203.729829 183.600949 
L 204.555766 186.600571 
L 205.257038 189.631762 
L 205.832447 192.689344 
L 206.28101 195.768093 
L 206.601961 198.862748 
L 206.794751 201.968023 
L 206.859051 205.078613 
" style="fill:none;stroke:#000000;stroke-linecap:square;stroke-width:1.5;"/>
   </g>
   <g id="line2d_35">
    <path clip-path="url(#pfe19dbe549)" d="M 307.220949 205.078613 
L 307.221772 205.256218 
L 307.22424 205.433808 
L 307.228354 205.611368 
L 307.234112 205.788882 
L 307.241515 205.966334 
L 307.250562 206.143711 
L 307.261252 206.320996 
L 307.273584 206.498175 
L 307.287557 206.675231 
L 307.30317 206.852151 
L 307.320421 207.028918 
L 307.339309 207.205518 
L 307.359833 207.381935 
L 307.381991 207.558155 
L 307.40578 207.734162 
L 307.431199 207.909941 
L 307.458245 208.085476 
L 307.486917 208.260754 
L 307.517212 208.435758 
L 307.549126 208.610475 
L 307.582658 208.784888 
L 307.617805 208.958982 
L 307.654563 209.132744 
L 307.692929 209.306158 
L 307.732901 209.479209 
L 307.774474 209.651882 
L 307.817645 209.824162 
L 307.86241 209.996035 
L 307.908766 210.167486 
L 307.956709 210.3385 
L 308.006234 210.509063 
L 308.057337 210.679159 
L 308.110014 210.848775 
L 308.16426 211.017895 
L 308.220071 211.186505 
L 308.277442 211.354591 
L 308.336367 211.522139 
L 308.396842 211.689133 
L 308.458862 211.855559 
L 308.522422 212.021404 
L 308.587515 212.186653 
L 308.654136 212.351292 
L 308.72228 212.515306 
L 308.791941 212.678682 
L 308.863112 212.841406 
L 308.935788 213.003463 
L 309.009962 213.16484 
L 309.085628 213.325522 
L 309.16278 213.485497 
" style="fill:none;stroke:#000000;stroke-linecap:square;stroke-width:1.5;"/>
   </g>
   <g id="line2d_36">
    <path clip-path="url(#pfe19dbe549)" d="M 206.859051 205.078613 
L 206.858228 205.256218 
L 206.85576 205.433808 
L 206.851646 205.611368 
L 206.845888 205.788882 
L 206.838485 205.966334 
L 206.829438 206.143711 
L 206.818748 206.320996 
L 206.806416 206.498175 
L 206.792443 206.675231 
L 206.77683 206.852151 
L 206.759579 207.028918 
L 206.740691 207.205518 
L 206.720167 207.381935 
L 206.698009 207.558155 
L 206.67422 207.734162 
L 206.648801 207.909941 
L 206.621755 208.085476 
L 206.593083 208.260754 
L 206.562788 208.435758 
L 206.530874 208.610475 
L 206.497342 208.784888 
L 206.462195 208.958982 
L 206.425437 209.132744 
L 206.387071 209.306158 
L 206.347099 209.479209 
L 206.305526 209.651882 
L 206.262355 209.824162 
L 206.21759 209.996035 
L 206.171234 210.167486 
L 206.123291 210.3385 
L 206.073766 210.509063 
L 206.022663 210.679159 
L 205.969986 210.848775 
L 205.91574 211.017895 
L 205.859929 211.186505 
L 205.802558 211.354591 
L 205.743633 211.522139 
L 205.683158 211.689133 
L 205.621138 211.855559 
L 205.557578 212.021404 
L 205.492485 212.186653 
L 205.425864 212.351292 
L 205.35772 212.515306 
L 205.288059 212.678682 
L 205.216888 212.841406 
L 205.144212 213.003463 
L 205.070038 213.16484 
L 204.994372 213.325522 
L 204.91722 213.485497 
" style="fill:none;stroke:#000000;stroke-linecap:square;stroke-width:1.5;"/>
   </g>
   <g id="line2d_37">
    <path clip-path="url(#pfe19dbe549)" d="M 309.16278 213.485497 
L 313.773278 222.990148 
L 318.318033 232.473823 
L 322.797045 241.936522 
L 327.210315 251.378245 
L 331.557842 260.798991 
L 335.839626 270.198762 
L 340.055668 279.577556 
L 344.205967 288.935374 
L 348.290523 298.272216 
L 352.309337 307.588082 
L 356.262408 316.882972 
L 360.149737 326.156885 
L 363.971322 335.409822 
L 367.727165 344.641784 
L 371.417266 353.852769 
L 375.041624 363.042778 
L 378.600239 372.21181 
L 382.093111 381.359867 
L 385.520241 390.486948 
L 388.881628 399.593052 
L 392.177272 408.67818 
L 395.407174 417.742332 
L 398.571333 426.785508 
L 401.66975 435.807708 
L 404.702423 444.808932 
L 407.669355 453.789179 
L 410.570543 462.74845 
L 413.405989 471.686746 
L 416.175692 480.604065 
L 418.879652 489.500408 
L 421.51787 498.375774 
L 424.090345 507.230165 
L 426.597078 516.063579 
L 429.038068 524.876018 
L 431.413315 533.66748 
L 433.722819 542.437966 
L 435.966581 551.187476 
L 438.1446 559.916009 
L 440.256877 568.623567 
L 442.303411 577.310148 
L 444.284202 585.975754 
L 446.19925 594.620383 
L 448.048556 603.244036 
L 449.832119 611.846713 
L 451.54994 620.428413 
L 453.202018 628.989138 
L 454.788353 637.528886 
L 456.308945 646.047658 
L 457.763795 654.545455 
" style="fill:none;stroke:#000000;stroke-linecap:square;stroke-width:1.5;"/>
   </g>
   <g id="line2d_38">
    <path clip-path="url(#pfe19dbe549)" d="M 204.91722 213.485497 
L 200.306722 222.990148 
L 195.761967 232.473823 
L 191.282955 241.936522 
L 186.869685 251.378245 
L 182.522158 260.798991 
L 178.240374 270.198762 
L 174.024332 279.577556 
L 169.874033 288.935374 
L 165.789477 298.272216 
L 161.770663 307.588082 
L 157.817592 316.882972 
L 153.930263 326.156885 
L 150.108678 335.409822 
L 146.352835 344.641784 
L 142.662734 353.852769 
L 139.038376 363.042778 
L 135.479761 372.21181 
L 131.986889 381.359867 
L 128.559759 390.486948 
L 125.198372 399.593052 
L 121.902728 408.67818 
L 118.672826 417.742332 
L 115.508667 426.785508 
L 112.41025 435.807708 
L 109.377577 444.808932 
L 106.410645 453.789179 
L 103.509457 462.74845 
L 100.674011 471.686746 
L 97.904308 480.604065 
L 95.200348 489.500408 
L 92.56213 498.375774 
L 89.989655 507.230165 
L 87.482922 516.063579 
L 85.041932 524.876018 
L 82.666685 533.66748 
L 80.357181 542.437966 
L 78.113419 551.187476 
L 75.9354 559.916009 
L 73.823123 568.623567 
L 71.776589 577.310148 
L 69.795798 585.975754 
L 67.88075 594.620383 
L 66.031444 603.244036 
L 64.247881 611.846713 
L 62.53006 620.428413 
L 60.877982 628.989138 
L 59.291647 637.528886 
L 57.771055 646.047658 
L 56.316205 654.545455 
" style="fill:none;stroke:#000000;stroke-linecap:square;stroke-width:1.5;"/>
   </g>
   <g id="patch_3">
    <path d="M 36.243825 684 
L 36.243825 36 
" style="fill:none;stroke:#000000;stroke-linecap:square;stroke-linejoin:miter;stroke-width:0.8;"/>
   </g>
   <g id="patch_4">
    <path d="M 477.836175 684 
L 477.836175 36 
" style="fill:none;stroke:#000000;stroke-linecap:square;stroke-linejoin:miter;stroke-width:0.8;"/>
   </g>
   <g id="patch_5">
    <path d="M 36.243825 684 
L 477.836175 684 
" style="fill:none;stroke:#000000;stroke-linecap:square;stroke-linejoin:miter;stroke-width:0.8;"/>
   </g>
   <g id="patch_6">
    <path d="M 36.243825 36 
L 477.836175 36 
" style="fill:none;stroke:#000000;stroke-linecap:square;stroke-linejoin:miter;stroke-width:0.8;"/>
   </g>
  </g>
 </g>
 <defs>
  <clipPath id="pfe19dbe549">
   <rect height="648" width="441.59235" x="36.243825" y="36"/>
  </clipPath>
 </defs>
</svg>
