<?xml version="1.0" encoding="utf-8" standalone="no"?>
<!DOCTYPE svg PUBLIC "-//W3C//DTD SVG 1.1//EN"
  "http://www.w3.org/Graphics/SVG/1.1/DTD/svg11.dtd">
<!-- Created with matplotlib (https://matplotlib.org/) -->
<svg height="720pt" version="1.1" viewBox="0 0 504 720" width="504pt" xmlns="http://www.w3.org/2000/svg" xmlns:xlink="http://www.w3.org/1999/xlink">
 <defs>
  <style type="text/css">
*{stroke-linecap:butt;stroke-linejoin:round;}
  </style>
 </defs>
 <g id="figure_1">
  <g id="patch_1">
   <path d="M 0 720 
L 504 720 
L 504 0 
L 0 0 
z
" style="fill:#ffffff;"/>
  </g>
  <g id="axes_1">
   <g id="patch_2">
    <path d="M 66.408303 684 
L 447.671697 684 
L 447.671697 36 
L 66.408303 36 
z
" style="fill:#ffffff;"/>
   </g>
   <g id="matplotlib.axis_1">
    <g id="xtick_1">
     <g id="line2d_1">
      <path clip-path="url(#p36263a56c0)" d="M 107.01275 684 
L 107.01275 36 
" style="fill:none;stroke:#b0b0b0;stroke-linecap:square;stroke-width:0.8;"/>
     </g>
     <g id="line2d_2">
      <defs>
       <path d="M 0 0 
L 0 3.5 
" id="m4020635a1d" style="stroke:#000000;stroke-width:0.8;"/>
      </defs>
      <g>
       <use style="stroke:#000000;stroke-width:0.8;" x="107.01275" xlink:href="#m4020635a1d" y="684"/>
      </g>
     </g>
     <g id="text_1">
      <!-- −0.4 -->
      <defs>
       <path d="M 10.59375 35.5 
L 73.1875 35.5 
L 73.1875 27.203125 
L 10.59375 27.203125 
z
" id="DejaVuSans-8722"/>
       <path d="M 31.78125 66.40625 
Q 24.171875 66.40625 20.328125 58.90625 
Q 16.5 51.421875 16.5 36.375 
Q 16.5 21.390625 20.328125 13.890625 
Q 24.171875 6.390625 31.78125 6.390625 
Q 39.453125 6.390625 43.28125 13.890625 
Q 47.125 21.390625 47.125 36.375 
Q 47.125 51.421875 43.28125 58.90625 
Q 39.453125 66.40625 31.78125 66.40625 
z
M 31.78125 74.21875 
Q 44.046875 74.21875 50.515625 64.515625 
Q 56.984375 54.828125 56.984375 36.375 
Q 56.984375 17.96875 50.515625 8.265625 
Q 44.046875 -1.421875 31.78125 -1.421875 
Q 19.53125 -1.421875 13.0625 8.265625 
Q 6.59375 17.96875 6.59375 36.375 
Q 6.59375 54.828125 13.0625 64.515625 
Q 19.53125 74.21875 31.78125 74.21875 
z
" id="DejaVuSans-48"/>
       <path d="M 10.6875 12.40625 
L 21 12.40625 
L 21 0 
L 10.6875 0 
z
" id="DejaVuSans-46"/>
       <path d="M 37.796875 64.3125 
L 12.890625 25.390625 
L 37.796875 25.390625 
z
M 35.203125 72.90625 
L 47.609375 72.90625 
L 47.609375 25.390625 
L 58.015625 25.390625 
L 58.015625 17.1875 
L 47.609375 17.1875 
L 47.609375 0 
L 37.796875 0 
L 37.796875 17.1875 
L 4.890625 17.1875 
L 4.890625 26.703125 
z
" id="DejaVuSans-52"/>
      </defs>
      <g transform="translate(94.871343 698.598438)scale(0.1 -0.1)">
       <use xlink:href="#DejaVuSans-8722"/>
       <use x="83.789062" xlink:href="#DejaVuSans-48"/>
       <use x="147.412109" xlink:href="#DejaVuSans-46"/>
       <use x="179.199219" xlink:href="#DejaVuSans-52"/>
      </g>
     </g>
    </g>
    <g id="xtick_2">
     <g id="line2d_3">
      <path clip-path="url(#p36263a56c0)" d="M 182.026375 684 
L 182.026375 36 
" style="fill:none;stroke:#b0b0b0;stroke-linecap:square;stroke-width:0.8;"/>
     </g>
     <g id="line2d_4">
      <g>
       <use style="stroke:#000000;stroke-width:0.8;" x="182.026375" xlink:href="#m4020635a1d" y="684"/>
      </g>
     </g>
     <g id="text_2">
      <!-- −0.2 -->
      <defs>
       <path d="M 19.1875 8.296875 
L 53.609375 8.296875 
L 53.609375 0 
L 7.328125 0 
L 7.328125 8.296875 
Q 12.9375 14.109375 22.625 23.890625 
Q 32.328125 33.6875 34.8125 36.53125 
Q 39.546875 41.84375 41.421875 45.53125 
Q 43.3125 49.21875 43.3125 52.78125 
Q 43.3125 58.59375 39.234375 62.25 
Q 35.15625 65.921875 28.609375 65.921875 
Q 23.96875 65.921875 18.8125 64.3125 
Q 13.671875 62.703125 7.8125 59.421875 
L 7.8125 69.390625 
Q 13.765625 71.78125 18.9375 73 
Q 24.125 74.21875 28.421875 74.21875 
Q 39.75 74.21875 46.484375 68.546875 
Q 53.21875 62.890625 53.21875 53.421875 
Q 53.21875 48.921875 51.53125 44.890625 
Q 49.859375 40.875 45.40625 35.40625 
Q 44.1875 33.984375 37.640625 27.21875 
Q 31.109375 20.453125 19.1875 8.296875 
z
" id="DejaVuSans-50"/>
      </defs>
      <g transform="translate(169.884969 698.598438)scale(0.1 -0.1)">
       <use xlink:href="#DejaVuSans-8722"/>
       <use x="83.789062" xlink:href="#DejaVuSans-48"/>
       <use x="147.412109" xlink:href="#DejaVuSans-46"/>
       <use x="179.199219" xlink:href="#DejaVuSans-50"/>
      </g>
     </g>
    </g>
    <g id="xtick_3">
     <g id="line2d_5">
      <path clip-path="url(#p36263a56c0)" d="M 257.04 684 
L 257.04 36 
" style="fill:none;stroke:#b0b0b0;stroke-linecap:square;stroke-width:0.8;"/>
     </g>
     <g id="line2d_6">
      <g>
       <use style="stroke:#000000;stroke-width:0.8;" x="257.04" xlink:href="#m4020635a1d" y="684"/>
      </g>
     </g>
     <g id="text_3">
      <!-- 0.0 -->
      <g transform="translate(249.088437 698.598438)scale(0.1 -0.1)">
       <use xlink:href="#DejaVuSans-48"/>
       <use x="63.623047" xlink:href="#DejaVuSans-46"/>
       <use x="95.410156" xlink:href="#DejaVuSans-48"/>
      </g>
     </g>
    </g>
    <g id="xtick_4">
     <g id="line2d_7">
      <path clip-path="url(#p36263a56c0)" d="M 332.053625 684 
L 332.053625 36 
" style="fill:none;stroke:#b0b0b0;stroke-linecap:square;stroke-width:0.8;"/>
     </g>
     <g id="line2d_8">
      <g>
       <use style="stroke:#000000;stroke-width:0.8;" x="332.053625" xlink:href="#m4020635a1d" y="684"/>
      </g>
     </g>
     <g id="text_4">
      <!-- 0.2 -->
      <g transform="translate(324.102063 698.598438)scale(0.1 -0.1)">
       <use xlink:href="#DejaVuSans-48"/>
       <use x="63.623047" xlink:href="#DejaVuSans-46"/>
       <use x="95.410156" xlink:href="#DejaVuSans-50"/>
      </g>
     </g>
    </g>
    <g id="xtick_5">
     <g id="line2d_9">
      <path clip-path="url(#p36263a56c0)" d="M 407.06725 684 
L 407.06725 36 
" style="fill:none;stroke:#b0b0b0;stroke-linecap:square;stroke-width:0.8;"/>
     </g>
     <g id="line2d_10">
      <g>
       <use style="stroke:#000000;stroke-width:0.8;" x="407.06725" xlink:href="#m4020635a1d" y="684"/>
      </g>
     </g>
     <g id="text_5">
      <!-- 0.4 -->
      <g transform="translate(399.115688 698.598438)scale(0.1 -0.1)">
       <use xlink:href="#DejaVuSans-48"/>
       <use x="63.623047" xlink:href="#DejaVuSans-46"/>
       <use x="95.410156" xlink:href="#DejaVuSans-52"/>
      </g>
     </g>
    </g>
    <g id="text_6">
     <!-- m -->
     <defs>
      <path d="M 52 44.1875 
Q 55.375 50.25 60.0625 53.125 
Q 64.75 56 71.09375 56 
Q 79.640625 56 84.28125 50.015625 
Q 88.921875 44.046875 88.921875 33.015625 
L 88.921875 0 
L 79.890625 0 
L 79.890625 32.71875 
Q 79.890625 40.578125 77.09375 44.375 
Q 74.3125 48.1875 68.609375 48.1875 
Q 61.625 48.1875 57.5625 43.546875 
Q 53.515625 38.921875 53.515625 30.90625 
L 53.515625 0 
L 44.484375 0 
L 44.484375 32.71875 
Q 44.484375 40.625 41.703125 44.40625 
Q 38.921875 48.1875 33.109375 48.1875 
Q 26.21875 48.1875 22.15625 43.53125 
Q 18.109375 38.875 18.109375 30.90625 
L 18.109375 0 
L 9.078125 0 
L 9.078125 54.6875 
L 18.109375 54.6875 
L 18.109375 46.1875 
Q 21.1875 51.21875 25.484375 53.609375 
Q 29.78125 56 35.6875 56 
Q 41.65625 56 45.828125 52.96875 
Q 50 49.953125 52 44.1875 
z
" id="DejaVuSans-109"/>
     </defs>
     <g transform="translate(252.169687 712.276562)scale(0.1 -0.1)">
      <use xlink:href="#DejaVuSans-109"/>
     </g>
    </g>
   </g>
   <g id="matplotlib.axis_2">
    <g id="ytick_1">
     <g id="line2d_11">
      <path clip-path="url(#p36263a56c0)" d="M 66.408303 643.970691 
L 447.671697 643.970691 
" style="fill:none;stroke:#b0b0b0;stroke-linecap:square;stroke-width:0.8;"/>
     </g>
     <g id="line2d_12">
      <defs>
       <path d="M 0 0 
L -3.5 0 
" id="mc5a37a1086" style="stroke:#000000;stroke-width:0.8;"/>
      </defs>
      <g>
       <use style="stroke:#000000;stroke-width:0.8;" x="66.408303" xlink:href="#mc5a37a1086" y="643.970691"/>
      </g>
     </g>
     <g id="text_7">
      <!-- −1.2 -->
      <defs>
       <path d="M 12.40625 8.296875 
L 28.515625 8.296875 
L 28.515625 63.921875 
L 10.984375 60.40625 
L 10.984375 69.390625 
L 28.421875 72.90625 
L 38.28125 72.90625 
L 38.28125 8.296875 
L 54.390625 8.296875 
L 54.390625 0 
L 12.40625 0 
z
" id="DejaVuSans-49"/>
      </defs>
      <g transform="translate(35.12549 647.76991)scale(0.1 -0.1)">
       <use xlink:href="#DejaVuSans-8722"/>
       <use x="83.789062" xlink:href="#DejaVuSans-49"/>
       <use x="147.412109" xlink:href="#DejaVuSans-46"/>
       <use x="179.199219" xlink:href="#DejaVuSans-50"/>
      </g>
     </g>
    </g>
    <g id="ytick_2">
     <g id="line2d_13">
      <path clip-path="url(#p36263a56c0)" d="M 66.408303 568.957066 
L 447.671697 568.957066 
" style="fill:none;stroke:#b0b0b0;stroke-linecap:square;stroke-width:0.8;"/>
     </g>
     <g id="line2d_14">
      <g>
       <use style="stroke:#000000;stroke-width:0.8;" x="66.408303" xlink:href="#mc5a37a1086" y="568.957066"/>
      </g>
     </g>
     <g id="text_8">
      <!-- −1.0 -->
      <g transform="translate(35.12549 572.756284)scale(0.1 -0.1)">
       <use xlink:href="#DejaVuSans-8722"/>
       <use x="83.789062" xlink:href="#DejaVuSans-49"/>
       <use x="147.412109" xlink:href="#DejaVuSans-46"/>
       <use x="179.199219" xlink:href="#DejaVuSans-48"/>
      </g>
     </g>
    </g>
    <g id="ytick_3">
     <g id="line2d_15">
      <path clip-path="url(#p36263a56c0)" d="M 66.408303 493.94344 
L 447.671697 493.94344 
" style="fill:none;stroke:#b0b0b0;stroke-linecap:square;stroke-width:0.8;"/>
     </g>
     <g id="line2d_16">
      <g>
       <use style="stroke:#000000;stroke-width:0.8;" x="66.408303" xlink:href="#mc5a37a1086" y="493.94344"/>
      </g>
     </g>
     <g id="text_9">
      <!-- −0.8 -->
      <defs>
       <path d="M 31.78125 34.625 
Q 24.75 34.625 20.71875 30.859375 
Q 16.703125 27.09375 16.703125 20.515625 
Q 16.703125 13.921875 20.71875 10.15625 
Q 24.75 6.390625 31.78125 6.390625 
Q 38.8125 6.390625 42.859375 10.171875 
Q 46.921875 13.96875 46.921875 20.515625 
Q 46.921875 27.09375 42.890625 30.859375 
Q 38.875 34.625 31.78125 34.625 
z
M 21.921875 38.8125 
Q 15.578125 40.375 12.03125 44.71875 
Q 8.5 49.078125 8.5 55.328125 
Q 8.5 64.0625 14.71875 69.140625 
Q 20.953125 74.21875 31.78125 74.21875 
Q 42.671875 74.21875 48.875 69.140625 
Q 55.078125 64.0625 55.078125 55.328125 
Q 55.078125 49.078125 51.53125 44.71875 
Q 48 40.375 41.703125 38.8125 
Q 48.828125 37.15625 52.796875 32.3125 
Q 56.78125 27.484375 56.78125 20.515625 
Q 56.78125 9.90625 50.3125 4.234375 
Q 43.84375 -1.421875 31.78125 -1.421875 
Q 19.734375 -1.421875 13.25 4.234375 
Q 6.78125 9.90625 6.78125 20.515625 
Q 6.78125 27.484375 10.78125 32.3125 
Q 14.796875 37.15625 21.921875 38.8125 
z
M 18.3125 54.390625 
Q 18.3125 48.734375 21.84375 45.5625 
Q 25.390625 42.390625 31.78125 42.390625 
Q 38.140625 42.390625 41.71875 45.5625 
Q 45.3125 48.734375 45.3125 54.390625 
Q 45.3125 60.0625 41.71875 63.234375 
Q 38.140625 66.40625 31.78125 66.40625 
Q 25.390625 66.40625 21.84375 63.234375 
Q 18.3125 60.0625 18.3125 54.390625 
z
" id="DejaVuSans-56"/>
      </defs>
      <g transform="translate(35.12549 497.742659)scale(0.1 -0.1)">
       <use xlink:href="#DejaVuSans-8722"/>
       <use x="83.789062" xlink:href="#DejaVuSans-48"/>
       <use x="147.412109" xlink:href="#DejaVuSans-46"/>
       <use x="179.199219" xlink:href="#DejaVuSans-56"/>
      </g>
     </g>
    </g>
    <g id="ytick_4">
     <g id="line2d_17">
      <path clip-path="url(#p36263a56c0)" d="M 66.408303 418.929815 
L 447.671697 418.929815 
" style="fill:none;stroke:#b0b0b0;stroke-linecap:square;stroke-width:0.8;"/>
     </g>
     <g id="line2d_18">
      <g>
       <use style="stroke:#000000;stroke-width:0.8;" x="66.408303" xlink:href="#mc5a37a1086" y="418.929815"/>
      </g>
     </g>
     <g id="text_10">
      <!-- −0.6 -->
      <defs>
       <path d="M 33.015625 40.375 
Q 26.375 40.375 22.484375 35.828125 
Q 18.609375 31.296875 18.609375 23.390625 
Q 18.609375 15.53125 22.484375 10.953125 
Q 26.375 6.390625 33.015625 6.390625 
Q 39.65625 6.390625 43.53125 10.953125 
Q 47.40625 15.53125 47.40625 23.390625 
Q 47.40625 31.296875 43.53125 35.828125 
Q 39.65625 40.375 33.015625 40.375 
z
M 52.59375 71.296875 
L 52.59375 62.3125 
Q 48.875 64.0625 45.09375 64.984375 
Q 41.3125 65.921875 37.59375 65.921875 
Q 27.828125 65.921875 22.671875 59.328125 
Q 17.53125 52.734375 16.796875 39.40625 
Q 19.671875 43.65625 24.015625 45.921875 
Q 28.375 48.1875 33.59375 48.1875 
Q 44.578125 48.1875 50.953125 41.515625 
Q 57.328125 34.859375 57.328125 23.390625 
Q 57.328125 12.15625 50.6875 5.359375 
Q 44.046875 -1.421875 33.015625 -1.421875 
Q 20.359375 -1.421875 13.671875 8.265625 
Q 6.984375 17.96875 6.984375 36.375 
Q 6.984375 53.65625 15.1875 63.9375 
Q 23.390625 74.21875 37.203125 74.21875 
Q 40.921875 74.21875 44.703125 73.484375 
Q 48.484375 72.75 52.59375 71.296875 
z
" id="DejaVuSans-54"/>
      </defs>
      <g transform="translate(35.12549 422.729034)scale(0.1 -0.1)">
       <use xlink:href="#DejaVuSans-8722"/>
       <use x="83.789062" xlink:href="#DejaVuSans-48"/>
       <use x="147.412109" xlink:href="#DejaVuSans-46"/>
       <use x="179.199219" xlink:href="#DejaVuSans-54"/>
      </g>
     </g>
    </g>
    <g id="ytick_5">
     <g id="line2d_19">
      <path clip-path="url(#p36263a56c0)" d="M 66.408303 343.91619 
L 447.671697 343.91619 
" style="fill:none;stroke:#b0b0b0;stroke-linecap:square;stroke-width:0.8;"/>
     </g>
     <g id="line2d_20">
      <g>
       <use style="stroke:#000000;stroke-width:0.8;" x="66.408303" xlink:href="#mc5a37a1086" y="343.91619"/>
      </g>
     </g>
     <g id="text_11">
      <!-- −0.4 -->
      <g transform="translate(35.12549 347.715409)scale(0.1 -0.1)">
       <use xlink:href="#DejaVuSans-8722"/>
       <use x="83.789062" xlink:href="#DejaVuSans-48"/>
       <use x="147.412109" xlink:href="#DejaVuSans-46"/>
       <use x="179.199219" xlink:href="#DejaVuSans-52"/>
      </g>
     </g>
    </g>
    <g id="ytick_6">
     <g id="line2d_21">
      <path clip-path="url(#p36263a56c0)" d="M 66.408303 268.902565 
L 447.671697 268.902565 
" style="fill:none;stroke:#b0b0b0;stroke-linecap:square;stroke-width:0.8;"/>
     </g>
     <g id="line2d_22">
      <g>
       <use style="stroke:#000000;stroke-width:0.8;" x="66.408303" xlink:href="#mc5a37a1086" y="268.902565"/>
      </g>
     </g>
     <g id="text_12">
      <!-- −0.2 -->
      <g transform="translate(35.12549 272.701784)scale(0.1 -0.1)">
       <use xlink:href="#DejaVuSans-8722"/>
       <use x="83.789062" xlink:href="#DejaVuSans-48"/>
       <use x="147.412109" xlink:href="#DejaVuSans-46"/>
       <use x="179.199219" xlink:href="#DejaVuSans-50"/>
      </g>
     </g>
    </g>
    <g id="ytick_7">
     <g id="line2d_23">
      <path clip-path="url(#p36263a56c0)" d="M 66.408303 193.88894 
L 447.671697 193.88894 
" style="fill:none;stroke:#b0b0b0;stroke-linecap:square;stroke-width:0.8;"/>
     </g>
     <g id="line2d_24">
      <g>
       <use style="stroke:#000000;stroke-width:0.8;" x="66.408303" xlink:href="#mc5a37a1086" y="193.88894"/>
      </g>
     </g>
     <g id="text_13">
      <!-- 0.0 -->
      <g transform="translate(43.505178 197.688159)scale(0.1 -0.1)">
       <use xlink:href="#DejaVuSans-48"/>
       <use x="63.623047" xlink:href="#DejaVuSans-46"/>
       <use x="95.410156" xlink:href="#DejaVuSans-48"/>
      </g>
     </g>
    </g>
    <g id="ytick_8">
     <g id="line2d_25">
      <path clip-path="url(#p36263a56c0)" d="M 66.408303 118.875315 
L 447.671697 118.875315 
" style="fill:none;stroke:#b0b0b0;stroke-linecap:square;stroke-width:0.8;"/>
     </g>
     <g id="line2d_26">
      <g>
       <use style="stroke:#000000;stroke-width:0.8;" x="66.408303" xlink:href="#mc5a37a1086" y="118.875315"/>
      </g>
     </g>
     <g id="text_14">
      <!-- 0.2 -->
      <g transform="translate(43.505178 122.674533)scale(0.1 -0.1)">
       <use xlink:href="#DejaVuSans-48"/>
       <use x="63.623047" xlink:href="#DejaVuSans-46"/>
       <use x="95.410156" xlink:href="#DejaVuSans-50"/>
      </g>
     </g>
    </g>
    <g id="ytick_9">
     <g id="line2d_27">
      <path clip-path="url(#p36263a56c0)" d="M 66.408303 43.86169 
L 447.671697 43.86169 
" style="fill:none;stroke:#b0b0b0;stroke-linecap:square;stroke-width:0.8;"/>
     </g>
     <g id="line2d_28">
      <g>
       <use style="stroke:#000000;stroke-width:0.8;" x="66.408303" xlink:href="#mc5a37a1086" y="43.86169"/>
      </g>
     </g>
     <g id="text_15">
      <!-- 0.4 -->
      <g transform="translate(43.505178 47.660908)scale(0.1 -0.1)">
       <use xlink:href="#DejaVuSans-48"/>
       <use x="63.623047" xlink:href="#DejaVuSans-46"/>
       <use x="95.410156" xlink:href="#DejaVuSans-52"/>
      </g>
     </g>
    </g>
    <g id="text_16">
     <!-- m -->
     <g transform="translate(29.045803 364.870313)rotate(-90)scale(0.1 -0.1)">
      <use xlink:href="#DejaVuSans-109"/>
     </g>
    </g>
   </g>
   <g id="line2d_29">
    <path clip-path="url(#p36263a56c0)" d="M 290.781318 158.326485 
L 223.298682 158.326485 
" style="fill:none;stroke:#ffa500;stroke-dasharray:5.55,2.4;stroke-dashoffset:0;stroke-width:1.5;"/>
   </g>
   <g id="line2d_30">
    <path clip-path="url(#p36263a56c0)" d="M 276.050867 193.88894 
L 238.029133 193.88894 
" style="fill:none;stroke:#808080;stroke-dasharray:5.55,2.4;stroke-dashoffset:0;stroke-width:1.5;"/>
   </g>
   <g id="line2d_31">
    <path clip-path="url(#p36263a56c0)" d="M 257.04 65.454545 
L 290.781318 65.454545 
L 290.781318 158.326485 
" style="fill:none;stroke:#000000;stroke-linecap:square;stroke-width:1.5;"/>
   </g>
   <g id="line2d_32">
    <path clip-path="url(#p36263a56c0)" d="M 257.04 65.454545 
L 223.298682 65.454545 
L 223.298682 158.326485 
" style="fill:none;stroke:#000000;stroke-linecap:square;stroke-width:1.5;"/>
   </g>
   <g id="line2d_33">
    <path clip-path="url(#p36263a56c0)" d="M 284.403098 173.724871 
L 284.647923 173.47609 
L 284.888729 173.223417 
L 285.125454 172.966917 
L 285.358038 172.706655 
L 285.586421 172.442699 
L 285.810543 172.175117 
L 286.030348 171.903977 
L 286.245779 171.629348 
L 286.456781 171.351302 
L 286.663299 171.06991 
L 286.86528 170.785244 
L 287.062673 170.497377 
L 287.255426 170.206384 
L 287.443491 169.912338 
L 287.626819 169.615316 
L 287.805362 169.315393 
L 287.979076 169.012648 
L 288.147915 168.707157 
L 288.311836 168.398999 
L 288.470796 168.088254 
L 288.624756 167.775 
L 288.773675 167.459319 
L 288.917515 167.141292 
L 289.05624 166.821001 
L 289.189813 166.498527 
L 289.3182 166.173953 
L 289.441369 165.847364 
L 289.559287 165.518842 
L 289.671925 165.188473 
L 289.779253 164.85634 
L 289.881244 164.52253 
L 289.977872 164.187128 
L 290.069111 163.850221 
L 290.154939 163.511895 
L 290.235333 163.172236 
L 290.310273 162.831332 
L 290.379739 162.489271 
L 290.443714 162.146141 
L 290.502181 161.802029 
L 290.555125 161.457025 
L 290.602532 161.111216 
L 290.644391 160.764691 
L 290.680691 160.417541 
L 290.711421 160.069853 
L 290.736575 159.721717 
L 290.756146 159.373223 
L 290.770129 159.02446 
L 290.77852 158.675517 
L 290.781318 158.326485 
" style="fill:none;stroke:#000000;stroke-linecap:square;stroke-width:1.5;"/>
   </g>
   <g id="line2d_34">
    <path clip-path="url(#p36263a56c0)" d="M 229.676902 173.724871 
L 229.432077 173.47609 
L 229.191271 173.223417 
L 228.954546 172.966917 
L 228.721962 172.706655 
L 228.493579 172.442699 
L 228.269457 172.175117 
L 228.049652 171.903977 
L 227.834221 171.629348 
L 227.623219 171.351302 
L 227.416701 171.06991 
L 227.21472 170.785244 
L 227.017327 170.497377 
L 226.824574 170.206384 
L 226.636509 169.912338 
L 226.453181 169.615316 
L 226.274638 169.315393 
L 226.100924 169.012648 
L 225.932085 168.707157 
L 225.768164 168.398999 
L 225.609204 168.088254 
L 225.455244 167.775 
L 225.306325 167.459319 
L 225.162485 167.141292 
L 225.02376 166.821001 
L 224.890187 166.498527 
L 224.7618 166.173953 
L 224.638631 165.847364 
L 224.520713 165.518842 
L 224.408075 165.188473 
L 224.300747 164.85634 
L 224.198756 164.52253 
L 224.102128 164.187128 
L 224.010889 163.850221 
L 223.925061 163.511895 
L 223.844667 163.172236 
L 223.769727 162.831332 
L 223.700261 162.489271 
L 223.636286 162.146141 
L 223.577819 161.802029 
L 223.524875 161.457025 
L 223.477468 161.111216 
L 223.435609 160.764691 
L 223.399309 160.417541 
L 223.368579 160.069853 
L 223.343425 159.721717 
L 223.323854 159.373223 
L 223.309871 159.02446 
L 223.30148 158.675517 
L 223.298682 158.326485 
" style="fill:none;stroke:#000000;stroke-linecap:square;stroke-width:1.5;"/>
   </g>
   <g id="line2d_35">
    <path clip-path="url(#p36263a56c0)" d="M 284.403098 173.724871 
L 283.587043 174.575375 
L 282.806833 175.458877 
L 282.063799 176.373866 
L 281.359213 177.318779 
L 280.694276 178.292002 
L 280.070126 179.291872 
L 279.487829 180.316681 
L 278.94838 181.364678 
L 278.4527 182.434073 
L 278.001636 183.523037 
L 277.595959 184.629712 
L 277.236361 185.752206 
L 276.923458 186.888602 
L 276.657784 188.036958 
L 276.439792 189.195311 
L 276.269855 190.361684 
L 276.148264 191.534082 
L 276.075227 192.710505 
L 276.050867 193.88894 
" style="fill:none;stroke:#000000;stroke-linecap:square;stroke-width:1.5;"/>
   </g>
   <g id="line2d_36">
    <path clip-path="url(#p36263a56c0)" d="M 229.676902 173.724871 
L 230.492957 174.575375 
L 231.273167 175.458877 
L 232.016201 176.373866 
L 232.720787 177.318779 
L 233.385724 178.292002 
L 234.009874 179.291872 
L 234.592171 180.316681 
L 235.13162 181.364678 
L 235.6273 182.434073 
L 236.078364 183.523037 
L 236.484041 184.629712 
L 236.843639 185.752206 
L 237.156542 186.888602 
L 237.422216 188.036958 
L 237.640208 189.195311 
L 237.810145 190.361684 
L 237.931736 191.534082 
L 238.004773 192.710505 
L 238.029133 193.88894 
" style="fill:none;stroke:#000000;stroke-linecap:square;stroke-width:1.5;"/>
   </g>
   <g id="line2d_37">
    <path clip-path="url(#p36263a56c0)" d="M 276.050867 193.88894 
L 276.051282 193.966599 
L 276.052528 194.044249 
L 276.054604 194.121882 
L 276.05751 194.199487 
L 276.061245 194.277058 
L 276.06581 194.354584 
L 276.071204 194.432056 
L 276.077426 194.509467 
L 276.084476 194.586806 
L 276.092352 194.664066 
L 276.101054 194.741237 
L 276.11058 194.818311 
L 276.12093 194.895278 
L 276.132103 194.972131 
L 276.144097 195.048859 
L 276.156911 195.125455 
L 276.170543 195.201909 
L 276.184992 195.278213 
L 276.200256 195.354359 
L 276.216333 195.430336 
L 276.233222 195.506138 
L 276.250921 195.581754 
L 276.269427 195.657177 
L 276.288739 195.732398 
L 276.308854 195.807408 
L 276.329769 195.882199 
L 276.351484 195.956761 
L 276.373995 196.031087 
L 276.397299 196.105169 
L 276.421394 196.178996 
L 276.446277 196.252562 
L 276.471946 196.325858 
L 276.498396 196.398875 
L 276.525626 196.471604 
L 276.553633 196.544039 
L 276.582412 196.61617 
L 276.611961 196.687989 
L 276.642276 196.759488 
L 276.673354 196.830658 
L 276.705192 196.901492 
L 276.737785 196.971982 
L 276.77113 197.042119 
L 276.805223 197.111896 
L 276.84006 197.181304 
L 276.875638 197.250335 
L 276.911952 197.318982 
L 276.948997 197.387237 
L 276.986771 197.455092 
L 277.025268 197.522539 
" style="fill:none;stroke:#000000;stroke-linecap:square;stroke-width:1.5;"/>
   </g>
   <g id="line2d_38">
    <path clip-path="url(#p36263a56c0)" d="M 238.029133 193.88894 
L 238.028718 193.966599 
L 238.027472 194.044249 
L 238.025396 194.121882 
L 238.02249 194.199487 
L 238.018755 194.277058 
L 238.01419 194.354584 
L 238.008796 194.432056 
L 238.002574 194.509467 
L 237.995524 194.586806 
L 237.987648 194.664066 
L 237.978946 194.741237 
L 237.96942 194.818311 
L 237.95907 194.895278 
L 237.947897 194.972131 
L 237.935903 195.048859 
L 237.923089 195.125455 
L 237.909457 195.201909 
L 237.895008 195.278213 
L 237.879744 195.354359 
L 237.863667 195.430336 
L 237.846778 195.506138 
L 237.829079 195.581754 
L 237.810573 195.657177 
L 237.791261 195.732398 
L 237.771146 195.807408 
L 237.750231 195.882199 
L 237.728516 195.956761 
L 237.706005 196.031087 
L 237.682701 196.105169 
L 237.658606 196.178996 
L 237.633723 196.252562 
L 237.608054 196.325858 
L 237.581604 196.398875 
L 237.554374 196.471604 
L 237.526367 196.544039 
L 237.497588 196.61617 
L 237.468039 196.687989 
L 237.437724 196.759488 
L 237.406646 196.830658 
L 237.374808 196.901492 
L 237.342215 196.971982 
L 237.30887 197.042119 
L 237.274777 197.111896 
L 237.23994 197.181304 
L 237.204362 197.250335 
L 237.168048 197.318982 
L 237.131003 197.387237 
L 237.093229 197.455092 
L 237.054732 197.522539 
" style="fill:none;stroke:#000000;stroke-linecap:square;stroke-width:1.5;"/>
   </g>
   <g id="line2d_39">
    <path clip-path="url(#p36263a56c0)" d="M 277.025268 197.522539 
L 281.910986 206.056864 
L 286.723504 214.624218 
L 291.462821 223.2246 
L 296.128938 231.85801 
L 300.721854 240.524448 
L 305.241569 249.223914 
L 309.688084 257.956408 
L 314.061398 266.72193 
L 318.361512 275.52048 
L 322.588425 284.352058 
L 326.742137 293.216664 
L 330.822648 302.114298 
L 334.829959 311.04496 
L 338.76407 320.00865 
L 342.62498 329.005368 
L 346.412689 338.035114 
L 350.127197 347.097889 
L 353.768505 356.193691 
L 357.336612 365.322521 
L 360.831519 374.484379 
L 364.253225 383.679265 
L 367.601731 392.90718 
L 370.877035 402.168122 
L 374.07914 411.462092 
L 377.208043 420.78909 
L 380.263746 430.149117 
L 383.246249 439.542171 
L 386.15555 448.968253 
L 388.991651 458.427364 
L 391.754552 467.919502 
L 394.444252 477.444668 
L 397.060751 487.002863 
L 399.60405 496.594085 
L 402.074148 506.218336 
L 404.471045 515.875614 
L 406.794742 525.565921 
L 409.045238 535.289255 
L 411.222533 545.045618 
L 413.326628 554.835008 
L 415.357522 564.657427 
L 417.315216 574.512873 
L 419.199709 584.401348 
L 421.011002 594.322851 
L 422.749093 604.277381 
L 424.413985 614.26494 
L 426.005675 624.285526 
L 427.524165 634.339141 
L 428.969454 644.425784 
L 430.341543 654.545455 
" style="fill:none;stroke:#000000;stroke-linecap:square;stroke-width:1.5;"/>
   </g>
   <g id="line2d_40">
    <path clip-path="url(#p36263a56c0)" d="M 237.054732 197.522539 
L 232.169014 206.056864 
L 227.356496 214.624218 
L 222.617179 223.2246 
L 217.951062 231.85801 
L 213.358146 240.524448 
L 208.838431 249.223914 
L 204.391916 257.956408 
L 200.018602 266.72193 
L 195.718488 275.52048 
L 191.491575 284.352058 
L 187.337863 293.216664 
L 183.257352 302.114298 
L 179.250041 311.04496 
L 175.31593 320.00865 
L 171.45502 329.005368 
L 167.667311 338.035114 
L 163.952803 347.097889 
L 160.311495 356.193691 
L 156.743388 365.322521 
L 153.248481 374.484379 
L 149.826775 383.679265 
L 146.478269 392.90718 
L 143.202965 402.168122 
L 140.00086 411.462092 
L 136.871957 420.78909 
L 133.816254 430.149117 
L 130.833751 439.542171 
L 127.92445 448.968253 
L 125.088349 458.427364 
L 122.325448 467.919502 
L 119.635748 477.444668 
L 117.019249 487.002863 
L 114.47595 496.594085 
L 112.005852 506.218336 
L 109.608955 515.875614 
L 107.285258 525.565921 
L 105.034762 535.289255 
L 102.857467 545.045618 
L 100.753372 554.835008 
L 98.722478 564.657427 
L 96.764784 574.512873 
L 94.880291 584.401348 
L 93.068998 594.322851 
L 91.330907 604.277381 
L 89.666015 614.26494 
L 88.074325 624.285526 
L 86.555835 634.339141 
L 85.110546 644.425784 
L 83.738457 654.545455 
" style="fill:none;stroke:#000000;stroke-linecap:square;stroke-width:1.5;"/>
   </g>
   <g id="patch_3">
    <path d="M 66.408303 684 
L 66.408303 36 
" style="fill:none;stroke:#000000;stroke-linecap:square;stroke-linejoin:miter;stroke-width:0.8;"/>
   </g>
   <g id="patch_4">
    <path d="M 447.671697 684 
L 447.671697 36 
" style="fill:none;stroke:#000000;stroke-linecap:square;stroke-linejoin:miter;stroke-width:0.8;"/>
   </g>
   <g id="patch_5">
    <path d="M 66.408303 684 
L 447.671697 684 
" style="fill:none;stroke:#000000;stroke-linecap:square;stroke-linejoin:miter;stroke-width:0.8;"/>
   </g>
   <g id="patch_6">
    <path d="M 66.408303 36 
L 447.671697 36 
" style="fill:none;stroke:#000000;stroke-linecap:square;stroke-linejoin:miter;stroke-width:0.8;"/>
   </g>
  </g>
 </g>
 <defs>
  <clipPath id="p36263a56c0">
   <rect height="648" width="381.263395" x="66.408303" y="36"/>
  </clipPath>
 </defs>
</svg>
