<?xml version="1.0" encoding="utf-8" standalone="no"?>
<!DOCTYPE svg PUBLIC "-//W3C//DTD SVG 1.1//EN"
  "http://www.w3.org/Graphics/SVG/1.1/DTD/svg11.dtd">
<!-- Created with matplotlib (https://matplotlib.org/) -->
<svg height="720pt" version="1.1" viewBox="0 0 504 720" width="504pt" xmlns="http://www.w3.org/2000/svg" xmlns:xlink="http://www.w3.org/1999/xlink">
 <defs>
  <style type="text/css">
*{stroke-linecap:butt;stroke-linejoin:round;}
  </style>
 </defs>
 <g id="figure_1">
  <g id="patch_1">
   <path d="M 0 720 
L 504 720 
L 504 0 
L 0 0 
z
" style="fill:#ffffff;"/>
  </g>
  <g id="axes_1">
   <g id="patch_2">
    <path d="M 66.432603 684 
L 447.647397 684 
L 447.647397 36 
L 66.432603 36 
z
" style="fill:#ffffff;"/>
   </g>
   <g id="matplotlib.axis_1">
    <g id="xtick_1">
     <g id="line2d_1">
      <path clip-path="url(#pe8e3e7c49e)" d="M 107.72321 684 
L 107.72321 36 
" style="fill:none;stroke:#b0b0b0;stroke-linecap:square;stroke-width:0.8;"/>
     </g>
     <g id="line2d_2">
      <defs>
       <path d="M 0 0 
L 0 3.5 
" id="m8b70c64c2d" style="stroke:#000000;stroke-width:0.8;"/>
      </defs>
      <g>
       <use style="stroke:#000000;stroke-width:0.8;" x="107.72321" xlink:href="#m8b70c64c2d" y="684"/>
      </g>
     </g>
     <g id="text_1">
      <!-- −0.4 -->
      <defs>
       <path d="M 10.59375 35.5 
L 73.1875 35.5 
L 73.1875 27.203125 
L 10.59375 27.203125 
z
" id="DejaVuSans-8722"/>
       <path d="M 31.78125 66.40625 
Q 24.171875 66.40625 20.328125 58.90625 
Q 16.5 51.421875 16.5 36.375 
Q 16.5 21.390625 20.328125 13.890625 
Q 24.171875 6.390625 31.78125 6.390625 
Q 39.453125 6.390625 43.28125 13.890625 
Q 47.125 21.390625 47.125 36.375 
Q 47.125 51.421875 43.28125 58.90625 
Q 39.453125 66.40625 31.78125 66.40625 
z
M 31.78125 74.21875 
Q 44.046875 74.21875 50.515625 64.515625 
Q 56.984375 54.828125 56.984375 36.375 
Q 56.984375 17.96875 50.515625 8.265625 
Q 44.046875 -1.421875 31.78125 -1.421875 
Q 19.53125 -1.421875 13.0625 8.265625 
Q 6.59375 17.96875 6.59375 36.375 
Q 6.59375 54.828125 13.0625 64.515625 
Q 19.53125 74.21875 31.78125 74.21875 
z
" id="DejaVuSans-48"/>
       <path d="M 10.6875 12.40625 
L 21 12.40625 
L 21 0 
L 10.6875 0 
z
" id="DejaVuSans-46"/>
       <path d="M 37.796875 64.3125 
L 12.890625 25.390625 
L 37.796875 25.390625 
z
M 35.203125 72.90625 
L 47.609375 72.90625 
L 47.609375 25.390625 
L 58.015625 25.390625 
L 58.015625 17.1875 
L 47.609375 17.1875 
L 47.609375 0 
L 37.796875 0 
L 37.796875 17.1875 
L 4.890625 17.1875 
L 4.890625 26.703125 
z
" id="DejaVuSans-52"/>
      </defs>
      <g transform="translate(95.581803 698.598438)scale(0.1 -0.1)">
       <use xlink:href="#DejaVuSans-8722"/>
       <use x="83.789062" xlink:href="#DejaVuSans-48"/>
       <use x="147.412109" xlink:href="#DejaVuSans-46"/>
       <use x="179.199219" xlink:href="#DejaVuSans-52"/>
      </g>
     </g>
    </g>
    <g id="xtick_2">
     <g id="line2d_3">
      <path clip-path="url(#pe8e3e7c49e)" d="M 182.381605 684 
L 182.381605 36 
" style="fill:none;stroke:#b0b0b0;stroke-linecap:square;stroke-width:0.8;"/>
     </g>
     <g id="line2d_4">
      <g>
       <use style="stroke:#000000;stroke-width:0.8;" x="182.381605" xlink:href="#m8b70c64c2d" y="684"/>
      </g>
     </g>
     <g id="text_2">
      <!-- −0.2 -->
      <defs>
       <path d="M 19.1875 8.296875 
L 53.609375 8.296875 
L 53.609375 0 
L 7.328125 0 
L 7.328125 8.296875 
Q 12.9375 14.109375 22.625 23.890625 
Q 32.328125 33.6875 34.8125 36.53125 
Q 39.546875 41.84375 41.421875 45.53125 
Q 43.3125 49.21875 43.3125 52.78125 
Q 43.3125 58.59375 39.234375 62.25 
Q 35.15625 65.921875 28.609375 65.921875 
Q 23.96875 65.921875 18.8125 64.3125 
Q 13.671875 62.703125 7.8125 59.421875 
L 7.8125 69.390625 
Q 13.765625 71.78125 18.9375 73 
Q 24.125 74.21875 28.421875 74.21875 
Q 39.75 74.21875 46.484375 68.546875 
Q 53.21875 62.890625 53.21875 53.421875 
Q 53.21875 48.921875 51.53125 44.890625 
Q 49.859375 40.875 45.40625 35.40625 
Q 44.1875 33.984375 37.640625 27.21875 
Q 31.109375 20.453125 19.1875 8.296875 
z
" id="DejaVuSans-50"/>
      </defs>
      <g transform="translate(170.240199 698.598438)scale(0.1 -0.1)">
       <use xlink:href="#DejaVuSans-8722"/>
       <use x="83.789062" xlink:href="#DejaVuSans-48"/>
       <use x="147.412109" xlink:href="#DejaVuSans-46"/>
       <use x="179.199219" xlink:href="#DejaVuSans-50"/>
      </g>
     </g>
    </g>
    <g id="xtick_3">
     <g id="line2d_5">
      <path clip-path="url(#pe8e3e7c49e)" d="M 257.04 684 
L 257.04 36 
" style="fill:none;stroke:#b0b0b0;stroke-linecap:square;stroke-width:0.8;"/>
     </g>
     <g id="line2d_6">
      <g>
       <use style="stroke:#000000;stroke-width:0.8;" x="257.04" xlink:href="#m8b70c64c2d" y="684"/>
      </g>
     </g>
     <g id="text_3">
      <!-- 0.0 -->
      <g transform="translate(249.088437 698.598438)scale(0.1 -0.1)">
       <use xlink:href="#DejaVuSans-48"/>
       <use x="63.623047" xlink:href="#DejaVuSans-46"/>
       <use x="95.410156" xlink:href="#DejaVuSans-48"/>
      </g>
     </g>
    </g>
    <g id="xtick_4">
     <g id="line2d_7">
      <path clip-path="url(#pe8e3e7c49e)" d="M 331.698395 684 
L 331.698395 36 
" style="fill:none;stroke:#b0b0b0;stroke-linecap:square;stroke-width:0.8;"/>
     </g>
     <g id="line2d_8">
      <g>
       <use style="stroke:#000000;stroke-width:0.8;" x="331.698395" xlink:href="#m8b70c64c2d" y="684"/>
      </g>
     </g>
     <g id="text_4">
      <!-- 0.2 -->
      <g transform="translate(323.746833 698.598438)scale(0.1 -0.1)">
       <use xlink:href="#DejaVuSans-48"/>
       <use x="63.623047" xlink:href="#DejaVuSans-46"/>
       <use x="95.410156" xlink:href="#DejaVuSans-50"/>
      </g>
     </g>
    </g>
    <g id="xtick_5">
     <g id="line2d_9">
      <path clip-path="url(#pe8e3e7c49e)" d="M 406.35679 684 
L 406.35679 36 
" style="fill:none;stroke:#b0b0b0;stroke-linecap:square;stroke-width:0.8;"/>
     </g>
     <g id="line2d_10">
      <g>
       <use style="stroke:#000000;stroke-width:0.8;" x="406.35679" xlink:href="#m8b70c64c2d" y="684"/>
      </g>
     </g>
     <g id="text_5">
      <!-- 0.4 -->
      <g transform="translate(398.405228 698.598438)scale(0.1 -0.1)">
       <use xlink:href="#DejaVuSans-48"/>
       <use x="63.623047" xlink:href="#DejaVuSans-46"/>
       <use x="95.410156" xlink:href="#DejaVuSans-52"/>
      </g>
     </g>
    </g>
    <g id="text_6">
     <!-- m -->
     <defs>
      <path d="M 52 44.1875 
Q 55.375 50.25 60.0625 53.125 
Q 64.75 56 71.09375 56 
Q 79.640625 56 84.28125 50.015625 
Q 88.921875 44.046875 88.921875 33.015625 
L 88.921875 0 
L 79.890625 0 
L 79.890625 32.71875 
Q 79.890625 40.578125 77.09375 44.375 
Q 74.3125 48.1875 68.609375 48.1875 
Q 61.625 48.1875 57.5625 43.546875 
Q 53.515625 38.921875 53.515625 30.90625 
L 53.515625 0 
L 44.484375 0 
L 44.484375 32.71875 
Q 44.484375 40.625 41.703125 44.40625 
Q 38.921875 48.1875 33.109375 48.1875 
Q 26.21875 48.1875 22.15625 43.53125 
Q 18.109375 38.875 18.109375 30.90625 
L 18.109375 0 
L 9.078125 0 
L 9.078125 54.6875 
L 18.109375 54.6875 
L 18.109375 46.1875 
Q 21.1875 51.21875 25.484375 53.609375 
Q 29.78125 56 35.6875 56 
Q 41.65625 56 45.828125 52.96875 
Q 50 49.953125 52 44.1875 
z
" id="DejaVuSans-109"/>
     </defs>
     <g transform="translate(252.169687 712.276562)scale(0.1 -0.1)">
      <use xlink:href="#DejaVuSans-109"/>
     </g>
    </g>
   </g>
   <g id="matplotlib.axis_2">
    <g id="ytick_1">
     <g id="line2d_11">
      <path clip-path="url(#pe8e3e7c49e)" d="M 66.432603 641.898032 
L 447.647397 641.898032 
" style="fill:none;stroke:#b0b0b0;stroke-linecap:square;stroke-width:0.8;"/>
     </g>
     <g id="line2d_12">
      <defs>
       <path d="M 0 0 
L -3.5 0 
" id="m57cf8c6531" style="stroke:#000000;stroke-width:0.8;"/>
      </defs>
      <g>
       <use style="stroke:#000000;stroke-width:0.8;" x="66.432603" xlink:href="#m57cf8c6531" y="641.898032"/>
      </g>
     </g>
     <g id="text_7">
      <!-- −1.2 -->
      <defs>
       <path d="M 12.40625 8.296875 
L 28.515625 8.296875 
L 28.515625 63.921875 
L 10.984375 60.40625 
L 10.984375 69.390625 
L 28.421875 72.90625 
L 38.28125 72.90625 
L 38.28125 8.296875 
L 54.390625 8.296875 
L 54.390625 0 
L 12.40625 0 
z
" id="DejaVuSans-49"/>
      </defs>
      <g transform="translate(35.14979 645.69725)scale(0.1 -0.1)">
       <use xlink:href="#DejaVuSans-8722"/>
       <use x="83.789062" xlink:href="#DejaVuSans-49"/>
       <use x="147.412109" xlink:href="#DejaVuSans-46"/>
       <use x="179.199219" xlink:href="#DejaVuSans-50"/>
      </g>
     </g>
    </g>
    <g id="ytick_2">
     <g id="line2d_13">
      <path clip-path="url(#pe8e3e7c49e)" d="M 66.432603 567.239636 
L 447.647397 567.239636 
" style="fill:none;stroke:#b0b0b0;stroke-linecap:square;stroke-width:0.8;"/>
     </g>
     <g id="line2d_14">
      <g>
       <use style="stroke:#000000;stroke-width:0.8;" x="66.432603" xlink:href="#m57cf8c6531" y="567.239636"/>
      </g>
     </g>
     <g id="text_8">
      <!-- −1.0 -->
      <g transform="translate(35.14979 571.038855)scale(0.1 -0.1)">
       <use xlink:href="#DejaVuSans-8722"/>
       <use x="83.789062" xlink:href="#DejaVuSans-49"/>
       <use x="147.412109" xlink:href="#DejaVuSans-46"/>
       <use x="179.199219" xlink:href="#DejaVuSans-48"/>
      </g>
     </g>
    </g>
    <g id="ytick_3">
     <g id="line2d_15">
      <path clip-path="url(#pe8e3e7c49e)" d="M 66.432603 492.581241 
L 447.647397 492.581241 
" style="fill:none;stroke:#b0b0b0;stroke-linecap:square;stroke-width:0.8;"/>
     </g>
     <g id="line2d_16">
      <g>
       <use style="stroke:#000000;stroke-width:0.8;" x="66.432603" xlink:href="#m57cf8c6531" y="492.581241"/>
      </g>
     </g>
     <g id="text_9">
      <!-- −0.8 -->
      <defs>
       <path d="M 31.78125 34.625 
Q 24.75 34.625 20.71875 30.859375 
Q 16.703125 27.09375 16.703125 20.515625 
Q 16.703125 13.921875 20.71875 10.15625 
Q 24.75 6.390625 31.78125 6.390625 
Q 38.8125 6.390625 42.859375 10.171875 
Q 46.921875 13.96875 46.921875 20.515625 
Q 46.921875 27.09375 42.890625 30.859375 
Q 38.875 34.625 31.78125 34.625 
z
M 21.921875 38.8125 
Q 15.578125 40.375 12.03125 44.71875 
Q 8.5 49.078125 8.5 55.328125 
Q 8.5 64.0625 14.71875 69.140625 
Q 20.953125 74.21875 31.78125 74.21875 
Q 42.671875 74.21875 48.875 69.140625 
Q 55.078125 64.0625 55.078125 55.328125 
Q 55.078125 49.078125 51.53125 44.71875 
Q 48 40.375 41.703125 38.8125 
Q 48.828125 37.15625 52.796875 32.3125 
Q 56.78125 27.484375 56.78125 20.515625 
Q 56.78125 9.90625 50.3125 4.234375 
Q 43.84375 -1.421875 31.78125 -1.421875 
Q 19.734375 -1.421875 13.25 4.234375 
Q 6.78125 9.90625 6.78125 20.515625 
Q 6.78125 27.484375 10.78125 32.3125 
Q 14.796875 37.15625 21.921875 38.8125 
z
M 18.3125 54.390625 
Q 18.3125 48.734375 21.84375 45.5625 
Q 25.390625 42.390625 31.78125 42.390625 
Q 38.140625 42.390625 41.71875 45.5625 
Q 45.3125 48.734375 45.3125 54.390625 
Q 45.3125 60.0625 41.71875 63.234375 
Q 38.140625 66.40625 31.78125 66.40625 
Q 25.390625 66.40625 21.84375 63.234375 
Q 18.3125 60.0625 18.3125 54.390625 
z
" id="DejaVuSans-56"/>
      </defs>
      <g transform="translate(35.14979 496.38046)scale(0.1 -0.1)">
       <use xlink:href="#DejaVuSans-8722"/>
       <use x="83.789062" xlink:href="#DejaVuSans-48"/>
       <use x="147.412109" xlink:href="#DejaVuSans-46"/>
       <use x="179.199219" xlink:href="#DejaVuSans-56"/>
      </g>
     </g>
    </g>
    <g id="ytick_4">
     <g id="line2d_17">
      <path clip-path="url(#pe8e3e7c49e)" d="M 66.432603 417.922846 
L 447.647397 417.922846 
" style="fill:none;stroke:#b0b0b0;stroke-linecap:square;stroke-width:0.8;"/>
     </g>
     <g id="line2d_18">
      <g>
       <use style="stroke:#000000;stroke-width:0.8;" x="66.432603" xlink:href="#m57cf8c6531" y="417.922846"/>
      </g>
     </g>
     <g id="text_10">
      <!-- −0.6 -->
      <defs>
       <path d="M 33.015625 40.375 
Q 26.375 40.375 22.484375 35.828125 
Q 18.609375 31.296875 18.609375 23.390625 
Q 18.609375 15.53125 22.484375 10.953125 
Q 26.375 6.390625 33.015625 6.390625 
Q 39.65625 6.390625 43.53125 10.953125 
Q 47.40625 15.53125 47.40625 23.390625 
Q 47.40625 31.296875 43.53125 35.828125 
Q 39.65625 40.375 33.015625 40.375 
z
M 52.59375 71.296875 
L 52.59375 62.3125 
Q 48.875 64.0625 45.09375 64.984375 
Q 41.3125 65.921875 37.59375 65.921875 
Q 27.828125 65.921875 22.671875 59.328125 
Q 17.53125 52.734375 16.796875 39.40625 
Q 19.671875 43.65625 24.015625 45.921875 
Q 28.375 48.1875 33.59375 48.1875 
Q 44.578125 48.1875 50.953125 41.515625 
Q 57.328125 34.859375 57.328125 23.390625 
Q 57.328125 12.15625 50.6875 5.359375 
Q 44.046875 -1.421875 33.015625 -1.421875 
Q 20.359375 -1.421875 13.671875 8.265625 
Q 6.984375 17.96875 6.984375 36.375 
Q 6.984375 53.65625 15.1875 63.9375 
Q 23.390625 74.21875 37.203125 74.21875 
Q 40.921875 74.21875 44.703125 73.484375 
Q 48.484375 72.75 52.59375 71.296875 
z
" id="DejaVuSans-54"/>
      </defs>
      <g transform="translate(35.14979 421.722065)scale(0.1 -0.1)">
       <use xlink:href="#DejaVuSans-8722"/>
       <use x="83.789062" xlink:href="#DejaVuSans-48"/>
       <use x="147.412109" xlink:href="#DejaVuSans-46"/>
       <use x="179.199219" xlink:href="#DejaVuSans-54"/>
      </g>
     </g>
    </g>
    <g id="ytick_5">
     <g id="line2d_19">
      <path clip-path="url(#pe8e3e7c49e)" d="M 66.432603 343.264451 
L 447.647397 343.264451 
" style="fill:none;stroke:#b0b0b0;stroke-linecap:square;stroke-width:0.8;"/>
     </g>
     <g id="line2d_20">
      <g>
       <use style="stroke:#000000;stroke-width:0.8;" x="66.432603" xlink:href="#m57cf8c6531" y="343.264451"/>
      </g>
     </g>
     <g id="text_11">
      <!-- −0.4 -->
      <g transform="translate(35.14979 347.06367)scale(0.1 -0.1)">
       <use xlink:href="#DejaVuSans-8722"/>
       <use x="83.789062" xlink:href="#DejaVuSans-48"/>
       <use x="147.412109" xlink:href="#DejaVuSans-46"/>
       <use x="179.199219" xlink:href="#DejaVuSans-52"/>
      </g>
     </g>
    </g>
    <g id="ytick_6">
     <g id="line2d_21">
      <path clip-path="url(#pe8e3e7c49e)" d="M 66.432603 268.606056 
L 447.647397 268.606056 
" style="fill:none;stroke:#b0b0b0;stroke-linecap:square;stroke-width:0.8;"/>
     </g>
     <g id="line2d_22">
      <g>
       <use style="stroke:#000000;stroke-width:0.8;" x="66.432603" xlink:href="#m57cf8c6531" y="268.606056"/>
      </g>
     </g>
     <g id="text_12">
      <!-- −0.2 -->
      <g transform="translate(35.14979 272.405274)scale(0.1 -0.1)">
       <use xlink:href="#DejaVuSans-8722"/>
       <use x="83.789062" xlink:href="#DejaVuSans-48"/>
       <use x="147.412109" xlink:href="#DejaVuSans-46"/>
       <use x="179.199219" xlink:href="#DejaVuSans-50"/>
      </g>
     </g>
    </g>
    <g id="ytick_7">
     <g id="line2d_23">
      <path clip-path="url(#pe8e3e7c49e)" d="M 66.432603 193.94766 
L 447.647397 193.94766 
" style="fill:none;stroke:#b0b0b0;stroke-linecap:square;stroke-width:0.8;"/>
     </g>
     <g id="line2d_24">
      <g>
       <use style="stroke:#000000;stroke-width:0.8;" x="66.432603" xlink:href="#m57cf8c6531" y="193.94766"/>
      </g>
     </g>
     <g id="text_13">
      <!-- 0.0 -->
      <g transform="translate(43.529478 197.746879)scale(0.1 -0.1)">
       <use xlink:href="#DejaVuSans-48"/>
       <use x="63.623047" xlink:href="#DejaVuSans-46"/>
       <use x="95.410156" xlink:href="#DejaVuSans-48"/>
      </g>
     </g>
    </g>
    <g id="ytick_8">
     <g id="line2d_25">
      <path clip-path="url(#pe8e3e7c49e)" d="M 66.432603 119.289265 
L 447.647397 119.289265 
" style="fill:none;stroke:#b0b0b0;stroke-linecap:square;stroke-width:0.8;"/>
     </g>
     <g id="line2d_26">
      <g>
       <use style="stroke:#000000;stroke-width:0.8;" x="66.432603" xlink:href="#m57cf8c6531" y="119.289265"/>
      </g>
     </g>
     <g id="text_14">
      <!-- 0.2 -->
      <g transform="translate(43.529478 123.088484)scale(0.1 -0.1)">
       <use xlink:href="#DejaVuSans-48"/>
       <use x="63.623047" xlink:href="#DejaVuSans-46"/>
       <use x="95.410156" xlink:href="#DejaVuSans-50"/>
      </g>
     </g>
    </g>
    <g id="ytick_9">
     <g id="line2d_27">
      <path clip-path="url(#pe8e3e7c49e)" d="M 66.432603 44.63087 
L 447.647397 44.63087 
" style="fill:none;stroke:#b0b0b0;stroke-linecap:square;stroke-width:0.8;"/>
     </g>
     <g id="line2d_28">
      <g>
       <use style="stroke:#000000;stroke-width:0.8;" x="66.432603" xlink:href="#m57cf8c6531" y="44.63087"/>
      </g>
     </g>
     <g id="text_15">
      <!-- 0.4 -->
      <g transform="translate(43.529478 48.430089)scale(0.1 -0.1)">
       <use xlink:href="#DejaVuSans-48"/>
       <use x="63.623047" xlink:href="#DejaVuSans-46"/>
       <use x="95.410156" xlink:href="#DejaVuSans-52"/>
      </g>
     </g>
    </g>
    <g id="text_16">
     <!-- m -->
     <g transform="translate(29.070103 364.870313)rotate(-90)scale(0.1 -0.1)">
      <use xlink:href="#DejaVuSans-109"/>
     </g>
    </g>
   </g>
   <g id="line2d_29">
    <path clip-path="url(#pe8e3e7c49e)" d="M 290.615007 158.780865 
L 223.464993 158.780865 
" style="fill:none;stroke:#ffa500;stroke-dasharray:5.55,2.4;stroke-dashoffset:0;stroke-width:1.5;"/>
   </g>
   <g id="line2d_30">
    <path clip-path="url(#pe8e3e7c49e)" d="M 276.048443 193.94766 
L 238.031557 193.94766 
" style="fill:none;stroke:#808080;stroke-dasharray:5.55,2.4;stroke-dashoffset:0;stroke-width:1.5;"/>
   </g>
   <g id="line2d_31">
    <path clip-path="url(#pe8e3e7c49e)" d="M 257.04 65.454545 
L 290.615007 65.454545 
L 290.615007 158.780865 
" style="fill:none;stroke:#000000;stroke-linecap:square;stroke-width:1.5;"/>
   </g>
   <g id="line2d_32">
    <path clip-path="url(#pe8e3e7c49e)" d="M 257.04 65.454545 
L 223.464993 65.454545 
L 223.464993 158.780865 
" style="fill:none;stroke:#000000;stroke-linecap:square;stroke-width:1.5;"/>
   </g>
   <g id="line2d_33">
    <path clip-path="url(#pe8e3e7c49e)" d="M 284.39961 173.786162 
L 284.638185 173.543732 
L 284.872844 173.297509 
L 285.103526 173.047556 
L 285.330172 172.793939 
L 285.552725 172.536721 
L 285.771126 172.27597 
L 285.98532 172.011751 
L 286.195251 171.744134 
L 286.400866 171.473186 
L 286.602112 171.198977 
L 286.798938 170.921578 
L 286.991291 170.641059 
L 287.179124 170.357494 
L 287.362388 170.070955 
L 287.541036 169.781515 
L 287.715022 169.489249 
L 287.884301 169.194232 
L 288.048829 168.89654 
L 288.208566 168.596248 
L 288.363468 168.293436 
L 288.513498 167.988179 
L 288.658615 167.680557 
L 288.798784 167.370648 
L 288.933967 167.058533 
L 289.06413 166.744291 
L 289.18924 166.428003 
L 289.309264 166.109751 
L 289.424172 165.789616 
L 289.533935 165.46768 
L 289.638523 165.144026 
L 289.73791 164.818738 
L 289.832071 164.491898 
L 289.920981 164.163591 
L 290.004618 163.833901 
L 290.08296 163.502913 
L 290.155987 163.170712 
L 290.22368 162.837384 
L 290.286021 162.503013 
L 290.342996 162.167685 
L 290.394588 161.831488 
L 290.440786 161.494507 
L 290.481576 161.156829 
L 290.516949 160.81854 
L 290.546895 160.479728 
L 290.571407 160.140479 
L 290.590478 159.800881 
L 290.604104 159.461021 
L 290.612281 159.120987 
L 290.615007 158.780865 
" style="fill:none;stroke:#000000;stroke-linecap:square;stroke-width:1.5;"/>
   </g>
   <g id="line2d_34">
    <path clip-path="url(#pe8e3e7c49e)" d="M 229.68039 173.786162 
L 229.441815 173.543732 
L 229.207156 173.297509 
L 228.976474 173.047556 
L 228.749828 172.793939 
L 228.527275 172.536721 
L 228.308874 172.27597 
L 228.09468 172.011751 
L 227.884749 171.744134 
L 227.679134 171.473186 
L 227.477888 171.198977 
L 227.281062 170.921578 
L 227.088709 170.641059 
L 226.900876 170.357494 
L 226.717612 170.070955 
L 226.538964 169.781515 
L 226.364978 169.489249 
L 226.195699 169.194232 
L 226.031171 168.89654 
L 225.871434 168.596248 
L 225.716532 168.293436 
L 225.566502 167.988179 
L 225.421385 167.680557 
L 225.281216 167.370648 
L 225.146033 167.058533 
L 225.01587 166.744291 
L 224.89076 166.428003 
L 224.770736 166.109751 
L 224.655828 165.789616 
L 224.546065 165.46768 
L 224.441477 165.144026 
L 224.34209 164.818738 
L 224.247929 164.491898 
L 224.159019 164.163591 
L 224.075382 163.833901 
L 223.99704 163.502913 
L 223.924013 163.170712 
L 223.85632 162.837384 
L 223.793979 162.503013 
L 223.737004 162.167685 
L 223.685412 161.831488 
L 223.639214 161.494507 
L 223.598424 161.156829 
L 223.563051 160.81854 
L 223.533105 160.479728 
L 223.508593 160.140479 
L 223.489522 159.800881 
L 223.475896 159.461021 
L 223.467719 159.120987 
L 223.464993 158.780865 
" style="fill:none;stroke:#000000;stroke-linecap:square;stroke-width:1.5;"/>
   </g>
   <g id="line2d_35">
    <path clip-path="url(#pe8e3e7c49e)" d="M 284.39961 173.786162 
L 283.583659 174.636558 
L 282.803548 175.519947 
L 282.060609 176.434819 
L 281.356113 177.379612 
L 280.691261 178.352711 
L 280.067191 179.352454 
L 279.484968 180.377132 
L 278.945587 181.424995 
L 278.44997 182.494253 
L 277.998964 183.583079 
L 277.593338 184.689613 
L 277.233787 185.811964 
L 276.920923 186.948215 
L 276.655283 188.096424 
L 276.437319 189.25463 
L 276.267404 190.420854 
L 276.145829 191.593103 
L 276.0728 192.769375 
L 276.048443 193.94766 
" style="fill:none;stroke:#000000;stroke-linecap:square;stroke-width:1.5;"/>
   </g>
   <g id="line2d_36">
    <path clip-path="url(#pe8e3e7c49e)" d="M 229.68039 173.786162 
L 230.496341 174.636558 
L 231.276452 175.519947 
L 232.019391 176.434819 
L 232.723887 177.379612 
L 233.388739 178.352711 
L 234.012809 179.352454 
L 234.595032 180.377132 
L 235.134413 181.424995 
L 235.63003 182.494253 
L 236.081036 183.583079 
L 236.486662 184.689613 
L 236.846213 185.811964 
L 237.159077 186.948215 
L 237.424717 188.096424 
L 237.642681 189.25463 
L 237.812596 190.420854 
L 237.934171 191.593103 
L 238.0072 192.769375 
L 238.031557 193.94766 
" style="fill:none;stroke:#000000;stroke-linecap:square;stroke-width:1.5;"/>
   </g>
   <g id="line2d_37">
    <path clip-path="url(#pe8e3e7c49e)" d="M 276.048443 193.94766 
L 276.048859 194.02531 
L 276.050104 194.10295 
L 276.05218 194.180572 
L 276.055085 194.258168 
L 276.058821 194.335729 
L 276.063385 194.413245 
L 276.068778 194.490708 
L 276.075 194.568108 
L 276.082048 194.645438 
L 276.089923 194.722688 
L 276.098624 194.799849 
L 276.108149 194.876913 
L 276.118498 194.953871 
L 276.129669 195.030713 
L 276.141662 195.107432 
L 276.154474 195.184018 
L 276.168104 195.260462 
L 276.182551 195.336757 
L 276.197813 195.412892 
L 276.213889 195.488861 
L 276.230775 195.564652 
L 276.248472 195.640259 
L 276.266976 195.715673 
L 276.286285 195.790884 
L 276.306397 195.865884 
L 276.327311 195.940665 
L 276.349022 196.015218 
L 276.37153 196.089535 
L 276.394831 196.163607 
L 276.418923 196.237425 
L 276.443803 196.310981 
L 276.469469 196.384268 
L 276.495916 196.457275 
L 276.523143 196.529996 
L 276.551145 196.602421 
L 276.579921 196.674543 
L 276.609466 196.746352 
L 276.639777 196.817842 
L 276.670852 196.889004 
L 276.702685 196.959829 
L 276.735274 197.03031 
L 276.768615 197.100438 
L 276.802703 197.170205 
L 276.837536 197.239605 
L 276.873109 197.308627 
L 276.909419 197.377265 
L 276.94646 197.445512 
L 276.984228 197.513358 
L 277.02272 197.580796 
" style="fill:none;stroke:#000000;stroke-linecap:square;stroke-width:1.5;"/>
   </g>
   <g id="line2d_38">
    <path clip-path="url(#pe8e3e7c49e)" d="M 238.031557 193.94766 
L 238.031141 194.02531 
L 238.029896 194.10295 
L 238.02782 194.180572 
L 238.024915 194.258168 
L 238.021179 194.335729 
L 238.016615 194.413245 
L 238.011222 194.490708 
L 238.005 194.568108 
L 237.997952 194.645438 
L 237.990077 194.722688 
L 237.981376 194.799849 
L 237.971851 194.876913 
L 237.961502 194.953871 
L 237.950331 195.030713 
L 237.938338 195.107432 
L 237.925526 195.184018 
L 237.911896 195.260462 
L 237.897449 195.336757 
L 237.882187 195.412892 
L 237.866111 195.488861 
L 237.849225 195.564652 
L 237.831528 195.640259 
L 237.813024 195.715673 
L 237.793715 195.790884 
L 237.773603 195.865884 
L 237.752689 195.940665 
L 237.730978 196.015218 
L 237.70847 196.089535 
L 237.685169 196.163607 
L 237.661077 196.237425 
L 237.636197 196.310981 
L 237.610531 196.384268 
L 237.584084 196.457275 
L 237.556857 196.529996 
L 237.528855 196.602421 
L 237.500079 196.674543 
L 237.470534 196.746352 
L 237.440223 196.817842 
L 237.409148 196.889004 
L 237.377315 196.959829 
L 237.344726 197.03031 
L 237.311385 197.100438 
L 237.277297 197.170205 
L 237.242464 197.239605 
L 237.206891 197.308627 
L 237.170581 197.377265 
L 237.13354 197.445512 
L 237.095772 197.513358 
L 237.05728 197.580796 
" style="fill:none;stroke:#000000;stroke-linecap:square;stroke-width:1.5;"/>
   </g>
   <g id="line2d_39">
    <path clip-path="url(#pe8e3e7c49e)" d="M 277.02272 197.580796 
L 281.907816 206.114034 
L 286.71972 214.680296 
L 291.458433 223.279581 
L 296.123955 231.911891 
L 300.716286 240.577224 
L 305.235425 249.275581 
L 309.681373 258.006962 
L 314.05413 266.771366 
L 318.353695 275.568795 
L 322.580069 284.399247 
L 326.733252 293.262723 
L 330.813243 302.159223 
L 334.820043 311.088747 
L 338.753652 320.051294 
L 342.61407 329.046865 
L 346.401296 338.07546 
L 350.115331 347.137079 
L 353.756175 356.231722 
L 357.323828 365.359389 
L 360.818289 374.520079 
L 364.239559 383.713793 
L 367.587637 392.940531 
L 370.862524 402.200293 
L 374.06422 411.493078 
L 377.192725 420.818888 
L 380.248039 430.177721 
L 383.230161 439.569578 
L 386.139092 448.994459 
L 388.974831 458.452363 
L 391.73738 467.943292 
L 394.426737 477.467244 
L 397.042902 487.02422 
L 399.585877 496.61422 
L 402.05566 506.237243 
L 404.452252 515.893291 
L 406.775652 525.582362 
L 409.025861 535.304457 
L 411.202879 545.059576 
L 413.306706 554.847718 
L 415.337342 564.668885 
L 417.294786 574.523075 
L 419.179038 584.410289 
L 420.9901 594.330527 
L 422.72797 604.283789 
L 424.392649 614.270074 
L 425.984137 624.289384 
L 427.502433 634.341717 
L 428.947538 644.427074 
L 430.319452 654.545455 
" style="fill:none;stroke:#000000;stroke-linecap:square;stroke-width:1.5;"/>
   </g>
   <g id="line2d_40">
    <path clip-path="url(#pe8e3e7c49e)" d="M 237.05728 197.580796 
L 232.172184 206.114034 
L 227.36028 214.680296 
L 222.621567 223.279581 
L 217.956045 231.911891 
L 213.363714 240.577224 
L 208.844575 249.275581 
L 204.398627 258.006962 
L 200.02587 266.771366 
L 195.726305 275.568795 
L 191.499931 284.399247 
L 187.346748 293.262723 
L 183.266757 302.159223 
L 179.259957 311.088747 
L 175.326348 320.051294 
L 171.46593 329.046865 
L 167.678704 338.07546 
L 163.964669 347.137079 
L 160.323825 356.231722 
L 156.756172 365.359389 
L 153.261711 374.520079 
L 149.840441 383.713793 
L 146.492363 392.940531 
L 143.217476 402.200293 
L 140.01578 411.493078 
L 136.887275 420.818888 
L 133.831961 430.177721 
L 130.849839 439.569578 
L 127.940908 448.994459 
L 125.105169 458.452363 
L 122.34262 467.943292 
L 119.653263 477.467244 
L 117.037098 487.02422 
L 114.494123 496.61422 
L 112.02434 506.237243 
L 109.627748 515.893291 
L 107.304348 525.582362 
L 105.054139 535.304457 
L 102.877121 545.059576 
L 100.773294 554.847718 
L 98.742658 564.668885 
L 96.785214 574.523075 
L 94.900962 584.410289 
L 93.0899 594.330527 
L 91.35203 604.283789 
L 89.687351 614.270074 
L 88.095863 624.289384 
L 86.577567 634.341717 
L 85.132462 644.427074 
L 83.760548 654.545455 
" style="fill:none;stroke:#000000;stroke-linecap:square;stroke-width:1.5;"/>
   </g>
   <g id="patch_3">
    <path d="M 66.432603 684 
L 66.432603 36 
" style="fill:none;stroke:#000000;stroke-linecap:square;stroke-linejoin:miter;stroke-width:0.8;"/>
   </g>
   <g id="patch_4">
    <path d="M 447.647397 684 
L 447.647397 36 
" style="fill:none;stroke:#000000;stroke-linecap:square;stroke-linejoin:miter;stroke-width:0.8;"/>
   </g>
   <g id="patch_5">
    <path d="M 66.432603 684 
L 447.647397 684 
" style="fill:none;stroke:#000000;stroke-linecap:square;stroke-linejoin:miter;stroke-width:0.8;"/>
   </g>
   <g id="patch_6">
    <path d="M 66.432603 36 
L 447.647397 36 
" style="fill:none;stroke:#000000;stroke-linecap:square;stroke-linejoin:miter;stroke-width:0.8;"/>
   </g>
  </g>
 </g>
 <defs>
  <clipPath id="pe8e3e7c49e">
   <rect height="648" width="381.214795" x="66.432603" y="36"/>
  </clipPath>
 </defs>
</svg>
