<?xml version="1.0" encoding="utf-8" standalone="no"?>
<!DOCTYPE svg PUBLIC "-//W3C//DTD SVG 1.1//EN"
  "http://www.w3.org/Graphics/SVG/1.1/DTD/svg11.dtd">
<!-- Created with matplotlib (https://matplotlib.org/) -->
<svg height="720pt" version="1.1" viewBox="0 0 504 720" width="504pt" xmlns="http://www.w3.org/2000/svg" xmlns:xlink="http://www.w3.org/1999/xlink">
 <defs>
  <style type="text/css">
*{stroke-linecap:butt;stroke-linejoin:round;}
  </style>
 </defs>
 <g id="figure_1">
  <g id="patch_1">
   <path d="M 0 720 
L 504 720 
L 504 0 
L 0 0 
z
" style="fill:#ffffff;"/>
  </g>
  <g id="axes_1">
   <g id="patch_2">
    <path d="M 44.258426 684 
L 469.821574 684 
L 469.821574 36 
L 44.258426 36 
z
" style="fill:#ffffff;"/>
   </g>
   <g id="matplotlib.axis_1">
    <g id="xtick_1">
     <g id="line2d_1">
      <path clip-path="url(#p31055f901e)" d="M 46.186241 684 
L 46.186241 36 
" style="fill:none;stroke:#b0b0b0;stroke-linecap:square;stroke-width:0.8;"/>
     </g>
     <g id="line2d_2">
      <defs>
       <path d="M 0 0 
L 0 3.5 
" id="m0e5b8dc618" style="stroke:#000000;stroke-width:0.8;"/>
      </defs>
      <g>
       <use style="stroke:#000000;stroke-width:0.8;" x="46.186241" xlink:href="#m0e5b8dc618" y="684"/>
      </g>
     </g>
     <g id="text_1">
      <!-- −1.00 -->
      <defs>
       <path d="M 10.59375 35.5 
L 73.1875 35.5 
L 73.1875 27.203125 
L 10.59375 27.203125 
z
" id="DejaVuSans-8722"/>
       <path d="M 12.40625 8.296875 
L 28.515625 8.296875 
L 28.515625 63.921875 
L 10.984375 60.40625 
L 10.984375 69.390625 
L 28.421875 72.90625 
L 38.28125 72.90625 
L 38.28125 8.296875 
L 54.390625 8.296875 
L 54.390625 0 
L 12.40625 0 
z
" id="DejaVuSans-49"/>
       <path d="M 10.6875 12.40625 
L 21 12.40625 
L 21 0 
L 10.6875 0 
z
" id="DejaVuSans-46"/>
       <path d="M 31.78125 66.40625 
Q 24.171875 66.40625 20.328125 58.90625 
Q 16.5 51.421875 16.5 36.375 
Q 16.5 21.390625 20.328125 13.890625 
Q 24.171875 6.390625 31.78125 6.390625 
Q 39.453125 6.390625 43.28125 13.890625 
Q 47.125 21.390625 47.125 36.375 
Q 47.125 51.421875 43.28125 58.90625 
Q 39.453125 66.40625 31.78125 66.40625 
z
M 31.78125 74.21875 
Q 44.046875 74.21875 50.515625 64.515625 
Q 56.984375 54.828125 56.984375 36.375 
Q 56.984375 17.96875 50.515625 8.265625 
Q 44.046875 -1.421875 31.78125 -1.421875 
Q 19.53125 -1.421875 13.0625 8.265625 
Q 6.59375 17.96875 6.59375 36.375 
Q 6.59375 54.828125 13.0625 64.515625 
Q 19.53125 74.21875 31.78125 74.21875 
z
" id="DejaVuSans-48"/>
      </defs>
      <g transform="translate(30.863584 698.598438)scale(0.1 -0.1)">
       <use xlink:href="#DejaVuSans-8722"/>
       <use x="83.789062" xlink:href="#DejaVuSans-49"/>
       <use x="147.412109" xlink:href="#DejaVuSans-46"/>
       <use x="179.199219" xlink:href="#DejaVuSans-48"/>
       <use x="242.822266" xlink:href="#DejaVuSans-48"/>
      </g>
     </g>
    </g>
    <g id="xtick_2">
     <g id="line2d_3">
      <path clip-path="url(#p31055f901e)" d="M 98.89968 684 
L 98.89968 36 
" style="fill:none;stroke:#b0b0b0;stroke-linecap:square;stroke-width:0.8;"/>
     </g>
     <g id="line2d_4">
      <g>
       <use style="stroke:#000000;stroke-width:0.8;" x="98.89968" xlink:href="#m0e5b8dc618" y="684"/>
      </g>
     </g>
     <g id="text_2">
      <!-- −0.75 -->
      <defs>
       <path d="M 8.203125 72.90625 
L 55.078125 72.90625 
L 55.078125 68.703125 
L 28.609375 0 
L 18.3125 0 
L 43.21875 64.59375 
L 8.203125 64.59375 
z
" id="DejaVuSans-55"/>
       <path d="M 10.796875 72.90625 
L 49.515625 72.90625 
L 49.515625 64.59375 
L 19.828125 64.59375 
L 19.828125 46.734375 
Q 21.96875 47.46875 24.109375 47.828125 
Q 26.265625 48.1875 28.421875 48.1875 
Q 40.625 48.1875 47.75 41.5 
Q 54.890625 34.8125 54.890625 23.390625 
Q 54.890625 11.625 47.5625 5.09375 
Q 40.234375 -1.421875 26.90625 -1.421875 
Q 22.3125 -1.421875 17.546875 -0.640625 
Q 12.796875 0.140625 7.71875 1.703125 
L 7.71875 11.625 
Q 12.109375 9.234375 16.796875 8.0625 
Q 21.484375 6.890625 26.703125 6.890625 
Q 35.15625 6.890625 40.078125 11.328125 
Q 45.015625 15.765625 45.015625 23.390625 
Q 45.015625 31 40.078125 35.4375 
Q 35.15625 39.890625 26.703125 39.890625 
Q 22.75 39.890625 18.8125 39.015625 
Q 14.890625 38.140625 10.796875 36.28125 
z
" id="DejaVuSans-53"/>
      </defs>
      <g transform="translate(83.577024 698.598438)scale(0.1 -0.1)">
       <use xlink:href="#DejaVuSans-8722"/>
       <use x="83.789062" xlink:href="#DejaVuSans-48"/>
       <use x="147.412109" xlink:href="#DejaVuSans-46"/>
       <use x="179.199219" xlink:href="#DejaVuSans-55"/>
       <use x="242.822266" xlink:href="#DejaVuSans-53"/>
      </g>
     </g>
    </g>
    <g id="xtick_3">
     <g id="line2d_5">
      <path clip-path="url(#p31055f901e)" d="M 151.61312 684 
L 151.61312 36 
" style="fill:none;stroke:#b0b0b0;stroke-linecap:square;stroke-width:0.8;"/>
     </g>
     <g id="line2d_6">
      <g>
       <use style="stroke:#000000;stroke-width:0.8;" x="151.61312" xlink:href="#m0e5b8dc618" y="684"/>
      </g>
     </g>
     <g id="text_3">
      <!-- −0.50 -->
      <g transform="translate(136.290464 698.598438)scale(0.1 -0.1)">
       <use xlink:href="#DejaVuSans-8722"/>
       <use x="83.789062" xlink:href="#DejaVuSans-48"/>
       <use x="147.412109" xlink:href="#DejaVuSans-46"/>
       <use x="179.199219" xlink:href="#DejaVuSans-53"/>
       <use x="242.822266" xlink:href="#DejaVuSans-48"/>
      </g>
     </g>
    </g>
    <g id="xtick_4">
     <g id="line2d_7">
      <path clip-path="url(#p31055f901e)" d="M 204.32656 684 
L 204.32656 36 
" style="fill:none;stroke:#b0b0b0;stroke-linecap:square;stroke-width:0.8;"/>
     </g>
     <g id="line2d_8">
      <g>
       <use style="stroke:#000000;stroke-width:0.8;" x="204.32656" xlink:href="#m0e5b8dc618" y="684"/>
      </g>
     </g>
     <g id="text_4">
      <!-- −0.25 -->
      <defs>
       <path d="M 19.1875 8.296875 
L 53.609375 8.296875 
L 53.609375 0 
L 7.328125 0 
L 7.328125 8.296875 
Q 12.9375 14.109375 22.625 23.890625 
Q 32.328125 33.6875 34.8125 36.53125 
Q 39.546875 41.84375 41.421875 45.53125 
Q 43.3125 49.21875 43.3125 52.78125 
Q 43.3125 58.59375 39.234375 62.25 
Q 35.15625 65.921875 28.609375 65.921875 
Q 23.96875 65.921875 18.8125 64.3125 
Q 13.671875 62.703125 7.8125 59.421875 
L 7.8125 69.390625 
Q 13.765625 71.78125 18.9375 73 
Q 24.125 74.21875 28.421875 74.21875 
Q 39.75 74.21875 46.484375 68.546875 
Q 53.21875 62.890625 53.21875 53.421875 
Q 53.21875 48.921875 51.53125 44.890625 
Q 49.859375 40.875 45.40625 35.40625 
Q 44.1875 33.984375 37.640625 27.21875 
Q 31.109375 20.453125 19.1875 8.296875 
z
" id="DejaVuSans-50"/>
      </defs>
      <g transform="translate(189.003904 698.598438)scale(0.1 -0.1)">
       <use xlink:href="#DejaVuSans-8722"/>
       <use x="83.789062" xlink:href="#DejaVuSans-48"/>
       <use x="147.412109" xlink:href="#DejaVuSans-46"/>
       <use x="179.199219" xlink:href="#DejaVuSans-50"/>
       <use x="242.822266" xlink:href="#DejaVuSans-53"/>
      </g>
     </g>
    </g>
    <g id="xtick_5">
     <g id="line2d_9">
      <path clip-path="url(#p31055f901e)" d="M 257.04 684 
L 257.04 36 
" style="fill:none;stroke:#b0b0b0;stroke-linecap:square;stroke-width:0.8;"/>
     </g>
     <g id="line2d_10">
      <g>
       <use style="stroke:#000000;stroke-width:0.8;" x="257.04" xlink:href="#m0e5b8dc618" y="684"/>
      </g>
     </g>
     <g id="text_5">
      <!-- 0.00 -->
      <g transform="translate(245.907187 698.598438)scale(0.1 -0.1)">
       <use xlink:href="#DejaVuSans-48"/>
       <use x="63.623047" xlink:href="#DejaVuSans-46"/>
       <use x="95.410156" xlink:href="#DejaVuSans-48"/>
       <use x="159.033203" xlink:href="#DejaVuSans-48"/>
      </g>
     </g>
    </g>
    <g id="xtick_6">
     <g id="line2d_11">
      <path clip-path="url(#p31055f901e)" d="M 309.75344 684 
L 309.75344 36 
" style="fill:none;stroke:#b0b0b0;stroke-linecap:square;stroke-width:0.8;"/>
     </g>
     <g id="line2d_12">
      <g>
       <use style="stroke:#000000;stroke-width:0.8;" x="309.75344" xlink:href="#m0e5b8dc618" y="684"/>
      </g>
     </g>
     <g id="text_6">
      <!-- 0.25 -->
      <g transform="translate(298.620627 698.598438)scale(0.1 -0.1)">
       <use xlink:href="#DejaVuSans-48"/>
       <use x="63.623047" xlink:href="#DejaVuSans-46"/>
       <use x="95.410156" xlink:href="#DejaVuSans-50"/>
       <use x="159.033203" xlink:href="#DejaVuSans-53"/>
      </g>
     </g>
    </g>
    <g id="xtick_7">
     <g id="line2d_13">
      <path clip-path="url(#p31055f901e)" d="M 362.46688 684 
L 362.46688 36 
" style="fill:none;stroke:#b0b0b0;stroke-linecap:square;stroke-width:0.8;"/>
     </g>
     <g id="line2d_14">
      <g>
       <use style="stroke:#000000;stroke-width:0.8;" x="362.46688" xlink:href="#m0e5b8dc618" y="684"/>
      </g>
     </g>
     <g id="text_7">
      <!-- 0.50 -->
      <g transform="translate(351.334067 698.598438)scale(0.1 -0.1)">
       <use xlink:href="#DejaVuSans-48"/>
       <use x="63.623047" xlink:href="#DejaVuSans-46"/>
       <use x="95.410156" xlink:href="#DejaVuSans-53"/>
       <use x="159.033203" xlink:href="#DejaVuSans-48"/>
      </g>
     </g>
    </g>
    <g id="xtick_8">
     <g id="line2d_15">
      <path clip-path="url(#p31055f901e)" d="M 415.18032 684 
L 415.18032 36 
" style="fill:none;stroke:#b0b0b0;stroke-linecap:square;stroke-width:0.8;"/>
     </g>
     <g id="line2d_16">
      <g>
       <use style="stroke:#000000;stroke-width:0.8;" x="415.18032" xlink:href="#m0e5b8dc618" y="684"/>
      </g>
     </g>
     <g id="text_8">
      <!-- 0.75 -->
      <g transform="translate(404.047507 698.598438)scale(0.1 -0.1)">
       <use xlink:href="#DejaVuSans-48"/>
       <use x="63.623047" xlink:href="#DejaVuSans-46"/>
       <use x="95.410156" xlink:href="#DejaVuSans-55"/>
       <use x="159.033203" xlink:href="#DejaVuSans-53"/>
      </g>
     </g>
    </g>
    <g id="xtick_9">
     <g id="line2d_17">
      <path clip-path="url(#p31055f901e)" d="M 467.893759 684 
L 467.893759 36 
" style="fill:none;stroke:#b0b0b0;stroke-linecap:square;stroke-width:0.8;"/>
     </g>
     <g id="line2d_18">
      <g>
       <use style="stroke:#000000;stroke-width:0.8;" x="467.893759" xlink:href="#m0e5b8dc618" y="684"/>
      </g>
     </g>
     <g id="text_9">
      <!-- 1.00 -->
      <g transform="translate(456.760947 698.598438)scale(0.1 -0.1)">
       <use xlink:href="#DejaVuSans-49"/>
       <use x="63.623047" xlink:href="#DejaVuSans-46"/>
       <use x="95.410156" xlink:href="#DejaVuSans-48"/>
       <use x="159.033203" xlink:href="#DejaVuSans-48"/>
      </g>
     </g>
    </g>
    <g id="text_10">
     <!-- m -->
     <defs>
      <path d="M 52 44.1875 
Q 55.375 50.25 60.0625 53.125 
Q 64.75 56 71.09375 56 
Q 79.640625 56 84.28125 50.015625 
Q 88.921875 44.046875 88.921875 33.015625 
L 88.921875 0 
L 79.890625 0 
L 79.890625 32.71875 
Q 79.890625 40.578125 77.09375 44.375 
Q 74.3125 48.1875 68.609375 48.1875 
Q 61.625 48.1875 57.5625 43.546875 
Q 53.515625 38.921875 53.515625 30.90625 
L 53.515625 0 
L 44.484375 0 
L 44.484375 32.71875 
Q 44.484375 40.625 41.703125 44.40625 
Q 38.921875 48.1875 33.109375 48.1875 
Q 26.21875 48.1875 22.15625 43.53125 
Q 18.109375 38.875 18.109375 30.90625 
L 18.109375 0 
L 9.078125 0 
L 9.078125 54.6875 
L 18.109375 54.6875 
L 18.109375 46.1875 
Q 21.1875 51.21875 25.484375 53.609375 
Q 29.78125 56 35.6875 56 
Q 41.65625 56 45.828125 52.96875 
Q 50 49.953125 52 44.1875 
z
" id="DejaVuSans-109"/>
     </defs>
     <g transform="translate(252.169687 712.276562)scale(0.1 -0.1)">
      <use xlink:href="#DejaVuSans-109"/>
     </g>
    </g>
   </g>
   <g id="matplotlib.axis_2">
    <g id="ytick_1">
     <g id="line2d_19">
      <path clip-path="url(#p31055f901e)" d="M 44.258426 608.848976 
L 469.821574 608.848976 
" style="fill:none;stroke:#b0b0b0;stroke-linecap:square;stroke-width:0.8;"/>
     </g>
     <g id="line2d_20">
      <defs>
       <path d="M 0 0 
L -3.5 0 
" id="m79f17da0c7" style="stroke:#000000;stroke-width:0.8;"/>
      </defs>
      <g>
       <use style="stroke:#000000;stroke-width:0.8;" x="44.258426" xlink:href="#m79f17da0c7" y="608.848976"/>
      </g>
     </g>
     <g id="text_11">
      <!-- −2.0 -->
      <g transform="translate(12.975613 612.648195)scale(0.1 -0.1)">
       <use xlink:href="#DejaVuSans-8722"/>
       <use x="83.789062" xlink:href="#DejaVuSans-50"/>
       <use x="147.412109" xlink:href="#DejaVuSans-46"/>
       <use x="179.199219" xlink:href="#DejaVuSans-48"/>
      </g>
     </g>
    </g>
    <g id="ytick_2">
     <g id="line2d_21">
      <path clip-path="url(#p31055f901e)" d="M 44.258426 503.422097 
L 469.821574 503.422097 
" style="fill:none;stroke:#b0b0b0;stroke-linecap:square;stroke-width:0.8;"/>
     </g>
     <g id="line2d_22">
      <g>
       <use style="stroke:#000000;stroke-width:0.8;" x="44.258426" xlink:href="#m79f17da0c7" y="503.422097"/>
      </g>
     </g>
     <g id="text_12">
      <!-- −1.5 -->
      <g transform="translate(12.975613 507.221315)scale(0.1 -0.1)">
       <use xlink:href="#DejaVuSans-8722"/>
       <use x="83.789062" xlink:href="#DejaVuSans-49"/>
       <use x="147.412109" xlink:href="#DejaVuSans-46"/>
       <use x="179.199219" xlink:href="#DejaVuSans-53"/>
      </g>
     </g>
    </g>
    <g id="ytick_3">
     <g id="line2d_23">
      <path clip-path="url(#p31055f901e)" d="M 44.258426 397.995217 
L 469.821574 397.995217 
" style="fill:none;stroke:#b0b0b0;stroke-linecap:square;stroke-width:0.8;"/>
     </g>
     <g id="line2d_24">
      <g>
       <use style="stroke:#000000;stroke-width:0.8;" x="44.258426" xlink:href="#m79f17da0c7" y="397.995217"/>
      </g>
     </g>
     <g id="text_13">
      <!-- −1.0 -->
      <g transform="translate(12.975613 401.794436)scale(0.1 -0.1)">
       <use xlink:href="#DejaVuSans-8722"/>
       <use x="83.789062" xlink:href="#DejaVuSans-49"/>
       <use x="147.412109" xlink:href="#DejaVuSans-46"/>
       <use x="179.199219" xlink:href="#DejaVuSans-48"/>
      </g>
     </g>
    </g>
    <g id="ytick_4">
     <g id="line2d_25">
      <path clip-path="url(#p31055f901e)" d="M 44.258426 292.568337 
L 469.821574 292.568337 
" style="fill:none;stroke:#b0b0b0;stroke-linecap:square;stroke-width:0.8;"/>
     </g>
     <g id="line2d_26">
      <g>
       <use style="stroke:#000000;stroke-width:0.8;" x="44.258426" xlink:href="#m79f17da0c7" y="292.568337"/>
      </g>
     </g>
     <g id="text_14">
      <!-- −0.5 -->
      <g transform="translate(12.975613 296.367556)scale(0.1 -0.1)">
       <use xlink:href="#DejaVuSans-8722"/>
       <use x="83.789062" xlink:href="#DejaVuSans-48"/>
       <use x="147.412109" xlink:href="#DejaVuSans-46"/>
       <use x="179.199219" xlink:href="#DejaVuSans-53"/>
      </g>
     </g>
    </g>
    <g id="ytick_5">
     <g id="line2d_27">
      <path clip-path="url(#p31055f901e)" d="M 44.258426 187.141457 
L 469.821574 187.141457 
" style="fill:none;stroke:#b0b0b0;stroke-linecap:square;stroke-width:0.8;"/>
     </g>
     <g id="line2d_28">
      <g>
       <use style="stroke:#000000;stroke-width:0.8;" x="44.258426" xlink:href="#m79f17da0c7" y="187.141457"/>
      </g>
     </g>
     <g id="text_15">
      <!-- 0.0 -->
      <g transform="translate(21.355301 190.940676)scale(0.1 -0.1)">
       <use xlink:href="#DejaVuSans-48"/>
       <use x="63.623047" xlink:href="#DejaVuSans-46"/>
       <use x="95.410156" xlink:href="#DejaVuSans-48"/>
      </g>
     </g>
    </g>
    <g id="ytick_6">
     <g id="line2d_29">
      <path clip-path="url(#p31055f901e)" d="M 44.258426 81.714578 
L 469.821574 81.714578 
" style="fill:none;stroke:#b0b0b0;stroke-linecap:square;stroke-width:0.8;"/>
     </g>
     <g id="line2d_30">
      <g>
       <use style="stroke:#000000;stroke-width:0.8;" x="44.258426" xlink:href="#m79f17da0c7" y="81.714578"/>
      </g>
     </g>
     <g id="text_16">
      <!-- 0.5 -->
      <g transform="translate(21.355301 85.513796)scale(0.1 -0.1)">
       <use xlink:href="#DejaVuSans-48"/>
       <use x="63.623047" xlink:href="#DejaVuSans-46"/>
       <use x="95.410156" xlink:href="#DejaVuSans-53"/>
      </g>
     </g>
    </g>
    <g id="text_17">
     <!-- m -->
     <g transform="translate(6.895926 364.870313)rotate(-90)scale(0.1 -0.1)">
      <use xlink:href="#DejaVuSans-109"/>
     </g>
    </g>
   </g>
   <g id="line2d_31">
    <path clip-path="url(#p31055f901e)" d="M 323.073636 116.775591 
L 191.006364 116.775591 
" style="fill:none;stroke:#ffa500;stroke-dasharray:5.55,2.4;stroke-dashoffset:0;stroke-width:1.5;"/>
   </g>
   <g id="line2d_32">
    <path clip-path="url(#p31055f901e)" d="M 293.92714 187.141457 
L 220.15286 187.141457 
" style="fill:none;stroke:#808080;stroke-dasharray:5.55,2.4;stroke-dashoffset:0;stroke-width:1.5;"/>
   </g>
   <g id="line2d_33">
    <path clip-path="url(#p31055f901e)" d="M 257.04 65.454545 
L 323.073636 65.454545 
L 323.073636 116.775591 
" style="fill:none;stroke:#000000;stroke-linecap:square;stroke-width:1.5;"/>
   </g>
   <g id="line2d_34">
    <path clip-path="url(#p31055f901e)" d="M 257.04 65.454545 
L 191.006364 65.454545 
L 191.006364 116.775591 
" style="fill:none;stroke:#000000;stroke-linecap:square;stroke-width:1.5;"/>
   </g>
   <g id="line2d_35">
    <path clip-path="url(#p31055f901e)" d="M 310.13313 148.016737 
L 310.629845 147.511996 
L 311.118407 146.999358 
L 311.598689 146.478955 
L 312.070569 145.950922 
L 312.533925 145.415393 
L 312.988637 144.872506 
L 313.434591 144.322401 
L 313.87167 143.765219 
L 314.299762 143.201103 
L 314.718758 142.630198 
L 315.128549 142.05265 
L 315.529031 141.468609 
L 315.920101 140.878224 
L 316.301658 140.281647 
L 316.673604 139.679031 
L 317.035844 139.070531 
L 317.388284 138.456303 
L 317.730834 137.836505 
L 318.063406 137.211297 
L 318.385915 136.580838 
L 318.698277 135.945292 
L 319.000413 135.30482 
L 319.292245 134.659588 
L 319.573697 134.009761 
L 319.844698 133.355507 
L 320.105178 132.696994 
L 320.35507 132.03439 
L 320.594309 131.367866 
L 320.822835 130.697593 
L 321.040589 130.023743 
L 321.247514 129.34649 
L 321.443557 128.666007 
L 321.628669 127.98247 
L 321.802802 127.296053 
L 321.96591 126.606933 
L 322.117952 125.915288 
L 322.258889 125.221295 
L 322.388685 124.525132 
L 322.507306 123.826978 
L 322.614722 123.127012 
L 322.710906 122.425415 
L 322.795831 121.722366 
L 322.869478 121.018047 
L 322.931826 120.312637 
L 322.98286 119.606319 
L 323.022567 118.899274 
L 323.050937 118.191683 
L 323.067961 117.483728 
L 323.073636 116.775591 
" style="fill:none;stroke:#000000;stroke-linecap:square;stroke-width:1.5;"/>
   </g>
   <g id="line2d_36">
    <path clip-path="url(#p31055f901e)" d="M 203.94687 148.016737 
L 203.450155 147.511996 
L 202.961593 146.999358 
L 202.481311 146.478955 
L 202.009431 145.950922 
L 201.546075 145.415393 
L 201.091363 144.872506 
L 200.645409 144.322401 
L 200.20833 143.765219 
L 199.780238 143.201103 
L 199.361242 142.630198 
L 198.951451 142.05265 
L 198.550969 141.468609 
L 198.159899 140.878224 
L 197.778342 140.281647 
L 197.406396 139.679031 
L 197.044156 139.070531 
L 196.691716 138.456303 
L 196.349166 137.836505 
L 196.016594 137.211297 
L 195.694085 136.580838 
L 195.381723 135.945292 
L 195.079587 135.30482 
L 194.787755 134.659588 
L 194.506303 134.009761 
L 194.235302 133.355507 
L 193.974822 132.696994 
L 193.72493 132.03439 
L 193.485691 131.367866 
L 193.257165 130.697593 
L 193.039411 130.023743 
L 192.832486 129.34649 
L 192.636443 128.666007 
L 192.451331 127.98247 
L 192.277198 127.296053 
L 192.11409 126.606933 
L 191.962048 125.915288 
L 191.821111 125.221295 
L 191.691315 124.525132 
L 191.572694 123.826978 
L 191.465278 123.127012 
L 191.369094 122.425415 
L 191.284169 121.722366 
L 191.210522 121.018047 
L 191.148174 120.312637 
L 191.09714 119.606319 
L 191.057433 118.899274 
L 191.029063 118.191683 
L 191.012039 117.483728 
L 191.006364 116.775591 
" style="fill:none;stroke:#000000;stroke-linecap:square;stroke-width:1.5;"/>
   </g>
   <g id="line2d_37">
    <path clip-path="url(#p31055f901e)" d="M 310.13313 148.016737 
L 308.549724 149.666987 
L 307.035867 151.381262 
L 305.594145 153.156632 
L 304.227023 154.990065 
L 302.936834 156.878427 
L 301.725785 158.818494 
L 300.595943 160.80695 
L 299.549239 162.840398 
L 298.587462 164.915364 
L 297.712254 167.028303 
L 296.925111 169.175605 
L 296.227377 171.353601 
L 295.620245 173.558571 
L 295.104752 175.786747 
L 294.681779 178.034322 
L 294.352048 180.297456 
L 294.116123 182.572284 
L 293.974406 184.854917 
L 293.92714 187.141457 
" style="fill:none;stroke:#000000;stroke-linecap:square;stroke-width:1.5;"/>
   </g>
   <g id="line2d_38">
    <path clip-path="url(#p31055f901e)" d="M 203.94687 148.016737 
L 205.530276 149.666987 
L 207.044133 151.381262 
L 208.485855 153.156632 
L 209.852977 154.990065 
L 211.143166 156.878427 
L 212.354215 158.818494 
L 213.484057 160.80695 
L 214.530761 162.840398 
L 215.492538 164.915364 
L 216.367746 167.028303 
L 217.154889 169.175605 
L 217.852623 171.353601 
L 218.459755 173.558571 
L 218.975248 175.786747 
L 219.398221 178.034322 
L 219.727952 180.297456 
L 219.963877 182.572284 
L 220.105594 184.854917 
L 220.15286 187.141457 
" style="fill:none;stroke:#000000;stroke-linecap:square;stroke-width:1.5;"/>
   </g>
   <g id="line2d_39">
    <path clip-path="url(#p31055f901e)" d="M 293.92714 187.141457 
L 293.927946 187.292141 
L 293.930363 187.442807 
L 293.934391 187.593439 
L 293.940029 187.744019 
L 293.947278 187.89453 
L 293.956136 188.044955 
L 293.966601 188.195276 
L 293.978674 188.345477 
L 293.992352 188.495541 
L 294.007634 188.645449 
L 294.024519 188.795186 
L 294.043003 188.944733 
L 294.063086 189.094075 
L 294.084765 189.243192 
L 294.108036 189.39207 
L 294.132899 189.54069 
L 294.15935 189.689036 
L 294.187385 189.837091 
L 294.217002 189.984837 
L 294.248197 190.132258 
L 294.280967 190.279337 
L 294.315308 190.426057 
L 294.351216 190.572402 
L 294.388687 190.718354 
L 294.427717 190.863897 
L 294.4683 191.009015 
L 294.510433 191.15369 
L 294.554111 191.297906 
L 294.599329 191.441647 
L 294.646081 191.584897 
L 294.694362 191.727638 
L 294.744167 191.869855 
L 294.79549 192.011531 
L 294.848325 192.15265 
L 294.902666 192.293196 
L 294.958507 192.433152 
L 295.015842 192.572504 
L 295.074663 192.711235 
L 295.134964 192.849328 
L 295.196739 192.986769 
L 295.25998 193.123542 
L 295.32468 193.25963 
L 295.390831 193.395019 
L 295.458427 193.529692 
L 295.527459 193.663635 
L 295.597919 193.796832 
L 295.6698 193.929268 
L 295.743092 194.060928 
L 295.817789 194.191797 
" style="fill:none;stroke:#000000;stroke-linecap:square;stroke-width:1.5;"/>
   </g>
   <g id="line2d_40">
    <path clip-path="url(#p31055f901e)" d="M 220.15286 187.141457 
L 220.152054 187.292141 
L 220.149637 187.442807 
L 220.145609 187.593439 
L 220.139971 187.744019 
L 220.132722 187.89453 
L 220.123864 188.044955 
L 220.113399 188.195276 
L 220.101326 188.345477 
L 220.087648 188.495541 
L 220.072366 188.645449 
L 220.055481 188.795186 
L 220.036997 188.944733 
L 220.016914 189.094075 
L 219.995235 189.243192 
L 219.971964 189.39207 
L 219.947101 189.54069 
L 219.92065 189.689036 
L 219.892615 189.837091 
L 219.862998 189.984837 
L 219.831803 190.132258 
L 219.799033 190.279337 
L 219.764692 190.426057 
L 219.728784 190.572402 
L 219.691313 190.718354 
L 219.652283 190.863897 
L 219.6117 191.009015 
L 219.569567 191.15369 
L 219.525889 191.297906 
L 219.480671 191.441647 
L 219.433919 191.584897 
L 219.385638 191.727638 
L 219.335833 191.869855 
L 219.28451 192.011531 
L 219.231675 192.15265 
L 219.177334 192.293196 
L 219.121493 192.433152 
L 219.064158 192.572504 
L 219.005337 192.711235 
L 218.945036 192.849328 
L 218.883261 192.986769 
L 218.82002 193.123542 
L 218.75532 193.25963 
L 218.689169 193.395019 
L 218.621573 193.529692 
L 218.552541 193.663635 
L 218.482081 193.796832 
L 218.4102 193.929268 
L 218.336908 194.060928 
L 218.262211 194.191797 
" style="fill:none;stroke:#000000;stroke-linecap:square;stroke-width:1.5;"/>
   </g>
   <g id="line2d_41">
    <path clip-path="url(#p31055f901e)" d="M 295.817789 194.191797 
L 300.517736 202.405074 
L 305.153366 210.667588 
L 309.724678 218.97934 
L 314.231672 227.340329 
L 318.674349 235.750556 
L 323.052709 244.210019 
L 327.366751 252.718721 
L 331.616475 261.276659 
L 335.801882 269.883835 
L 339.922972 278.540248 
L 343.979744 287.245898 
L 347.972198 296.000785 
L 351.900335 304.80491 
L 355.764154 313.658272 
L 359.563656 322.560872 
L 363.29884 331.512709 
L 366.969707 340.513783 
L 370.576256 349.564094 
L 374.118488 358.663643 
L 377.596402 367.812429 
L 381.009999 377.010453 
L 384.359278 386.257713 
L 387.64424 395.554211 
L 390.864884 404.899947 
L 394.021211 414.294919 
L 397.11322 423.739129 
L 400.140912 433.232576 
L 403.104286 442.775261 
L 406.003342 452.367183 
L 408.838081 462.008342 
L 411.608503 471.698738 
L 414.314607 481.438372 
L 416.956393 491.227243 
L 419.533862 501.065352 
L 422.047014 510.952697 
L 424.495848 520.88928 
L 426.880364 530.875101 
L 429.200563 540.910158 
L 431.456444 550.994453 
L 433.648008 561.127985 
L 435.775255 571.310755 
L 437.838183 581.542762 
L 439.836795 591.824006 
L 441.771088 602.154487 
L 443.641065 612.534206 
L 445.446723 622.963162 
L 447.188065 633.441356 
L 448.865088 643.968787 
L 450.477795 654.545455 
" style="fill:none;stroke:#000000;stroke-linecap:square;stroke-width:1.5;"/>
   </g>
   <g id="line2d_42">
    <path clip-path="url(#p31055f901e)" d="M 218.262211 194.191797 
L 213.562264 202.405074 
L 208.926634 210.667588 
L 204.355322 218.97934 
L 199.848328 227.340329 
L 195.405651 235.750556 
L 191.027291 244.210019 
L 186.713249 252.718721 
L 182.463525 261.276659 
L 178.278118 269.883835 
L 174.157028 278.540248 
L 170.100256 287.245898 
L 166.107802 296.000785 
L 162.179665 304.80491 
L 158.315846 313.658272 
L 154.516344 322.560872 
L 150.78116 331.512709 
L 147.110293 340.513783 
L 143.503744 349.564094 
L 139.961512 358.663643 
L 136.483598 367.812429 
L 133.070001 377.010453 
L 129.720722 386.257713 
L 126.43576 395.554211 
L 123.215116 404.899947 
L 120.058789 414.294919 
L 116.96678 423.739129 
L 113.939088 433.232576 
L 110.975714 442.775261 
L 108.076658 452.367183 
L 105.241919 462.008342 
L 102.471497 471.698738 
L 99.765393 481.438372 
L 97.123607 491.227243 
L 94.546138 501.065352 
L 92.032986 510.952697 
L 89.584152 520.88928 
L 87.199636 530.875101 
L 84.879437 540.910158 
L 82.623556 550.994453 
L 80.431992 561.127985 
L 78.304745 571.310755 
L 76.241817 581.542762 
L 74.243205 591.824006 
L 72.308912 602.154487 
L 70.438935 612.534206 
L 68.633277 622.963162 
L 66.891935 633.441356 
L 65.214912 643.968787 
L 63.602205 654.545455 
" style="fill:none;stroke:#000000;stroke-linecap:square;stroke-width:1.5;"/>
   </g>
   <g id="patch_3">
    <path d="M 44.258426 684 
L 44.258426 36 
" style="fill:none;stroke:#000000;stroke-linecap:square;stroke-linejoin:miter;stroke-width:0.8;"/>
   </g>
   <g id="patch_4">
    <path d="M 469.821574 684 
L 469.821574 36 
" style="fill:none;stroke:#000000;stroke-linecap:square;stroke-linejoin:miter;stroke-width:0.8;"/>
   </g>
   <g id="patch_5">
    <path d="M 44.258426 684 
L 469.821574 684 
" style="fill:none;stroke:#000000;stroke-linecap:square;stroke-linejoin:miter;stroke-width:0.8;"/>
   </g>
   <g id="patch_6">
    <path d="M 44.258426 36 
L 469.821574 36 
" style="fill:none;stroke:#000000;stroke-linecap:square;stroke-linejoin:miter;stroke-width:0.8;"/>
   </g>
  </g>
 </g>
 <defs>
  <clipPath id="p31055f901e">
   <rect height="648" width="425.563148" x="44.258426" y="36"/>
  </clipPath>
 </defs>
</svg>
