<?xml version="1.0" encoding="utf-8" standalone="no"?>
<!DOCTYPE svg PUBLIC "-//W3C//DTD SVG 1.1//EN"
  "http://www.w3.org/Graphics/SVG/1.1/DTD/svg11.dtd">
<!-- Created with matplotlib (https://matplotlib.org/) -->
<svg height="720pt" version="1.1" viewBox="0 0 504 720" width="504pt" xmlns="http://www.w3.org/2000/svg" xmlns:xlink="http://www.w3.org/1999/xlink">
 <defs>
  <style type="text/css">
*{stroke-linecap:butt;stroke-linejoin:round;}
  </style>
 </defs>
 <g id="figure_1">
  <g id="patch_1">
   <path d="M 0 720 
L 504 720 
L 504 0 
L 0 0 
z
" style="fill:#ffffff;"/>
  </g>
  <g id="axes_1">
   <g id="patch_2">
    <path d="M 44.03385 684 
L 470.04615 684 
L 470.04615 36 
L 44.03385 36 
z
" style="fill:#ffffff;"/>
   </g>
   <g id="matplotlib.axis_1">
    <g id="xtick_1">
     <g id="line2d_1">
      <path clip-path="url(#p1bc7bb282a)" d="M 47.14522 684 
L 47.14522 36 
" style="fill:none;stroke:#b0b0b0;stroke-linecap:square;stroke-width:0.8;"/>
     </g>
     <g id="line2d_2">
      <defs>
       <path d="M 0 0 
L 0 3.5 
" id="m8e1b8a6464" style="stroke:#000000;stroke-width:0.8;"/>
      </defs>
      <g>
       <use style="stroke:#000000;stroke-width:0.8;" x="47.14522" xlink:href="#m8e1b8a6464" y="684"/>
      </g>
     </g>
     <g id="text_1">
      <!-- −1.00 -->
      <defs>
       <path d="M 10.59375 35.5 
L 73.1875 35.5 
L 73.1875 27.203125 
L 10.59375 27.203125 
z
" id="DejaVuSans-8722"/>
       <path d="M 12.40625 8.296875 
L 28.515625 8.296875 
L 28.515625 63.921875 
L 10.984375 60.40625 
L 10.984375 69.390625 
L 28.421875 72.90625 
L 38.28125 72.90625 
L 38.28125 8.296875 
L 54.390625 8.296875 
L 54.390625 0 
L 12.40625 0 
z
" id="DejaVuSans-49"/>
       <path d="M 10.6875 12.40625 
L 21 12.40625 
L 21 0 
L 10.6875 0 
z
" id="DejaVuSans-46"/>
       <path d="M 31.78125 66.40625 
Q 24.171875 66.40625 20.328125 58.90625 
Q 16.5 51.421875 16.5 36.375 
Q 16.5 21.390625 20.328125 13.890625 
Q 24.171875 6.390625 31.78125 6.390625 
Q 39.453125 6.390625 43.28125 13.890625 
Q 47.125 21.390625 47.125 36.375 
Q 47.125 51.421875 43.28125 58.90625 
Q 39.453125 66.40625 31.78125 66.40625 
z
M 31.78125 74.21875 
Q 44.046875 74.21875 50.515625 64.515625 
Q 56.984375 54.828125 56.984375 36.375 
Q 56.984375 17.96875 50.515625 8.265625 
Q 44.046875 -1.421875 31.78125 -1.421875 
Q 19.53125 -1.421875 13.0625 8.265625 
Q 6.59375 17.96875 6.59375 36.375 
Q 6.59375 54.828125 13.0625 64.515625 
Q 19.53125 74.21875 31.78125 74.21875 
z
" id="DejaVuSans-48"/>
      </defs>
      <g transform="translate(31.822563 698.598438)scale(0.1 -0.1)">
       <use xlink:href="#DejaVuSans-8722"/>
       <use x="83.789062" xlink:href="#DejaVuSans-49"/>
       <use x="147.412109" xlink:href="#DejaVuSans-46"/>
       <use x="179.199219" xlink:href="#DejaVuSans-48"/>
       <use x="242.822266" xlink:href="#DejaVuSans-48"/>
      </g>
     </g>
    </g>
    <g id="xtick_2">
     <g id="line2d_3">
      <path clip-path="url(#p1bc7bb282a)" d="M 99.618915 684 
L 99.618915 36 
" style="fill:none;stroke:#b0b0b0;stroke-linecap:square;stroke-width:0.8;"/>
     </g>
     <g id="line2d_4">
      <g>
       <use style="stroke:#000000;stroke-width:0.8;" x="99.618915" xlink:href="#m8e1b8a6464" y="684"/>
      </g>
     </g>
     <g id="text_2">
      <!-- −0.75 -->
      <defs>
       <path d="M 8.203125 72.90625 
L 55.078125 72.90625 
L 55.078125 68.703125 
L 28.609375 0 
L 18.3125 0 
L 43.21875 64.59375 
L 8.203125 64.59375 
z
" id="DejaVuSans-55"/>
       <path d="M 10.796875 72.90625 
L 49.515625 72.90625 
L 49.515625 64.59375 
L 19.828125 64.59375 
L 19.828125 46.734375 
Q 21.96875 47.46875 24.109375 47.828125 
Q 26.265625 48.1875 28.421875 48.1875 
Q 40.625 48.1875 47.75 41.5 
Q 54.890625 34.8125 54.890625 23.390625 
Q 54.890625 11.625 47.5625 5.09375 
Q 40.234375 -1.421875 26.90625 -1.421875 
Q 22.3125 -1.421875 17.546875 -0.640625 
Q 12.796875 0.140625 7.71875 1.703125 
L 7.71875 11.625 
Q 12.109375 9.234375 16.796875 8.0625 
Q 21.484375 6.890625 26.703125 6.890625 
Q 35.15625 6.890625 40.078125 11.328125 
Q 45.015625 15.765625 45.015625 23.390625 
Q 45.015625 31 40.078125 35.4375 
Q 35.15625 39.890625 26.703125 39.890625 
Q 22.75 39.890625 18.8125 39.015625 
Q 14.890625 38.140625 10.796875 36.28125 
z
" id="DejaVuSans-53"/>
      </defs>
      <g transform="translate(84.296259 698.598438)scale(0.1 -0.1)">
       <use xlink:href="#DejaVuSans-8722"/>
       <use x="83.789062" xlink:href="#DejaVuSans-48"/>
       <use x="147.412109" xlink:href="#DejaVuSans-46"/>
       <use x="179.199219" xlink:href="#DejaVuSans-55"/>
       <use x="242.822266" xlink:href="#DejaVuSans-53"/>
      </g>
     </g>
    </g>
    <g id="xtick_3">
     <g id="line2d_5">
      <path clip-path="url(#p1bc7bb282a)" d="M 152.09261 684 
L 152.09261 36 
" style="fill:none;stroke:#b0b0b0;stroke-linecap:square;stroke-width:0.8;"/>
     </g>
     <g id="line2d_6">
      <g>
       <use style="stroke:#000000;stroke-width:0.8;" x="152.09261" xlink:href="#m8e1b8a6464" y="684"/>
      </g>
     </g>
     <g id="text_3">
      <!-- −0.50 -->
      <g transform="translate(136.769954 698.598438)scale(0.1 -0.1)">
       <use xlink:href="#DejaVuSans-8722"/>
       <use x="83.789062" xlink:href="#DejaVuSans-48"/>
       <use x="147.412109" xlink:href="#DejaVuSans-46"/>
       <use x="179.199219" xlink:href="#DejaVuSans-53"/>
       <use x="242.822266" xlink:href="#DejaVuSans-48"/>
      </g>
     </g>
    </g>
    <g id="xtick_4">
     <g id="line2d_7">
      <path clip-path="url(#p1bc7bb282a)" d="M 204.566305 684 
L 204.566305 36 
" style="fill:none;stroke:#b0b0b0;stroke-linecap:square;stroke-width:0.8;"/>
     </g>
     <g id="line2d_8">
      <g>
       <use style="stroke:#000000;stroke-width:0.8;" x="204.566305" xlink:href="#m8e1b8a6464" y="684"/>
      </g>
     </g>
     <g id="text_4">
      <!-- −0.25 -->
      <defs>
       <path d="M 19.1875 8.296875 
L 53.609375 8.296875 
L 53.609375 0 
L 7.328125 0 
L 7.328125 8.296875 
Q 12.9375 14.109375 22.625 23.890625 
Q 32.328125 33.6875 34.8125 36.53125 
Q 39.546875 41.84375 41.421875 45.53125 
Q 43.3125 49.21875 43.3125 52.78125 
Q 43.3125 58.59375 39.234375 62.25 
Q 35.15625 65.921875 28.609375 65.921875 
Q 23.96875 65.921875 18.8125 64.3125 
Q 13.671875 62.703125 7.8125 59.421875 
L 7.8125 69.390625 
Q 13.765625 71.78125 18.9375 73 
Q 24.125 74.21875 28.421875 74.21875 
Q 39.75 74.21875 46.484375 68.546875 
Q 53.21875 62.890625 53.21875 53.421875 
Q 53.21875 48.921875 51.53125 44.890625 
Q 49.859375 40.875 45.40625 35.40625 
Q 44.1875 33.984375 37.640625 27.21875 
Q 31.109375 20.453125 19.1875 8.296875 
z
" id="DejaVuSans-50"/>
      </defs>
      <g transform="translate(189.243649 698.598438)scale(0.1 -0.1)">
       <use xlink:href="#DejaVuSans-8722"/>
       <use x="83.789062" xlink:href="#DejaVuSans-48"/>
       <use x="147.412109" xlink:href="#DejaVuSans-46"/>
       <use x="179.199219" xlink:href="#DejaVuSans-50"/>
       <use x="242.822266" xlink:href="#DejaVuSans-53"/>
      </g>
     </g>
    </g>
    <g id="xtick_5">
     <g id="line2d_9">
      <path clip-path="url(#p1bc7bb282a)" d="M 257.04 684 
L 257.04 36 
" style="fill:none;stroke:#b0b0b0;stroke-linecap:square;stroke-width:0.8;"/>
     </g>
     <g id="line2d_10">
      <g>
       <use style="stroke:#000000;stroke-width:0.8;" x="257.04" xlink:href="#m8e1b8a6464" y="684"/>
      </g>
     </g>
     <g id="text_5">
      <!-- 0.00 -->
      <g transform="translate(245.907187 698.598438)scale(0.1 -0.1)">
       <use xlink:href="#DejaVuSans-48"/>
       <use x="63.623047" xlink:href="#DejaVuSans-46"/>
       <use x="95.410156" xlink:href="#DejaVuSans-48"/>
       <use x="159.033203" xlink:href="#DejaVuSans-48"/>
      </g>
     </g>
    </g>
    <g id="xtick_6">
     <g id="line2d_11">
      <path clip-path="url(#p1bc7bb282a)" d="M 309.513695 684 
L 309.513695 36 
" style="fill:none;stroke:#b0b0b0;stroke-linecap:square;stroke-width:0.8;"/>
     </g>
     <g id="line2d_12">
      <g>
       <use style="stroke:#000000;stroke-width:0.8;" x="309.513695" xlink:href="#m8e1b8a6464" y="684"/>
      </g>
     </g>
     <g id="text_6">
      <!-- 0.25 -->
      <g transform="translate(298.380883 698.598438)scale(0.1 -0.1)">
       <use xlink:href="#DejaVuSans-48"/>
       <use x="63.623047" xlink:href="#DejaVuSans-46"/>
       <use x="95.410156" xlink:href="#DejaVuSans-50"/>
       <use x="159.033203" xlink:href="#DejaVuSans-53"/>
      </g>
     </g>
    </g>
    <g id="xtick_7">
     <g id="line2d_13">
      <path clip-path="url(#p1bc7bb282a)" d="M 361.98739 684 
L 361.98739 36 
" style="fill:none;stroke:#b0b0b0;stroke-linecap:square;stroke-width:0.8;"/>
     </g>
     <g id="line2d_14">
      <g>
       <use style="stroke:#000000;stroke-width:0.8;" x="361.98739" xlink:href="#m8e1b8a6464" y="684"/>
      </g>
     </g>
     <g id="text_7">
      <!-- 0.50 -->
      <g transform="translate(350.854578 698.598438)scale(0.1 -0.1)">
       <use xlink:href="#DejaVuSans-48"/>
       <use x="63.623047" xlink:href="#DejaVuSans-46"/>
       <use x="95.410156" xlink:href="#DejaVuSans-53"/>
       <use x="159.033203" xlink:href="#DejaVuSans-48"/>
      </g>
     </g>
    </g>
    <g id="xtick_8">
     <g id="line2d_15">
      <path clip-path="url(#p1bc7bb282a)" d="M 414.461085 684 
L 414.461085 36 
" style="fill:none;stroke:#b0b0b0;stroke-linecap:square;stroke-width:0.8;"/>
     </g>
     <g id="line2d_16">
      <g>
       <use style="stroke:#000000;stroke-width:0.8;" x="414.461085" xlink:href="#m8e1b8a6464" y="684"/>
      </g>
     </g>
     <g id="text_8">
      <!-- 0.75 -->
      <g transform="translate(403.328273 698.598438)scale(0.1 -0.1)">
       <use xlink:href="#DejaVuSans-48"/>
       <use x="63.623047" xlink:href="#DejaVuSans-46"/>
       <use x="95.410156" xlink:href="#DejaVuSans-55"/>
       <use x="159.033203" xlink:href="#DejaVuSans-53"/>
      </g>
     </g>
    </g>
    <g id="xtick_9">
     <g id="line2d_17">
      <path clip-path="url(#p1bc7bb282a)" d="M 466.93478 684 
L 466.93478 36 
" style="fill:none;stroke:#b0b0b0;stroke-linecap:square;stroke-width:0.8;"/>
     </g>
     <g id="line2d_18">
      <g>
       <use style="stroke:#000000;stroke-width:0.8;" x="466.93478" xlink:href="#m8e1b8a6464" y="684"/>
      </g>
     </g>
     <g id="text_9">
      <!-- 1.00 -->
      <g transform="translate(455.801968 698.598438)scale(0.1 -0.1)">
       <use xlink:href="#DejaVuSans-49"/>
       <use x="63.623047" xlink:href="#DejaVuSans-46"/>
       <use x="95.410156" xlink:href="#DejaVuSans-48"/>
       <use x="159.033203" xlink:href="#DejaVuSans-48"/>
      </g>
     </g>
    </g>
    <g id="text_10">
     <!-- m -->
     <defs>
      <path d="M 52 44.1875 
Q 55.375 50.25 60.0625 53.125 
Q 64.75 56 71.09375 56 
Q 79.640625 56 84.28125 50.015625 
Q 88.921875 44.046875 88.921875 33.015625 
L 88.921875 0 
L 79.890625 0 
L 79.890625 32.71875 
Q 79.890625 40.578125 77.09375 44.375 
Q 74.3125 48.1875 68.609375 48.1875 
Q 61.625 48.1875 57.5625 43.546875 
Q 53.515625 38.921875 53.515625 30.90625 
L 53.515625 0 
L 44.484375 0 
L 44.484375 32.71875 
Q 44.484375 40.625 41.703125 44.40625 
Q 38.921875 48.1875 33.109375 48.1875 
Q 26.21875 48.1875 22.15625 43.53125 
Q 18.109375 38.875 18.109375 30.90625 
L 18.109375 0 
L 9.078125 0 
L 9.078125 54.6875 
L 18.109375 54.6875 
L 18.109375 46.1875 
Q 21.1875 51.21875 25.484375 53.609375 
Q 29.78125 56 35.6875 56 
Q 41.65625 56 45.828125 52.96875 
Q 50 49.953125 52 44.1875 
z
" id="DejaVuSans-109"/>
     </defs>
     <g transform="translate(252.169687 712.276562)scale(0.1 -0.1)">
      <use xlink:href="#DejaVuSans-109"/>
     </g>
    </g>
   </g>
   <g id="matplotlib.axis_2">
    <g id="ytick_1">
     <g id="line2d_19">
      <path clip-path="url(#p1bc7bb282a)" d="M 44.03385 606.437706 
L 470.04615 606.437706 
" style="fill:none;stroke:#b0b0b0;stroke-linecap:square;stroke-width:0.8;"/>
     </g>
     <g id="line2d_20">
      <defs>
       <path d="M 0 0 
L -3.5 0 
" id="me2c4d65dde" style="stroke:#000000;stroke-width:0.8;"/>
      </defs>
      <g>
       <use style="stroke:#000000;stroke-width:0.8;" x="44.03385" xlink:href="#me2c4d65dde" y="606.437706"/>
      </g>
     </g>
     <g id="text_11">
      <!-- −2.0 -->
      <g transform="translate(12.751037 610.236924)scale(0.1 -0.1)">
       <use xlink:href="#DejaVuSans-8722"/>
       <use x="83.789062" xlink:href="#DejaVuSans-50"/>
       <use x="147.412109" xlink:href="#DejaVuSans-46"/>
       <use x="179.199219" xlink:href="#DejaVuSans-48"/>
      </g>
     </g>
    </g>
    <g id="ytick_2">
     <g id="line2d_21">
      <path clip-path="url(#p1bc7bb282a)" d="M 44.03385 501.490316 
L 470.04615 501.490316 
" style="fill:none;stroke:#b0b0b0;stroke-linecap:square;stroke-width:0.8;"/>
     </g>
     <g id="line2d_22">
      <g>
       <use style="stroke:#000000;stroke-width:0.8;" x="44.03385" xlink:href="#me2c4d65dde" y="501.490316"/>
      </g>
     </g>
     <g id="text_12">
      <!-- −1.5 -->
      <g transform="translate(12.751037 505.289534)scale(0.1 -0.1)">
       <use xlink:href="#DejaVuSans-8722"/>
       <use x="83.789062" xlink:href="#DejaVuSans-49"/>
       <use x="147.412109" xlink:href="#DejaVuSans-46"/>
       <use x="179.199219" xlink:href="#DejaVuSans-53"/>
      </g>
     </g>
    </g>
    <g id="ytick_3">
     <g id="line2d_23">
      <path clip-path="url(#p1bc7bb282a)" d="M 44.03385 396.542925 
L 470.04615 396.542925 
" style="fill:none;stroke:#b0b0b0;stroke-linecap:square;stroke-width:0.8;"/>
     </g>
     <g id="line2d_24">
      <g>
       <use style="stroke:#000000;stroke-width:0.8;" x="44.03385" xlink:href="#me2c4d65dde" y="396.542925"/>
      </g>
     </g>
     <g id="text_13">
      <!-- −1.0 -->
      <g transform="translate(12.751037 400.342144)scale(0.1 -0.1)">
       <use xlink:href="#DejaVuSans-8722"/>
       <use x="83.789062" xlink:href="#DejaVuSans-49"/>
       <use x="147.412109" xlink:href="#DejaVuSans-46"/>
       <use x="179.199219" xlink:href="#DejaVuSans-48"/>
      </g>
     </g>
    </g>
    <g id="ytick_4">
     <g id="line2d_25">
      <path clip-path="url(#p1bc7bb282a)" d="M 44.03385 291.595535 
L 470.04615 291.595535 
" style="fill:none;stroke:#b0b0b0;stroke-linecap:square;stroke-width:0.8;"/>
     </g>
     <g id="line2d_26">
      <g>
       <use style="stroke:#000000;stroke-width:0.8;" x="44.03385" xlink:href="#me2c4d65dde" y="291.595535"/>
      </g>
     </g>
     <g id="text_14">
      <!-- −0.5 -->
      <g transform="translate(12.751037 295.394754)scale(0.1 -0.1)">
       <use xlink:href="#DejaVuSans-8722"/>
       <use x="83.789062" xlink:href="#DejaVuSans-48"/>
       <use x="147.412109" xlink:href="#DejaVuSans-46"/>
       <use x="179.199219" xlink:href="#DejaVuSans-53"/>
      </g>
     </g>
    </g>
    <g id="ytick_5">
     <g id="line2d_27">
      <path clip-path="url(#p1bc7bb282a)" d="M 44.03385 186.648145 
L 470.04615 186.648145 
" style="fill:none;stroke:#b0b0b0;stroke-linecap:square;stroke-width:0.8;"/>
     </g>
     <g id="line2d_28">
      <g>
       <use style="stroke:#000000;stroke-width:0.8;" x="44.03385" xlink:href="#me2c4d65dde" y="186.648145"/>
      </g>
     </g>
     <g id="text_15">
      <!-- 0.0 -->
      <g transform="translate(21.130725 190.447364)scale(0.1 -0.1)">
       <use xlink:href="#DejaVuSans-48"/>
       <use x="63.623047" xlink:href="#DejaVuSans-46"/>
       <use x="95.410156" xlink:href="#DejaVuSans-48"/>
      </g>
     </g>
    </g>
    <g id="ytick_6">
     <g id="line2d_29">
      <path clip-path="url(#p1bc7bb282a)" d="M 44.03385 81.700755 
L 470.04615 81.700755 
" style="fill:none;stroke:#b0b0b0;stroke-linecap:square;stroke-width:0.8;"/>
     </g>
     <g id="line2d_30">
      <g>
       <use style="stroke:#000000;stroke-width:0.8;" x="44.03385" xlink:href="#me2c4d65dde" y="81.700755"/>
      </g>
     </g>
     <g id="text_16">
      <!-- 0.5 -->
      <g transform="translate(21.130725 85.499974)scale(0.1 -0.1)">
       <use xlink:href="#DejaVuSans-48"/>
       <use x="63.623047" xlink:href="#DejaVuSans-46"/>
       <use x="95.410156" xlink:href="#DejaVuSans-53"/>
      </g>
     </g>
    </g>
    <g id="text_17">
     <!-- m -->
     <g transform="translate(6.67135 364.870313)rotate(-90)scale(0.1 -0.1)">
      <use xlink:href="#DejaVuSans-109"/>
     </g>
    </g>
   </g>
   <g id="line2d_31">
    <path clip-path="url(#p1bc7bb282a)" d="M 322.752356 117.151908 
L 191.327644 117.151908 
" style="fill:none;stroke:#ffa500;stroke-dasharray:5.55,2.4;stroke-dashoffset:0;stroke-width:1.5;"/>
   </g>
   <g id="line2d_32">
    <path clip-path="url(#p1bc7bb282a)" d="M 293.966072 186.648145 
L 220.113928 186.648145 
" style="fill:none;stroke:#808080;stroke-dasharray:5.55,2.4;stroke-dashoffset:0;stroke-width:1.5;"/>
   </g>
   <g id="line2d_33">
    <path clip-path="url(#p1bc7bb282a)" d="M 257.04 65.454545 
L 322.752356 65.454545 
L 322.752356 117.151908 
" style="fill:none;stroke:#000000;stroke-linecap:square;stroke-width:1.5;"/>
   </g>
   <g id="line2d_34">
    <path clip-path="url(#p1bc7bb282a)" d="M 257.04 65.454545 
L 191.327644 65.454545 
L 191.327644 117.151908 
" style="fill:none;stroke:#000000;stroke-linecap:square;stroke-width:1.5;"/>
   </g>
   <g id="line2d_35">
    <path clip-path="url(#p1bc7bb282a)" d="M 310.189166 147.482131 
L 310.671398 146.992107 
L 311.145714 146.494417 
L 311.611993 145.989188 
L 312.070113 145.476551 
L 312.519959 144.956636 
L 312.961413 144.429579 
L 313.394363 143.895514 
L 313.818698 143.354578 
L 314.234308 142.80691 
L 314.641087 142.252652 
L 315.03893 141.691944 
L 315.427735 141.124933 
L 315.807402 140.551762 
L 316.177833 139.97258 
L 316.538934 139.387535 
L 316.890612 138.796777 
L 317.232776 138.200459 
L 317.565338 137.598733 
L 317.888213 136.991754 
L 318.201318 136.379678 
L 318.504572 135.762663 
L 318.797899 135.140866 
L 319.081221 134.514447 
L 319.354467 133.883568 
L 319.617566 133.248391 
L 319.870451 132.609078 
L 320.113056 131.965794 
L 320.34532 131.318705 
L 320.567183 130.667975 
L 320.778587 130.013774 
L 320.979479 129.356268 
L 321.169806 128.695626 
L 321.349521 128.032019 
L 321.518576 127.365617 
L 321.676928 126.696591 
L 321.824537 126.025112 
L 321.961365 125.351354 
L 322.087376 124.67549 
L 322.202539 123.997693 
L 322.306823 123.318137 
L 322.400201 122.636996 
L 322.482651 121.954447 
L 322.55415 121.270664 
L 322.61468 120.585822 
L 322.664227 119.900099 
L 322.702776 119.213669 
L 322.730318 118.52671 
L 322.746846 117.839398 
L 322.752356 117.151908 
" style="fill:none;stroke:#000000;stroke-linecap:square;stroke-width:1.5;"/>
   </g>
   <g id="line2d_36">
    <path clip-path="url(#p1bc7bb282a)" d="M 203.890834 147.482131 
L 203.408602 146.992107 
L 202.934286 146.494417 
L 202.468007 145.989188 
L 202.009887 145.476551 
L 201.560041 144.956636 
L 201.118587 144.429579 
L 200.685637 143.895514 
L 200.261302 143.354578 
L 199.845692 142.80691 
L 199.438913 142.252652 
L 199.04107 141.691944 
L 198.652265 141.124933 
L 198.272598 140.551762 
L 197.902167 139.97258 
L 197.541066 139.387535 
L 197.189388 138.796777 
L 196.847224 138.200459 
L 196.514662 137.598733 
L 196.191787 136.991754 
L 195.878682 136.379678 
L 195.575428 135.762663 
L 195.282101 135.140866 
L 194.998779 134.514447 
L 194.725533 133.883568 
L 194.462434 133.248391 
L 194.209549 132.609078 
L 193.966944 131.965794 
L 193.73468 131.318705 
L 193.512817 130.667975 
L 193.301413 130.013774 
L 193.100521 129.356268 
L 192.910194 128.695626 
L 192.730479 128.032019 
L 192.561424 127.365617 
L 192.403072 126.696591 
L 192.255463 126.025112 
L 192.118635 125.351354 
L 191.992624 124.67549 
L 191.877461 123.997693 
L 191.773177 123.318137 
L 191.679799 122.636996 
L 191.597349 121.954447 
L 191.52585 121.270664 
L 191.46532 120.585822 
L 191.415773 119.900099 
L 191.377224 119.213669 
L 191.349682 118.52671 
L 191.333154 117.839398 
L 191.327644 117.151908 
" style="fill:none;stroke:#000000;stroke-linecap:square;stroke-width:1.5;"/>
   </g>
   <g id="line2d_37">
    <path clip-path="url(#p1bc7bb282a)" d="M 310.189166 147.482131 
L 308.604089 149.134123 
L 307.088634 150.850207 
L 305.645391 152.627451 
L 304.276825 154.462819 
L 302.985275 156.353175 
L 301.772948 158.295289 
L 300.641913 160.285844 
L 299.594105 162.321438 
L 298.631312 164.398594 
L 297.75518 166.513763 
L 296.967207 168.663331 
L 296.268737 170.843626 
L 295.660964 173.050923 
L 295.144927 175.28145 
L 294.721507 177.531398 
L 294.391428 179.796921 
L 294.155254 182.074149 
L 294.013388 184.359192 
L 293.966072 186.648145 
" style="fill:none;stroke:#000000;stroke-linecap:square;stroke-width:1.5;"/>
   </g>
   <g id="line2d_38">
    <path clip-path="url(#p1bc7bb282a)" d="M 203.890834 147.482131 
L 205.475911 149.134123 
L 206.991366 150.850207 
L 208.434609 152.627451 
L 209.803175 154.462819 
L 211.094725 156.353175 
L 212.307052 158.295289 
L 213.438087 160.285844 
L 214.485895 162.321438 
L 215.448688 164.398594 
L 216.32482 166.513763 
L 217.112793 168.663331 
L 217.811263 170.843626 
L 218.419036 173.050923 
L 218.935073 175.28145 
L 219.358493 177.531398 
L 219.688572 179.796921 
L 219.924746 182.074149 
L 220.066612 184.359192 
L 220.113928 186.648145 
" style="fill:none;stroke:#000000;stroke-linecap:square;stroke-width:1.5;"/>
   </g>
   <g id="line2d_39">
    <path clip-path="url(#p1bc7bb282a)" d="M 293.966072 186.648145 
L 293.966878 186.798988 
L 293.969298 186.949813 
L 293.97333 187.100603 
L 293.978975 187.251342 
L 293.986231 187.402012 
L 293.995098 187.552596 
L 294.005575 187.703076 
L 294.01766 187.853436 
L 294.031353 188.003658 
L 294.046651 188.153724 
L 294.063553 188.303619 
L 294.082057 188.453324 
L 294.102161 188.602823 
L 294.123863 188.752098 
L 294.147159 188.901133 
L 294.172048 189.04991 
L 294.198527 189.198413 
L 294.226592 189.346623 
L 294.25624 189.494526 
L 294.287468 189.642102 
L 294.320273 189.789337 
L 294.35465 189.936212 
L 294.390596 190.082711 
L 294.428106 190.228817 
L 294.467177 190.374514 
L 294.507803 190.519784 
L 294.549981 190.664612 
L 294.593705 190.808981 
L 294.63897 190.952874 
L 294.685772 191.096274 
L 294.734104 191.239166 
L 294.783961 191.381533 
L 294.835338 191.523358 
L 294.888229 191.664626 
L 294.942628 191.805321 
L 294.998527 191.945425 
L 295.055922 192.084924 
L 295.114806 192.223801 
L 295.175171 192.36204 
L 295.237011 192.499626 
L 295.300319 192.636543 
L 295.365087 192.772775 
L 295.431308 192.908307 
L 295.498975 193.043122 
L 295.56808 193.177207 
L 295.638614 193.310544 
L 295.710571 193.44312 
L 295.783941 193.574919 
L 295.858716 193.705926 
" style="fill:none;stroke:#000000;stroke-linecap:square;stroke-width:1.5;"/>
   </g>
   <g id="line2d_40">
    <path clip-path="url(#p1bc7bb282a)" d="M 220.113928 186.648145 
L 220.113122 186.798988 
L 220.110702 186.949813 
L 220.10667 187.100603 
L 220.101025 187.251342 
L 220.093769 187.402012 
L 220.084902 187.552596 
L 220.074425 187.703076 
L 220.06234 187.853436 
L 220.048647 188.003658 
L 220.033349 188.153724 
L 220.016447 188.303619 
L 219.997943 188.453324 
L 219.977839 188.602823 
L 219.956137 188.752098 
L 219.932841 188.901133 
L 219.907952 189.04991 
L 219.881473 189.198413 
L 219.853408 189.346623 
L 219.82376 189.494526 
L 219.792532 189.642102 
L 219.759727 189.789337 
L 219.72535 189.936212 
L 219.689404 190.082711 
L 219.651894 190.228817 
L 219.612823 190.374514 
L 219.572197 190.519784 
L 219.530019 190.664612 
L 219.486295 190.808981 
L 219.44103 190.952874 
L 219.394228 191.096274 
L 219.345896 191.239166 
L 219.296039 191.381533 
L 219.244662 191.523358 
L 219.191771 191.664626 
L 219.137372 191.805321 
L 219.081473 191.945425 
L 219.024078 192.084924 
L 218.965194 192.223801 
L 218.904829 192.36204 
L 218.842989 192.499626 
L 218.779681 192.636543 
L 218.714913 192.772775 
L 218.648692 192.908307 
L 218.581025 193.043122 
L 218.51192 193.177207 
L 218.441386 193.310544 
L 218.369429 193.44312 
L 218.296059 193.574919 
L 218.221284 193.705926 
" style="fill:none;stroke:#000000;stroke-linecap:square;stroke-width:1.5;"/>
   </g>
   <g id="line2d_41">
    <path clip-path="url(#p1bc7bb282a)" d="M 295.858716 193.705926 
L 300.563624 201.927871 
L 305.204146 210.199106 
L 309.780283 218.519631 
L 314.292034 226.889444 
L 318.7394 235.308547 
L 323.122381 243.776939 
L 327.440976 252.29462 
L 331.695185 260.861591 
L 335.88501 269.477851 
L 340.010449 278.1434 
L 344.071502 286.858239 
L 348.068171 295.622367 
L 352.000453 304.435784 
L 355.868351 313.29849 
L 359.671863 322.210485 
L 363.410989 331.17177 
L 367.08573 340.182344 
L 370.696086 349.242208 
L 374.242056 358.351361 
L 377.723641 367.509803 
L 381.140841 376.717534 
L 384.493655 385.974554 
L 387.782084 395.280864 
L 391.006127 404.636463 
L 394.165785 414.041352 
L 397.261057 423.495529 
L 400.291945 432.998996 
L 403.258446 442.551752 
L 406.160563 452.153798 
L 408.998294 461.805132 
L 411.771639 471.505756 
L 414.480599 481.25567 
L 417.125174 491.054872 
L 419.705363 500.903364 
L 422.221167 510.801145 
L 424.672586 520.748216 
L 427.059619 530.744575 
L 429.382266 540.790224 
L 431.640529 550.885162 
L 433.834406 561.02939 
L 435.963897 571.222907 
L 438.029003 581.465713 
L 440.029724 591.757808 
L 441.966059 602.099192 
L 443.838009 612.489866 
L 445.645574 622.929829 
L 447.388753 633.419082 
L 449.067546 643.957624 
L 450.681955 654.545455 
" style="fill:none;stroke:#000000;stroke-linecap:square;stroke-width:1.5;"/>
   </g>
   <g id="line2d_42">
    <path clip-path="url(#p1bc7bb282a)" d="M 218.221284 193.705926 
L 213.516376 201.927871 
L 208.875854 210.199106 
L 204.299717 218.519631 
L 199.787966 226.889444 
L 195.3406 235.308547 
L 190.957619 243.776939 
L 186.639024 252.29462 
L 182.384815 260.861591 
L 178.19499 269.477851 
L 174.069551 278.1434 
L 170.008498 286.858239 
L 166.011829 295.622367 
L 162.079547 304.435784 
L 158.211649 313.29849 
L 154.408137 322.210485 
L 150.669011 331.17177 
L 146.99427 340.182344 
L 143.383914 349.242208 
L 139.837944 358.351361 
L 136.356359 367.509803 
L 132.939159 376.717534 
L 129.586345 385.974554 
L 126.297916 395.280864 
L 123.073873 404.636463 
L 119.914215 414.041352 
L 116.818943 423.495529 
L 113.788055 432.998996 
L 110.821554 442.551752 
L 107.919437 452.153798 
L 105.081706 461.805132 
L 102.308361 471.505756 
L 99.599401 481.25567 
L 96.954826 491.054872 
L 94.374637 500.903364 
L 91.858833 510.801145 
L 89.407414 520.748216 
L 87.020381 530.744575 
L 84.697734 540.790224 
L 82.439471 550.885162 
L 80.245594 561.02939 
L 78.116103 571.222907 
L 76.050997 581.465713 
L 74.050276 591.757808 
L 72.113941 602.099192 
L 70.241991 612.489866 
L 68.434426 622.929829 
L 66.691247 633.419082 
L 65.012454 643.957624 
L 63.398045 654.545455 
" style="fill:none;stroke:#000000;stroke-linecap:square;stroke-width:1.5;"/>
   </g>
   <g id="patch_3">
    <path d="M 44.03385 684 
L 44.03385 36 
" style="fill:none;stroke:#000000;stroke-linecap:square;stroke-linejoin:miter;stroke-width:0.8;"/>
   </g>
   <g id="patch_4">
    <path d="M 470.04615 684 
L 470.04615 36 
" style="fill:none;stroke:#000000;stroke-linecap:square;stroke-linejoin:miter;stroke-width:0.8;"/>
   </g>
   <g id="patch_5">
    <path d="M 44.03385 684 
L 470.04615 684 
" style="fill:none;stroke:#000000;stroke-linecap:square;stroke-linejoin:miter;stroke-width:0.8;"/>
   </g>
   <g id="patch_6">
    <path d="M 44.03385 36 
L 470.04615 36 
" style="fill:none;stroke:#000000;stroke-linecap:square;stroke-linejoin:miter;stroke-width:0.8;"/>
   </g>
  </g>
 </g>
 <defs>
  <clipPath id="p1bc7bb282a">
   <rect height="648" width="426.0123" x="44.03385" y="36"/>
  </clipPath>
 </defs>
</svg>
