<?xml version="1.0" encoding="utf-8" standalone="no"?>
<!DOCTYPE svg PUBLIC "-//W3C//DTD SVG 1.1//EN"
  "http://www.w3.org/Graphics/SVG/1.1/DTD/svg11.dtd">
<!-- Created with matplotlib (https://matplotlib.org/) -->
<svg height="720pt" version="1.1" viewBox="0 0 504 720" width="504pt" xmlns="http://www.w3.org/2000/svg" xmlns:xlink="http://www.w3.org/1999/xlink">
 <defs>
  <style type="text/css">
*{stroke-linecap:butt;stroke-linejoin:round;}
  </style>
 </defs>
 <g id="figure_1">
  <g id="patch_1">
   <path d="M 0 720 
L 504 720 
L 504 0 
L 0 0 
z
" style="fill:#ffffff;"/>
  </g>
  <g id="axes_1">
   <g id="patch_2">
    <path d="M 45.320638 684 
L 468.759362 684 
L 468.759362 36 
L 45.320638 36 
z
" style="fill:#ffffff;"/>
   </g>
   <g id="matplotlib.axis_1">
    <g id="xtick_1">
     <g id="line2d_1">
      <path clip-path="url(#p3defc7321a)" d="M 90.627485 684 
L 90.627485 36 
" style="fill:none;stroke:#b0b0b0;stroke-linecap:square;stroke-width:0.8;"/>
     </g>
     <g id="line2d_2">
      <defs>
       <path d="M 0 0 
L 0 3.5 
" id="me439550523" style="stroke:#000000;stroke-width:0.8;"/>
      </defs>
      <g>
       <use style="stroke:#000000;stroke-width:0.8;" x="90.627485" xlink:href="#me439550523" y="684"/>
      </g>
     </g>
     <g id="text_1">
      <!-- −0.75 -->
      <defs>
       <path d="M 10.59375 35.5 
L 73.1875 35.5 
L 73.1875 27.203125 
L 10.59375 27.203125 
z
" id="DejaVuSans-8722"/>
       <path d="M 31.78125 66.40625 
Q 24.171875 66.40625 20.328125 58.90625 
Q 16.5 51.421875 16.5 36.375 
Q 16.5 21.390625 20.328125 13.890625 
Q 24.171875 6.390625 31.78125 6.390625 
Q 39.453125 6.390625 43.28125 13.890625 
Q 47.125 21.390625 47.125 36.375 
Q 47.125 51.421875 43.28125 58.90625 
Q 39.453125 66.40625 31.78125 66.40625 
z
M 31.78125 74.21875 
Q 44.046875 74.21875 50.515625 64.515625 
Q 56.984375 54.828125 56.984375 36.375 
Q 56.984375 17.96875 50.515625 8.265625 
Q 44.046875 -1.421875 31.78125 -1.421875 
Q 19.53125 -1.421875 13.0625 8.265625 
Q 6.59375 17.96875 6.59375 36.375 
Q 6.59375 54.828125 13.0625 64.515625 
Q 19.53125 74.21875 31.78125 74.21875 
z
" id="DejaVuSans-48"/>
       <path d="M 10.6875 12.40625 
L 21 12.40625 
L 21 0 
L 10.6875 0 
z
" id="DejaVuSans-46"/>
       <path d="M 8.203125 72.90625 
L 55.078125 72.90625 
L 55.078125 68.703125 
L 28.609375 0 
L 18.3125 0 
L 43.21875 64.59375 
L 8.203125 64.59375 
z
" id="DejaVuSans-55"/>
       <path d="M 10.796875 72.90625 
L 49.515625 72.90625 
L 49.515625 64.59375 
L 19.828125 64.59375 
L 19.828125 46.734375 
Q 21.96875 47.46875 24.109375 47.828125 
Q 26.265625 48.1875 28.421875 48.1875 
Q 40.625 48.1875 47.75 41.5 
Q 54.890625 34.8125 54.890625 23.390625 
Q 54.890625 11.625 47.5625 5.09375 
Q 40.234375 -1.421875 26.90625 -1.421875 
Q 22.3125 -1.421875 17.546875 -0.640625 
Q 12.796875 0.140625 7.71875 1.703125 
L 7.71875 11.625 
Q 12.109375 9.234375 16.796875 8.0625 
Q 21.484375 6.890625 26.703125 6.890625 
Q 35.15625 6.890625 40.078125 11.328125 
Q 45.015625 15.765625 45.015625 23.390625 
Q 45.015625 31 40.078125 35.4375 
Q 35.15625 39.890625 26.703125 39.890625 
Q 22.75 39.890625 18.8125 39.015625 
Q 14.890625 38.140625 10.796875 36.28125 
z
" id="DejaVuSans-53"/>
      </defs>
      <g transform="translate(75.304829 698.598438)scale(0.1 -0.1)">
       <use xlink:href="#DejaVuSans-8722"/>
       <use x="83.789062" xlink:href="#DejaVuSans-48"/>
       <use x="147.412109" xlink:href="#DejaVuSans-46"/>
       <use x="179.199219" xlink:href="#DejaVuSans-55"/>
       <use x="242.822266" xlink:href="#DejaVuSans-53"/>
      </g>
     </g>
    </g>
    <g id="xtick_2">
     <g id="line2d_3">
      <path clip-path="url(#p3defc7321a)" d="M 146.098324 684 
L 146.098324 36 
" style="fill:none;stroke:#b0b0b0;stroke-linecap:square;stroke-width:0.8;"/>
     </g>
     <g id="line2d_4">
      <g>
       <use style="stroke:#000000;stroke-width:0.8;" x="146.098324" xlink:href="#me439550523" y="684"/>
      </g>
     </g>
     <g id="text_2">
      <!-- −0.50 -->
      <g transform="translate(130.775667 698.598438)scale(0.1 -0.1)">
       <use xlink:href="#DejaVuSans-8722"/>
       <use x="83.789062" xlink:href="#DejaVuSans-48"/>
       <use x="147.412109" xlink:href="#DejaVuSans-46"/>
       <use x="179.199219" xlink:href="#DejaVuSans-53"/>
       <use x="242.822266" xlink:href="#DejaVuSans-48"/>
      </g>
     </g>
    </g>
    <g id="xtick_3">
     <g id="line2d_5">
      <path clip-path="url(#p3defc7321a)" d="M 201.569162 684 
L 201.569162 36 
" style="fill:none;stroke:#b0b0b0;stroke-linecap:square;stroke-width:0.8;"/>
     </g>
     <g id="line2d_6">
      <g>
       <use style="stroke:#000000;stroke-width:0.8;" x="201.569162" xlink:href="#me439550523" y="684"/>
      </g>
     </g>
     <g id="text_3">
      <!-- −0.25 -->
      <defs>
       <path d="M 19.1875 8.296875 
L 53.609375 8.296875 
L 53.609375 0 
L 7.328125 0 
L 7.328125 8.296875 
Q 12.9375 14.109375 22.625 23.890625 
Q 32.328125 33.6875 34.8125 36.53125 
Q 39.546875 41.84375 41.421875 45.53125 
Q 43.3125 49.21875 43.3125 52.78125 
Q 43.3125 58.59375 39.234375 62.25 
Q 35.15625 65.921875 28.609375 65.921875 
Q 23.96875 65.921875 18.8125 64.3125 
Q 13.671875 62.703125 7.8125 59.421875 
L 7.8125 69.390625 
Q 13.765625 71.78125 18.9375 73 
Q 24.125 74.21875 28.421875 74.21875 
Q 39.75 74.21875 46.484375 68.546875 
Q 53.21875 62.890625 53.21875 53.421875 
Q 53.21875 48.921875 51.53125 44.890625 
Q 49.859375 40.875 45.40625 35.40625 
Q 44.1875 33.984375 37.640625 27.21875 
Q 31.109375 20.453125 19.1875 8.296875 
z
" id="DejaVuSans-50"/>
      </defs>
      <g transform="translate(186.246506 698.598438)scale(0.1 -0.1)">
       <use xlink:href="#DejaVuSans-8722"/>
       <use x="83.789062" xlink:href="#DejaVuSans-48"/>
       <use x="147.412109" xlink:href="#DejaVuSans-46"/>
       <use x="179.199219" xlink:href="#DejaVuSans-50"/>
       <use x="242.822266" xlink:href="#DejaVuSans-53"/>
      </g>
     </g>
    </g>
    <g id="xtick_4">
     <g id="line2d_7">
      <path clip-path="url(#p3defc7321a)" d="M 257.04 684 
L 257.04 36 
" style="fill:none;stroke:#b0b0b0;stroke-linecap:square;stroke-width:0.8;"/>
     </g>
     <g id="line2d_8">
      <g>
       <use style="stroke:#000000;stroke-width:0.8;" x="257.04" xlink:href="#me439550523" y="684"/>
      </g>
     </g>
     <g id="text_4">
      <!-- 0.00 -->
      <g transform="translate(245.907187 698.598438)scale(0.1 -0.1)">
       <use xlink:href="#DejaVuSans-48"/>
       <use x="63.623047" xlink:href="#DejaVuSans-46"/>
       <use x="95.410156" xlink:href="#DejaVuSans-48"/>
       <use x="159.033203" xlink:href="#DejaVuSans-48"/>
      </g>
     </g>
    </g>
    <g id="xtick_5">
     <g id="line2d_9">
      <path clip-path="url(#p3defc7321a)" d="M 312.510838 684 
L 312.510838 36 
" style="fill:none;stroke:#b0b0b0;stroke-linecap:square;stroke-width:0.8;"/>
     </g>
     <g id="line2d_10">
      <g>
       <use style="stroke:#000000;stroke-width:0.8;" x="312.510838" xlink:href="#me439550523" y="684"/>
      </g>
     </g>
     <g id="text_5">
      <!-- 0.25 -->
      <g transform="translate(301.378026 698.598438)scale(0.1 -0.1)">
       <use xlink:href="#DejaVuSans-48"/>
       <use x="63.623047" xlink:href="#DejaVuSans-46"/>
       <use x="95.410156" xlink:href="#DejaVuSans-50"/>
       <use x="159.033203" xlink:href="#DejaVuSans-53"/>
      </g>
     </g>
    </g>
    <g id="xtick_6">
     <g id="line2d_11">
      <path clip-path="url(#p3defc7321a)" d="M 367.981676 684 
L 367.981676 36 
" style="fill:none;stroke:#b0b0b0;stroke-linecap:square;stroke-width:0.8;"/>
     </g>
     <g id="line2d_12">
      <g>
       <use style="stroke:#000000;stroke-width:0.8;" x="367.981676" xlink:href="#me439550523" y="684"/>
      </g>
     </g>
     <g id="text_6">
      <!-- 0.50 -->
      <g transform="translate(356.848864 698.598438)scale(0.1 -0.1)">
       <use xlink:href="#DejaVuSans-48"/>
       <use x="63.623047" xlink:href="#DejaVuSans-46"/>
       <use x="95.410156" xlink:href="#DejaVuSans-53"/>
       <use x="159.033203" xlink:href="#DejaVuSans-48"/>
      </g>
     </g>
    </g>
    <g id="xtick_7">
     <g id="line2d_13">
      <path clip-path="url(#p3defc7321a)" d="M 423.452515 684 
L 423.452515 36 
" style="fill:none;stroke:#b0b0b0;stroke-linecap:square;stroke-width:0.8;"/>
     </g>
     <g id="line2d_14">
      <g>
       <use style="stroke:#000000;stroke-width:0.8;" x="423.452515" xlink:href="#me439550523" y="684"/>
      </g>
     </g>
     <g id="text_7">
      <!-- 0.75 -->
      <g transform="translate(412.319702 698.598438)scale(0.1 -0.1)">
       <use xlink:href="#DejaVuSans-48"/>
       <use x="63.623047" xlink:href="#DejaVuSans-46"/>
       <use x="95.410156" xlink:href="#DejaVuSans-55"/>
       <use x="159.033203" xlink:href="#DejaVuSans-53"/>
      </g>
     </g>
    </g>
    <g id="text_8">
     <!-- m -->
     <defs>
      <path d="M 52 44.1875 
Q 55.375 50.25 60.0625 53.125 
Q 64.75 56 71.09375 56 
Q 79.640625 56 84.28125 50.015625 
Q 88.921875 44.046875 88.921875 33.015625 
L 88.921875 0 
L 79.890625 0 
L 79.890625 32.71875 
Q 79.890625 40.578125 77.09375 44.375 
Q 74.3125 48.1875 68.609375 48.1875 
Q 61.625 48.1875 57.5625 43.546875 
Q 53.515625 38.921875 53.515625 30.90625 
L 53.515625 0 
L 44.484375 0 
L 44.484375 32.71875 
Q 44.484375 40.625 41.703125 44.40625 
Q 38.921875 48.1875 33.109375 48.1875 
Q 26.21875 48.1875 22.15625 43.53125 
Q 18.109375 38.875 18.109375 30.90625 
L 18.109375 0 
L 9.078125 0 
L 9.078125 54.6875 
L 18.109375 54.6875 
L 18.109375 46.1875 
Q 21.1875 51.21875 25.484375 53.609375 
Q 29.78125 56 35.6875 56 
Q 41.65625 56 45.828125 52.96875 
Q 50 49.953125 52 44.1875 
z
" id="DejaVuSans-109"/>
     </defs>
     <g transform="translate(252.169687 712.276562)scale(0.1 -0.1)">
      <use xlink:href="#DejaVuSans-109"/>
     </g>
    </g>
   </g>
   <g id="matplotlib.axis_2">
    <g id="ytick_1">
     <g id="line2d_15">
      <path clip-path="url(#p3defc7321a)" d="M 45.320638 633.241458 
L 468.759362 633.241458 
" style="fill:none;stroke:#b0b0b0;stroke-linecap:square;stroke-width:0.8;"/>
     </g>
     <g id="line2d_16">
      <defs>
       <path d="M 0 0 
L -3.5 0 
" id="me55a0c62df" style="stroke:#000000;stroke-width:0.8;"/>
      </defs>
      <g>
       <use style="stroke:#000000;stroke-width:0.8;" x="45.320638" xlink:href="#me55a0c62df" y="633.241458"/>
      </g>
     </g>
     <g id="text_9">
      <!-- −2.0 -->
      <g transform="translate(14.037825 637.040677)scale(0.1 -0.1)">
       <use xlink:href="#DejaVuSans-8722"/>
       <use x="83.789062" xlink:href="#DejaVuSans-50"/>
       <use x="147.412109" xlink:href="#DejaVuSans-46"/>
       <use x="179.199219" xlink:href="#DejaVuSans-48"/>
      </g>
     </g>
    </g>
    <g id="ytick_2">
     <g id="line2d_17">
      <path clip-path="url(#p3defc7321a)" d="M 45.320638 522.299781 
L 468.759362 522.299781 
" style="fill:none;stroke:#b0b0b0;stroke-linecap:square;stroke-width:0.8;"/>
     </g>
     <g id="line2d_18">
      <g>
       <use style="stroke:#000000;stroke-width:0.8;" x="45.320638" xlink:href="#me55a0c62df" y="522.299781"/>
      </g>
     </g>
     <g id="text_10">
      <!-- −1.5 -->
      <defs>
       <path d="M 12.40625 8.296875 
L 28.515625 8.296875 
L 28.515625 63.921875 
L 10.984375 60.40625 
L 10.984375 69.390625 
L 28.421875 72.90625 
L 38.28125 72.90625 
L 38.28125 8.296875 
L 54.390625 8.296875 
L 54.390625 0 
L 12.40625 0 
z
" id="DejaVuSans-49"/>
      </defs>
      <g transform="translate(14.037825 526.099)scale(0.1 -0.1)">
       <use xlink:href="#DejaVuSans-8722"/>
       <use x="83.789062" xlink:href="#DejaVuSans-49"/>
       <use x="147.412109" xlink:href="#DejaVuSans-46"/>
       <use x="179.199219" xlink:href="#DejaVuSans-53"/>
      </g>
     </g>
    </g>
    <g id="ytick_3">
     <g id="line2d_19">
      <path clip-path="url(#p3defc7321a)" d="M 45.320638 411.358105 
L 468.759362 411.358105 
" style="fill:none;stroke:#b0b0b0;stroke-linecap:square;stroke-width:0.8;"/>
     </g>
     <g id="line2d_20">
      <g>
       <use style="stroke:#000000;stroke-width:0.8;" x="45.320638" xlink:href="#me55a0c62df" y="411.358105"/>
      </g>
     </g>
     <g id="text_11">
      <!-- −1.0 -->
      <g transform="translate(14.037825 415.157324)scale(0.1 -0.1)">
       <use xlink:href="#DejaVuSans-8722"/>
       <use x="83.789062" xlink:href="#DejaVuSans-49"/>
       <use x="147.412109" xlink:href="#DejaVuSans-46"/>
       <use x="179.199219" xlink:href="#DejaVuSans-48"/>
      </g>
     </g>
    </g>
    <g id="ytick_4">
     <g id="line2d_21">
      <path clip-path="url(#p3defc7321a)" d="M 45.320638 300.416429 
L 468.759362 300.416429 
" style="fill:none;stroke:#b0b0b0;stroke-linecap:square;stroke-width:0.8;"/>
     </g>
     <g id="line2d_22">
      <g>
       <use style="stroke:#000000;stroke-width:0.8;" x="45.320638" xlink:href="#me55a0c62df" y="300.416429"/>
      </g>
     </g>
     <g id="text_12">
      <!-- −0.5 -->
      <g transform="translate(14.037825 304.215647)scale(0.1 -0.1)">
       <use xlink:href="#DejaVuSans-8722"/>
       <use x="83.789062" xlink:href="#DejaVuSans-48"/>
       <use x="147.412109" xlink:href="#DejaVuSans-46"/>
       <use x="179.199219" xlink:href="#DejaVuSans-53"/>
      </g>
     </g>
    </g>
    <g id="ytick_5">
     <g id="line2d_23">
      <path clip-path="url(#p3defc7321a)" d="M 45.320638 189.474752 
L 468.759362 189.474752 
" style="fill:none;stroke:#b0b0b0;stroke-linecap:square;stroke-width:0.8;"/>
     </g>
     <g id="line2d_24">
      <g>
       <use style="stroke:#000000;stroke-width:0.8;" x="45.320638" xlink:href="#me55a0c62df" y="189.474752"/>
      </g>
     </g>
     <g id="text_13">
      <!-- 0.0 -->
      <g transform="translate(22.417513 193.273971)scale(0.1 -0.1)">
       <use xlink:href="#DejaVuSans-48"/>
       <use x="63.623047" xlink:href="#DejaVuSans-46"/>
       <use x="95.410156" xlink:href="#DejaVuSans-48"/>
      </g>
     </g>
    </g>
    <g id="ytick_6">
     <g id="line2d_25">
      <path clip-path="url(#p3defc7321a)" d="M 45.320638 78.533076 
L 468.759362 78.533076 
" style="fill:none;stroke:#b0b0b0;stroke-linecap:square;stroke-width:0.8;"/>
     </g>
     <g id="line2d_26">
      <g>
       <use style="stroke:#000000;stroke-width:0.8;" x="45.320638" xlink:href="#me55a0c62df" y="78.533076"/>
      </g>
     </g>
     <g id="text_14">
      <!-- 0.5 -->
      <g transform="translate(22.417513 82.332295)scale(0.1 -0.1)">
       <use xlink:href="#DejaVuSans-48"/>
       <use x="63.623047" xlink:href="#DejaVuSans-46"/>
       <use x="95.410156" xlink:href="#DejaVuSans-53"/>
      </g>
     </g>
    </g>
    <g id="text_15">
     <!-- m -->
     <g transform="translate(7.958138 364.870313)rotate(-90)scale(0.1 -0.1)">
      <use xlink:href="#DejaVuSans-109"/>
     </g>
    </g>
   </g>
   <g id="line2d_27">
    <path clip-path="url(#p3defc7321a)" d="M 322.743994 119.460154 
L 191.336006 119.460154 
" style="fill:none;stroke:#ffa500;stroke-dasharray:5.55,2.4;stroke-dashoffset:0;stroke-width:1.5;"/>
   </g>
   <g id="line2d_28">
    <path clip-path="url(#p3defc7321a)" d="M 293.742998 189.474752 
L 220.337002 189.474752 
" style="fill:none;stroke:#808080;stroke-dasharray:5.55,2.4;stroke-dashoffset:0;stroke-width:1.5;"/>
   </g>
   <g id="line2d_29">
    <path clip-path="url(#p3defc7321a)" d="M 257.04 65.454545 
L 322.743994 65.454545 
L 322.743994 119.460154 
" style="fill:none;stroke:#000000;stroke-linecap:square;stroke-width:1.5;"/>
   </g>
   <g id="line2d_30">
    <path clip-path="url(#p3defc7321a)" d="M 257.04 65.454545 
L 191.336006 65.454545 
L 191.336006 119.460154 
" style="fill:none;stroke:#000000;stroke-linecap:square;stroke-width:1.5;"/>
   </g>
   <g id="line2d_31">
    <path clip-path="url(#p3defc7321a)" d="M 309.868087 150.545344 
L 310.362323 150.043122 
L 310.848446 149.533043 
L 311.32633 149.015238 
L 311.795854 148.489841 
L 312.256897 147.956985 
L 312.70934 147.416809 
L 313.153067 146.86945 
L 313.587964 146.315049 
L 314.01392 145.753749 
L 314.430824 145.185694 
L 314.83857 144.61103 
L 315.237052 144.029904 
L 315.62617 143.442467 
L 316.005822 142.848868 
L 316.375911 142.24926 
L 316.736343 141.643797 
L 317.087024 141.032636 
L 317.427864 140.415932 
L 317.758776 139.793845 
L 318.079674 139.166533 
L 318.390477 138.534159 
L 318.691105 137.896885 
L 318.98148 137.254874 
L 319.261527 136.608291 
L 319.531175 135.957303 
L 319.790354 135.302077 
L 320.038999 134.642781 
L 320.277044 133.979584 
L 320.504429 133.312657 
L 320.721096 132.642171 
L 320.926988 131.968299 
L 321.122053 131.291213 
L 321.306241 130.611088 
L 321.479504 129.928098 
L 321.641798 129.242418 
L 321.793081 128.554226 
L 321.933315 127.863697 
L 322.062463 127.171009 
L 322.180492 126.476341 
L 322.287371 125.779869 
L 322.383074 125.081774 
L 322.467576 124.382235 
L 322.540855 123.681432 
L 322.602892 122.979544 
L 322.653672 122.276751 
L 322.69318 121.573235 
L 322.721408 120.869177 
L 322.738347 120.164756 
L 322.743994 119.460154 
" style="fill:none;stroke:#000000;stroke-linecap:square;stroke-width:1.5;"/>
   </g>
   <g id="line2d_32">
    <path clip-path="url(#p3defc7321a)" d="M 204.211913 150.545344 
L 203.717677 150.043122 
L 203.231554 149.533043 
L 202.75367 149.015238 
L 202.284146 148.489841 
L 201.823103 147.956985 
L 201.37066 147.416809 
L 200.926933 146.86945 
L 200.492036 146.315049 
L 200.06608 145.753749 
L 199.649176 145.185694 
L 199.24143 144.61103 
L 198.842948 144.029904 
L 198.45383 143.442467 
L 198.074178 142.848868 
L 197.704089 142.24926 
L 197.343657 141.643797 
L 196.992976 141.032636 
L 196.652136 140.415932 
L 196.321224 139.793845 
L 196.000326 139.166533 
L 195.689523 138.534159 
L 195.388895 137.896885 
L 195.09852 137.254874 
L 194.818473 136.608291 
L 194.548825 135.957303 
L 194.289646 135.302077 
L 194.041001 134.642781 
L 193.802956 133.979584 
L 193.575571 133.312657 
L 193.358904 132.642171 
L 193.153012 131.968299 
L 192.957947 131.291213 
L 192.773759 130.611088 
L 192.600496 129.928098 
L 192.438202 129.242418 
L 192.286919 128.554226 
L 192.146685 127.863697 
L 192.017537 127.171009 
L 191.899508 126.476341 
L 191.792629 125.779869 
L 191.696926 125.081774 
L 191.612424 124.382235 
L 191.539145 123.681432 
L 191.477108 122.979544 
L 191.426328 122.276751 
L 191.38682 121.573235 
L 191.358592 120.869177 
L 191.341653 120.164756 
L 191.336006 119.460154 
" style="fill:none;stroke:#000000;stroke-linecap:square;stroke-width:1.5;"/>
   </g>
   <g id="line2d_33">
    <path clip-path="url(#p3defc7321a)" d="M 309.868087 150.545344 
L 308.292586 152.187356 
L 306.786286 153.893072 
L 305.351762 155.65958 
L 303.991464 157.48386 
L 302.707716 159.362796 
L 301.502712 161.293178 
L 300.37851 163.271708 
L 299.337032 165.295005 
L 298.380056 167.359612 
L 297.509217 169.462004 
L 296.726003 171.598586 
L 296.031752 173.76571 
L 295.427651 175.959672 
L 294.914732 178.176725 
L 294.49387 180.41308 
L 294.165785 182.664917 
L 293.931037 184.928388 
L 293.790028 187.199626 
L 293.742998 189.474752 
" style="fill:none;stroke:#000000;stroke-linecap:square;stroke-width:1.5;"/>
   </g>
   <g id="line2d_34">
    <path clip-path="url(#p3defc7321a)" d="M 204.211913 150.545344 
L 205.787414 152.187356 
L 207.293714 153.893072 
L 208.728238 155.65958 
L 210.088536 157.48386 
L 211.372284 159.362796 
L 212.577288 161.293178 
L 213.70149 163.271708 
L 214.742968 165.295005 
L 215.699944 167.359612 
L 216.570783 169.462004 
L 217.353997 171.598586 
L 218.048248 173.76571 
L 218.652349 175.959672 
L 219.165268 178.176725 
L 219.58613 180.41308 
L 219.914215 182.664917 
L 220.148963 184.928388 
L 220.289972 187.199626 
L 220.337002 189.474752 
" style="fill:none;stroke:#000000;stroke-linecap:square;stroke-width:1.5;"/>
   </g>
   <g id="line2d_35">
    <path clip-path="url(#p3defc7321a)" d="M 293.742998 189.474752 
L 293.7438 189.624683 
L 293.746205 189.774597 
L 293.750213 189.924477 
L 293.755823 190.074305 
L 293.763036 190.224065 
L 293.771849 190.373739 
L 293.782263 190.52331 
L 293.794275 190.672762 
L 293.807885 190.822076 
L 293.823091 190.971236 
L 293.839891 191.120225 
L 293.858283 191.269026 
L 293.878266 191.417622 
L 293.899836 191.565995 
L 293.922992 191.71413 
L 293.94773 191.862008 
L 293.974049 192.009613 
L 294.001944 192.156929 
L 294.031413 192.303937 
L 294.062453 192.450623 
L 294.095059 192.596967 
L 294.129229 192.742955 
L 294.164958 192.888569 
L 294.202241 193.033793 
L 294.241076 193.17861 
L 294.281457 193.323003 
L 294.32338 193.466956 
L 294.36684 193.610452 
L 294.411832 193.753476 
L 294.45835 193.89601 
L 294.506391 194.038038 
L 294.555947 194.179545 
L 294.607014 194.320514 
L 294.659585 194.460928 
L 294.713655 194.600773 
L 294.769217 194.740031 
L 294.826265 194.878687 
L 294.884793 195.016725 
L 294.944793 195.154129 
L 295.006259 195.290884 
L 295.069185 195.426974 
L 295.133562 195.562383 
L 295.199383 195.697096 
L 295.266641 195.831097 
L 295.335328 195.964371 
L 295.405437 196.096903 
L 295.476959 196.228678 
L 295.549885 196.359681 
L 295.624209 196.489896 
" style="fill:none;stroke:#000000;stroke-linecap:square;stroke-width:1.5;"/>
   </g>
   <g id="line2d_36">
    <path clip-path="url(#p3defc7321a)" d="M 220.337002 189.474752 
L 220.3362 189.624683 
L 220.333795 189.774597 
L 220.329787 189.924477 
L 220.324177 190.074305 
L 220.316964 190.224065 
L 220.308151 190.373739 
L 220.297737 190.52331 
L 220.285725 190.672762 
L 220.272115 190.822076 
L 220.256909 190.971236 
L 220.240109 191.120225 
L 220.221717 191.269026 
L 220.201734 191.417622 
L 220.180164 191.565995 
L 220.157008 191.71413 
L 220.13227 191.862008 
L 220.105951 192.009613 
L 220.078056 192.156929 
L 220.048587 192.303937 
L 220.017547 192.450623 
L 219.984941 192.596967 
L 219.950771 192.742955 
L 219.915042 192.888569 
L 219.877759 193.033793 
L 219.838924 193.17861 
L 219.798543 193.323003 
L 219.75662 193.466956 
L 219.71316 193.610452 
L 219.668168 193.753476 
L 219.62165 193.89601 
L 219.573609 194.038038 
L 219.524053 194.179545 
L 219.472986 194.320514 
L 219.420415 194.460928 
L 219.366345 194.600773 
L 219.310783 194.740031 
L 219.253735 194.878687 
L 219.195207 195.016725 
L 219.135207 195.154129 
L 219.073741 195.290884 
L 219.010815 195.426974 
L 218.946438 195.562383 
L 218.880617 195.697096 
L 218.813359 195.831097 
L 218.744672 195.964371 
L 218.674563 196.096903 
L 218.603041 196.228678 
L 218.530115 196.359681 
L 218.455791 196.489896 
" style="fill:none;stroke:#000000;stroke-linecap:square;stroke-width:1.5;"/>
   </g>
   <g id="line2d_37">
    <path clip-path="url(#p3defc7321a)" d="M 295.624209 196.489896 
L 300.300694 204.662172 
L 304.913182 212.88344 
L 309.461674 221.153699 
L 313.94617 229.47295 
L 318.366669 237.841192 
L 322.723171 246.258426 
L 327.015677 254.724652 
L 331.244187 263.239869 
L 335.4087 271.804077 
L 339.509217 280.417277 
L 343.545738 289.079468 
L 347.518262 297.790651 
L 351.426789 306.550826 
L 355.27132 315.359992 
L 359.051855 324.218149 
L 362.768393 333.125298 
L 366.420935 342.081438 
L 370.00948 351.086571 
L 373.534029 360.140694 
L 376.994581 369.243809 
L 380.391137 378.395916 
L 383.723697 387.597014 
L 386.99226 396.847103 
L 390.196826 406.146184 
L 393.337397 415.494257 
L 396.41397 424.891321 
L 399.426548 434.337377 
L 402.375128 443.832424 
L 405.259713 453.376463 
L 408.080301 462.969493 
L 410.836892 472.611515 
L 413.529487 482.302528 
L 416.158086 492.042533 
L 418.722688 501.831529 
L 421.223294 511.669517 
L 423.659903 521.556496 
L 426.032516 531.492467 
L 428.341132 541.477429 
L 430.585752 551.511383 
L 432.766376 561.594328 
L 434.883003 571.726265 
L 436.935633 581.907193 
L 438.924268 592.137113 
L 440.848905 602.416025 
L 442.709547 612.743928 
L 444.506191 623.120822 
L 446.23884 633.546708 
L 447.907492 644.021586 
L 449.512147 654.545455 
" style="fill:none;stroke:#000000;stroke-linecap:square;stroke-width:1.5;"/>
   </g>
   <g id="line2d_38">
    <path clip-path="url(#p3defc7321a)" d="M 218.455791 196.489896 
L 213.779306 204.662172 
L 209.166818 212.88344 
L 204.618326 221.153699 
L 200.13383 229.47295 
L 195.713331 237.841192 
L 191.356829 246.258426 
L 187.064323 254.724652 
L 182.835813 263.239869 
L 178.6713 271.804077 
L 174.570783 280.417277 
L 170.534262 289.079468 
L 166.561738 297.790651 
L 162.653211 306.550826 
L 158.80868 315.359992 
L 155.028145 324.218149 
L 151.311607 333.125298 
L 147.659065 342.081438 
L 144.07052 351.086571 
L 140.545971 360.140694 
L 137.085419 369.243809 
L 133.688863 378.395916 
L 130.356303 387.597014 
L 127.08774 396.847103 
L 123.883174 406.146184 
L 120.742603 415.494257 
L 117.66603 424.891321 
L 114.653452 434.337377 
L 111.704872 443.832424 
L 108.820287 453.376463 
L 105.999699 462.969493 
L 103.243108 472.611515 
L 100.550513 482.302528 
L 97.921914 492.042533 
L 95.357312 501.831529 
L 92.856706 511.669517 
L 90.420097 521.556496 
L 88.047484 531.492467 
L 85.738868 541.477429 
L 83.494248 551.511383 
L 81.313624 561.594328 
L 79.196997 571.726265 
L 77.144367 581.907193 
L 75.155732 592.137113 
L 73.231095 602.416025 
L 71.370453 612.743928 
L 69.573809 623.120822 
L 67.84116 633.546708 
L 66.172508 644.021586 
L 64.567853 654.545455 
" style="fill:none;stroke:#000000;stroke-linecap:square;stroke-width:1.5;"/>
   </g>
   <g id="patch_3">
    <path d="M 45.320638 684 
L 45.320638 36 
" style="fill:none;stroke:#000000;stroke-linecap:square;stroke-linejoin:miter;stroke-width:0.8;"/>
   </g>
   <g id="patch_4">
    <path d="M 468.759362 684 
L 468.759362 36 
" style="fill:none;stroke:#000000;stroke-linecap:square;stroke-linejoin:miter;stroke-width:0.8;"/>
   </g>
   <g id="patch_5">
    <path d="M 45.320638 684 
L 468.759362 684 
" style="fill:none;stroke:#000000;stroke-linecap:square;stroke-linejoin:miter;stroke-width:0.8;"/>
   </g>
   <g id="patch_6">
    <path d="M 45.320638 36 
L 468.759362 36 
" style="fill:none;stroke:#000000;stroke-linecap:square;stroke-linejoin:miter;stroke-width:0.8;"/>
   </g>
  </g>
 </g>
 <defs>
  <clipPath id="p3defc7321a">
   <rect height="648" width="423.438724" x="45.320638" y="36"/>
  </clipPath>
 </defs>
</svg>
