<?xml version="1.0" encoding="utf-8" standalone="no"?>
<!DOCTYPE svg PUBLIC "-//W3C//DTD SVG 1.1//EN"
  "http://www.w3.org/Graphics/SVG/1.1/DTD/svg11.dtd">
<!-- Created with matplotlib (https://matplotlib.org/) -->
<svg height="720pt" version="1.1" viewBox="0 0 504 720" width="504pt" xmlns="http://www.w3.org/2000/svg" xmlns:xlink="http://www.w3.org/1999/xlink">
 <defs>
  <style type="text/css">
*{stroke-linecap:butt;stroke-linejoin:round;}
  </style>
 </defs>
 <g id="figure_1">
  <g id="patch_1">
   <path d="M 0 720 
L 504 720 
L 504 0 
L 0 0 
z
" style="fill:#ffffff;"/>
  </g>
  <g id="axes_1">
   <g id="patch_2">
    <path d="M 49.293153 684 
L 464.786847 684 
L 464.786847 36 
L 49.293153 36 
z
" style="fill:#ffffff;"/>
   </g>
   <g id="matplotlib.axis_1">
    <g id="xtick_1">
     <g id="line2d_1">
      <path clip-path="url(#p6470cc4603)" d="M 60.534545 684 
L 60.534545 36 
" style="fill:none;stroke:#b0b0b0;stroke-linecap:square;stroke-width:0.8;"/>
     </g>
     <g id="line2d_2">
      <defs>
       <path d="M 0 0 
L 0 3.5 
" id="m7ace8a8d42" style="stroke:#000000;stroke-width:0.8;"/>
      </defs>
      <g>
       <use style="stroke:#000000;stroke-width:0.8;" x="60.534545" xlink:href="#m7ace8a8d42" y="684"/>
      </g>
     </g>
     <g id="text_1">
      <!-- −1.5 -->
      <defs>
       <path d="M 10.59375 35.5 
L 73.1875 35.5 
L 73.1875 27.203125 
L 10.59375 27.203125 
z
" id="DejaVuSans-8722"/>
       <path d="M 12.40625 8.296875 
L 28.515625 8.296875 
L 28.515625 63.921875 
L 10.984375 60.40625 
L 10.984375 69.390625 
L 28.421875 72.90625 
L 38.28125 72.90625 
L 38.28125 8.296875 
L 54.390625 8.296875 
L 54.390625 0 
L 12.40625 0 
z
" id="DejaVuSans-49"/>
       <path d="M 10.6875 12.40625 
L 21 12.40625 
L 21 0 
L 10.6875 0 
z
" id="DejaVuSans-46"/>
       <path d="M 10.796875 72.90625 
L 49.515625 72.90625 
L 49.515625 64.59375 
L 19.828125 64.59375 
L 19.828125 46.734375 
Q 21.96875 47.46875 24.109375 47.828125 
Q 26.265625 48.1875 28.421875 48.1875 
Q 40.625 48.1875 47.75 41.5 
Q 54.890625 34.8125 54.890625 23.390625 
Q 54.890625 11.625 47.5625 5.09375 
Q 40.234375 -1.421875 26.90625 -1.421875 
Q 22.3125 -1.421875 17.546875 -0.640625 
Q 12.796875 0.140625 7.71875 1.703125 
L 7.71875 11.625 
Q 12.109375 9.234375 16.796875 8.0625 
Q 21.484375 6.890625 26.703125 6.890625 
Q 35.15625 6.890625 40.078125 11.328125 
Q 45.015625 15.765625 45.015625 23.390625 
Q 45.015625 31 40.078125 35.4375 
Q 35.15625 39.890625 26.703125 39.890625 
Q 22.75 39.890625 18.8125 39.015625 
Q 14.890625 38.140625 10.796875 36.28125 
z
" id="DejaVuSans-53"/>
      </defs>
      <g transform="translate(48.393139 698.598438)scale(0.1 -0.1)">
       <use xlink:href="#DejaVuSans-8722"/>
       <use x="83.789062" xlink:href="#DejaVuSans-49"/>
       <use x="147.412109" xlink:href="#DejaVuSans-46"/>
       <use x="179.199219" xlink:href="#DejaVuSans-53"/>
      </g>
     </g>
    </g>
    <g id="xtick_2">
     <g id="line2d_3">
      <path clip-path="url(#p6470cc4603)" d="M 126.036363 684 
L 126.036363 36 
" style="fill:none;stroke:#b0b0b0;stroke-linecap:square;stroke-width:0.8;"/>
     </g>
     <g id="line2d_4">
      <g>
       <use style="stroke:#000000;stroke-width:0.8;" x="126.036363" xlink:href="#m7ace8a8d42" y="684"/>
      </g>
     </g>
     <g id="text_2">
      <!-- −1.0 -->
      <defs>
       <path d="M 31.78125 66.40625 
Q 24.171875 66.40625 20.328125 58.90625 
Q 16.5 51.421875 16.5 36.375 
Q 16.5 21.390625 20.328125 13.890625 
Q 24.171875 6.390625 31.78125 6.390625 
Q 39.453125 6.390625 43.28125 13.890625 
Q 47.125 21.390625 47.125 36.375 
Q 47.125 51.421875 43.28125 58.90625 
Q 39.453125 66.40625 31.78125 66.40625 
z
M 31.78125 74.21875 
Q 44.046875 74.21875 50.515625 64.515625 
Q 56.984375 54.828125 56.984375 36.375 
Q 56.984375 17.96875 50.515625 8.265625 
Q 44.046875 -1.421875 31.78125 -1.421875 
Q 19.53125 -1.421875 13.0625 8.265625 
Q 6.59375 17.96875 6.59375 36.375 
Q 6.59375 54.828125 13.0625 64.515625 
Q 19.53125 74.21875 31.78125 74.21875 
z
" id="DejaVuSans-48"/>
      </defs>
      <g transform="translate(113.894957 698.598438)scale(0.1 -0.1)">
       <use xlink:href="#DejaVuSans-8722"/>
       <use x="83.789062" xlink:href="#DejaVuSans-49"/>
       <use x="147.412109" xlink:href="#DejaVuSans-46"/>
       <use x="179.199219" xlink:href="#DejaVuSans-48"/>
      </g>
     </g>
    </g>
    <g id="xtick_3">
     <g id="line2d_5">
      <path clip-path="url(#p6470cc4603)" d="M 191.538182 684 
L 191.538182 36 
" style="fill:none;stroke:#b0b0b0;stroke-linecap:square;stroke-width:0.8;"/>
     </g>
     <g id="line2d_6">
      <g>
       <use style="stroke:#000000;stroke-width:0.8;" x="191.538182" xlink:href="#m7ace8a8d42" y="684"/>
      </g>
     </g>
     <g id="text_3">
      <!-- −0.5 -->
      <g transform="translate(179.396775 698.598438)scale(0.1 -0.1)">
       <use xlink:href="#DejaVuSans-8722"/>
       <use x="83.789062" xlink:href="#DejaVuSans-48"/>
       <use x="147.412109" xlink:href="#DejaVuSans-46"/>
       <use x="179.199219" xlink:href="#DejaVuSans-53"/>
      </g>
     </g>
    </g>
    <g id="xtick_4">
     <g id="line2d_7">
      <path clip-path="url(#p6470cc4603)" d="M 257.04 684 
L 257.04 36 
" style="fill:none;stroke:#b0b0b0;stroke-linecap:square;stroke-width:0.8;"/>
     </g>
     <g id="line2d_8">
      <g>
       <use style="stroke:#000000;stroke-width:0.8;" x="257.04" xlink:href="#m7ace8a8d42" y="684"/>
      </g>
     </g>
     <g id="text_4">
      <!-- 0.0 -->
      <g transform="translate(249.088438 698.598438)scale(0.1 -0.1)">
       <use xlink:href="#DejaVuSans-48"/>
       <use x="63.623047" xlink:href="#DejaVuSans-46"/>
       <use x="95.410156" xlink:href="#DejaVuSans-48"/>
      </g>
     </g>
    </g>
    <g id="xtick_5">
     <g id="line2d_9">
      <path clip-path="url(#p6470cc4603)" d="M 322.541818 684 
L 322.541818 36 
" style="fill:none;stroke:#b0b0b0;stroke-linecap:square;stroke-width:0.8;"/>
     </g>
     <g id="line2d_10">
      <g>
       <use style="stroke:#000000;stroke-width:0.8;" x="322.541818" xlink:href="#m7ace8a8d42" y="684"/>
      </g>
     </g>
     <g id="text_5">
      <!-- 0.5 -->
      <g transform="translate(314.590256 698.598438)scale(0.1 -0.1)">
       <use xlink:href="#DejaVuSans-48"/>
       <use x="63.623047" xlink:href="#DejaVuSans-46"/>
       <use x="95.410156" xlink:href="#DejaVuSans-53"/>
      </g>
     </g>
    </g>
    <g id="xtick_6">
     <g id="line2d_11">
      <path clip-path="url(#p6470cc4603)" d="M 388.043637 684 
L 388.043637 36 
" style="fill:none;stroke:#b0b0b0;stroke-linecap:square;stroke-width:0.8;"/>
     </g>
     <g id="line2d_12">
      <g>
       <use style="stroke:#000000;stroke-width:0.8;" x="388.043637" xlink:href="#m7ace8a8d42" y="684"/>
      </g>
     </g>
     <g id="text_6">
      <!-- 1.0 -->
      <g transform="translate(380.092074 698.598438)scale(0.1 -0.1)">
       <use xlink:href="#DejaVuSans-49"/>
       <use x="63.623047" xlink:href="#DejaVuSans-46"/>
       <use x="95.410156" xlink:href="#DejaVuSans-48"/>
      </g>
     </g>
    </g>
    <g id="xtick_7">
     <g id="line2d_13">
      <path clip-path="url(#p6470cc4603)" d="M 453.545455 684 
L 453.545455 36 
" style="fill:none;stroke:#b0b0b0;stroke-linecap:square;stroke-width:0.8;"/>
     </g>
     <g id="line2d_14">
      <g>
       <use style="stroke:#000000;stroke-width:0.8;" x="453.545455" xlink:href="#m7ace8a8d42" y="684"/>
      </g>
     </g>
     <g id="text_7">
      <!-- 1.5 -->
      <g transform="translate(445.593893 698.598438)scale(0.1 -0.1)">
       <use xlink:href="#DejaVuSans-49"/>
       <use x="63.623047" xlink:href="#DejaVuSans-46"/>
       <use x="95.410156" xlink:href="#DejaVuSans-53"/>
      </g>
     </g>
    </g>
    <g id="text_8">
     <!-- m -->
     <defs>
      <path d="M 52 44.1875 
Q 55.375 50.25 60.0625 53.125 
Q 64.75 56 71.09375 56 
Q 79.640625 56 84.28125 50.015625 
Q 88.921875 44.046875 88.921875 33.015625 
L 88.921875 0 
L 79.890625 0 
L 79.890625 32.71875 
Q 79.890625 40.578125 77.09375 44.375 
Q 74.3125 48.1875 68.609375 48.1875 
Q 61.625 48.1875 57.5625 43.546875 
Q 53.515625 38.921875 53.515625 30.90625 
L 53.515625 0 
L 44.484375 0 
L 44.484375 32.71875 
Q 44.484375 40.625 41.703125 44.40625 
Q 38.921875 48.1875 33.109375 48.1875 
Q 26.21875 48.1875 22.15625 43.53125 
Q 18.109375 38.875 18.109375 30.90625 
L 18.109375 0 
L 9.078125 0 
L 9.078125 54.6875 
L 18.109375 54.6875 
L 18.109375 46.1875 
Q 21.1875 51.21875 25.484375 53.609375 
Q 29.78125 56 35.6875 56 
Q 41.65625 56 45.828125 52.96875 
Q 50 49.953125 52 44.1875 
z
" id="DejaVuSans-109"/>
     </defs>
     <g transform="translate(252.169688 712.276562)scale(0.1 -0.1)">
      <use xlink:href="#DejaVuSans-109"/>
     </g>
    </g>
   </g>
   <g id="matplotlib.axis_2">
    <g id="ytick_1">
     <g id="line2d_15">
      <path clip-path="url(#p6470cc4603)" d="M 49.293153 658.586861 
L 464.786847 658.586861 
" style="fill:none;stroke:#b0b0b0;stroke-linecap:square;stroke-width:0.8;"/>
     </g>
     <g id="line2d_16">
      <defs>
       <path d="M 0 0 
L -3.5 0 
" id="m996d3f6861" style="stroke:#000000;stroke-width:0.8;"/>
      </defs>
      <g>
       <use style="stroke:#000000;stroke-width:0.8;" x="49.293153" xlink:href="#m996d3f6861" y="658.586861"/>
      </g>
     </g>
     <g id="text_9">
      <!-- −4 -->
      <defs>
       <path d="M 37.796875 64.3125 
L 12.890625 25.390625 
L 37.796875 25.390625 
z
M 35.203125 72.90625 
L 47.609375 72.90625 
L 47.609375 25.390625 
L 58.015625 25.390625 
L 58.015625 17.1875 
L 47.609375 17.1875 
L 47.609375 0 
L 37.796875 0 
L 37.796875 17.1875 
L 4.890625 17.1875 
L 4.890625 26.703125 
z
" id="DejaVuSans-52"/>
      </defs>
      <g transform="translate(27.550966 662.38608)scale(0.1 -0.1)">
       <use xlink:href="#DejaVuSans-8722"/>
       <use x="83.789062" xlink:href="#DejaVuSans-52"/>
      </g>
     </g>
    </g>
    <g id="ytick_2">
     <g id="line2d_17">
      <path clip-path="url(#p6470cc4603)" d="M 49.293153 527.583225 
L 464.786847 527.583225 
" style="fill:none;stroke:#b0b0b0;stroke-linecap:square;stroke-width:0.8;"/>
     </g>
     <g id="line2d_18">
      <g>
       <use style="stroke:#000000;stroke-width:0.8;" x="49.293153" xlink:href="#m996d3f6861" y="527.583225"/>
      </g>
     </g>
     <g id="text_10">
      <!-- −3 -->
      <defs>
       <path d="M 40.578125 39.3125 
Q 47.65625 37.796875 51.625 33 
Q 55.609375 28.21875 55.609375 21.1875 
Q 55.609375 10.40625 48.1875 4.484375 
Q 40.765625 -1.421875 27.09375 -1.421875 
Q 22.515625 -1.421875 17.65625 -0.515625 
Q 12.796875 0.390625 7.625 2.203125 
L 7.625 11.71875 
Q 11.71875 9.328125 16.59375 8.109375 
Q 21.484375 6.890625 26.8125 6.890625 
Q 36.078125 6.890625 40.9375 10.546875 
Q 45.796875 14.203125 45.796875 21.1875 
Q 45.796875 27.640625 41.28125 31.265625 
Q 36.765625 34.90625 28.71875 34.90625 
L 20.21875 34.90625 
L 20.21875 43.015625 
L 29.109375 43.015625 
Q 36.375 43.015625 40.234375 45.921875 
Q 44.09375 48.828125 44.09375 54.296875 
Q 44.09375 59.90625 40.109375 62.90625 
Q 36.140625 65.921875 28.71875 65.921875 
Q 24.65625 65.921875 20.015625 65.03125 
Q 15.375 64.15625 9.8125 62.3125 
L 9.8125 71.09375 
Q 15.4375 72.65625 20.34375 73.4375 
Q 25.25 74.21875 29.59375 74.21875 
Q 40.828125 74.21875 47.359375 69.109375 
Q 53.90625 64.015625 53.90625 55.328125 
Q 53.90625 49.265625 50.4375 45.09375 
Q 46.96875 40.921875 40.578125 39.3125 
z
" id="DejaVuSans-51"/>
      </defs>
      <g transform="translate(27.550966 531.382443)scale(0.1 -0.1)">
       <use xlink:href="#DejaVuSans-8722"/>
       <use x="83.789062" xlink:href="#DejaVuSans-51"/>
      </g>
     </g>
    </g>
    <g id="ytick_3">
     <g id="line2d_19">
      <path clip-path="url(#p6470cc4603)" d="M 49.293153 396.579588 
L 464.786847 396.579588 
" style="fill:none;stroke:#b0b0b0;stroke-linecap:square;stroke-width:0.8;"/>
     </g>
     <g id="line2d_20">
      <g>
       <use style="stroke:#000000;stroke-width:0.8;" x="49.293153" xlink:href="#m996d3f6861" y="396.579588"/>
      </g>
     </g>
     <g id="text_11">
      <!-- −2 -->
      <defs>
       <path d="M 19.1875 8.296875 
L 53.609375 8.296875 
L 53.609375 0 
L 7.328125 0 
L 7.328125 8.296875 
Q 12.9375 14.109375 22.625 23.890625 
Q 32.328125 33.6875 34.8125 36.53125 
Q 39.546875 41.84375 41.421875 45.53125 
Q 43.3125 49.21875 43.3125 52.78125 
Q 43.3125 58.59375 39.234375 62.25 
Q 35.15625 65.921875 28.609375 65.921875 
Q 23.96875 65.921875 18.8125 64.3125 
Q 13.671875 62.703125 7.8125 59.421875 
L 7.8125 69.390625 
Q 13.765625 71.78125 18.9375 73 
Q 24.125 74.21875 28.421875 74.21875 
Q 39.75 74.21875 46.484375 68.546875 
Q 53.21875 62.890625 53.21875 53.421875 
Q 53.21875 48.921875 51.53125 44.890625 
Q 49.859375 40.875 45.40625 35.40625 
Q 44.1875 33.984375 37.640625 27.21875 
Q 31.109375 20.453125 19.1875 8.296875 
z
" id="DejaVuSans-50"/>
      </defs>
      <g transform="translate(27.550966 400.378807)scale(0.1 -0.1)">
       <use xlink:href="#DejaVuSans-8722"/>
       <use x="83.789062" xlink:href="#DejaVuSans-50"/>
      </g>
     </g>
    </g>
    <g id="ytick_4">
     <g id="line2d_21">
      <path clip-path="url(#p6470cc4603)" d="M 49.293153 265.575951 
L 464.786847 265.575951 
" style="fill:none;stroke:#b0b0b0;stroke-linecap:square;stroke-width:0.8;"/>
     </g>
     <g id="line2d_22">
      <g>
       <use style="stroke:#000000;stroke-width:0.8;" x="49.293153" xlink:href="#m996d3f6861" y="265.575951"/>
      </g>
     </g>
     <g id="text_12">
      <!-- −1 -->
      <g transform="translate(27.550966 269.37517)scale(0.1 -0.1)">
       <use xlink:href="#DejaVuSans-8722"/>
       <use x="83.789062" xlink:href="#DejaVuSans-49"/>
      </g>
     </g>
    </g>
    <g id="ytick_5">
     <g id="line2d_23">
      <path clip-path="url(#p6470cc4603)" d="M 49.293153 134.572314 
L 464.786847 134.572314 
" style="fill:none;stroke:#b0b0b0;stroke-linecap:square;stroke-width:0.8;"/>
     </g>
     <g id="line2d_24">
      <g>
       <use style="stroke:#000000;stroke-width:0.8;" x="49.293153" xlink:href="#m996d3f6861" y="134.572314"/>
      </g>
     </g>
     <g id="text_13">
      <!-- 0 -->
      <g transform="translate(35.930653 138.371533)scale(0.1 -0.1)">
       <use xlink:href="#DejaVuSans-48"/>
      </g>
     </g>
    </g>
    <g id="text_14">
     <!-- m -->
     <g transform="translate(21.471278 364.870313)rotate(-90)scale(0.1 -0.1)">
      <use xlink:href="#DejaVuSans-109"/>
     </g>
    </g>
   </g>
   <g id="line2d_25">
    <path clip-path="url(#p6470cc4603)" d="M 283.100981 107.151218 
L 230.979019 107.151218 
" style="fill:none;stroke:#ffa500;stroke-dasharray:5.55,2.4;stroke-dashoffset:0;stroke-width:1.5;"/>
   </g>
   <g id="line2d_26">
    <path clip-path="url(#p6470cc4603)" d="M 271.742791 134.572314 
L 242.337209 134.572314 
" style="fill:none;stroke:#808080;stroke-dasharray:5.55,2.4;stroke-dashoffset:0;stroke-width:1.5;"/>
   </g>
   <g id="line2d_27">
    <path clip-path="url(#p6470cc4603)" d="M 257.04 65.454545 
L 283.100981 65.454545 
L 283.100981 107.151218 
" style="fill:none;stroke:#000000;stroke-linecap:square;stroke-width:1.5;"/>
   </g>
   <g id="line2d_28">
    <path clip-path="url(#p6470cc4603)" d="M 257.04 65.454545 
L 230.979019 65.454545 
L 230.979019 107.151218 
" style="fill:none;stroke:#000000;stroke-linecap:square;stroke-width:1.5;"/>
   </g>
   <g id="line2d_29">
    <path clip-path="url(#p6470cc4603)" d="M 278.202313 118.97765 
L 278.390346 118.786578 
L 278.575292 118.592518 
L 278.757105 118.395518 
L 278.935736 118.195629 
L 279.111141 117.992903 
L 279.283274 117.787391 
L 279.452091 117.579147 
L 279.617548 117.368224 
L 279.779604 117.154676 
L 279.938216 116.938558 
L 280.093344 116.719926 
L 280.244948 116.498836 
L 280.392988 116.275344 
L 280.537428 116.049508 
L 280.678229 115.821385 
L 280.815356 115.591036 
L 280.948774 115.358518 
L 281.078447 115.123892 
L 281.204343 114.887217 
L 281.32643 114.648555 
L 281.444675 114.407967 
L 281.55905 114.165514 
L 281.669524 113.92126 
L 281.776068 113.675266 
L 281.878657 113.427596 
L 281.977262 113.178314 
L 282.071859 112.927483 
L 282.162424 112.675168 
L 282.248933 112.421434 
L 282.331365 112.166346 
L 282.409697 111.90997 
L 282.48391 111.652371 
L 282.553984 111.393616 
L 282.619903 111.133771 
L 282.681648 110.872903 
L 282.739204 110.611078 
L 282.792556 110.348365 
L 282.841691 110.08483 
L 282.886595 109.820542 
L 282.927258 109.555568 
L 282.963668 109.289976 
L 282.995817 109.023835 
L 283.023696 108.757212 
L 283.047298 108.490177 
L 283.066618 108.222799 
L 283.081649 107.955144 
L 283.092388 107.687284 
L 283.098833 107.419285 
L 283.100981 107.151218 
" style="fill:none;stroke:#000000;stroke-linecap:square;stroke-width:1.5;"/>
   </g>
   <g id="line2d_30">
    <path clip-path="url(#p6470cc4603)" d="M 235.877687 118.97765 
L 235.689654 118.786578 
L 235.504708 118.592518 
L 235.322895 118.395518 
L 235.144264 118.195629 
L 234.968859 117.992903 
L 234.796726 117.787391 
L 234.627909 117.579147 
L 234.462452 117.368224 
L 234.300396 117.154676 
L 234.141784 116.938558 
L 233.986656 116.719926 
L 233.835052 116.498836 
L 233.687012 116.275344 
L 233.542572 116.049508 
L 233.401771 115.821385 
L 233.264644 115.591036 
L 233.131226 115.358518 
L 233.001553 115.123892 
L 232.875657 114.887217 
L 232.75357 114.648555 
L 232.635325 114.407967 
L 232.52095 114.165514 
L 232.410476 113.92126 
L 232.303932 113.675266 
L 232.201343 113.427596 
L 232.102738 113.178314 
L 232.008141 112.927483 
L 231.917576 112.675168 
L 231.831067 112.421434 
L 231.748635 112.166346 
L 231.670303 111.90997 
L 231.59609 111.652371 
L 231.526016 111.393616 
L 231.460097 111.133771 
L 231.398352 110.872903 
L 231.340796 110.611078 
L 231.287444 110.348365 
L 231.238309 110.08483 
L 231.193405 109.820542 
L 231.152742 109.555568 
L 231.116332 109.289976 
L 231.084183 109.023835 
L 231.056304 108.757212 
L 231.032702 108.490177 
L 231.013382 108.222799 
L 230.998351 107.955144 
L 230.987612 107.687284 
L 230.981167 107.419285 
L 230.979019 107.151218 
" style="fill:none;stroke:#000000;stroke-linecap:square;stroke-width:1.5;"/>
   </g>
   <g id="line2d_31">
    <path clip-path="url(#p6470cc4603)" d="M 278.202313 118.97765 
L 277.571185 119.63542 
L 276.967779 120.31871 
L 276.393126 121.026353 
L 275.848206 121.757138 
L 275.333952 122.509818 
L 274.851241 123.283106 
L 274.400899 124.075682 
L 273.983695 124.886191 
L 273.600342 125.713249 
L 273.251494 126.555442 
L 272.937748 127.411332 
L 272.659639 128.279456 
L 272.417643 129.158332 
L 272.212174 130.046457 
L 272.043581 130.942315 
L 271.912154 131.844374 
L 271.818117 132.751094 
L 271.761631 133.660926 
L 271.742791 134.572314 
" style="fill:none;stroke:#000000;stroke-linecap:square;stroke-width:1.5;"/>
   </g>
   <g id="line2d_32">
    <path clip-path="url(#p6470cc4603)" d="M 235.877687 118.97765 
L 236.508815 119.63542 
L 237.112221 120.31871 
L 237.686874 121.026353 
L 238.231794 121.757138 
L 238.746048 122.509818 
L 239.228759 123.283106 
L 239.679101 124.075682 
L 240.096305 124.886191 
L 240.479658 125.713249 
L 240.828506 126.555442 
L 241.142252 127.411332 
L 241.420361 128.279456 
L 241.662357 129.158332 
L 241.867826 130.046457 
L 242.036419 130.942315 
L 242.167846 131.844374 
L 242.261883 132.751094 
L 242.318369 133.660926 
L 242.337209 134.572314 
" style="fill:none;stroke:#000000;stroke-linecap:square;stroke-width:1.5;"/>
   </g>
   <g id="line2d_33">
    <path clip-path="url(#p6470cc4603)" d="M 271.742791 134.572314 
L 271.743202 134.640283 
L 271.744436 134.708242 
L 271.746492 134.776182 
L 271.74937 134.844091 
L 271.75307 134.91196 
L 271.757591 134.97978 
L 271.762932 135.04754 
L 271.769093 135.115231 
L 271.776073 135.182842 
L 271.78387 135.250363 
L 271.792484 135.317786 
L 271.801913 135.385099 
L 271.812156 135.452293 
L 271.823212 135.519358 
L 271.835078 135.586284 
L 271.847753 135.653062 
L 271.861236 135.719682 
L 271.875524 135.786134 
L 271.890614 135.852408 
L 271.906506 135.918494 
L 271.923197 135.984383 
L 271.940683 136.050066 
L 271.958963 136.115532 
L 271.978034 136.180772 
L 271.997894 136.245776 
L 272.018538 136.310535 
L 272.039965 136.37504 
L 272.06217 136.439281 
L 272.085152 136.503248 
L 272.108906 136.566932 
L 272.133429 136.630325 
L 272.158717 136.693416 
L 272.184767 136.756196 
L 272.211574 136.818657 
L 272.239136 136.880788 
L 272.267447 136.942581 
L 272.296505 137.004028 
L 272.326303 137.065118 
L 272.356839 137.125843 
L 272.388108 137.186194 
L 272.420104 137.246162 
L 272.452824 137.305738 
L 272.486263 137.364915 
L 272.520415 137.423682 
L 272.555276 137.482031 
L 272.59084 137.539955 
L 272.627103 137.597444 
L 272.664059 137.65449 
L 272.701702 137.711084 
" style="fill:none;stroke:#000000;stroke-linecap:square;stroke-width:1.5;"/>
   </g>
   <g id="line2d_34">
    <path clip-path="url(#p6470cc4603)" d="M 242.337209 134.572314 
L 242.336798 134.640283 
L 242.335564 134.708242 
L 242.333508 134.776182 
L 242.33063 134.844091 
L 242.32693 134.91196 
L 242.322409 134.97978 
L 242.317068 135.04754 
L 242.310907 135.115231 
L 242.303927 135.182842 
L 242.29613 135.250363 
L 242.287516 135.317786 
L 242.278087 135.385099 
L 242.267844 135.452293 
L 242.256788 135.519358 
L 242.244922 135.586284 
L 242.232247 135.653062 
L 242.218764 135.719682 
L 242.204476 135.786134 
L 242.189386 135.852408 
L 242.173494 135.918494 
L 242.156803 135.984383 
L 242.139317 136.050066 
L 242.121037 136.115532 
L 242.101966 136.180772 
L 242.082106 136.245776 
L 242.061462 136.310535 
L 242.040035 136.37504 
L 242.01783 136.439281 
L 241.994848 136.503248 
L 241.971094 136.566932 
L 241.946571 136.630325 
L 241.921283 136.693416 
L 241.895233 136.756196 
L 241.868426 136.818657 
L 241.840864 136.880788 
L 241.812553 136.942581 
L 241.783495 137.004028 
L 241.753697 137.065118 
L 241.723161 137.125843 
L 241.691892 137.186194 
L 241.659896 137.246162 
L 241.627176 137.305738 
L 241.593737 137.364915 
L 241.559585 137.423682 
L 241.524724 137.482031 
L 241.48916 137.539955 
L 241.452897 137.597444 
L 241.415941 137.65449 
L 241.378298 137.711084 
" style="fill:none;stroke:#000000;stroke-linecap:square;stroke-width:1.5;"/>
   </g>
   <g id="line2d_35">
    <path clip-path="url(#p6470cc4603)" d="M 272.701702 137.711084 
L 278.141875 145.891859 
L 283.502652 154.171254 
L 288.784033 162.549268 
L 293.986018 171.025902 
L 299.108608 179.601155 
L 304.151802 188.275027 
L 309.1156 197.047519 
L 314.000003 205.91863 
L 318.805009 214.88836 
L 323.53062 223.95671 
L 328.176836 233.123679 
L 332.743655 242.389267 
L 337.231079 251.753475 
L 341.639107 261.216302 
L 345.967739 270.777749 
L 350.216976 280.437815 
L 354.386817 290.1965 
L 358.477262 300.053805 
L 362.488311 310.009729 
L 366.419964 320.064272 
L 370.272222 330.217435 
L 374.045084 340.469217 
L 377.738551 350.819618 
L 381.352621 361.268639 
L 384.887296 371.816279 
L 388.342575 382.462539 
L 391.718459 393.207418 
L 395.014946 404.050916 
L 398.232038 414.993034 
L 401.369734 426.033771 
L 404.428035 437.173127 
L 407.406939 448.411103 
L 410.306448 459.747698 
L 413.126561 471.182913 
L 415.867279 482.716747 
L 418.5286 494.3492 
L 421.110526 506.080273 
L 423.613057 517.909965 
L 426.036191 529.838276 
L 428.37993 541.865207 
L 430.644273 553.990757 
L 432.82922 566.214926 
L 434.934771 578.537715 
L 436.960927 590.959123 
L 438.907687 603.479151 
L 440.775051 616.097798 
L 442.56302 628.815064 
L 444.271593 641.63095 
L 445.90077 654.545455 
" style="fill:none;stroke:#000000;stroke-linecap:square;stroke-width:1.5;"/>
   </g>
   <g id="line2d_36">
    <path clip-path="url(#p6470cc4603)" d="M 241.378298 137.711084 
L 235.938125 145.891859 
L 230.577348 154.171254 
L 225.295967 162.549268 
L 220.093982 171.025902 
L 214.971392 179.601155 
L 209.928198 188.275027 
L 204.9644 197.047519 
L 200.079997 205.91863 
L 195.274991 214.88836 
L 190.54938 223.95671 
L 185.903164 233.123679 
L 181.336345 242.389267 
L 176.848921 251.753475 
L 172.440893 261.216302 
L 168.112261 270.777749 
L 163.863024 280.437815 
L 159.693183 290.1965 
L 155.602738 300.053805 
L 151.591689 310.009729 
L 147.660036 320.064272 
L 143.807778 330.217435 
L 140.034916 340.469217 
L 136.341449 350.819618 
L 132.727379 361.268639 
L 129.192704 371.816279 
L 125.737425 382.462539 
L 122.361541 393.207418 
L 119.065054 404.050916 
L 115.847962 414.993034 
L 112.710266 426.033771 
L 109.651965 437.173127 
L 106.673061 448.411103 
L 103.773552 459.747698 
L 100.953439 471.182913 
L 98.212721 482.716747 
L 95.5514 494.3492 
L 92.969474 506.080273 
L 90.466943 517.909965 
L 88.043809 529.838276 
L 85.70007 541.865207 
L 83.435727 553.990757 
L 81.25078 566.214926 
L 79.145229 578.537715 
L 77.119073 590.959123 
L 75.172313 603.479151 
L 73.304949 616.097798 
L 71.51698 628.815064 
L 69.808407 641.63095 
L 68.17923 654.545455 
" style="fill:none;stroke:#000000;stroke-linecap:square;stroke-width:1.5;"/>
   </g>
   <g id="patch_3">
    <path d="M 49.293153 684 
L 49.293153 36 
" style="fill:none;stroke:#000000;stroke-linecap:square;stroke-linejoin:miter;stroke-width:0.8;"/>
   </g>
   <g id="patch_4">
    <path d="M 464.786847 684 
L 464.786847 36 
" style="fill:none;stroke:#000000;stroke-linecap:square;stroke-linejoin:miter;stroke-width:0.8;"/>
   </g>
   <g id="patch_5">
    <path d="M 49.293153 684 
L 464.786847 684 
" style="fill:none;stroke:#000000;stroke-linecap:square;stroke-linejoin:miter;stroke-width:0.8;"/>
   </g>
   <g id="patch_6">
    <path d="M 49.293153 36 
L 464.786847 36 
" style="fill:none;stroke:#000000;stroke-linecap:square;stroke-linejoin:miter;stroke-width:0.8;"/>
   </g>
  </g>
 </g>
 <defs>
  <clipPath id="p6470cc4603">
   <rect height="648" width="415.493693" x="49.293153" y="36"/>
  </clipPath>
 </defs>
</svg>
