<?xml version="1.0" encoding="utf-8" standalone="no"?>
<!DOCTYPE svg PUBLIC "-//W3C//DTD SVG 1.1//EN"
  "http://www.w3.org/Graphics/SVG/1.1/DTD/svg11.dtd">
<!-- Created with matplotlib (https://matplotlib.org/) -->
<svg height="720pt" version="1.1" viewBox="0 0 504 720" width="504pt" xmlns="http://www.w3.org/2000/svg" xmlns:xlink="http://www.w3.org/1999/xlink">
 <defs>
  <style type="text/css">
*{stroke-linecap:butt;stroke-linejoin:round;}
  </style>
 </defs>
 <g id="figure_1">
  <g id="patch_1">
   <path d="M 0 720 
L 504 720 
L 504 0 
L 0 0 
z
" style="fill:#ffffff;"/>
  </g>
  <g id="axes_1">
   <g id="patch_2">
    <path d="M 64.633053 684 
L 449.446947 684 
L 449.446947 36 
L 64.633053 36 
z
" style="fill:#ffffff;"/>
   </g>
   <g id="matplotlib.axis_1">
    <g id="xtick_1">
     <g id="line2d_1">
      <path clip-path="url(#pa4c6ec590f)" d="M 113.338959 684 
L 113.338959 36 
" style="fill:none;stroke:#b0b0b0;stroke-linecap:square;stroke-width:0.8;"/>
     </g>
     <g id="line2d_2">
      <defs>
       <path d="M 0 0 
L 0 3.5 
" id="m1356786f1c" style="stroke:#000000;stroke-width:0.8;"/>
      </defs>
      <g>
       <use style="stroke:#000000;stroke-width:0.8;" x="113.338959" xlink:href="#m1356786f1c" y="684"/>
      </g>
     </g>
     <g id="text_1">
      <!-- −0.4 -->
      <defs>
       <path d="M 10.59375 35.5 
L 73.1875 35.5 
L 73.1875 27.203125 
L 10.59375 27.203125 
z
" id="DejaVuSans-8722"/>
       <path d="M 31.78125 66.40625 
Q 24.171875 66.40625 20.328125 58.90625 
Q 16.5 51.421875 16.5 36.375 
Q 16.5 21.390625 20.328125 13.890625 
Q 24.171875 6.390625 31.78125 6.390625 
Q 39.453125 6.390625 43.28125 13.890625 
Q 47.125 21.390625 47.125 36.375 
Q 47.125 51.421875 43.28125 58.90625 
Q 39.453125 66.40625 31.78125 66.40625 
z
M 31.78125 74.21875 
Q 44.046875 74.21875 50.515625 64.515625 
Q 56.984375 54.828125 56.984375 36.375 
Q 56.984375 17.96875 50.515625 8.265625 
Q 44.046875 -1.421875 31.78125 -1.421875 
Q 19.53125 -1.421875 13.0625 8.265625 
Q 6.59375 17.96875 6.59375 36.375 
Q 6.59375 54.828125 13.0625 64.515625 
Q 19.53125 74.21875 31.78125 74.21875 
z
" id="DejaVuSans-48"/>
       <path d="M 10.6875 12.40625 
L 21 12.40625 
L 21 0 
L 10.6875 0 
z
" id="DejaVuSans-46"/>
       <path d="M 37.796875 64.3125 
L 12.890625 25.390625 
L 37.796875 25.390625 
z
M 35.203125 72.90625 
L 47.609375 72.90625 
L 47.609375 25.390625 
L 58.015625 25.390625 
L 58.015625 17.1875 
L 47.609375 17.1875 
L 47.609375 0 
L 37.796875 0 
L 37.796875 17.1875 
L 4.890625 17.1875 
L 4.890625 26.703125 
z
" id="DejaVuSans-52"/>
      </defs>
      <g transform="translate(101.197553 698.598438)scale(0.1 -0.1)">
       <use xlink:href="#DejaVuSans-8722"/>
       <use x="83.789062" xlink:href="#DejaVuSans-48"/>
       <use x="147.412109" xlink:href="#DejaVuSans-46"/>
       <use x="179.199219" xlink:href="#DejaVuSans-52"/>
      </g>
     </g>
    </g>
    <g id="xtick_2">
     <g id="line2d_3">
      <path clip-path="url(#pa4c6ec590f)" d="M 185.189479 684 
L 185.189479 36 
" style="fill:none;stroke:#b0b0b0;stroke-linecap:square;stroke-width:0.8;"/>
     </g>
     <g id="line2d_4">
      <g>
       <use style="stroke:#000000;stroke-width:0.8;" x="185.189479" xlink:href="#m1356786f1c" y="684"/>
      </g>
     </g>
     <g id="text_2">
      <!-- −0.2 -->
      <defs>
       <path d="M 19.1875 8.296875 
L 53.609375 8.296875 
L 53.609375 0 
L 7.328125 0 
L 7.328125 8.296875 
Q 12.9375 14.109375 22.625 23.890625 
Q 32.328125 33.6875 34.8125 36.53125 
Q 39.546875 41.84375 41.421875 45.53125 
Q 43.3125 49.21875 43.3125 52.78125 
Q 43.3125 58.59375 39.234375 62.25 
Q 35.15625 65.921875 28.609375 65.921875 
Q 23.96875 65.921875 18.8125 64.3125 
Q 13.671875 62.703125 7.8125 59.421875 
L 7.8125 69.390625 
Q 13.765625 71.78125 18.9375 73 
Q 24.125 74.21875 28.421875 74.21875 
Q 39.75 74.21875 46.484375 68.546875 
Q 53.21875 62.890625 53.21875 53.421875 
Q 53.21875 48.921875 51.53125 44.890625 
Q 49.859375 40.875 45.40625 35.40625 
Q 44.1875 33.984375 37.640625 27.21875 
Q 31.109375 20.453125 19.1875 8.296875 
z
" id="DejaVuSans-50"/>
      </defs>
      <g transform="translate(173.048073 698.598438)scale(0.1 -0.1)">
       <use xlink:href="#DejaVuSans-8722"/>
       <use x="83.789062" xlink:href="#DejaVuSans-48"/>
       <use x="147.412109" xlink:href="#DejaVuSans-46"/>
       <use x="179.199219" xlink:href="#DejaVuSans-50"/>
      </g>
     </g>
    </g>
    <g id="xtick_3">
     <g id="line2d_5">
      <path clip-path="url(#pa4c6ec590f)" d="M 257.04 684 
L 257.04 36 
" style="fill:none;stroke:#b0b0b0;stroke-linecap:square;stroke-width:0.8;"/>
     </g>
     <g id="line2d_6">
      <g>
       <use style="stroke:#000000;stroke-width:0.8;" x="257.04" xlink:href="#m1356786f1c" y="684"/>
      </g>
     </g>
     <g id="text_3">
      <!-- 0.0 -->
      <g transform="translate(249.088437 698.598438)scale(0.1 -0.1)">
       <use xlink:href="#DejaVuSans-48"/>
       <use x="63.623047" xlink:href="#DejaVuSans-46"/>
       <use x="95.410156" xlink:href="#DejaVuSans-48"/>
      </g>
     </g>
    </g>
    <g id="xtick_4">
     <g id="line2d_7">
      <path clip-path="url(#pa4c6ec590f)" d="M 328.890521 684 
L 328.890521 36 
" style="fill:none;stroke:#b0b0b0;stroke-linecap:square;stroke-width:0.8;"/>
     </g>
     <g id="line2d_8">
      <g>
       <use style="stroke:#000000;stroke-width:0.8;" x="328.890521" xlink:href="#m1356786f1c" y="684"/>
      </g>
     </g>
     <g id="text_4">
      <!-- 0.2 -->
      <g transform="translate(320.938958 698.598438)scale(0.1 -0.1)">
       <use xlink:href="#DejaVuSans-48"/>
       <use x="63.623047" xlink:href="#DejaVuSans-46"/>
       <use x="95.410156" xlink:href="#DejaVuSans-50"/>
      </g>
     </g>
    </g>
    <g id="xtick_5">
     <g id="line2d_9">
      <path clip-path="url(#pa4c6ec590f)" d="M 400.741041 684 
L 400.741041 36 
" style="fill:none;stroke:#b0b0b0;stroke-linecap:square;stroke-width:0.8;"/>
     </g>
     <g id="line2d_10">
      <g>
       <use style="stroke:#000000;stroke-width:0.8;" x="400.741041" xlink:href="#m1356786f1c" y="684"/>
      </g>
     </g>
     <g id="text_5">
      <!-- 0.4 -->
      <g transform="translate(392.789479 698.598438)scale(0.1 -0.1)">
       <use xlink:href="#DejaVuSans-48"/>
       <use x="63.623047" xlink:href="#DejaVuSans-46"/>
       <use x="95.410156" xlink:href="#DejaVuSans-52"/>
      </g>
     </g>
    </g>
    <g id="text_6">
     <!-- m -->
     <defs>
      <path d="M 52 44.1875 
Q 55.375 50.25 60.0625 53.125 
Q 64.75 56 71.09375 56 
Q 79.640625 56 84.28125 50.015625 
Q 88.921875 44.046875 88.921875 33.015625 
L 88.921875 0 
L 79.890625 0 
L 79.890625 32.71875 
Q 79.890625 40.578125 77.09375 44.375 
Q 74.3125 48.1875 68.609375 48.1875 
Q 61.625 48.1875 57.5625 43.546875 
Q 53.515625 38.921875 53.515625 30.90625 
L 53.515625 0 
L 44.484375 0 
L 44.484375 32.71875 
Q 44.484375 40.625 41.703125 44.40625 
Q 38.921875 48.1875 33.109375 48.1875 
Q 26.21875 48.1875 22.15625 43.53125 
Q 18.109375 38.875 18.109375 30.90625 
L 18.109375 0 
L 9.078125 0 
L 9.078125 54.6875 
L 18.109375 54.6875 
L 18.109375 46.1875 
Q 21.1875 51.21875 25.484375 53.609375 
Q 29.78125 56 35.6875 56 
Q 41.65625 56 45.828125 52.96875 
Q 50 49.953125 52 44.1875 
z
" id="DejaVuSans-109"/>
     </defs>
     <g transform="translate(252.169687 712.276562)scale(0.1 -0.1)">
      <use xlink:href="#DejaVuSans-109"/>
     </g>
    </g>
   </g>
   <g id="matplotlib.axis_2">
    <g id="ytick_1">
     <g id="line2d_11">
      <path clip-path="url(#pa4c6ec590f)" d="M 64.633053 622.122147 
L 449.446947 622.122147 
" style="fill:none;stroke:#b0b0b0;stroke-linecap:square;stroke-width:0.8;"/>
     </g>
     <g id="line2d_12">
      <defs>
       <path d="M 0 0 
L -3.5 0 
" id="m7971beeb7a" style="stroke:#000000;stroke-width:0.8;"/>
      </defs>
      <g>
       <use style="stroke:#000000;stroke-width:0.8;" x="64.633053" xlink:href="#m7971beeb7a" y="622.122147"/>
      </g>
     </g>
     <g id="text_7">
      <!-- −1.00 -->
      <defs>
       <path d="M 12.40625 8.296875 
L 28.515625 8.296875 
L 28.515625 63.921875 
L 10.984375 60.40625 
L 10.984375 69.390625 
L 28.421875 72.90625 
L 38.28125 72.90625 
L 38.28125 8.296875 
L 54.390625 8.296875 
L 54.390625 0 
L 12.40625 0 
z
" id="DejaVuSans-49"/>
      </defs>
      <g transform="translate(26.98774 625.921366)scale(0.1 -0.1)">
       <use xlink:href="#DejaVuSans-8722"/>
       <use x="83.789062" xlink:href="#DejaVuSans-49"/>
       <use x="147.412109" xlink:href="#DejaVuSans-46"/>
       <use x="179.199219" xlink:href="#DejaVuSans-48"/>
       <use x="242.822266" xlink:href="#DejaVuSans-48"/>
      </g>
     </g>
    </g>
    <g id="ytick_2">
     <g id="line2d_13">
      <path clip-path="url(#pa4c6ec590f)" d="M 64.633053 532.308996 
L 449.446947 532.308996 
" style="fill:none;stroke:#b0b0b0;stroke-linecap:square;stroke-width:0.8;"/>
     </g>
     <g id="line2d_14">
      <g>
       <use style="stroke:#000000;stroke-width:0.8;" x="64.633053" xlink:href="#m7971beeb7a" y="532.308996"/>
      </g>
     </g>
     <g id="text_8">
      <!-- −0.75 -->
      <defs>
       <path d="M 8.203125 72.90625 
L 55.078125 72.90625 
L 55.078125 68.703125 
L 28.609375 0 
L 18.3125 0 
L 43.21875 64.59375 
L 8.203125 64.59375 
z
" id="DejaVuSans-55"/>
       <path d="M 10.796875 72.90625 
L 49.515625 72.90625 
L 49.515625 64.59375 
L 19.828125 64.59375 
L 19.828125 46.734375 
Q 21.96875 47.46875 24.109375 47.828125 
Q 26.265625 48.1875 28.421875 48.1875 
Q 40.625 48.1875 47.75 41.5 
Q 54.890625 34.8125 54.890625 23.390625 
Q 54.890625 11.625 47.5625 5.09375 
Q 40.234375 -1.421875 26.90625 -1.421875 
Q 22.3125 -1.421875 17.546875 -0.640625 
Q 12.796875 0.140625 7.71875 1.703125 
L 7.71875 11.625 
Q 12.109375 9.234375 16.796875 8.0625 
Q 21.484375 6.890625 26.703125 6.890625 
Q 35.15625 6.890625 40.078125 11.328125 
Q 45.015625 15.765625 45.015625 23.390625 
Q 45.015625 31 40.078125 35.4375 
Q 35.15625 39.890625 26.703125 39.890625 
Q 22.75 39.890625 18.8125 39.015625 
Q 14.890625 38.140625 10.796875 36.28125 
z
" id="DejaVuSans-53"/>
      </defs>
      <g transform="translate(26.98774 536.108215)scale(0.1 -0.1)">
       <use xlink:href="#DejaVuSans-8722"/>
       <use x="83.789062" xlink:href="#DejaVuSans-48"/>
       <use x="147.412109" xlink:href="#DejaVuSans-46"/>
       <use x="179.199219" xlink:href="#DejaVuSans-55"/>
       <use x="242.822266" xlink:href="#DejaVuSans-53"/>
      </g>
     </g>
    </g>
    <g id="ytick_3">
     <g id="line2d_15">
      <path clip-path="url(#pa4c6ec590f)" d="M 64.633053 442.495845 
L 449.446947 442.495845 
" style="fill:none;stroke:#b0b0b0;stroke-linecap:square;stroke-width:0.8;"/>
     </g>
     <g id="line2d_16">
      <g>
       <use style="stroke:#000000;stroke-width:0.8;" x="64.633053" xlink:href="#m7971beeb7a" y="442.495845"/>
      </g>
     </g>
     <g id="text_9">
      <!-- −0.50 -->
      <g transform="translate(26.98774 446.295064)scale(0.1 -0.1)">
       <use xlink:href="#DejaVuSans-8722"/>
       <use x="83.789062" xlink:href="#DejaVuSans-48"/>
       <use x="147.412109" xlink:href="#DejaVuSans-46"/>
       <use x="179.199219" xlink:href="#DejaVuSans-53"/>
       <use x="242.822266" xlink:href="#DejaVuSans-48"/>
      </g>
     </g>
    </g>
    <g id="ytick_4">
     <g id="line2d_17">
      <path clip-path="url(#pa4c6ec590f)" d="M 64.633053 352.682695 
L 449.446947 352.682695 
" style="fill:none;stroke:#b0b0b0;stroke-linecap:square;stroke-width:0.8;"/>
     </g>
     <g id="line2d_18">
      <g>
       <use style="stroke:#000000;stroke-width:0.8;" x="64.633053" xlink:href="#m7971beeb7a" y="352.682695"/>
      </g>
     </g>
     <g id="text_10">
      <!-- −0.25 -->
      <g transform="translate(26.98774 356.481913)scale(0.1 -0.1)">
       <use xlink:href="#DejaVuSans-8722"/>
       <use x="83.789062" xlink:href="#DejaVuSans-48"/>
       <use x="147.412109" xlink:href="#DejaVuSans-46"/>
       <use x="179.199219" xlink:href="#DejaVuSans-50"/>
       <use x="242.822266" xlink:href="#DejaVuSans-53"/>
      </g>
     </g>
    </g>
    <g id="ytick_5">
     <g id="line2d_19">
      <path clip-path="url(#pa4c6ec590f)" d="M 64.633053 262.869544 
L 449.446947 262.869544 
" style="fill:none;stroke:#b0b0b0;stroke-linecap:square;stroke-width:0.8;"/>
     </g>
     <g id="line2d_20">
      <g>
       <use style="stroke:#000000;stroke-width:0.8;" x="64.633053" xlink:href="#m7971beeb7a" y="262.869544"/>
      </g>
     </g>
     <g id="text_11">
      <!-- 0.00 -->
      <g transform="translate(35.367428 266.668763)scale(0.1 -0.1)">
       <use xlink:href="#DejaVuSans-48"/>
       <use x="63.623047" xlink:href="#DejaVuSans-46"/>
       <use x="95.410156" xlink:href="#DejaVuSans-48"/>
       <use x="159.033203" xlink:href="#DejaVuSans-48"/>
      </g>
     </g>
    </g>
    <g id="ytick_6">
     <g id="line2d_21">
      <path clip-path="url(#pa4c6ec590f)" d="M 64.633053 173.056393 
L 449.446947 173.056393 
" style="fill:none;stroke:#b0b0b0;stroke-linecap:square;stroke-width:0.8;"/>
     </g>
     <g id="line2d_22">
      <g>
       <use style="stroke:#000000;stroke-width:0.8;" x="64.633053" xlink:href="#m7971beeb7a" y="173.056393"/>
      </g>
     </g>
     <g id="text_12">
      <!-- 0.25 -->
      <g transform="translate(35.367428 176.855612)scale(0.1 -0.1)">
       <use xlink:href="#DejaVuSans-48"/>
       <use x="63.623047" xlink:href="#DejaVuSans-46"/>
       <use x="95.410156" xlink:href="#DejaVuSans-50"/>
       <use x="159.033203" xlink:href="#DejaVuSans-53"/>
      </g>
     </g>
    </g>
    <g id="ytick_7">
     <g id="line2d_23">
      <path clip-path="url(#pa4c6ec590f)" d="M 64.633053 83.243242 
L 449.446947 83.243242 
" style="fill:none;stroke:#b0b0b0;stroke-linecap:square;stroke-width:0.8;"/>
     </g>
     <g id="line2d_24">
      <g>
       <use style="stroke:#000000;stroke-width:0.8;" x="64.633053" xlink:href="#m7971beeb7a" y="83.243242"/>
      </g>
     </g>
     <g id="text_13">
      <!-- 0.50 -->
      <g transform="translate(35.367428 87.042461)scale(0.1 -0.1)">
       <use xlink:href="#DejaVuSans-48"/>
       <use x="63.623047" xlink:href="#DejaVuSans-46"/>
       <use x="95.410156" xlink:href="#DejaVuSans-53"/>
       <use x="159.033203" xlink:href="#DejaVuSans-48"/>
      </g>
     </g>
    </g>
    <g id="text_14">
     <!-- m -->
     <g transform="translate(20.908053 364.870313)rotate(-90)scale(0.1 -0.1)">
      <use xlink:href="#DejaVuSans-109"/>
     </g>
    </g>
   </g>
   <g id="line2d_25">
    <path clip-path="url(#pa4c6ec590f)" d="M 332.291452 186.767256 
L 181.788548 186.767256 
" style="fill:none;stroke:#ffa500;stroke-dasharray:5.55,2.4;stroke-dashoffset:0;stroke-width:1.5;"/>
   </g>
   <g id="line2d_26">
    <path clip-path="url(#pa4c6ec590f)" d="M 300.768852 262.869544 
L 213.311148 262.869544 
" style="fill:none;stroke:#808080;stroke-dasharray:5.55,2.4;stroke-dashoffset:0;stroke-width:1.5;"/>
   </g>
   <g id="line2d_27">
    <path clip-path="url(#pa4c6ec590f)" d="M 257.04 65.454545 
L 332.291452 65.454545 
L 332.291452 186.767256 
" style="fill:none;stroke:#000000;stroke-linecap:square;stroke-width:1.5;"/>
   </g>
   <g id="line2d_28">
    <path clip-path="url(#pa4c6ec590f)" d="M 257.04 65.454545 
L 181.788548 65.454545 
L 181.788548 186.767256 
" style="fill:none;stroke:#000000;stroke-linecap:square;stroke-width:1.5;"/>
   </g>
   <g id="line2d_29">
    <path clip-path="url(#pa4c6ec590f)" d="M 319.980678 216.488093 
L 320.453221 216.007914 
L 320.918007 215.520223 
L 321.374917 215.025145 
L 321.823834 214.522807 
L 322.264641 214.013339 
L 322.697226 213.496871 
L 323.121477 212.973536 
L 323.537286 212.443469 
L 323.944546 211.906805 
L 324.343152 211.363682 
L 324.733002 210.81424 
L 325.113995 210.258621 
L 325.486034 209.696966 
L 325.849023 209.129421 
L 326.202869 208.55613 
L 326.54748 207.977242 
L 326.882769 207.392905 
L 327.20865 206.803269 
L 327.525038 206.208485 
L 327.831852 205.608707 
L 328.129014 205.004088 
L 328.416446 204.394784 
L 328.694076 203.780951 
L 328.961832 203.162748 
L 329.219645 202.540332 
L 329.467449 201.913864 
L 329.70518 201.283505 
L 329.932778 200.649417 
L 330.150183 200.011762 
L 330.357339 199.370704 
L 330.554195 198.726408 
L 330.740698 198.07904 
L 330.916802 197.428766 
L 331.082461 196.775753 
L 331.237631 196.120169 
L 331.382275 195.462182 
L 331.516353 194.801961 
L 331.639833 194.139675 
L 331.752681 193.475496 
L 331.85487 192.809594 
L 331.946373 192.142139 
L 332.027166 191.473303 
L 332.097228 190.803258 
L 332.156543 190.132176 
L 332.205093 189.46023 
L 332.242868 188.787592 
L 332.269856 188.114435 
L 332.286052 187.440932 
L 332.291452 186.767256 
" style="fill:none;stroke:#000000;stroke-linecap:square;stroke-width:1.5;"/>
   </g>
   <g id="line2d_30">
    <path clip-path="url(#pa4c6ec590f)" d="M 194.099322 216.488093 
L 193.626779 216.007914 
L 193.161993 215.520223 
L 192.705083 215.025145 
L 192.256166 214.522807 
L 191.815359 214.013339 
L 191.382774 213.496871 
L 190.958523 212.973536 
L 190.542714 212.443469 
L 190.135454 211.906805 
L 189.736848 211.363682 
L 189.346998 210.81424 
L 188.966005 210.258621 
L 188.593966 209.696966 
L 188.230977 209.129421 
L 187.877131 208.55613 
L 187.53252 207.977242 
L 187.197231 207.392905 
L 186.87135 206.803269 
L 186.554962 206.208485 
L 186.248148 205.608707 
L 185.950986 205.004088 
L 185.663554 204.394784 
L 185.385924 203.780951 
L 185.118168 203.162748 
L 184.860355 202.540332 
L 184.612551 201.913864 
L 184.37482 201.283505 
L 184.147222 200.649417 
L 183.929817 200.011762 
L 183.722661 199.370704 
L 183.525805 198.726408 
L 183.339302 198.07904 
L 183.163198 197.428766 
L 182.997539 196.775753 
L 182.842369 196.120169 
L 182.697725 195.462182 
L 182.563647 194.801961 
L 182.440167 194.139675 
L 182.327319 193.475496 
L 182.22513 192.809594 
L 182.133627 192.142139 
L 182.052834 191.473303 
L 181.982772 190.803258 
L 181.923457 190.132176 
L 181.874907 189.46023 
L 181.837132 188.787592 
L 181.810144 188.114435 
L 181.793948 187.440932 
L 181.788548 186.767256 
" style="fill:none;stroke:#000000;stroke-linecap:square;stroke-width:1.5;"/>
   </g>
   <g id="line2d_31">
    <path clip-path="url(#pa4c6ec590f)" d="M 319.980678 216.488093 
L 318.103587 218.444426 
L 316.308944 220.476659 
L 314.599817 222.581319 
L 312.979124 224.754811 
L 311.449636 226.993422 
L 310.013965 229.293326 
L 308.674563 231.650594 
L 307.43372 234.0612 
L 306.293555 236.521024 
L 305.256016 239.025865 
L 304.322876 241.571441 
L 303.495729 244.153406 
L 302.775988 246.767346 
L 302.164884 249.408797 
L 301.663458 252.073245 
L 301.27257 254.756139 
L 300.992886 257.452894 
L 300.824884 260.158903 
L 300.768852 262.869544 
" style="fill:none;stroke:#000000;stroke-linecap:square;stroke-width:1.5;"/>
   </g>
   <g id="line2d_32">
    <path clip-path="url(#pa4c6ec590f)" d="M 194.099322 216.488093 
L 195.976413 218.444426 
L 197.771056 220.476659 
L 199.480183 222.581319 
L 201.100876 224.754811 
L 202.630364 226.993422 
L 204.066035 229.293326 
L 205.405437 231.650594 
L 206.64628 234.0612 
L 207.786445 236.521024 
L 208.823984 239.025865 
L 209.757124 241.571441 
L 210.584271 244.153406 
L 211.304012 246.767346 
L 211.915116 249.408797 
L 212.416542 252.073245 
L 212.80743 254.756139 
L 213.087114 257.452894 
L 213.255116 260.158903 
L 213.311148 262.869544 
" style="fill:none;stroke:#000000;stroke-linecap:square;stroke-width:1.5;"/>
   </g>
   <g id="line2d_33">
    <path clip-path="url(#pa4c6ec590f)" d="M 300.768852 262.869544 
L 300.769683 263.036244 
L 300.772179 263.202928 
L 300.776337 263.369579 
L 300.782159 263.53618 
L 300.789643 263.702715 
L 300.798788 263.869166 
L 300.809594 264.035518 
L 300.82206 264.201754 
L 300.836183 264.367857 
L 300.851964 264.533811 
L 300.8694 264.6996 
L 300.88849 264.865206 
L 300.909231 265.030613 
L 300.931622 265.195805 
L 300.955661 265.360765 
L 300.981344 265.525477 
L 301.00867 265.689925 
L 301.037636 265.854092 
L 301.068238 266.017962 
L 301.100475 266.181518 
L 301.134342 266.344744 
L 301.169836 266.507624 
L 301.206954 266.670142 
L 301.245691 266.832281 
L 301.286045 266.994026 
L 301.328011 267.155359 
L 301.371585 267.316266 
L 301.416763 267.476731 
L 301.463539 267.636736 
L 301.51191 267.796267 
L 301.561871 267.955306 
L 301.613416 268.11384 
L 301.666541 268.271851 
L 301.72124 268.429324 
L 301.777508 268.586244 
L 301.835339 268.742594 
L 301.894727 268.898359 
L 301.955667 269.053523 
L 302.018153 269.208072 
L 302.082177 269.36199 
L 302.147734 269.515261 
L 302.214818 269.66787 
L 302.283421 269.819802 
L 302.353537 269.971042 
L 302.425159 270.121575 
L 302.498279 270.271385 
L 302.572891 270.420458 
L 302.648987 270.56878 
L 302.726559 270.716334 
" style="fill:none;stroke:#000000;stroke-linecap:square;stroke-width:1.5;"/>
   </g>
   <g id="line2d_34">
    <path clip-path="url(#pa4c6ec590f)" d="M 213.311148 262.869544 
L 213.310317 263.036244 
L 213.307821 263.202928 
L 213.303663 263.369579 
L 213.297841 263.53618 
L 213.290357 263.702715 
L 213.281212 263.869166 
L 213.270406 264.035518 
L 213.25794 264.201754 
L 213.243817 264.367857 
L 213.228036 264.533811 
L 213.2106 264.6996 
L 213.19151 264.865206 
L 213.170769 265.030613 
L 213.148378 265.195805 
L 213.124339 265.360765 
L 213.098656 265.525477 
L 213.07133 265.689925 
L 213.042364 265.854092 
L 213.011762 266.017962 
L 212.979525 266.181518 
L 212.945658 266.344744 
L 212.910164 266.507624 
L 212.873046 266.670142 
L 212.834309 266.832281 
L 212.793955 266.994026 
L 212.751989 267.155359 
L 212.708415 267.316266 
L 212.663237 267.476731 
L 212.616461 267.636736 
L 212.56809 267.796267 
L 212.518129 267.955306 
L 212.466584 268.11384 
L 212.413459 268.271851 
L 212.35876 268.429324 
L 212.302492 268.586244 
L 212.244661 268.742594 
L 212.185273 268.898359 
L 212.124333 269.053523 
L 212.061847 269.208072 
L 211.997823 269.36199 
L 211.932266 269.515261 
L 211.865182 269.66787 
L 211.796579 269.819802 
L 211.726463 269.971042 
L 211.654841 270.121575 
L 211.581721 270.271385 
L 211.507109 270.420458 
L 211.431013 270.56878 
L 211.353441 270.716334 
" style="fill:none;stroke:#000000;stroke-linecap:square;stroke-width:1.5;"/>
   </g>
   <g id="line2d_35">
    <path clip-path="url(#pa4c6ec590f)" d="M 302.726559 270.716334 
L 306.569097 277.996445 
L 310.361418 285.299603 
L 314.103521 292.625808 
L 317.795407 299.975061 
L 321.437076 307.347361 
L 325.028528 314.742709 
L 328.569762 322.161103 
L 332.060779 329.602546 
L 335.501579 337.067035 
L 338.892161 344.554572 
L 342.232526 352.065156 
L 345.522674 359.598788 
L 348.762605 367.155467 
L 351.952319 374.735193 
L 355.091815 382.337967 
L 358.181094 389.963788 
L 361.220155 397.612657 
L 364.208999 405.284572 
L 367.147627 412.979536 
L 370.036036 420.697546 
L 372.874229 428.438604 
L 375.662204 436.202709 
L 378.399962 443.989862 
L 381.087503 451.800062 
L 383.724826 459.633309 
L 386.311932 467.489604 
L 388.848821 475.368946 
L 391.335493 483.271336 
L 393.771947 491.196772 
L 396.158184 499.145256 
L 398.494204 507.116788 
L 400.780006 515.111367 
L 403.015592 523.128993 
L 405.20096 531.169667 
L 407.33611 539.233388 
L 409.421044 547.320156 
L 411.45576 555.429972 
L 413.440259 563.562835 
L 415.37454 571.718745 
L 417.258605 579.897703 
L 419.092452 588.099708 
L 420.876082 596.324761 
L 422.609494 604.572861 
L 424.292689 612.844008 
L 425.925667 621.138202 
L 427.508428 629.455444 
L 429.040972 637.795734 
L 430.523298 646.15907 
L 431.955407 654.545455 
" style="fill:none;stroke:#000000;stroke-linecap:square;stroke-width:1.5;"/>
   </g>
   <g id="line2d_36">
    <path clip-path="url(#pa4c6ec590f)" d="M 211.353441 270.716334 
L 207.510903 277.996445 
L 203.718582 285.299603 
L 199.976479 292.625808 
L 196.284593 299.975061 
L 192.642924 307.347361 
L 189.051472 314.742709 
L 185.510238 322.161103 
L 182.019221 329.602546 
L 178.578421 337.067035 
L 175.187839 344.554572 
L 171.847474 352.065156 
L 168.557326 359.598788 
L 165.317395 367.155467 
L 162.127681 374.735193 
L 158.988185 382.337967 
L 155.898906 389.963788 
L 152.859845 397.612657 
L 149.871001 405.284572 
L 146.932373 412.979536 
L 144.043964 420.697546 
L 141.205771 428.438604 
L 138.417796 436.202709 
L 135.680038 443.989862 
L 132.992497 451.800062 
L 130.355174 459.633309 
L 127.768068 467.489604 
L 125.231179 475.368946 
L 122.744507 483.271336 
L 120.308053 491.196772 
L 117.921816 499.145256 
L 115.585796 507.116788 
L 113.299994 515.111367 
L 111.064408 523.128993 
L 108.87904 531.169667 
L 106.74389 539.233388 
L 104.658956 547.320156 
L 102.62424 555.429972 
L 100.639741 563.562835 
L 98.70546 571.718745 
L 96.821395 579.897703 
L 94.987548 588.099708 
L 93.203918 596.324761 
L 91.470506 604.572861 
L 89.787311 612.844008 
L 88.154333 621.138202 
L 86.571572 629.455444 
L 85.039028 637.795734 
L 83.556702 646.15907 
L 82.124593 654.545455 
" style="fill:none;stroke:#000000;stroke-linecap:square;stroke-width:1.5;"/>
   </g>
   <g id="patch_3">
    <path d="M 64.633053 684 
L 64.633053 36 
" style="fill:none;stroke:#000000;stroke-linecap:square;stroke-linejoin:miter;stroke-width:0.8;"/>
   </g>
   <g id="patch_4">
    <path d="M 449.446947 684 
L 449.446947 36 
" style="fill:none;stroke:#000000;stroke-linecap:square;stroke-linejoin:miter;stroke-width:0.8;"/>
   </g>
   <g id="patch_5">
    <path d="M 64.633053 684 
L 449.446947 684 
" style="fill:none;stroke:#000000;stroke-linecap:square;stroke-linejoin:miter;stroke-width:0.8;"/>
   </g>
   <g id="patch_6">
    <path d="M 64.633053 36 
L 449.446947 36 
" style="fill:none;stroke:#000000;stroke-linecap:square;stroke-linejoin:miter;stroke-width:0.8;"/>
   </g>
  </g>
 </g>
 <defs>
  <clipPath id="pa4c6ec590f">
   <rect height="648" width="384.813895" x="64.633053" y="36"/>
  </clipPath>
 </defs>
</svg>
