<?xml version="1.0" encoding="utf-8" standalone="no"?>
<!DOCTYPE svg PUBLIC "-//W3C//DTD SVG 1.1//EN"
  "http://www.w3.org/Graphics/SVG/1.1/DTD/svg11.dtd">
<!-- Created with matplotlib (https://matplotlib.org/) -->
<svg height="720pt" version="1.1" viewBox="0 0 504 720" width="504pt" xmlns="http://www.w3.org/2000/svg" xmlns:xlink="http://www.w3.org/1999/xlink">
 <defs>
  <style type="text/css">
*{stroke-linecap:butt;stroke-linejoin:round;}
  </style>
 </defs>
 <g id="figure_1">
  <g id="patch_1">
   <path d="M 0 720 
L 504 720 
L 504 0 
L 0 0 
z
" style="fill:#ffffff;"/>
  </g>
  <g id="axes_1">
   <g id="patch_2">
    <path d="M 64.768638 684 
L 449.311362 684 
L 449.311362 36 
L 64.768638 36 
z
" style="fill:#ffffff;"/>
   </g>
   <g id="matplotlib.axis_1">
    <g id="xtick_1">
     <g id="line2d_1">
      <path clip-path="url(#p3f81753b4a)" d="M 112.475554 684 
L 112.475554 36 
" style="fill:none;stroke:#b0b0b0;stroke-linecap:square;stroke-width:0.8;"/>
     </g>
     <g id="line2d_2">
      <defs>
       <path d="M 0 0 
L 0 3.5 
" id="mb104267170" style="stroke:#000000;stroke-width:0.8;"/>
      </defs>
      <g>
       <use style="stroke:#000000;stroke-width:0.8;" x="112.475554" xlink:href="#mb104267170" y="684"/>
      </g>
     </g>
     <g id="text_1">
      <!-- −0.4 -->
      <defs>
       <path d="M 10.59375 35.5 
L 73.1875 35.5 
L 73.1875 27.203125 
L 10.59375 27.203125 
z
" id="DejaVuSans-8722"/>
       <path d="M 31.78125 66.40625 
Q 24.171875 66.40625 20.328125 58.90625 
Q 16.5 51.421875 16.5 36.375 
Q 16.5 21.390625 20.328125 13.890625 
Q 24.171875 6.390625 31.78125 6.390625 
Q 39.453125 6.390625 43.28125 13.890625 
Q 47.125 21.390625 47.125 36.375 
Q 47.125 51.421875 43.28125 58.90625 
Q 39.453125 66.40625 31.78125 66.40625 
z
M 31.78125 74.21875 
Q 44.046875 74.21875 50.515625 64.515625 
Q 56.984375 54.828125 56.984375 36.375 
Q 56.984375 17.96875 50.515625 8.265625 
Q 44.046875 -1.421875 31.78125 -1.421875 
Q 19.53125 -1.421875 13.0625 8.265625 
Q 6.59375 17.96875 6.59375 36.375 
Q 6.59375 54.828125 13.0625 64.515625 
Q 19.53125 74.21875 31.78125 74.21875 
z
" id="DejaVuSans-48"/>
       <path d="M 10.6875 12.40625 
L 21 12.40625 
L 21 0 
L 10.6875 0 
z
" id="DejaVuSans-46"/>
       <path d="M 37.796875 64.3125 
L 12.890625 25.390625 
L 37.796875 25.390625 
z
M 35.203125 72.90625 
L 47.609375 72.90625 
L 47.609375 25.390625 
L 58.015625 25.390625 
L 58.015625 17.1875 
L 47.609375 17.1875 
L 47.609375 0 
L 37.796875 0 
L 37.796875 17.1875 
L 4.890625 17.1875 
L 4.890625 26.703125 
z
" id="DejaVuSans-52"/>
      </defs>
      <g transform="translate(100.334148 698.598438)scale(0.1 -0.1)">
       <use xlink:href="#DejaVuSans-8722"/>
       <use x="83.789062" xlink:href="#DejaVuSans-48"/>
       <use x="147.412109" xlink:href="#DejaVuSans-46"/>
       <use x="179.199219" xlink:href="#DejaVuSans-52"/>
      </g>
     </g>
    </g>
    <g id="xtick_2">
     <g id="line2d_3">
      <path clip-path="url(#p3f81753b4a)" d="M 184.757777 684 
L 184.757777 36 
" style="fill:none;stroke:#b0b0b0;stroke-linecap:square;stroke-width:0.8;"/>
     </g>
     <g id="line2d_4">
      <g>
       <use style="stroke:#000000;stroke-width:0.8;" x="184.757777" xlink:href="#mb104267170" y="684"/>
      </g>
     </g>
     <g id="text_2">
      <!-- −0.2 -->
      <defs>
       <path d="M 19.1875 8.296875 
L 53.609375 8.296875 
L 53.609375 0 
L 7.328125 0 
L 7.328125 8.296875 
Q 12.9375 14.109375 22.625 23.890625 
Q 32.328125 33.6875 34.8125 36.53125 
Q 39.546875 41.84375 41.421875 45.53125 
Q 43.3125 49.21875 43.3125 52.78125 
Q 43.3125 58.59375 39.234375 62.25 
Q 35.15625 65.921875 28.609375 65.921875 
Q 23.96875 65.921875 18.8125 64.3125 
Q 13.671875 62.703125 7.8125 59.421875 
L 7.8125 69.390625 
Q 13.765625 71.78125 18.9375 73 
Q 24.125 74.21875 28.421875 74.21875 
Q 39.75 74.21875 46.484375 68.546875 
Q 53.21875 62.890625 53.21875 53.421875 
Q 53.21875 48.921875 51.53125 44.890625 
Q 49.859375 40.875 45.40625 35.40625 
Q 44.1875 33.984375 37.640625 27.21875 
Q 31.109375 20.453125 19.1875 8.296875 
z
" id="DejaVuSans-50"/>
      </defs>
      <g transform="translate(172.616371 698.598438)scale(0.1 -0.1)">
       <use xlink:href="#DejaVuSans-8722"/>
       <use x="83.789062" xlink:href="#DejaVuSans-48"/>
       <use x="147.412109" xlink:href="#DejaVuSans-46"/>
       <use x="179.199219" xlink:href="#DejaVuSans-50"/>
      </g>
     </g>
    </g>
    <g id="xtick_3">
     <g id="line2d_5">
      <path clip-path="url(#p3f81753b4a)" d="M 257.04 684 
L 257.04 36 
" style="fill:none;stroke:#b0b0b0;stroke-linecap:square;stroke-width:0.8;"/>
     </g>
     <g id="line2d_6">
      <g>
       <use style="stroke:#000000;stroke-width:0.8;" x="257.04" xlink:href="#mb104267170" y="684"/>
      </g>
     </g>
     <g id="text_3">
      <!-- 0.0 -->
      <g transform="translate(249.088438 698.598438)scale(0.1 -0.1)">
       <use xlink:href="#DejaVuSans-48"/>
       <use x="63.623047" xlink:href="#DejaVuSans-46"/>
       <use x="95.410156" xlink:href="#DejaVuSans-48"/>
      </g>
     </g>
    </g>
    <g id="xtick_4">
     <g id="line2d_7">
      <path clip-path="url(#p3f81753b4a)" d="M 329.322223 684 
L 329.322223 36 
" style="fill:none;stroke:#b0b0b0;stroke-linecap:square;stroke-width:0.8;"/>
     </g>
     <g id="line2d_8">
      <g>
       <use style="stroke:#000000;stroke-width:0.8;" x="329.322223" xlink:href="#mb104267170" y="684"/>
      </g>
     </g>
     <g id="text_4">
      <!-- 0.2 -->
      <g transform="translate(321.37066 698.598438)scale(0.1 -0.1)">
       <use xlink:href="#DejaVuSans-48"/>
       <use x="63.623047" xlink:href="#DejaVuSans-46"/>
       <use x="95.410156" xlink:href="#DejaVuSans-50"/>
      </g>
     </g>
    </g>
    <g id="xtick_5">
     <g id="line2d_9">
      <path clip-path="url(#p3f81753b4a)" d="M 401.604446 684 
L 401.604446 36 
" style="fill:none;stroke:#b0b0b0;stroke-linecap:square;stroke-width:0.8;"/>
     </g>
     <g id="line2d_10">
      <g>
       <use style="stroke:#000000;stroke-width:0.8;" x="401.604446" xlink:href="#mb104267170" y="684"/>
      </g>
     </g>
     <g id="text_5">
      <!-- 0.4 -->
      <g transform="translate(393.652883 698.598438)scale(0.1 -0.1)">
       <use xlink:href="#DejaVuSans-48"/>
       <use x="63.623047" xlink:href="#DejaVuSans-46"/>
       <use x="95.410156" xlink:href="#DejaVuSans-52"/>
      </g>
     </g>
    </g>
    <g id="text_6">
     <!-- m -->
     <defs>
      <path d="M 52 44.1875 
Q 55.375 50.25 60.0625 53.125 
Q 64.75 56 71.09375 56 
Q 79.640625 56 84.28125 50.015625 
Q 88.921875 44.046875 88.921875 33.015625 
L 88.921875 0 
L 79.890625 0 
L 79.890625 32.71875 
Q 79.890625 40.578125 77.09375 44.375 
Q 74.3125 48.1875 68.609375 48.1875 
Q 61.625 48.1875 57.5625 43.546875 
Q 53.515625 38.921875 53.515625 30.90625 
L 53.515625 0 
L 44.484375 0 
L 44.484375 32.71875 
Q 44.484375 40.625 41.703125 44.40625 
Q 38.921875 48.1875 33.109375 48.1875 
Q 26.21875 48.1875 22.15625 43.53125 
Q 18.109375 38.875 18.109375 30.90625 
L 18.109375 0 
L 9.078125 0 
L 9.078125 54.6875 
L 18.109375 54.6875 
L 18.109375 46.1875 
Q 21.1875 51.21875 25.484375 53.609375 
Q 29.78125 56 35.6875 56 
Q 41.65625 56 45.828125 52.96875 
Q 50 49.953125 52 44.1875 
z
" id="DejaVuSans-109"/>
     </defs>
     <g transform="translate(252.169688 712.276562)scale(0.1 -0.1)">
      <use xlink:href="#DejaVuSans-109"/>
     </g>
    </g>
   </g>
   <g id="matplotlib.axis_2">
    <g id="ytick_1">
     <g id="line2d_11">
      <path clip-path="url(#p3f81753b4a)" d="M 64.768638 624.556664 
L 449.311362 624.556664 
" style="fill:none;stroke:#b0b0b0;stroke-linecap:square;stroke-width:0.8;"/>
     </g>
     <g id="line2d_12">
      <defs>
       <path d="M 0 0 
L -3.5 0 
" id="mdd873437f4" style="stroke:#000000;stroke-width:0.8;"/>
      </defs>
      <g>
       <use style="stroke:#000000;stroke-width:0.8;" x="64.768638" xlink:href="#mdd873437f4" y="624.556664"/>
      </g>
     </g>
     <g id="text_7">
      <!-- −1.0 -->
      <defs>
       <path d="M 12.40625 8.296875 
L 28.515625 8.296875 
L 28.515625 63.921875 
L 10.984375 60.40625 
L 10.984375 69.390625 
L 28.421875 72.90625 
L 38.28125 72.90625 
L 38.28125 8.296875 
L 54.390625 8.296875 
L 54.390625 0 
L 12.40625 0 
z
" id="DejaVuSans-49"/>
      </defs>
      <g transform="translate(33.485826 628.355883)scale(0.1 -0.1)">
       <use xlink:href="#DejaVuSans-8722"/>
       <use x="83.789062" xlink:href="#DejaVuSans-49"/>
       <use x="147.412109" xlink:href="#DejaVuSans-46"/>
       <use x="179.199219" xlink:href="#DejaVuSans-48"/>
      </g>
     </g>
    </g>
    <g id="ytick_2">
     <g id="line2d_13">
      <path clip-path="url(#p3f81753b4a)" d="M 64.768638 552.274441 
L 449.311362 552.274441 
" style="fill:none;stroke:#b0b0b0;stroke-linecap:square;stroke-width:0.8;"/>
     </g>
     <g id="line2d_14">
      <g>
       <use style="stroke:#000000;stroke-width:0.8;" x="64.768638" xlink:href="#mdd873437f4" y="552.274441"/>
      </g>
     </g>
     <g id="text_8">
      <!-- −0.8 -->
      <defs>
       <path d="M 31.78125 34.625 
Q 24.75 34.625 20.71875 30.859375 
Q 16.703125 27.09375 16.703125 20.515625 
Q 16.703125 13.921875 20.71875 10.15625 
Q 24.75 6.390625 31.78125 6.390625 
Q 38.8125 6.390625 42.859375 10.171875 
Q 46.921875 13.96875 46.921875 20.515625 
Q 46.921875 27.09375 42.890625 30.859375 
Q 38.875 34.625 31.78125 34.625 
z
M 21.921875 38.8125 
Q 15.578125 40.375 12.03125 44.71875 
Q 8.5 49.078125 8.5 55.328125 
Q 8.5 64.0625 14.71875 69.140625 
Q 20.953125 74.21875 31.78125 74.21875 
Q 42.671875 74.21875 48.875 69.140625 
Q 55.078125 64.0625 55.078125 55.328125 
Q 55.078125 49.078125 51.53125 44.71875 
Q 48 40.375 41.703125 38.8125 
Q 48.828125 37.15625 52.796875 32.3125 
Q 56.78125 27.484375 56.78125 20.515625 
Q 56.78125 9.90625 50.3125 4.234375 
Q 43.84375 -1.421875 31.78125 -1.421875 
Q 19.734375 -1.421875 13.25 4.234375 
Q 6.78125 9.90625 6.78125 20.515625 
Q 6.78125 27.484375 10.78125 32.3125 
Q 14.796875 37.15625 21.921875 38.8125 
z
M 18.3125 54.390625 
Q 18.3125 48.734375 21.84375 45.5625 
Q 25.390625 42.390625 31.78125 42.390625 
Q 38.140625 42.390625 41.71875 45.5625 
Q 45.3125 48.734375 45.3125 54.390625 
Q 45.3125 60.0625 41.71875 63.234375 
Q 38.140625 66.40625 31.78125 66.40625 
Q 25.390625 66.40625 21.84375 63.234375 
Q 18.3125 60.0625 18.3125 54.390625 
z
" id="DejaVuSans-56"/>
      </defs>
      <g transform="translate(33.485826 556.07366)scale(0.1 -0.1)">
       <use xlink:href="#DejaVuSans-8722"/>
       <use x="83.789062" xlink:href="#DejaVuSans-48"/>
       <use x="147.412109" xlink:href="#DejaVuSans-46"/>
       <use x="179.199219" xlink:href="#DejaVuSans-56"/>
      </g>
     </g>
    </g>
    <g id="ytick_3">
     <g id="line2d_15">
      <path clip-path="url(#p3f81753b4a)" d="M 64.768638 479.992219 
L 449.311362 479.992219 
" style="fill:none;stroke:#b0b0b0;stroke-linecap:square;stroke-width:0.8;"/>
     </g>
     <g id="line2d_16">
      <g>
       <use style="stroke:#000000;stroke-width:0.8;" x="64.768638" xlink:href="#mdd873437f4" y="479.992219"/>
      </g>
     </g>
     <g id="text_9">
      <!-- −0.6 -->
      <defs>
       <path d="M 33.015625 40.375 
Q 26.375 40.375 22.484375 35.828125 
Q 18.609375 31.296875 18.609375 23.390625 
Q 18.609375 15.53125 22.484375 10.953125 
Q 26.375 6.390625 33.015625 6.390625 
Q 39.65625 6.390625 43.53125 10.953125 
Q 47.40625 15.53125 47.40625 23.390625 
Q 47.40625 31.296875 43.53125 35.828125 
Q 39.65625 40.375 33.015625 40.375 
z
M 52.59375 71.296875 
L 52.59375 62.3125 
Q 48.875 64.0625 45.09375 64.984375 
Q 41.3125 65.921875 37.59375 65.921875 
Q 27.828125 65.921875 22.671875 59.328125 
Q 17.53125 52.734375 16.796875 39.40625 
Q 19.671875 43.65625 24.015625 45.921875 
Q 28.375 48.1875 33.59375 48.1875 
Q 44.578125 48.1875 50.953125 41.515625 
Q 57.328125 34.859375 57.328125 23.390625 
Q 57.328125 12.15625 50.6875 5.359375 
Q 44.046875 -1.421875 33.015625 -1.421875 
Q 20.359375 -1.421875 13.671875 8.265625 
Q 6.984375 17.96875 6.984375 36.375 
Q 6.984375 53.65625 15.1875 63.9375 
Q 23.390625 74.21875 37.203125 74.21875 
Q 40.921875 74.21875 44.703125 73.484375 
Q 48.484375 72.75 52.59375 71.296875 
z
" id="DejaVuSans-54"/>
      </defs>
      <g transform="translate(33.485826 483.791437)scale(0.1 -0.1)">
       <use xlink:href="#DejaVuSans-8722"/>
       <use x="83.789062" xlink:href="#DejaVuSans-48"/>
       <use x="147.412109" xlink:href="#DejaVuSans-46"/>
       <use x="179.199219" xlink:href="#DejaVuSans-54"/>
      </g>
     </g>
    </g>
    <g id="ytick_4">
     <g id="line2d_17">
      <path clip-path="url(#p3f81753b4a)" d="M 64.768638 407.709996 
L 449.311362 407.709996 
" style="fill:none;stroke:#b0b0b0;stroke-linecap:square;stroke-width:0.8;"/>
     </g>
     <g id="line2d_18">
      <g>
       <use style="stroke:#000000;stroke-width:0.8;" x="64.768638" xlink:href="#mdd873437f4" y="407.709996"/>
      </g>
     </g>
     <g id="text_10">
      <!-- −0.4 -->
      <g transform="translate(33.485826 411.509214)scale(0.1 -0.1)">
       <use xlink:href="#DejaVuSans-8722"/>
       <use x="83.789062" xlink:href="#DejaVuSans-48"/>
       <use x="147.412109" xlink:href="#DejaVuSans-46"/>
       <use x="179.199219" xlink:href="#DejaVuSans-52"/>
      </g>
     </g>
    </g>
    <g id="ytick_5">
     <g id="line2d_19">
      <path clip-path="url(#p3f81753b4a)" d="M 64.768638 335.427773 
L 449.311362 335.427773 
" style="fill:none;stroke:#b0b0b0;stroke-linecap:square;stroke-width:0.8;"/>
     </g>
     <g id="line2d_20">
      <g>
       <use style="stroke:#000000;stroke-width:0.8;" x="64.768638" xlink:href="#mdd873437f4" y="335.427773"/>
      </g>
     </g>
     <g id="text_11">
      <!-- −0.2 -->
      <g transform="translate(33.485826 339.226992)scale(0.1 -0.1)">
       <use xlink:href="#DejaVuSans-8722"/>
       <use x="83.789062" xlink:href="#DejaVuSans-48"/>
       <use x="147.412109" xlink:href="#DejaVuSans-46"/>
       <use x="179.199219" xlink:href="#DejaVuSans-50"/>
      </g>
     </g>
    </g>
    <g id="ytick_6">
     <g id="line2d_21">
      <path clip-path="url(#p3f81753b4a)" d="M 64.768638 263.14555 
L 449.311362 263.14555 
" style="fill:none;stroke:#b0b0b0;stroke-linecap:square;stroke-width:0.8;"/>
     </g>
     <g id="line2d_22">
      <g>
       <use style="stroke:#000000;stroke-width:0.8;" x="64.768638" xlink:href="#mdd873437f4" y="263.14555"/>
      </g>
     </g>
     <g id="text_12">
      <!-- 0.0 -->
      <g transform="translate(41.865513 266.944769)scale(0.1 -0.1)">
       <use xlink:href="#DejaVuSans-48"/>
       <use x="63.623047" xlink:href="#DejaVuSans-46"/>
       <use x="95.410156" xlink:href="#DejaVuSans-48"/>
      </g>
     </g>
    </g>
    <g id="ytick_7">
     <g id="line2d_23">
      <path clip-path="url(#p3f81753b4a)" d="M 64.768638 190.863327 
L 449.311362 190.863327 
" style="fill:none;stroke:#b0b0b0;stroke-linecap:square;stroke-width:0.8;"/>
     </g>
     <g id="line2d_24">
      <g>
       <use style="stroke:#000000;stroke-width:0.8;" x="64.768638" xlink:href="#mdd873437f4" y="190.863327"/>
      </g>
     </g>
     <g id="text_13">
      <!-- 0.2 -->
      <g transform="translate(41.865513 194.662546)scale(0.1 -0.1)">
       <use xlink:href="#DejaVuSans-48"/>
       <use x="63.623047" xlink:href="#DejaVuSans-46"/>
       <use x="95.410156" xlink:href="#DejaVuSans-50"/>
      </g>
     </g>
    </g>
    <g id="ytick_8">
     <g id="line2d_25">
      <path clip-path="url(#p3f81753b4a)" d="M 64.768638 118.581104 
L 449.311362 118.581104 
" style="fill:none;stroke:#b0b0b0;stroke-linecap:square;stroke-width:0.8;"/>
     </g>
     <g id="line2d_26">
      <g>
       <use style="stroke:#000000;stroke-width:0.8;" x="64.768638" xlink:href="#mdd873437f4" y="118.581104"/>
      </g>
     </g>
     <g id="text_14">
      <!-- 0.4 -->
      <g transform="translate(41.865513 122.380323)scale(0.1 -0.1)">
       <use xlink:href="#DejaVuSans-48"/>
       <use x="63.623047" xlink:href="#DejaVuSans-46"/>
       <use x="95.410156" xlink:href="#DejaVuSans-52"/>
      </g>
     </g>
    </g>
    <g id="ytick_9">
     <g id="line2d_27">
      <path clip-path="url(#p3f81753b4a)" d="M 64.768638 46.298881 
L 449.311362 46.298881 
" style="fill:none;stroke:#b0b0b0;stroke-linecap:square;stroke-width:0.8;"/>
     </g>
     <g id="line2d_28">
      <g>
       <use style="stroke:#000000;stroke-width:0.8;" x="64.768638" xlink:href="#mdd873437f4" y="46.298881"/>
      </g>
     </g>
     <g id="text_15">
      <!-- 0.6 -->
      <g transform="translate(41.865513 50.0981)scale(0.1 -0.1)">
       <use xlink:href="#DejaVuSans-48"/>
       <use x="63.623047" xlink:href="#DejaVuSans-46"/>
       <use x="95.410156" xlink:href="#DejaVuSans-54"/>
      </g>
     </g>
    </g>
    <g id="text_16">
     <!-- m -->
     <g transform="translate(27.406138 364.870313)rotate(-90)scale(0.1 -0.1)">
      <use xlink:href="#DejaVuSans-109"/>
     </g>
    </g>
   </g>
   <g id="line2d_29">
    <path clip-path="url(#p3f81753b4a)" d="M 332.737743 185.891426 
L 181.342257 185.891426 
" style="fill:none;stroke:#ffa500;stroke-dasharray:5.55,2.4;stroke-dashoffset:0;stroke-width:1.5;"/>
   </g>
   <g id="line2d_30">
    <path clip-path="url(#p3f81753b4a)" d="M 300.738037 263.14555 
L 213.341963 263.14555 
" style="fill:none;stroke:#808080;stroke-dasharray:5.55,2.4;stroke-dashoffset:0;stroke-width:1.5;"/>
   </g>
   <g id="line2d_31">
    <path clip-path="url(#p3f81753b4a)" d="M 257.04 65.454545 
L 332.737743 65.454545 
L 332.737743 185.891426 
" style="fill:none;stroke:#000000;stroke-linecap:square;stroke-width:1.5;"/>
   </g>
   <g id="line2d_32">
    <path clip-path="url(#p3f81753b4a)" d="M 257.04 65.454545 
L 181.342257 65.454545 
L 181.342257 185.891426 
" style="fill:none;stroke:#000000;stroke-linecap:square;stroke-width:1.5;"/>
   </g>
   <g id="line2d_33">
    <path clip-path="url(#p3f81753b4a)" d="M 319.936325 216.796783 
L 320.427701 216.297467 
L 320.911012 215.790339 
L 321.386132 215.27553 
L 321.852939 214.753171 
L 322.311315 214.223398 
L 322.76114 213.686347 
L 323.2023 213.142154 
L 323.634682 212.590961 
L 324.058173 212.032908 
L 324.472665 211.46814 
L 324.878052 210.8968 
L 325.27423 210.319036 
L 325.661096 209.734997 
L 326.038552 209.144832 
L 326.4065 208.548693 
L 326.764846 207.946734 
L 327.113498 207.339108 
L 327.452367 206.725972 
L 327.781364 206.107483 
L 328.100406 205.483801 
L 328.409411 204.855085 
L 328.7083 204.221497 
L 328.996994 203.583201 
L 329.275422 202.940359 
L 329.54351 202.293137 
L 329.80119 201.641701 
L 330.048396 200.986219 
L 330.285064 200.326859 
L 330.511134 199.66379 
L 330.726547 198.997183 
L 330.931248 198.327209 
L 331.125184 197.654041 
L 331.308307 196.97785 
L 331.480567 196.298811 
L 331.641923 195.617099 
L 331.792331 194.932887 
L 331.931753 194.246353 
L 332.060154 193.557673 
L 332.1775 192.867023 
L 332.283761 192.174581 
L 332.378911 191.480525 
L 332.462924 190.785032 
L 332.535779 190.088283 
L 332.597457 189.390455 
L 332.647942 188.691729 
L 332.687222 187.992283 
L 332.715287 187.292297 
L 332.732128 186.591952 
L 332.737743 185.891426 
" style="fill:none;stroke:#000000;stroke-linecap:square;stroke-width:1.5;"/>
   </g>
   <g id="line2d_34">
    <path clip-path="url(#p3f81753b4a)" d="M 194.143675 216.796783 
L 193.652299 216.297467 
L 193.168988 215.790339 
L 192.693868 215.27553 
L 192.227061 214.753171 
L 191.768685 214.223398 
L 191.31886 213.686347 
L 190.8777 213.142154 
L 190.445318 212.590961 
L 190.021827 212.032908 
L 189.607335 211.46814 
L 189.201948 210.8968 
L 188.80577 210.319036 
L 188.418904 209.734997 
L 188.041448 209.144832 
L 187.6735 208.548693 
L 187.315154 207.946734 
L 186.966502 207.339108 
L 186.627633 206.725972 
L 186.298636 206.107483 
L 185.979594 205.483801 
L 185.670589 204.855085 
L 185.3717 204.221497 
L 185.083006 203.583201 
L 184.804578 202.940359 
L 184.53649 202.293137 
L 184.27881 201.641701 
L 184.031604 200.986219 
L 183.794936 200.326859 
L 183.568866 199.66379 
L 183.353453 198.997183 
L 183.148752 198.327209 
L 182.954816 197.654041 
L 182.771693 196.97785 
L 182.599433 196.298811 
L 182.438077 195.617099 
L 182.287669 194.932887 
L 182.148247 194.246353 
L 182.019846 193.557673 
L 181.9025 192.867023 
L 181.796239 192.174581 
L 181.701089 191.480525 
L 181.617076 190.785032 
L 181.544221 190.088283 
L 181.482543 189.390455 
L 181.432058 188.691729 
L 181.392778 187.992283 
L 181.364713 187.292297 
L 181.347872 186.591952 
L 181.342257 185.891426 
" style="fill:none;stroke:#000000;stroke-linecap:square;stroke-width:1.5;"/>
   </g>
   <g id="line2d_35">
    <path clip-path="url(#p3f81753b4a)" d="M 319.936325 216.796783 
L 318.060556 218.751737 
L 316.267178 220.782538 
L 314.559255 222.885715 
L 312.939705 225.057676 
L 311.411295 227.294709 
L 309.976635 229.592992 
L 308.638177 231.9486 
L 307.398209 234.357507 
L 306.258847 236.815598 
L 305.22204 239.318673 
L 304.289557 241.862456 
L 303.462993 244.442601 
L 302.743759 247.054699 
L 302.133085 249.694289 
L 301.632013 252.356859 
L 301.2414 255.037862 
L 300.961913 257.732717 
L 300.79403 260.43682 
L 300.738037 263.14555 
" style="fill:none;stroke:#000000;stroke-linecap:square;stroke-width:1.5;"/>
   </g>
   <g id="line2d_36">
    <path clip-path="url(#p3f81753b4a)" d="M 194.143675 216.796783 
L 196.019444 218.751737 
L 197.812822 220.782538 
L 199.520745 222.885715 
L 201.140295 225.057676 
L 202.668705 227.294709 
L 204.103365 229.592992 
L 205.441823 231.9486 
L 206.681791 234.357507 
L 207.821153 236.815598 
L 208.85796 239.318673 
L 209.790443 241.862456 
L 210.617007 244.442601 
L 211.336241 247.054699 
L 211.946915 249.694289 
L 212.447987 252.356859 
L 212.8386 255.037862 
L 213.118087 257.732717 
L 213.28597 260.43682 
L 213.341963 263.14555 
" style="fill:none;stroke:#000000;stroke-linecap:square;stroke-width:1.5;"/>
   </g>
   <g id="line2d_37">
    <path clip-path="url(#p3f81753b4a)" d="M 300.738037 263.14555 
L 300.738868 263.312133 
L 300.741362 263.4787 
L 300.745517 263.645233 
L 300.751335 263.811716 
L 300.758813 263.978134 
L 300.767952 264.144468 
L 300.77875 264.310703 
L 300.791207 264.476821 
L 300.805321 264.642808 
L 300.821091 264.808645 
L 300.838515 264.974316 
L 300.857591 265.139805 
L 300.878318 265.305096 
L 300.900693 265.470172 
L 300.924714 265.635016 
L 300.95038 265.799612 
L 300.977686 265.963944 
L 301.006632 266.127995 
L 301.037213 266.291749 
L 301.069426 266.45519 
L 301.103269 266.618301 
L 301.138738 266.781066 
L 301.17583 266.94347 
L 301.21454 267.105495 
L 301.254866 267.267125 
L 301.296802 267.428345 
L 301.340346 267.589139 
L 301.385491 267.74949 
L 301.432235 267.909383 
L 301.480572 268.068801 
L 301.530497 268.227729 
L 301.582006 268.38615 
L 301.635094 268.54405 
L 301.689754 268.701412 
L 301.745982 268.858221 
L 301.803773 269.014461 
L 301.863119 269.170116 
L 301.924016 269.325172 
L 301.986457 269.479612 
L 302.050437 269.633421 
L 302.115948 269.786584 
L 302.182984 269.939086 
L 302.251539 270.090911 
L 302.321606 270.242044 
L 302.393177 270.392471 
L 302.466246 270.542175 
L 302.540805 270.691144 
L 302.616847 270.83936 
L 302.694365 270.986811 
" style="fill:none;stroke:#000000;stroke-linecap:square;stroke-width:1.5;"/>
   </g>
   <g id="line2d_38">
    <path clip-path="url(#p3f81753b4a)" d="M 213.341963 263.14555 
L 213.341132 263.312133 
L 213.338638 263.4787 
L 213.334483 263.645233 
L 213.328665 263.811716 
L 213.321187 263.978134 
L 213.312048 264.144468 
L 213.30125 264.310703 
L 213.288793 264.476821 
L 213.274679 264.642808 
L 213.258909 264.808645 
L 213.241485 264.974316 
L 213.222409 265.139805 
L 213.201682 265.305096 
L 213.179307 265.470172 
L 213.155286 265.635016 
L 213.12962 265.799612 
L 213.102314 265.963944 
L 213.073368 266.127995 
L 213.042787 266.291749 
L 213.010574 266.45519 
L 212.976731 266.618301 
L 212.941262 266.781066 
L 212.90417 266.94347 
L 212.86546 267.105495 
L 212.825134 267.267125 
L 212.783198 267.428345 
L 212.739654 267.589139 
L 212.694509 267.74949 
L 212.647765 267.909383 
L 212.599428 268.068801 
L 212.549503 268.227729 
L 212.497994 268.38615 
L 212.444906 268.54405 
L 212.390246 268.701412 
L 212.334018 268.858221 
L 212.276227 269.014461 
L 212.216881 269.170116 
L 212.155984 269.325172 
L 212.093543 269.479612 
L 212.029563 269.633421 
L 211.964052 269.786584 
L 211.897016 269.939086 
L 211.828461 270.090911 
L 211.758394 270.242044 
L 211.686823 270.392471 
L 211.613754 270.542175 
L 211.539195 270.691144 
L 211.463153 270.83936 
L 211.385635 270.986811 
" style="fill:none;stroke:#000000;stroke-linecap:square;stroke-width:1.5;"/>
   </g>
   <g id="line2d_39">
    <path clip-path="url(#p3f81753b4a)" d="M 302.694365 270.986811 
L 306.534195 278.261791 
L 310.323843 285.559803 
L 314.06331 292.880846 
L 317.752594 300.22492 
L 321.391697 307.592025 
L 324.980617 314.982161 
L 328.519356 322.395328 
L 332.007913 329.831526 
L 335.446288 337.290756 
L 338.834482 344.773016 
L 342.172493 352.278308 
L 345.460322 359.806631 
L 348.69797 367.357985 
L 351.885436 374.93237 
L 355.02272 382.529786 
L 358.109821 390.150234 
L 361.146741 397.793712 
L 364.13348 405.460222 
L 367.070036 413.149762 
L 369.95641 420.862334 
L 372.792603 428.597937 
L 375.578613 436.356571 
L 378.314442 444.138236 
L 381.000089 451.942933 
L 383.635554 459.77066 
L 386.220837 467.621418 
L 388.755938 475.495208 
L 391.240857 483.392029 
L 393.675595 491.311881 
L 396.06015 499.254764 
L 398.394524 507.220678 
L 400.678716 515.209623 
L 402.912726 523.2216 
L 405.096554 531.256607 
L 407.2302 539.314646 
L 409.313664 547.395716 
L 411.346946 555.499816 
L 413.330047 563.626948 
L 415.262965 571.777112 
L 417.145702 579.950306 
L 418.978257 588.146531 
L 420.76063 596.365788 
L 422.492821 604.608075 
L 424.17483 612.873394 
L 425.806657 621.161744 
L 427.388302 629.473125 
L 428.919766 637.807537 
L 430.401048 646.16498 
L 431.832147 654.545455 
" style="fill:none;stroke:#000000;stroke-linecap:square;stroke-width:1.5;"/>
   </g>
   <g id="line2d_40">
    <path clip-path="url(#p3f81753b4a)" d="M 211.385635 270.986811 
L 207.545805 278.261791 
L 203.756157 285.559803 
L 200.01669 292.880846 
L 196.327406 300.22492 
L 192.688303 307.592025 
L 189.099383 314.982161 
L 185.560644 322.395328 
L 182.072087 329.831526 
L 178.633712 337.290756 
L 175.245518 344.773016 
L 171.907507 352.278308 
L 168.619678 359.806631 
L 165.38203 367.357985 
L 162.194564 374.93237 
L 159.05728 382.529786 
L 155.970179 390.150234 
L 152.933259 397.793712 
L 149.94652 405.460222 
L 147.009964 413.149762 
L 144.12359 420.862334 
L 141.287397 428.597937 
L 138.501387 436.356571 
L 135.765558 444.138236 
L 133.079911 451.942933 
L 130.444446 459.77066 
L 127.859163 467.621418 
L 125.324062 475.495208 
L 122.839143 483.392029 
L 120.404405 491.311881 
L 118.01985 499.254764 
L 115.685476 507.220678 
L 113.401284 515.209623 
L 111.167274 523.2216 
L 108.983446 531.256607 
L 106.8498 539.314646 
L 104.766336 547.395716 
L 102.733054 555.499816 
L 100.749953 563.626948 
L 98.817035 571.777112 
L 96.934298 579.950306 
L 95.101743 588.146531 
L 93.31937 596.365788 
L 91.587179 604.608075 
L 89.90517 612.873394 
L 88.273343 621.161744 
L 86.691698 629.473125 
L 85.160234 637.807537 
L 83.678952 646.16498 
L 82.247853 654.545455 
" style="fill:none;stroke:#000000;stroke-linecap:square;stroke-width:1.5;"/>
   </g>
   <g id="patch_3">
    <path d="M 64.768638 684 
L 64.768638 36 
" style="fill:none;stroke:#000000;stroke-linecap:square;stroke-linejoin:miter;stroke-width:0.8;"/>
   </g>
   <g id="patch_4">
    <path d="M 449.311362 684 
L 449.311362 36 
" style="fill:none;stroke:#000000;stroke-linecap:square;stroke-linejoin:miter;stroke-width:0.8;"/>
   </g>
   <g id="patch_5">
    <path d="M 64.768638 684 
L 449.311362 684 
" style="fill:none;stroke:#000000;stroke-linecap:square;stroke-linejoin:miter;stroke-width:0.8;"/>
   </g>
   <g id="patch_6">
    <path d="M 64.768638 36 
L 449.311362 36 
" style="fill:none;stroke:#000000;stroke-linecap:square;stroke-linejoin:miter;stroke-width:0.8;"/>
   </g>
  </g>
 </g>
 <defs>
  <clipPath id="p3f81753b4a">
   <rect height="648" width="384.542724" x="64.768638" y="36"/>
  </clipPath>
 </defs>
</svg>
