<?xml version="1.0" encoding="utf-8" standalone="no"?>
<!DOCTYPE svg PUBLIC "-//W3C//DTD SVG 1.1//EN"
  "http://www.w3.org/Graphics/SVG/1.1/DTD/svg11.dtd">
<!-- Created with matplotlib (https://matplotlib.org/) -->
<svg height="720pt" version="1.1" viewBox="0 0 504 720" width="504pt" xmlns="http://www.w3.org/2000/svg" xmlns:xlink="http://www.w3.org/1999/xlink">
 <defs>
  <style type="text/css">
*{stroke-linecap:butt;stroke-linejoin:round;}
  </style>
 </defs>
 <g id="figure_1">
  <g id="patch_1">
   <path d="M 0 720 
L 504 720 
L 504 0 
L 0 0 
z
" style="fill:#ffffff;"/>
  </g>
  <g id="axes_1">
   <g id="patch_2">
    <path d="M 49.259908 684 
L 464.820092 684 
L 464.820092 36 
L 49.259908 36 
z
" style="fill:#ffffff;"/>
   </g>
   <g id="matplotlib.axis_1">
    <g id="xtick_1">
     <g id="line2d_1">
      <path clip-path="url(#pde98dc5cb7)" d="M 61.418283 684 
L 61.418283 36 
" style="fill:none;stroke:#b0b0b0;stroke-linecap:square;stroke-width:0.8;"/>
     </g>
     <g id="line2d_2">
      <defs>
       <path d="M 0 0 
L 0 3.5 
" id="m6616151cb5" style="stroke:#000000;stroke-width:0.8;"/>
      </defs>
      <g>
       <use style="stroke:#000000;stroke-width:0.8;" x="61.418283" xlink:href="#m6616151cb5" y="684"/>
      </g>
     </g>
     <g id="text_1">
      <!-- −1.5 -->
      <defs>
       <path d="M 10.59375 35.5 
L 73.1875 35.5 
L 73.1875 27.203125 
L 10.59375 27.203125 
z
" id="DejaVuSans-8722"/>
       <path d="M 12.40625 8.296875 
L 28.515625 8.296875 
L 28.515625 63.921875 
L 10.984375 60.40625 
L 10.984375 69.390625 
L 28.421875 72.90625 
L 38.28125 72.90625 
L 38.28125 8.296875 
L 54.390625 8.296875 
L 54.390625 0 
L 12.40625 0 
z
" id="DejaVuSans-49"/>
       <path d="M 10.6875 12.40625 
L 21 12.40625 
L 21 0 
L 10.6875 0 
z
" id="DejaVuSans-46"/>
       <path d="M 10.796875 72.90625 
L 49.515625 72.90625 
L 49.515625 64.59375 
L 19.828125 64.59375 
L 19.828125 46.734375 
Q 21.96875 47.46875 24.109375 47.828125 
Q 26.265625 48.1875 28.421875 48.1875 
Q 40.625 48.1875 47.75 41.5 
Q 54.890625 34.8125 54.890625 23.390625 
Q 54.890625 11.625 47.5625 5.09375 
Q 40.234375 -1.421875 26.90625 -1.421875 
Q 22.3125 -1.421875 17.546875 -0.640625 
Q 12.796875 0.140625 7.71875 1.703125 
L 7.71875 11.625 
Q 12.109375 9.234375 16.796875 8.0625 
Q 21.484375 6.890625 26.703125 6.890625 
Q 35.15625 6.890625 40.078125 11.328125 
Q 45.015625 15.765625 45.015625 23.390625 
Q 45.015625 31 40.078125 35.4375 
Q 35.15625 39.890625 26.703125 39.890625 
Q 22.75 39.890625 18.8125 39.015625 
Q 14.890625 38.140625 10.796875 36.28125 
z
" id="DejaVuSans-53"/>
      </defs>
      <g transform="translate(49.276877 698.598438)scale(0.1 -0.1)">
       <use xlink:href="#DejaVuSans-8722"/>
       <use x="83.789062" xlink:href="#DejaVuSans-49"/>
       <use x="147.412109" xlink:href="#DejaVuSans-46"/>
       <use x="179.199219" xlink:href="#DejaVuSans-53"/>
      </g>
     </g>
    </g>
    <g id="xtick_2">
     <g id="line2d_3">
      <path clip-path="url(#pde98dc5cb7)" d="M 126.625522 684 
L 126.625522 36 
" style="fill:none;stroke:#b0b0b0;stroke-linecap:square;stroke-width:0.8;"/>
     </g>
     <g id="line2d_4">
      <g>
       <use style="stroke:#000000;stroke-width:0.8;" x="126.625522" xlink:href="#m6616151cb5" y="684"/>
      </g>
     </g>
     <g id="text_2">
      <!-- −1.0 -->
      <defs>
       <path d="M 31.78125 66.40625 
Q 24.171875 66.40625 20.328125 58.90625 
Q 16.5 51.421875 16.5 36.375 
Q 16.5 21.390625 20.328125 13.890625 
Q 24.171875 6.390625 31.78125 6.390625 
Q 39.453125 6.390625 43.28125 13.890625 
Q 47.125 21.390625 47.125 36.375 
Q 47.125 51.421875 43.28125 58.90625 
Q 39.453125 66.40625 31.78125 66.40625 
z
M 31.78125 74.21875 
Q 44.046875 74.21875 50.515625 64.515625 
Q 56.984375 54.828125 56.984375 36.375 
Q 56.984375 17.96875 50.515625 8.265625 
Q 44.046875 -1.421875 31.78125 -1.421875 
Q 19.53125 -1.421875 13.0625 8.265625 
Q 6.59375 17.96875 6.59375 36.375 
Q 6.59375 54.828125 13.0625 64.515625 
Q 19.53125 74.21875 31.78125 74.21875 
z
" id="DejaVuSans-48"/>
      </defs>
      <g transform="translate(114.484116 698.598438)scale(0.1 -0.1)">
       <use xlink:href="#DejaVuSans-8722"/>
       <use x="83.789062" xlink:href="#DejaVuSans-49"/>
       <use x="147.412109" xlink:href="#DejaVuSans-46"/>
       <use x="179.199219" xlink:href="#DejaVuSans-48"/>
      </g>
     </g>
    </g>
    <g id="xtick_3">
     <g id="line2d_5">
      <path clip-path="url(#pde98dc5cb7)" d="M 191.832761 684 
L 191.832761 36 
" style="fill:none;stroke:#b0b0b0;stroke-linecap:square;stroke-width:0.8;"/>
     </g>
     <g id="line2d_6">
      <g>
       <use style="stroke:#000000;stroke-width:0.8;" x="191.832761" xlink:href="#m6616151cb5" y="684"/>
      </g>
     </g>
     <g id="text_3">
      <!-- −0.5 -->
      <g transform="translate(179.691355 698.598438)scale(0.1 -0.1)">
       <use xlink:href="#DejaVuSans-8722"/>
       <use x="83.789062" xlink:href="#DejaVuSans-48"/>
       <use x="147.412109" xlink:href="#DejaVuSans-46"/>
       <use x="179.199219" xlink:href="#DejaVuSans-53"/>
      </g>
     </g>
    </g>
    <g id="xtick_4">
     <g id="line2d_7">
      <path clip-path="url(#pde98dc5cb7)" d="M 257.04 684 
L 257.04 36 
" style="fill:none;stroke:#b0b0b0;stroke-linecap:square;stroke-width:0.8;"/>
     </g>
     <g id="line2d_8">
      <g>
       <use style="stroke:#000000;stroke-width:0.8;" x="257.04" xlink:href="#m6616151cb5" y="684"/>
      </g>
     </g>
     <g id="text_4">
      <!-- 0.0 -->
      <g transform="translate(249.088437 698.598438)scale(0.1 -0.1)">
       <use xlink:href="#DejaVuSans-48"/>
       <use x="63.623047" xlink:href="#DejaVuSans-46"/>
       <use x="95.410156" xlink:href="#DejaVuSans-48"/>
      </g>
     </g>
    </g>
    <g id="xtick_5">
     <g id="line2d_9">
      <path clip-path="url(#pde98dc5cb7)" d="M 322.247239 684 
L 322.247239 36 
" style="fill:none;stroke:#b0b0b0;stroke-linecap:square;stroke-width:0.8;"/>
     </g>
     <g id="line2d_10">
      <g>
       <use style="stroke:#000000;stroke-width:0.8;" x="322.247239" xlink:href="#m6616151cb5" y="684"/>
      </g>
     </g>
     <g id="text_5">
      <!-- 0.5 -->
      <g transform="translate(314.295676 698.598438)scale(0.1 -0.1)">
       <use xlink:href="#DejaVuSans-48"/>
       <use x="63.623047" xlink:href="#DejaVuSans-46"/>
       <use x="95.410156" xlink:href="#DejaVuSans-53"/>
      </g>
     </g>
    </g>
    <g id="xtick_6">
     <g id="line2d_11">
      <path clip-path="url(#pde98dc5cb7)" d="M 387.454478 684 
L 387.454478 36 
" style="fill:none;stroke:#b0b0b0;stroke-linecap:square;stroke-width:0.8;"/>
     </g>
     <g id="line2d_12">
      <g>
       <use style="stroke:#000000;stroke-width:0.8;" x="387.454478" xlink:href="#m6616151cb5" y="684"/>
      </g>
     </g>
     <g id="text_6">
      <!-- 1.0 -->
      <g transform="translate(379.502915 698.598438)scale(0.1 -0.1)">
       <use xlink:href="#DejaVuSans-49"/>
       <use x="63.623047" xlink:href="#DejaVuSans-46"/>
       <use x="95.410156" xlink:href="#DejaVuSans-48"/>
      </g>
     </g>
    </g>
    <g id="xtick_7">
     <g id="line2d_13">
      <path clip-path="url(#pde98dc5cb7)" d="M 452.661717 684 
L 452.661717 36 
" style="fill:none;stroke:#b0b0b0;stroke-linecap:square;stroke-width:0.8;"/>
     </g>
     <g id="line2d_14">
      <g>
       <use style="stroke:#000000;stroke-width:0.8;" x="452.661717" xlink:href="#m6616151cb5" y="684"/>
      </g>
     </g>
     <g id="text_7">
      <!-- 1.5 -->
      <g transform="translate(444.710154 698.598438)scale(0.1 -0.1)">
       <use xlink:href="#DejaVuSans-49"/>
       <use x="63.623047" xlink:href="#DejaVuSans-46"/>
       <use x="95.410156" xlink:href="#DejaVuSans-53"/>
      </g>
     </g>
    </g>
    <g id="text_8">
     <!-- m -->
     <defs>
      <path d="M 52 44.1875 
Q 55.375 50.25 60.0625 53.125 
Q 64.75 56 71.09375 56 
Q 79.640625 56 84.28125 50.015625 
Q 88.921875 44.046875 88.921875 33.015625 
L 88.921875 0 
L 79.890625 0 
L 79.890625 32.71875 
Q 79.890625 40.578125 77.09375 44.375 
Q 74.3125 48.1875 68.609375 48.1875 
Q 61.625 48.1875 57.5625 43.546875 
Q 53.515625 38.921875 53.515625 30.90625 
L 53.515625 0 
L 44.484375 0 
L 44.484375 32.71875 
Q 44.484375 40.625 41.703125 44.40625 
Q 38.921875 48.1875 33.109375 48.1875 
Q 26.21875 48.1875 22.15625 43.53125 
Q 18.109375 38.875 18.109375 30.90625 
L 18.109375 0 
L 9.078125 0 
L 9.078125 54.6875 
L 18.109375 54.6875 
L 18.109375 46.1875 
Q 21.1875 51.21875 25.484375 53.609375 
Q 29.78125 56 35.6875 56 
Q 41.65625 56 45.828125 52.96875 
Q 50 49.953125 52 44.1875 
z
" id="DejaVuSans-109"/>
     </defs>
     <g transform="translate(252.169687 712.276562)scale(0.1 -0.1)">
      <use xlink:href="#DejaVuSans-109"/>
     </g>
    </g>
   </g>
   <g id="matplotlib.axis_2">
    <g id="ytick_1">
     <g id="line2d_15">
      <path clip-path="url(#pde98dc5cb7)" d="M 49.259908 656.147016 
L 464.820092 656.147016 
" style="fill:none;stroke:#b0b0b0;stroke-linecap:square;stroke-width:0.8;"/>
     </g>
     <g id="line2d_16">
      <defs>
       <path d="M 0 0 
L -3.5 0 
" id="md9c6654910" style="stroke:#000000;stroke-width:0.8;"/>
      </defs>
      <g>
       <use style="stroke:#000000;stroke-width:0.8;" x="49.259908" xlink:href="#md9c6654910" y="656.147016"/>
      </g>
     </g>
     <g id="text_9">
      <!-- −4 -->
      <defs>
       <path d="M 37.796875 64.3125 
L 12.890625 25.390625 
L 37.796875 25.390625 
z
M 35.203125 72.90625 
L 47.609375 72.90625 
L 47.609375 25.390625 
L 58.015625 25.390625 
L 58.015625 17.1875 
L 47.609375 17.1875 
L 47.609375 0 
L 37.796875 0 
L 37.796875 17.1875 
L 4.890625 17.1875 
L 4.890625 26.703125 
z
" id="DejaVuSans-52"/>
      </defs>
      <g transform="translate(27.517721 659.946235)scale(0.1 -0.1)">
       <use xlink:href="#DejaVuSans-8722"/>
       <use x="83.789062" xlink:href="#DejaVuSans-52"/>
      </g>
     </g>
    </g>
    <g id="ytick_2">
     <g id="line2d_17">
      <path clip-path="url(#pde98dc5cb7)" d="M 49.259908 525.732538 
L 464.820092 525.732538 
" style="fill:none;stroke:#b0b0b0;stroke-linecap:square;stroke-width:0.8;"/>
     </g>
     <g id="line2d_18">
      <g>
       <use style="stroke:#000000;stroke-width:0.8;" x="49.259908" xlink:href="#md9c6654910" y="525.732538"/>
      </g>
     </g>
     <g id="text_10">
      <!-- −3 -->
      <defs>
       <path d="M 40.578125 39.3125 
Q 47.65625 37.796875 51.625 33 
Q 55.609375 28.21875 55.609375 21.1875 
Q 55.609375 10.40625 48.1875 4.484375 
Q 40.765625 -1.421875 27.09375 -1.421875 
Q 22.515625 -1.421875 17.65625 -0.515625 
Q 12.796875 0.390625 7.625 2.203125 
L 7.625 11.71875 
Q 11.71875 9.328125 16.59375 8.109375 
Q 21.484375 6.890625 26.8125 6.890625 
Q 36.078125 6.890625 40.9375 10.546875 
Q 45.796875 14.203125 45.796875 21.1875 
Q 45.796875 27.640625 41.28125 31.265625 
Q 36.765625 34.90625 28.71875 34.90625 
L 20.21875 34.90625 
L 20.21875 43.015625 
L 29.109375 43.015625 
Q 36.375 43.015625 40.234375 45.921875 
Q 44.09375 48.828125 44.09375 54.296875 
Q 44.09375 59.90625 40.109375 62.90625 
Q 36.140625 65.921875 28.71875 65.921875 
Q 24.65625 65.921875 20.015625 65.03125 
Q 15.375 64.15625 9.8125 62.3125 
L 9.8125 71.09375 
Q 15.4375 72.65625 20.34375 73.4375 
Q 25.25 74.21875 29.59375 74.21875 
Q 40.828125 74.21875 47.359375 69.109375 
Q 53.90625 64.015625 53.90625 55.328125 
Q 53.90625 49.265625 50.4375 45.09375 
Q 46.96875 40.921875 40.578125 39.3125 
z
" id="DejaVuSans-51"/>
      </defs>
      <g transform="translate(27.517721 529.531757)scale(0.1 -0.1)">
       <use xlink:href="#DejaVuSans-8722"/>
       <use x="83.789062" xlink:href="#DejaVuSans-51"/>
      </g>
     </g>
    </g>
    <g id="ytick_3">
     <g id="line2d_19">
      <path clip-path="url(#pde98dc5cb7)" d="M 49.259908 395.31806 
L 464.820092 395.31806 
" style="fill:none;stroke:#b0b0b0;stroke-linecap:square;stroke-width:0.8;"/>
     </g>
     <g id="line2d_20">
      <g>
       <use style="stroke:#000000;stroke-width:0.8;" x="49.259908" xlink:href="#md9c6654910" y="395.31806"/>
      </g>
     </g>
     <g id="text_11">
      <!-- −2 -->
      <defs>
       <path d="M 19.1875 8.296875 
L 53.609375 8.296875 
L 53.609375 0 
L 7.328125 0 
L 7.328125 8.296875 
Q 12.9375 14.109375 22.625 23.890625 
Q 32.328125 33.6875 34.8125 36.53125 
Q 39.546875 41.84375 41.421875 45.53125 
Q 43.3125 49.21875 43.3125 52.78125 
Q 43.3125 58.59375 39.234375 62.25 
Q 35.15625 65.921875 28.609375 65.921875 
Q 23.96875 65.921875 18.8125 64.3125 
Q 13.671875 62.703125 7.8125 59.421875 
L 7.8125 69.390625 
Q 13.765625 71.78125 18.9375 73 
Q 24.125 74.21875 28.421875 74.21875 
Q 39.75 74.21875 46.484375 68.546875 
Q 53.21875 62.890625 53.21875 53.421875 
Q 53.21875 48.921875 51.53125 44.890625 
Q 49.859375 40.875 45.40625 35.40625 
Q 44.1875 33.984375 37.640625 27.21875 
Q 31.109375 20.453125 19.1875 8.296875 
z
" id="DejaVuSans-50"/>
      </defs>
      <g transform="translate(27.517721 399.117279)scale(0.1 -0.1)">
       <use xlink:href="#DejaVuSans-8722"/>
       <use x="83.789062" xlink:href="#DejaVuSans-50"/>
      </g>
     </g>
    </g>
    <g id="ytick_4">
     <g id="line2d_21">
      <path clip-path="url(#pde98dc5cb7)" d="M 49.259908 264.903582 
L 464.820092 264.903582 
" style="fill:none;stroke:#b0b0b0;stroke-linecap:square;stroke-width:0.8;"/>
     </g>
     <g id="line2d_22">
      <g>
       <use style="stroke:#000000;stroke-width:0.8;" x="49.259908" xlink:href="#md9c6654910" y="264.903582"/>
      </g>
     </g>
     <g id="text_12">
      <!-- −1 -->
      <g transform="translate(27.517721 268.702801)scale(0.1 -0.1)">
       <use xlink:href="#DejaVuSans-8722"/>
       <use x="83.789062" xlink:href="#DejaVuSans-49"/>
      </g>
     </g>
    </g>
    <g id="ytick_5">
     <g id="line2d_23">
      <path clip-path="url(#pde98dc5cb7)" d="M 49.259908 134.489104 
L 464.820092 134.489104 
" style="fill:none;stroke:#b0b0b0;stroke-linecap:square;stroke-width:0.8;"/>
     </g>
     <g id="line2d_24">
      <g>
       <use style="stroke:#000000;stroke-width:0.8;" x="49.259908" xlink:href="#md9c6654910" y="134.489104"/>
      </g>
     </g>
     <g id="text_13">
      <!-- 0 -->
      <g transform="translate(35.897408 138.288323)scale(0.1 -0.1)">
       <use xlink:href="#DejaVuSans-48"/>
      </g>
     </g>
    </g>
    <g id="text_14">
     <!-- m -->
     <g transform="translate(21.438033 364.870313)rotate(-90)scale(0.1 -0.1)">
      <use xlink:href="#DejaVuSans-109"/>
     </g>
    </g>
   </g>
   <g id="line2d_25">
    <path clip-path="url(#pde98dc5cb7)" d="M 282.979309 107.367431 
L 231.100691 107.367431 
" style="fill:none;stroke:#ffa500;stroke-dasharray:5.55,2.4;stroke-dashoffset:0;stroke-width:1.5;"/>
   </g>
   <g id="line2d_26">
    <path clip-path="url(#pde98dc5cb7)" d="M 271.745144 134.489104 
L 242.334856 134.489104 
" style="fill:none;stroke:#808080;stroke-dasharray:5.55,2.4;stroke-dashoffset:0;stroke-width:1.5;"/>
   </g>
   <g id="line2d_27">
    <path clip-path="url(#pde98dc5cb7)" d="M 257.04 65.454545 
L 282.979309 65.454545 
L 282.979309 107.367431 
" style="fill:none;stroke:#000000;stroke-linecap:square;stroke-width:1.5;"/>
   </g>
   <g id="line2d_28">
    <path clip-path="url(#pde98dc5cb7)" d="M 257.04 65.454545 
L 231.100691 65.454545 
L 231.100691 107.367431 
" style="fill:none;stroke:#000000;stroke-linecap:square;stroke-width:1.5;"/>
   </g>
   <g id="line2d_29">
    <path clip-path="url(#pde98dc5cb7)" d="M 278.205699 118.891944 
L 278.388932 118.70575 
L 278.569157 118.516644 
L 278.746328 118.324673 
L 278.920399 118.129888 
L 279.091326 117.932337 
L 279.259064 117.732072 
L 279.423572 117.529144 
L 279.584805 117.323606 
L 279.742724 117.11551 
L 279.897287 116.904909 
L 280.048454 116.691858 
L 280.196188 116.476412 
L 280.340449 116.258626 
L 280.481201 116.038555 
L 280.618408 115.816257 
L 280.752034 115.591788 
L 280.882045 115.365206 
L 281.008408 115.136569 
L 281.13109 114.905937 
L 281.25006 114.673367 
L 281.365287 114.438921 
L 281.476742 114.202658 
L 281.584395 113.964639 
L 281.68822 113.724926 
L 281.788189 113.483578 
L 281.884277 113.24066 
L 281.97646 112.996233 
L 282.064713 112.750359 
L 282.149013 112.503103 
L 282.22934 112.254527 
L 282.305673 112.004696 
L 282.377991 111.753674 
L 282.446277 111.501524 
L 282.510512 111.248313 
L 282.570681 110.994104 
L 282.626768 110.738964 
L 282.678758 110.482958 
L 282.726638 110.226151 
L 282.770396 109.968609 
L 282.810021 109.7104 
L 282.845502 109.451588 
L 282.87683 109.192241 
L 282.903997 108.932426 
L 282.926997 108.672208 
L 282.945823 108.411655 
L 282.96047 108.150834 
L 282.970935 107.889811 
L 282.977215 107.628654 
L 282.979309 107.367431 
" style="fill:none;stroke:#000000;stroke-linecap:square;stroke-width:1.5;"/>
   </g>
   <g id="line2d_30">
    <path clip-path="url(#pde98dc5cb7)" d="M 235.874301 118.891944 
L 235.691068 118.70575 
L 235.510843 118.516644 
L 235.333672 118.324673 
L 235.159601 118.129888 
L 234.988674 117.932337 
L 234.820936 117.732072 
L 234.656428 117.529144 
L 234.495195 117.323606 
L 234.337276 117.11551 
L 234.182713 116.904909 
L 234.031546 116.691858 
L 233.883812 116.476412 
L 233.739551 116.258626 
L 233.598799 116.038555 
L 233.461592 115.816257 
L 233.327966 115.591788 
L 233.197955 115.365206 
L 233.071592 115.136569 
L 232.94891 114.905937 
L 232.82994 114.673367 
L 232.714713 114.438921 
L 232.603258 114.202658 
L 232.495605 113.964639 
L 232.39178 113.724926 
L 232.291811 113.483578 
L 232.195723 113.24066 
L 232.10354 112.996233 
L 232.015287 112.750359 
L 231.930987 112.503103 
L 231.85066 112.254527 
L 231.774327 112.004696 
L 231.702009 111.753674 
L 231.633723 111.501524 
L 231.569488 111.248313 
L 231.509319 110.994104 
L 231.453232 110.738964 
L 231.401242 110.482958 
L 231.353362 110.226151 
L 231.309604 109.968609 
L 231.269979 109.7104 
L 231.234498 109.451588 
L 231.20317 109.192241 
L 231.176003 108.932426 
L 231.153003 108.672208 
L 231.134177 108.411655 
L 231.11953 108.150834 
L 231.109065 107.889811 
L 231.102785 107.628654 
L 231.100691 107.367431 
" style="fill:none;stroke:#000000;stroke-linecap:square;stroke-width:1.5;"/>
   </g>
   <g id="line2d_31">
    <path clip-path="url(#pde98dc5cb7)" d="M 278.205699 118.891944 
L 277.574471 119.54982 
L 276.970968 120.233219 
L 276.396223 120.940975 
L 275.851216 121.671877 
L 275.336879 122.424677 
L 274.854092 123.198089 
L 274.403678 123.990792 
L 273.986407 124.801431 
L 273.602992 125.628621 
L 273.254088 126.470949 
L 272.940292 127.326976 
L 272.662139 128.195239 
L 272.420104 129.074255 
L 272.214602 129.962523 
L 272.045982 130.858524 
L 271.914534 131.760727 
L 271.820482 132.667593 
L 271.763986 133.57757 
L 271.745144 134.489104 
" style="fill:none;stroke:#000000;stroke-linecap:square;stroke-width:1.5;"/>
   </g>
   <g id="line2d_32">
    <path clip-path="url(#pde98dc5cb7)" d="M 235.874301 118.891944 
L 236.505529 119.54982 
L 237.109032 120.233219 
L 237.683777 120.940975 
L 238.228784 121.671877 
L 238.743121 122.424677 
L 239.225908 123.198089 
L 239.676322 123.990792 
L 240.093593 124.801431 
L 240.477008 125.628621 
L 240.825912 126.470949 
L 241.139708 127.326976 
L 241.417861 128.195239 
L 241.659896 129.074255 
L 241.865398 129.962523 
L 242.034018 130.858524 
L 242.165466 131.760727 
L 242.259518 132.667593 
L 242.316014 133.57757 
L 242.334856 134.489104 
" style="fill:none;stroke:#000000;stroke-linecap:square;stroke-width:1.5;"/>
   </g>
   <g id="line2d_33">
    <path clip-path="url(#pde98dc5cb7)" d="M 271.745144 134.489104 
L 271.745555 134.557084 
L 271.746789 134.625054 
L 271.748846 134.693004 
L 271.751724 134.760924 
L 271.755425 134.828805 
L 271.759946 134.896636 
L 271.765288 134.964406 
L 271.77145 135.032108 
L 271.778431 135.09973 
L 271.786229 135.167262 
L 271.794845 135.234695 
L 271.804275 135.302019 
L 271.81452 135.369224 
L 271.825577 135.4363 
L 271.837445 135.503237 
L 271.850123 135.570025 
L 271.863608 135.636656 
L 271.877898 135.703118 
L 271.892991 135.769402 
L 271.908885 135.835499 
L 271.925578 135.901399 
L 271.943068 135.967092 
L 271.961351 136.032569 
L 271.980425 136.097819 
L 272.000287 136.162834 
L 272.020935 136.227603 
L 272.042365 136.292119 
L 272.064574 136.35637 
L 272.087559 136.420347 
L 272.111317 136.484042 
L 272.135844 136.547444 
L 272.161136 136.610545 
L 272.18719 136.673336 
L 272.214002 136.735806 
L 272.241568 136.797947 
L 272.269884 136.859751 
L 272.298946 136.921207 
L 272.32875 136.982307 
L 272.35929 137.043041 
L 272.390564 137.103402 
L 272.422565 137.16338 
L 272.455291 137.222966 
L 272.488734 137.282151 
L 272.522892 137.340928 
L 272.557758 137.399287 
L 272.593329 137.45722 
L 272.629597 137.514718 
L 272.666559 137.571773 
L 272.704209 137.628376 
" style="fill:none;stroke:#000000;stroke-linecap:square;stroke-width:1.5;"/>
   </g>
   <g id="line2d_34">
    <path clip-path="url(#pde98dc5cb7)" d="M 242.334856 134.489104 
L 242.334445 134.557084 
L 242.333211 134.625054 
L 242.331154 134.693004 
L 242.328276 134.760924 
L 242.324575 134.828805 
L 242.320054 134.896636 
L 242.314712 134.964406 
L 242.30855 135.032108 
L 242.301569 135.09973 
L 242.293771 135.167262 
L 242.285155 135.234695 
L 242.275725 135.302019 
L 242.26548 135.369224 
L 242.254423 135.4363 
L 242.242555 135.503237 
L 242.229877 135.570025 
L 242.216392 135.636656 
L 242.202102 135.703118 
L 242.187009 135.769402 
L 242.171115 135.835499 
L 242.154422 135.901399 
L 242.136932 135.967092 
L 242.118649 136.032569 
L 242.099575 136.097819 
L 242.079713 136.162834 
L 242.059065 136.227603 
L 242.037635 136.292119 
L 242.015426 136.35637 
L 241.992441 136.420347 
L 241.968683 136.484042 
L 241.944156 136.547444 
L 241.918864 136.610545 
L 241.89281 136.673336 
L 241.865998 136.735806 
L 241.838432 136.797947 
L 241.810116 136.859751 
L 241.781054 136.921207 
L 241.75125 136.982307 
L 241.72071 137.043041 
L 241.689436 137.103402 
L 241.657435 137.16338 
L 241.624709 137.222966 
L 241.591266 137.282151 
L 241.557108 137.340928 
L 241.522242 137.399287 
L 241.486671 137.45722 
L 241.450403 137.514718 
L 241.413441 137.571773 
L 241.375791 137.628376 
" style="fill:none;stroke:#000000;stroke-linecap:square;stroke-width:1.5;"/>
   </g>
   <g id="line2d_35">
    <path clip-path="url(#pde98dc5cb7)" d="M 272.704209 137.628376 
L 278.145252 145.810461 
L 283.506887 154.091181 
L 288.789113 162.470535 
L 293.991931 170.948525 
L 299.11534 179.525151 
L 304.159341 188.200411 
L 309.123934 196.974306 
L 314.009118 205.846837 
L 318.814894 214.818003 
L 323.541261 223.887804 
L 328.18822 233.05624 
L 332.75577 242.323311 
L 337.243912 251.689017 
L 341.652645 261.153359 
L 345.98197 270.716335 
L 350.231887 280.377947 
L 354.402395 290.138194 
L 358.493494 299.997076 
L 362.505185 309.954593 
L 366.437468 320.010746 
L 370.290342 330.165533 
L 374.063808 340.418956 
L 377.757866 350.771014 
L 381.372515 361.221707 
L 384.907755 371.771035 
L 388.363587 382.418998 
L 391.740011 393.165597 
L 395.037026 404.01083 
L 398.254633 414.954699 
L 401.392831 425.997203 
L 404.451621 437.138342 
L 407.431002 448.378116 
L 410.330975 459.716525 
L 413.151539 471.15357 
L 415.892695 482.689249 
L 418.554443 494.323564 
L 421.136782 506.056514 
L 423.639713 517.888099 
L 426.063235 529.818319 
L 428.407349 541.847175 
L 430.672054 553.974665 
L 432.857351 566.200791 
L 434.963239 578.525552 
L 436.989719 590.948948 
L 438.936791 603.470979 
L 440.804454 616.091645 
L 442.592709 628.810946 
L 444.301555 641.628883 
L 445.930993 654.545455 
" style="fill:none;stroke:#000000;stroke-linecap:square;stroke-width:1.5;"/>
   </g>
   <g id="line2d_36">
    <path clip-path="url(#pde98dc5cb7)" d="M 241.375791 137.628376 
L 235.934748 145.810461 
L 230.573113 154.091181 
L 225.290887 162.470535 
L 220.088069 170.948525 
L 214.96466 179.525151 
L 209.920659 188.200411 
L 204.956066 196.974306 
L 200.070882 205.846837 
L 195.265106 214.818003 
L 190.538739 223.887804 
L 185.89178 233.05624 
L 181.32423 242.323311 
L 176.836088 251.689017 
L 172.427355 261.153359 
L 168.09803 270.716335 
L 163.848113 280.377947 
L 159.677605 290.138194 
L 155.586506 299.997076 
L 151.574815 309.954593 
L 147.642532 320.010746 
L 143.789658 330.165533 
L 140.016192 340.418956 
L 136.322134 350.771014 
L 132.707485 361.221707 
L 129.172245 371.771035 
L 125.716413 382.418998 
L 122.339989 393.165597 
L 119.042974 404.01083 
L 115.825367 414.954699 
L 112.687169 425.997203 
L 109.628379 437.138342 
L 106.648998 448.378116 
L 103.749025 459.716525 
L 100.928461 471.15357 
L 98.187305 482.689249 
L 95.525557 494.323564 
L 92.943218 506.056514 
L 90.440287 517.888099 
L 88.016765 529.818319 
L 85.672651 541.847175 
L 83.407946 553.974665 
L 81.222649 566.200791 
L 79.116761 578.525552 
L 77.090281 590.948948 
L 75.143209 603.470979 
L 73.275546 616.091645 
L 71.487291 628.810946 
L 69.778445 641.628883 
L 68.149007 654.545455 
" style="fill:none;stroke:#000000;stroke-linecap:square;stroke-width:1.5;"/>
   </g>
   <g id="patch_3">
    <path d="M 49.259908 684 
L 49.259908 36 
" style="fill:none;stroke:#000000;stroke-linecap:square;stroke-linejoin:miter;stroke-width:0.8;"/>
   </g>
   <g id="patch_4">
    <path d="M 464.820092 684 
L 464.820092 36 
" style="fill:none;stroke:#000000;stroke-linecap:square;stroke-linejoin:miter;stroke-width:0.8;"/>
   </g>
   <g id="patch_5">
    <path d="M 49.259908 684 
L 464.820092 684 
" style="fill:none;stroke:#000000;stroke-linecap:square;stroke-linejoin:miter;stroke-width:0.8;"/>
   </g>
   <g id="patch_6">
    <path d="M 49.259908 36 
L 464.820092 36 
" style="fill:none;stroke:#000000;stroke-linecap:square;stroke-linejoin:miter;stroke-width:0.8;"/>
   </g>
  </g>
 </g>
 <defs>
  <clipPath id="pde98dc5cb7">
   <rect height="648" width="415.560184" x="49.259908" y="36"/>
  </clipPath>
 </defs>
</svg>
