<?xml version="1.0" encoding="utf-8" standalone="no"?>
<!DOCTYPE svg PUBLIC "-//W3C//DTD SVG 1.1//EN"
  "http://www.w3.org/Graphics/SVG/1.1/DTD/svg11.dtd">
<!-- Created with matplotlib (https://matplotlib.org/) -->
<svg height="720pt" version="1.1" viewBox="0 0 504 720" width="504pt" xmlns="http://www.w3.org/2000/svg" xmlns:xlink="http://www.w3.org/1999/xlink">
 <defs>
  <style type="text/css">
*{stroke-linecap:butt;stroke-linejoin:round;}
  </style>
 </defs>
 <g id="figure_1">
  <g id="patch_1">
   <path d="M 0 720 
L 504 720 
L 504 0 
L 0 0 
z
" style="fill:#ffffff;"/>
  </g>
  <g id="axes_1">
   <g id="patch_2">
    <path d="M 46.755174 684 
L 467.324826 684 
L 467.324826 36 
L 46.755174 36 
z
" style="fill:#ffffff;"/>
   </g>
   <g id="matplotlib.axis_1">
    <g id="xtick_1">
     <g id="line2d_1">
      <path clip-path="url(#p38d0b471ce)" d="M 70.541395 684 
L 70.541395 36 
" style="fill:none;stroke:#b0b0b0;stroke-linecap:square;stroke-width:0.8;"/>
     </g>
     <g id="line2d_2">
      <defs>
       <path d="M 0 0 
L 0 3.5 
" id="m6ce33614e1" style="stroke:#000000;stroke-width:0.8;"/>
      </defs>
      <g>
       <use style="stroke:#000000;stroke-width:0.8;" x="70.541395" xlink:href="#m6ce33614e1" y="684"/>
      </g>
     </g>
     <g id="text_1">
      <!-- −1.0 -->
      <defs>
       <path d="M 10.59375 35.5 
L 73.1875 35.5 
L 73.1875 27.203125 
L 10.59375 27.203125 
z
" id="DejaVuSans-8722"/>
       <path d="M 12.40625 8.296875 
L 28.515625 8.296875 
L 28.515625 63.921875 
L 10.984375 60.40625 
L 10.984375 69.390625 
L 28.421875 72.90625 
L 38.28125 72.90625 
L 38.28125 8.296875 
L 54.390625 8.296875 
L 54.390625 0 
L 12.40625 0 
z
" id="DejaVuSans-49"/>
       <path d="M 10.6875 12.40625 
L 21 12.40625 
L 21 0 
L 10.6875 0 
z
" id="DejaVuSans-46"/>
       <path d="M 31.78125 66.40625 
Q 24.171875 66.40625 20.328125 58.90625 
Q 16.5 51.421875 16.5 36.375 
Q 16.5 21.390625 20.328125 13.890625 
Q 24.171875 6.390625 31.78125 6.390625 
Q 39.453125 6.390625 43.28125 13.890625 
Q 47.125 21.390625 47.125 36.375 
Q 47.125 51.421875 43.28125 58.90625 
Q 39.453125 66.40625 31.78125 66.40625 
z
M 31.78125 74.21875 
Q 44.046875 74.21875 50.515625 64.515625 
Q 56.984375 54.828125 56.984375 36.375 
Q 56.984375 17.96875 50.515625 8.265625 
Q 44.046875 -1.421875 31.78125 -1.421875 
Q 19.53125 -1.421875 13.0625 8.265625 
Q 6.59375 17.96875 6.59375 36.375 
Q 6.59375 54.828125 13.0625 64.515625 
Q 19.53125 74.21875 31.78125 74.21875 
z
" id="DejaVuSans-48"/>
      </defs>
      <g transform="translate(58.399988 698.598438)scale(0.1 -0.1)">
       <use xlink:href="#DejaVuSans-8722"/>
       <use x="83.789062" xlink:href="#DejaVuSans-49"/>
       <use x="147.412109" xlink:href="#DejaVuSans-46"/>
       <use x="179.199219" xlink:href="#DejaVuSans-48"/>
      </g>
     </g>
    </g>
    <g id="xtick_2">
     <g id="line2d_3">
      <path clip-path="url(#p38d0b471ce)" d="M 163.790697 684 
L 163.790697 36 
" style="fill:none;stroke:#b0b0b0;stroke-linecap:square;stroke-width:0.8;"/>
     </g>
     <g id="line2d_4">
      <g>
       <use style="stroke:#000000;stroke-width:0.8;" x="163.790697" xlink:href="#m6ce33614e1" y="684"/>
      </g>
     </g>
     <g id="text_2">
      <!-- −0.5 -->
      <defs>
       <path d="M 10.796875 72.90625 
L 49.515625 72.90625 
L 49.515625 64.59375 
L 19.828125 64.59375 
L 19.828125 46.734375 
Q 21.96875 47.46875 24.109375 47.828125 
Q 26.265625 48.1875 28.421875 48.1875 
Q 40.625 48.1875 47.75 41.5 
Q 54.890625 34.8125 54.890625 23.390625 
Q 54.890625 11.625 47.5625 5.09375 
Q 40.234375 -1.421875 26.90625 -1.421875 
Q 22.3125 -1.421875 17.546875 -0.640625 
Q 12.796875 0.140625 7.71875 1.703125 
L 7.71875 11.625 
Q 12.109375 9.234375 16.796875 8.0625 
Q 21.484375 6.890625 26.703125 6.890625 
Q 35.15625 6.890625 40.078125 11.328125 
Q 45.015625 15.765625 45.015625 23.390625 
Q 45.015625 31 40.078125 35.4375 
Q 35.15625 39.890625 26.703125 39.890625 
Q 22.75 39.890625 18.8125 39.015625 
Q 14.890625 38.140625 10.796875 36.28125 
z
" id="DejaVuSans-53"/>
      </defs>
      <g transform="translate(151.649291 698.598438)scale(0.1 -0.1)">
       <use xlink:href="#DejaVuSans-8722"/>
       <use x="83.789062" xlink:href="#DejaVuSans-48"/>
       <use x="147.412109" xlink:href="#DejaVuSans-46"/>
       <use x="179.199219" xlink:href="#DejaVuSans-53"/>
      </g>
     </g>
    </g>
    <g id="xtick_3">
     <g id="line2d_5">
      <path clip-path="url(#p38d0b471ce)" d="M 257.04 684 
L 257.04 36 
" style="fill:none;stroke:#b0b0b0;stroke-linecap:square;stroke-width:0.8;"/>
     </g>
     <g id="line2d_6">
      <g>
       <use style="stroke:#000000;stroke-width:0.8;" x="257.04" xlink:href="#m6ce33614e1" y="684"/>
      </g>
     </g>
     <g id="text_3">
      <!-- 0.0 -->
      <g transform="translate(249.088438 698.598438)scale(0.1 -0.1)">
       <use xlink:href="#DejaVuSans-48"/>
       <use x="63.623047" xlink:href="#DejaVuSans-46"/>
       <use x="95.410156" xlink:href="#DejaVuSans-48"/>
      </g>
     </g>
    </g>
    <g id="xtick_4">
     <g id="line2d_7">
      <path clip-path="url(#p38d0b471ce)" d="M 350.289303 684 
L 350.289303 36 
" style="fill:none;stroke:#b0b0b0;stroke-linecap:square;stroke-width:0.8;"/>
     </g>
     <g id="line2d_8">
      <g>
       <use style="stroke:#000000;stroke-width:0.8;" x="350.289303" xlink:href="#m6ce33614e1" y="684"/>
      </g>
     </g>
     <g id="text_4">
      <!-- 0.5 -->
      <g transform="translate(342.33774 698.598438)scale(0.1 -0.1)">
       <use xlink:href="#DejaVuSans-48"/>
       <use x="63.623047" xlink:href="#DejaVuSans-46"/>
       <use x="95.410156" xlink:href="#DejaVuSans-53"/>
      </g>
     </g>
    </g>
    <g id="xtick_5">
     <g id="line2d_9">
      <path clip-path="url(#p38d0b471ce)" d="M 443.538605 684 
L 443.538605 36 
" style="fill:none;stroke:#b0b0b0;stroke-linecap:square;stroke-width:0.8;"/>
     </g>
     <g id="line2d_10">
      <g>
       <use style="stroke:#000000;stroke-width:0.8;" x="443.538605" xlink:href="#m6ce33614e1" y="684"/>
      </g>
     </g>
     <g id="text_5">
      <!-- 1.0 -->
      <g transform="translate(435.587043 698.598438)scale(0.1 -0.1)">
       <use xlink:href="#DejaVuSans-49"/>
       <use x="63.623047" xlink:href="#DejaVuSans-46"/>
       <use x="95.410156" xlink:href="#DejaVuSans-48"/>
      </g>
     </g>
    </g>
    <g id="text_6">
     <!-- m -->
     <defs>
      <path d="M 52 44.1875 
Q 55.375 50.25 60.0625 53.125 
Q 64.75 56 71.09375 56 
Q 79.640625 56 84.28125 50.015625 
Q 88.921875 44.046875 88.921875 33.015625 
L 88.921875 0 
L 79.890625 0 
L 79.890625 32.71875 
Q 79.890625 40.578125 77.09375 44.375 
Q 74.3125 48.1875 68.609375 48.1875 
Q 61.625 48.1875 57.5625 43.546875 
Q 53.515625 38.921875 53.515625 30.90625 
L 53.515625 0 
L 44.484375 0 
L 44.484375 32.71875 
Q 44.484375 40.625 41.703125 44.40625 
Q 38.921875 48.1875 33.109375 48.1875 
Q 26.21875 48.1875 22.15625 43.53125 
Q 18.109375 38.875 18.109375 30.90625 
L 18.109375 0 
L 9.078125 0 
L 9.078125 54.6875 
L 18.109375 54.6875 
L 18.109375 46.1875 
Q 21.1875 51.21875 25.484375 53.609375 
Q 29.78125 56 35.6875 56 
Q 41.65625 56 45.828125 52.96875 
Q 50 49.953125 52 44.1875 
z
" id="DejaVuSans-109"/>
     </defs>
     <g transform="translate(252.169688 712.276562)scale(0.1 -0.1)">
      <use xlink:href="#DejaVuSans-109"/>
     </g>
    </g>
   </g>
   <g id="matplotlib.axis_2">
    <g id="ytick_1">
     <g id="line2d_11">
      <path clip-path="url(#p38d0b471ce)" d="M 46.755174 624.848397 
L 467.324826 624.848397 
" style="fill:none;stroke:#b0b0b0;stroke-linecap:square;stroke-width:0.8;"/>
     </g>
     <g id="line2d_12">
      <defs>
       <path d="M 0 0 
L -3.5 0 
" id="m8aadf9f916" style="stroke:#000000;stroke-width:0.8;"/>
      </defs>
      <g>
       <use style="stroke:#000000;stroke-width:0.8;" x="46.755174" xlink:href="#m8aadf9f916" y="624.848397"/>
      </g>
     </g>
     <g id="text_7">
      <!-- −2.5 -->
      <defs>
       <path d="M 19.1875 8.296875 
L 53.609375 8.296875 
L 53.609375 0 
L 7.328125 0 
L 7.328125 8.296875 
Q 12.9375 14.109375 22.625 23.890625 
Q 32.328125 33.6875 34.8125 36.53125 
Q 39.546875 41.84375 41.421875 45.53125 
Q 43.3125 49.21875 43.3125 52.78125 
Q 43.3125 58.59375 39.234375 62.25 
Q 35.15625 65.921875 28.609375 65.921875 
Q 23.96875 65.921875 18.8125 64.3125 
Q 13.671875 62.703125 7.8125 59.421875 
L 7.8125 69.390625 
Q 13.765625 71.78125 18.9375 73 
Q 24.125 74.21875 28.421875 74.21875 
Q 39.75 74.21875 46.484375 68.546875 
Q 53.21875 62.890625 53.21875 53.421875 
Q 53.21875 48.921875 51.53125 44.890625 
Q 49.859375 40.875 45.40625 35.40625 
Q 44.1875 33.984375 37.640625 27.21875 
Q 31.109375 20.453125 19.1875 8.296875 
z
" id="DejaVuSans-50"/>
      </defs>
      <g transform="translate(15.472362 628.647615)scale(0.1 -0.1)">
       <use xlink:href="#DejaVuSans-8722"/>
       <use x="83.789062" xlink:href="#DejaVuSans-50"/>
       <use x="147.412109" xlink:href="#DejaVuSans-46"/>
       <use x="179.199219" xlink:href="#DejaVuSans-53"/>
      </g>
     </g>
    </g>
    <g id="ytick_2">
     <g id="line2d_13">
      <path clip-path="url(#p38d0b471ce)" d="M 46.755174 531.599094 
L 467.324826 531.599094 
" style="fill:none;stroke:#b0b0b0;stroke-linecap:square;stroke-width:0.8;"/>
     </g>
     <g id="line2d_14">
      <g>
       <use style="stroke:#000000;stroke-width:0.8;" x="46.755174" xlink:href="#m8aadf9f916" y="531.599094"/>
      </g>
     </g>
     <g id="text_8">
      <!-- −2.0 -->
      <g transform="translate(15.472362 535.398313)scale(0.1 -0.1)">
       <use xlink:href="#DejaVuSans-8722"/>
       <use x="83.789062" xlink:href="#DejaVuSans-50"/>
       <use x="147.412109" xlink:href="#DejaVuSans-46"/>
       <use x="179.199219" xlink:href="#DejaVuSans-48"/>
      </g>
     </g>
    </g>
    <g id="ytick_3">
     <g id="line2d_15">
      <path clip-path="url(#p38d0b471ce)" d="M 46.755174 438.349791 
L 467.324826 438.349791 
" style="fill:none;stroke:#b0b0b0;stroke-linecap:square;stroke-width:0.8;"/>
     </g>
     <g id="line2d_16">
      <g>
       <use style="stroke:#000000;stroke-width:0.8;" x="46.755174" xlink:href="#m8aadf9f916" y="438.349791"/>
      </g>
     </g>
     <g id="text_9">
      <!-- −1.5 -->
      <g transform="translate(15.472362 442.14901)scale(0.1 -0.1)">
       <use xlink:href="#DejaVuSans-8722"/>
       <use x="83.789062" xlink:href="#DejaVuSans-49"/>
       <use x="147.412109" xlink:href="#DejaVuSans-46"/>
       <use x="179.199219" xlink:href="#DejaVuSans-53"/>
      </g>
     </g>
    </g>
    <g id="ytick_4">
     <g id="line2d_17">
      <path clip-path="url(#p38d0b471ce)" d="M 46.755174 345.100489 
L 467.324826 345.100489 
" style="fill:none;stroke:#b0b0b0;stroke-linecap:square;stroke-width:0.8;"/>
     </g>
     <g id="line2d_18">
      <g>
       <use style="stroke:#000000;stroke-width:0.8;" x="46.755174" xlink:href="#m8aadf9f916" y="345.100489"/>
      </g>
     </g>
     <g id="text_10">
      <!-- −1.0 -->
      <g transform="translate(15.472362 348.899707)scale(0.1 -0.1)">
       <use xlink:href="#DejaVuSans-8722"/>
       <use x="83.789062" xlink:href="#DejaVuSans-49"/>
       <use x="147.412109" xlink:href="#DejaVuSans-46"/>
       <use x="179.199219" xlink:href="#DejaVuSans-48"/>
      </g>
     </g>
    </g>
    <g id="ytick_5">
     <g id="line2d_19">
      <path clip-path="url(#p38d0b471ce)" d="M 46.755174 251.851186 
L 467.324826 251.851186 
" style="fill:none;stroke:#b0b0b0;stroke-linecap:square;stroke-width:0.8;"/>
     </g>
     <g id="line2d_20">
      <g>
       <use style="stroke:#000000;stroke-width:0.8;" x="46.755174" xlink:href="#m8aadf9f916" y="251.851186"/>
      </g>
     </g>
     <g id="text_11">
      <!-- −0.5 -->
      <g transform="translate(15.472362 255.650405)scale(0.1 -0.1)">
       <use xlink:href="#DejaVuSans-8722"/>
       <use x="83.789062" xlink:href="#DejaVuSans-48"/>
       <use x="147.412109" xlink:href="#DejaVuSans-46"/>
       <use x="179.199219" xlink:href="#DejaVuSans-53"/>
      </g>
     </g>
    </g>
    <g id="ytick_6">
     <g id="line2d_21">
      <path clip-path="url(#p38d0b471ce)" d="M 46.755174 158.601883 
L 467.324826 158.601883 
" style="fill:none;stroke:#b0b0b0;stroke-linecap:square;stroke-width:0.8;"/>
     </g>
     <g id="line2d_22">
      <g>
       <use style="stroke:#000000;stroke-width:0.8;" x="46.755174" xlink:href="#m8aadf9f916" y="158.601883"/>
      </g>
     </g>
     <g id="text_12">
      <!-- 0.0 -->
      <g transform="translate(23.852049 162.401102)scale(0.1 -0.1)">
       <use xlink:href="#DejaVuSans-48"/>
       <use x="63.623047" xlink:href="#DejaVuSans-46"/>
       <use x="95.410156" xlink:href="#DejaVuSans-48"/>
      </g>
     </g>
    </g>
    <g id="ytick_7">
     <g id="line2d_23">
      <path clip-path="url(#p38d0b471ce)" d="M 46.755174 65.352581 
L 467.324826 65.352581 
" style="fill:none;stroke:#b0b0b0;stroke-linecap:square;stroke-width:0.8;"/>
     </g>
     <g id="line2d_24">
      <g>
       <use style="stroke:#000000;stroke-width:0.8;" x="46.755174" xlink:href="#m8aadf9f916" y="65.352581"/>
      </g>
     </g>
     <g id="text_13">
      <!-- 0.5 -->
      <g transform="translate(23.852049 69.151799)scale(0.1 -0.1)">
       <use xlink:href="#DejaVuSans-48"/>
       <use x="63.623047" xlink:href="#DejaVuSans-46"/>
       <use x="95.410156" xlink:href="#DejaVuSans-53"/>
      </g>
     </g>
    </g>
    <g id="text_14">
     <!-- m -->
     <g transform="translate(9.392674 364.870313)rotate(-90)scale(0.1 -0.1)">
      <use xlink:href="#DejaVuSans-109"/>
     </g>
    </g>
   </g>
   <g id="line2d_25">
    <path clip-path="url(#p38d0b471ce)" d="M 301.774929 111.098598 
L 212.305071 111.098598 
" style="fill:none;stroke:#ffa500;stroke-dasharray:5.55,2.4;stroke-dashoffset:0;stroke-width:1.5;"/>
   </g>
   <g id="line2d_26">
    <path clip-path="url(#p38d0b471ce)" d="M 282.098424 158.601883 
L 231.981576 158.601883 
" style="fill:none;stroke:#808080;stroke-dasharray:5.55,2.4;stroke-dashoffset:0;stroke-width:1.5;"/>
   </g>
   <g id="line2d_27">
    <path clip-path="url(#p38d0b471ce)" d="M 257.04 65.454545 
L 301.774929 65.454545 
L 301.774929 111.098598 
" style="fill:none;stroke:#000000;stroke-linecap:square;stroke-width:1.5;"/>
   </g>
   <g id="line2d_28">
    <path clip-path="url(#p38d0b471ce)" d="M 257.04 65.454545 
L 212.305071 65.454545 
L 212.305071 111.098598 
" style="fill:none;stroke:#000000;stroke-linecap:square;stroke-width:1.5;"/>
   </g>
   <g id="line2d_29">
    <path clip-path="url(#p38d0b471ce)" d="M 293.107588 132.023411 
L 293.44028 131.685343 
L 293.76751 131.341987 
L 294.089196 130.993429 
L 294.405253 130.639761 
L 294.715601 130.281072 
L 295.020161 129.917456 
L 295.318853 129.549004 
L 295.611601 129.175813 
L 295.898331 128.797977 
L 296.178967 128.415594 
L 296.453439 128.028762 
L 296.721675 127.637581 
L 296.983608 127.242151 
L 297.239168 126.842573 
L 297.488292 126.438951 
L 297.730914 126.031387 
L 297.966973 125.619987 
L 298.196407 125.204857 
L 298.419158 124.786102 
L 298.635169 124.363831 
L 298.844385 123.938152 
L 299.04675 123.509175 
L 299.242214 123.077009 
L 299.430727 122.641766 
L 299.612239 122.203557 
L 299.786704 121.762495 
L 299.954077 121.318694 
L 300.114316 120.872267 
L 300.267379 120.423329 
L 300.413227 119.971995 
L 300.551822 119.518382 
L 300.683129 119.062606 
L 300.807114 118.604784 
L 300.923745 118.145033 
L 301.032992 117.683472 
L 301.134828 117.220219 
L 301.229225 116.755394 
L 301.31616 116.289115 
L 301.395611 115.821503 
L 301.467556 115.352677 
L 301.531978 114.882759 
L 301.58886 114.411868 
L 301.638187 113.940126 
L 301.679947 113.467654 
L 301.714129 112.994574 
L 301.740724 112.521006 
L 301.759725 112.047073 
L 301.771128 111.572897 
L 301.774929 111.098598 
" style="fill:none;stroke:#000000;stroke-linecap:square;stroke-width:1.5;"/>
   </g>
   <g id="line2d_30">
    <path clip-path="url(#p38d0b471ce)" d="M 220.972412 132.023411 
L 220.63972 131.685343 
L 220.31249 131.341987 
L 219.990804 130.993429 
L 219.674747 130.639761 
L 219.364399 130.281072 
L 219.059839 129.917456 
L 218.761147 129.549004 
L 218.468399 129.175813 
L 218.181669 128.797977 
L 217.901033 128.415594 
L 217.626561 128.028762 
L 217.358325 127.637581 
L 217.096392 127.242151 
L 216.840832 126.842573 
L 216.591708 126.438951 
L 216.349086 126.031387 
L 216.113027 125.619987 
L 215.883593 125.204857 
L 215.660842 124.786102 
L 215.444831 124.363831 
L 215.235615 123.938152 
L 215.03325 123.509175 
L 214.837786 123.077009 
L 214.649273 122.641766 
L 214.467761 122.203557 
L 214.293296 121.762495 
L 214.125923 121.318694 
L 213.965684 120.872267 
L 213.812621 120.423329 
L 213.666773 119.971995 
L 213.528178 119.518382 
L 213.396871 119.062606 
L 213.272886 118.604784 
L 213.156255 118.145033 
L 213.047008 117.683472 
L 212.945172 117.220219 
L 212.850775 116.755394 
L 212.76384 116.289115 
L 212.684389 115.821503 
L 212.612444 115.352677 
L 212.548022 114.882759 
L 212.49114 114.411868 
L 212.441813 113.940126 
L 212.400053 113.467654 
L 212.365871 112.994574 
L 212.339276 112.521006 
L 212.320275 112.047073 
L 212.308872 111.572897 
L 212.305071 111.098598 
" style="fill:none;stroke:#000000;stroke-linecap:square;stroke-width:1.5;"/>
   </g>
   <g id="line2d_31">
    <path clip-path="url(#p38d0b471ce)" d="M 293.107588 132.023411 
L 292.031938 133.14447 
L 291.003534 134.309023 
L 290.024134 135.515079 
L 289.095411 136.760579 
L 288.218951 138.043395 
L 287.396253 139.361334 
L 286.628721 140.712146 
L 285.917667 142.093522 
L 285.264306 143.503102 
L 284.669754 144.938478 
L 284.135026 146.397198 
L 283.661037 147.876769 
L 283.248596 149.374664 
L 282.898408 150.888324 
L 282.611071 152.415162 
L 282.387076 153.95257 
L 282.226805 155.497921 
L 282.130533 157.048575 
L 282.098424 158.601883 
" style="fill:none;stroke:#000000;stroke-linecap:square;stroke-width:1.5;"/>
   </g>
   <g id="line2d_32">
    <path clip-path="url(#p38d0b471ce)" d="M 220.972412 132.023411 
L 222.048062 133.14447 
L 223.076466 134.309023 
L 224.055866 135.515079 
L 224.984589 136.760579 
L 225.861049 138.043395 
L 226.683747 139.361334 
L 227.451279 140.712146 
L 228.162333 142.093522 
L 228.815694 143.503102 
L 229.410246 144.938478 
L 229.944974 146.397198 
L 230.418963 147.876769 
L 230.831404 149.374664 
L 231.181592 150.888324 
L 231.468929 152.415162 
L 231.692924 153.95257 
L 231.853195 155.497921 
L 231.949467 157.048575 
L 231.981576 158.601883 
" style="fill:none;stroke:#000000;stroke-linecap:square;stroke-width:1.5;"/>
   </g>
   <g id="line2d_33">
    <path clip-path="url(#p38d0b471ce)" d="M 282.098424 158.601883 
L 282.098972 158.704246 
L 282.100614 158.806598 
L 282.10335 158.908926 
L 282.10718 159.011219 
L 282.112104 159.113465 
L 282.118122 159.215653 
L 282.125231 159.317771 
L 282.133433 159.419806 
L 282.142725 159.521748 
L 282.153106 159.623585 
L 282.164576 159.725305 
L 282.177133 159.826897 
L 282.190776 159.928348 
L 282.205503 160.029648 
L 282.221312 160.130785 
L 282.238202 160.231747 
L 282.25617 160.332522 
L 282.275216 160.433099 
L 282.295335 160.533467 
L 282.316527 160.633614 
L 282.338789 160.733529 
L 282.362117 160.8332 
L 282.386511 160.932616 
L 282.411966 161.031765 
L 282.438479 161.130637 
L 282.466049 161.229219 
L 282.494671 161.327501 
L 282.524343 161.425471 
L 282.55506 161.523118 
L 282.58682 161.620431 
L 282.619619 161.717399 
L 282.653453 161.81401 
L 282.688318 161.910255 
L 282.72421 162.006121 
L 282.761125 162.101597 
L 282.79906 162.196674 
L 282.838008 162.291339 
L 282.877967 162.385582 
L 282.918932 162.479393 
L 282.960897 162.57276 
L 283.003858 162.665674 
L 283.047811 162.758122 
L 283.092749 162.850095 
L 283.138669 162.941583 
L 283.185564 163.032574 
L 283.233429 163.123058 
L 283.28226 163.213025 
L 283.332049 163.302465 
L 283.382793 163.391368 
" style="fill:none;stroke:#000000;stroke-linecap:square;stroke-width:1.5;"/>
   </g>
   <g id="line2d_34">
    <path clip-path="url(#p38d0b471ce)" d="M 231.981576 158.601883 
L 231.981028 158.704246 
L 231.979386 158.806598 
L 231.97665 158.908926 
L 231.97282 159.011219 
L 231.967896 159.113465 
L 231.961878 159.215653 
L 231.954769 159.317771 
L 231.946567 159.419806 
L 231.937275 159.521748 
L 231.926894 159.623585 
L 231.915424 159.725305 
L 231.902867 159.826897 
L 231.889224 159.928348 
L 231.874497 160.029648 
L 231.858688 160.130785 
L 231.841798 160.231747 
L 231.82383 160.332522 
L 231.804784 160.433099 
L 231.784665 160.533467 
L 231.763473 160.633614 
L 231.741211 160.733529 
L 231.717883 160.8332 
L 231.693489 160.932616 
L 231.668034 161.031765 
L 231.641521 161.130637 
L 231.613951 161.229219 
L 231.585329 161.327501 
L 231.555657 161.425471 
L 231.52494 161.523118 
L 231.49318 161.620431 
L 231.460381 161.717399 
L 231.426547 161.81401 
L 231.391682 161.910255 
L 231.35579 162.006121 
L 231.318875 162.101597 
L 231.28094 162.196674 
L 231.241992 162.291339 
L 231.202033 162.385582 
L 231.161068 162.479393 
L 231.119103 162.57276 
L 231.076142 162.665674 
L 231.032189 162.758122 
L 230.987251 162.850095 
L 230.941331 162.941583 
L 230.894436 163.032574 
L 230.846571 163.123058 
L 230.79774 163.213025 
L 230.747951 163.302465 
L 230.697207 163.391368 
" style="fill:none;stroke:#000000;stroke-linecap:square;stroke-width:1.5;"/>
   </g>
   <g id="line2d_35">
    <path clip-path="url(#p38d0b471ce)" d="M 283.382793 163.391368 
L 288.636468 172.568344 
L 293.811397 181.780593 
L 298.90758 191.028117 
L 303.925018 200.310915 
L 308.863711 209.628987 
L 313.723658 218.982332 
L 318.504859 228.370952 
L 323.207315 237.794846 
L 327.831025 247.254014 
L 332.375989 256.748456 
L 336.842208 266.278172 
L 341.229681 275.843163 
L 345.538408 285.443427 
L 349.76839 295.078965 
L 353.919627 304.749777 
L 357.992117 314.455864 
L 361.985862 324.197224 
L 365.900862 333.973859 
L 369.737116 343.785767 
L 373.494624 353.63295 
L 377.173387 363.515406 
L 380.773404 373.433137 
L 384.294675 383.386142 
L 387.737201 393.37442 
L 391.100981 403.397973 
L 394.386016 413.4568 
L 397.592305 423.550901 
L 400.719848 433.680276 
L 403.768646 443.844925 
L 406.738698 454.044848 
L 409.630005 464.280045 
L 412.442566 474.550516 
L 415.176381 484.856261 
L 417.831451 495.19728 
L 420.407775 505.573574 
L 422.905353 515.985141 
L 425.324186 526.431982 
L 427.664274 536.914098 
L 429.925615 547.431487 
L 432.108211 557.984151 
L 434.212062 568.572088 
L 436.237167 579.1953 
L 438.183526 589.853786 
L 440.05114 600.547545 
L 441.840008 611.276579 
L 443.55013 622.040887 
L 445.181507 632.840469 
L 446.734138 643.675325 
L 448.208024 654.545455 
" style="fill:none;stroke:#000000;stroke-linecap:square;stroke-width:1.5;"/>
   </g>
   <g id="line2d_36">
    <path clip-path="url(#p38d0b471ce)" d="M 230.697207 163.391368 
L 225.443532 172.568344 
L 220.268603 181.780593 
L 215.17242 191.028117 
L 210.154982 200.310915 
L 205.216289 209.628987 
L 200.356342 218.982332 
L 195.575141 228.370952 
L 190.872685 237.794846 
L 186.248975 247.254014 
L 181.704011 256.748456 
L 177.237792 266.278172 
L 172.850319 275.843163 
L 168.541592 285.443427 
L 164.31161 295.078965 
L 160.160373 304.749777 
L 156.087883 314.455864 
L 152.094138 324.197224 
L 148.179138 333.973859 
L 144.342884 343.785767 
L 140.585376 353.63295 
L 136.906613 363.515406 
L 133.306596 373.433137 
L 129.785325 383.386142 
L 126.342799 393.37442 
L 122.979019 403.397973 
L 119.693984 413.4568 
L 116.487695 423.550901 
L 113.360152 433.680276 
L 110.311354 443.844925 
L 107.341302 454.044848 
L 104.449995 464.280045 
L 101.637434 474.550516 
L 98.903619 484.856261 
L 96.248549 495.19728 
L 93.672225 505.573574 
L 91.174647 515.985141 
L 88.755814 526.431982 
L 86.415726 536.914098 
L 84.154385 547.431487 
L 81.971789 557.984151 
L 79.867938 568.572088 
L 77.842833 579.1953 
L 75.896474 589.853786 
L 74.02886 600.547545 
L 72.239992 611.276579 
L 70.52987 622.040887 
L 68.898493 632.840469 
L 67.345862 643.675325 
L 65.871976 654.545455 
" style="fill:none;stroke:#000000;stroke-linecap:square;stroke-width:1.5;"/>
   </g>
   <g id="patch_3">
    <path d="M 46.755174 684 
L 46.755174 36 
" style="fill:none;stroke:#000000;stroke-linecap:square;stroke-linejoin:miter;stroke-width:0.8;"/>
   </g>
   <g id="patch_4">
    <path d="M 467.324826 684 
L 467.324826 36 
" style="fill:none;stroke:#000000;stroke-linecap:square;stroke-linejoin:miter;stroke-width:0.8;"/>
   </g>
   <g id="patch_5">
    <path d="M 46.755174 684 
L 467.324826 684 
" style="fill:none;stroke:#000000;stroke-linecap:square;stroke-linejoin:miter;stroke-width:0.8;"/>
   </g>
   <g id="patch_6">
    <path d="M 46.755174 36 
L 467.324826 36 
" style="fill:none;stroke:#000000;stroke-linecap:square;stroke-linejoin:miter;stroke-width:0.8;"/>
   </g>
  </g>
 </g>
 <defs>
  <clipPath id="p38d0b471ce">
   <rect height="648" width="420.569652" x="46.755174" y="36"/>
  </clipPath>
 </defs>
</svg>
