<?xml version="1.0" encoding="utf-8" standalone="no"?>
<!DOCTYPE svg PUBLIC "-//W3C//DTD SVG 1.1//EN"
  "http://www.w3.org/Graphics/SVG/1.1/DTD/svg11.dtd">
<!-- Created with matplotlib (https://matplotlib.org/) -->
<svg height="720pt" version="1.1" viewBox="0 0 504 720" width="504pt" xmlns="http://www.w3.org/2000/svg" xmlns:xlink="http://www.w3.org/1999/xlink">
 <defs>
  <style type="text/css">
*{stroke-linecap:butt;stroke-linejoin:round;}
  </style>
 </defs>
 <g id="figure_1">
  <g id="patch_1">
   <path d="M 0 720 
L 504 720 
L 504 0 
L 0 0 
z
" style="fill:#ffffff;"/>
  </g>
  <g id="axes_1">
   <g id="patch_2">
    <path d="M 46.632588 684 
L 467.447412 684 
L 467.447412 36 
L 46.632588 36 
z
" style="fill:#ffffff;"/>
   </g>
   <g id="matplotlib.axis_1">
    <g id="xtick_1">
     <g id="line2d_1">
      <path clip-path="url(#pf22e895ad2)" d="M 71.45141 684 
L 71.45141 36 
" style="fill:none;stroke:#b0b0b0;stroke-linecap:square;stroke-width:0.8;"/>
     </g>
     <g id="line2d_2">
      <defs>
       <path d="M 0 0 
L 0 3.5 
" id="m829b0d6a57" style="stroke:#000000;stroke-width:0.8;"/>
      </defs>
      <g>
       <use style="stroke:#000000;stroke-width:0.8;" x="71.45141" xlink:href="#m829b0d6a57" y="684"/>
      </g>
     </g>
     <g id="text_1">
      <!-- −1.0 -->
      <defs>
       <path d="M 10.59375 35.5 
L 73.1875 35.5 
L 73.1875 27.203125 
L 10.59375 27.203125 
z
" id="DejaVuSans-8722"/>
       <path d="M 12.40625 8.296875 
L 28.515625 8.296875 
L 28.515625 63.921875 
L 10.984375 60.40625 
L 10.984375 69.390625 
L 28.421875 72.90625 
L 38.28125 72.90625 
L 38.28125 8.296875 
L 54.390625 8.296875 
L 54.390625 0 
L 12.40625 0 
z
" id="DejaVuSans-49"/>
       <path d="M 10.6875 12.40625 
L 21 12.40625 
L 21 0 
L 10.6875 0 
z
" id="DejaVuSans-46"/>
       <path d="M 31.78125 66.40625 
Q 24.171875 66.40625 20.328125 58.90625 
Q 16.5 51.421875 16.5 36.375 
Q 16.5 21.390625 20.328125 13.890625 
Q 24.171875 6.390625 31.78125 6.390625 
Q 39.453125 6.390625 43.28125 13.890625 
Q 47.125 21.390625 47.125 36.375 
Q 47.125 51.421875 43.28125 58.90625 
Q 39.453125 66.40625 31.78125 66.40625 
z
M 31.78125 74.21875 
Q 44.046875 74.21875 50.515625 64.515625 
Q 56.984375 54.828125 56.984375 36.375 
Q 56.984375 17.96875 50.515625 8.265625 
Q 44.046875 -1.421875 31.78125 -1.421875 
Q 19.53125 -1.421875 13.0625 8.265625 
Q 6.59375 17.96875 6.59375 36.375 
Q 6.59375 54.828125 13.0625 64.515625 
Q 19.53125 74.21875 31.78125 74.21875 
z
" id="DejaVuSans-48"/>
      </defs>
      <g transform="translate(59.310003 698.598438)scale(0.1 -0.1)">
       <use xlink:href="#DejaVuSans-8722"/>
       <use x="83.789062" xlink:href="#DejaVuSans-49"/>
       <use x="147.412109" xlink:href="#DejaVuSans-46"/>
       <use x="179.199219" xlink:href="#DejaVuSans-48"/>
      </g>
     </g>
    </g>
    <g id="xtick_2">
     <g id="line2d_3">
      <path clip-path="url(#pf22e895ad2)" d="M 164.245705 684 
L 164.245705 36 
" style="fill:none;stroke:#b0b0b0;stroke-linecap:square;stroke-width:0.8;"/>
     </g>
     <g id="line2d_4">
      <g>
       <use style="stroke:#000000;stroke-width:0.8;" x="164.245705" xlink:href="#m829b0d6a57" y="684"/>
      </g>
     </g>
     <g id="text_2">
      <!-- −0.5 -->
      <defs>
       <path d="M 10.796875 72.90625 
L 49.515625 72.90625 
L 49.515625 64.59375 
L 19.828125 64.59375 
L 19.828125 46.734375 
Q 21.96875 47.46875 24.109375 47.828125 
Q 26.265625 48.1875 28.421875 48.1875 
Q 40.625 48.1875 47.75 41.5 
Q 54.890625 34.8125 54.890625 23.390625 
Q 54.890625 11.625 47.5625 5.09375 
Q 40.234375 -1.421875 26.90625 -1.421875 
Q 22.3125 -1.421875 17.546875 -0.640625 
Q 12.796875 0.140625 7.71875 1.703125 
L 7.71875 11.625 
Q 12.109375 9.234375 16.796875 8.0625 
Q 21.484375 6.890625 26.703125 6.890625 
Q 35.15625 6.890625 40.078125 11.328125 
Q 45.015625 15.765625 45.015625 23.390625 
Q 45.015625 31 40.078125 35.4375 
Q 35.15625 39.890625 26.703125 39.890625 
Q 22.75 39.890625 18.8125 39.015625 
Q 14.890625 38.140625 10.796875 36.28125 
z
" id="DejaVuSans-53"/>
      </defs>
      <g transform="translate(152.104299 698.598438)scale(0.1 -0.1)">
       <use xlink:href="#DejaVuSans-8722"/>
       <use x="83.789062" xlink:href="#DejaVuSans-48"/>
       <use x="147.412109" xlink:href="#DejaVuSans-46"/>
       <use x="179.199219" xlink:href="#DejaVuSans-53"/>
      </g>
     </g>
    </g>
    <g id="xtick_3">
     <g id="line2d_5">
      <path clip-path="url(#pf22e895ad2)" d="M 257.04 684 
L 257.04 36 
" style="fill:none;stroke:#b0b0b0;stroke-linecap:square;stroke-width:0.8;"/>
     </g>
     <g id="line2d_6">
      <g>
       <use style="stroke:#000000;stroke-width:0.8;" x="257.04" xlink:href="#m829b0d6a57" y="684"/>
      </g>
     </g>
     <g id="text_3">
      <!-- 0.0 -->
      <g transform="translate(249.088437 698.598438)scale(0.1 -0.1)">
       <use xlink:href="#DejaVuSans-48"/>
       <use x="63.623047" xlink:href="#DejaVuSans-46"/>
       <use x="95.410156" xlink:href="#DejaVuSans-48"/>
      </g>
     </g>
    </g>
    <g id="xtick_4">
     <g id="line2d_7">
      <path clip-path="url(#pf22e895ad2)" d="M 349.834295 684 
L 349.834295 36 
" style="fill:none;stroke:#b0b0b0;stroke-linecap:square;stroke-width:0.8;"/>
     </g>
     <g id="line2d_8">
      <g>
       <use style="stroke:#000000;stroke-width:0.8;" x="349.834295" xlink:href="#m829b0d6a57" y="684"/>
      </g>
     </g>
     <g id="text_4">
      <!-- 0.5 -->
      <g transform="translate(341.882733 698.598438)scale(0.1 -0.1)">
       <use xlink:href="#DejaVuSans-48"/>
       <use x="63.623047" xlink:href="#DejaVuSans-46"/>
       <use x="95.410156" xlink:href="#DejaVuSans-53"/>
      </g>
     </g>
    </g>
    <g id="xtick_5">
     <g id="line2d_9">
      <path clip-path="url(#pf22e895ad2)" d="M 442.62859 684 
L 442.62859 36 
" style="fill:none;stroke:#b0b0b0;stroke-linecap:square;stroke-width:0.8;"/>
     </g>
     <g id="line2d_10">
      <g>
       <use style="stroke:#000000;stroke-width:0.8;" x="442.62859" xlink:href="#m829b0d6a57" y="684"/>
      </g>
     </g>
     <g id="text_5">
      <!-- 1.0 -->
      <g transform="translate(434.677028 698.598438)scale(0.1 -0.1)">
       <use xlink:href="#DejaVuSans-49"/>
       <use x="63.623047" xlink:href="#DejaVuSans-46"/>
       <use x="95.410156" xlink:href="#DejaVuSans-48"/>
      </g>
     </g>
    </g>
    <g id="text_6">
     <!-- m -->
     <defs>
      <path d="M 52 44.1875 
Q 55.375 50.25 60.0625 53.125 
Q 64.75 56 71.09375 56 
Q 79.640625 56 84.28125 50.015625 
Q 88.921875 44.046875 88.921875 33.015625 
L 88.921875 0 
L 79.890625 0 
L 79.890625 32.71875 
Q 79.890625 40.578125 77.09375 44.375 
Q 74.3125 48.1875 68.609375 48.1875 
Q 61.625 48.1875 57.5625 43.546875 
Q 53.515625 38.921875 53.515625 30.90625 
L 53.515625 0 
L 44.484375 0 
L 44.484375 32.71875 
Q 44.484375 40.625 41.703125 44.40625 
Q 38.921875 48.1875 33.109375 48.1875 
Q 26.21875 48.1875 22.15625 43.53125 
Q 18.109375 38.875 18.109375 30.90625 
L 18.109375 0 
L 9.078125 0 
L 9.078125 54.6875 
L 18.109375 54.6875 
L 18.109375 46.1875 
Q 21.1875 51.21875 25.484375 53.609375 
Q 29.78125 56 35.6875 56 
Q 41.65625 56 45.828125 52.96875 
Q 50 49.953125 52 44.1875 
z
" id="DejaVuSans-109"/>
     </defs>
     <g transform="translate(252.169688 712.276562)scale(0.1 -0.1)">
      <use xlink:href="#DejaVuSans-109"/>
     </g>
    </g>
   </g>
   <g id="matplotlib.axis_2">
    <g id="ytick_1">
     <g id="line2d_11">
      <path clip-path="url(#pf22e895ad2)" d="M 46.632588 622.284247 
L 467.447412 622.284247 
" style="fill:none;stroke:#b0b0b0;stroke-linecap:square;stroke-width:0.8;"/>
     </g>
     <g id="line2d_12">
      <defs>
       <path d="M 0 0 
L -3.5 0 
" id="meed45f94f0" style="stroke:#000000;stroke-width:0.8;"/>
      </defs>
      <g>
       <use style="stroke:#000000;stroke-width:0.8;" x="46.632588" xlink:href="#meed45f94f0" y="622.284247"/>
      </g>
     </g>
     <g id="text_7">
      <!-- −2.5 -->
      <defs>
       <path d="M 19.1875 8.296875 
L 53.609375 8.296875 
L 53.609375 0 
L 7.328125 0 
L 7.328125 8.296875 
Q 12.9375 14.109375 22.625 23.890625 
Q 32.328125 33.6875 34.8125 36.53125 
Q 39.546875 41.84375 41.421875 45.53125 
Q 43.3125 49.21875 43.3125 52.78125 
Q 43.3125 58.59375 39.234375 62.25 
Q 35.15625 65.921875 28.609375 65.921875 
Q 23.96875 65.921875 18.8125 64.3125 
Q 13.671875 62.703125 7.8125 59.421875 
L 7.8125 69.390625 
Q 13.765625 71.78125 18.9375 73 
Q 24.125 74.21875 28.421875 74.21875 
Q 39.75 74.21875 46.484375 68.546875 
Q 53.21875 62.890625 53.21875 53.421875 
Q 53.21875 48.921875 51.53125 44.890625 
Q 49.859375 40.875 45.40625 35.40625 
Q 44.1875 33.984375 37.640625 27.21875 
Q 31.109375 20.453125 19.1875 8.296875 
z
" id="DejaVuSans-50"/>
      </defs>
      <g transform="translate(15.349775 626.083466)scale(0.1 -0.1)">
       <use xlink:href="#DejaVuSans-8722"/>
       <use x="83.789062" xlink:href="#DejaVuSans-50"/>
       <use x="147.412109" xlink:href="#DejaVuSans-46"/>
       <use x="179.199219" xlink:href="#DejaVuSans-53"/>
      </g>
     </g>
    </g>
    <g id="ytick_2">
     <g id="line2d_13">
      <path clip-path="url(#pf22e895ad2)" d="M 46.632588 529.489952 
L 467.447412 529.489952 
" style="fill:none;stroke:#b0b0b0;stroke-linecap:square;stroke-width:0.8;"/>
     </g>
     <g id="line2d_14">
      <g>
       <use style="stroke:#000000;stroke-width:0.8;" x="46.632588" xlink:href="#meed45f94f0" y="529.489952"/>
      </g>
     </g>
     <g id="text_8">
      <!-- −2.0 -->
      <g transform="translate(15.349775 533.289171)scale(0.1 -0.1)">
       <use xlink:href="#DejaVuSans-8722"/>
       <use x="83.789062" xlink:href="#DejaVuSans-50"/>
       <use x="147.412109" xlink:href="#DejaVuSans-46"/>
       <use x="179.199219" xlink:href="#DejaVuSans-48"/>
      </g>
     </g>
    </g>
    <g id="ytick_3">
     <g id="line2d_15">
      <path clip-path="url(#pf22e895ad2)" d="M 46.632588 436.695657 
L 467.447412 436.695657 
" style="fill:none;stroke:#b0b0b0;stroke-linecap:square;stroke-width:0.8;"/>
     </g>
     <g id="line2d_16">
      <g>
       <use style="stroke:#000000;stroke-width:0.8;" x="46.632588" xlink:href="#meed45f94f0" y="436.695657"/>
      </g>
     </g>
     <g id="text_9">
      <!-- −1.5 -->
      <g transform="translate(15.349775 440.494876)scale(0.1 -0.1)">
       <use xlink:href="#DejaVuSans-8722"/>
       <use x="83.789062" xlink:href="#DejaVuSans-49"/>
       <use x="147.412109" xlink:href="#DejaVuSans-46"/>
       <use x="179.199219" xlink:href="#DejaVuSans-53"/>
      </g>
     </g>
    </g>
    <g id="ytick_4">
     <g id="line2d_17">
      <path clip-path="url(#pf22e895ad2)" d="M 46.632588 343.901362 
L 467.447412 343.901362 
" style="fill:none;stroke:#b0b0b0;stroke-linecap:square;stroke-width:0.8;"/>
     </g>
     <g id="line2d_18">
      <g>
       <use style="stroke:#000000;stroke-width:0.8;" x="46.632588" xlink:href="#meed45f94f0" y="343.901362"/>
      </g>
     </g>
     <g id="text_10">
      <!-- −1.0 -->
      <g transform="translate(15.349775 347.700581)scale(0.1 -0.1)">
       <use xlink:href="#DejaVuSans-8722"/>
       <use x="83.789062" xlink:href="#DejaVuSans-49"/>
       <use x="147.412109" xlink:href="#DejaVuSans-46"/>
       <use x="179.199219" xlink:href="#DejaVuSans-48"/>
      </g>
     </g>
    </g>
    <g id="ytick_5">
     <g id="line2d_19">
      <path clip-path="url(#pf22e895ad2)" d="M 46.632588 251.107067 
L 467.447412 251.107067 
" style="fill:none;stroke:#b0b0b0;stroke-linecap:square;stroke-width:0.8;"/>
     </g>
     <g id="line2d_20">
      <g>
       <use style="stroke:#000000;stroke-width:0.8;" x="46.632588" xlink:href="#meed45f94f0" y="251.107067"/>
      </g>
     </g>
     <g id="text_11">
      <!-- −0.5 -->
      <g transform="translate(15.349775 254.906285)scale(0.1 -0.1)">
       <use xlink:href="#DejaVuSans-8722"/>
       <use x="83.789062" xlink:href="#DejaVuSans-48"/>
       <use x="147.412109" xlink:href="#DejaVuSans-46"/>
       <use x="179.199219" xlink:href="#DejaVuSans-53"/>
      </g>
     </g>
    </g>
    <g id="ytick_6">
     <g id="line2d_21">
      <path clip-path="url(#pf22e895ad2)" d="M 46.632588 158.312772 
L 467.447412 158.312772 
" style="fill:none;stroke:#b0b0b0;stroke-linecap:square;stroke-width:0.8;"/>
     </g>
     <g id="line2d_22">
      <g>
       <use style="stroke:#000000;stroke-width:0.8;" x="46.632588" xlink:href="#meed45f94f0" y="158.312772"/>
      </g>
     </g>
     <g id="text_12">
      <!-- 0.0 -->
      <g transform="translate(23.729463 162.11199)scale(0.1 -0.1)">
       <use xlink:href="#DejaVuSans-48"/>
       <use x="63.623047" xlink:href="#DejaVuSans-46"/>
       <use x="95.410156" xlink:href="#DejaVuSans-48"/>
      </g>
     </g>
    </g>
    <g id="ytick_7">
     <g id="line2d_23">
      <path clip-path="url(#pf22e895ad2)" d="M 46.632588 65.518476 
L 467.447412 65.518476 
" style="fill:none;stroke:#b0b0b0;stroke-linecap:square;stroke-width:0.8;"/>
     </g>
     <g id="line2d_24">
      <g>
       <use style="stroke:#000000;stroke-width:0.8;" x="46.632588" xlink:href="#meed45f94f0" y="65.518476"/>
      </g>
     </g>
     <g id="text_13">
      <!-- 0.5 -->
      <g transform="translate(23.729463 69.317695)scale(0.1 -0.1)">
       <use xlink:href="#DejaVuSans-48"/>
       <use x="63.623047" xlink:href="#DejaVuSans-46"/>
       <use x="95.410156" xlink:href="#DejaVuSans-53"/>
      </g>
     </g>
    </g>
    <g id="text_14">
     <!-- m -->
     <g transform="translate(9.270088 364.870313)rotate(-90)scale(0.1 -0.1)">
      <use xlink:href="#DejaVuSans-109"/>
     </g>
    </g>
   </g>
   <g id="line2d_25">
    <path clip-path="url(#pf22e895ad2)" d="M 301.544748 111.40046 
L 212.535252 111.40046 
" style="fill:none;stroke:#ffa500;stroke-dasharray:5.55,2.4;stroke-dashoffset:0;stroke-width:1.5;"/>
   </g>
   <g id="line2d_26">
    <path clip-path="url(#pf22e895ad2)" d="M 282.113032 158.312772 
L 231.966968 158.312772 
" style="fill:none;stroke:#808080;stroke-dasharray:5.55,2.4;stroke-dashoffset:0;stroke-width:1.5;"/>
   </g>
   <g id="line2d_27">
    <path clip-path="url(#pf22e895ad2)" d="M 257.04 65.454545 
L 301.544748 65.454545 
L 301.544748 111.40046 
" style="fill:none;stroke:#000000;stroke-linecap:square;stroke-width:1.5;"/>
   </g>
   <g id="line2d_28">
    <path clip-path="url(#pf22e895ad2)" d="M 257.04 65.454545 
L 212.535252 65.454545 
L 212.535252 111.40046 
" style="fill:none;stroke:#000000;stroke-linecap:square;stroke-width:1.5;"/>
   </g>
   <g id="line2d_29">
    <path clip-path="url(#pf22e895ad2)" d="M 293.128614 131.718805 
L 293.451663 131.390536 
L 293.76941 131.057131 
L 294.081771 130.718676 
L 294.388668 130.375258 
L 294.690022 130.026965 
L 294.985754 129.673887 
L 295.275789 129.316115 
L 295.560053 128.953739 
L 295.838472 128.586855 
L 296.110974 128.215554 
L 296.377491 127.839934 
L 296.637953 127.460091 
L 296.892294 127.076121 
L 297.140447 126.688125 
L 297.38235 126.296201 
L 297.617941 125.90045 
L 297.847158 125.500973 
L 298.069942 125.097875 
L 298.286238 124.691257 
L 298.495988 124.281225 
L 298.69914 123.867883 
L 298.89564 123.451339 
L 299.085439 123.031699 
L 299.268488 122.60907 
L 299.444739 122.183562 
L 299.614147 121.755284 
L 299.77667 121.324345 
L 299.932264 120.890857 
L 300.080891 120.454931 
L 300.222512 120.016678 
L 300.35709 119.576212 
L 300.484591 119.133646 
L 300.604983 118.689093 
L 300.718233 118.242667 
L 300.824314 117.794483 
L 300.923198 117.344657 
L 301.01486 116.893304 
L 301.099275 116.440539 
L 301.176423 115.98648 
L 301.246283 115.531243 
L 301.308838 115.074944 
L 301.364071 114.617701 
L 301.411969 114.159632 
L 301.452518 113.700854 
L 301.48571 113.241485 
L 301.511534 112.781643 
L 301.529984 112.321446 
L 301.541057 111.861012 
L 301.544748 111.40046 
" style="fill:none;stroke:#000000;stroke-linecap:square;stroke-width:1.5;"/>
   </g>
   <g id="line2d_30">
    <path clip-path="url(#pf22e895ad2)" d="M 220.951386 131.718805 
L 220.628337 131.390536 
L 220.31059 131.057131 
L 219.998229 130.718676 
L 219.691332 130.375258 
L 219.389978 130.026965 
L 219.094246 129.673887 
L 218.804211 129.316115 
L 218.519947 128.953739 
L 218.241528 128.586855 
L 217.969026 128.215554 
L 217.702509 127.839934 
L 217.442047 127.460091 
L 217.187706 127.076121 
L 216.939553 126.688125 
L 216.69765 126.296201 
L 216.462059 125.90045 
L 216.232842 125.500973 
L 216.010058 125.097875 
L 215.793762 124.691257 
L 215.584012 124.281225 
L 215.38086 123.867883 
L 215.18436 123.451339 
L 214.994561 123.031699 
L 214.811512 122.60907 
L 214.635261 122.183562 
L 214.465853 121.755284 
L 214.30333 121.324345 
L 214.147736 120.890857 
L 213.999109 120.454931 
L 213.857488 120.016678 
L 213.72291 119.576212 
L 213.595409 119.133646 
L 213.475017 118.689093 
L 213.361767 118.242667 
L 213.255686 117.794483 
L 213.156802 117.344657 
L 213.06514 116.893304 
L 212.980725 116.440539 
L 212.903577 115.98648 
L 212.833717 115.531243 
L 212.771162 115.074944 
L 212.715929 114.617701 
L 212.668031 114.159632 
L 212.627482 113.700854 
L 212.59429 113.241485 
L 212.568466 112.781643 
L 212.550016 112.321446 
L 212.538943 111.861012 
L 212.535252 111.40046 
" style="fill:none;stroke:#000000;stroke-linecap:square;stroke-width:1.5;"/>
   </g>
   <g id="line2d_31">
    <path clip-path="url(#pf22e895ad2)" d="M 293.128614 131.718805 
L 292.052336 132.840518 
L 291.023333 134.005749 
L 290.043362 135.212509 
L 289.114098 136.458735 
L 288.237127 137.742298 
L 287.413949 139.061006 
L 286.64597 140.412605 
L 285.934501 141.794786 
L 285.280759 143.205188 
L 284.68586 144.641401 
L 284.150821 146.100971 
L 283.676556 147.581405 
L 283.263874 149.080173 
L 282.913482 150.594715 
L 282.625977 152.122443 
L 282.401852 153.660748 
L 282.241488 155.207 
L 282.14516 156.758558 
L 282.113032 158.312772 
" style="fill:none;stroke:#000000;stroke-linecap:square;stroke-width:1.5;"/>
   </g>
   <g id="line2d_32">
    <path clip-path="url(#pf22e895ad2)" d="M 220.951386 131.718805 
L 222.027664 132.840518 
L 223.056667 134.005749 
L 224.036638 135.212509 
L 224.965902 136.458735 
L 225.842873 137.742298 
L 226.666051 139.061006 
L 227.43403 140.412605 
L 228.145499 141.794786 
L 228.799241 143.205188 
L 229.39414 144.641401 
L 229.929179 146.100971 
L 230.403444 147.581405 
L 230.816126 149.080173 
L 231.166518 150.594715 
L 231.454023 152.122443 
L 231.678148 153.660748 
L 231.838512 155.207 
L 231.93484 156.758558 
L 231.966968 158.312772 
" style="fill:none;stroke:#000000;stroke-linecap:square;stroke-width:1.5;"/>
   </g>
   <g id="line2d_33">
    <path clip-path="url(#pf22e895ad2)" d="M 282.113032 158.312772 
L 282.11358 158.415194 
L 282.115223 158.517606 
L 282.117961 158.619993 
L 282.121793 158.722346 
L 282.12672 158.824652 
L 282.132741 158.926899 
L 282.139855 159.029076 
L 282.148061 159.131171 
L 282.157358 159.233173 
L 282.167746 159.335069 
L 282.179223 159.436849 
L 282.191787 159.538499 
L 282.205438 159.64001 
L 282.220173 159.741369 
L 282.235992 159.842564 
L 282.252891 159.943585 
L 282.27087 160.044419 
L 282.289927 160.145055 
L 282.310058 160.245482 
L 282.331262 160.345687 
L 282.353537 160.44566 
L 282.376879 160.545389 
L 282.401286 160.644863 
L 282.426756 160.74407 
L 282.453285 160.842999 
L 282.480871 160.941639 
L 282.50951 161.039978 
L 282.539199 161.138005 
L 282.569934 161.235709 
L 282.601713 161.333079 
L 282.634531 161.430103 
L 282.668384 161.526771 
L 282.703269 161.623072 
L 282.739183 161.718993 
L 282.77612 161.814526 
L 282.814076 161.909658 
L 282.853047 162.004378 
L 282.89303 162.098676 
L 282.934018 162.192542 
L 282.976008 162.285964 
L 283.018994 162.378931 
L 283.062972 162.471433 
L 283.107937 162.56346 
L 283.153883 162.655001 
L 283.200805 162.746045 
L 283.248699 162.836582 
L 283.297558 162.926602 
L 283.347376 163.016094 
L 283.398149 163.105048 
" style="fill:none;stroke:#000000;stroke-linecap:square;stroke-width:1.5;"/>
   </g>
   <g id="line2d_34">
    <path clip-path="url(#pf22e895ad2)" d="M 231.966968 158.312772 
L 231.96642 158.415194 
L 231.964777 158.517606 
L 231.962039 158.619993 
L 231.958207 158.722346 
L 231.95328 158.824652 
L 231.947259 158.926899 
L 231.940145 159.029076 
L 231.931939 159.131171 
L 231.922642 159.233173 
L 231.912254 159.335069 
L 231.900777 159.436849 
L 231.888213 159.538499 
L 231.874562 159.64001 
L 231.859827 159.741369 
L 231.844008 159.842564 
L 231.827109 159.943585 
L 231.80913 160.044419 
L 231.790073 160.145055 
L 231.769942 160.245482 
L 231.748738 160.345687 
L 231.726463 160.44566 
L 231.703121 160.545389 
L 231.678714 160.644863 
L 231.653244 160.74407 
L 231.626715 160.842999 
L 231.599129 160.941639 
L 231.57049 161.039978 
L 231.540801 161.138005 
L 231.510066 161.235709 
L 231.478287 161.333079 
L 231.445469 161.430103 
L 231.411616 161.526771 
L 231.376731 161.623072 
L 231.340817 161.718993 
L 231.30388 161.814526 
L 231.265924 161.909658 
L 231.226953 162.004378 
L 231.18697 162.098676 
L 231.145982 162.192542 
L 231.103992 162.285964 
L 231.061006 162.378931 
L 231.017028 162.471433 
L 230.972063 162.56346 
L 230.926117 162.655001 
L 230.879195 162.746045 
L 230.831301 162.836582 
L 230.782442 162.926602 
L 230.732624 163.016094 
L 230.681851 163.105048 
" style="fill:none;stroke:#000000;stroke-linecap:square;stroke-width:1.5;"/>
   </g>
   <g id="line2d_35">
    <path clip-path="url(#pf22e895ad2)" d="M 283.398149 163.105048 
L 288.654887 172.287374 
L 293.832833 181.504994 
L 298.931987 190.757908 
L 303.95235 200.046117 
L 308.893922 209.369621 
L 313.756702 218.72842 
L 318.54069 228.122513 
L 323.245887 237.5519 
L 327.872292 247.016583 
L 332.419906 256.51656 
L 336.888729 266.051831 
L 341.278759 275.622397 
L 345.589999 285.228258 
L 349.822447 294.869413 
L 353.976103 304.545863 
L 358.050968 314.257608 
L 362.047041 324.004647 
L 365.964323 333.786981 
L 369.802813 343.604609 
L 373.562512 353.457532 
L 377.243419 363.345749 
L 380.845535 373.269262 
L 384.368859 383.228068 
L 387.813391 393.22217 
L 391.179133 403.251566 
L 394.466082 413.316257 
L 397.67424 423.416242 
L 400.803607 433.551522 
L 403.854182 443.722096 
L 406.825966 453.927965 
L 409.718958 464.169129 
L 412.533158 474.445587 
L 415.268567 484.75734 
L 417.925185 495.104388 
L 420.503011 505.48673 
L 423.002045 515.904367 
L 425.422288 526.357298 
L 427.76374 536.845524 
L 430.026399 547.369045 
L 432.210268 557.92786 
L 434.315345 568.52197 
L 436.34163 579.151374 
L 438.289124 589.816073 
L 440.157826 600.516067 
L 441.947737 611.251355 
L 443.658857 622.021938 
L 445.291184 632.827816 
L 446.844721 643.668988 
L 448.319465 654.545455 
" style="fill:none;stroke:#000000;stroke-linecap:square;stroke-width:1.5;"/>
   </g>
   <g id="line2d_36">
    <path clip-path="url(#pf22e895ad2)" d="M 230.681851 163.105048 
L 225.425113 172.287374 
L 220.247167 181.504994 
L 215.148013 190.757908 
L 210.12765 200.046117 
L 205.186078 209.369621 
L 200.323298 218.72842 
L 195.53931 228.122513 
L 190.834113 237.5519 
L 186.207708 247.016583 
L 181.660094 256.51656 
L 177.191271 266.051831 
L 172.801241 275.622397 
L 168.490001 285.228258 
L 164.257553 294.869413 
L 160.103897 304.545863 
L 156.029032 314.257608 
L 152.032959 324.004647 
L 148.115677 333.786981 
L 144.277187 343.604609 
L 140.517488 353.457532 
L 136.836581 363.345749 
L 133.234465 373.269262 
L 129.711141 383.228068 
L 126.266609 393.22217 
L 122.900867 403.251566 
L 119.613918 413.316257 
L 116.40576 423.416242 
L 113.276393 433.551522 
L 110.225818 443.722096 
L 107.254034 453.927965 
L 104.361042 464.169129 
L 101.546842 474.445587 
L 98.811433 484.75734 
L 96.154815 495.104388 
L 93.576989 505.48673 
L 91.077955 515.904367 
L 88.657712 526.357298 
L 86.31626 536.845524 
L 84.053601 547.369045 
L 81.869732 557.92786 
L 79.764655 568.52197 
L 77.73837 579.151374 
L 75.790876 589.816073 
L 73.922174 600.516067 
L 72.132263 611.251355 
L 70.421143 622.021938 
L 68.788816 632.827816 
L 67.235279 643.668988 
L 65.760535 654.545455 
" style="fill:none;stroke:#000000;stroke-linecap:square;stroke-width:1.5;"/>
   </g>
   <g id="patch_3">
    <path d="M 46.632588 684 
L 46.632588 36 
" style="fill:none;stroke:#000000;stroke-linecap:square;stroke-linejoin:miter;stroke-width:0.8;"/>
   </g>
   <g id="patch_4">
    <path d="M 467.447412 684 
L 467.447412 36 
" style="fill:none;stroke:#000000;stroke-linecap:square;stroke-linejoin:miter;stroke-width:0.8;"/>
   </g>
   <g id="patch_5">
    <path d="M 46.632588 684 
L 467.447412 684 
" style="fill:none;stroke:#000000;stroke-linecap:square;stroke-linejoin:miter;stroke-width:0.8;"/>
   </g>
   <g id="patch_6">
    <path d="M 46.632588 36 
L 467.447412 36 
" style="fill:none;stroke:#000000;stroke-linecap:square;stroke-linejoin:miter;stroke-width:0.8;"/>
   </g>
  </g>
 </g>
 <defs>
  <clipPath id="pf22e895ad2">
   <rect height="648" width="420.814824" x="46.632588" y="36"/>
  </clipPath>
 </defs>
</svg>
