<?xml version="1.0" encoding="utf-8" standalone="no"?>
<!DOCTYPE svg PUBLIC "-//W3C//DTD SVG 1.1//EN"
  "http://www.w3.org/Graphics/SVG/1.1/DTD/svg11.dtd">
<!-- Created with matplotlib (https://matplotlib.org/) -->
<svg height="576pt" version="1.1" viewBox="0 0 864 576" width="864pt" xmlns="http://www.w3.org/2000/svg" xmlns:xlink="http://www.w3.org/1999/xlink">
 <defs>
  <style type="text/css">
*{stroke-linecap:butt;stroke-linejoin:round;}
  </style>
 </defs>
 <g id="figure_1">
  <g id="patch_1">
   <path d="M 0 576 
L 864 576 
L 864 0 
L 0 0 
z
" style="fill:#ffffff;"/>
  </g>
  <g id="axes_1">
   <g id="patch_2">
    <path d="M 108 512.64 
L 777.6 512.64 
L 777.6 69.12 
L 108 69.12 
z
" style="fill:#ffffff;"/>
   </g>
   <g id="matplotlib.axis_1">
    <g id="xtick_1">
     <g id="line2d_1">
      <path clip-path="url(#pa436886eb1)" d="M 138.436364 512.64 
L 138.436364 69.12 
" style="fill:none;stroke:#b0b0b0;stroke-linecap:square;stroke-width:0.8;"/>
     </g>
     <g id="line2d_2">
      <defs>
       <path d="M 0 0 
L 0 3.5 
" id="mcf1dcff32c" style="stroke:#000000;stroke-width:0.8;"/>
      </defs>
      <g>
       <use style="stroke:#000000;stroke-width:0.8;" x="138.436364" xlink:href="#mcf1dcff32c" y="512.64"/>
      </g>
     </g>
     <g id="text_1">
      <!-- 0 -->
      <defs>
       <path d="M 31.78125 66.40625 
Q 24.171875 66.40625 20.328125 58.90625 
Q 16.5 51.421875 16.5 36.375 
Q 16.5 21.390625 20.328125 13.890625 
Q 24.171875 6.390625 31.78125 6.390625 
Q 39.453125 6.390625 43.28125 13.890625 
Q 47.125 21.390625 47.125 36.375 
Q 47.125 51.421875 43.28125 58.90625 
Q 39.453125 66.40625 31.78125 66.40625 
z
M 31.78125 74.21875 
Q 44.046875 74.21875 50.515625 64.515625 
Q 56.984375 54.828125 56.984375 36.375 
Q 56.984375 17.96875 50.515625 8.265625 
Q 44.046875 -1.421875 31.78125 -1.421875 
Q 19.53125 -1.421875 13.0625 8.265625 
Q 6.59375 17.96875 6.59375 36.375 
Q 6.59375 54.828125 13.0625 64.515625 
Q 19.53125 74.21875 31.78125 74.21875 
z
" id="DejaVuSans-48"/>
      </defs>
      <g transform="translate(135.255114 527.238438)scale(0.1 -0.1)">
       <use xlink:href="#DejaVuSans-48"/>
      </g>
     </g>
    </g>
    <g id="xtick_2">
     <g id="line2d_3">
      <path clip-path="url(#pa436886eb1)" d="M 260.181818 512.64 
L 260.181818 69.12 
" style="fill:none;stroke:#b0b0b0;stroke-linecap:square;stroke-width:0.8;"/>
     </g>
     <g id="line2d_4">
      <g>
       <use style="stroke:#000000;stroke-width:0.8;" x="260.181818" xlink:href="#mcf1dcff32c" y="512.64"/>
      </g>
     </g>
     <g id="text_2">
      <!-- 50000 -->
      <defs>
       <path d="M 10.796875 72.90625 
L 49.515625 72.90625 
L 49.515625 64.59375 
L 19.828125 64.59375 
L 19.828125 46.734375 
Q 21.96875 47.46875 24.109375 47.828125 
Q 26.265625 48.1875 28.421875 48.1875 
Q 40.625 48.1875 47.75 41.5 
Q 54.890625 34.8125 54.890625 23.390625 
Q 54.890625 11.625 47.5625 5.09375 
Q 40.234375 -1.421875 26.90625 -1.421875 
Q 22.3125 -1.421875 17.546875 -0.640625 
Q 12.796875 0.140625 7.71875 1.703125 
L 7.71875 11.625 
Q 12.109375 9.234375 16.796875 8.0625 
Q 21.484375 6.890625 26.703125 6.890625 
Q 35.15625 6.890625 40.078125 11.328125 
Q 45.015625 15.765625 45.015625 23.390625 
Q 45.015625 31 40.078125 35.4375 
Q 35.15625 39.890625 26.703125 39.890625 
Q 22.75 39.890625 18.8125 39.015625 
Q 14.890625 38.140625 10.796875 36.28125 
z
" id="DejaVuSans-53"/>
      </defs>
      <g transform="translate(244.275568 527.238438)scale(0.1 -0.1)">
       <use xlink:href="#DejaVuSans-53"/>
       <use x="63.623047" xlink:href="#DejaVuSans-48"/>
       <use x="127.246094" xlink:href="#DejaVuSans-48"/>
       <use x="190.869141" xlink:href="#DejaVuSans-48"/>
       <use x="254.492188" xlink:href="#DejaVuSans-48"/>
      </g>
     </g>
    </g>
    <g id="xtick_3">
     <g id="line2d_5">
      <path clip-path="url(#pa436886eb1)" d="M 381.927273 512.64 
L 381.927273 69.12 
" style="fill:none;stroke:#b0b0b0;stroke-linecap:square;stroke-width:0.8;"/>
     </g>
     <g id="line2d_6">
      <g>
       <use style="stroke:#000000;stroke-width:0.8;" x="381.927273" xlink:href="#mcf1dcff32c" y="512.64"/>
      </g>
     </g>
     <g id="text_3">
      <!-- 100000 -->
      <defs>
       <path d="M 12.40625 8.296875 
L 28.515625 8.296875 
L 28.515625 63.921875 
L 10.984375 60.40625 
L 10.984375 69.390625 
L 28.421875 72.90625 
L 38.28125 72.90625 
L 38.28125 8.296875 
L 54.390625 8.296875 
L 54.390625 0 
L 12.40625 0 
z
" id="DejaVuSans-49"/>
      </defs>
      <g transform="translate(362.839773 527.238438)scale(0.1 -0.1)">
       <use xlink:href="#DejaVuSans-49"/>
       <use x="63.623047" xlink:href="#DejaVuSans-48"/>
       <use x="127.246094" xlink:href="#DejaVuSans-48"/>
       <use x="190.869141" xlink:href="#DejaVuSans-48"/>
       <use x="254.492188" xlink:href="#DejaVuSans-48"/>
       <use x="318.115234" xlink:href="#DejaVuSans-48"/>
      </g>
     </g>
    </g>
    <g id="xtick_4">
     <g id="line2d_7">
      <path clip-path="url(#pa436886eb1)" d="M 503.672727 512.64 
L 503.672727 69.12 
" style="fill:none;stroke:#b0b0b0;stroke-linecap:square;stroke-width:0.8;"/>
     </g>
     <g id="line2d_8">
      <g>
       <use style="stroke:#000000;stroke-width:0.8;" x="503.672727" xlink:href="#mcf1dcff32c" y="512.64"/>
      </g>
     </g>
     <g id="text_4">
      <!-- 150000 -->
      <g transform="translate(484.585227 527.238438)scale(0.1 -0.1)">
       <use xlink:href="#DejaVuSans-49"/>
       <use x="63.623047" xlink:href="#DejaVuSans-53"/>
       <use x="127.246094" xlink:href="#DejaVuSans-48"/>
       <use x="190.869141" xlink:href="#DejaVuSans-48"/>
       <use x="254.492188" xlink:href="#DejaVuSans-48"/>
       <use x="318.115234" xlink:href="#DejaVuSans-48"/>
      </g>
     </g>
    </g>
    <g id="xtick_5">
     <g id="line2d_9">
      <path clip-path="url(#pa436886eb1)" d="M 625.418182 512.64 
L 625.418182 69.12 
" style="fill:none;stroke:#b0b0b0;stroke-linecap:square;stroke-width:0.8;"/>
     </g>
     <g id="line2d_10">
      <g>
       <use style="stroke:#000000;stroke-width:0.8;" x="625.418182" xlink:href="#mcf1dcff32c" y="512.64"/>
      </g>
     </g>
     <g id="text_5">
      <!-- 200000 -->
      <defs>
       <path d="M 19.1875 8.296875 
L 53.609375 8.296875 
L 53.609375 0 
L 7.328125 0 
L 7.328125 8.296875 
Q 12.9375 14.109375 22.625 23.890625 
Q 32.328125 33.6875 34.8125 36.53125 
Q 39.546875 41.84375 41.421875 45.53125 
Q 43.3125 49.21875 43.3125 52.78125 
Q 43.3125 58.59375 39.234375 62.25 
Q 35.15625 65.921875 28.609375 65.921875 
Q 23.96875 65.921875 18.8125 64.3125 
Q 13.671875 62.703125 7.8125 59.421875 
L 7.8125 69.390625 
Q 13.765625 71.78125 18.9375 73 
Q 24.125 74.21875 28.421875 74.21875 
Q 39.75 74.21875 46.484375 68.546875 
Q 53.21875 62.890625 53.21875 53.421875 
Q 53.21875 48.921875 51.53125 44.890625 
Q 49.859375 40.875 45.40625 35.40625 
Q 44.1875 33.984375 37.640625 27.21875 
Q 31.109375 20.453125 19.1875 8.296875 
z
" id="DejaVuSans-50"/>
      </defs>
      <g transform="translate(606.330682 527.238438)scale(0.1 -0.1)">
       <use xlink:href="#DejaVuSans-50"/>
       <use x="63.623047" xlink:href="#DejaVuSans-48"/>
       <use x="127.246094" xlink:href="#DejaVuSans-48"/>
       <use x="190.869141" xlink:href="#DejaVuSans-48"/>
       <use x="254.492188" xlink:href="#DejaVuSans-48"/>
       <use x="318.115234" xlink:href="#DejaVuSans-48"/>
      </g>
     </g>
    </g>
    <g id="xtick_6">
     <g id="line2d_11">
      <path clip-path="url(#pa436886eb1)" d="M 747.163636 512.64 
L 747.163636 69.12 
" style="fill:none;stroke:#b0b0b0;stroke-linecap:square;stroke-width:0.8;"/>
     </g>
     <g id="line2d_12">
      <g>
       <use style="stroke:#000000;stroke-width:0.8;" x="747.163636" xlink:href="#mcf1dcff32c" y="512.64"/>
      </g>
     </g>
     <g id="text_6">
      <!-- 250000 -->
      <g transform="translate(728.076136 527.238438)scale(0.1 -0.1)">
       <use xlink:href="#DejaVuSans-50"/>
       <use x="63.623047" xlink:href="#DejaVuSans-53"/>
       <use x="127.246094" xlink:href="#DejaVuSans-48"/>
       <use x="190.869141" xlink:href="#DejaVuSans-48"/>
       <use x="254.492188" xlink:href="#DejaVuSans-48"/>
       <use x="318.115234" xlink:href="#DejaVuSans-48"/>
      </g>
     </g>
    </g>
    <g id="text_7">
     <!-- Quota [m] -->
     <defs>
      <path d="M 39.40625 66.21875 
Q 28.65625 66.21875 22.328125 58.203125 
Q 16.015625 50.203125 16.015625 36.375 
Q 16.015625 22.609375 22.328125 14.59375 
Q 28.65625 6.59375 39.40625 6.59375 
Q 50.140625 6.59375 56.421875 14.59375 
Q 62.703125 22.609375 62.703125 36.375 
Q 62.703125 50.203125 56.421875 58.203125 
Q 50.140625 66.21875 39.40625 66.21875 
z
M 53.21875 1.3125 
L 66.21875 -12.890625 
L 54.296875 -12.890625 
L 43.5 -1.21875 
Q 41.890625 -1.3125 41.03125 -1.359375 
Q 40.1875 -1.421875 39.40625 -1.421875 
Q 24.03125 -1.421875 14.8125 8.859375 
Q 5.609375 19.140625 5.609375 36.375 
Q 5.609375 53.65625 14.8125 63.9375 
Q 24.03125 74.21875 39.40625 74.21875 
Q 54.734375 74.21875 63.90625 63.9375 
Q 73.09375 53.65625 73.09375 36.375 
Q 73.09375 23.6875 67.984375 14.640625 
Q 62.890625 5.609375 53.21875 1.3125 
z
" id="DejaVuSans-81"/>
      <path d="M 8.5 21.578125 
L 8.5 54.6875 
L 17.484375 54.6875 
L 17.484375 21.921875 
Q 17.484375 14.15625 20.5 10.265625 
Q 23.53125 6.390625 29.59375 6.390625 
Q 36.859375 6.390625 41.078125 11.03125 
Q 45.3125 15.671875 45.3125 23.6875 
L 45.3125 54.6875 
L 54.296875 54.6875 
L 54.296875 0 
L 45.3125 0 
L 45.3125 8.40625 
Q 42.046875 3.421875 37.71875 1 
Q 33.40625 -1.421875 27.6875 -1.421875 
Q 18.265625 -1.421875 13.375 4.4375 
Q 8.5 10.296875 8.5 21.578125 
z
M 31.109375 56 
z
" id="DejaVuSans-117"/>
      <path d="M 30.609375 48.390625 
Q 23.390625 48.390625 19.1875 42.75 
Q 14.984375 37.109375 14.984375 27.296875 
Q 14.984375 17.484375 19.15625 11.84375 
Q 23.34375 6.203125 30.609375 6.203125 
Q 37.796875 6.203125 41.984375 11.859375 
Q 46.1875 17.53125 46.1875 27.296875 
Q 46.1875 37.015625 41.984375 42.703125 
Q 37.796875 48.390625 30.609375 48.390625 
z
M 30.609375 56 
Q 42.328125 56 49.015625 48.375 
Q 55.71875 40.765625 55.71875 27.296875 
Q 55.71875 13.875 49.015625 6.21875 
Q 42.328125 -1.421875 30.609375 -1.421875 
Q 18.84375 -1.421875 12.171875 6.21875 
Q 5.515625 13.875 5.515625 27.296875 
Q 5.515625 40.765625 12.171875 48.375 
Q 18.84375 56 30.609375 56 
z
" id="DejaVuSans-111"/>
      <path d="M 18.3125 70.21875 
L 18.3125 54.6875 
L 36.8125 54.6875 
L 36.8125 47.703125 
L 18.3125 47.703125 
L 18.3125 18.015625 
Q 18.3125 11.328125 20.140625 9.421875 
Q 21.96875 7.515625 27.59375 7.515625 
L 36.8125 7.515625 
L 36.8125 0 
L 27.59375 0 
Q 17.1875 0 13.234375 3.875 
Q 9.28125 7.765625 9.28125 18.015625 
L 9.28125 47.703125 
L 2.6875 47.703125 
L 2.6875 54.6875 
L 9.28125 54.6875 
L 9.28125 70.21875 
z
" id="DejaVuSans-116"/>
      <path d="M 34.28125 27.484375 
Q 23.390625 27.484375 19.1875 25 
Q 14.984375 22.515625 14.984375 16.5 
Q 14.984375 11.71875 18.140625 8.90625 
Q 21.296875 6.109375 26.703125 6.109375 
Q 34.1875 6.109375 38.703125 11.40625 
Q 43.21875 16.703125 43.21875 25.484375 
L 43.21875 27.484375 
z
M 52.203125 31.203125 
L 52.203125 0 
L 43.21875 0 
L 43.21875 8.296875 
Q 40.140625 3.328125 35.546875 0.953125 
Q 30.953125 -1.421875 24.3125 -1.421875 
Q 15.921875 -1.421875 10.953125 3.296875 
Q 6 8.015625 6 15.921875 
Q 6 25.140625 12.171875 29.828125 
Q 18.359375 34.515625 30.609375 34.515625 
L 43.21875 34.515625 
L 43.21875 35.40625 
Q 43.21875 41.609375 39.140625 45 
Q 35.0625 48.390625 27.6875 48.390625 
Q 23 48.390625 18.546875 47.265625 
Q 14.109375 46.140625 10.015625 43.890625 
L 10.015625 52.203125 
Q 14.9375 54.109375 19.578125 55.046875 
Q 24.21875 56 28.609375 56 
Q 40.484375 56 46.34375 49.84375 
Q 52.203125 43.703125 52.203125 31.203125 
z
" id="DejaVuSans-97"/>
      <path id="DejaVuSans-32"/>
      <path d="M 8.59375 75.984375 
L 29.296875 75.984375 
L 29.296875 69 
L 17.578125 69 
L 17.578125 -6.203125 
L 29.296875 -6.203125 
L 29.296875 -13.1875 
L 8.59375 -13.1875 
z
" id="DejaVuSans-91"/>
      <path d="M 52 44.1875 
Q 55.375 50.25 60.0625 53.125 
Q 64.75 56 71.09375 56 
Q 79.640625 56 84.28125 50.015625 
Q 88.921875 44.046875 88.921875 33.015625 
L 88.921875 0 
L 79.890625 0 
L 79.890625 32.71875 
Q 79.890625 40.578125 77.09375 44.375 
Q 74.3125 48.1875 68.609375 48.1875 
Q 61.625 48.1875 57.5625 43.546875 
Q 53.515625 38.921875 53.515625 30.90625 
L 53.515625 0 
L 44.484375 0 
L 44.484375 32.71875 
Q 44.484375 40.625 41.703125 44.40625 
Q 38.921875 48.1875 33.109375 48.1875 
Q 26.21875 48.1875 22.15625 43.53125 
Q 18.109375 38.875 18.109375 30.90625 
L 18.109375 0 
L 9.078125 0 
L 9.078125 54.6875 
L 18.109375 54.6875 
L 18.109375 46.1875 
Q 21.1875 51.21875 25.484375 53.609375 
Q 29.78125 56 35.6875 56 
Q 41.65625 56 45.828125 52.96875 
Q 50 49.953125 52 44.1875 
z
" id="DejaVuSans-109"/>
      <path d="M 30.421875 75.984375 
L 30.421875 -13.1875 
L 9.71875 -13.1875 
L 9.71875 -6.203125 
L 21.390625 -6.203125 
L 21.390625 69 
L 9.71875 69 
L 9.71875 75.984375 
z
" id="DejaVuSans-93"/>
     </defs>
     <g transform="translate(417.250781 540.916563)scale(0.1 -0.1)">
      <use xlink:href="#DejaVuSans-81"/>
      <use x="78.710938" xlink:href="#DejaVuSans-117"/>
      <use x="142.089844" xlink:href="#DejaVuSans-111"/>
      <use x="203.271484" xlink:href="#DejaVuSans-116"/>
      <use x="242.480469" xlink:href="#DejaVuSans-97"/>
      <use x="303.759766" xlink:href="#DejaVuSans-32"/>
      <use x="335.546875" xlink:href="#DejaVuSans-91"/>
      <use x="374.560547" xlink:href="#DejaVuSans-109"/>
      <use x="471.972656" xlink:href="#DejaVuSans-93"/>
     </g>
    </g>
   </g>
   <g id="matplotlib.axis_2">
    <g id="ytick_1">
     <g id="line2d_13">
      <path clip-path="url(#pa436886eb1)" d="M 108 467.955276 
L 777.6 467.955276 
" style="fill:none;stroke:#b0b0b0;stroke-linecap:square;stroke-width:0.8;"/>
     </g>
     <g id="line2d_14">
      <defs>
       <path d="M 0 0 
L -3.5 0 
" id="m087382d981" style="stroke:#000000;stroke-width:0.8;"/>
      </defs>
      <g>
       <use style="stroke:#000000;stroke-width:0.8;" x="108" xlink:href="#m087382d981" y="467.955276"/>
      </g>
     </g>
     <g id="text_8">
      <!-- 280 -->
      <defs>
       <path d="M 31.78125 34.625 
Q 24.75 34.625 20.71875 30.859375 
Q 16.703125 27.09375 16.703125 20.515625 
Q 16.703125 13.921875 20.71875 10.15625 
Q 24.75 6.390625 31.78125 6.390625 
Q 38.8125 6.390625 42.859375 10.171875 
Q 46.921875 13.96875 46.921875 20.515625 
Q 46.921875 27.09375 42.890625 30.859375 
Q 38.875 34.625 31.78125 34.625 
z
M 21.921875 38.8125 
Q 15.578125 40.375 12.03125 44.71875 
Q 8.5 49.078125 8.5 55.328125 
Q 8.5 64.0625 14.71875 69.140625 
Q 20.953125 74.21875 31.78125 74.21875 
Q 42.671875 74.21875 48.875 69.140625 
Q 55.078125 64.0625 55.078125 55.328125 
Q 55.078125 49.078125 51.53125 44.71875 
Q 48 40.375 41.703125 38.8125 
Q 48.828125 37.15625 52.796875 32.3125 
Q 56.78125 27.484375 56.78125 20.515625 
Q 56.78125 9.90625 50.3125 4.234375 
Q 43.84375 -1.421875 31.78125 -1.421875 
Q 19.734375 -1.421875 13.25 4.234375 
Q 6.78125 9.90625 6.78125 20.515625 
Q 6.78125 27.484375 10.78125 32.3125 
Q 14.796875 37.15625 21.921875 38.8125 
z
M 18.3125 54.390625 
Q 18.3125 48.734375 21.84375 45.5625 
Q 25.390625 42.390625 31.78125 42.390625 
Q 38.140625 42.390625 41.71875 45.5625 
Q 45.3125 48.734375 45.3125 54.390625 
Q 45.3125 60.0625 41.71875 63.234375 
Q 38.140625 66.40625 31.78125 66.40625 
Q 25.390625 66.40625 21.84375 63.234375 
Q 18.3125 60.0625 18.3125 54.390625 
z
" id="DejaVuSans-56"/>
      </defs>
      <g transform="translate(81.9125 471.754495)scale(0.1 -0.1)">
       <use xlink:href="#DejaVuSans-50"/>
       <use x="63.623047" xlink:href="#DejaVuSans-56"/>
       <use x="127.246094" xlink:href="#DejaVuSans-48"/>
      </g>
     </g>
    </g>
    <g id="ytick_2">
     <g id="line2d_15">
      <path clip-path="url(#pa436886eb1)" d="M 108 418.220098 
L 777.6 418.220098 
" style="fill:none;stroke:#b0b0b0;stroke-linecap:square;stroke-width:0.8;"/>
     </g>
     <g id="line2d_16">
      <g>
       <use style="stroke:#000000;stroke-width:0.8;" x="108" xlink:href="#m087382d981" y="418.220098"/>
      </g>
     </g>
     <g id="text_9">
      <!-- 300 -->
      <defs>
       <path d="M 40.578125 39.3125 
Q 47.65625 37.796875 51.625 33 
Q 55.609375 28.21875 55.609375 21.1875 
Q 55.609375 10.40625 48.1875 4.484375 
Q 40.765625 -1.421875 27.09375 -1.421875 
Q 22.515625 -1.421875 17.65625 -0.515625 
Q 12.796875 0.390625 7.625 2.203125 
L 7.625 11.71875 
Q 11.71875 9.328125 16.59375 8.109375 
Q 21.484375 6.890625 26.8125 6.890625 
Q 36.078125 6.890625 40.9375 10.546875 
Q 45.796875 14.203125 45.796875 21.1875 
Q 45.796875 27.640625 41.28125 31.265625 
Q 36.765625 34.90625 28.71875 34.90625 
L 20.21875 34.90625 
L 20.21875 43.015625 
L 29.109375 43.015625 
Q 36.375 43.015625 40.234375 45.921875 
Q 44.09375 48.828125 44.09375 54.296875 
Q 44.09375 59.90625 40.109375 62.90625 
Q 36.140625 65.921875 28.71875 65.921875 
Q 24.65625 65.921875 20.015625 65.03125 
Q 15.375 64.15625 9.8125 62.3125 
L 9.8125 71.09375 
Q 15.4375 72.65625 20.34375 73.4375 
Q 25.25 74.21875 29.59375 74.21875 
Q 40.828125 74.21875 47.359375 69.109375 
Q 53.90625 64.015625 53.90625 55.328125 
Q 53.90625 49.265625 50.4375 45.09375 
Q 46.96875 40.921875 40.578125 39.3125 
z
" id="DejaVuSans-51"/>
      </defs>
      <g transform="translate(81.9125 422.019317)scale(0.1 -0.1)">
       <use xlink:href="#DejaVuSans-51"/>
       <use x="63.623047" xlink:href="#DejaVuSans-48"/>
       <use x="127.246094" xlink:href="#DejaVuSans-48"/>
      </g>
     </g>
    </g>
    <g id="ytick_3">
     <g id="line2d_17">
      <path clip-path="url(#pa436886eb1)" d="M 108 368.48492 
L 777.6 368.48492 
" style="fill:none;stroke:#b0b0b0;stroke-linecap:square;stroke-width:0.8;"/>
     </g>
     <g id="line2d_18">
      <g>
       <use style="stroke:#000000;stroke-width:0.8;" x="108" xlink:href="#m087382d981" y="368.48492"/>
      </g>
     </g>
     <g id="text_10">
      <!-- 320 -->
      <g transform="translate(81.9125 372.284139)scale(0.1 -0.1)">
       <use xlink:href="#DejaVuSans-51"/>
       <use x="63.623047" xlink:href="#DejaVuSans-50"/>
       <use x="127.246094" xlink:href="#DejaVuSans-48"/>
      </g>
     </g>
    </g>
    <g id="ytick_4">
     <g id="line2d_19">
      <path clip-path="url(#pa436886eb1)" d="M 108 318.749743 
L 777.6 318.749743 
" style="fill:none;stroke:#b0b0b0;stroke-linecap:square;stroke-width:0.8;"/>
     </g>
     <g id="line2d_20">
      <g>
       <use style="stroke:#000000;stroke-width:0.8;" x="108" xlink:href="#m087382d981" y="318.749743"/>
      </g>
     </g>
     <g id="text_11">
      <!-- 340 -->
      <defs>
       <path d="M 37.796875 64.3125 
L 12.890625 25.390625 
L 37.796875 25.390625 
z
M 35.203125 72.90625 
L 47.609375 72.90625 
L 47.609375 25.390625 
L 58.015625 25.390625 
L 58.015625 17.1875 
L 47.609375 17.1875 
L 47.609375 0 
L 37.796875 0 
L 37.796875 17.1875 
L 4.890625 17.1875 
L 4.890625 26.703125 
z
" id="DejaVuSans-52"/>
      </defs>
      <g transform="translate(81.9125 322.548961)scale(0.1 -0.1)">
       <use xlink:href="#DejaVuSans-51"/>
       <use x="63.623047" xlink:href="#DejaVuSans-52"/>
       <use x="127.246094" xlink:href="#DejaVuSans-48"/>
      </g>
     </g>
    </g>
    <g id="ytick_5">
     <g id="line2d_21">
      <path clip-path="url(#pa436886eb1)" d="M 108 269.014565 
L 777.6 269.014565 
" style="fill:none;stroke:#b0b0b0;stroke-linecap:square;stroke-width:0.8;"/>
     </g>
     <g id="line2d_22">
      <g>
       <use style="stroke:#000000;stroke-width:0.8;" x="108" xlink:href="#m087382d981" y="269.014565"/>
      </g>
     </g>
     <g id="text_12">
      <!-- 360 -->
      <defs>
       <path d="M 33.015625 40.375 
Q 26.375 40.375 22.484375 35.828125 
Q 18.609375 31.296875 18.609375 23.390625 
Q 18.609375 15.53125 22.484375 10.953125 
Q 26.375 6.390625 33.015625 6.390625 
Q 39.65625 6.390625 43.53125 10.953125 
Q 47.40625 15.53125 47.40625 23.390625 
Q 47.40625 31.296875 43.53125 35.828125 
Q 39.65625 40.375 33.015625 40.375 
z
M 52.59375 71.296875 
L 52.59375 62.3125 
Q 48.875 64.0625 45.09375 64.984375 
Q 41.3125 65.921875 37.59375 65.921875 
Q 27.828125 65.921875 22.671875 59.328125 
Q 17.53125 52.734375 16.796875 39.40625 
Q 19.671875 43.65625 24.015625 45.921875 
Q 28.375 48.1875 33.59375 48.1875 
Q 44.578125 48.1875 50.953125 41.515625 
Q 57.328125 34.859375 57.328125 23.390625 
Q 57.328125 12.15625 50.6875 5.359375 
Q 44.046875 -1.421875 33.015625 -1.421875 
Q 20.359375 -1.421875 13.671875 8.265625 
Q 6.984375 17.96875 6.984375 36.375 
Q 6.984375 53.65625 15.1875 63.9375 
Q 23.390625 74.21875 37.203125 74.21875 
Q 40.921875 74.21875 44.703125 73.484375 
Q 48.484375 72.75 52.59375 71.296875 
z
" id="DejaVuSans-54"/>
      </defs>
      <g transform="translate(81.9125 272.813784)scale(0.1 -0.1)">
       <use xlink:href="#DejaVuSans-51"/>
       <use x="63.623047" xlink:href="#DejaVuSans-54"/>
       <use x="127.246094" xlink:href="#DejaVuSans-48"/>
      </g>
     </g>
    </g>
    <g id="ytick_6">
     <g id="line2d_23">
      <path clip-path="url(#pa436886eb1)" d="M 108 219.279387 
L 777.6 219.279387 
" style="fill:none;stroke:#b0b0b0;stroke-linecap:square;stroke-width:0.8;"/>
     </g>
     <g id="line2d_24">
      <g>
       <use style="stroke:#000000;stroke-width:0.8;" x="108" xlink:href="#m087382d981" y="219.279387"/>
      </g>
     </g>
     <g id="text_13">
      <!-- 380 -->
      <g transform="translate(81.9125 223.078606)scale(0.1 -0.1)">
       <use xlink:href="#DejaVuSans-51"/>
       <use x="63.623047" xlink:href="#DejaVuSans-56"/>
       <use x="127.246094" xlink:href="#DejaVuSans-48"/>
      </g>
     </g>
    </g>
    <g id="ytick_7">
     <g id="line2d_25">
      <path clip-path="url(#pa436886eb1)" d="M 108 169.544209 
L 777.6 169.544209 
" style="fill:none;stroke:#b0b0b0;stroke-linecap:square;stroke-width:0.8;"/>
     </g>
     <g id="line2d_26">
      <g>
       <use style="stroke:#000000;stroke-width:0.8;" x="108" xlink:href="#m087382d981" y="169.544209"/>
      </g>
     </g>
     <g id="text_14">
      <!-- 400 -->
      <g transform="translate(81.9125 173.343428)scale(0.1 -0.1)">
       <use xlink:href="#DejaVuSans-52"/>
       <use x="63.623047" xlink:href="#DejaVuSans-48"/>
       <use x="127.246094" xlink:href="#DejaVuSans-48"/>
      </g>
     </g>
    </g>
    <g id="ytick_8">
     <g id="line2d_27">
      <path clip-path="url(#pa436886eb1)" d="M 108 119.809032 
L 777.6 119.809032 
" style="fill:none;stroke:#b0b0b0;stroke-linecap:square;stroke-width:0.8;"/>
     </g>
     <g id="line2d_28">
      <g>
       <use style="stroke:#000000;stroke-width:0.8;" x="108" xlink:href="#m087382d981" y="119.809032"/>
      </g>
     </g>
     <g id="text_15">
      <!-- 420 -->
      <g transform="translate(81.9125 123.60825)scale(0.1 -0.1)">
       <use xlink:href="#DejaVuSans-52"/>
       <use x="63.623047" xlink:href="#DejaVuSans-50"/>
       <use x="127.246094" xlink:href="#DejaVuSans-48"/>
      </g>
     </g>
    </g>
    <g id="ytick_9">
     <g id="line2d_29">
      <path clip-path="url(#pa436886eb1)" d="M 108 70.073854 
L 777.6 70.073854 
" style="fill:none;stroke:#b0b0b0;stroke-linecap:square;stroke-width:0.8;"/>
     </g>
     <g id="line2d_30">
      <g>
       <use style="stroke:#000000;stroke-width:0.8;" x="108" xlink:href="#m087382d981" y="70.073854"/>
      </g>
     </g>
     <g id="text_16">
      <!-- 440 -->
      <g transform="translate(81.9125 73.873073)scale(0.1 -0.1)">
       <use xlink:href="#DejaVuSans-52"/>
       <use x="63.623047" xlink:href="#DejaVuSans-52"/>
       <use x="127.246094" xlink:href="#DejaVuSans-48"/>
      </g>
     </g>
    </g>
    <g id="text_17">
     <!-- Impulso specifico [s] -->
     <defs>
      <path d="M 9.8125 72.90625 
L 19.671875 72.90625 
L 19.671875 0 
L 9.8125 0 
z
" id="DejaVuSans-73"/>
      <path d="M 18.109375 8.203125 
L 18.109375 -20.796875 
L 9.078125 -20.796875 
L 9.078125 54.6875 
L 18.109375 54.6875 
L 18.109375 46.390625 
Q 20.953125 51.265625 25.265625 53.625 
Q 29.59375 56 35.59375 56 
Q 45.5625 56 51.78125 48.09375 
Q 58.015625 40.1875 58.015625 27.296875 
Q 58.015625 14.40625 51.78125 6.484375 
Q 45.5625 -1.421875 35.59375 -1.421875 
Q 29.59375 -1.421875 25.265625 0.953125 
Q 20.953125 3.328125 18.109375 8.203125 
z
M 48.6875 27.296875 
Q 48.6875 37.203125 44.609375 42.84375 
Q 40.53125 48.484375 33.40625 48.484375 
Q 26.265625 48.484375 22.1875 42.84375 
Q 18.109375 37.203125 18.109375 27.296875 
Q 18.109375 17.390625 22.1875 11.75 
Q 26.265625 6.109375 33.40625 6.109375 
Q 40.53125 6.109375 44.609375 11.75 
Q 48.6875 17.390625 48.6875 27.296875 
z
" id="DejaVuSans-112"/>
      <path d="M 9.421875 75.984375 
L 18.40625 75.984375 
L 18.40625 0 
L 9.421875 0 
z
" id="DejaVuSans-108"/>
      <path d="M 44.28125 53.078125 
L 44.28125 44.578125 
Q 40.484375 46.53125 36.375 47.5 
Q 32.28125 48.484375 27.875 48.484375 
Q 21.1875 48.484375 17.84375 46.4375 
Q 14.5 44.390625 14.5 40.28125 
Q 14.5 37.15625 16.890625 35.375 
Q 19.28125 33.59375 26.515625 31.984375 
L 29.59375 31.296875 
Q 39.15625 29.25 43.1875 25.515625 
Q 47.21875 21.78125 47.21875 15.09375 
Q 47.21875 7.46875 41.1875 3.015625 
Q 35.15625 -1.421875 24.609375 -1.421875 
Q 20.21875 -1.421875 15.453125 -0.5625 
Q 10.6875 0.296875 5.421875 2 
L 5.421875 11.28125 
Q 10.40625 8.6875 15.234375 7.390625 
Q 20.0625 6.109375 24.8125 6.109375 
Q 31.15625 6.109375 34.5625 8.28125 
Q 37.984375 10.453125 37.984375 14.40625 
Q 37.984375 18.0625 35.515625 20.015625 
Q 33.0625 21.96875 24.703125 23.78125 
L 21.578125 24.515625 
Q 13.234375 26.265625 9.515625 29.90625 
Q 5.8125 33.546875 5.8125 39.890625 
Q 5.8125 47.609375 11.28125 51.796875 
Q 16.75 56 26.8125 56 
Q 31.78125 56 36.171875 55.265625 
Q 40.578125 54.546875 44.28125 53.078125 
z
" id="DejaVuSans-115"/>
      <path d="M 56.203125 29.59375 
L 56.203125 25.203125 
L 14.890625 25.203125 
Q 15.484375 15.921875 20.484375 11.0625 
Q 25.484375 6.203125 34.421875 6.203125 
Q 39.59375 6.203125 44.453125 7.46875 
Q 49.3125 8.734375 54.109375 11.28125 
L 54.109375 2.78125 
Q 49.265625 0.734375 44.1875 -0.34375 
Q 39.109375 -1.421875 33.890625 -1.421875 
Q 20.796875 -1.421875 13.15625 6.1875 
Q 5.515625 13.8125 5.515625 26.8125 
Q 5.515625 40.234375 12.765625 48.109375 
Q 20.015625 56 32.328125 56 
Q 43.359375 56 49.78125 48.890625 
Q 56.203125 41.796875 56.203125 29.59375 
z
M 47.21875 32.234375 
Q 47.125 39.59375 43.09375 43.984375 
Q 39.0625 48.390625 32.421875 48.390625 
Q 24.90625 48.390625 20.390625 44.140625 
Q 15.875 39.890625 15.1875 32.171875 
z
" id="DejaVuSans-101"/>
      <path d="M 48.78125 52.59375 
L 48.78125 44.1875 
Q 44.96875 46.296875 41.140625 47.34375 
Q 37.3125 48.390625 33.40625 48.390625 
Q 24.65625 48.390625 19.8125 42.84375 
Q 14.984375 37.3125 14.984375 27.296875 
Q 14.984375 17.28125 19.8125 11.734375 
Q 24.65625 6.203125 33.40625 6.203125 
Q 37.3125 6.203125 41.140625 7.25 
Q 44.96875 8.296875 48.78125 10.40625 
L 48.78125 2.09375 
Q 45.015625 0.34375 40.984375 -0.53125 
Q 36.96875 -1.421875 32.421875 -1.421875 
Q 20.0625 -1.421875 12.78125 6.34375 
Q 5.515625 14.109375 5.515625 27.296875 
Q 5.515625 40.671875 12.859375 48.328125 
Q 20.21875 56 33.015625 56 
Q 37.15625 56 41.109375 55.140625 
Q 45.0625 54.296875 48.78125 52.59375 
z
" id="DejaVuSans-99"/>
      <path d="M 9.421875 54.6875 
L 18.40625 54.6875 
L 18.40625 0 
L 9.421875 0 
z
M 9.421875 75.984375 
L 18.40625 75.984375 
L 18.40625 64.59375 
L 9.421875 64.59375 
z
" id="DejaVuSans-105"/>
      <path d="M 37.109375 75.984375 
L 37.109375 68.5 
L 28.515625 68.5 
Q 23.6875 68.5 21.796875 66.546875 
Q 19.921875 64.59375 19.921875 59.515625 
L 19.921875 54.6875 
L 34.71875 54.6875 
L 34.71875 47.703125 
L 19.921875 47.703125 
L 19.921875 0 
L 10.890625 0 
L 10.890625 47.703125 
L 2.296875 47.703125 
L 2.296875 54.6875 
L 10.890625 54.6875 
L 10.890625 58.5 
Q 10.890625 67.625 15.140625 71.796875 
Q 19.390625 75.984375 28.609375 75.984375 
z
" id="DejaVuSans-102"/>
     </defs>
     <g transform="translate(75.832812 342.257344)rotate(-90)scale(0.1 -0.1)">
      <use xlink:href="#DejaVuSans-73"/>
      <use x="29.492188" xlink:href="#DejaVuSans-109"/>
      <use x="126.904297" xlink:href="#DejaVuSans-112"/>
      <use x="190.380859" xlink:href="#DejaVuSans-117"/>
      <use x="253.759766" xlink:href="#DejaVuSans-108"/>
      <use x="281.542969" xlink:href="#DejaVuSans-115"/>
      <use x="333.642578" xlink:href="#DejaVuSans-111"/>
      <use x="394.824219" xlink:href="#DejaVuSans-32"/>
      <use x="426.611328" xlink:href="#DejaVuSans-115"/>
      <use x="478.710938" xlink:href="#DejaVuSans-112"/>
      <use x="542.1875" xlink:href="#DejaVuSans-101"/>
      <use x="603.710938" xlink:href="#DejaVuSans-99"/>
      <use x="658.691406" xlink:href="#DejaVuSans-105"/>
      <use x="686.474609" xlink:href="#DejaVuSans-102"/>
      <use x="721.679688" xlink:href="#DejaVuSans-105"/>
      <use x="749.462891" xlink:href="#DejaVuSans-99"/>
      <use x="804.443359" xlink:href="#DejaVuSans-111"/>
      <use x="865.625" xlink:href="#DejaVuSans-32"/>
      <use x="897.412109" xlink:href="#DejaVuSans-91"/>
      <use x="936.425781" xlink:href="#DejaVuSans-115"/>
      <use x="988.525391" xlink:href="#DejaVuSans-93"/>
     </g>
    </g>
   </g>
   <g id="line2d_31">
    <path clip-path="url(#pa436886eb1)" d="M 138.436364 492.48 
L 140.035041 484.764423 
L 141.633719 477.722167 
L 143.232397 471.286024 
L 144.831074 465.396312 
L 146.429752 459.999947 
L 148.02843 455.049635 
L 149.627107 450.503173 
L 151.225785 446.322842 
L 152.824463 442.474881 
L 154.42314 438.929025 
L 156.021818 435.658109 
L 157.620496 432.637708 
L 159.219174 429.845841 
L 160.817851 427.262692 
L 162.416529 424.870378 
L 164.015207 422.652739 
L 165.613884 420.273116 
L 167.212562 417.169958 
L 168.81124 414.371998 
L 170.409917 411.84922 
L 172.008595 409.57456 
L 173.607273 407.523615 
L 175.20595 405.674383 
L 176.804628 404.007024 
L 178.403306 402.503652 
L 180.001983 401.148137 
L 181.600661 399.925939 
L 183.199339 398.823946 
L 184.798017 397.830334 
L 186.396694 396.934445 
L 187.995372 396.126668 
L 189.59405 395.398336 
L 191.192727 394.741636 
L 192.791405 394.149524 
L 194.390083 393.615646 
L 195.98876 393.134276 
L 197.587438 392.700249 
L 199.186116 392.308909 
L 200.784793 391.956057 
L 202.383471 391.637909 
L 203.982149 391.351051 
L 205.580826 391.092406 
L 207.179504 390.859199 
L 208.778182 390.648928 
L 210.37686 390.459337 
L 211.975537 390.288393 
L 213.574215 390.134261 
L 215.172893 389.995288 
L 216.77157 389.869984 
L 218.370248 389.757003 
L 219.968926 389.655134 
L 221.567603 389.563284 
L 223.166281 389.480467 
L 224.764959 389.405796 
L 226.363636 389.338468 
L 227.962314 389.277763 
L 229.560992 389.223027 
L 231.159669 389.173675 
L 232.758347 389.129177 
L 234.357025 389.089056 
L 235.955702 389.05288 
L 237.55438 389.020262 
L 239.153058 388.990852 
L 240.751736 388.964335 
L 242.350413 388.940426 
L 243.949091 388.918868 
L 245.547769 388.89943 
L 247.146446 388.881904 
L 248.745124 388.866102 
L 250.343802 388.851854 
L 251.942479 388.839007 
L 253.541157 388.827424 
L 255.139835 388.81698 
L 256.738512 388.807563 
L 258.33719 388.799072 
L 259.935868 388.791417 
L 261.534545 388.784514 
L 263.133223 388.77829 
L 264.731901 388.772679 
L 266.330579 388.767619 
L 267.929256 388.763057 
L 269.527934 388.758943 
L 271.126612 388.755234 
L 272.725289 388.75189 
L 274.323967 388.748875 
L 275.922645 388.746157 
L 277.521322 388.743705 
L 279.12 388.741495 
L 280.718678 388.739502 
L 282.317355 388.737705 
L 283.916033 388.736085 
L 285.514711 388.734625 
L 287.113388 388.733307 
L 288.712066 388.73212 
L 290.310744 388.731049 
L 291.909421 388.730084 
L 293.508099 388.729213 
L 295.106777 388.728428 
L 296.705455 388.727721 
" style="fill:none;stroke:#6600cc;stroke-linecap:square;stroke-width:1.5;"/>
   </g>
   <g id="line2d_32">
    <path clip-path="url(#pa436886eb1)" d="M 296.705455 89.297829 
L 299.410909 89.294964 
L 302.116364 89.292559 
L 304.821818 89.290541 
L 307.527273 89.288847 
L 310.232727 89.287425 
L 312.938182 89.286232 
L 315.643636 89.28523 
L 318.349091 89.284389 
L 321.054545 89.283684 
L 323.76 89.283092 
L 326.465455 89.282595 
L 329.170909 89.282178 
L 331.876364 89.281828 
L 334.581818 89.281534 
L 337.287273 89.281288 
L 339.992727 89.281081 
L 342.698182 89.280907 
L 345.403636 89.280761 
L 348.109091 89.280639 
L 350.814545 89.280536 
L 353.52 89.28045 
L 356.225455 89.280378 
L 358.930909 89.280317 
L 361.636364 89.280266 
L 364.341818 89.280223 
L 367.047273 89.280187 
L 369.752727 89.280157 
L 372.458182 89.280132 
L 375.163636 89.280111 
L 377.869091 89.280093 
L 380.574545 89.280078 
L 383.28 89.280066 
L 385.985455 89.280055 
L 388.690909 89.280046 
L 391.396364 89.280039 
L 394.101818 89.280033 
L 396.807273 89.280027 
L 399.512727 89.280023 
L 402.218182 89.280019 
L 404.923636 89.280016 
L 407.629091 89.280014 
L 410.334545 89.280011 
L 413.04 89.28001 
L 415.745455 89.280008 
L 418.450909 89.280007 
L 421.156364 89.280006 
L 423.861818 89.280005 
L 426.567273 89.280004 
L 429.272727 89.280003 
L 431.978182 89.280003 
L 434.683636 89.280002 
L 437.389091 89.280002 
L 440.094545 89.280002 
L 442.8 89.280001 
L 445.505455 89.280001 
L 448.210909 89.280001 
L 450.916364 89.280001 
L 453.621818 89.280001 
L 456.327273 89.280001 
L 459.032727 89.28 
L 461.738182 89.28 
L 464.443636 89.28 
L 467.149091 89.28 
L 469.854545 89.28 
L 472.56 89.28 
L 475.265455 89.28 
L 477.970909 89.28 
L 480.676364 89.28 
L 483.381818 89.28 
L 486.087273 89.28 
L 488.792727 89.28 
L 491.498182 89.28 
L 494.203636 89.28 
L 496.909091 89.28 
L 499.614545 89.28 
L 502.32 89.28 
L 505.025455 89.28 
L 507.730909 89.28 
L 510.436364 89.28 
L 513.141818 89.28 
L 515.847273 89.28 
L 518.552727 89.28 
L 521.258182 89.28 
L 523.963636 89.28 
L 526.669091 89.28 
L 529.374545 89.28 
L 532.08 89.28 
L 534.785455 89.28 
L 537.490909 89.28 
L 540.196364 89.28 
L 542.901818 89.28 
L 545.607273 89.28 
L 548.312727 89.28 
L 551.018182 89.28 
L 553.723636 89.28 
L 556.429091 89.28 
L 559.134545 89.28 
L 561.84 89.28 
L 564.545455 89.28 
" style="fill:none;stroke:#997300;stroke-linecap:square;stroke-width:1.5;"/>
   </g>
   <g id="line2d_33">
    <path clip-path="url(#pa436886eb1)" d="M 564.545455 89.28 
L 564.791405 89.28 
L 565.037355 89.28 
L 565.283306 89.28 
L 565.529256 89.28 
L 565.775207 89.28 
L 566.021157 89.28 
L 566.267107 89.28 
L 566.513058 89.28 
L 566.759008 89.28 
L 567.004959 89.28 
L 567.250909 89.28 
L 567.49686 89.28 
L 567.74281 89.28 
L 567.98876 89.28 
L 568.234711 89.28 
L 568.480661 89.28 
L 568.726612 89.28 
L 568.972562 89.28 
L 569.218512 89.28 
L 569.464463 89.28 
L 569.710413 89.28 
L 569.956364 89.28 
L 570.202314 89.28 
L 570.448264 89.28 
L 570.694215 89.28 
L 570.940165 89.28 
L 571.186116 89.28 
L 571.432066 89.28 
L 571.678017 89.28 
L 571.923967 89.28 
L 572.169917 89.28 
L 572.415868 89.28 
L 572.661818 89.28 
L 572.907769 89.28 
L 573.153719 89.28 
L 573.399669 89.28 
L 573.64562 89.28 
L 573.89157 89.28 
L 574.137521 89.28 
L 574.383471 89.28 
L 574.629421 89.28 
L 574.875372 89.28 
L 575.121322 89.28 
L 575.367273 89.28 
L 575.613223 89.28 
L 575.859174 89.28 
L 576.105124 89.28 
L 576.351074 89.28 
L 576.597025 89.28 
L 576.842975 89.28 
L 577.088926 89.28 
L 577.334876 89.28 
L 577.580826 89.28 
L 577.826777 89.28 
L 578.072727 89.28 
L 578.318678 89.28 
L 578.564628 89.28 
L 578.810579 89.28 
L 579.056529 89.28 
L 579.302479 89.28 
L 579.54843 89.28 
L 579.79438 89.28 
L 580.040331 89.28 
L 580.286281 89.28 
L 580.532231 89.28 
L 580.778182 89.28 
L 581.024132 89.28 
L 581.270083 89.28 
L 581.516033 89.28 
L 581.761983 89.28 
L 582.007934 89.28 
L 582.253884 89.28 
L 582.499835 89.28 
L 582.745785 89.28 
L 582.991736 89.28 
L 583.237686 89.28 
L 583.483636 89.28 
L 583.729587 89.28 
L 583.975537 89.28 
L 584.221488 89.28 
L 584.467438 89.28 
L 584.713388 89.28 
L 584.959339 89.28 
L 585.205289 89.28 
L 585.45124 89.28 
L 585.69719 89.28 
L 585.94314 89.28 
L 586.189091 89.28 
L 586.435041 89.28 
L 586.680992 89.28 
L 586.926942 89.28 
L 587.172893 89.28 
L 587.418843 89.28 
L 587.664793 89.28 
L 587.910744 89.28 
L 588.156694 89.28 
L 588.402645 89.28 
L 588.648595 89.28 
L 588.894545 89.28 
" style="fill:none;stroke:#008060;stroke-linecap:square;stroke-width:1.5;"/>
   </g>
   <g id="line2d_34">
    <path clip-path="url(#pa436886eb1)" d="M 588.894545 89.28 
L 590.493223 89.28 
L 592.091901 89.28 
L 593.690579 89.28 
L 595.289256 89.28 
L 596.887934 89.28 
L 598.486612 89.28 
L 600.085289 89.28 
L 601.683967 89.28 
L 603.282645 89.28 
L 604.881322 89.28 
L 606.48 89.28 
L 608.078678 89.28 
L 609.677355 89.28 
L 611.276033 89.28 
L 612.874711 89.28 
L 614.473388 89.28 
L 616.072066 89.28 
L 617.670744 89.28 
L 619.269421 89.28 
L 620.868099 89.28 
L 622.466777 89.28 
L 624.065455 89.28 
L 625.664132 89.28 
L 627.26281 89.28 
L 628.861488 89.28 
L 630.460165 89.28 
L 632.058843 89.28 
L 633.657521 89.28 
L 635.256198 89.28 
L 636.854876 89.28 
L 638.453554 89.28 
L 640.052231 89.28 
L 641.650909 89.28 
L 643.249587 89.28 
L 644.848264 89.28 
L 646.446942 89.28 
L 648.04562 89.28 
L 649.644298 89.28 
L 651.242975 89.28 
L 652.841653 89.28 
L 654.440331 89.28 
L 656.039008 89.28 
L 657.637686 89.28 
L 659.236364 89.28 
L 660.835041 89.28 
L 662.433719 89.28 
L 664.032397 89.28 
L 665.631074 89.28 
L 667.229752 89.28 
L 668.82843 89.28 
L 670.427107 89.28 
L 672.025785 89.28 
L 673.624463 89.28 
L 675.22314 89.28 
L 676.821818 89.28 
L 678.420496 89.28 
L 680.019174 89.28 
L 681.617851 89.28 
L 683.216529 89.28 
L 684.815207 89.28 
L 686.413884 89.28 
L 688.012562 89.28 
L 689.61124 89.28 
L 691.209917 89.28 
L 692.808595 89.28 
L 694.407273 89.28 
L 696.00595 89.28 
L 697.604628 89.28 
L 699.203306 89.28 
L 700.801983 89.28 
L 702.400661 89.28 
L 703.999339 89.28 
L 705.598017 89.28 
L 707.196694 89.28 
L 708.795372 89.28 
L 710.39405 89.28 
L 711.992727 89.28 
L 713.591405 89.28 
L 715.190083 89.28 
L 716.78876 89.28 
L 718.387438 89.28 
L 719.986116 89.28 
L 721.584793 89.28 
L 723.183471 89.28 
L 724.782149 89.28 
L 726.380826 89.28 
L 727.979504 89.28 
L 729.578182 89.28 
L 731.17686 89.28 
L 732.775537 89.28 
L 734.374215 89.28 
L 735.972893 89.28 
L 737.57157 89.28 
L 739.170248 89.28 
L 740.768926 89.28 
L 742.367603 89.28 
L 743.966281 89.28 
L 745.564959 89.28 
L 747.163636 89.28 
" style="fill:none;stroke:#000000;stroke-linecap:square;stroke-width:1.5;"/>
   </g>
   <g id="patch_3">
    <path d="M 108 512.64 
L 108 69.12 
" style="fill:none;stroke:#000000;stroke-linecap:square;stroke-linejoin:miter;stroke-width:0.8;"/>
   </g>
   <g id="patch_4">
    <path d="M 777.6 512.64 
L 777.6 69.12 
" style="fill:none;stroke:#000000;stroke-linecap:square;stroke-linejoin:miter;stroke-width:0.8;"/>
   </g>
   <g id="patch_5">
    <path d="M 108 512.64 
L 777.6 512.64 
" style="fill:none;stroke:#000000;stroke-linecap:square;stroke-linejoin:miter;stroke-width:0.8;"/>
   </g>
   <g id="patch_6">
    <path d="M 108 69.12 
L 777.6 69.12 
" style="fill:none;stroke:#000000;stroke-linecap:square;stroke-linejoin:miter;stroke-width:0.8;"/>
   </g>
   <g id="text_18">
    <!-- Impulso specifico in funzione della quota - Saturn V -->
    <defs>
     <path d="M 54.890625 33.015625 
L 54.890625 0 
L 45.90625 0 
L 45.90625 32.71875 
Q 45.90625 40.484375 42.875 44.328125 
Q 39.84375 48.1875 33.796875 48.1875 
Q 26.515625 48.1875 22.3125 43.546875 
Q 18.109375 38.921875 18.109375 30.90625 
L 18.109375 0 
L 9.078125 0 
L 9.078125 54.6875 
L 18.109375 54.6875 
L 18.109375 46.1875 
Q 21.34375 51.125 25.703125 53.5625 
Q 30.078125 56 35.796875 56 
Q 45.21875 56 50.046875 50.171875 
Q 54.890625 44.34375 54.890625 33.015625 
z
" id="DejaVuSans-110"/>
     <path d="M 5.515625 54.6875 
L 48.1875 54.6875 
L 48.1875 46.484375 
L 14.40625 7.171875 
L 48.1875 7.171875 
L 48.1875 0 
L 4.296875 0 
L 4.296875 8.203125 
L 38.09375 47.515625 
L 5.515625 47.515625 
z
" id="DejaVuSans-122"/>
     <path d="M 45.40625 46.390625 
L 45.40625 75.984375 
L 54.390625 75.984375 
L 54.390625 0 
L 45.40625 0 
L 45.40625 8.203125 
Q 42.578125 3.328125 38.25 0.953125 
Q 33.9375 -1.421875 27.875 -1.421875 
Q 17.96875 -1.421875 11.734375 6.484375 
Q 5.515625 14.40625 5.515625 27.296875 
Q 5.515625 40.1875 11.734375 48.09375 
Q 17.96875 56 27.875 56 
Q 33.9375 56 38.25 53.625 
Q 42.578125 51.265625 45.40625 46.390625 
z
M 14.796875 27.296875 
Q 14.796875 17.390625 18.875 11.75 
Q 22.953125 6.109375 30.078125 6.109375 
Q 37.203125 6.109375 41.296875 11.75 
Q 45.40625 17.390625 45.40625 27.296875 
Q 45.40625 37.203125 41.296875 42.84375 
Q 37.203125 48.484375 30.078125 48.484375 
Q 22.953125 48.484375 18.875 42.84375 
Q 14.796875 37.203125 14.796875 27.296875 
z
" id="DejaVuSans-100"/>
     <path d="M 14.796875 27.296875 
Q 14.796875 17.390625 18.875 11.75 
Q 22.953125 6.109375 30.078125 6.109375 
Q 37.203125 6.109375 41.296875 11.75 
Q 45.40625 17.390625 45.40625 27.296875 
Q 45.40625 37.203125 41.296875 42.84375 
Q 37.203125 48.484375 30.078125 48.484375 
Q 22.953125 48.484375 18.875 42.84375 
Q 14.796875 37.203125 14.796875 27.296875 
z
M 45.40625 8.203125 
Q 42.578125 3.328125 38.25 0.953125 
Q 33.9375 -1.421875 27.875 -1.421875 
Q 17.96875 -1.421875 11.734375 6.484375 
Q 5.515625 14.40625 5.515625 27.296875 
Q 5.515625 40.1875 11.734375 48.09375 
Q 17.96875 56 27.875 56 
Q 33.9375 56 38.25 53.625 
Q 42.578125 51.265625 45.40625 46.390625 
L 45.40625 54.6875 
L 54.390625 54.6875 
L 54.390625 -20.796875 
L 45.40625 -20.796875 
z
" id="DejaVuSans-113"/>
     <path d="M 4.890625 31.390625 
L 31.203125 31.390625 
L 31.203125 23.390625 
L 4.890625 23.390625 
z
" id="DejaVuSans-45"/>
     <path d="M 53.515625 70.515625 
L 53.515625 60.890625 
Q 47.90625 63.578125 42.921875 64.890625 
Q 37.9375 66.21875 33.296875 66.21875 
Q 25.25 66.21875 20.875 63.09375 
Q 16.5 59.96875 16.5 54.203125 
Q 16.5 49.359375 19.40625 46.890625 
Q 22.3125 44.4375 30.421875 42.921875 
L 36.375 41.703125 
Q 47.40625 39.59375 52.65625 34.296875 
Q 57.90625 29 57.90625 20.125 
Q 57.90625 9.515625 50.796875 4.046875 
Q 43.703125 -1.421875 29.984375 -1.421875 
Q 24.8125 -1.421875 18.96875 -0.25 
Q 13.140625 0.921875 6.890625 3.21875 
L 6.890625 13.375 
Q 12.890625 10.015625 18.65625 8.296875 
Q 24.421875 6.59375 29.984375 6.59375 
Q 38.421875 6.59375 43.015625 9.90625 
Q 47.609375 13.234375 47.609375 19.390625 
Q 47.609375 24.75 44.3125 27.78125 
Q 41.015625 30.8125 33.5 32.328125 
L 27.484375 33.5 
Q 16.453125 35.6875 11.515625 40.375 
Q 6.59375 45.0625 6.59375 53.421875 
Q 6.59375 63.09375 13.40625 68.65625 
Q 20.21875 74.21875 32.171875 74.21875 
Q 37.3125 74.21875 42.625 73.28125 
Q 47.953125 72.359375 53.515625 70.515625 
z
" id="DejaVuSans-83"/>
     <path d="M 41.109375 46.296875 
Q 39.59375 47.171875 37.8125 47.578125 
Q 36.03125 48 33.890625 48 
Q 26.265625 48 22.1875 43.046875 
Q 18.109375 38.09375 18.109375 28.8125 
L 18.109375 0 
L 9.078125 0 
L 9.078125 54.6875 
L 18.109375 54.6875 
L 18.109375 46.1875 
Q 20.953125 51.171875 25.484375 53.578125 
Q 30.03125 56 36.53125 56 
Q 37.453125 56 38.578125 55.875 
Q 39.703125 55.765625 41.0625 55.515625 
z
" id="DejaVuSans-114"/>
     <path d="M 28.609375 0 
L 0.78125 72.90625 
L 11.078125 72.90625 
L 34.1875 11.53125 
L 57.328125 72.90625 
L 67.578125 72.90625 
L 39.796875 0 
z
" id="DejaVuSans-86"/>
    </defs>
    <g transform="translate(288.448125 63.12)scale(0.12 -0.12)">
     <use xlink:href="#DejaVuSans-73"/>
     <use x="29.492188" xlink:href="#DejaVuSans-109"/>
     <use x="126.904297" xlink:href="#DejaVuSans-112"/>
     <use x="190.380859" xlink:href="#DejaVuSans-117"/>
     <use x="253.759766" xlink:href="#DejaVuSans-108"/>
     <use x="281.542969" xlink:href="#DejaVuSans-115"/>
     <use x="333.642578" xlink:href="#DejaVuSans-111"/>
     <use x="394.824219" xlink:href="#DejaVuSans-32"/>
     <use x="426.611328" xlink:href="#DejaVuSans-115"/>
     <use x="478.710938" xlink:href="#DejaVuSans-112"/>
     <use x="542.1875" xlink:href="#DejaVuSans-101"/>
     <use x="603.710938" xlink:href="#DejaVuSans-99"/>
     <use x="658.691406" xlink:href="#DejaVuSans-105"/>
     <use x="686.474609" xlink:href="#DejaVuSans-102"/>
     <use x="721.679688" xlink:href="#DejaVuSans-105"/>
     <use x="749.462891" xlink:href="#DejaVuSans-99"/>
     <use x="804.443359" xlink:href="#DejaVuSans-111"/>
     <use x="865.625" xlink:href="#DejaVuSans-32"/>
     <use x="897.412109" xlink:href="#DejaVuSans-105"/>
     <use x="925.195312" xlink:href="#DejaVuSans-110"/>
     <use x="988.574219" xlink:href="#DejaVuSans-32"/>
     <use x="1020.361328" xlink:href="#DejaVuSans-102"/>
     <use x="1055.566406" xlink:href="#DejaVuSans-117"/>
     <use x="1118.945312" xlink:href="#DejaVuSans-110"/>
     <use x="1182.324219" xlink:href="#DejaVuSans-122"/>
     <use x="1234.814453" xlink:href="#DejaVuSans-105"/>
     <use x="1262.597656" xlink:href="#DejaVuSans-111"/>
     <use x="1323.779297" xlink:href="#DejaVuSans-110"/>
     <use x="1387.158203" xlink:href="#DejaVuSans-101"/>
     <use x="1448.681641" xlink:href="#DejaVuSans-32"/>
     <use x="1480.46875" xlink:href="#DejaVuSans-100"/>
     <use x="1543.945312" xlink:href="#DejaVuSans-101"/>
     <use x="1605.46875" xlink:href="#DejaVuSans-108"/>
     <use x="1633.251953" xlink:href="#DejaVuSans-108"/>
     <use x="1661.035156" xlink:href="#DejaVuSans-97"/>
     <use x="1722.314453" xlink:href="#DejaVuSans-32"/>
     <use x="1754.101562" xlink:href="#DejaVuSans-113"/>
     <use x="1817.578125" xlink:href="#DejaVuSans-117"/>
     <use x="1880.957031" xlink:href="#DejaVuSans-111"/>
     <use x="1942.138672" xlink:href="#DejaVuSans-116"/>
     <use x="1981.347656" xlink:href="#DejaVuSans-97"/>
     <use x="2042.626953" xlink:href="#DejaVuSans-32"/>
     <use x="2074.414062" xlink:href="#DejaVuSans-45"/>
     <use x="2110.498047" xlink:href="#DejaVuSans-32"/>
     <use x="2142.285156" xlink:href="#DejaVuSans-83"/>
     <use x="2205.761719" xlink:href="#DejaVuSans-97"/>
     <use x="2267.041016" xlink:href="#DejaVuSans-116"/>
     <use x="2306.25" xlink:href="#DejaVuSans-117"/>
     <use x="2369.628906" xlink:href="#DejaVuSans-114"/>
     <use x="2408.992188" xlink:href="#DejaVuSans-110"/>
     <use x="2472.371094" xlink:href="#DejaVuSans-32"/>
     <use x="2504.158203" xlink:href="#DejaVuSans-86"/>
    </g>
   </g>
   <g id="legend_1">
    <g id="patch_7">
     <path d="M 115 135.8325 
L 250.873438 135.8325 
Q 252.873438 135.8325 252.873438 133.8325 
L 252.873438 76.12 
Q 252.873438 74.12 250.873438 74.12 
L 115 74.12 
Q 113 74.12 113 76.12 
L 113 133.8325 
Q 113 135.8325 115 135.8325 
z
" style="fill:#ffffff;opacity:0.8;stroke:#cccccc;stroke-linejoin:miter;"/>
    </g>
    <g id="line2d_35">
     <path d="M 117 82.218437 
L 137 82.218437 
" style="fill:none;stroke:#6600cc;stroke-linecap:square;stroke-width:1.5;"/>
    </g>
    <g id="line2d_36"/>
    <g id="text_19">
     <!-- 1st Stage -->
     <defs>
      <path d="M 45.40625 27.984375 
Q 45.40625 37.75 41.375 43.109375 
Q 37.359375 48.484375 30.078125 48.484375 
Q 22.859375 48.484375 18.828125 43.109375 
Q 14.796875 37.75 14.796875 27.984375 
Q 14.796875 18.265625 18.828125 12.890625 
Q 22.859375 7.515625 30.078125 7.515625 
Q 37.359375 7.515625 41.375 12.890625 
Q 45.40625 18.265625 45.40625 27.984375 
z
M 54.390625 6.78125 
Q 54.390625 -7.171875 48.1875 -13.984375 
Q 42 -20.796875 29.203125 -20.796875 
Q 24.46875 -20.796875 20.265625 -20.09375 
Q 16.0625 -19.390625 12.109375 -17.921875 
L 12.109375 -9.1875 
Q 16.0625 -11.328125 19.921875 -12.34375 
Q 23.78125 -13.375 27.78125 -13.375 
Q 36.625 -13.375 41.015625 -8.765625 
Q 45.40625 -4.15625 45.40625 5.171875 
L 45.40625 9.625 
Q 42.625 4.78125 38.28125 2.390625 
Q 33.9375 0 27.875 0 
Q 17.828125 0 11.671875 7.65625 
Q 5.515625 15.328125 5.515625 27.984375 
Q 5.515625 40.671875 11.671875 48.328125 
Q 17.828125 56 27.875 56 
Q 33.9375 56 38.28125 53.609375 
Q 42.625 51.21875 45.40625 46.390625 
L 45.40625 54.6875 
L 54.390625 54.6875 
z
" id="DejaVuSans-103"/>
     </defs>
     <g transform="translate(145 85.718437)scale(0.1 -0.1)">
      <use xlink:href="#DejaVuSans-49"/>
      <use x="63.623047" xlink:href="#DejaVuSans-115"/>
      <use x="115.722656" xlink:href="#DejaVuSans-116"/>
      <use x="154.931641" xlink:href="#DejaVuSans-32"/>
      <use x="186.71875" xlink:href="#DejaVuSans-83"/>
      <use x="250.195312" xlink:href="#DejaVuSans-116"/>
      <use x="289.404297" xlink:href="#DejaVuSans-97"/>
      <use x="350.683594" xlink:href="#DejaVuSans-103"/>
      <use x="414.160156" xlink:href="#DejaVuSans-101"/>
     </g>
    </g>
    <g id="line2d_37">
     <path d="M 117 96.896563 
L 137 96.896563 
" style="fill:none;stroke:#997300;stroke-linecap:square;stroke-width:1.5;"/>
    </g>
    <g id="line2d_38"/>
    <g id="text_20">
     <!-- 2nd Stage -->
     <g transform="translate(145 100.396563)scale(0.1 -0.1)">
      <use xlink:href="#DejaVuSans-50"/>
      <use x="63.623047" xlink:href="#DejaVuSans-110"/>
      <use x="127.001953" xlink:href="#DejaVuSans-100"/>
      <use x="190.478516" xlink:href="#DejaVuSans-32"/>
      <use x="222.265625" xlink:href="#DejaVuSans-83"/>
      <use x="285.742188" xlink:href="#DejaVuSans-116"/>
      <use x="324.951172" xlink:href="#DejaVuSans-97"/>
      <use x="386.230469" xlink:href="#DejaVuSans-103"/>
      <use x="449.707031" xlink:href="#DejaVuSans-101"/>
     </g>
    </g>
    <g id="line2d_39">
     <path d="M 117 111.574687 
L 137 111.574687 
" style="fill:none;stroke:#008060;stroke-linecap:square;stroke-width:1.5;"/>
    </g>
    <g id="line2d_40"/>
    <g id="text_21">
     <!-- 3rd Stage - 1st burn -->
     <defs>
      <path d="M 48.6875 27.296875 
Q 48.6875 37.203125 44.609375 42.84375 
Q 40.53125 48.484375 33.40625 48.484375 
Q 26.265625 48.484375 22.1875 42.84375 
Q 18.109375 37.203125 18.109375 27.296875 
Q 18.109375 17.390625 22.1875 11.75 
Q 26.265625 6.109375 33.40625 6.109375 
Q 40.53125 6.109375 44.609375 11.75 
Q 48.6875 17.390625 48.6875 27.296875 
z
M 18.109375 46.390625 
Q 20.953125 51.265625 25.265625 53.625 
Q 29.59375 56 35.59375 56 
Q 45.5625 56 51.78125 48.09375 
Q 58.015625 40.1875 58.015625 27.296875 
Q 58.015625 14.40625 51.78125 6.484375 
Q 45.5625 -1.421875 35.59375 -1.421875 
Q 29.59375 -1.421875 25.265625 0.953125 
Q 20.953125 3.328125 18.109375 8.203125 
L 18.109375 0 
L 9.078125 0 
L 9.078125 75.984375 
L 18.109375 75.984375 
z
" id="DejaVuSans-98"/>
     </defs>
     <g transform="translate(145 115.074687)scale(0.1 -0.1)">
      <use xlink:href="#DejaVuSans-51"/>
      <use x="63.623047" xlink:href="#DejaVuSans-114"/>
      <use x="102.986328" xlink:href="#DejaVuSans-100"/>
      <use x="166.462891" xlink:href="#DejaVuSans-32"/>
      <use x="198.25" xlink:href="#DejaVuSans-83"/>
      <use x="261.726562" xlink:href="#DejaVuSans-116"/>
      <use x="300.935547" xlink:href="#DejaVuSans-97"/>
      <use x="362.214844" xlink:href="#DejaVuSans-103"/>
      <use x="425.691406" xlink:href="#DejaVuSans-101"/>
      <use x="487.214844" xlink:href="#DejaVuSans-32"/>
      <use x="519.001953" xlink:href="#DejaVuSans-45"/>
      <use x="555.085938" xlink:href="#DejaVuSans-32"/>
      <use x="586.873047" xlink:href="#DejaVuSans-49"/>
      <use x="650.496094" xlink:href="#DejaVuSans-115"/>
      <use x="702.595703" xlink:href="#DejaVuSans-116"/>
      <use x="741.804688" xlink:href="#DejaVuSans-32"/>
      <use x="773.591797" xlink:href="#DejaVuSans-98"/>
      <use x="837.068359" xlink:href="#DejaVuSans-117"/>
      <use x="900.447266" xlink:href="#DejaVuSans-114"/>
      <use x="939.810547" xlink:href="#DejaVuSans-110"/>
     </g>
    </g>
    <g id="line2d_41">
     <path d="M 117 126.252813 
L 137 126.252813 
" style="fill:none;stroke:#000000;stroke-linecap:square;stroke-width:1.5;"/>
    </g>
    <g id="line2d_42"/>
    <g id="text_22">
     <!-- 3rd Stage - 2nd burn -->
     <g transform="translate(145 129.752813)scale(0.1 -0.1)">
      <use xlink:href="#DejaVuSans-51"/>
      <use x="63.623047" xlink:href="#DejaVuSans-114"/>
      <use x="102.986328" xlink:href="#DejaVuSans-100"/>
      <use x="166.462891" xlink:href="#DejaVuSans-32"/>
      <use x="198.25" xlink:href="#DejaVuSans-83"/>
      <use x="261.726562" xlink:href="#DejaVuSans-116"/>
      <use x="300.935547" xlink:href="#DejaVuSans-97"/>
      <use x="362.214844" xlink:href="#DejaVuSans-103"/>
      <use x="425.691406" xlink:href="#DejaVuSans-101"/>
      <use x="487.214844" xlink:href="#DejaVuSans-32"/>
      <use x="519.001953" xlink:href="#DejaVuSans-45"/>
      <use x="555.085938" xlink:href="#DejaVuSans-32"/>
      <use x="586.873047" xlink:href="#DejaVuSans-50"/>
      <use x="650.496094" xlink:href="#DejaVuSans-110"/>
      <use x="713.875" xlink:href="#DejaVuSans-100"/>
      <use x="777.351562" xlink:href="#DejaVuSans-32"/>
      <use x="809.138672" xlink:href="#DejaVuSans-98"/>
      <use x="872.615234" xlink:href="#DejaVuSans-117"/>
      <use x="935.994141" xlink:href="#DejaVuSans-114"/>
      <use x="975.357422" xlink:href="#DejaVuSans-110"/>
     </g>
    </g>
   </g>
  </g>
 </g>
 <defs>
  <clipPath id="pa436886eb1">
   <rect height="443.52" width="669.6" x="108" y="69.12"/>
  </clipPath>
 </defs>
</svg>
